<svg width="882" height="882" viewBox="0 0 882 882" fill="none" xmlns="http://www.w3.org/2000/svg">
<g opacity="0.1" clip-path="url(#clip0_434_3675)">
<path d="M788.201 534.098C787.474 536.812 785.72 539.249 783.103 540.754L355.801 787.783C350.575 790.804 343.855 789.003 340.84 783.774L94.2979 356.2C91.2826 350.97 93.0852 344.243 98.3113 341.222L525.61 94.2026C530.836 91.1814 537.556 92.982 540.571 98.2115L787.114 525.786C788.625 528.407 788.926 531.395 788.201 534.098ZM94.2204 348.147C93.5637 350.598 93.8412 353.31 95.2051 355.675L341.747 783.249C344.475 787.98 350.55 789.608 355.288 786.878L782.587 539.859C787.317 537.115 788.944 531.043 786.219 526.303L539.677 98.7286C536.949 93.9978 530.874 92.3699 526.136 95.1003L98.8347 342.129C96.4709 343.496 94.8744 345.706 94.2177 348.157L94.2204 348.147Z" fill="#294596"/>
<path d="M787.315 532.886C786.593 535.579 784.905 537.851 782.527 539.311L369.652 787.265C367.195 788.78 364.282 789.253 361.459 788.583C358.637 787.913 356.25 786.182 354.731 783.71L107.244 370.585C105.722 368.123 105.261 365.211 105.931 362.385C106.584 359.587 108.333 357.169 110.803 355.648L523.678 107.693C526.135 106.179 529.048 105.705 531.871 106.375C534.693 107.045 537.08 108.776 538.599 111.248L786.084 524.383C787.605 526.845 788.067 529.758 787.396 532.583C787.369 532.684 787.342 532.785 787.315 532.886ZM781.988 538.421C784.215 537.039 785.788 534.877 786.383 532.334C786.991 529.783 786.563 527.149 785.196 524.913L537.712 111.778C536.343 109.552 534.181 107.989 531.633 107.382C529.086 106.775 526.454 107.205 524.219 108.574L111.342 356.538C109.118 357.909 107.565 360.077 106.947 362.625C106.339 365.175 106.767 367.809 108.133 370.045L355.631 783.173C357 785.399 359.162 786.962 361.709 787.569C364.257 788.176 366.888 787.746 369.123 786.378L781.998 538.423L781.988 538.421Z" fill="#294596"/>
<path d="M786.418 531.663C785.734 534.215 784.156 536.398 781.939 537.858L383.487 786.758C381.099 788.334 378.22 788.881 375.406 788.3C372.593 787.719 370.171 786.076 368.603 783.667L120.186 384.973C116.943 380.029 118.325 373.34 123.282 370.073L521.722 121.181C526.666 117.922 533.345 119.312 536.606 124.272L785.035 522.958C786.609 525.347 787.154 528.228 786.575 531.035C786.531 531.24 786.484 531.454 786.43 531.656L786.418 531.663ZM781.362 536.99C783.527 535.559 785.009 533.372 785.536 530.843C786.065 528.304 785.573 525.707 784.145 523.541L535.715 124.855C532.788 120.384 526.752 119.134 522.278 122.087L123.844 370.959C119.373 373.902 118.124 379.934 121.071 384.41L369.488 783.104C370.906 785.268 373.09 786.75 375.626 787.278C378.163 787.807 380.757 787.313 382.922 785.882L781.359 537L781.362 536.99Z" fill="#294596"/>
<path d="M785.536 530.443C784.887 532.864 783.429 534.96 781.355 536.415L781.352 536.425L397.339 786.242C395.024 787.871 392.19 788.495 389.384 788.003C386.579 787.51 384.136 785.948 382.504 783.618L133.121 399.368C131.498 397.042 130.874 394.215 131.367 391.407C131.873 388.591 133.423 386.152 135.751 384.517L519.766 134.689C522.081 133.061 524.916 132.437 527.721 132.929C530.526 133.421 532.969 134.984 534.602 137.313L783.974 521.56C785.597 523.887 786.222 526.714 785.729 529.522C785.678 529.833 785.604 530.148 785.523 530.451L785.536 530.443ZM780.755 535.551C782.857 534.071 784.269 531.866 784.709 529.335C785.163 526.797 784.594 524.245 783.117 522.141L533.745 137.894C532.285 135.806 530.072 134.391 527.544 133.952C525.009 133.499 522.459 134.07 520.356 135.55L136.341 385.377C134.254 386.84 132.842 389.045 132.399 391.586C131.946 394.124 132.514 396.676 133.991 398.78L383.364 783.027C384.824 785.116 387.036 786.53 389.564 786.97C392.089 787.419 394.649 786.851 396.752 785.371L780.755 535.551Z" fill="#294596"/>
<path d="M784.655 529.222C784.041 531.512 782.684 533.516 780.764 534.958L780.758 534.978L411.183 785.724C406.523 789.21 399.872 788.239 396.387 783.554L146.07 413.755C142.602 409.086 143.563 402.436 148.246 398.944L517.827 148.179C520.079 146.501 522.862 145.787 525.666 146.204C528.463 146.607 530.94 148.082 532.632 150.351L782.95 520.15C784.624 522.404 785.336 525.189 784.918 527.996C784.861 528.413 784.77 528.832 784.662 529.235L784.655 529.222ZM780.145 534.122C784.359 530.97 785.231 524.977 782.084 520.761L531.767 150.962C530.258 148.937 528.034 147.606 525.507 147.242C522.98 146.879 520.467 147.513 518.427 149.042L148.851 399.788C144.653 402.922 143.779 408.926 146.925 413.142L397.23 782.947C400.359 787.148 406.356 788.02 410.57 784.868L780.138 534.109L780.145 534.122Z" fill="#294596"/>
<path d="M783.791 527.997C783.227 530.105 782.014 532.051 780.175 533.515L780.149 533.529L425.021 785.206C422.841 786.935 420.092 787.723 417.304 787.408C414.516 787.094 412.017 785.7 410.263 783.5L159.013 428.143C157.287 425.962 156.501 423.211 156.817 420.42C157.133 417.629 158.527 415.127 160.726 413.37L515.882 161.669C518.062 159.94 520.811 159.152 523.599 159.467C526.387 159.781 528.886 161.175 530.64 163.375L781.893 518.721C784.033 521.414 784.629 524.871 783.797 527.977L783.791 527.997ZM779.534 532.683C783.615 529.42 784.297 523.452 781.052 519.361L529.799 164.014C528.241 162.051 525.995 160.801 523.48 160.516C520.965 160.231 518.486 160.94 516.508 162.518L161.344 414.206C159.382 415.767 158.141 418.018 157.845 420.533C157.559 423.051 158.266 425.532 159.841 427.511L411.101 782.871C412.659 784.834 414.905 786.084 417.42 786.369C419.936 786.654 422.415 785.945 424.393 784.367L779.534 532.683Z" fill="#294596"/>
<path d="M782.936 526.796C782.387 528.843 781.24 530.665 779.592 532.062L779.564 532.086L438.862 784.688C436.755 786.469 434.047 787.344 431.261 787.105C428.471 786.877 425.948 785.573 424.145 783.436L171.947 442.539C168.242 438.151 168.805 431.535 173.206 427.806L513.925 175.177C518.297 171.473 524.912 172.013 528.643 176.429L780.838 517.336C782.616 519.445 783.488 522.155 783.248 524.944C783.197 525.579 783.082 526.208 782.923 526.803L782.936 526.796ZM778.922 531.255C780.838 529.628 782.008 527.358 782.215 524.851C782.422 522.345 781.642 519.898 780.017 517.981L527.822 177.074C524.494 173.133 518.535 172.639 514.569 175.998L173.849 428.627C169.911 431.961 169.414 437.925 172.768 441.894L424.966 782.791C426.573 784.692 428.84 785.862 431.354 786.071C433.868 786.28 436.303 785.494 438.219 783.867L778.925 531.245L778.922 531.255Z" fill="#294596"/>
<path d="M782.075 525.571C781.572 527.447 780.537 529.213 778.988 530.603L778.96 530.628L452.713 784.173C448.48 788.001 441.877 787.658 438.043 783.388L184.893 456.926C183.052 454.888 182.116 452.215 182.255 449.442C182.396 446.658 183.619 444.11 185.685 442.242L511.97 188.675C516.203 184.847 522.806 185.189 526.64 189.46L779.78 515.918C782.211 518.613 782.958 522.273 782.075 525.571ZM778.313 529.817C782.135 526.354 782.448 520.428 778.987 516.582L525.846 190.123C522.417 186.318 516.476 186.001 512.642 189.471L186.357 443.038C184.522 444.687 183.43 446.989 183.299 449.494C183.168 452 184.015 454.399 185.699 456.256L438.836 782.725C442.266 786.53 448.206 786.846 452.041 783.377L778.313 529.817Z" fill="#294596"/>
<path d="M781.242 524.364C780.758 526.169 779.786 527.822 778.405 529.149L778.377 529.174L466.555 783.655C464.589 785.55 461.96 786.575 459.191 786.514C456.421 786.453 453.839 785.329 451.925 783.324L197.839 471.314C195.947 469.348 194.924 466.717 194.987 463.945C195.05 461.172 196.174 458.587 198.178 456.67L510.038 202.167C514.129 198.226 520.71 198.368 524.671 202.488L778.754 514.508C780.646 516.475 781.668 519.105 781.606 521.878C781.594 522.728 781.466 523.57 781.252 524.367L781.242 524.364ZM777.702 528.388C779.492 526.662 780.501 524.349 780.554 521.855C780.606 519.361 779.685 516.996 777.962 515.204L523.879 203.184C522.181 201.421 519.863 200.4 517.372 200.349C514.88 200.297 512.517 201.221 510.726 202.946L198.853 457.456C197.091 459.157 196.069 461.478 196.016 463.972C195.964 466.466 196.885 468.831 198.608 470.623L452.701 782.645C454.399 784.408 456.717 785.429 459.208 785.481C461.7 785.532 464.064 784.609 465.854 782.883L777.689 528.395L777.702 528.388Z" fill="#294596"/>
<path d="M780.419 523.148C779.973 524.812 779.111 526.375 777.828 527.697L777.797 527.732L480.402 783.137C478.499 785.081 475.922 786.196 473.161 786.224C470.4 786.252 467.786 785.205 465.821 783.273L210.79 485.712C206.743 481.753 206.675 475.194 210.665 471.106L508.091 215.666C509.984 213.719 512.571 212.607 515.332 212.579C518.093 212.551 520.706 213.598 522.672 215.53L777.701 513.101C780.438 515.78 781.361 519.671 780.426 523.16L780.419 523.148ZM777.1 526.95C780.664 523.278 780.6 517.391 776.94 513.805L521.911 216.234C520.164 214.533 517.825 213.593 515.334 213.618C512.854 213.645 510.524 214.642 508.796 216.417L211.37 471.858C207.824 475.502 207.885 481.399 211.546 484.985L466.571 782.566C468.319 784.267 470.658 785.207 473.149 785.183C475.629 785.155 477.958 784.158 479.697 782.386L777.107 526.963L777.1 526.95Z" fill="#294596"/>
<path d="M779.599 521.943C779.183 523.497 778.399 524.973 777.239 526.24L777.208 526.275L494.247 782.619C490.431 786.786 483.888 787.065 479.703 783.219L223.73 500.097C221.737 498.266 220.55 495.721 220.436 492.966C220.311 490.209 221.277 487.57 223.138 485.539L506.13 229.16C507.96 227.165 510.503 225.976 513.258 225.849C516.011 225.733 518.649 226.688 520.677 228.55L776.65 511.672C779.555 514.332 780.567 518.332 779.602 521.933L779.599 521.943ZM776.492 525.521C778.158 523.698 779.018 521.333 778.903 518.86C778.801 516.378 777.73 514.091 775.911 512.415L519.938 229.293C518.144 227.645 515.773 226.782 513.301 226.898C510.822 227.002 508.537 228.076 506.861 229.897L223.88 486.278C222.242 488.078 221.369 490.449 221.484 492.923C221.586 495.404 222.657 497.691 224.476 499.368L480.439 782.487C484.176 785.91 490.053 785.657 493.516 781.883L776.492 525.521Z" fill="#294596"/>
<path d="M778.778 520.742C778.388 522.194 777.681 523.583 776.633 524.794L776.603 524.829L508.089 782.104C506.329 784.161 503.83 785.427 501.076 785.63C498.332 785.835 495.673 784.96 493.583 783.168L236.664 514.495C232.39 510.82 231.904 504.29 235.609 499.975L504.163 242.668C505.924 240.61 508.423 239.345 511.177 239.142C513.921 238.937 516.58 239.811 518.67 241.604L775.578 510.274C778.651 512.913 779.769 517.04 778.778 520.742ZM775.871 524.093C779.189 520.214 778.74 514.353 774.88 511.027L517.971 242.357C514.136 239.059 508.274 239.499 504.933 243.382L236.369 500.686C233.072 504.527 233.508 510.395 237.386 513.737L494.294 782.407C496.137 783.993 498.53 784.774 500.998 784.592C503.465 784.41 505.714 783.272 507.33 781.392L775.869 524.103L775.871 524.093Z" fill="#294596"/>
<path d="M777.99 519.536C777.623 520.908 776.976 522.194 776.053 523.341L776.022 523.376L521.936 781.576C518.404 785.97 511.9 786.67 507.467 783.104L249.623 528.886C247.516 527.197 246.179 524.731 245.877 521.99C245.585 519.253 246.372 516.556 248.102 514.414L502.221 256.169C505.753 251.775 512.257 251.074 516.69 254.64L774.544 508.862C776.651 510.55 777.988 513.017 778.29 515.757C778.43 517.049 778.327 518.318 778 519.539L777.99 519.536ZM775.262 522.664C776.803 520.742 777.505 518.325 777.246 515.866C776.976 513.405 775.777 511.192 773.85 509.638L515.996 255.417C512.053 252.241 506.212 252.881 503.009 256.855L248.879 515.098C247.357 516.992 246.645 519.407 246.914 521.868C247.183 524.329 248.383 526.543 250.31 528.097L508.161 782.328C512.104 785.504 517.945 784.863 521.148 780.889L775.252 522.662L775.262 522.664Z" fill="#294596"/>
<path d="M777.204 518.329C776.864 519.6 776.284 520.796 775.466 521.874L775.432 521.919L535.781 781.057C534.155 783.216 531.732 784.643 529.005 785.025C526.279 785.408 523.563 784.702 521.362 783.042L262.573 543.273C260.417 541.647 258.994 539.222 258.613 536.493C258.232 533.764 258.939 531.045 260.598 528.841L500.283 269.658C503.673 265.15 510.158 264.24 514.705 267.663L773.504 507.435C775.66 509.062 777.083 511.486 777.464 514.215C777.663 515.609 777.571 517.001 777.217 518.322L777.204 518.329ZM774.655 521.235C776.136 519.254 776.764 516.828 776.416 514.378C776.071 511.918 774.795 509.749 772.819 508.257L514.03 268.488C509.988 265.437 504.155 266.253 501.071 270.345L261.392 529.508C259.931 531.452 259.3 533.888 259.645 536.348C259.99 538.808 261.266 540.977 263.242 542.468L522.029 782.248C523.97 783.709 526.403 784.339 528.861 783.992C531.319 783.645 533.486 782.367 534.978 780.388L774.644 521.233L774.655 521.235Z" fill="#294596"/>
<path d="M776.416 517.147C776.108 518.297 775.596 519.403 774.878 520.432L774.844 520.477L549.632 780.533C546.375 785.152 539.909 786.273 535.249 782.992L275.515 557.671C273.297 556.115 271.796 553.735 271.329 551.004C270.86 548.284 271.476 545.541 273.076 543.278L498.324 283.167C499.88 280.946 502.259 279.443 504.987 278.974C507.705 278.502 510.455 279.12 512.707 280.708L772.441 506.028C776.047 508.572 777.518 513.075 776.429 517.14L776.416 517.147ZM774.041 519.807C776.979 515.611 775.975 509.807 771.787 506.858L512.053 281.538C510.063 280.139 507.6 279.577 505.154 280.002C502.707 280.428 500.574 281.781 499.135 283.806L273.887 543.917C272.489 545.91 271.926 548.375 272.35 550.823C272.773 553.272 274.124 555.407 276.149 556.836L535.89 782.169C540.04 785.097 545.849 784.092 548.811 779.891L774.043 519.797L774.041 519.807Z" fill="#294596"/>
<path d="M775.644 515.956C775.363 517.005 774.918 518.021 774.285 518.975L774.251 519.02L563.474 780.014C561.98 782.284 559.643 783.874 556.934 784.435C554.224 784.995 551.452 784.458 549.138 782.94L288.461 572.059C283.725 568.941 282.408 562.491 285.546 557.71L496.357 296.672C497.85 294.402 500.188 292.812 502.897 292.251C505.607 291.691 508.378 292.228 510.693 293.746L771.362 504.614C775.153 507.111 776.751 511.745 775.627 515.941L775.644 515.956ZM773.429 518.379C776.233 514.081 775.052 508.295 770.765 505.471L510.096 294.602C508.06 293.256 505.563 292.782 503.127 293.286C500.692 293.79 498.583 295.214 497.217 297.291L286.396 558.327C283.59 562.592 284.789 568.394 289.075 571.218L549.755 782.089C551.791 783.435 554.288 783.91 556.723 783.405C559.159 782.901 561.268 781.477 562.634 779.4L773.429 518.379Z" fill="#294596"/>
<path d="M774.899 514.738C774.64 515.706 774.239 516.637 773.703 517.509L773.672 517.544L577.33 779.476C575.896 781.806 573.603 783.472 570.902 784.121C568.201 784.771 565.405 784.324 563.031 782.867L301.417 586.447C296.569 583.461 295.042 577.031 298.038 572.136L494.414 310.159C497.389 305.303 503.817 303.76 508.712 306.769L770.327 503.189C772.653 504.623 774.317 506.917 774.964 509.621C775.37 511.329 775.345 513.074 774.902 514.728L774.899 514.738ZM772.827 516.95C774.131 514.824 774.523 512.313 773.942 509.887C773.364 507.451 771.866 505.385 769.732 504.078L508.118 307.658C506.022 306.373 503.516 305.971 501.079 306.562C498.646 307.142 496.58 308.643 495.274 310.779L298.898 572.756C296.217 577.118 297.603 582.906 301.998 585.608L563.612 782.028C565.698 783.311 568.214 783.715 570.648 783.134C573.082 782.554 575.147 781.054 576.454 778.917L772.814 516.958L772.827 516.95Z" fill="#294596"/>
<path d="M774.142 513.553C773.909 514.42 773.566 515.258 773.102 516.063L773.091 516.104L591.163 778.968C588.32 783.936 581.921 785.692 576.912 782.825L314.363 600.857C309.391 598.011 307.664 591.603 310.517 586.595L492.456 323.69C493.82 321.299 496.069 319.555 498.772 318.82C501.464 318.082 504.291 318.45 506.717 319.835L769.267 501.804C771.655 503.168 773.395 505.418 774.128 508.122C774.616 509.929 774.622 511.8 774.149 513.566L774.142 513.553ZM772.21 515.522C773.452 513.346 773.776 510.806 773.119 508.382C772.462 505.957 770.89 503.925 768.71 502.671L506.161 320.703C504.016 319.479 501.478 319.156 499.046 319.812C496.623 320.471 494.592 322.046 493.338 324.229L311.399 587.134C310.175 589.281 309.851 591.821 310.505 594.256C311.162 596.681 312.734 598.713 314.914 599.967L577.464 781.935C581.929 784.494 587.697 782.915 590.277 778.406L772.2 515.519L772.21 515.522Z" fill="#294596"/>
<path d="M773.392 512.378C773.189 513.135 772.903 513.88 772.516 514.598L772.506 514.638L605.015 778.431C602.311 783.522 595.924 785.476 590.801 782.752L327.317 615.235C322.231 612.532 320.286 606.13 323.008 601.011L490.509 337.178C491.814 334.727 494.019 332.907 496.702 332.081C499.386 331.254 502.238 331.531 504.712 332.854L768.197 500.371C772.563 502.697 774.622 507.746 773.384 512.366L773.392 512.378ZM771.604 514.094C774.048 509.484 772.284 503.736 767.683 501.281L504.198 333.765C501.997 332.591 499.438 332.349 497.014 333.094C494.59 333.839 492.606 335.48 491.414 337.712L323.912 601.545C321.473 606.135 323.237 611.883 327.848 614.34L591.333 781.856C595.907 784.293 601.66 782.526 604.118 777.909L771.604 514.094Z" fill="#294596"/>
<path d="M772.654 511.198C772.476 511.864 772.237 512.514 771.915 513.151L771.907 513.182L618.85 777.912C616.286 783.128 609.921 785.282 604.685 782.7L340.265 629.636C337.756 628.401 335.862 626.24 334.951 623.552C334.041 620.865 334.227 617.996 335.49 615.459L488.554 350.698C491.128 345.485 497.483 343.329 502.719 345.91L767.139 498.975C771.709 501.226 773.935 506.417 772.654 511.198ZM770.997 512.668C773.309 507.947 771.368 502.216 766.658 499.884L502.238 346.819C497.546 344.502 491.817 346.459 489.485 351.174L336.42 615.935C335.309 618.189 335.143 620.782 335.952 623.204C336.773 625.619 338.483 627.58 340.764 628.699L605.184 781.764C609.876 784.081 615.615 782.127 617.938 777.409L770.987 512.665L770.997 512.668Z" fill="#294596"/>
<path d="M771.944 510.001C771.79 510.576 771.585 511.137 771.338 511.698L771.33 511.728L632.71 777.387C631.535 779.958 629.419 781.932 626.743 782.934C624.079 783.928 621.178 783.832 618.582 782.639L353.227 644.026C347.907 641.595 345.536 635.251 347.986 629.897L486.613 364.208C489.044 358.882 495.383 356.504 500.731 358.954L766.086 497.567C768.654 498.741 770.625 500.858 771.624 503.537C772.41 505.64 772.511 507.883 771.941 510.011L771.944 510.001ZM770.389 511.249C771.446 508.916 771.541 506.304 770.654 503.893C769.756 501.48 767.97 499.563 765.632 498.494L500.277 359.881C495.477 357.686 489.752 359.828 487.552 364.654L348.924 630.343C346.739 635.152 348.866 640.879 353.686 643.078L619.041 781.692C621.351 782.743 623.971 782.84 626.383 781.94C628.794 781.04 630.707 779.261 631.78 776.91L770.392 511.239L770.389 511.249Z" fill="#294596"/>
<path d="M771.222 508.824C771.095 509.298 770.935 509.774 770.735 510.24L770.729 510.26L646.557 776.849C645.452 779.483 643.367 781.54 640.712 782.623C638.057 783.707 635.125 783.688 632.484 782.581L366.202 658.432C360.758 656.141 358.191 649.8 360.486 644.339L484.663 377.729C486.955 372.279 493.282 369.704 498.746 372L765.026 496.159C767.657 497.264 769.711 499.35 770.792 502.007C771.683 504.202 771.824 506.575 771.222 508.824ZM769.778 509.821C770.788 507.422 770.8 504.798 769.824 502.396C768.847 499.994 766.987 498.111 764.6 497.104L498.32 372.946C493.401 370.871 487.701 373.203 485.623 378.138L361.446 644.747C359.373 649.662 361.697 655.377 366.626 657.454L632.909 781.603C635.275 782.604 637.916 782.62 640.317 781.642C642.717 780.663 644.598 778.8 645.606 776.411L769.78 509.811L769.778 509.821Z" fill="#294596"/>
<path d="M770.512 507.66C770.412 508.033 770.289 508.411 770.146 508.784L660.408 776.311C658.246 781.883 651.948 784.671 646.373 782.507L379.155 672.81C373.59 670.648 370.808 664.346 372.973 658.765L482.713 391.227C483.759 388.534 485.789 386.397 488.446 385.228C491.102 384.059 494.049 383.984 496.749 385.031L763.967 494.728C769.16 496.747 771.928 502.375 770.514 507.65L770.512 507.66ZM769.181 508.395C771.117 503.347 768.623 497.662 763.585 495.707L496.367 386.01C491.34 384.058 485.645 386.575 483.688 391.618L373.948 659.156C371.995 664.189 374.506 669.889 379.544 671.844L646.762 781.541C651.789 783.493 657.485 780.976 659.441 775.933L769.181 508.395Z" fill="#294596"/>
<path d="M769.81 506.491C769.734 506.773 769.649 507.053 769.553 507.33L674.242 775.783C673.264 778.548 671.268 780.759 668.63 782.019C665.992 783.28 663.014 783.433 660.252 782.456L392.109 687.213C386.42 685.191 383.438 678.911 385.461 673.216L480.771 404.763C481.747 402.008 483.746 399.787 486.384 398.527C489.022 397.266 492 397.113 494.761 398.09L762.904 493.333C768.317 495.259 771.285 501.027 769.82 506.494L769.81 506.491ZM768.567 506.98C770.378 501.833 767.692 496.14 762.543 494.317L494.4 399.075C491.905 398.19 489.213 398.323 486.823 399.466C484.433 400.609 482.622 402.61 481.737 405.108L386.427 673.561C384.587 678.733 387.292 684.398 392.45 686.223L660.593 781.466C663.088 782.351 665.78 782.218 668.17 781.075C670.561 779.931 672.361 777.927 673.257 775.432L768.567 506.98Z" fill="#294596"/>
</g>
<defs>
<clipPath id="clip0_434_3675">
<rect width="720.308" height="719.505" fill="white" transform="translate(0 695.764) rotate(-75)"/>
</clipPath>
</defs>
</svg>
