<svg width="121" height="50" viewBox="0 0 121 50" fill="none" xmlns="http://www.w3.org/2000/svg">
<g clip-path="url(#clip0_434_5376)">
<path d="M72.7402 22.4219H70.303V28.8112H67.3984V12.6971H72.838C74.2923 12.6233 75.7307 13.0223 76.9392 13.8342C77.9441 14.5503 78.5234 15.7213 78.4814 16.9521V18.147C78.5054 18.9808 78.2297 19.7967 77.7063 20.447C77.139 21.1312 76.3959 21.6479 75.5569 21.9411L79.2625 28.8232H76.0623L72.7422 22.4199L72.7402 22.4219ZM70.303 20.2615H72.7402C73.4733 20.3034 74.2005 20.1019 74.8077 19.687C75.3052 19.306 75.5848 18.7035 75.5569 18.0772V17.0877C75.5888 16.4514 75.3052 15.841 74.7958 15.458C74.1865 15.043 73.4573 14.8416 72.7222 14.8835H70.303V20.2635V20.2615Z" fill="#231F20"/>
<path d="M91.5043 23.5706H83.5697C83.5097 24.4982 83.8074 25.4118 84.4027 26.126C85.0639 26.7164 85.9369 27.0097 86.8218 26.9438C87.3812 26.9498 87.9385 26.8601 88.4659 26.6745C89.0293 26.4731 89.5726 26.2237 90.092 25.9265L91.1088 27.6321C90.4915 28.0729 89.8123 28.422 89.0932 28.6674C88.3021 28.9407 87.4731 29.0783 86.6361 29.0763C85.5413 29.1042 84.4586 28.8469 83.4938 28.3282C82.6368 27.8575 81.9356 27.1473 81.4781 26.2836C81.0047 25.364 80.767 24.3406 80.7869 23.3053V22.0266C80.763 20.9973 80.9827 19.978 81.4262 19.0484C81.8537 18.1846 82.5209 17.4625 83.3459 16.9658C84.2249 16.4471 85.2317 16.1838 86.2505 16.2058C87.7168 16.118 89.1471 16.6765 90.1659 17.7338C91.0868 18.7551 91.5483 20.2313 91.5483 22.1623C91.5643 22.6311 91.5483 23.1018 91.5043 23.5686M89.0093 21.5977C89.0632 20.732 88.8155 19.8722 88.3061 19.1701C87.7987 18.5896 87.0476 18.2804 86.2785 18.3322C85.5234 18.2824 84.7902 18.5936 84.3008 19.1701C83.7874 19.9201 83.5297 20.8178 83.5717 21.7254H89.0113V21.5977H89.0093Z" fill="#231F20"/>
<path d="M100.685 28.7993H97.161L93.1797 16.5552H96.1482L98.9829 26.5173L101.818 16.5552H104.672L100.685 28.7993Z" fill="#231F20"/>
<path d="M110.57 28.799H107.709V18.6773H105.867V16.5568H110.57V28.799ZM107.805 14.1531C107.471 13.8419 107.284 13.403 107.294 12.9462C107.297 11.9907 108.079 11.2187 109.035 11.2227C109.487 11.2227 109.92 11.4022 110.244 11.7194C110.58 12.0386 110.763 12.4834 110.749 12.9462C110.761 13.403 110.578 13.8419 110.244 14.1531C109.567 14.8173 108.482 14.8173 107.807 14.1531" fill="#231F20"/>
<path d="M121.001 28.7992C120.306 28.9967 119.586 29.0964 118.863 29.0925C117.876 29.1603 116.898 28.873 116.104 28.2806C115.439 27.6163 115.1 26.6927 115.178 25.7571V18.6775H113.258V16.557H115.178L115.407 13.5469H117.966V16.557H120.615V18.6775H117.966V25.5975C117.94 25.9666 118.076 26.3276 118.338 26.587C118.661 26.8263 119.063 26.9401 119.465 26.9061C119.868 26.9061 120.272 26.8662 120.667 26.7904L121.001 28.7972V28.7992Z" fill="#231F20"/>
<path d="M53.7563 50.0001H8.09386C6.54168 50.0001 5.28516 48.7433 5.28516 47.1954V9.62305H53.7563V50.0001Z" fill="#0B3C8F"/>
<path d="M8.76562 0H47.4582C49.0104 0 50.2669 1.25673 50.2669 2.80471V40.375H8.76562V0Z" fill="#1A6AFE"/>
<path d="M0 46.0563L8.76571 40.377V0L0 5.68123V46.0563Z" fill="#699BEA"/>
<path d="M37.8029 29.0786V31.7038C37.2516 31.9312 36.6583 32.0429 36.063 32.0289C35.2619 32.0489 34.4729 31.8434 33.7857 31.4345C33.0565 30.9437 32.4792 30.2595 32.1156 29.4596L28.7955 23.0702H25.1098V31.7018H21.0586V9.24614H28.6417C30.6733 9.1484 32.683 9.71692 34.363 10.8619C35.7653 11.8653 36.5744 13.5031 36.5185 15.2266V17.0858C36.5324 18.2029 36.1609 19.29 35.4697 20.1657C34.7166 21.1133 33.7257 21.8454 32.5971 22.2862L35.5855 27.9994C35.9511 28.7115 36.7042 29.1404 37.5053 29.0925L37.8049 29.0806L37.8029 29.0786ZM25.1078 20.058H28.4799C29.5107 20.1139 30.5335 19.8346 31.3905 19.2601C32.1056 18.7255 32.5092 17.8697 32.4652 16.98V15.3762C32.5112 14.4865 32.1076 13.6327 31.3905 13.1021C30.5335 12.5256 29.5107 12.2424 28.4799 12.2962H25.1078V20.06V20.058Z" fill="white"/>
</g>
<defs>
<clipPath id="clip0_434_5376">
<rect width="121" height="50" fill="white"/>
</clipPath>
</defs>
</svg>
