<svg width="160" height="50" viewBox="0 0 160 50" fill="none" xmlns="http://www.w3.org/2000/svg">
<g clip-path="url(#clip0_434_5387)">
<path d="M76.6731 24.5626H71.1142L69.9036 28.7993H66.9844L71.8986 12.6963H75.8506L81.0132 28.7993H78.0302L76.6731 24.5626ZM71.7588 22.243H75.985L73.8502 14.6962L71.7602 22.243H71.7588Z" fill="#231F20"/>
<path d="M93.1241 16.5562V28.7994H90.7152L90.5116 27.4388C89.5901 28.5041 88.2479 29.1096 86.8405 29.0932C86.1606 29.1027 85.4888 28.9449 84.8835 28.6334C84.3067 28.3463 83.8209 27.9028 83.4816 27.3559C83.1287 26.7613 82.9496 26.0797 82.9659 25.3872V16.5562H85.8091V25.2335C85.7765 25.7015 85.9353 26.1627 86.2488 26.511C86.5922 26.8334 87.0536 26.9967 87.5232 26.964C88.0484 26.9586 88.5628 26.8144 89.0147 26.5491C89.5209 26.2675 89.9565 25.8743 90.289 25.3994V16.5562H93.1255H93.1241Z" fill="#231F20"/>
<path d="M103.519 28.7991C102.824 28.9964 102.106 29.0957 101.384 29.093C100.402 29.1597 99.4271 28.8712 98.6373 28.2821C97.9641 27.6223 97.6167 26.6985 97.6873 25.7584V18.6783H95.832V16.5573H97.7443L97.9736 13.5479H100.524V16.5573H103.162V18.6783H100.524V25.5979C100.497 25.9652 100.63 26.3257 100.887 26.5883C101.212 26.8291 101.613 26.942 102.015 26.908C102.416 26.9067 102.815 26.8672 103.207 26.7924L103.519 28.7991Z" fill="#231F20"/>
<path d="M114.008 16.9708C114.867 17.4347 115.566 18.1503 116.01 19.0224C116.459 19.9598 116.678 20.9924 116.648 22.0319V23.3094C116.721 24.8644 116.175 26.3868 115.13 27.5392C113.995 28.648 112.443 29.2235 110.86 29.1242C109.292 29.2235 107.757 28.6466 106.64 27.5392C105.61 26.3678 105.082 24.8359 105.174 23.2767V21.9992C105.146 20.9598 105.366 19.9285 105.812 18.9898C106.229 18.1286 106.895 17.4129 107.724 16.9381C108.681 16.4225 109.756 16.1681 110.842 16.2034C111.947 16.1776 113.038 16.4429 114.009 16.9708M108.73 19.3095C108.185 20.0904 107.923 21.036 107.99 21.987V23.2645C107.923 24.2359 108.179 25.2018 108.717 26.0127C109.238 26.6521 110.036 27.0004 110.858 26.946C111.69 26.9963 112.498 26.6508 113.038 26.0127C113.6 25.2114 113.867 24.2413 113.796 23.2645V21.987C113.863 21.0346 113.594 20.0904 113.038 19.3163C112.494 18.685 111.687 18.3449 110.858 18.3966C110.044 18.3422 109.253 18.6823 108.729 19.3108" fill="#231F20"/>
<path d="M122.152 28.3449C121.23 27.8768 120.472 27.1394 119.978 26.2293C119.462 25.2456 119.205 24.145 119.233 23.0348V18.8118C119.204 17.6281 119.474 16.4567 120.017 15.4064C120.52 14.4582 121.295 13.6813 122.241 13.1766C123.307 12.6337 124.489 12.3657 125.683 12.397C126.613 12.3739 127.537 12.5262 128.411 12.8446C129.206 13.1575 129.95 13.5874 130.616 14.1221L129.151 15.7833C128.669 15.42 128.138 15.1262 127.576 14.9085C126.998 14.7003 126.386 14.5983 125.773 14.6078C124.764 14.548 123.78 14.9303 123.076 15.6554C122.396 16.4921 122.057 17.556 122.126 18.6336V23.0035C122.051 24.0429 122.37 25.0715 123.018 25.8851C123.711 26.568 124.668 26.9163 125.637 26.8374C126.299 26.8469 126.96 26.7435 127.587 26.5299C128.179 26.3136 128.742 26.0238 129.263 25.6674L130.474 27.3925C129.809 27.8932 129.075 28.2959 128.294 28.587C127.422 28.9122 126.497 29.0741 125.566 29.0659C124.386 29.1081 123.213 28.8591 122.15 28.3435" fill="#231F20"/>
<path d="M141.127 24.5626H135.575L134.358 28.7993H131.445L136.353 12.6963H140.279L145.442 28.7993H142.459L141.126 24.5626H141.127ZM136.213 22.243H140.439L138.317 14.6962L136.213 22.243Z" fill="#231F20"/>
<path d="M158.314 14.4214C159.489 15.7125 160.093 17.4254 159.99 19.1696V22.0198C160.096 23.8729 159.426 25.6864 158.142 27.0224C156.912 28.2238 155.159 28.8305 152.877 28.8305H148.199V12.6963H153.451C155.581 12.6963 157.201 13.2718 158.314 14.4214ZM157.097 19.0675C157.182 17.956 156.85 16.854 156.166 15.9751C155.421 15.2214 154.385 14.8309 153.329 14.9085H151.067V26.5639H152.884C154.058 26.6646 155.218 26.2551 156.071 25.4388C156.835 24.4756 157.205 23.2593 157.11 22.0335L157.098 19.0689L157.097 19.0675Z" fill="#231F20"/>
<path d="M53.5504 50.0002H8.06407C6.51828 50.0002 5.26562 48.7444 5.26562 47.1948V9.62305H53.549V50.0002H53.5504Z" fill="#770829"/>
<path d="M8.73047 0H47.2749C48.8207 0 50.0734 1.25575 50.0734 2.80537V40.3771H8.73047V0Z" fill="#E51050"/>
<path d="M0 46.0572L8.73191 40.3771V0L0 5.68012V46.0572Z" fill="#E85984"/>
<path d="M33.2921 25.5148H25.2605L23.5017 31.6357H19.2891L26.3897 8.35742H32.0626L39.5201 31.6357H35.2112L33.2921 25.5148ZM26.1915 22.1598H32.2919L29.2071 11.2975L26.1929 22.1598H26.1915Z" fill="white"/>
</g>
<defs>
<clipPath id="clip0_434_5387">
<rect width="160" height="50" fill="white"/>
</clipPath>
</defs>
</svg>
