<svg width="629" height="1067" viewBox="0 0 629 1067" fill="none" xmlns="http://www.w3.org/2000/svg">
<g opacity="0.1" clip-path="url(#clip0_434_5015)">
<path d="M-99.6389 195.346C-102.278 196.87 -104.34 199.393 -105.181 202.557L-244.057 719.664C-245.755 725.988 -241.982 732.524 -235.655 734.216L281.6 872.505C287.927 874.196 294.47 870.418 296.168 864.094L435.034 346.993C436.733 340.668 432.959 334.132 426.633 332.441L-90.6229 194.152C-93.7938 193.304 -97.0098 193.828 -99.6389 195.346ZM290.06 870.325C287.677 871.701 284.757 872.172 281.895 871.407L-235.361 733.118C-241.084 731.588 -244.495 725.679 -242.964 719.948L-104.098 202.847C-102.552 197.12 -96.6464 193.71 -90.9136 195.234L426.342 333.523C432.065 335.054 435.477 340.962 433.946 346.694L295.07 863.8C294.302 866.661 292.434 868.954 290.051 870.331L290.06 870.325Z" fill="#294596"/>
<path d="M-98.1131 195.945C-100.732 197.457 -102.639 199.864 -103.501 202.766L-247.397 705.015C-248.294 708.016 -247.972 711.201 -246.478 713.97C-244.984 716.74 -242.499 718.755 -239.483 719.652L262.898 862.989C265.905 863.892 269.087 863.558 271.859 862.062C274.608 860.592 276.65 858.08 277.551 855.065L421.447 352.815C422.344 349.815 422.022 346.63 420.528 343.86C419.034 341.091 416.549 339.076 413.533 338.178L-88.8579 194.848C-91.8646 193.944 -95.0463 194.279 -97.8188 195.775C-97.9169 195.832 -98.015 195.888 -98.1131 195.945ZM-102.417 203.081C-101.595 200.359 -99.7704 198.104 -97.2726 196.766C-94.7707 195.413 -91.8909 195.122 -89.164 195.926L413.227 339.257C415.944 340.066 418.188 341.893 419.54 344.392C420.891 346.891 421.179 349.769 420.373 352.495L276.467 854.75C275.654 857.466 273.819 859.702 271.323 861.065C268.821 862.418 265.941 862.708 263.214 861.905L-239.172 718.559C-241.889 717.749 -244.134 715.923 -245.486 713.424C-246.837 710.924 -247.125 708.046 -246.318 705.32L-102.422 203.071L-102.417 203.081Z" fill="#294596"/>
<path d="M-96.5825 196.538C-99.0644 197.971 -100.908 200.237 -101.816 202.97L-250.752 690.373C-251.733 693.317 -251.499 696.487 -250.1 699.273C-248.701 702.058 -246.299 704.134 -243.334 705.1L244.185 853.463C250.277 855.473 256.898 852.147 258.929 846.035L407.861 358.648C409.887 352.552 406.556 345.944 400.443 343.92L-87.0727 195.542C-90.0179 194.564 -93.19 194.802 -95.9686 196.197C-96.1704 196.3 -96.3821 196.409 -96.5783 196.522L-96.5825 196.538ZM-100.744 203.331C-99.853 200.66 -97.978 198.493 -95.4756 197.232C-92.9635 195.964 -90.1045 195.751 -87.4335 196.639L400.082 345.017C405.589 346.829 408.593 352.803 406.755 358.319L257.843 845.695C256.015 851.206 250.044 854.209 244.527 852.378L-242.993 704.015C-245.659 703.137 -247.825 701.265 -249.091 698.755C-250.356 696.246 -250.567 693.389 -249.676 690.718L-100.754 203.336L-100.744 203.331Z" fill="#294596"/>
<path d="M-95.0588 197.119C-97.4132 198.478 -99.2 200.594 -100.142 203.176L-100.152 203.182L-254.104 675.712C-255.16 678.595 -255.018 681.74 -253.715 684.541C-252.412 687.343 -250.088 689.464 -247.189 690.521L225.467 843.95C228.361 844.997 231.498 844.858 234.302 843.553C237.11 842.232 239.231 839.923 240.291 837.025L394.253 364.489C395.309 361.606 395.167 358.461 393.864 355.66C392.56 352.858 390.237 350.737 387.338 349.68L-85.3125 196.261C-88.206 195.214 -91.3434 195.353 -94.1476 196.658C-94.4589 196.799 -94.7686 196.964 -95.063 197.134L-95.0588 197.119ZM-99.0688 203.563C-98.1086 200.944 -96.1939 198.846 -93.666 197.673C-91.1339 196.486 -88.2997 196.365 -85.6805 197.322L386.97 350.742C389.568 351.685 391.671 353.607 392.842 356.132C394.028 358.662 394.146 361.494 393.185 364.113L239.223 836.648C238.277 839.246 236.362 841.344 233.825 842.522C231.293 843.709 228.458 843.83 225.839 842.873L-246.811 689.453C-249.409 688.51 -251.513 686.589 -252.683 684.063C-253.863 681.544 -253.987 678.701 -253.027 676.083L-99.0688 203.563Z" fill="#294596"/>
<path d="M-93.5275 197.702C-95.7544 198.987 -97.4729 200.973 -98.4451 203.389L-98.4647 203.401L-257.443 661.063C-259.788 666.924 -256.903 673.621 -251.015 675.957L206.761 834.424C212.627 836.747 219.326 833.872 221.669 827.985L380.667 370.312C381.792 367.48 381.759 364.364 380.535 361.542C379.327 358.725 377.087 356.543 374.233 355.408L-83.5419 196.941C-86.374 195.819 -89.4922 195.855 -92.3163 197.081C-92.7371 197.258 -93.1506 197.471 -93.543 197.698L-93.5275 197.702ZM-97.3956 203.802C-95.2759 198.502 -89.2406 195.906 -83.9394 198.019L373.836 356.486C376.382 357.499 378.402 359.456 379.492 362.001C380.582 364.547 380.623 367.358 379.594 369.925L220.616 827.588C218.51 832.867 212.465 835.468 207.164 833.355L-250.616 674.904C-255.896 672.804 -258.493 666.765 -256.374 661.465L-97.3802 203.807L-97.3956 203.802Z" fill="#294596"/>
<path d="M-92.008 198.258C-94.0583 199.442 -95.7563 201.259 -96.7739 203.597L-96.7822 203.628L-260.792 646.413C-261.992 649.183 -262.045 652.284 -260.933 655.118C-259.82 657.951 -257.658 660.178 -254.861 661.398L188.044 824.897C190.814 826.093 193.917 826.144 196.753 825.029C199.589 823.915 201.819 821.752 203.043 818.955L367.071 376.133C368.271 373.363 368.324 370.262 367.212 367.429C366.099 364.595 363.937 362.368 361.14 361.148L-81.755 197.644C-85.177 196.157 -88.9668 196.503 -91.9883 198.247L-92.008 198.258ZM-95.7228 204.036C-93.4496 198.843 -87.3868 196.453 -82.189 198.704L360.706 362.209C363.201 363.29 365.141 365.292 366.146 367.848C367.151 370.404 367.104 373.2 366.006 375.716L201.994 818.541C200.909 821.036 198.898 822.968 196.346 823.984C193.788 824.991 190.99 824.947 188.474 823.852L-254.437 660.343C-256.931 659.262 -258.872 657.26 -259.877 654.704C-260.881 652.148 -260.835 649.351 -259.737 646.836L-95.7228 204.036Z" fill="#294596"/>
<path d="M-90.5065 198.815C-92.498 199.965 -94.0855 201.679 -95.0856 203.798L-95.1037 203.834L-264.134 631.762C-265.408 634.47 -265.565 637.553 -264.532 640.406C-263.509 643.265 -261.435 645.543 -258.69 646.832L169.33 815.384C174.968 818.035 181.742 815.587 184.414 809.928L353.468 381.974C356.121 376.353 353.698 369.573 348.024 366.904L-80.0057 198.358C-82.7147 197.087 -85.7986 196.933 -88.6544 197.968C-89.3052 198.2 -89.9319 198.497 -90.5107 198.831L-90.5065 198.815ZM-94.0527 204.273C-92.8854 201.809 -90.8349 199.946 -88.2666 199.025C-85.6984 198.104 -82.9152 198.235 -80.451 199.399L347.579 367.945C352.642 370.326 354.832 376.431 352.427 381.53L183.373 809.484C180.985 814.547 174.875 816.742 169.775 814.343L-258.244 645.791C-260.688 644.641 -262.55 642.593 -263.474 640.017C-264.399 637.442 -264.26 634.67 -263.093 632.206L-94.0429 204.267L-94.0527 204.273Z" fill="#294596"/>
<path d="M-88.9846 199.373C-90.8093 200.427 -92.3692 202.007 -93.3908 204.021L-93.4089 204.058L-267.486 617.103C-270.308 622.613 -268.096 629.437 -262.545 632.255L150.616 805.858C153.269 807.214 156.332 807.444 159.199 806.52C162.077 805.591 164.403 803.594 165.78 800.905L339.87 387.813C342.692 382.303 340.48 375.479 334.929 372.661L-78.226 199.068C-81.7322 197.277 -85.7767 197.521 -88.9846 199.373ZM-92.3775 204.507C-89.8225 199.531 -83.7005 197.538 -78.6982 200.085L334.456 373.678C339.407 376.203 341.406 382.34 338.847 387.332L164.757 800.424C163.545 802.81 161.439 804.6 158.851 805.441C156.263 806.282 153.51 806.068 151.092 804.825L-262.072 631.237C-267.023 628.712 -269.022 622.576 -266.463 617.584L-92.3775 204.507Z" fill="#294596"/>
<path d="M-87.4868 199.906C-89.2428 200.92 -90.702 202.402 -91.7047 204.222L-91.7228 204.259L-270.83 602.453C-272.264 605.044 -272.6 608.087 -271.758 610.972C-270.917 613.857 -269.014 616.247 -266.376 617.689L131.904 796.33C134.496 797.761 137.539 798.094 140.427 797.25C143.314 796.406 145.707 794.502 147.154 791.864L326.273 393.624C329.255 388.231 327.258 381.374 321.829 378.381L-76.4608 199.746C-79.0525 198.316 -82.0963 197.983 -84.9838 198.826C-85.8719 199.078 -86.7175 199.449 -87.4925 199.896L-87.4868 199.906ZM-90.7095 204.745C-89.4041 202.385 -87.2632 200.678 -84.6648 199.923C-82.0663 199.167 -79.3289 199.468 -76.9681 200.771L321.321 379.406C323.646 380.69 325.366 382.832 326.12 385.428C326.873 388.025 326.569 390.761 325.264 393.122L146.14 791.377C144.853 793.701 142.708 795.423 140.109 796.179C137.511 796.934 134.773 796.633 132.413 795.331L-265.882 616.686C-268.207 615.402 -269.927 613.26 -270.681 610.663C-271.434 608.067 -271.13 605.331 -269.825 602.97L-90.7137 204.761L-90.7095 204.745Z" fill="#294596"/>
<path d="M-85.9714 200.435C-87.5901 201.369 -88.9866 202.711 -90.0108 204.426L-90.0388 204.469L-274.166 587.805C-275.669 590.345 -276.113 593.358 -275.367 596.259C-274.621 599.16 -272.791 601.605 -270.214 603.123L113.19 786.811C118.476 789.939 125.367 788.168 128.53 782.841L312.686 399.462C314.194 396.932 314.633 393.909 313.887 391.008C313.141 388.107 311.31 385.662 308.734 384.144L-74.6806 200.462C-78.2569 198.346 -82.5926 198.471 -85.9869 200.431L-85.9714 200.435ZM-89.024 204.98C-86.1774 200.214 -79.9905 198.628 -75.2048 201.457L308.21 385.14C310.482 386.493 312.124 388.68 312.798 391.297C313.466 393.903 313.075 396.624 311.7 398.934L127.545 782.312C124.722 787.051 118.525 788.643 113.74 785.814L-269.685 602.137C-271.957 600.784 -273.599 598.596 -274.273 595.98C-274.941 593.373 -274.55 590.652 -273.181 588.333L-89.0394 204.976L-89.024 204.98Z" fill="#294596"/>
<path d="M-84.485 200.958C-85.9958 201.83 -87.3225 203.067 -88.3248 204.638L-88.3527 204.681L-277.516 573.155C-280.81 578.323 -279.266 585.258 -274.061 588.564L94.4784 777.293C96.9569 778.867 99.9565 779.396 102.876 778.743C105.8 778.099 108.294 776.346 109.899 773.825L299.09 405.309C300.668 402.83 301.199 399.832 300.558 396.909C299.908 393.993 298.166 391.497 295.645 389.895L-72.8943 201.165C-76.4966 198.868 -80.973 198.93 -84.4752 200.952L-84.485 200.958ZM-87.3617 205.219C-85.9183 202.962 -83.6826 201.396 -81.0582 200.822C-78.4296 200.232 -75.7321 200.713 -73.4649 202.148L295.075 390.877C297.305 392.294 298.875 394.537 299.447 397.159C300.035 399.786 299.551 402.482 298.113 404.749L108.916 773.256C107.491 775.477 105.251 777.058 102.627 777.632C99.9982 778.222 97.3008 777.741 95.0336 776.306L-273.5 587.587C-278.136 584.632 -279.522 578.403 -276.539 573.714L-87.3617 205.219Z" fill="#294596"/>
<path d="M-82.9966 201.471C-84.4093 202.287 -85.6661 203.417 -86.6409 204.856L-86.6688 204.898L-280.864 558.495C-282.526 560.918 -283.15 563.891 -282.589 566.834C-282.034 569.767 -280.37 572.308 -277.906 573.994L75.7588 767.771C80.8096 771.218 87.7883 769.893 91.2699 764.8L285.487 411.151C287.149 408.728 287.773 405.754 287.213 402.812C286.657 399.879 284.994 397.338 282.529 395.651L-71.1298 201.884C-74.758 199.406 -79.3963 199.392 -82.9966 201.471ZM-85.6917 205.457C-82.5592 200.892 -76.2921 199.717 -71.723 202.828L281.936 396.595C286.468 399.688 287.653 405.954 284.522 410.545L90.311 764.204C87.2121 768.737 80.9408 769.927 76.3505 766.802L-277.308 573.035C-279.487 571.55 -280.978 569.262 -281.48 566.625C-281.982 563.988 -281.421 561.312 -279.905 559.091L-85.7016 205.463L-85.6917 205.457Z" fill="#294596"/>
<path d="M-81.514 201.957C-82.8482 202.728 -84.0141 203.767 -84.9572 205.056L-84.9851 205.098L-284.2 543.837C-287.813 548.771 -286.72 555.784 -281.739 559.428L57.0391 758.232C59.4002 759.966 62.3599 760.674 65.3163 760.222C68.267 759.759 70.872 758.177 72.6309 755.763L271.884 416.976C275.497 412.042 274.404 405.029 269.423 401.386L-69.3612 202.571C-71.7223 200.838 -74.6819 200.129 -77.6384 200.582C-79.0309 200.798 -80.3326 201.262 -81.5196 201.947L-81.514 201.957ZM-84.0261 205.694C-82.4446 203.54 -80.1087 202.126 -77.4597 201.707C-74.8051 201.298 -72.1492 201.934 -69.9797 203.516L268.804 402.331C273.239 405.571 274.208 411.871 270.943 416.343L71.6957 755.14C70.138 757.268 67.8077 758.692 65.1531 759.101C62.4985 759.51 59.8426 758.874 57.6731 757.291L-281.121 558.483C-285.555 555.242 -286.524 548.942 -283.259 544.47L-84.0205 205.704L-84.0261 205.694Z" fill="#294596"/>
<path d="M-80.0245 202.448C-81.2605 203.162 -82.351 204.105 -83.251 205.265L-83.2887 205.313L-287.54 529.19C-289.345 531.5 -290.159 534.439 -289.795 537.404C-289.431 540.369 -287.929 543.016 -285.571 544.856L38.3319 748.708C40.6413 750.51 43.5817 751.321 46.5483 750.954C49.5149 750.587 52.1651 749.083 54.0085 746.725L258.297 422.8C262.069 417.983 261.203 410.931 256.338 407.129L-67.5703 203.267C-69.8797 201.464 -72.82 200.653 -75.7866 201.02C-77.3029 201.203 -78.7352 201.691 -80.0203 202.433L-80.0245 202.448ZM-82.3536 205.935C-80.6932 203.827 -78.3275 202.487 -75.6627 202.164C-72.9881 201.835 -70.3571 202.563 -68.2393 204.215L255.664 408.067C259.995 411.446 260.779 417.787 257.356 422.167L53.0873 746.081C51.4605 748.157 49.085 749.503 46.4104 749.832C43.7358 750.161 41.1048 749.433 38.987 747.781L-284.926 543.935C-287.001 542.311 -288.345 539.938 -288.672 537.265C-288.999 534.592 -288.267 531.962 -286.613 529.844L-82.3479 205.945L-82.3536 205.935Z" fill="#294596"/>
<path d="M-78.5659 202.937C-79.6842 203.583 -80.6993 204.43 -81.5759 205.472L-81.6136 205.52L-290.881 514.524C-294.806 519.234 -294.165 526.324 -289.419 530.286L19.6093 739.186C21.8628 741.073 24.7783 741.976 27.7705 741.699C30.7529 741.427 33.4541 740.012 35.3763 737.7L244.691 428.642C246.581 426.388 247.488 423.473 247.213 420.483C246.945 417.502 245.525 414.794 243.229 412.879L-65.799 203.98C-69.4774 200.917 -74.6083 200.639 -78.5618 202.921L-78.5659 202.937ZM-80.6868 206.174C-77.1147 201.916 -70.7511 201.339 -66.485 204.899L242.543 413.798C244.567 415.491 245.848 417.913 246.089 420.597C246.33 423.28 245.511 425.895 243.793 427.971L34.4789 737.029C32.7831 739.053 30.3581 740.336 27.6734 740.579C24.9886 740.823 22.3727 740.007 20.3067 738.286L-288.737 529.383C-292.971 525.856 -293.548 519.487 -289.977 515.205L-80.6769 206.168L-80.6868 206.174Z" fill="#294596"/>
<path d="M-77.1034 203.412C-78.1236 204.001 -79.0631 204.752 -79.8854 205.684L-79.9231 205.732L-294.226 499.875C-296.185 502.077 -297.195 504.973 -297.021 507.969C-296.848 510.965 -295.507 513.719 -293.267 515.718L0.896288 729.659C5.49312 733.747 12.6215 733.316 16.7497 728.685L231.09 434.495C233.049 432.292 234.059 429.397 233.886 426.4C233.712 423.404 232.371 420.651 230.131 418.651L-64.0166 204.714C-67.6971 201.443 -73.0012 201.069 -77.0822 203.426L-77.1034 203.412ZM-79.02 206.413C-75.3043 202.268 -68.909 201.882 -64.7464 205.58L229.401 419.517C231.383 421.273 232.581 423.756 232.737 426.45C232.892 429.143 231.992 431.753 230.199 433.768L15.8647 727.968C12.184 732.105 5.76762 732.478 1.60496 728.78L-292.548 514.833C-294.53 513.077 -295.728 510.594 -295.884 507.9C-296.039 505.207 -295.139 502.597 -293.346 500.582L-79.02 206.413Z" fill="#294596"/>
<path d="M-75.6138 203.858C-76.5556 204.402 -77.4182 205.082 -78.1819 205.889L-78.2099 205.932L-297.548 485.212C-299.586 487.369 -300.689 490.239 -300.611 493.252C-300.533 496.264 -299.28 499.068 -297.086 501.147L-17.8135 720.131C-13.3242 724.372 -6.15704 724.167 -1.86968 719.653L217.506 440.325C221.76 435.844 221.572 428.675 217.044 424.39L-62.2283 205.406C-64.3841 203.371 -67.2553 202.272 -70.2694 202.353C-72.1739 202.408 -73.9952 202.923 -75.604 203.852L-75.6138 203.858ZM-77.3501 206.65C-75.4883 204.687 -72.9672 203.571 -70.2621 203.499C-67.5472 203.421 -64.9615 204.41 -62.9931 206.279L216.279 425.263C218.215 427.098 219.339 429.611 219.405 432.33C219.48 435.044 218.487 437.629 216.616 439.598L-2.76031 718.926C-6.57902 722.96 -13.0328 723.132 -17.0977 719.286L-296.37 500.302C-298.3 498.477 -299.43 495.954 -299.505 493.241C-299.581 490.527 -298.588 487.942 -296.716 485.973L-77.3543 206.666L-77.3501 206.65Z" fill="#294596"/>
<path d="M-74.1594 204.315C-75.003 204.802 -75.7844 205.397 -76.498 206.11L-76.5372 206.132L-300.9 470.571C-305.307 474.944 -305.35 482.142 -300.94 486.586L-36.5485 710.608C-32.171 715.018 -24.9706 715.029 -20.5241 710.633L203.878 446.172C206.001 444.071 207.196 441.225 207.208 438.187C207.225 435.159 206.045 432.299 203.913 430.146L-60.4792 206.125C-62.5791 204.005 -65.4255 202.813 -68.4652 202.805C-70.495 202.801 -72.458 203.32 -74.1748 204.311L-74.1594 204.315ZM-75.6802 206.892C-73.7493 204.98 -71.1788 203.927 -68.4537 203.935C-65.7286 203.942 -63.1581 205.019 -61.2316 206.951L203.16 430.973C205.044 432.877 206.096 435.445 206.091 438.178C206.081 440.902 205.001 443.472 203.066 445.399L-21.3362 709.86C-23.2433 711.745 -25.8138 712.798 -28.5487 712.796C-31.2738 712.789 -33.8444 711.712 -35.7708 709.78L-300.163 485.758C-304.097 481.798 -304.063 475.31 -300.063 471.341L-75.6745 206.902L-75.6802 206.892Z" fill="#294596"/>
<path d="M-72.7197 204.775C-73.4555 205.199 -74.1558 205.708 -74.7995 206.315L-74.8387 206.338L-304.228 455.909C-308.804 460.171 -309.057 467.412 -304.765 472.015L-55.2535 701.074C-50.9933 705.644 -43.7387 705.885 -39.1386 701.596L190.289 452.002C192.491 449.947 193.779 447.126 193.892 444.082C194.005 441.038 192.913 438.127 190.832 435.905L-58.6788 206.846C-62.3423 202.925 -68.2112 202.185 -72.7042 204.779L-72.7197 204.775ZM-74.0152 207.13C-69.8714 203.274 -63.3528 203.508 -59.489 207.641L190.022 436.7C191.87 438.677 192.843 441.291 192.743 444.04C192.643 446.789 191.48 449.329 189.476 451.204L-39.9522 700.798C-44.0765 704.642 -50.5951 704.408 -54.4645 700.266L-303.976 471.207C-307.813 467.098 -307.577 460.573 -303.429 456.702L-74.0152 207.13Z" fill="#294596"/>
<path d="M-71.279 205.209C-71.9265 205.583 -72.54 206.016 -73.1181 206.532L-73.1475 206.549L-307.572 441.258C-312.317 445.409 -312.787 452.683 -308.612 457.446L-73.9813 691.542C-71.9832 693.825 -69.1866 695.203 -66.1152 695.402C-63.0439 695.602 -60.0896 694.602 -57.7856 692.566L176.668 457.84C181.408 453.679 181.883 446.415 177.708 441.652L-56.9225 207.556C-60.5644 203.4 -66.629 202.525 -71.279 205.209ZM-72.3534 207.358C-68.056 203.61 -61.5058 204.035 -57.7398 208.315L176.891 442.412C180.636 446.678 180.194 453.231 175.908 456.999L-58.5461 691.725C-60.5954 693.522 -63.2663 694.424 -66.0313 694.256C-68.7922 694.073 -71.3269 692.832 -73.1402 690.756L-307.771 456.66C-311.516 452.394 -311.08 445.831 -306.788 442.073L-72.3478 207.368L-72.3534 207.358Z" fill="#294596"/>
<path d="M-69.8246 205.622C-70.3838 205.945 -70.9147 206.316 -71.4328 206.733L-71.4622 206.75L-310.913 426.592C-313.277 428.545 -314.751 431.316 -315.049 434.402C-315.343 437.472 -314.428 440.485 -312.449 442.87L-92.6995 682.004C-88.6585 686.897 -81.3458 687.6 -76.4232 683.53L163.057 463.672C167.956 459.628 168.667 452.319 164.599 447.403L-55.1509 208.269C-57.1029 205.907 -59.8745 204.437 -62.9617 204.142C-65.3857 203.908 -67.7645 204.432 -69.8345 205.627L-69.8246 205.622ZM-70.6961 207.601C-68.5484 205.839 -65.8379 205.006 -63.0626 205.259C-60.2818 205.521 -57.772 206.855 -55.995 209.004L163.755 448.138C167.402 452.552 166.765 459.152 162.326 462.813L-77.1542 682.672C-81.5799 686.311 -88.1773 685.691 -91.8358 681.257L-311.586 442.123C-313.336 439.998 -314.173 437.28 -313.907 434.5C-313.641 431.721 -312.314 429.217 -310.152 427.433L-70.6863 207.596L-70.6961 207.601Z" fill="#294596"/>
<path d="M-68.3859 206.049C-68.8469 206.315 -69.3008 206.616 -69.7321 206.957L-69.7517 206.968L-314.234 411.932C-316.683 413.83 -318.254 416.592 -318.643 419.678C-319.033 422.764 -318.19 425.832 -316.289 428.288L-111.435 672.455C-107.505 677.516 -100.14 678.425 -95.0623 674.487L149.439 469.512C154.507 465.58 155.429 458.227 151.488 453.147L-53.3752 208.985C-55.2714 206.539 -58.0335 204.972 -61.1211 204.585C-63.6718 204.268 -66.1982 204.786 -68.3859 206.049ZM-69.0249 207.842C-66.7941 206.11 -64.0482 205.361 -61.2571 205.709C-58.4661 206.057 -55.9714 207.478 -54.2461 209.697L150.618 453.858C154.173 458.43 153.329 465.058 148.742 468.621L-95.7598 673.596C-100.328 677.148 -106.968 676.318 -110.529 671.736L-315.383 427.569C-317.097 425.37 -317.855 422.607 -317.503 419.817C-317.152 417.027 -315.728 414.533 -313.507 412.806L-69.015 207.836L-69.0249 207.842Z" fill="#294596"/>
<path d="M-66.9628 206.469C-67.3257 206.678 -67.6872 206.913 -68.0374 207.168L-317.555 397.27C-322.786 401.1 -323.94 408.482 -320.107 413.716L-130.134 662.921C-126.306 668.146 -118.922 669.292 -113.681 665.456L135.847 475.347C138.375 473.496 140.044 470.768 140.524 467.656C141.003 464.545 140.254 461.436 138.399 458.901L-51.5745 209.696C-55.1477 204.821 -61.8223 203.501 -66.953 206.463L-66.9628 206.469ZM-67.3596 208.07C-62.6128 204.624 -55.9563 205.641 -52.4933 210.37L137.48 459.575C140.937 464.295 139.899 470.97 135.164 474.436L-114.364 664.544C-119.09 668.004 -125.767 666.972 -129.23 662.243L-319.203 413.038C-322.661 408.318 -321.623 401.643 -316.887 398.178L-67.3596 208.07Z" fill="#294596"/>
<path d="M-65.5474 206.865C-65.822 207.023 -66.0911 207.192 -66.3545 207.37L-320.893 382.615C-323.515 384.416 -325.271 387.129 -325.852 390.247C-326.432 393.365 -325.756 396.529 -323.956 399.148L-148.87 653.381C-145.154 658.774 -137.736 660.136 -132.336 656.417L122.202 481.172C124.815 479.376 126.581 476.658 127.161 473.54C127.742 470.422 127.066 467.258 125.266 464.639L-49.8208 210.406C-53.3584 205.276 -60.2359 203.785 -65.553 206.855L-65.5474 206.865ZM-65.7102 208.305C-60.8254 204.962 -54.1063 206.178 -50.7508 211.061L124.336 465.294C125.964 467.66 126.58 470.518 126.054 473.344C125.527 476.169 123.938 478.628 121.569 480.257L-132.969 655.502C-137.872 658.881 -144.567 657.638 -147.928 652.746L-323.015 398.513C-324.643 396.147 -325.259 393.289 -324.733 390.463C-324.206 387.637 -322.611 385.188 -320.248 383.549L-65.7102 208.305Z" fill="#294596"/>
</g>
<defs>
<clipPath id="clip0_434_5015">
<rect width="781.401" height="780.53" fill="white" transform="matrix(0.866025 -0.5 -0.5 -0.866025 -47.7344 1066.66)"/>
</clipPath>
</defs>
</svg>
