<svg width="37" height="50" viewBox="0 0 37 50" fill="none" xmlns="http://www.w3.org/2000/svg">
<path d="M16.7783 0.523438C21.0223 0.320738 25.2218 1.45632 28.7734 3.75586L29.1152 3.98242C32.0718 6.08735 33.776 9.51721 33.6582 13.125L33.6572 13.1338V17.2256C33.6867 19.5593 32.9055 21.832 31.4502 23.6631C29.8414 25.6725 27.7242 27.225 25.3125 28.1602L24.79 28.3633L25.0508 28.8604L31.6543 41.3916C32.5544 43.1288 34.4036 44.172 36.3672 44.0557L36.3662 44.0547L36.4951 44.0498V48.9385C35.4292 49.3303 34.298 49.5235 33.1631 49.4971H33.1387C31.4663 49.5384 29.82 49.1139 28.3857 48.2695C26.8576 47.2453 25.6476 45.8195 24.8848 44.1533L24.873 44.1299L17.5371 30.1143L17.3965 29.8467H8.45117V48.7793H0.5V0.523438H16.7783ZM16.3965 6.21387H8.44629V23.7441H8.94629V24.2393H16.3965V24.2383C18.6229 24.3528 20.8325 23.798 22.7285 22.6445L23.1152 22.3984L23.126 22.3906C24.8323 21.1242 25.7981 19.0983 25.7012 16.9873H25.7021V13.4697C25.8032 11.3585 24.8359 9.33676 23.124 8.0791L23.1143 8.07227L23.1055 8.06543L22.7295 7.8252C20.8339 6.66721 18.6238 6.10347 16.3965 6.21387Z" stroke="white"/>
</svg>
