<svg width="606" height="1099" viewBox="0 0 606 1099" fill="none" xmlns="http://www.w3.org/2000/svg">
<g opacity="0.1" clip-path="url(#clip0_434_3401)">
<path d="M981.55 433.211C982.455 436.59 982.081 440.312 980.195 443.563L673.18 976.034C669.425 982.546 661.056 984.788 654.548 981.026L122.433 673.413C115.925 669.651 113.68 661.273 117.435 654.761L424.454 122.303C428.209 115.791 436.577 113.548 443.085 117.31L975.201 424.923C978.463 426.809 980.648 429.845 981.55 433.211ZM117.335 664.777C118.153 667.829 120.141 670.581 123.085 672.283L655.2 979.896C661.087 983.299 668.653 981.272 672.062 975.377L979.081 442.919C982.475 437.015 980.449 429.454 974.558 426.038L442.443 118.425C436.555 115.022 428.99 117.049 425.58 122.943L118.565 655.414C116.866 658.36 116.52 661.737 117.338 664.789L117.335 664.777Z" fill="#294596"/>
<path d="M979.828 432.461C980.726 435.815 980.32 439.316 978.664 442.371L687.784 966.857C686.076 970.02 683.23 972.345 679.769 973.38C676.308 974.415 672.656 974.034 669.478 972.314L145.34 680.872C142.166 679.165 139.855 676.311 138.819 672.846C137.781 669.422 138.162 665.725 139.879 662.546L430.759 138.06C432.466 134.897 435.313 132.573 438.774 131.538C442.235 130.503 445.887 130.884 449.064 132.604L973.206 424.058C976.38 425.765 978.691 428.619 979.727 432.084C979.76 432.21 979.794 432.335 979.828 432.461ZM977.529 441.747C979.071 438.87 979.421 435.559 978.479 432.445C977.546 429.316 975.445 426.743 972.579 425.182L448.438 133.727C445.575 132.179 442.27 131.839 439.145 132.771C436.019 133.703 433.449 135.805 431.891 138.673L141.014 663.171C139.469 666.035 139.144 669.339 140.064 672.472C140.996 675.601 143.098 678.175 145.964 679.736L670.114 971.174C672.977 972.723 676.282 973.062 679.407 972.13C682.533 971.199 685.103 969.096 686.661 966.229L977.541 441.743L977.529 441.747Z" fill="#294596"/>
<path d="M978.102 431.698C978.954 434.876 978.61 438.212 977.129 441.167L702.391 957.692C700.798 960.879 698.034 963.262 694.637 964.387C691.241 965.513 687.607 965.248 684.415 963.626L168.26 688.327C161.684 685.014 159.01 676.94 162.322 670.331L437.051 153.821C440.354 147.228 448.423 144.568 455.027 147.887L971.191 423.17C974.376 424.767 976.758 427.535 977.881 430.922C977.961 431.17 978.044 431.431 978.111 431.682L978.102 431.698ZM975.966 440.59C977.411 437.699 977.648 434.418 976.641 431.362C975.63 428.294 973.483 425.8 970.594 424.353L454.43 149.07C448.489 146.071 441.201 148.482 438.215 154.452L163.479 670.936C160.49 676.893 162.899 684.177 168.864 687.169L685.019 962.468C687.896 963.919 691.174 964.158 694.238 963.148C697.303 962.139 699.793 959.99 701.237 957.099L975.97 440.602L975.966 440.59Z" fill="#294596"/>
<path d="M976.393 430.931C977.201 433.946 976.933 437.114 975.602 439.974L975.605 439.987L717.011 948.511C715.528 951.709 712.86 954.147 709.528 955.363C706.197 956.579 702.589 956.415 699.378 954.919L191.175 695.798C187.976 694.299 185.542 691.64 184.326 688.304C183.118 684.952 183.271 681.357 184.764 678.144L443.354 169.607C444.837 166.409 447.505 163.971 450.837 162.755C454.169 161.54 457.777 161.704 460.988 163.199L969.178 422.323C972.377 423.822 974.811 426.482 976.027 429.818C976.166 430.184 976.283 430.57 976.384 430.947L976.393 430.931ZM974.417 439.417C975.764 436.512 975.913 433.254 974.812 430.251C973.721 427.232 971.518 424.833 968.615 423.484L460.425 164.36C457.55 163.016 454.283 162.869 451.283 163.969C448.268 165.059 445.873 167.263 444.527 170.168L185.936 678.705C184.595 681.581 184.446 684.839 185.55 687.855C186.642 690.874 188.844 693.273 191.747 694.622L699.938 953.746C702.812 955.089 706.079 955.237 709.079 954.137C712.082 953.05 714.49 950.843 715.836 947.938L974.417 439.417Z" fill="#294596"/>
<path d="M974.68 430.165C975.444 433.016 975.228 436.022 974.055 438.773L974.062 438.798L731.616 939.334C728.761 945.995 720.984 949.089 714.308 946.206L214.095 703.253C207.448 700.377 204.344 692.606 207.22 685.925L449.659 185.364C451.044 182.153 453.601 179.65 456.884 178.353C460.152 177.047 463.742 177.095 466.979 178.489L967.192 421.442C970.402 422.83 972.903 425.391 974.201 428.678C974.398 429.163 974.561 429.672 974.696 430.174L974.68 430.165ZM972.868 438.257C975.449 432.234 972.658 425.228 966.639 422.64L466.426 179.687C463.538 178.442 460.31 178.391 457.359 179.572C454.408 180.753 452.092 183.003 450.844 185.922L208.398 686.458C205.822 692.452 208.617 699.471 214.636 702.059L714.839 945.028C720.829 947.609 727.84 944.815 730.422 938.793L972.852 438.247L972.868 438.257Z" fill="#294596"/>
<path d="M972.99 429.379C973.693 432.004 973.597 434.857 972.525 437.581L972.507 437.613L746.221 930.157C744.946 933.379 742.472 935.94 739.27 937.337C736.067 938.734 732.504 938.786 729.243 937.506L237.016 710.709C233.796 709.431 231.236 706.953 229.839 703.747C228.442 700.54 228.387 696.974 229.665 693.71L455.965 201.122C457.24 197.899 459.714 195.338 462.917 193.941C466.119 192.545 469.682 192.492 472.943 193.772L965.167 420.557C969.151 422.128 971.947 425.485 972.983 429.354L972.99 429.379ZM971.316 437.084C973.686 431.023 970.705 424.162 964.658 421.771L472.435 194.986C469.532 193.838 466.331 193.888 463.441 195.147C460.551 196.406 458.319 198.714 457.169 201.647L230.852 694.227C229.707 697.131 229.771 700.332 231.018 703.229C232.278 706.122 234.585 708.358 237.516 709.511L729.755 936.306C732.658 937.453 735.858 937.403 738.748 936.144C741.638 934.885 743.871 932.577 745.021 929.644L971.316 437.084Z" fill="#294596"/>
<path d="M971.322 428.615C972.005 431.165 971.903 433.844 970.995 436.376L970.98 436.421L760.829 920.98C759.665 924.213 757.29 926.842 754.136 928.319C750.985 929.81 747.453 929.976 744.177 928.793L259.931 718.179C253.204 715.755 249.692 708.269 252.116 701.507L462.269 216.907C464.678 210.19 472.148 206.654 478.921 209.093L963.17 419.72C966.401 420.887 969.028 423.266 970.507 426.424C970.846 427.14 971.114 427.89 971.313 428.631L971.322 428.615ZM969.771 435.923C970.823 432.976 970.671 429.799 969.334 426.967C967.997 424.134 965.632 421.982 962.686 420.926L478.437 210.3C472.394 208.123 465.661 211.3 463.474 217.392L253.321 701.992C251.15 708.04 254.328 714.781 260.415 716.973L744.661 927.587C747.578 928.636 750.751 928.486 753.593 927.146C756.434 925.805 758.571 923.442 759.623 920.495L969.767 435.911L969.771 435.923Z" fill="#294596"/>
<path d="M969.631 427.829C970.257 430.166 970.24 432.714 969.435 435.178L969.42 435.223L775.445 911.799C773.264 918.563 765.929 922.305 759.136 920.087L282.851 725.635C279.597 724.581 276.924 722.282 275.346 719.205C273.765 716.115 273.497 712.606 274.562 709.305L468.564 232.681C470.746 225.917 478.08 222.175 484.874 224.393L961.146 418.848C965.446 420.241 968.53 423.722 969.631 427.829ZM968.218 434.751C970.183 428.637 966.832 422.05 960.703 420.057L484.431 225.602C478.364 223.633 471.76 226.991 469.785 233.121L275.783 709.745C274.831 712.666 275.087 715.828 276.505 718.612C277.923 721.395 280.331 723.456 283.303 724.41L759.578 918.878C765.646 920.846 772.25 917.488 774.225 911.359L968.218 434.751Z" fill="#294596"/>
<path d="M967.983 427.046C968.586 429.294 968.567 431.682 967.903 433.974L967.888 434.018L790.052 902.622C789.112 905.889 786.916 908.632 783.891 910.29C780.866 911.949 777.381 912.344 774.069 911.374L305.774 733.09C302.509 732.147 299.768 729.947 298.11 726.918C296.451 723.889 296.054 720.401 297.021 717.086L474.885 248.435C476.842 241.637 484.028 237.692 490.865 239.67L959.163 417.966C962.428 418.909 965.169 421.109 966.828 424.138C967.344 425.063 967.73 426.05 967.996 427.043L967.983 427.046ZM966.671 433.59C967.527 430.614 967.175 427.492 965.679 424.769C964.183 422.047 961.717 420.069 958.743 419.21L490.445 240.913C487.516 240.069 484.38 240.411 481.661 241.907C478.942 243.403 476.968 245.87 476.111 248.846L298.239 717.514C297.397 720.445 297.741 723.584 299.237 726.306C300.733 729.029 303.199 731.007 306.172 731.866L774.483 910.159C777.412 911.003 780.548 910.661 783.267 909.165C785.986 907.669 787.96 905.202 788.817 902.226L966.662 433.606L966.671 433.59Z" fill="#294596"/>
<path d="M966.329 426.25C966.884 428.323 966.928 430.546 966.367 432.769L966.356 432.826L804.655 893.444C803.813 896.726 801.728 899.533 798.768 901.282C795.807 903.031 792.337 903.53 789.014 902.67L328.696 740.557C321.867 738.807 317.71 731.776 319.467 724.883L481.179 264.208C482.009 260.93 484.107 258.119 487.067 256.37C490.027 254.621 493.498 254.122 496.821 254.982L957.142 417.107C961.762 418.292 965.18 421.913 966.344 426.259L966.329 426.25ZM965.117 432.418C966.675 426.238 962.94 419.929 956.759 418.341L496.438 256.215C493.495 255.469 490.387 255.912 487.716 257.489C485.059 259.062 483.167 261.589 482.408 264.579L320.696 725.254C319.14 731.392 322.878 737.714 329.059 739.302L789.384 901.44C792.327 902.187 795.435 901.744 798.106 900.167C800.763 898.593 802.655 896.067 803.426 893.074L965.133 432.427L965.117 432.418Z" fill="#294596"/>
<path d="M964.692 425.463C965.21 427.398 965.284 429.478 964.822 431.568L964.81 431.625L819.261 884.267C817.739 891.136 810.857 895.512 803.949 893.97L351.605 748.016C348.316 747.282 345.452 745.276 343.613 742.376C341.761 739.48 341.16 736.033 341.903 732.684L487.464 279.984C488.195 276.692 490.198 273.827 493.09 271.975C495.986 270.135 499.426 269.523 502.772 270.269L955.116 416.223C959.905 417.282 963.487 420.967 964.689 425.451L964.692 425.463ZM963.569 431.257C964.229 428.253 963.685 425.168 962.021 422.571C960.366 419.959 957.786 418.159 954.781 417.484L502.438 271.53C499.477 270.869 496.383 271.415 493.79 273.08C491.181 274.734 489.385 277.316 488.711 280.323L343.163 733.019C342.517 735.979 343.052 739.08 344.716 741.677C346.371 744.289 348.951 746.089 351.956 746.764L804.287 892.722C810.448 894.086 816.629 890.155 818.013 883.928L963.569 431.257Z" fill="#294596"/>
<path d="M963.069 424.673C963.554 426.482 963.656 428.42 963.28 430.379L963.269 430.436L833.88 875.086C833.262 878.402 831.355 881.323 828.511 883.256C825.68 885.186 822.267 885.898 818.897 885.267L374.531 755.483C367.633 754.182 363.044 747.442 364.352 740.481L493.766 295.77C494.383 292.454 496.29 289.534 499.134 287.601C501.965 285.671 505.378 284.958 508.748 285.59L953.102 415.376C958.058 416.31 961.834 420.064 963.069 424.673ZM962.021 430.097C963.184 423.848 959.051 417.807 952.817 416.624L508.464 286.837C502.274 285.669 496.225 289.794 495.04 296.061L365.615 740.776C364.451 746.97 368.575 753.027 374.837 754.217L819.191 884.003C822.166 884.566 825.233 883.919 827.781 882.186C830.329 880.453 832.045 877.826 832.617 874.792L962.025 430.109L962.021 430.097Z" fill="#294596"/>
<path d="M961.47 423.864C961.928 425.572 962.031 427.362 961.75 429.174L961.739 429.231L848.485 865.896C847.412 872.834 840.833 877.64 833.832 876.554L397.468 762.935C394.145 762.426 391.167 760.598 389.135 757.831C387.115 755.061 386.285 751.662 386.816 748.275L500.078 311.54C501.151 304.602 507.73 299.797 514.731 300.883L951.108 414.498C954.431 415.007 957.409 416.835 959.441 419.602C960.396 420.908 961.076 422.341 961.483 423.861L961.47 423.864ZM960.476 428.937C960.941 425.904 960.193 422.86 958.383 420.37C956.56 417.883 953.888 416.243 950.843 415.767L514.466 302.152C508.236 301.183 502.336 305.51 501.356 311.79L388.081 748.528C387.619 751.52 388.354 754.567 390.177 757.054C392 759.541 394.672 761.181 397.717 761.657L834.097 875.285C840.327 876.254 846.228 871.927 847.208 865.646L960.464 428.94L960.476 428.937Z" fill="#294596"/>
<path d="M959.865 423.055C960.289 424.638 960.409 426.288 960.198 427.96L960.19 428.03L863.087 856.719C862.678 860.06 860.953 863.107 858.25 865.217C855.548 867.328 852.18 868.258 848.773 867.838L420.386 770.39C417.049 769.979 414.004 768.25 411.894 765.544C409.784 762.839 408.853 759.466 409.271 756.056L506.381 327.297C507.23 320.326 513.657 315.305 520.692 316.166L949.091 413.61C952.429 414.022 955.474 415.75 957.584 418.456C958.666 419.835 959.433 421.394 959.874 423.039L959.865 423.055ZM958.925 427.776C959.288 424.717 958.456 421.709 956.555 419.284C954.651 416.846 951.925 415.301 948.865 414.923L520.478 317.476C514.22 316.702 508.436 321.214 507.659 327.548L410.541 756.281C410.177 759.287 411.013 762.307 412.917 764.745C414.821 767.183 417.547 768.728 420.607 769.106L848.997 866.566C852 866.933 855.017 866.097 857.451 864.193C859.886 862.289 861.428 859.56 861.804 856.498L958.912 427.78L958.925 427.776Z" fill="#294596"/>
<path d="M958.284 422.267C958.668 423.699 958.804 425.211 958.67 426.768L958.661 426.838L877.703 847.526C877.067 854.535 870.791 859.771 863.722 859.134L443.313 777.858C439.952 777.56 436.852 775.928 434.648 773.274C432.448 770.632 431.404 767.29 431.721 763.854L512.684 343.083C512.979 339.719 514.609 336.617 517.259 334.413C519.896 332.212 523.247 331.166 526.665 331.475L947.074 412.751C952.546 413.25 956.937 417.19 958.293 422.251L958.284 422.267ZM957.378 426.616C957.935 420.261 953.238 414.627 946.885 414.054L526.476 332.778C523.459 332.509 520.453 333.436 518.079 335.418C515.706 337.4 514.247 340.187 513.957 343.267L432.994 764.038C432.727 767.057 433.654 770.067 435.636 772.444C437.617 774.82 440.403 776.282 443.477 776.562L863.902 857.847C870.201 858.421 875.84 853.72 876.418 847.345L957.375 426.604L957.378 426.616Z" fill="#294596"/>
<path d="M956.71 421.464C957.06 422.77 957.213 424.143 957.124 425.567L957.115 425.636L892.308 838.349C892.111 841.727 890.58 844.897 888.007 847.188C885.434 849.48 882.11 850.626 878.669 850.431L466.234 785.313C459.185 784.9 453.748 778.764 454.156 771.654L518.971 358.872C519.169 355.494 520.7 352.324 523.273 350.033C525.846 347.741 529.169 346.595 532.61 346.79L945.03 411.899C950.673 412.231 955.282 416.233 956.682 421.458L956.71 421.464ZM955.83 425.456C956.178 419.076 951.301 413.571 944.92 413.194L532.5 348.085C529.466 347.902 526.478 348.945 524.165 351.005C521.853 353.065 520.465 355.914 520.284 359.005L455.457 771.79C455.086 778.136 459.992 783.647 466.373 784.024L878.805 849.129C881.839 849.312 884.827 848.269 887.14 846.209C889.452 844.149 890.84 841.3 891.02 838.209L955.83 425.456Z" fill="#294596"/>
<path d="M955.141 420.619C955.464 421.825 955.611 423.078 955.576 424.353L955.565 424.41L906.909 829.146C906.813 832.551 905.377 835.776 902.869 838.158C900.36 840.54 897.067 841.799 893.599 841.705L489.157 792.768C482.07 792.567 476.419 786.583 476.603 779.439L525.267 374.633C525.452 367.543 531.423 361.877 538.576 362.074L943.019 411.011C946.42 411.109 949.643 412.548 952.024 415.06C953.526 416.65 954.585 418.547 955.137 420.607L955.141 420.619ZM954.283 424.296C954.366 421.191 953.225 418.238 951.088 415.984C948.948 413.717 946.046 412.421 942.931 412.34L538.489 363.403C535.428 363.322 532.476 364.449 530.216 366.603C527.952 368.744 526.659 371.648 526.58 374.766L477.916 779.572C477.741 785.946 482.84 791.324 489.262 791.502L893.704 840.439C896.752 840.524 899.717 839.393 901.981 837.252C904.244 835.111 905.537 832.206 905.616 829.089L954.274 424.311L954.283 424.296Z" fill="#294596"/>
<path d="M953.588 419.809C953.877 420.889 954.029 422.007 954.03 423.164L954.043 423.214L921.513 819.981C921.54 827.109 915.733 832.987 908.546 833.014L512.094 800.245C504.96 800.272 499.107 794.436 499.066 787.258L531.582 390.441C531.565 387.012 532.905 383.732 535.361 381.257C537.805 378.784 541.084 377.421 544.562 377.404L941.015 410.174C944.44 410.158 947.717 411.501 950.192 413.961C951.843 415.605 953.015 417.62 953.604 419.818L953.588 419.809ZM952.731 423.135C952.715 420.016 951.484 417.075 949.265 414.869C947.047 412.663 944.087 411.451 940.955 411.455L544.502 378.686C541.427 378.702 538.489 379.934 536.274 382.156C534.072 384.375 532.862 387.338 532.869 390.473L500.352 787.29C500.37 790.368 501.602 793.31 503.824 795.528C506.042 797.734 509.002 798.946 512.134 798.942L908.587 831.711C914.995 831.69 920.233 826.396 920.208 819.927L952.718 423.138L952.731 423.135Z" fill="#294596"/>
<path d="M952.044 419.012C952.297 419.954 952.452 420.935 952.482 421.95L952.495 422.001L936.113 810.779C936.368 817.953 930.697 824.037 923.476 824.289L535.013 807.688C527.846 807.939 521.762 802.246 521.509 795.03L537.878 406.201C537.759 402.746 539.003 399.411 541.383 396.848C543.762 394.286 547.01 392.809 550.503 392.695L938.965 409.296C945.122 409.087 950.487 413.25 952.028 419.002L952.044 419.012ZM951.184 421.975C950.95 415.481 945.469 410.381 938.978 410.599L550.516 393.997C547.411 394.102 544.5 395.434 542.349 397.747C540.199 400.06 539.081 403.065 539.186 406.214L522.817 795.043C523.044 801.512 528.526 806.612 535.029 806.391L923.491 822.992C929.941 822.772 935.046 817.285 934.821 810.775L951.184 421.975Z" fill="#294596"/>
<path d="M950.522 418.195C950.745 419.024 950.891 419.873 950.941 420.761L950.951 420.799L950.72 801.602C951.203 808.823 945.68 815.109 938.425 815.585L557.952 815.152C554.477 815.383 551.089 814.231 548.434 811.9C545.779 809.569 544.193 806.359 543.975 802.837L544.196 421.996C543.726 414.772 549.237 408.489 556.492 408.013L936.964 408.446C943.294 408.029 948.927 412.241 950.522 418.195ZM949.65 420.811C949.205 414.28 943.542 409.309 937.011 409.726L556.539 409.292C550.036 409.716 545.076 415.393 545.496 421.931L545.275 802.771C545.48 805.893 546.916 808.793 549.296 810.902C551.686 812.994 554.751 814.044 557.908 813.831L938.38 814.265C944.883 813.841 949.856 808.161 949.423 801.626L949.638 420.815L949.65 420.811Z" fill="#294596"/>
<path d="M949.006 417.349C949.198 418.065 949.327 418.798 949.41 419.557L949.42 419.594L965.336 792.408C965.671 795.913 964.617 799.359 962.354 802.106C960.101 804.837 956.913 806.539 953.37 806.869L580.887 822.604C573.636 823.295 567.129 817.93 566.437 810.631L550.51 437.779C549.816 430.52 555.172 424.01 562.464 423.321L934.947 407.587C938.448 407.254 941.891 408.311 944.637 410.577C946.794 412.355 948.3 414.712 949.01 417.362L949.006 417.349ZM948.107 419.663C947.794 416.489 946.27 413.613 943.812 411.566C941.342 409.522 938.222 408.567 935.035 408.869L562.552 424.604C556.009 425.226 551.168 431.1 551.8 437.675L567.728 810.527C568.366 817.074 574.224 821.926 580.793 821.296L953.276 805.562C956.421 805.257 959.307 803.73 961.347 801.259C963.388 798.787 964.343 795.677 964.036 792.474L948.103 419.651L948.107 419.663Z" fill="#294596"/>
<path d="M947.493 416.529C947.651 417.119 947.775 417.732 947.849 418.359L947.856 418.384L979.933 783.206C980.381 786.734 979.414 790.251 977.225 793.073C975.036 795.894 971.862 797.7 968.325 798.15L603.848 830.061C596.55 830.98 589.834 825.739 588.908 818.421L556.824 453.574C555.902 446.268 561.122 439.552 568.445 438.627L932.926 406.728C936.45 406.281 939.964 407.251 942.784 409.444C945.112 411.257 946.743 413.728 947.493 416.529ZM946.556 418.503C946.152 415.286 944.531 412.449 941.982 410.467C939.434 408.484 936.256 407.612 933.055 408.012L568.574 439.911C561.978 440.737 557.282 446.801 558.114 453.417L590.198 818.264C591.022 824.855 597.087 829.571 603.696 828.742L968.173 796.831C971.349 796.438 974.207 794.81 976.187 792.26C978.166 789.711 979.035 786.529 978.634 783.325L946.553 418.491L946.556 418.503Z" fill="#294596"/>
<path d="M946 415.718C946.125 416.183 946.227 416.667 946.305 417.157L994.534 774.004C995.671 781.359 990.615 788.287 983.255 789.425L626.768 837.504C619.42 838.638 612.496 833.574 611.355 826.206L563.124 469.347C562.575 465.792 563.434 462.223 565.571 459.308C567.708 456.393 570.838 454.477 574.402 453.926L930.89 405.847C937.747 404.79 944.237 409.136 945.997 415.705L946 415.718ZM945.023 417.34C943.967 410.689 937.738 406.112 931.088 407.14L574.601 455.219C567.963 456.244 563.388 462.505 564.419 469.162L612.65 826.02C613.678 832.665 619.935 837.248 626.585 836.22L983.072 788.141C989.71 787.116 994.285 780.855 993.254 774.198L945.023 417.34Z" fill="#294596"/>
<path d="M944.527 414.888C944.621 415.239 944.703 415.594 944.772 415.953L1009.14 764.814C1009.8 768.405 1009.03 772.032 1006.97 775.034C1004.91 778.036 1001.79 780.056 998.202 780.721L649.717 844.965C642.323 846.327 635.197 841.411 633.832 834.009L569.468 485.148C568.805 481.57 569.578 477.93 571.638 474.927C573.698 471.925 576.814 469.906 580.402 469.241L928.887 404.997C935.923 403.704 942.715 408.076 944.539 414.884L944.527 414.888ZM943.49 416.188C942.239 409.51 935.797 405.043 929.11 406.283L580.625 470.527C577.384 471.126 574.563 472.946 572.697 475.667C570.831 478.388 570.124 481.674 570.725 484.919L635.089 833.78C636.325 840.503 642.769 844.928 649.469 843.685L997.954 779.441C1001.2 778.842 1004.02 777.023 1005.88 774.301C1007.75 771.58 1008.44 768.298 1007.85 765.049L943.49 416.188Z" fill="#294596"/>
</g>
<defs>
<clipPath id="clip0_434_3401">
<rect width="897" height="896" fill="white" transform="translate(232.161 1098.34) rotate(-105)"/>
</clipPath>
</defs>
</svg>
