<svg width="11" height="21" viewBox="0 0 11 21" fill="none" xmlns="http://www.w3.org/2000/svg">
<g clip-path="url(#clip0_281_1430)">
<path d="M10.5002 0H7.88523C4.94744 0 3.04675 1.94508 3.04675 4.96358V7.25167H0.411614C0.18563 7.25167 0 7.43326 0 7.66328V10.9804C0 11.2064 0.18563 11.392 0.411614 11.392H3.04271V19.7615C3.04271 19.9875 3.22834 20.1731 3.45433 20.1731H6.88444C7.11043 20.1731 7.29606 19.9875 7.29606 19.7615V11.392H10.3711C10.597 11.392 10.7827 11.2064 10.7827 10.9804V7.66328C10.7827 7.55432 10.7423 7.4494 10.6616 7.37273C10.5849 7.29606 10.48 7.25167 10.3711 7.25167H7.29202V5.31063C7.29202 4.37844 7.51397 3.90226 8.72863 3.90226H10.4921C10.7181 3.90226 10.9037 3.71663 10.9037 3.49065V0.415649C10.9037 0.189665 10.7221 0.00403543 10.4921 0.00403543L10.5002 0Z" fill="#294596"/>
</g>
<defs>
<clipPath id="clip0_281_1430">
<rect width="10.9078" height="20.1771" fill="white"/>
</clipPath>
</defs>
</svg>
