<svg width="21" height="21" viewBox="0 0 21 21" fill="none" xmlns="http://www.w3.org/2000/svg">
<g clip-path="url(#clip0_281_1425)">
<path d="M13.8118 0H6.27517C2.81217 0 0 2.81217 0 6.27517V13.8078C0 17.2748 2.81217 20.0829 6.27517 20.0829H13.8078C17.2748 20.0829 20.0829 17.2708 20.0829 13.8078V6.27517C20.0829 2.80816 17.2708 0 13.8078 0H13.8118ZM18.2028 13.8118C18.2028 16.2343 16.2303 18.2068 13.8078 18.2068H6.27517C3.85268 18.2068 1.88014 16.2343 1.88014 13.8118V6.27517C1.88014 3.85268 3.85268 1.88014 6.27517 1.88014H13.8078C16.2303 1.88014 18.2028 3.85268 18.2028 6.27517V13.8078V13.8118Z" fill="#294596"/>
<path d="M10.0432 5.02148C7.27122 5.02148 5.02148 7.27122 5.02148 10.0432C5.02148 12.8152 7.27122 15.065 10.0432 15.065C12.8152 15.065 15.065 12.8152 15.065 10.0432C15.065 7.27122 12.8152 5.02148 10.0432 5.02148ZM10.0432 13.1808C8.31173 13.1808 6.90564 11.7707 6.90564 10.0432C6.90564 8.31575 8.31575 6.90564 10.0432 6.90564C11.7707 6.90564 13.1808 8.31173 13.1808 10.0432C13.1808 11.7747 11.7707 13.1808 10.0432 13.1808Z" fill="#294596"/>
<path d="M15.4443 5.31544C15.8149 5.31544 16.1152 5.01507 16.1152 4.64454C16.1152 4.27401 15.8149 3.97363 15.4443 3.97363C15.0738 3.97363 14.7734 4.27401 14.7734 4.64454C14.7734 5.01507 15.0738 5.31544 15.4443 5.31544Z" fill="#294596"/>
</g>
<defs>
<clipPath id="clip0_281_1425">
<rect width="20.087" height="20.087" fill="white"/>
</clipPath>
</defs>
</svg>
