<svg width="19" height="18" viewBox="0 0 19 18" fill="none" xmlns="http://www.w3.org/2000/svg">
<g clip-path="url(#clip0_281_1434)">
<path d="M18.2068 10.6659V17.3995H14.3024V11.1183C14.3024 9.54188 13.7386 8.46311 12.3258 8.46311C11.247 8.46311 10.6067 9.18693 10.3249 9.88986C10.2205 10.1404 10.1961 10.4884 10.1961 10.8399V17.396H6.29165C6.29165 17.396 6.34385 6.75796 6.29165 5.65483H10.1961V7.31822C10.1961 7.31822 10.1787 7.34258 10.1717 7.3565H10.1961V7.31822C10.7146 6.52133 11.6403 5.37992 13.7143 5.37992C16.2824 5.37992 18.2068 7.05723 18.2068 10.6624V10.6659ZM2.20973 0C0.873454 0 0 0.876934 0 2.02878C0 3.18062 0.849095 4.05756 2.15754 4.05756H2.1819C3.54253 4.05756 4.38815 3.15627 4.38815 2.02878C4.36379 0.876934 3.54253 0 2.20625 0H2.20973ZM0.233153 17.3995H4.13412V5.65831H0.233153V17.3995Z" fill="#294596"/>
</g>
<defs>
<clipPath id="clip0_281_1434">
<rect width="18.2068" height="17.3995" fill="white"/>
</clipPath>
</defs>
</svg>
