<svg width="36" height="35" viewBox="0 0 36 35" fill="none" xmlns="http://www.w3.org/2000/svg">
<g clip-path="url(#clip0_281_1419)">
<path fill-rule="evenodd" clip-rule="evenodd" d="M27.4608 25.2415L25.5075 23.3099C24.0202 21.8391 21.6138 21.8391 20.1265 23.3099C19.4499 23.979 18.3584 23.979 17.6818 23.3099L11.8156 17.5089C11.139 16.8398 11.139 15.7604 11.8156 15.0913C13.3029 13.6205 13.3029 11.2408 11.8156 9.77L9.86237 7.83843C8.3751 6.36766 5.96864 6.36766 4.48136 7.83843C0.830193 11.4365 0.830193 17.288 4.47498 20.8923C7.73678 24.1179 10.9922 27.3372 14.254 30.5628C15.0966 31.3581 16.8264 32.7342 19.3669 33.1508C19.6095 33.1887 20.152 33.2708 20.8542 33.2708C23.2415 33.2708 25.6352 32.3681 27.4544 30.5691C28.9417 29.0983 28.9417 26.7186 27.4544 25.2478L27.4608 25.2415Z" stroke="#294596" stroke-width="2.5" stroke-linecap="round" stroke-linejoin="round"/>
<path d="M19.0625 1.85431C19.6561 1.77225 20.2689 1.73438 20.8817 1.73438C28.267 1.73438 34.2481 7.65533 34.2481 14.9524C34.2481 15.369 34.2289 15.7856 34.1906 16.1959" stroke="#294596" stroke-width="2.5" stroke-linecap="round" stroke-linejoin="round"/>
<path d="M19.6699 8.31922C20.0657 8.24979 20.4678 8.21191 20.8827 8.21191C24.6488 8.21191 27.6999 11.2292 27.6999 14.9535C27.6999 15.3764 27.6616 15.793 27.585 16.197" stroke="#294596" stroke-width="2.5" stroke-linecap="round" stroke-linejoin="round"/>
</g>
<defs>
<clipPath id="clip0_281_1419">
<rect width="36" height="35" fill="white"/>
</clipPath>
</defs>
</svg>
