<svg width="21" height="15" viewBox="0 0 21 15" fill="none" xmlns="http://www.w3.org/2000/svg">
<g clip-path="url(#clip0_281_1438)">
<path d="M20.5026 2.2932C20.2626 1.3975 19.5554 0.690369 18.6597 0.446087C17.0226 -0.00390625 10.4698 -0.00390625 10.4698 -0.00390625C10.4698 -0.00390625 3.91709 -0.00390625 2.27997 0.428945C1.39712 0.673227 0.672847 1.3975 0.432851 2.2932C0 3.93032 0 7.32884 0 7.32884C0 7.32884 0 10.7445 0.432851 12.3645C0.672847 13.2602 1.37998 13.9673 2.27997 14.2116C3.93423 14.6616 10.4698 14.6616 10.4698 14.6616C10.4698 14.6616 17.0226 14.6616 18.6597 14.2287C19.5554 13.9887 20.2626 13.2816 20.5068 12.3859C20.9397 10.7488 20.9397 7.35027 20.9397 7.35027C20.9397 7.35027 20.9568 3.93461 20.5068 2.29749L20.5026 2.2932ZM8.37845 10.4659V4.18746L13.8255 7.32456L8.37845 10.4617V10.4659Z" fill="#294596"/>
</g>
<defs>
<clipPath id="clip0_281_1438">
<rect width="20.9311" height="14.6569" fill="white"/>
</clipPath>
</defs>
</svg>
