<svg width="630" height="1098" viewBox="0 0 630 1098" fill="none" xmlns="http://www.w3.org/2000/svg">
<g opacity="0.1" clip-path="url(#clip0_434_7186)">
<path d="M196.77 116.08C193.392 115.175 189.67 115.549 186.418 117.435L-346.052 424.451C-352.565 428.206 -354.807 436.574 -351.045 443.082L-43.4319 975.198C-39.6696 981.706 -31.2918 983.95 -24.7796 980.195L507.679 673.176C514.191 669.421 516.433 661.053 512.671 654.545L205.058 122.429C203.172 119.167 200.137 116.982 196.77 116.08ZM-34.7953 980.295C-37.8475 979.477 -40.5996 977.489 -42.3014 974.546L-349.914 442.43C-353.318 436.543 -351.291 428.977 -345.396 425.568L187.062 118.549C192.966 115.155 200.528 117.181 203.944 123.072L511.556 655.187C514.96 661.075 512.933 668.64 507.038 672.05L-25.4327 979.066C-28.3783 980.764 -31.7557 981.11 -34.8079 980.292L-34.7953 980.295Z" fill="#294596"/>
<path d="M197.52 117.802C194.166 116.904 190.665 117.31 187.61 118.966L-336.876 409.846C-340.039 411.554 -342.364 414.4 -343.399 417.861C-344.434 421.322 -344.053 424.975 -342.333 428.152L-50.8913 952.29C-49.1839 955.464 -46.3299 957.775 -42.865 958.811C-39.4411 959.849 -35.7446 959.468 -32.5653 957.752L491.92 666.871C495.084 665.164 497.408 662.317 498.443 658.856C499.478 655.395 499.097 651.743 497.377 648.566L205.923 124.424C204.216 121.251 201.362 118.939 197.897 117.903C197.771 117.87 197.646 117.836 197.52 117.802ZM188.234 120.102C191.111 118.559 194.422 118.21 197.535 119.151C200.665 120.084 203.238 122.185 204.799 125.051L496.253 649.193C497.802 652.055 498.141 655.36 497.21 658.485C496.278 661.611 494.176 664.181 491.308 665.739L-33.1899 956.616C-36.0541 958.162 -39.3586 958.486 -42.4911 957.566C-45.6203 956.634 -48.1939 954.532 -49.755 951.666L-341.193 427.516C-342.742 424.653 -343.081 421.349 -342.15 418.223C-341.218 415.097 -339.116 412.527 -336.248 410.969L188.237 120.089L188.234 120.102Z" fill="#294596"/>
<path d="M198.285 119.528C195.107 118.677 191.771 119.02 188.816 120.501L-327.709 395.239C-330.896 396.833 -333.279 399.596 -334.404 402.993C-335.53 406.389 -335.265 410.024 -333.643 413.215L-58.3442 929.37C-55.031 935.946 -46.9567 938.62 -40.3478 935.308L476.162 660.579C482.755 657.276 485.415 649.208 482.096 642.603L206.813 126.439C205.216 123.254 202.448 120.872 199.061 119.749C198.813 119.67 198.552 119.586 198.301 119.519L198.285 119.528ZM189.393 121.664C192.284 120.22 195.565 119.983 198.621 120.99C201.689 122 204.183 124.147 205.63 127.036L480.913 643.201C483.912 649.141 481.501 656.429 475.531 659.415L-40.9531 934.151C-46.9101 937.14 -54.194 934.731 -57.1862 928.766L-332.485 412.611C-333.936 409.734 -334.175 406.456 -333.165 403.392C-332.156 400.328 -330.007 397.837 -327.116 396.393L189.381 121.66L189.393 121.664Z" fill="#294596"/>
<path d="M199.051 121.237C196.036 120.43 192.868 120.697 190.007 122.028L189.995 122.025L-318.53 380.619C-321.727 382.102 -324.165 384.77 -325.381 388.102C-326.597 391.434 -326.433 395.041 -324.937 398.252L-65.8165 906.455C-64.3176 909.654 -61.6581 912.088 -58.3223 913.304C-54.9706 914.512 -51.3756 914.359 -48.1622 912.867L460.375 654.276C463.572 652.793 466.011 650.125 467.226 646.793C468.442 643.461 468.278 639.853 466.783 636.642L207.658 128.452C206.159 125.253 203.5 122.819 200.164 121.603C199.797 121.464 199.411 121.348 199.035 121.247L199.051 121.237ZM190.565 123.213C193.47 121.867 196.727 121.718 199.731 122.818C202.75 123.91 205.149 126.112 206.498 129.015L465.622 637.205C466.965 640.08 467.113 643.347 466.013 646.347C464.922 649.362 462.719 651.757 459.814 653.104L-48.7231 911.694C-51.5997 913.035 -54.8571 913.184 -57.8731 912.08C-60.8923 910.989 -63.2908 908.786 -64.64 905.883L-323.764 397.693C-325.108 394.818 -325.255 391.551 -324.155 388.551C-323.068 385.548 -320.861 383.141 -317.956 381.794L190.565 123.213Z" fill="#294596"/>
<path d="M199.818 122.95C196.966 122.186 193.96 122.403 191.209 123.575L191.184 123.568L-309.352 366.015C-316.013 368.869 -319.107 376.646 -316.224 383.322L-73.271 883.535C-70.3942 890.182 -62.6235 893.287 -55.9429 890.41L444.618 647.971C447.83 646.586 450.332 644.029 451.629 640.746C452.936 637.478 452.888 633.889 451.494 630.651L208.541 130.438C207.152 127.229 204.592 124.727 201.305 123.429C200.819 123.232 200.311 123.069 199.808 122.934L199.818 122.95ZM191.726 124.762C197.749 122.181 204.755 124.972 207.342 130.991L450.295 631.204C451.541 634.093 451.591 637.32 450.41 640.271C449.229 643.222 446.98 645.538 444.06 646.786L-56.4754 889.232C-62.4697 891.808 -69.4885 889.013 -72.0761 882.995L-315.045 382.791C-317.627 376.801 -314.833 369.79 -308.81 367.209L191.735 124.778L191.726 124.762Z" fill="#294596"/>
<path d="M200.602 124.64C197.977 123.937 195.124 124.033 192.4 125.105L192.368 125.123L-300.176 351.409C-303.398 352.684 -305.959 355.158 -307.356 358.361C-308.753 361.563 -308.805 365.126 -307.525 368.387L-80.7275 860.614C-79.4498 863.834 -76.9721 866.394 -73.7654 867.791C-70.5588 869.188 -66.9925 869.243 -63.729 867.966L428.859 641.665C432.082 640.39 434.643 637.916 436.04 634.713C437.436 631.511 437.489 627.948 436.209 624.687L209.424 132.464C207.853 128.479 204.496 125.684 200.627 124.647L200.602 124.64ZM192.897 126.314C198.958 123.944 205.819 126.926 208.21 132.972L434.996 625.195C436.143 628.098 436.093 631.299 434.834 634.189C433.575 637.079 431.267 639.311 428.334 640.462L-64.2455 866.778C-67.1504 867.923 -70.3507 867.859 -73.2476 866.612C-76.1411 865.353 -78.3769 863.046 -79.5301 860.114L-306.325 367.875C-307.472 364.973 -307.422 361.772 -306.163 358.882C-304.904 355.992 -302.596 353.76 -299.663 352.609L192.897 126.314Z" fill="#294596"/>
<path d="M201.367 126.308C198.817 125.625 196.138 125.727 193.606 126.635L193.561 126.65L-290.998 336.801C-294.231 337.965 -296.86 340.34 -298.338 343.494C-299.828 346.645 -299.994 350.178 -298.812 353.453L-88.1977 837.699C-85.7732 844.427 -78.2869 847.939 -71.5254 845.514L413.075 635.361C419.792 632.952 423.328 625.482 420.888 618.71L210.262 134.46C209.095 131.229 206.716 128.602 203.558 127.124C202.841 126.784 202.092 126.516 201.351 126.317L201.367 126.308ZM194.058 127.859C197.006 126.807 200.183 126.959 203.015 128.296C205.847 129.633 208 131.999 209.055 134.944L419.682 619.193C421.859 625.236 418.682 631.969 412.59 634.156L-72.0101 844.309C-78.0577 846.48 -84.7989 843.303 -86.9911 837.215L-297.605 352.969C-298.654 350.052 -298.504 346.879 -297.164 344.037C-295.824 341.196 -293.461 339.059 -290.513 338.007L194.071 127.863L194.058 127.859Z" fill="#294596"/>
<path d="M202.154 128C199.817 127.374 197.269 127.39 194.805 128.195L194.76 128.21L-281.816 322.185C-288.58 324.366 -292.322 331.701 -290.104 338.494L-95.6516 814.779C-94.5984 818.033 -92.2993 820.707 -89.2218 822.284C-86.1318 823.865 -82.6226 824.133 -79.3216 823.068L397.302 629.066C404.066 626.884 407.808 619.55 405.59 612.756L211.135 136.484C209.742 132.185 206.261 129.1 202.154 128ZM195.232 129.413C201.346 127.447 207.933 130.799 209.926 136.927L404.381 613.199C406.35 619.266 402.992 625.87 396.862 627.845L-79.7618 821.847C-82.6825 822.799 -85.845 822.544 -88.6286 821.125C-91.4122 819.707 -93.4729 817.299 -94.4267 814.327L-288.895 338.052C-290.863 331.984 -287.505 325.38 -281.376 323.405L195.232 129.413Z" fill="#294596"/>
<path d="M202.935 129.647C200.686 129.044 198.299 129.064 196.007 129.727L195.963 129.742L-272.641 307.578C-275.908 308.518 -278.651 310.714 -280.309 313.739C-281.968 316.764 -282.363 320.249 -281.393 323.561L-103.109 791.856C-102.166 795.121 -99.966 797.862 -96.9372 799.521C-93.9084 801.179 -90.4202 801.576 -87.1051 800.609L381.546 622.745C388.344 620.788 392.289 613.602 390.311 606.765L212.014 138.467C211.072 135.202 208.871 132.461 205.843 130.803C204.918 130.286 203.93 129.9 202.938 129.634L202.935 129.647ZM196.39 130.959C199.366 130.103 202.489 130.455 205.212 131.951C207.934 133.447 209.912 135.914 210.771 138.887L389.068 607.185C389.912 610.114 389.57 613.25 388.074 615.969C386.578 618.688 384.11 620.662 381.134 621.519L-87.5328 799.391C-90.4642 800.233 -93.6032 799.89 -96.3255 798.394C-99.048 796.898 -101.026 794.431 -101.885 791.458L-280.178 323.147C-281.022 320.218 -280.68 317.083 -279.184 314.364C-277.688 311.645 -275.221 309.67 -272.245 308.814L196.375 130.969L196.39 130.959Z" fill="#294596"/>
<path d="M203.733 131.302C201.661 130.746 199.438 130.702 197.214 131.263L197.157 131.274L-263.461 292.975C-266.743 293.817 -269.55 295.902 -271.299 298.863C-273.048 301.823 -273.547 305.293 -272.687 308.616L-110.574 768.934C-108.823 775.764 -101.792 779.92 -94.9 778.163L365.775 616.451C369.054 615.621 371.864 613.524 373.613 610.563C375.362 607.603 375.861 604.133 375.001 600.809L212.876 140.489C211.691 135.868 208.07 132.45 203.724 131.286L203.733 131.302ZM197.566 132.513C203.745 130.955 210.054 134.69 211.643 140.871L373.768 601.192C374.514 604.135 374.072 607.244 372.495 609.914C370.921 612.572 368.395 614.463 365.405 615.222L-95.2707 776.934C-101.409 778.49 -107.731 774.752 -109.319 768.571L-271.457 308.247C-272.203 305.304 -271.761 302.195 -270.184 299.524C-268.61 296.867 -266.084 294.975 -263.09 294.204L197.557 132.498L197.566 132.513Z" fill="#294596"/>
<path d="M204.518 132.938C202.584 132.42 200.504 132.346 198.414 132.809L198.357 132.82L-254.285 278.37C-261.155 279.891 -265.53 286.773 -263.988 293.681L-118.034 746.025C-117.3 749.315 -115.294 752.178 -112.394 754.018C-109.498 755.87 -106.051 756.47 -102.702 755.727L349.998 610.166C353.29 609.435 356.155 607.432 358.007 604.54C359.847 601.644 360.459 598.204 359.713 594.858L213.759 142.514C212.7 137.726 209.015 134.143 204.531 132.941L204.518 132.938ZM198.725 134.062C201.729 133.401 204.814 133.945 207.411 135.609C210.023 137.264 211.822 139.844 212.498 142.849L358.452 595.192C359.113 598.153 358.567 601.247 356.902 603.84C355.247 606.45 352.666 608.246 349.659 608.919L-103.037 754.467C-105.997 755.113 -109.098 754.578 -111.695 752.914C-114.307 751.259 -116.107 748.679 -116.782 745.675L-262.74 293.344C-264.104 287.182 -260.173 281.001 -253.946 279.617L198.725 134.062Z" fill="#294596"/>
<path d="M205.307 134.561C203.498 134.076 201.56 133.974 199.602 134.35L199.545 134.361L-245.106 263.751C-248.422 264.368 -251.342 266.275 -253.275 269.119C-255.205 271.95 -255.918 275.363 -255.286 278.733L-125.503 723.099C-124.201 729.997 -117.461 734.586 -110.501 733.278L334.21 603.865C337.526 603.247 340.447 601.34 342.38 598.496C344.31 595.665 345.022 592.252 344.39 588.882L214.604 144.529C213.671 139.572 209.917 135.796 205.307 134.561ZM199.884 135.609C206.132 134.446 212.173 138.579 213.357 144.813L343.143 589.167C344.312 595.356 340.187 601.405 333.919 602.59L-110.795 732.015C-116.99 733.18 -123.047 729.055 -124.236 722.793L-254.023 278.439C-254.585 275.465 -253.938 272.397 -252.206 269.849C-250.473 267.301 -247.846 265.585 -244.811 265.013L199.871 135.605L199.884 135.609Z" fill="#294596"/>
<path d="M206.117 136.16C204.409 135.702 202.619 135.599 200.807 135.88L200.75 135.892L-235.915 249.145C-242.853 250.218 -247.659 256.797 -246.573 263.798L-132.954 700.162C-132.445 703.486 -130.617 706.463 -127.85 708.495C-125.08 710.515 -121.681 711.345 -118.294 710.814L318.441 597.552C325.379 596.479 330.184 589.9 329.098 582.899L215.483 146.523C214.973 143.199 213.146 140.222 210.379 138.189C209.073 137.234 207.64 136.554 206.12 136.147L206.117 136.16ZM201.044 137.154C204.077 136.689 207.121 137.437 209.611 139.248C212.098 141.07 213.738 143.742 214.214 146.788L327.829 583.164C328.798 589.394 324.471 595.295 318.191 596.274L-118.547 709.549C-121.539 710.012 -124.586 709.276 -127.073 707.453C-129.56 705.63 -131.2 702.959 -131.676 699.913L-245.304 263.533C-246.273 257.303 -241.946 251.402 -235.665 250.423L201.041 137.166L201.044 137.154Z" fill="#294596"/>
<path d="M206.927 137.765C205.344 137.341 203.694 137.221 202.022 137.432L201.952 137.441L-226.737 234.543C-230.078 234.953 -233.125 236.678 -235.236 239.38C-237.346 242.082 -238.276 245.45 -237.856 248.857L-140.409 677.244C-139.997 680.581 -138.269 683.626 -135.563 685.737C-132.857 687.847 -129.485 688.777 -126.075 688.36L302.684 591.249C309.656 590.4 314.677 583.973 313.815 576.938L216.372 148.539C215.96 145.201 214.232 142.156 211.526 140.046C210.146 138.964 208.588 138.197 206.943 137.756L206.927 137.765ZM202.205 138.705C205.265 138.342 208.272 139.175 210.698 141.075C213.136 142.979 214.681 145.706 215.059 148.765L312.506 577.152C313.279 583.41 308.768 589.194 302.434 589.971L-126.3 687.089C-129.305 687.454 -132.325 686.617 -134.763 684.714C-137.202 682.81 -138.746 680.083 -139.124 677.023L-236.584 248.633C-236.951 245.63 -236.116 242.613 -234.211 240.179C-232.307 237.744 -229.578 236.203 -226.516 235.826L202.202 138.718L202.205 138.705Z" fill="#294596"/>
<path d="M207.716 139.346C206.284 138.963 204.773 138.827 203.216 138.961L203.146 138.969L-217.542 219.927C-224.552 220.564 -229.787 226.839 -229.15 233.908L-147.874 654.317C-147.577 657.678 -145.944 660.778 -143.29 662.982C-140.649 665.183 -137.307 666.226 -133.87 665.91L286.9 584.947C290.264 584.651 293.367 583.022 295.571 580.371C297.772 577.734 298.818 574.383 298.509 570.965L217.233 150.556C216.733 145.084 212.794 140.693 207.732 139.337L207.716 139.346ZM203.368 140.252C209.723 139.696 215.357 144.392 215.93 150.745L297.206 571.154C297.475 574.171 296.548 577.177 294.566 579.551C292.584 581.924 289.797 583.383 286.717 583.674L-134.054 664.637C-137.073 664.903 -140.083 663.976 -142.46 661.994C-144.837 660.013 -146.298 657.228 -146.578 654.154L-227.864 233.729C-228.438 227.429 -223.736 221.791 -217.362 221.213L203.38 140.255L203.368 140.252Z" fill="#294596"/>
<path d="M208.516 140.92C207.21 140.57 205.837 140.418 204.413 140.507L204.344 140.515L-208.368 205.322C-211.747 205.52 -214.917 207.05 -217.208 209.623C-219.499 212.196 -220.646 215.52 -220.45 218.961L-155.333 631.396C-154.92 638.446 -148.784 643.882 -141.674 643.474L271.108 578.659C274.486 578.461 277.656 576.931 279.947 574.358C282.239 571.785 283.385 568.461 283.19 565.02L218.082 152.6C217.749 146.958 213.747 142.349 208.522 140.949L208.516 140.92ZM204.524 141.801C210.905 141.453 216.41 146.33 216.787 152.711L281.895 565.13C282.078 568.165 281.035 571.153 278.975 573.465C276.915 575.777 274.066 577.166 270.975 577.346L-141.81 642.174C-148.156 642.544 -153.667 637.639 -154.044 631.258L-219.149 218.826C-219.332 215.791 -218.289 212.803 -216.229 210.491C-214.169 208.179 -211.32 206.79 -208.229 206.61L204.524 141.801Z" fill="#294596"/>
<path d="M209.364 142.489C208.158 142.166 206.905 142.019 205.63 142.054L205.573 142.065L-199.163 190.721C-202.568 190.818 -205.793 192.253 -208.175 194.761C-210.557 197.27 -211.816 200.563 -211.722 204.031L-162.785 608.473C-162.584 615.56 -156.6 621.211 -149.456 621.027L255.35 572.363C262.44 572.179 268.106 566.207 267.909 559.054L218.972 154.612C218.874 151.21 217.435 147.987 214.923 145.606C213.333 144.104 211.436 143.045 209.376 142.493L209.364 142.489ZM205.688 143.347C208.793 143.264 211.745 144.405 213.999 146.542C216.266 148.682 217.562 151.585 217.643 154.699L266.58 559.141C266.662 562.202 265.534 565.154 263.38 567.415C261.239 569.678 258.335 570.971 255.217 571.05L-149.588 619.714C-155.963 619.889 -161.341 614.79 -161.518 608.369L-210.455 203.926C-210.541 200.878 -209.41 197.913 -207.268 195.65C-205.127 193.386 -202.223 192.093 -199.105 192.014L205.672 143.356L205.688 143.347Z" fill="#294596"/>
<path d="M210.171 144.042C209.091 143.753 207.974 143.602 206.816 143.601L206.766 143.587L-190.001 176.117C-197.129 176.09 -203.007 181.897 -203.034 189.084L-170.265 585.537C-170.292 592.67 -164.456 598.523 -157.278 598.564L239.54 566.048C242.968 566.065 246.248 564.726 248.724 562.269C251.196 559.825 252.559 556.546 252.576 553.068L219.807 156.616C219.822 153.191 218.479 149.913 216.019 147.438C214.375 145.787 212.36 144.615 210.162 144.026L210.171 144.042ZM206.845 144.899C209.964 144.915 212.905 146.147 215.111 148.365C217.317 150.583 218.53 153.544 218.525 156.676L251.294 553.128C251.278 556.203 250.047 559.141 247.824 561.356C245.605 563.558 242.642 564.768 239.507 564.762L-157.31 597.278C-160.388 597.26 -163.329 596.028 -165.548 593.807C-167.754 591.589 -168.966 588.628 -168.962 585.496L-201.731 189.044C-201.71 182.635 -196.416 177.397 -189.947 177.422L206.842 144.912L206.845 144.899Z" fill="#294596"/>
<path d="M210.968 145.586C210.026 145.334 209.045 145.178 208.03 145.148L207.979 145.135L-180.799 161.517C-187.974 161.262 -194.057 166.934 -194.309 174.155L-177.708 562.617C-177.959 569.784 -172.266 575.869 -165.05 576.121L223.778 559.752C227.233 559.871 230.569 558.627 233.132 556.248C235.694 553.868 237.17 550.62 237.285 547.127L220.684 158.665C220.893 152.508 216.73 147.143 210.977 145.602L210.968 145.586ZM208.005 146.446C214.498 146.68 219.599 152.162 219.381 158.652L235.983 547.114C235.878 550.22 234.546 553.13 232.233 555.281C229.92 557.431 226.915 558.549 223.765 558.445L-165.063 574.813C-171.532 574.586 -176.633 569.104 -176.411 562.601L-193.013 174.139C-192.792 167.69 -187.305 162.584 -180.795 162.809L208.005 146.446Z" fill="#294596"/>
<path d="M211.788 147.108C210.959 146.886 210.11 146.739 209.221 146.689L209.184 146.679L-171.619 146.91C-178.84 146.427 -185.126 151.951 -185.603 159.206L-185.169 539.678C-185.4 543.153 -184.248 546.541 -181.917 549.196C-179.586 551.851 -176.376 553.438 -172.854 553.655L207.986 553.435C215.211 553.905 221.494 548.394 221.97 541.139L221.537 160.666C221.954 154.337 217.742 148.703 211.788 147.108ZM209.172 147.98C215.702 148.426 220.674 154.088 220.257 160.619L220.69 541.092C220.267 547.595 214.59 552.555 208.052 552.134L-172.788 552.355C-175.91 552.151 -178.81 550.715 -180.919 548.334C-183.012 545.945 -184.062 542.88 -183.848 539.723L-184.282 159.25C-183.859 152.748 -178.178 147.775 -171.644 148.208L209.168 147.993L209.172 147.98Z" fill="#294596"/>
<path d="M212.633 148.624C211.917 148.432 211.184 148.303 210.425 148.221L210.387 148.211L-162.427 132.294C-165.932 131.96 -169.377 133.013 -172.124 135.276C-174.855 137.529 -176.557 140.717 -176.887 144.26L-192.622 516.743C-193.313 523.994 -187.948 530.501 -180.649 531.193L192.203 547.12C199.462 547.814 205.972 542.458 206.661 535.166L222.395 162.683C222.727 159.182 221.671 155.739 219.405 152.993C217.627 150.836 215.27 149.331 212.62 148.621L212.633 148.624ZM210.318 149.523C213.493 149.836 216.369 151.36 218.416 153.818C220.46 156.289 221.415 159.409 221.113 162.595L205.378 535.078C204.756 541.622 198.882 546.462 192.307 545.83L-180.545 529.903C-187.092 529.265 -191.944 523.406 -191.314 516.838L-175.58 144.355C-175.276 141.209 -173.749 138.323 -171.277 136.283C-168.805 134.242 -165.695 133.287 -162.492 133.594L210.331 149.527L210.318 149.523Z" fill="#294596"/>
<path d="M213.454 150.137C212.864 149.979 212.251 149.855 211.624 149.781L211.599 149.775L-153.223 117.697C-156.751 117.25 -160.268 118.217 -163.09 120.406C-165.911 122.595 -167.717 125.768 -168.167 129.305L-200.078 493.783C-200.997 501.08 -195.756 507.796 -188.438 508.722L176.409 540.806C183.715 541.728 190.431 536.508 191.356 529.185L223.255 164.705C223.702 161.18 222.732 157.666 220.539 154.846C218.726 152.518 216.255 150.888 213.454 150.137ZM211.48 151.074C214.697 151.479 217.534 153.099 219.516 155.648C221.499 158.196 222.371 161.375 221.971 164.575L190.072 529.056C189.246 535.653 183.182 540.348 176.566 539.517L-188.281 507.433C-194.872 506.608 -199.588 500.544 -198.759 493.934L-166.848 129.457C-166.455 126.281 -164.827 123.423 -162.277 121.444C-159.728 119.464 -156.546 118.595 -153.342 118.997L211.492 151.077L211.48 151.074Z" fill="#294596"/>
<path d="M214.263 151.63C213.798 151.506 213.314 151.403 212.823 151.325L-144.023 103.097C-151.378 101.96 -158.306 107.015 -159.444 114.375L-207.523 470.863C-208.657 478.21 -203.593 485.134 -196.225 486.275L160.634 534.507C164.189 535.056 167.758 534.197 170.673 532.06C173.588 529.923 175.504 526.792 176.055 523.228L224.134 166.741C225.191 159.883 220.844 153.394 214.275 151.633L214.263 151.63ZM212.641 152.608C219.291 153.663 223.869 159.892 222.841 166.542L174.762 523.029C173.737 529.667 167.476 534.242 160.819 533.212L-196.04 484.98C-202.684 483.952 -207.267 477.695 -206.239 471.045L-158.16 114.558C-157.135 107.921 -150.875 103.345 -144.218 104.376L212.641 152.608Z" fill="#294596"/>
<path d="M215.095 153.103C214.744 153.009 214.389 152.927 214.03 152.858L-134.831 88.4947C-138.422 87.8284 -142.049 88.6046 -145.051 90.6645C-148.053 92.7243 -150.073 95.8408 -150.738 99.4278L-214.982 447.913C-216.344 455.307 -211.428 462.433 -204.026 463.798L144.835 528.162C148.413 528.825 152.053 528.052 155.055 525.992C158.058 523.932 160.077 520.816 160.742 517.229L224.986 168.744C226.279 161.708 221.907 154.915 215.099 153.091L215.095 153.103ZM213.794 154.14C220.473 155.392 224.94 161.833 223.7 168.52L159.456 517.005C158.857 520.247 157.037 523.067 154.316 524.933C151.595 526.799 148.309 527.506 145.064 526.905L-203.797 462.542C-210.52 461.305 -214.946 454.861 -213.702 448.161L-149.458 99.6765C-148.859 96.435 -147.04 93.6144 -144.318 91.7483C-141.597 89.8821 -138.315 89.1883 -135.067 89.7763L213.794 154.14Z" fill="#294596"/>
</g>
<defs>
<clipPath id="clip0_434_7186">
<rect width="897" height="896" fill="white" transform="matrix(0.965926 0.258819 0.258819 -0.965926 -468.355 865.469)"/>
</clipPath>
</defs>
</svg>
