<svg width="423" height="915" viewBox="0 0 423 915" fill="none" xmlns="http://www.w3.org/2000/svg">
<g opacity="0.2" clip-path="url(#clip0_434_6964)">
<path d="M-490.449 457.492C-490.449 461.06 -489.099 464.629 -486.384 467.335L-43.5572 910.927C-38.1411 916.352 -29.3087 916.352 -23.8928 910.927L418.934 467.348C424.35 461.923 424.35 453.075 418.934 447.65L-23.8927 4.0711C-29.3087 -1.35407 -38.1411 -1.35407 -43.5571 4.0711L-486.384 447.65C-489.099 450.369 -490.449 453.937 -490.449 457.492ZM421.675 457.492C421.675 460.716 420.444 463.952 417.994 466.406L-24.8329 909.985C-29.7325 914.893 -37.7174 914.893 -42.6302 909.985L-485.457 466.406C-490.357 461.485 -490.357 453.5 -485.457 448.579L-42.6302 4.99963C-37.7306 0.0917952 -29.7457 0.0917956 -24.8329 4.99963L417.994 448.592C420.444 451.046 421.675 454.282 421.675 457.506L421.675 457.492Z" fill="white"/>
<path d="M-488.951 456.3C-488.951 459.842 -487.626 463.185 -485.19 465.758L-60.3588 905.742C-57.8428 908.408 -54.4264 909.947 -50.7451 910.053C-47.0638 910.159 -43.5679 908.82 -40.893 906.286L398.345 480.747C401.02 478.227 402.543 474.804 402.649 471.117C402.768 467.469 401.417 463.928 398.888 461.248L-25.9427 21.2639C-28.4587 18.5977 -31.8752 17.059 -35.5564 16.9529C-39.2378 16.8467 -42.7336 18.1865 -45.4085 20.72L-484.647 446.272C-487.322 448.793 -488.845 452.215 -488.951 455.903C-488.951 456.035 -488.951 456.168 -488.951 456.3ZM-484.236 464.843C-486.514 462.415 -487.732 459.245 -487.626 455.929C-487.534 452.6 -486.143 449.509 -483.733 447.214L-44.4948 21.6619C-42.0848 19.3804 -38.9199 18.1733 -35.5962 18.2661C-32.2724 18.359 -29.187 19.7518 -26.8962 22.1659L397.935 462.163C400.212 464.578 401.404 467.748 401.325 471.077C401.232 474.407 399.842 477.497 397.432 479.792L-41.8199 905.331C-44.23 907.613 -47.3949 908.82 -50.7186 908.727C-54.0424 908.634 -57.1278 907.241 -59.4186 904.827L-484.25 464.843L-484.236 464.843Z" fill="white"/>
<path d="M-487.455 455.091C-487.455 458.447 -486.237 461.644 -483.999 464.164L-77.1643 900.567C-74.7543 903.286 -71.404 904.905 -67.7625 905.117C-64.1209 905.329 -60.6118 904.109 -57.8972 901.668L377.739 494.142C383.341 489.142 383.844 480.48 378.838 474.842L-27.9834 38.4528C-32.9756 32.8286 -41.6227 32.3378 -47.2505 37.3518L-482.9 444.865C-485.615 447.279 -487.23 450.635 -487.442 454.269C-487.455 454.534 -487.469 454.813 -487.469 455.078L-487.455 455.091ZM-483.006 463.289C-485.191 460.822 -486.29 457.652 -486.105 454.375C-485.919 451.086 -484.463 448.061 -482 445.873L-46.3501 38.3599C-41.2916 33.8367 -33.4788 34.2878 -28.9633 39.3813L377.858 475.744C382.374 480.825 381.924 488.638 376.839 493.161L-58.7976 900.687C-61.2474 902.875 -64.4123 903.976 -67.6963 903.791C-70.9803 903.605 -73.9995 902.146 -76.1844 899.679L-483.006 463.302L-483.006 463.289Z" fill="white"/>
<path d="M-485.972 453.886C-485.972 457.069 -484.873 460.12 -482.808 462.587L-482.808 462.601L-93.9818 895.382C-91.6777 898.141 -88.4069 899.839 -84.8051 900.158C-81.2032 900.476 -77.6941 899.362 -74.9265 897.04L357.148 507.554C359.902 505.233 361.597 501.97 361.915 498.362C362.22 494.741 361.121 491.239 358.803 488.467L-30.0227 55.6718C-32.3268 52.9128 -35.5976 51.215 -39.1995 50.8966C-42.8013 50.5782 -46.3104 51.6924 -49.078 54.0137L-481.139 443.5C-483.894 445.821 -485.588 449.084 -485.906 452.692C-485.946 453.09 -485.959 453.501 -485.959 453.899L-485.972 453.886ZM-481.788 461.725C-483.88 459.218 -484.887 456.048 -484.595 452.798C-484.317 449.535 -482.781 446.59 -480.278 444.495L-48.2173 55.0085C-45.741 52.926 -42.563 51.918 -39.3186 52.2098C-36.0611 52.4883 -33.1214 54.027 -31.0291 56.534L357.797 489.329C359.876 491.809 360.882 494.979 360.591 498.243C360.313 501.506 358.777 504.45 356.274 506.546L-75.7873 896.032C-78.2635 898.115 -81.4416 899.123 -84.6859 898.831C-87.9302 898.553 -90.8831 897.014 -92.9754 894.507L-481.788 461.725Z" fill="white"/>
<path d="M-484.488 452.678C-484.488 455.689 -483.482 458.594 -481.602 460.995L-481.602 461.021L-110.785 890.195C-106.216 896.005 -97.7415 897 -91.9282 892.397L336.544 520.951C342.331 516.361 343.337 507.885 338.742 502.062L-32.0742 72.8618C-34.2856 70.063 -37.4637 68.2723 -41.039 67.861C-44.6011 67.4366 -48.1235 68.4315 -50.9441 70.6599L-479.417 442.106C-482.211 444.321 -483.998 447.505 -484.409 451.086C-484.475 451.617 -484.502 452.161 -484.502 452.691L-484.488 452.678ZM-480.569 460.173C-484.7 454.92 -483.8 447.279 -478.556 443.141L-50.0834 71.6945C-47.5674 69.7048 -44.4025 68.8029 -41.1847 69.1875C-37.9669 69.5722 -35.0933 71.1772 -33.0938 73.724L337.723 502.898C341.841 508.124 340.941 515.777 335.697 519.916L-92.7625 891.376C-97.9798 895.501 -105.62 894.599 -109.752 889.346L-480.555 460.159L-480.569 460.173Z" fill="white"/>
<path d="M-483.035 451.459C-483.035 454.231 -482.188 457.016 -480.413 459.417L-480.387 459.444L-127.593 885.009C-125.487 887.848 -122.375 889.718 -118.853 890.249C-115.33 890.78 -111.808 889.891 -108.935 887.768L315.936 534.349C318.77 532.239 320.637 529.122 321.167 525.594C321.696 522.066 320.809 518.537 318.69 515.659L-34.1303 90.0535C-36.2358 87.2148 -39.3477 85.3445 -42.8701 84.814C-46.3924 84.2834 -49.9148 85.1721 -52.7883 87.2944L-477.659 440.701C-481.168 443.301 -483.035 447.347 -483.035 451.432L-483.035 451.459ZM-479.354 458.608C-483.287 453.262 -482.161 445.715 -476.838 441.762L-51.9673 88.3556C-49.4116 86.4587 -46.2468 85.6629 -43.0687 86.1404C-39.8906 86.6179 -37.0833 88.3026 -35.1764 90.8892L317.658 516.481C319.551 519.041 320.332 522.212 319.869 525.395C319.392 528.578 317.711 531.391 315.128 533.301L-109.756 886.721C-112.311 888.617 -115.476 889.413 -118.654 888.936C-121.832 888.458 -124.64 886.774 -126.546 884.187L-479.354 458.608Z" fill="white"/>
<path d="M-481.591 450.264C-481.591 452.957 -480.784 455.57 -479.221 457.825L-479.195 457.865L-144.396 879.822C-142.397 882.701 -139.364 884.664 -135.868 885.287C-132.372 885.924 -128.85 885.155 -125.937 883.125L295.345 547.758C301.331 543.593 302.814 535.29 298.643 529.268L-36.169 107.27C-40.3138 101.288 -48.6033 99.7757 -54.6284 103.967L-475.911 439.347C-478.784 441.35 -480.744 444.388 -481.366 447.89C-481.512 448.686 -481.578 449.495 -481.578 450.277L-481.591 450.264ZM-478.135 457.056C-479.949 454.429 -480.638 451.259 -480.068 448.115C-479.499 444.972 -477.738 442.226 -475.116 440.409L-53.8339 105.028C-48.4576 101.288 -40.9891 102.641 -37.2284 108.066L297.583 530.064C301.317 535.449 299.967 542.93 294.551 546.697L-126.731 882.064C-129.327 883.868 -132.492 884.558 -135.643 883.987C-138.795 883.417 -141.523 881.653 -143.337 879.027L-478.135 457.042L-478.135 457.056Z" fill="white"/>
<path d="M-480.132 449.043C-480.132 451.51 -479.443 454.017 -478 456.233L-477.973 456.272L-161.211 874.635C-157.278 880.724 -149.068 882.475 -142.963 878.495L274.744 561.155C277.67 559.258 279.696 556.287 280.438 552.838C281.179 549.376 280.517 545.848 278.597 542.877L-38.2053 124.474C-42.1381 118.385 -50.3482 116.634 -56.4528 120.614L-474.146 437.954C-478.013 440.461 -480.132 444.706 -480.132 449.043ZM-476.914 455.49C-480.463 449.985 -478.9 442.61 -473.392 439.029L-55.698 121.688C-50.2422 118.146 -42.8532 119.712 -39.2911 125.23L277.511 543.633C279.22 546.259 279.802 549.442 279.14 552.56C278.478 555.677 276.651 558.343 273.976 560.067L-143.718 877.421C-149.174 880.963 -156.563 879.397 -160.125 873.879L-476.914 455.49Z" fill="white"/>
<path d="M-478.716 447.837C-478.716 450.212 -478.067 452.559 -476.809 454.642L-476.783 454.682L-178.016 869.45C-176.229 872.421 -173.342 874.544 -169.925 875.379C-166.509 876.215 -162.973 875.684 -159.967 873.854L254.138 574.553C257.104 572.763 259.223 569.871 260.057 566.449C260.891 563.026 260.361 559.485 258.534 556.474L-40.2725 141.666C-43.9936 135.484 -52.1109 133.495 -58.3214 137.248L-472.426 436.562C-475.393 438.353 -477.511 441.245 -478.346 444.667C-478.61 445.715 -478.73 446.789 -478.73 447.837L-478.716 447.837ZM-475.697 453.939C-477.326 451.233 -477.803 448.063 -477.048 444.985C-476.293 441.908 -474.386 439.308 -471.685 437.677L-57.5799 138.363C-54.9182 136.758 -51.7401 136.267 -48.668 137.023C-45.5958 137.779 -43.0004 139.689 -41.3716 142.395L257.448 557.217C259.05 559.883 259.54 563.066 258.786 566.144C258.031 569.221 256.124 571.821 253.423 573.452L-160.696 872.766C-163.357 874.371 -166.535 874.862 -169.608 874.106C-172.68 873.35 -175.275 871.44 -176.904 868.734L-475.684 453.952L-475.697 453.939Z" fill="white"/>
<path d="M-477.3 446.618C-477.3 448.806 -476.757 451.008 -475.618 453.051L-475.592 453.104L-194.821 864.264C-193.126 867.275 -190.332 869.49 -186.955 870.432C-183.579 871.374 -180.03 870.95 -176.984 869.225L233.532 587.964C239.796 584.436 242.034 576.411 238.485 570.084L-42.3125 158.87C-43.9942 155.859 -46.8015 153.644 -50.1782 152.702C-53.5549 151.76 -57.1038 152.185 -60.1495 153.909L-470.666 435.183C-474.903 437.571 -477.313 442.041 -477.313 446.631L-477.3 446.618ZM-474.48 452.374C-477.644 446.697 -475.632 439.494 -469.964 436.298L-59.4476 155.024C-56.7463 153.511 -53.5682 153.127 -50.5225 153.976C-47.4901 154.825 -44.9609 156.814 -43.4248 159.56L237.373 570.773C240.524 576.411 238.511 583.627 232.844 586.824L-177.673 868.111C-180.374 869.623 -183.552 870.008 -186.598 869.159C-189.63 868.31 -192.159 866.32 -193.709 863.574L-474.493 452.388L-474.48 452.374Z" fill="white"/>
<path d="M-475.894 445.41C-475.894 447.452 -475.418 449.522 -474.411 451.458L-474.385 451.511L-211.623 859.077C-208.313 865.444 -200.381 867.938 -193.985 864.595L212.943 601.361C215.989 599.769 218.28 597.036 219.326 593.694C220.385 590.351 220.067 586.796 218.452 583.692L-44.3365 176.073C-45.9255 173.023 -48.6534 170.728 -51.9904 169.667C-55.3274 168.619 -58.8762 168.924 -61.9749 170.542L-468.903 433.777C-473.339 436.085 -475.894 440.661 -475.894 445.396L-475.894 445.41ZM-473.259 450.821C-474.703 448.036 -474.981 444.852 -474.027 441.855C-473.087 438.844 -471.021 436.39 -468.24 434.931L-61.3127 171.696C-58.5717 170.264 -55.3803 169.985 -52.3876 170.94C-49.3817 171.882 -46.9319 173.951 -45.4753 176.737L217.3 584.355C218.717 587.101 219.008 590.298 218.054 593.296C217.114 596.307 215.048 598.761 212.268 600.22L-194.647 863.454C-200.354 866.425 -207.478 864.184 -210.484 858.414L-473.259 450.821Z" fill="white"/>
<path d="M-474.505 444.203C-474.505 446.113 -474.094 448.049 -473.207 449.88L-473.18 449.933L-228.441 853.891C-226.958 856.994 -224.31 859.369 -220.999 860.523C-217.702 861.677 -214.153 861.478 -211.001 859.966L192.338 614.771C198.787 611.667 201.528 603.815 198.403 597.302L-46.3764 193.291C-47.8595 190.187 -50.5079 187.813 -53.8184 186.659C-57.1157 185.505 -60.6646 185.704 -63.8162 187.216L-467.142 432.41C-471.777 434.639 -474.505 439.334 -474.505 444.203ZM-472.042 449.27C-474.836 443.42 -472.359 436.376 -466.533 433.564L-63.2071 188.37C-57.4203 185.584 -50.3755 188.051 -47.555 193.914L197.237 597.925C200.018 603.722 197.555 610.778 191.702 613.604L-211.624 858.798C-214.405 860.138 -217.596 860.311 -220.562 859.276C-223.528 858.241 -225.912 856.106 -227.276 853.267L-472.042 449.283L-472.042 449.27Z" fill="white"/>
<path d="M-473.143 442.981C-473.143 444.785 -472.772 446.576 -472.017 448.287L-471.991 448.34L-245.247 848.69C-242.36 855.242 -234.614 858.24 -228.006 855.322L171.718 628.167C174.856 626.788 177.306 624.201 178.577 620.938C179.835 617.675 179.756 614.107 178.339 610.91L-48.4308 210.494C-51.3176 203.941 -59.0641 200.943 -65.6719 203.862L-465.409 431.016C-468.548 432.396 -470.997 434.983 -472.269 438.246C-472.865 439.784 -473.156 441.376 -473.156 442.981L-473.143 442.981ZM-470.825 447.717C-472.083 444.851 -472.149 441.655 -471.024 438.723C-469.885 435.792 -467.687 433.47 -464.813 432.197L-65.076 205.042C-59.1965 202.442 -52.2445 205.148 -49.6226 211.077L177.161 611.494C178.405 614.319 178.485 617.516 177.346 620.447C176.207 623.379 174.009 625.7 171.135 626.973L-228.602 854.141C-234.481 856.741 -241.433 854.035 -244.055 848.106L-470.812 447.717L-470.825 447.717Z" fill="white"/>
<path d="M-471.778 441.762C-471.778 443.433 -471.46 445.092 -470.811 446.683L-470.784 446.75L-262.05 843.505C-260.766 846.688 -258.263 849.235 -255.045 850.601C-251.827 851.968 -248.265 851.994 -245.021 850.681L151.114 641.566C154.293 640.279 156.835 637.772 158.199 634.549C159.563 631.325 159.589 627.757 158.278 624.507L-50.4822 227.686C-53.1571 221.041 -60.811 217.791 -67.5115 220.497L-463.66 429.612C-466.838 430.899 -469.381 433.405 -470.745 436.629C-471.446 438.274 -471.791 440.011 -471.791 441.749L-471.778 441.762ZM-469.606 446.166C-470.771 443.248 -470.745 440.064 -469.513 437.173C-468.282 434.268 -466.004 432.026 -463.091 430.845L-66.9553 221.73C-60.9964 219.316 -54.1105 222.234 -51.674 228.27L157.087 625.065C158.239 627.93 158.212 631.126 156.981 634.031C155.749 636.936 153.472 639.178 150.558 640.359L-245.577 849.487C-248.437 850.641 -251.629 850.615 -254.529 849.381C-257.429 848.147 -259.667 845.866 -260.845 842.948L-469.593 446.166L-469.606 446.166Z" fill="white"/>
<path d="M-470.426 440.568C-470.426 442.08 -470.161 443.606 -469.618 445.105L-469.592 445.171L-278.867 838.305C-276.39 845.043 -268.829 848.545 -262.036 846.051L130.511 654.976C133.742 653.795 136.364 651.368 137.834 648.171C139.304 644.988 139.449 641.419 138.231 638.117L-52.5204 244.903C-53.6989 241.667 -56.1223 239.04 -59.3136 237.568C-62.4917 236.095 -66.067 235.95 -69.351 237.157L-461.898 428.232C-467.155 430.169 -470.439 435.209 -470.439 440.555L-470.426 440.568ZM-468.387 444.614C-470.611 438.499 -467.473 431.707 -461.368 429.466L-68.8214 238.39C-65.9213 237.329 -62.7168 237.448 -59.8565 238.775C-56.9962 240.101 -54.8245 242.462 -53.7254 245.42L137.026 638.634C138.085 641.539 137.966 644.749 136.642 647.614C135.318 650.479 132.961 652.655 130.008 653.742L-262.552 844.831C-268.604 847.059 -275.397 843.916 -277.648 837.787L-468.387 444.6L-468.387 444.614Z" fill="white"/>
<path d="M-469.089 439.362C-469.089 440.741 -468.878 442.134 -468.414 443.513L-468.388 443.58L-295.672 833.119C-294.586 836.395 -292.242 839.114 -289.104 840.693C-285.965 842.271 -282.39 842.523 -279.053 841.422L109.905 668.374C116.738 666.105 120.472 658.624 118.195 651.727L-54.5475 262.121C-55.6334 258.845 -57.9772 256.125 -61.1156 254.547C-64.2539 252.969 -67.8293 252.717 -71.1663 253.817L-460.111 426.853C-465.58 428.67 -469.063 433.83 -469.063 439.348L-469.089 439.362ZM-467.169 443.062C-469.195 436.868 -465.845 430.156 -459.661 428.1L-70.716 255.064C-67.7763 254.083 -64.5585 254.321 -61.7379 255.741C-58.9174 257.16 -56.7987 259.601 -55.8055 262.599L116.95 652.204C118.989 658.359 115.613 665.084 109.429 667.14L-279.53 840.176C-282.47 841.157 -285.687 840.918 -288.508 839.499C-291.328 838.08 -293.447 835.639 -294.44 832.641L-467.169 443.062Z" fill="white"/>
<path d="M-467.766 438.114C-467.766 439.387 -467.58 440.66 -467.21 441.907L-467.183 441.96L-312.476 827.905C-311.483 831.234 -309.219 834.033 -306.12 835.718C-303.022 837.402 -299.446 837.774 -296.056 836.765L89.3003 681.77C96.2259 679.7 100.212 672.312 98.146 665.322L-56.5872 279.311C-58.6397 272.373 -66.0155 268.368 -73.0073 270.45L-458.364 425.446C-461.688 426.441 -464.482 428.709 -466.163 431.813C-467.223 433.776 -467.766 435.925 -467.766 438.1L-467.766 438.114ZM-465.952 441.509C-466.852 438.472 -466.508 435.262 -464.998 432.476C-463.489 429.677 -460.973 427.635 -457.927 426.733L-72.5703 271.737C-69.5776 270.848 -66.3731 271.18 -63.579 272.705C-60.785 274.217 -58.7457 276.737 -57.8452 279.788L96.888 665.799C98.7418 672.033 95.14 678.679 88.8633 680.549L-296.493 835.545C-299.473 836.434 -302.69 836.102 -305.485 834.59C-308.279 833.078 -310.318 830.558 -311.218 827.507L-465.938 441.523L-465.952 441.509Z" fill="white"/>
<path d="M-466.456 436.908C-466.456 438.048 -466.31 439.189 -466.006 440.33L-466.006 440.383L-329.282 822.733C-327.428 829.763 -320.158 834.021 -313.073 832.15L68.6812 695.194C75.7127 693.337 79.937 686.042 78.0831 678.959L-58.6409 296.556C-59.5281 293.173 -61.7131 290.295 -64.7852 288.504C-67.8441 286.713 -71.4327 286.236 -74.8624 287.138L-456.617 424.094C-459.994 424.983 -462.867 427.171 -464.655 430.249C-465.847 432.305 -466.469 434.6 -466.469 436.921L-466.456 436.908ZM-464.734 439.958C-465.542 436.881 -465.105 433.658 -463.503 430.899C-461.901 428.14 -459.305 426.163 -456.22 425.341L-74.4652 288.385C-71.4327 287.589 -68.2149 288.027 -65.4473 289.632C-62.693 291.237 -60.7199 293.836 -59.8989 296.927L76.8251 679.33C77.6196 682.368 77.1826 685.591 75.5803 688.363C73.9781 691.122 71.3826 693.099 68.2972 693.921L-313.457 830.877C-319.774 832.548 -326.329 828.715 -328.01 822.335L-464.721 439.958L-464.734 439.958Z" fill="white"/>
<path d="M-465.144 435.714C-465.144 436.709 -465.038 437.717 -464.8 438.725L-464.8 438.778L-346.085 817.52C-344.443 824.656 -337.253 829.153 -330.075 827.495L48.0773 708.578C55.2015 706.934 59.6906 699.718 58.0354 692.541L-60.6795 313.747C-61.474 310.311 -63.5795 307.353 -66.5987 305.456C-69.6179 303.559 -73.2064 302.962 -76.6758 303.772L-454.829 422.688C-460.946 424.107 -465.131 429.625 -465.131 435.701L-465.144 435.714ZM-463.515 438.407C-464.999 431.947 -460.946 425.474 -454.498 423.975L-76.3448 305.058C-73.2594 304.342 -70.0416 304.886 -67.3137 306.597C-64.5859 308.308 -62.6923 310.974 -61.964 314.105L56.7509 692.9C58.234 699.333 54.1819 705.806 47.7198 707.305L-330.433 826.221C-336.842 827.707 -343.318 823.648 -344.814 817.175L-463.515 438.407Z" fill="white"/>
<path d="M-463.858 434.505C-463.858 435.381 -463.778 436.256 -463.593 437.145L-463.593 437.185L-362.887 812.332C-361.457 819.575 -354.359 824.31 -347.089 822.864L27.4614 721.987C30.9441 721.298 33.9766 719.268 35.9761 716.27C37.9756 713.273 38.6907 709.691 37.9756 706.163L-62.73 330.976C-64.1734 323.733 -71.2579 318.998 -78.5278 320.444L-453.079 421.321C-459.422 422.581 -463.858 428.218 -463.858 434.505ZM-462.308 436.853C-463.593 430.301 -459.329 423.907 -452.787 422.594L-78.2364 321.717C-71.7213 320.417 -65.3387 324.702 -64.0277 331.254L36.6779 706.441C37.3003 709.572 36.6515 712.808 34.8638 715.514C33.0629 718.207 30.3217 720.051 27.1569 720.674L-347.394 821.551C-353.909 822.851 -360.305 818.566 -361.603 812.014L-462.295 436.853L-462.308 436.853Z" fill="white"/>
<path d="M-462.589 433.272C-462.589 434.028 -462.523 434.784 -462.404 435.554L-462.404 435.594L-379.707 807.133C-379.112 810.675 -377.165 813.792 -374.212 815.901C-371.272 817.997 -367.684 818.832 -364.108 818.222L6.84085 735.385C14.1637 734.152 19.1559 727.148 17.9112 719.773L-64.7853 348.194C-66.0168 340.858 -73.0086 335.858 -80.3712 337.105L-451.32 419.942C-454.856 420.538 -457.968 422.488 -460.073 425.446C-461.729 427.768 -462.589 430.487 -462.589 433.286L-462.589 433.272ZM-461.093 435.315C-461.623 432.105 -460.881 428.869 -459.001 426.202C-457.107 423.536 -454.287 421.772 -451.069 421.228L-80.1196 338.391C-73.5118 337.277 -67.1954 341.787 -66.083 348.432L16.6134 720.012C17.7125 726.631 13.2235 732.958 6.58925 734.072L-364.36 816.909C-367.538 817.439 -370.782 816.697 -373.444 814.8C-376.106 812.903 -377.867 810.091 -378.41 806.854L-461.093 435.302L-461.093 435.315Z" fill="white"/>
</g>
<defs>
<clipPath id="clip0_434_6964">
<rect width="915" height="423" fill="white" transform="matrix(4.37114e-08 -1 -1 -4.37114e-08 423 915)"/>
</clipPath>
</defs>
</svg>
