<svg width="600" height="1167" viewBox="0 0 600 1167" fill="none" xmlns="http://www.w3.org/2000/svg">
<g opacity="0.2" clip-path="url(#clip0_434_5269)">
<path d="M-439.037 463.276C-439.993 466.847 -439.596 470.78 -437.6 474.218L-112.634 1037.1C-108.66 1043.98 -99.8055 1046.35 -92.9214 1042.38L469.943 717.407C476.827 713.433 479.199 704.579 475.225 697.694L150.255 134.83C146.281 127.946 137.426 125.574 130.542 129.548L-432.322 454.518C-435.773 456.51 -438.083 459.718 -439.037 463.276ZM475.334 708.28C474.469 711.506 472.367 714.414 469.253 716.212L-93.6113 1041.18C-99.839 1044.78 -107.844 1042.63 -111.452 1036.4L-436.422 473.537C-440.014 467.296 -437.873 459.305 -431.642 455.696L131.222 130.726C137.45 127.131 145.455 129.276 149.064 135.507L474.03 698.384C475.828 701.498 476.194 705.068 475.33 708.294L475.334 708.28Z" fill="white"/>
<path d="M-437.215 462.487C-438.164 466.031 -437.733 469.732 -435.981 472.961L-128.087 1027.39C-126.28 1030.74 -123.268 1033.2 -119.606 1034.29C-115.944 1035.39 -112.08 1034.98 -108.719 1033.17L445.71 725.287C449.067 723.483 451.512 720.468 452.607 716.806C453.704 713.187 453.3 709.28 451.483 705.919L143.589 151.486C141.782 148.142 138.77 145.685 135.108 144.59C131.446 143.495 127.582 143.896 124.222 145.713L-430.211 453.607C-433.569 455.411 -436.013 458.426 -437.108 462.088C-437.144 462.221 -437.179 462.354 -437.215 462.487ZM-434.78 472.302C-436.412 469.261 -436.783 465.761 -435.788 462.471C-434.802 459.163 -432.579 456.444 -429.548 454.795L124.885 146.901C127.913 145.265 131.409 144.907 134.716 145.893C138.023 146.879 140.743 149.102 142.392 152.133L450.282 706.579C451.918 709.607 452.262 713.1 451.29 716.41C450.304 719.717 448.082 722.437 445.05 724.086L-109.392 1031.96C-112.42 1033.6 -115.917 1033.96 -119.224 1032.97C-122.531 1031.99 -125.25 1029.76 -126.899 1026.73L-434.793 472.298L-434.78 472.302Z" fill="white"/>
<path d="M-435.391 461.676C-436.291 465.035 -435.927 468.561 -434.359 471.684L-143.546 1017.7C-141.859 1021.07 -138.934 1023.59 -135.341 1024.78C-131.747 1025.97 -127.902 1025.69 -124.526 1023.98L421.462 733.156C428.418 729.656 431.245 721.123 427.739 714.136L136.935 168.138C133.439 161.169 124.902 158.355 117.916 161.861L-428.082 452.665C-431.451 454.352 -433.97 457.276 -435.157 460.857C-435.242 461.119 -435.33 461.394 -435.401 461.659L-435.391 461.676ZM-433.129 471.075C-434.658 468.019 -434.91 464.551 -433.845 461.322C-432.777 458.08 -430.506 455.445 -427.45 453.916L118.548 163.112C124.832 159.944 132.543 162.494 135.704 168.804L426.515 714.776C429.679 721.073 427.133 728.771 420.823 731.932L-125.166 1022.75C-128.208 1024.28 -131.676 1024.54 -134.919 1023.47C-138.161 1022.4 -140.796 1020.13 -142.325 1017.07L-433.133 471.088L-433.129 471.075Z" fill="white"/>
<path d="M-433.583 460.871C-434.437 464.057 -434.153 467.405 -432.744 470.429L-432.748 470.443L-159.017 1008C-157.447 1011.38 -154.623 1013.95 -151.098 1015.24C-147.572 1016.53 -143.756 1016.35 -140.359 1014.77L397.221 741.05C400.605 739.467 403.179 736.656 404.465 733.131C405.741 729.589 405.579 725.789 403.999 722.392L130.271 184.826C128.701 181.446 125.878 178.868 122.352 177.582C118.827 176.296 115.011 176.468 111.614 178.048L-425.953 451.775C-429.337 453.359 -431.911 456.169 -433.197 459.694C-433.344 460.082 -433.467 460.49 -433.574 460.888L-433.583 460.871ZM-431.491 469.84C-432.916 466.77 -433.075 463.327 -431.911 460.153C-430.757 456.962 -428.428 454.427 -425.357 453.002L112.21 179.275C115.251 177.856 118.707 177.7 121.881 178.864C125.072 180.018 127.606 182.347 129.031 185.418L402.759 722.985C404.178 726.026 404.337 729.469 403.17 732.656C402.016 735.847 399.686 738.381 396.615 739.806L-140.951 1013.53C-143.992 1014.95 -147.449 1015.11 -150.623 1013.94C-153.8 1012.79 -156.348 1010.46 -157.773 1007.39L-431.491 469.84Z" fill="white"/>
<path d="M-431.771 460.061C-432.579 463.074 -432.349 466.252 -431.107 469.16L-431.115 469.186L-174.469 998.292C-171.448 1005.33 -163.219 1008.61 -156.157 1005.56L372.975 748.922C380.007 745.883 383.289 737.671 380.244 730.61L123.606 201.478C122.139 198.083 119.434 195.437 115.96 194.065C112.503 192.683 108.705 192.733 105.28 194.205L-423.852 450.843C-427.247 452.31 -429.893 455.015 -431.265 458.489C-431.473 459.003 -431.646 459.54 -431.788 460.071L-431.771 460.061ZM-429.852 468.614C-432.585 462.247 -429.633 454.843 -423.267 452.11L105.865 195.472C108.921 194.157 112.336 194.104 115.458 195.353C118.581 196.603 121.031 198.981 122.352 202.066L378.998 731.172C381.725 737.508 378.77 744.926 372.403 747.659L-156.719 1004.31C-163.056 1007.04 -170.473 1004.09 -173.206 997.719L-429.835 468.604L-429.852 468.614Z" fill="white"/>
<path d="M-429.984 459.23C-430.728 462.004 -430.625 465.019 -429.49 467.899L-429.47 467.932L-189.925 988.586C-188.575 991.992 -185.957 994.7 -182.568 996.177C-179.179 997.654 -175.41 997.711 -171.96 996.359L348.727 756.794C352.133 755.444 354.841 752.826 356.318 749.437C357.795 746.049 357.852 742.279 356.5 738.829L116.938 218.129C115.589 214.723 112.971 212.015 109.582 210.538C106.193 209.061 102.424 209.004 98.974 210.356L-421.71 449.908C-425.925 451.567 -428.881 455.114 -429.977 459.203L-429.984 459.23ZM-428.211 467.373C-430.72 460.967 -427.568 453.716 -421.171 451.191L99.5125 211.638C102.583 210.427 105.969 210.48 109.027 211.812C112.085 213.143 114.447 215.583 115.665 218.684L355.244 739.375C356.456 742.446 356.389 745.828 355.071 748.89C353.739 751.947 351.299 754.31 348.198 755.528L-172.502 995.09C-175.573 996.302 -178.959 996.248 -182.017 994.916C-185.075 993.585 -187.437 991.145 -188.655 988.044L-428.211 467.373Z" fill="white"/>
<path d="M-428.217 458.421C-428.939 461.116 -428.83 463.948 -427.868 466.625L-427.852 466.672L-205.379 978.881C-204.146 982.299 -201.633 985.078 -198.296 986.641C-194.962 988.217 -191.225 988.393 -187.76 987.145L324.489 764.682C331.606 762.122 335.32 754.21 332.753 747.063L110.277 234.81C107.726 227.71 99.8219 223.97 92.658 226.547L-419.595 449.022C-423.012 450.255 -425.792 452.768 -427.354 456.106C-427.714 456.863 -427.997 457.655 -428.207 458.438L-428.217 458.421ZM-426.573 466.146C-427.688 463.031 -427.528 459.673 -426.114 456.68C-424.7 453.687 -422.198 451.412 -419.083 450.298L93.1699 227.822C99.5624 225.523 106.687 228.883 109.002 235.322L331.478 747.575C333.777 753.967 330.417 761.091 323.977 763.407L-188.272 985.869C-191.357 986.977 -194.715 986.818 -197.721 985.4C-200.728 983.983 -202.989 981.485 -204.104 978.369L-426.57 466.133L-426.573 466.146Z" fill="white"/>
<path d="M-426.43 457.592C-427.091 460.061 -427.073 462.755 -426.22 465.36L-426.204 465.407L-220.847 969.174C-218.537 976.324 -210.777 980.281 -203.59 977.939L300.241 772.556C303.684 771.444 306.511 769.014 308.179 765.762C309.851 762.497 310.134 758.788 309.006 755.298L103.619 251.481C101.309 244.331 93.5486 240.374 86.3619 242.716L-417.456 448.103C-422.004 449.573 -425.266 453.252 -426.43 457.592ZM-424.933 464.908C-427.014 458.446 -423.47 451.485 -416.987 449.381L86.8305 243.994C93.2493 241.915 100.237 245.467 102.328 251.946L307.714 755.763C308.722 758.851 308.453 762.193 306.953 765.135C305.454 768.077 302.907 770.254 299.763 771.261L-204.058 976.661C-210.477 978.739 -217.465 975.188 -219.556 968.709L-424.933 464.908Z" fill="white"/>
<path d="M-424.684 456.764C-425.321 459.14 -425.3 461.664 -424.597 464.086L-424.582 464.133L-236.301 959.469C-235.305 962.922 -232.981 965.822 -229.78 967.576C-226.579 969.33 -222.893 969.748 -219.388 968.724L275.995 780.427C279.448 779.432 282.348 777.107 284.102 773.907C285.856 770.706 286.274 767.019 285.25 763.515L96.9399 268.128C94.8672 260.943 87.2634 256.771 80.031 258.86L-415.356 447.17C-418.809 448.165 -421.709 450.49 -423.463 453.691C-424.009 454.668 -424.417 455.711 -424.698 456.76L-424.684 456.764ZM-423.294 463.681C-424.201 460.536 -423.829 457.235 -422.247 454.358C-420.665 451.481 -418.056 449.391 -414.911 448.484L80.4756 260.174C83.5742 259.283 86.8917 259.645 89.7687 261.227C92.6457 262.809 94.7353 265.418 95.6425 268.563L283.962 763.967C284.853 767.065 284.491 770.383 282.909 773.26C281.327 776.137 278.718 778.226 275.573 779.134L-219.827 967.44C-222.925 968.331 -226.243 967.969 -229.12 966.387C-231.997 964.805 -234.087 962.196 -234.994 959.051L-423.284 463.698L-423.294 463.681Z" fill="white"/>
<path d="M-422.94 455.927C-423.527 458.117 -423.573 460.467 -422.979 462.817L-422.967 462.877L-251.759 949.768C-250.867 953.237 -248.66 956.204 -245.528 958.054C-242.395 959.903 -238.724 960.432 -235.208 959.524L251.74 788.317C258.965 786.469 263.36 779.039 261.499 771.753L90.2788 284.802C89.4004 281.337 87.1802 278.366 84.0477 276.516C80.9152 274.667 77.2438 274.138 73.7282 275.046L-413.223 446.266C-418.112 447.517 -421.726 451.344 -422.957 455.937L-422.94 455.927ZM-421.656 462.446C-423.307 455.914 -419.357 449.247 -412.819 447.57L74.133 276.349C77.2465 275.562 80.5355 276.03 83.3611 277.698C86.1733 279.362 88.1752 282.033 88.9788 285.193L260.199 772.145C261.847 778.633 257.894 785.314 251.355 786.991L-235.6 958.224C-238.713 959.012 -242.002 958.543 -244.828 956.876C-247.64 955.211 -249.642 952.541 -250.459 949.377L-421.673 462.455L-421.656 462.446Z" fill="white"/>
<path d="M-421.205 455.094C-421.753 457.139 -421.83 459.338 -421.341 461.546L-421.328 461.606L-267.21 940.063C-265.599 947.324 -258.316 951.95 -251.008 950.323L227.509 796.192C230.989 795.417 234.018 793.298 235.963 790.234C237.922 787.173 238.556 783.53 237.769 779.99L83.6383 301.473C82.8634 297.993 80.7442 294.964 77.6836 293.006C74.6193 291.06 70.98 290.413 67.4397 291.2L-411.077 445.331C-416.143 446.449 -419.932 450.342 -421.202 455.081L-421.205 455.094ZM-420.015 461.218C-420.715 458.043 -420.14 454.782 -418.38 452.038C-416.631 449.277 -413.902 447.377 -410.723 446.663L67.794 292.533C70.926 291.835 74.1999 292.414 76.9439 294.173C79.7047 295.923 81.6056 298.652 82.3189 301.831L236.436 780.344C237.12 783.473 236.555 786.75 234.796 789.494C233.046 792.255 230.317 794.156 227.138 794.869L-251.366 949.003C-257.884 950.444 -264.424 946.287 -265.89 939.705L-420.015 461.218Z" fill="white"/>
<path d="M-419.488 454.258C-420 456.17 -420.108 458.218 -419.71 460.288L-419.697 460.349L-282.678 930.354C-282.024 933.858 -280.005 936.946 -276.996 938.99C-274 941.03 -270.389 941.785 -266.824 941.118L203.257 804.077C210.554 802.703 215.408 795.58 214.022 788.223L76.977 318.154C76.3225 314.65 74.3043 311.562 71.2951 309.518C68.2992 307.477 64.6882 306.723 61.1233 307.39L-408.945 444.435C-414.189 445.42 -418.183 449.387 -419.488 454.258ZM-418.378 459.991C-419.61 453.386 -415.239 447.002 -408.644 445.753L61.4245 308.709C67.9725 307.475 74.373 311.837 75.6283 318.462L212.686 788.534C213.92 795.082 209.558 801.482 202.933 802.738L-267.135 939.782C-270.282 940.376 -273.528 939.692 -276.224 937.859C-278.92 936.027 -280.737 933.25 -281.343 930.043L-418.381 460.004L-418.378 459.991Z" fill="white"/>
<path d="M-417.793 453.402C-418.277 455.207 -418.385 457.099 -418.087 459.014L-418.075 459.074L-298.129 920.634C-296.992 927.967 -290.03 933.048 -282.623 931.903L178.997 811.944C182.513 811.406 185.662 809.476 187.812 806.552C189.948 803.624 190.825 800.032 190.262 796.452L70.3067 334.818C69.17 327.485 62.2082 322.404 54.8016 323.55L-406.832 443.505C-410.348 444.043 -413.498 445.973 -415.647 448.897C-416.657 450.277 -417.376 451.792 -417.806 453.398L-417.793 453.402ZM-416.74 458.763C-417.232 455.558 -416.442 452.341 -414.527 449.71C-412.6 447.082 -409.773 445.349 -406.551 444.847L55.0824 324.892C61.6735 323.869 67.9171 328.444 68.9555 335.082L188.924 796.72C189.414 799.882 188.637 803.102 186.709 805.73C184.781 808.358 181.955 810.09 178.733 810.593L-282.904 930.561C-289.495 931.584 -295.739 927.008 -296.777 920.37L-416.726 458.767L-416.74 458.763Z" fill="white"/>
<path d="M-416.099 452.548C-416.547 454.221 -416.673 455.966 -416.45 457.733L-416.441 457.806L-313.584 910.932C-313.15 914.463 -311.324 917.684 -308.465 919.915C-305.605 922.147 -302.041 923.13 -298.437 922.688L154.749 819.818C158.28 819.384 161.501 817.558 163.732 814.699C165.964 811.84 166.947 808.276 166.504 804.672L63.6388 351.473C62.7393 344.103 55.9381 338.795 48.4955 339.703L-404.703 442.569C-408.234 443.003 -411.455 444.829 -413.687 447.688C-414.832 449.146 -415.643 450.792 -416.109 452.531L-416.099 452.548ZM-415.103 457.539C-415.488 454.305 -414.608 451.127 -412.598 448.563C-410.585 445.987 -407.701 444.355 -404.464 443.957L48.7222 341.087C55.3432 340.272 61.4635 345.042 62.2876 351.737L165.16 804.909C165.547 808.086 164.663 811.278 162.65 813.854C160.636 816.43 157.752 818.062 154.515 818.461L-298.674 921.343C-301.851 921.73 -305.043 920.846 -307.62 918.833C-310.196 916.819 -311.828 913.935 -312.227 910.698L-415.09 457.542L-415.103 457.539Z" fill="white"/>
<path d="M-414.424 451.717C-414.83 453.23 -414.973 454.828 -414.831 456.474L-414.822 456.547L-329.048 901.212C-328.372 908.62 -321.731 914.156 -314.253 913.485L130.498 827.705C134.054 827.392 137.333 825.667 139.664 822.862C141.991 820.071 143.094 816.539 142.758 812.907L56.9784 368.156C56.6648 364.6 54.9398 361.321 52.1354 358.99C49.3443 356.663 45.7993 355.557 42.1835 355.883L-402.567 441.662C-408.357 442.188 -413 446.351 -414.434 451.7L-414.424 451.717ZM-413.465 456.314C-414.055 449.596 -409.088 443.643 -402.367 443.039L42.3837 357.26C45.5754 356.977 48.7559 357.957 51.2675 360.053C53.7791 362.148 55.323 365.095 55.6316 368.35L141.411 813.101C141.694 816.293 140.714 819.473 138.618 821.985C136.522 824.496 133.576 826.04 130.324 826.336L-314.443 912.125C-321.107 912.729 -327.074 907.759 -327.688 901.021L-413.461 456.3L-413.465 456.314Z" fill="white"/>
<path d="M-412.761 450.868C-413.131 452.249 -413.292 453.699 -413.197 455.204L-413.189 455.278L-344.504 891.507C-344.294 895.078 -342.673 898.428 -339.951 900.851C-337.228 903.274 -333.711 904.486 -330.071 904.281L106.249 835.578C113.707 835.143 119.456 828.659 119.023 821.145L50.3291 384.842C50.1192 381.271 48.4987 377.921 45.7759 375.498C43.0531 373.075 39.5365 371.863 35.8961 372.068L-400.407 440.762C-406.376 441.111 -411.251 445.34 -412.731 450.862L-412.761 450.868ZM-411.829 455.087C-412.199 448.344 -407.04 442.527 -400.29 442.13L36.0131 373.437C39.2233 373.244 42.385 374.347 44.8319 376.525C47.2788 378.703 48.7483 381.715 48.94 384.982L117.647 821.288C118.041 827.995 112.852 833.819 106.102 834.215L-330.214 902.905C-333.425 903.098 -336.586 901.994 -339.033 899.816C-341.48 897.638 -342.949 894.627 -343.141 891.36L-411.829 455.087Z" fill="white"/>
<path d="M-411.1 449.976C-411.441 451.251 -411.597 452.575 -411.559 453.922L-411.547 453.982L-359.952 881.777C-359.849 885.375 -358.33 888.785 -355.675 891.303C-353.02 893.821 -349.536 895.153 -345.867 895.055L82.0006 843.451C89.4981 843.24 95.475 836.917 95.2786 829.366L43.6746 401.498C43.4773 394.004 37.1576 388.014 29.5901 388.22L-398.278 439.824C-401.877 439.927 -405.286 441.447 -407.804 444.101C-409.392 445.781 -410.513 447.786 -411.096 449.963L-411.1 449.976ZM-410.192 453.862C-410.28 450.58 -409.074 447.46 -406.814 445.078C-404.55 442.682 -401.48 441.314 -398.185 441.229L29.6832 389.625C32.9216 389.54 36.0451 390.733 38.437 393.01C40.8325 395.273 42.201 398.343 42.2855 401.638L93.8895 829.506C94.0762 836.243 88.6835 841.926 81.8898 842.112L-345.978 893.716C-349.203 893.805 -352.34 892.609 -354.736 890.345C-357.131 888.081 -358.499 885.011 -358.584 881.716L-410.182 453.879L-410.192 453.862Z" fill="white"/>
<path d="M-409.463 449.122C-409.769 450.263 -409.929 451.444 -409.929 452.667L-409.944 452.721L-375.411 872.087C-375.438 879.621 -369.292 885.835 -361.689 885.866L57.7309 851.348C65.2777 851.378 71.4687 845.212 71.5096 837.625L36.9917 418.205C37.0093 414.582 35.5908 411.115 32.9913 408.497C30.4051 405.884 26.9357 404.442 23.2557 404.423L-396.164 438.941C-399.787 438.924 -403.255 440.342 -405.872 442.942C-407.618 444.679 -408.858 446.808 -409.48 449.131L-409.463 449.122ZM-408.555 452.637C-408.54 449.341 -407.238 446.232 -404.892 443.901C-402.546 441.571 -399.414 440.29 -396.1 440.296L23.3195 405.778C26.5728 405.796 29.6812 407.098 32.0252 409.448C34.356 411.794 35.6367 414.926 35.631 418.239L70.1489 837.659C70.1309 840.912 68.8285 844.021 66.4789 846.365C64.1328 848.695 61.001 849.976 57.6875 849.97L-361.732 884.488C-368.512 884.464 -374.055 878.867 -374.03 872.03L-408.542 452.641L-408.555 452.637Z" fill="white"/>
<path d="M-407.826 448.278C-408.093 449.273 -408.257 450.311 -408.289 451.384L-408.303 451.437L-390.857 862.355C-391.124 869.938 -385.122 876.37 -377.482 876.638L33.4891 859.206C41.0719 859.474 47.507 853.458 47.772 845.832L30.34 434.86C30.4648 431.209 29.1473 427.683 26.6294 424.974C24.1114 422.265 20.674 420.703 16.9791 420.581L-393.992 438.013C-400.506 437.79 -406.18 442.188 -407.81 448.268L-407.826 448.278ZM-406.916 451.41C-406.67 444.547 -400.872 439.157 -394.006 439.39L16.9659 421.958C20.251 422.07 23.3309 423.478 25.6067 425.923C27.8824 428.369 29.0657 431.545 28.9564 434.874L46.3883 845.845C46.15 852.682 40.3521 858.072 33.4722 857.836L-377.499 875.268C-384.323 875.033 -389.726 869.232 -389.49 862.352L-406.916 451.41Z" fill="white"/>
<path d="M-406.216 447.415C-406.451 448.292 -406.606 449.189 -406.659 450.128L-406.67 450.168L-406.313 852.652C-406.821 860.284 -400.976 866.929 -393.301 867.435L9.22297 867.089C12.8992 867.335 16.4833 866.118 19.2916 863.655C22.1 861.192 23.7771 857.8 24.0065 854.077L23.6606 451.553C24.1557 443.918 18.3236 437.276 10.6481 436.77L-391.875 437.116C-398.572 436.673 -404.531 441.123 -406.216 447.415ZM-405.293 450.181C-404.823 443.279 -398.835 438.025 -391.925 438.468L10.5987 438.123C17.4784 438.572 22.7279 444.574 22.2849 451.484L22.6309 854.007C22.4153 857.307 20.897 860.372 18.3793 862.6C15.8519 864.811 12.6096 865.92 9.26982 865.693L-393.254 866.039C-400.133 865.59 -405.396 859.584 -404.94 852.678L-405.28 450.185L-405.293 450.181Z" fill="white"/>
<path d="M-404.612 446.523C-404.815 447.279 -404.951 448.054 -405.038 448.856L-405.049 448.896L-421.778 842.931C-422.13 846.635 -421.015 850.278 -418.62 853.182C-416.235 856.069 -412.862 857.869 -409.114 858.219L-15.0388 874.959C-7.36712 875.691 -0.484542 870.023 0.245294 862.308L16.9854 468.233C17.7179 460.561 12.0498 453.679 4.33475 452.949L-389.741 436.209C-393.445 435.856 -397.087 436.972 -399.991 439.366C-402.273 441.245 -403.865 443.735 -404.616 446.536L-404.612 446.523ZM-403.66 448.969C-403.33 445.614 -401.719 442.574 -399.119 440.411C-396.506 438.252 -393.205 437.244 -389.833 437.564L4.24195 454.304C11.1648 454.964 16.2874 461.174 15.6205 468.123L-1.11966 862.199C-1.79277 869.118 -7.9895 874.244 -14.9389 873.577L-409.014 856.837C-412.342 856.514 -415.396 854.899 -417.555 852.286C-419.715 849.673 -420.726 846.386 -420.403 843.001L-403.656 448.956L-403.66 448.969Z" fill="white"/>
<path d="M-403.015 445.656C-403.182 446.28 -403.313 446.928 -403.391 447.59L-403.398 447.617L-437.227 833.201C-437.7 836.93 -436.675 840.647 -434.359 843.63C-432.042 846.612 -428.684 848.522 -424.942 848.999L-39.3311 882.835C-31.6101 883.808 -24.5064 878.27 -23.5295 870.536L10.3063 484.926C11.2796 477.205 5.75525 470.104 -1.99224 469.124L-387.606 435.301C-391.335 434.829 -395.053 435.853 -398.035 438.17C-400.498 440.085 -402.222 442.696 -403.015 445.656ZM-402.023 447.743C-401.596 444.344 -399.882 441.345 -397.187 439.251C-394.491 437.156 -391.129 436.236 -387.742 436.659L-2.12841 470.482C4.85081 471.356 9.82006 477.767 8.94236 484.759L-24.8935 870.37C-25.7641 877.336 -32.1785 882.318 -39.171 881.441L-424.781 847.605C-428.141 847.188 -431.166 845.467 -433.261 842.772C-435.356 840.076 -436.276 836.714 -435.852 833.327L-402.02 447.73L-402.023 447.743Z" fill="white"/>
<path d="M-401.43 444.797C-401.562 445.289 -401.67 445.8 -401.752 446.319L-452.671 823.468C-453.871 831.242 -448.521 838.566 -440.734 839.77L-63.5714 890.692C-55.7976 891.893 -48.4736 886.542 -47.2692 878.755L3.65264 501.593C4.23256 497.836 3.32263 494.063 1.06093 490.982C-1.20075 487.9 -4.51365 485.874 -8.28416 485.291L-385.447 434.369C-392.702 433.25 -399.566 437.842 -401.426 444.784L-401.43 444.797ZM-400.395 446.512C-399.28 439.483 -392.692 434.647 -385.656 435.735L-8.49381 486.657C-1.47145 487.742 3.37093 494.361 2.2825 501.396L-48.6394 878.559C-49.7242 885.581 -56.3429 890.424 -63.3786 889.335L-440.541 838.413C-447.563 837.328 -452.406 830.71 -451.317 823.674L-400.395 446.512Z" fill="white"/>
<path d="M-399.872 443.922C-399.971 444.294 -400.058 444.669 -400.131 445.048L-468.122 813.752C-468.826 817.548 -468.004 821.382 -465.823 824.555C-463.643 827.729 -460.346 829.865 -456.55 830.568L-87.8495 898.573C-80.0265 900.015 -72.4884 894.821 -71.0467 886.998L-3.05566 518.293C-2.35532 514.511 -3.17404 510.664 -5.35417 507.49C-7.5343 504.317 -10.832 502.181 -14.6271 501.477L-383.328 433.473C-390.772 432.104 -397.957 436.724 -399.885 443.919L-399.872 443.922ZM-398.775 445.297C-397.453 438.239 -390.639 433.52 -383.564 434.832L-14.8634 502.837C-11.4338 503.471 -8.44917 505.395 -6.47405 508.272C-4.49895 511.148 -3.75064 514.621 -4.38505 518.051L-72.3761 886.755C-73.6824 893.861 -80.4983 898.536 -87.5868 897.22L-456.288 829.216C-459.717 828.582 -462.702 826.658 -464.677 823.781C-466.652 820.904 -467.387 817.435 -466.766 814.002L-398.775 445.297Z" fill="white"/>
</g>
<defs>
<clipPath id="clip0_434_5269">
<rect width="948" height="969" fill="white" transform="matrix(0.258819 -0.965926 -0.965926 -0.258819 353.98 1166.49)"/>
</clipPath>
</defs>
</svg>
