<svg width="100" height="100" viewBox="0 0 100 100" fill="none" xmlns="http://www.w3.org/2000/svg">
<g clip-path="url(#clip0_434_1877)">
<path d="M99.0255 94.3665L53.2822 48.4659V27.1091H86.3081C87.6391 27.1091 88.8384 26.3025 89.3523 25.0727C89.8663 23.8428 89.5764 22.4146 88.6407 21.4757L80.7598 13.5678L88.6407 5.6598C89.5764 4.72089 89.8663 3.2927 89.3523 2.06287C88.8384 0.833032 87.6391 0.0263672 86.3081 0.0263672H49.9876C48.1689 0.0263672 46.6929 1.50746 46.6929 3.33237V48.4924L35.3987 59.8254L22.1541 46.5485C20.8626 45.2525 18.7804 45.2525 17.4889 46.5485L0.962775 63.1181C-0.328738 64.4141 -0.328738 66.5035 0.962775 67.7994C1.60853 68.4474 2.45197 68.7648 3.29541 68.7648C4.13884 68.7648 4.98228 68.4474 5.62804 67.7994L19.8479 53.5307L30.7598 64.4802L0.962775 94.3665C0.0270874 95.3054 -0.262844 96.7336 0.251125 97.9634C0.765095 99.1933 1.96436 99.9999 3.29541 99.9999H96.7061C98.0371 99.9999 99.2364 99.1933 99.7504 97.9634C100.264 96.7336 99.9744 95.3054 99.0387 94.3665H99.0255ZM53.2954 6.61193H78.3745L73.7883 11.2139C73.1689 11.8354 72.8263 12.6685 72.8263 13.5545C72.8263 14.4405 73.1689 15.2737 73.7883 15.8952L78.3745 20.4971H53.2954V6.61193ZM11.2553 93.3879L50.0007 54.5093L88.7461 93.3879H11.2553Z" fill="url(#paint0_linear_434_1877)"/>
</g>
<defs>
<linearGradient id="paint0_linear_434_1877" x1="49.9982" y1="0.0263672" x2="49.9982" y2="99.9999" gradientUnits="userSpaceOnUse">
<stop stop-color="#1853D6"/>
<stop offset="1" stop-color="#022E9E" stop-opacity="0.1"/>
</linearGradient>
<clipPath id="clip0_434_1877">
<rect width="100" height="100" fill="white"/>
</clipPath>
</defs>
</svg>
