<svg width="100" height="100" viewBox="0 0 100 100" fill="none" xmlns="http://www.w3.org/2000/svg">
<g clip-path="url(#clip0_434_1884)">
<path d="M3.32491 21.9509C5.16026 21.9509 6.64982 20.4564 6.64982 18.6149V6.672H18.8855C20.7208 6.672 22.2104 5.17747 22.2104 3.336C22.2104 1.49453 20.7208 0 18.8855 0H3.32491C1.48956 0 0 1.49453 0 3.336V18.6149C0 20.4564 1.48956 21.9509 3.32491 21.9509Z" fill="url(#paint0_linear_434_1884)"/>
<path d="M96.6746 0H81.114C79.2786 0 77.7891 1.49453 77.7891 3.336C77.7891 5.17747 79.2786 6.672 81.114 6.672H93.3496V18.6149C93.3496 20.4564 94.8392 21.9509 96.6746 21.9509C98.5099 21.9509 99.9995 20.4564 99.9995 18.6149V3.336C99.9995 1.49453 98.5099 0 96.6746 0Z" fill="url(#paint1_linear_434_1884)"/>
<path d="M18.8855 93.3282H6.64982V81.3853C6.64982 79.5438 5.16026 78.0493 3.32491 78.0493C1.48956 78.0493 0 79.5438 0 81.3853V96.6642C0 98.5057 1.48956 100 3.32491 100H18.8855C20.7208 100 22.2104 98.5057 22.2104 96.6642C22.2104 94.8227 20.7208 93.3282 18.8855 93.3282Z" fill="url(#paint2_linear_434_1884)"/>
<path d="M96.6746 78.0488C94.8392 78.0488 93.3496 79.5434 93.3496 81.3848V93.3277H81.114C79.2786 93.3277 77.7891 94.8222 77.7891 96.6637C77.7891 98.5052 79.2786 99.9997 81.114 99.9997H96.6746C98.5099 99.9997 99.9995 98.5052 99.9995 96.6637V81.3848C99.9995 79.5434 98.5099 78.0488 96.6746 78.0488Z" fill="url(#paint3_linear_434_1884)"/>
<path d="M79.0676 53.1627H86.3159C88.1513 53.1627 89.6409 51.6681 89.6409 49.8267C89.6409 47.9852 88.1513 46.4907 86.3159 46.4907H79.0676C77.5382 32.9732 66.8054 22.2179 53.3328 20.6834V13.3975C53.3328 11.5561 51.8433 10.0615 50.0079 10.0615C48.1726 10.0615 46.683 11.5561 46.683 13.3975V20.67C33.2105 22.2046 22.4777 32.9732 20.9482 46.4907H13.6999C11.8646 46.4907 10.375 47.9852 10.375 49.8267C10.375 51.6681 11.8646 53.1627 13.6999 53.1627H20.9482C22.4777 66.6802 33.2105 77.4488 46.683 78.9833V86.2558C46.683 88.0973 48.1726 89.5918 50.0079 89.5918C51.8433 89.5918 53.3328 88.0973 53.3328 86.2558V78.97C66.8054 77.4354 77.5382 66.6802 79.0676 53.1627ZM49.9946 72.5115C37.5329 72.5115 27.3852 62.3433 27.3852 49.8267C27.3852 37.31 37.5196 27.1419 49.9946 27.1419C62.4697 27.1419 72.604 37.31 72.604 49.8267C72.604 62.3433 62.4697 72.5115 49.9946 72.5115Z" fill="url(#paint4_linear_434_1884)"/>
</g>
<defs>
<linearGradient id="paint0_linear_434_1884" x1="11.1052" y1="0.386976" x2="11.1052" y2="96.5306" gradientUnits="userSpaceOnUse">
<stop stop-color="#1853D6"/>
<stop offset="1" stop-color="#022E9E" stop-opacity="0.1"/>
</linearGradient>
<linearGradient id="paint1_linear_434_1884" x1="88.8943" y1="0.386976" x2="88.8943" y2="96.5306" gradientUnits="userSpaceOnUse">
<stop stop-color="#1853D6"/>
<stop offset="1" stop-color="#022E9E" stop-opacity="0.1"/>
</linearGradient>
<linearGradient id="paint2_linear_434_1884" x1="11.1052" y1="0.000213759" x2="11.1052" y2="0.000213759" gradientUnits="userSpaceOnUse">
<stop stop-color="#1853D6"/>
<stop offset="1" stop-color="#022E9E" stop-opacity="0.1"/>
</linearGradient>
<linearGradient id="paint3_linear_434_1884" x1="88.8943" y1="0.386698" x2="88.8943" y2="96.5303" gradientUnits="userSpaceOnUse">
<stop stop-color="#1853D6"/>
<stop offset="1" stop-color="#022E9E" stop-opacity="0.1"/>
</linearGradient>
<linearGradient id="paint4_linear_434_1884" x1="50.0079" y1="0.387117" x2="50.0079" y2="96.5307" gradientUnits="userSpaceOnUse">
<stop stop-color="#1853D6"/>
<stop offset="1" stop-color="#022E9E" stop-opacity="0.1"/>
</linearGradient>
<clipPath id="clip0_434_1884">
<rect width="100" height="100" fill="white"/>
</clipPath>
</defs>
</svg>
