<svg width="1098" height="1099" viewBox="0 0 1098 1099" fill="none" xmlns="http://www.w3.org/2000/svg">
<g opacity="0.1" clip-path="url(#clip0_2218_29)">
<path d="M116.082 433.211C115.177 436.59 115.551 440.312 117.437 443.563L424.453 976.034C428.208 982.546 436.576 984.788 443.084 981.026L975.199 673.413C981.708 669.651 983.952 661.273 980.197 654.761L673.178 122.303C669.423 115.791 661.055 113.548 654.547 117.31L122.431 424.923C119.169 426.809 116.984 429.845 116.082 433.211ZM980.297 664.777C979.479 667.829 977.491 670.581 974.548 672.283L442.432 979.896C436.545 983.299 428.979 981.272 425.57 975.377L118.551 442.919C115.157 437.015 117.183 429.454 123.074 426.038L655.189 118.425C661.077 115.022 668.642 117.049 672.052 122.943L979.068 655.414C980.766 658.36 981.112 661.737 980.294 664.789L980.297 664.777Z" fill="#294596"/>
<path d="M117.802 432.461C116.904 435.815 117.31 439.316 118.966 442.371L409.846 966.857C411.554 970.02 414.4 972.345 417.861 973.38C421.322 974.415 424.974 974.034 428.152 972.314L952.29 680.872C955.464 679.165 957.775 676.311 958.811 672.846C959.849 669.422 959.468 665.725 957.752 662.546L666.871 138.06C665.164 134.897 662.317 132.573 658.856 131.538C655.395 130.503 651.743 130.884 648.566 132.604L124.424 424.058C121.251 425.765 118.939 428.619 117.903 432.084C117.87 432.21 117.836 432.335 117.802 432.461ZM120.102 441.747C118.559 438.87 118.21 435.559 119.151 432.445C120.084 429.316 122.185 426.743 125.051 425.182L649.193 133.727C652.055 132.179 655.36 131.839 658.485 132.771C661.611 133.703 664.181 135.805 665.739 138.673L956.616 663.171C958.162 666.035 958.486 669.339 957.566 672.472C956.634 675.601 954.532 678.175 951.666 679.736L427.516 971.174C424.653 972.723 421.349 973.062 418.223 972.13C415.097 971.199 412.527 969.096 410.969 966.229L120.089 441.743L120.102 441.747Z" fill="#294596"/>
<path d="M119.526 431.698C118.675 434.876 119.018 438.212 120.499 441.167L395.237 957.692C396.831 960.879 399.594 963.262 402.991 964.387C406.387 965.513 410.022 965.248 413.213 963.626L929.368 688.327C935.944 685.014 938.618 676.94 935.306 670.331L660.577 153.821C657.274 147.228 649.206 144.568 642.601 147.887L126.437 423.17C123.252 424.767 120.87 427.535 119.747 430.922C119.668 431.17 119.584 431.431 119.517 431.682L119.526 431.698ZM121.662 440.59C120.218 437.699 119.981 434.418 120.988 431.362C121.998 428.294 124.145 425.8 127.034 424.353L643.199 149.07C649.139 146.071 656.427 148.482 659.413 154.452L934.149 670.936C937.138 676.893 934.729 684.177 928.764 687.169L412.609 962.468C409.732 963.919 406.455 964.158 403.39 963.148C400.326 962.139 397.835 959.99 396.391 957.099L121.659 440.602L121.662 440.59Z" fill="#294596"/>
<path d="M121.237 430.931C120.43 433.946 120.697 437.114 122.028 439.974L122.025 439.987L380.619 948.511C382.102 951.709 384.77 954.147 388.102 955.363C391.434 956.579 395.041 956.415 398.252 954.919L906.455 695.798C909.654 694.299 912.088 691.64 913.304 688.304C914.512 684.952 914.359 681.357 912.867 678.144L654.276 169.607C652.793 166.409 650.125 163.971 646.793 162.755C643.461 161.54 639.853 161.704 636.642 163.199L128.452 422.323C125.253 423.822 122.819 426.482 121.603 429.818C121.464 430.184 121.347 430.57 121.247 430.947L121.237 430.931ZM123.213 439.417C121.867 436.512 121.718 433.254 122.818 430.251C123.91 427.232 126.112 424.833 129.015 423.484L637.205 164.36C640.08 163.016 643.347 162.869 646.347 163.969C649.363 165.059 651.757 167.263 653.104 170.168L911.694 678.705C913.035 681.581 913.184 684.839 912.08 687.855C910.989 690.874 908.786 693.273 905.883 694.622L397.693 953.746C394.818 955.089 391.551 955.237 388.551 954.137C385.548 953.05 383.141 950.843 381.794 947.938L123.213 439.417Z" fill="#294596"/>
<path d="M122.95 430.165C122.186 433.016 122.403 436.022 123.575 438.773L123.568 438.798L366.015 939.334C368.869 945.995 376.646 949.089 383.322 946.206L883.535 703.253C890.182 700.377 893.287 692.606 890.41 685.925L647.971 185.364C646.586 182.153 644.029 179.65 640.746 178.353C637.478 177.047 633.889 177.095 630.651 178.489L130.438 421.442C127.229 422.83 124.727 425.391 123.429 428.678C123.232 429.163 123.069 429.672 122.934 430.174L122.95 430.165ZM124.762 438.257C122.181 432.234 124.972 425.228 130.991 422.64L631.204 179.687C634.093 178.442 637.32 178.391 640.271 179.572C643.222 180.753 645.538 183.003 646.786 185.922L889.232 686.458C891.808 692.452 889.013 699.471 882.995 702.059L382.791 945.028C376.801 947.609 369.79 944.815 367.209 938.793L124.778 438.247L124.762 438.257Z" fill="#294596"/>
<path d="M124.64 429.379C123.937 432.004 124.033 434.857 125.105 437.581L125.123 437.613L351.409 930.157C352.684 933.379 355.158 935.94 358.361 937.337C361.563 938.734 365.126 938.786 368.387 937.506L860.614 710.709C863.834 709.431 866.394 706.953 867.791 703.747C869.188 700.54 869.243 696.974 867.966 693.71L641.665 201.122C640.39 197.899 637.916 195.338 634.713 193.941C631.511 192.545 627.948 192.492 624.687 193.772L132.464 420.557C128.479 422.128 125.684 425.485 124.647 429.354L124.64 429.379ZM126.314 437.084C123.944 431.023 126.926 424.162 132.972 421.771L625.195 194.985C628.098 193.838 631.299 193.888 634.189 195.147C637.079 196.406 639.311 198.714 640.462 201.647L866.778 694.227C867.923 697.131 867.859 700.332 866.612 703.229C865.353 706.122 863.046 708.358 860.114 709.511L367.875 936.306C364.973 937.453 361.772 937.403 358.882 936.144C355.992 934.885 353.76 932.577 352.609 929.644L126.314 437.084Z" fill="#294596"/>
<path d="M126.31 428.615C125.627 431.165 125.729 433.844 126.637 436.376L126.652 436.421L336.803 920.98C337.967 924.213 340.342 926.842 343.496 928.32C346.647 929.81 350.18 929.976 353.455 928.794L837.701 718.18C844.428 715.755 847.941 708.269 845.516 701.507L635.363 216.907C632.954 210.19 625.484 206.654 618.712 209.093L134.462 419.72C131.231 420.887 128.604 423.266 127.126 426.424C126.786 427.141 126.518 427.89 126.319 428.631L126.31 428.615ZM127.861 435.923C126.809 432.976 126.961 429.799 128.298 426.967C129.635 424.135 132.001 421.982 134.946 420.927L619.195 210.3C625.238 208.123 631.971 211.3 634.158 217.392L844.311 701.992C846.482 708.04 843.304 714.781 837.217 716.973L352.971 927.587C350.054 928.636 346.881 928.486 344.039 927.146C341.198 925.806 339.061 923.442 338.009 920.495L127.865 435.911L127.861 435.923Z" fill="#294596"/>
<path d="M128 427.829C127.374 430.166 127.39 432.714 128.195 435.178L128.21 435.223L322.185 911.799C324.366 918.563 331.701 922.305 338.494 920.087L814.779 725.635C818.033 724.581 820.707 722.282 822.284 719.205C823.865 716.115 824.133 712.606 823.068 709.305L629.066 232.681C626.884 225.917 619.55 222.175 612.756 224.393L136.484 418.848C132.185 420.241 129.1 423.722 128 427.829ZM129.413 434.751C127.447 428.637 130.799 422.05 136.927 420.057L613.199 225.602C619.266 223.633 625.87 226.991 627.845 233.121L821.847 709.745C822.799 712.666 822.544 715.828 821.125 718.612C819.707 721.395 817.299 723.456 814.327 724.41L338.052 918.878C331.984 920.846 325.38 917.488 323.405 911.359L129.413 434.751Z" fill="#294596"/>
<path d="M129.649 427.046C129.046 429.294 129.065 431.682 129.729 433.974L129.744 434.018L307.58 902.622C308.52 905.889 310.716 908.632 313.741 910.29C316.766 911.949 320.251 912.344 323.563 911.374L791.858 733.09C795.123 732.147 797.864 729.947 799.523 726.918C801.181 723.889 801.578 720.401 800.611 717.086L622.747 248.435C620.79 241.637 613.604 237.692 606.767 239.67L138.469 417.966C135.204 418.909 132.463 421.109 130.805 424.138C130.288 425.063 129.902 426.05 129.636 427.043L129.649 427.046ZM130.961 433.59C130.105 430.614 130.457 427.492 131.953 424.769C133.449 422.047 135.916 420.069 138.889 419.21L607.187 240.913C610.116 240.069 613.252 240.411 615.971 241.907C618.69 243.403 620.664 245.87 621.521 248.846L799.393 717.514C800.235 720.445 799.892 723.584 798.396 726.306C796.9 729.029 794.433 731.007 791.46 731.866L323.149 910.159C320.22 911.003 317.084 910.661 314.366 909.165C311.647 907.669 309.672 905.202 308.815 902.226L130.971 433.606L130.961 433.59Z" fill="#294596"/>
<path d="M131.3 426.25C130.744 428.323 130.7 430.546 131.261 432.769L131.272 432.826L292.973 893.444C293.815 896.726 295.9 899.533 298.861 901.282C301.821 903.031 305.291 903.53 308.614 902.67L768.932 740.557C775.762 738.807 779.918 731.776 778.161 724.883L616.449 264.208C615.619 260.93 613.522 258.119 610.561 256.37C607.601 254.621 604.131 254.122 600.808 254.982L140.487 417.107C135.866 418.292 132.448 421.913 131.284 426.259L131.3 426.25ZM132.511 432.418C130.953 426.238 134.688 419.929 140.869 418.341L601.19 256.215C604.133 255.469 607.242 255.912 609.912 257.489C612.57 259.062 614.461 261.589 615.22 264.579L776.932 725.254C778.488 731.392 774.75 737.714 768.569 739.302L308.245 901.44C305.302 902.187 302.193 901.744 299.522 900.167C296.865 898.593 294.973 896.067 294.202 893.074L132.496 432.427L132.511 432.418Z" fill="#294596"/>
<path d="M132.936 425.463C132.418 427.398 132.344 429.478 132.807 431.568L132.818 431.625L278.368 884.267C279.889 891.136 286.771 895.512 293.68 893.97L746.023 748.016C749.313 747.282 752.176 745.276 754.016 742.376C755.868 739.48 756.468 736.033 755.725 732.684L610.164 279.984C609.433 276.692 607.43 273.827 604.538 271.975C601.642 270.135 598.202 269.523 594.856 270.269L142.512 416.223C137.724 417.282 134.141 420.967 132.939 425.451L132.936 425.463ZM134.06 431.257C133.399 428.253 133.943 425.168 135.607 422.571C137.262 419.959 139.842 418.159 142.847 417.484L595.19 271.53C598.151 270.869 601.245 271.415 603.838 273.08C606.448 274.734 608.244 277.316 608.917 280.323L754.465 733.019C755.111 735.979 754.576 739.08 752.912 741.677C751.257 744.289 748.678 746.089 745.673 746.764L293.342 892.722C287.18 894.086 280.999 890.155 279.615 883.928L134.06 431.257Z" fill="#294596"/>
<path d="M134.561 424.673C134.076 426.482 133.974 428.42 134.35 430.379L134.362 430.436L263.751 875.086C264.368 878.402 266.275 881.323 269.119 883.256C271.95 885.186 275.363 885.898 278.733 885.267L723.099 755.484C729.997 754.182 734.586 747.442 733.278 740.481L603.865 295.77C603.247 292.454 601.34 289.534 598.496 287.601C595.665 285.671 592.252 284.958 588.882 285.59L144.529 415.376C139.572 416.31 135.796 420.064 134.561 424.673ZM135.609 430.097C134.446 423.848 138.579 417.807 144.813 416.624L589.167 286.837C595.356 285.669 601.405 289.794 602.59 296.061L732.015 740.776C733.18 746.97 729.055 753.027 722.793 754.217L278.439 884.003C275.465 884.566 272.397 883.919 269.849 882.186C267.301 880.453 265.585 877.826 265.013 874.792L135.605 430.109L135.609 430.097Z" fill="#294596"/>
<path d="M136.162 423.864C135.704 425.572 135.601 427.362 135.882 429.174L135.894 429.231L249.147 865.896C250.22 872.834 256.799 877.64 263.8 876.554L700.164 762.935C703.487 762.426 706.465 760.598 708.497 757.831C710.517 755.061 711.347 751.662 710.816 748.275L597.554 311.54C596.481 304.602 589.902 299.797 582.901 300.883L146.525 414.498C143.201 415.007 140.224 416.835 138.191 419.602C137.236 420.908 136.556 422.341 136.149 423.861L136.162 423.864ZM137.156 428.937C136.691 425.904 137.439 422.86 139.249 420.37C141.072 417.883 143.744 416.243 146.79 415.767L583.166 302.152C589.396 301.183 595.297 305.51 596.276 311.79L709.551 748.528C710.014 751.52 709.278 754.567 707.455 757.054C705.632 759.541 702.96 761.181 699.915 761.657L263.535 875.285C257.305 876.254 251.404 871.927 250.425 865.646L137.168 428.94L137.156 428.937Z" fill="#294596"/>
<path d="M137.765 423.055C137.341 424.638 137.222 426.288 137.432 427.96L137.441 428.03L234.543 856.719C234.953 860.06 236.678 863.107 239.38 865.217C242.082 867.328 245.45 868.258 248.857 867.838L677.244 770.39C680.581 769.979 683.626 768.25 685.737 765.544C687.847 762.839 688.777 759.466 688.36 756.056L591.249 327.297C590.4 320.326 583.973 315.305 576.938 316.166L148.539 413.61C145.201 414.022 142.156 415.75 140.046 418.456C138.964 419.835 138.197 421.394 137.756 423.039L137.765 423.055ZM138.705 427.776C138.342 424.717 139.175 421.709 141.075 419.284C142.979 416.846 145.706 415.301 148.765 414.923L577.152 317.476C583.41 316.702 589.194 321.214 589.971 327.548L687.089 756.281C687.454 759.287 686.617 762.307 684.714 764.745C682.81 767.183 680.083 768.728 677.023 769.106L248.633 866.566C245.63 866.933 242.613 866.097 240.179 864.193C237.744 862.289 236.203 859.56 235.826 856.498L138.718 427.78L138.705 427.776Z" fill="#294596"/>
<path d="M139.346 422.267C138.963 423.699 138.827 425.211 138.961 426.768L138.969 426.838L219.927 847.526C220.564 854.535 226.839 859.771 233.908 859.134L654.317 777.858C657.678 777.56 660.778 775.928 662.982 773.274C665.183 770.632 666.226 767.29 665.91 763.854L584.947 343.083C584.651 339.719 583.022 336.617 580.371 334.413C577.734 332.212 574.383 331.166 570.966 331.475L150.556 412.751C145.084 413.25 140.693 417.19 139.337 422.252L139.346 422.267ZM140.252 426.616C139.696 420.261 144.392 414.627 150.745 414.054L571.154 332.778C574.171 332.509 577.177 333.436 579.551 335.418C581.924 337.4 583.383 340.187 583.674 343.267L664.637 764.038C664.903 767.057 663.976 770.067 661.994 772.444C660.013 774.82 657.228 776.282 654.154 776.562L233.728 857.847C227.429 858.421 221.791 853.72 221.213 847.345L140.255 426.604L140.252 426.616Z" fill="#294596"/>
<path d="M140.92 421.464C140.57 422.77 140.417 424.143 140.506 425.567L140.515 425.636L205.322 838.349C205.519 841.727 207.05 844.897 209.623 847.188C212.196 849.48 215.52 850.626 218.961 850.431L631.396 785.313C638.446 784.9 643.882 778.764 643.474 771.654L578.659 358.872C578.461 355.494 576.93 352.324 574.357 350.033C571.784 347.741 568.461 346.595 565.02 346.79L152.6 411.899C146.957 412.231 142.349 416.233 140.949 421.458L140.92 421.464ZM141.8 425.456C141.452 419.076 146.33 413.571 152.711 413.194L565.13 348.085C568.164 347.902 571.153 348.945 573.465 351.005C575.777 353.065 577.165 355.914 577.346 359.005L642.174 771.79C642.544 778.136 637.638 783.647 631.257 784.024L218.825 849.129C215.791 849.312 212.803 848.269 210.491 846.209C208.178 844.149 206.79 841.3 206.61 838.209L141.8 425.456Z" fill="#294596"/>
<path d="M142.491 420.619C142.168 421.825 142.021 423.078 142.056 424.353L142.067 424.41L190.723 829.146C190.82 832.551 192.255 835.776 194.763 838.158C197.272 840.54 200.565 841.799 204.033 841.705L608.475 792.768C615.562 792.567 621.213 786.583 621.029 779.439L572.365 374.633C572.181 367.543 566.209 361.877 559.056 362.074L154.614 411.011C151.212 411.109 147.989 412.548 145.608 415.06C144.106 416.65 143.047 418.547 142.495 420.607L142.491 420.619ZM143.349 424.295C143.266 421.191 144.407 418.238 146.544 415.984C148.684 413.717 151.587 412.421 154.701 412.34L559.143 363.403C562.204 363.322 565.156 364.449 567.417 366.603C569.68 368.744 570.973 371.648 571.052 374.766L619.716 779.572C619.891 785.946 614.792 791.324 608.371 791.502L203.928 840.439C200.88 840.524 197.915 839.393 195.652 837.252C193.388 835.11 192.095 832.206 192.016 829.089L143.358 424.311L143.349 424.295Z" fill="#294596"/>
<path d="M144.04 419.809C143.751 420.889 143.6 422.007 143.599 423.164L143.585 423.214L176.115 819.981C176.088 827.109 181.895 832.987 189.082 833.014L585.535 800.245C592.668 800.272 598.521 794.436 598.562 787.258L566.046 390.441C566.063 387.012 564.724 383.732 562.267 381.257C559.823 378.784 556.544 377.421 553.066 377.404L156.614 410.174C153.189 410.158 149.911 411.501 147.436 413.961C145.785 415.605 144.613 417.62 144.024 419.818L144.04 419.809ZM144.897 423.135C144.913 420.016 146.145 417.075 148.363 414.869C150.581 412.663 153.542 411.451 156.674 411.455L553.126 378.686C556.201 378.702 559.139 379.934 561.354 382.156C563.556 384.375 564.766 387.338 564.76 390.473L597.276 787.29C597.258 790.368 596.026 793.31 593.805 795.528C591.587 797.734 588.626 798.946 585.494 798.942L189.042 831.711C182.633 831.69 177.395 826.396 177.42 819.927L144.91 423.139L144.897 423.135Z" fill="#294596"/>
<path d="M145.584 419.012C145.332 419.954 145.176 420.935 145.146 421.95L145.133 422.001L161.515 810.779C161.26 817.953 166.932 824.037 174.153 824.289L562.615 807.688C569.782 807.939 575.867 802.246 576.119 795.03L559.751 406.201C559.869 402.747 558.625 399.411 556.246 396.848C553.866 394.286 550.618 392.809 547.125 392.695L158.663 409.296C152.506 409.087 147.141 413.25 145.6 419.002L145.584 419.012ZM146.444 421.975C146.678 415.481 152.16 410.381 158.65 410.599L547.112 393.997C550.218 394.102 553.128 395.434 555.279 397.747C557.429 400.06 558.547 403.065 558.443 406.214L574.811 795.043C574.584 801.512 569.103 806.612 562.6 806.391L174.137 822.992C167.688 822.772 162.582 817.285 162.807 810.775L146.444 421.975Z" fill="#294596"/>
<path d="M147.108 418.195C146.886 419.024 146.739 419.873 146.689 420.761L146.679 420.799L146.91 801.602C146.427 808.823 151.951 815.109 159.205 815.585L539.678 815.152C543.153 815.383 546.541 814.231 549.196 811.9C551.851 809.569 553.437 806.359 553.655 802.837L553.434 421.996C553.904 414.772 548.394 408.489 541.139 408.013L160.666 408.446C154.336 408.029 148.703 412.241 147.108 418.195ZM147.98 420.811C148.426 414.28 154.088 409.309 160.619 409.726L541.092 409.292C547.594 409.716 552.555 415.393 552.134 421.931L552.355 802.771C552.15 805.893 550.714 808.793 548.334 810.902C545.944 812.994 542.879 814.044 539.723 813.831L159.25 814.265C152.747 813.841 147.774 808.161 148.207 801.626L147.993 420.815L147.98 420.811Z" fill="#294596"/>
<path d="M148.626 417.349C148.434 418.065 148.305 418.798 148.223 419.557L148.213 419.594L132.296 792.408C131.962 795.913 133.015 799.359 135.278 802.106C137.531 804.837 140.719 806.539 144.262 806.869L516.745 822.604C523.996 823.295 530.503 817.93 531.195 810.631L547.122 437.779C547.816 430.52 542.46 424.01 535.168 423.321L162.685 407.587C159.184 407.255 155.741 408.311 152.995 410.577C150.838 412.355 149.333 414.712 148.622 417.362L148.626 417.349ZM149.525 419.663C149.838 416.489 151.362 413.613 153.82 411.566C156.29 409.522 159.41 408.567 162.597 408.869L535.08 424.604C541.624 425.226 546.464 431.1 545.832 437.675L529.905 810.527C529.267 817.074 523.408 821.926 516.839 821.296L144.357 805.562C141.211 805.257 138.325 803.73 136.285 801.259C134.244 798.787 133.289 795.677 133.596 792.474L149.529 419.651L149.525 419.663Z" fill="#294596"/>
<path d="M150.135 416.529C149.977 417.119 149.853 417.732 149.779 418.359L149.773 418.384L117.695 783.206C117.248 786.734 118.215 790.251 120.404 793.073C122.593 795.894 125.766 797.7 129.304 798.15L493.781 830.061C501.078 830.98 507.794 825.739 508.72 818.421L540.804 453.574C541.726 446.268 536.506 439.552 529.183 438.627L164.703 406.728C161.178 406.281 157.664 407.251 154.844 409.444C152.516 411.257 150.886 413.728 150.135 416.529ZM151.072 418.503C151.477 415.286 153.098 412.449 155.646 410.467C158.194 408.484 161.373 407.612 164.574 408.012L529.054 439.911C535.651 440.737 540.346 446.801 539.515 453.417L507.431 818.264C506.606 824.855 500.542 829.571 493.932 828.742L129.455 796.831C126.28 796.438 123.421 794.81 121.442 792.26C119.462 789.711 118.593 786.529 118.995 783.325L151.075 418.491L151.072 418.503Z" fill="#294596"/>
<path d="M151.63 415.718C151.506 416.183 151.403 416.667 151.325 417.157L103.097 774.004C101.96 781.359 107.015 788.287 114.375 789.424L470.862 837.504C478.21 838.638 485.134 833.574 486.275 826.206L534.507 469.347C535.056 465.792 534.197 462.223 532.06 459.308C529.923 456.393 526.792 454.477 523.228 453.926L166.741 405.847C159.883 404.79 153.394 409.136 151.633 415.705L151.63 415.718ZM152.608 417.34C153.663 410.689 159.892 406.112 166.542 407.14L523.029 455.219C529.667 456.244 534.242 462.505 533.212 469.162L484.98 826.02C483.952 832.665 477.695 837.248 471.045 836.22L114.558 788.141C107.921 787.116 103.345 780.855 104.376 774.198L152.608 417.34Z" fill="#294596"/>
<path d="M153.103 414.888C153.009 415.239 152.927 415.594 152.858 415.953L88.4947 764.814C87.8284 768.405 88.6046 772.032 90.6644 775.034C92.7243 778.036 95.8407 780.056 99.4278 780.721L447.913 844.965C455.307 846.327 462.433 841.411 463.798 834.009L528.162 485.148C528.825 481.569 528.052 477.93 525.992 474.927C523.932 471.925 520.816 469.906 517.229 469.241L168.744 404.997C161.708 403.704 154.915 408.076 153.091 414.884L153.103 414.888ZM154.14 416.188C155.391 409.51 161.833 405.043 168.52 406.283L517.005 470.527C520.247 471.126 523.067 472.946 524.933 475.667C526.799 478.388 527.506 481.674 526.905 484.919L462.542 833.78C461.305 840.503 454.861 844.928 448.161 843.685L99.6765 779.441C96.4349 778.842 93.6144 777.023 91.7483 774.301C89.8821 771.58 89.1883 768.298 89.7763 765.049L154.14 416.188Z" fill="#294596"/>
</g>
<defs>
<clipPath id="clip0_2218_29">
<rect width="897" height="896" fill="white" transform="matrix(0.258819 -0.965926 -0.965926 -0.258819 865.469 1098.34)"/>
</clipPath>
</defs>
</svg>
