<svg width="1098" height="1099" viewBox="0 0 1098 1099" fill="none" xmlns="http://www.w3.org/2000/svg">
<g opacity="0.1" clip-path="url(#clip0_434_1803)">
<path d="M116.08 433.211C115.175 436.59 115.55 440.312 117.435 443.563L424.451 976.034C428.206 982.546 436.574 984.788 443.082 981.026L975.198 673.413C981.706 669.651 983.95 661.273 980.195 654.761L673.176 122.303C669.421 115.791 661.053 113.548 654.545 117.31L122.429 424.923C119.167 426.809 116.982 429.845 116.08 433.211ZM980.295 664.777C979.477 667.829 977.489 670.581 974.546 672.283L442.43 979.896C436.543 983.299 428.977 981.272 425.568 975.377L118.549 442.919C115.155 437.015 117.181 429.454 123.072 426.038L655.187 118.425C661.075 115.022 668.641 117.049 672.05 122.943L979.066 655.414C980.764 658.36 981.11 661.737 980.292 664.789L980.295 664.777Z" fill="#294596"/>
<path d="M117.802 432.461C116.904 435.815 117.31 439.316 118.966 442.371L409.846 966.857C411.554 970.02 414.4 972.345 417.861 973.38C421.322 974.415 424.975 974.034 428.152 972.314L952.29 680.872C955.464 679.165 957.775 676.311 958.811 672.846C959.849 669.422 959.468 665.726 957.752 662.546L666.871 138.061C665.164 134.897 662.317 132.573 658.856 131.538C655.395 130.503 651.743 130.884 648.566 132.604L124.424 424.058C121.251 425.765 118.939 428.619 117.903 432.084C117.87 432.21 117.836 432.335 117.802 432.461ZM120.102 441.747C118.559 438.87 118.21 435.559 119.151 432.446C120.084 429.316 122.185 426.743 125.051 425.182L649.193 133.728C652.055 132.179 655.36 131.839 658.485 132.771C661.611 133.703 664.181 135.805 665.739 138.673L956.616 663.171C958.162 666.035 958.486 669.34 957.566 672.472C956.634 675.601 954.532 678.175 951.666 679.736L427.516 971.174C424.653 972.723 421.349 973.062 418.223 972.131C415.097 971.199 412.527 969.097 410.969 966.229L120.089 441.743L120.102 441.747Z" fill="#294596"/>
<path d="M119.528 431.698C118.677 434.876 119.02 438.212 120.501 441.167L395.239 957.692C396.833 960.879 399.596 963.262 402.993 964.387C406.389 965.513 410.024 965.248 413.215 963.626L929.37 688.327C935.946 685.014 938.62 676.94 935.308 670.331L660.579 153.821C657.276 147.228 649.208 144.568 642.603 147.887L126.439 423.17C123.254 424.767 120.872 427.535 119.749 430.923C119.67 431.17 119.586 431.431 119.519 431.682L119.528 431.698ZM121.664 440.59C120.22 437.699 119.983 434.418 120.99 431.363C122 428.295 124.147 425.801 127.036 424.353L643.201 149.07C649.141 146.072 656.429 148.482 659.415 154.452L934.151 670.936C937.14 676.893 934.731 684.177 928.766 687.169L412.611 962.468C409.734 963.919 406.456 964.158 403.392 963.148C400.328 962.139 397.837 959.99 396.393 957.1L121.66 440.602L121.664 440.59Z" fill="#294596"/>
<path d="M121.237 430.931C120.43 433.946 120.697 437.114 122.028 439.975L122.025 439.987L380.619 948.512C382.102 951.709 384.77 954.147 388.102 955.363C391.434 956.579 395.041 956.415 398.252 954.919L906.455 695.798C909.654 694.3 912.088 691.64 913.304 688.304C914.512 684.953 914.359 681.358 912.867 678.144L654.276 169.607C652.793 166.409 650.125 163.971 646.793 162.756C643.461 161.54 639.853 161.704 636.642 163.199L128.452 422.324C125.253 423.822 122.82 426.482 121.603 429.818C121.464 430.185 121.348 430.571 121.247 430.947L121.237 430.931ZM123.213 439.417C121.867 436.512 121.718 433.254 122.818 430.251C123.91 427.232 126.112 424.833 129.015 423.484L637.205 164.36C640.08 163.017 643.347 162.869 646.347 163.969C649.363 165.06 651.757 167.263 653.104 170.168L911.694 678.705C913.035 681.582 913.184 684.839 912.08 687.855C910.989 690.874 908.786 693.273 905.883 694.622L397.693 953.746C394.818 955.09 391.551 955.237 388.551 954.137C385.548 953.05 383.141 950.843 381.794 947.938L123.213 439.417Z" fill="#294596"/>
<path d="M122.95 430.165C122.186 433.016 122.403 436.022 123.575 438.773L123.568 438.798L366.015 939.334C368.869 945.996 376.646 949.089 383.322 946.206L883.535 703.253C890.182 700.377 893.287 692.606 890.41 685.925L647.971 185.364C646.586 182.153 644.029 179.65 640.746 178.353C637.478 177.047 633.889 177.095 630.651 178.489L130.438 421.442C127.229 422.83 124.727 425.391 123.429 428.678C123.232 429.163 123.069 429.672 122.934 430.174L122.95 430.165ZM124.762 438.257C122.181 432.234 124.972 425.228 130.991 422.64L631.204 179.687C634.093 178.442 637.32 178.391 640.271 179.572C643.222 180.753 645.538 183.003 646.786 185.922L889.232 686.458C891.808 692.452 889.013 699.471 882.995 702.059L382.791 945.028C376.801 947.609 369.79 944.815 367.209 938.793L124.778 438.247L124.762 438.257Z" fill="#294596"/>
<path d="M124.64 429.379C123.937 432.004 124.033 434.857 125.105 437.581L125.124 437.613L351.409 930.157C352.684 933.379 355.158 935.94 358.361 937.337C361.563 938.734 365.126 938.786 368.387 937.506L860.614 710.708C863.834 709.431 866.394 706.953 867.791 703.746C869.188 700.54 869.243 696.973 867.966 693.71L641.665 201.122C640.39 197.899 637.916 195.338 634.713 193.941C631.511 192.545 627.948 192.492 624.687 193.772L132.464 420.557C128.479 422.128 125.684 425.485 124.647 429.354L124.64 429.379ZM126.314 437.084C123.944 431.023 126.926 424.162 132.972 421.771L625.195 194.985C628.098 193.838 631.299 193.888 634.189 195.147C637.079 196.406 639.311 198.714 640.462 201.647L866.778 694.226C867.923 697.131 867.859 700.332 866.612 703.229C865.353 706.122 863.046 708.358 860.114 709.511L367.875 936.305C364.973 937.453 361.772 937.403 358.882 936.144C355.992 934.885 353.76 932.577 352.609 929.644L126.314 437.084Z" fill="#294596"/>
<path d="M126.308 428.615C125.625 431.165 125.727 433.844 126.635 436.376L126.65 436.421L336.801 920.98C337.965 924.213 340.34 926.842 343.494 928.32C346.645 929.81 350.178 929.976 353.453 928.794L837.699 718.18C844.427 715.755 847.939 708.269 845.514 701.507L635.361 216.907C632.952 210.19 625.482 206.654 618.71 209.093L134.46 419.72C131.229 420.887 128.602 423.266 127.124 426.424C126.784 427.141 126.516 427.89 126.317 428.631L126.308 428.615ZM127.859 435.924C126.807 432.976 126.959 429.799 128.296 426.967C129.633 424.135 131.999 421.982 134.944 420.927L619.193 210.3C625.236 208.123 631.969 211.3 634.156 217.392L844.309 701.992C846.48 708.04 843.303 714.781 837.215 716.973L352.969 927.587C350.052 928.636 346.879 928.486 344.037 927.146C341.196 925.806 339.059 923.443 338.007 920.495L127.863 435.911L127.859 435.924Z" fill="#294596"/>
<path d="M128 427.829C127.374 430.165 127.39 432.714 128.195 435.178L128.21 435.223L322.185 911.799C324.366 918.563 331.701 922.305 338.494 920.087L814.779 725.635C818.033 724.581 820.707 722.282 822.284 719.205C823.865 716.115 824.133 712.605 823.068 709.304L629.066 232.681C626.884 225.917 619.55 222.175 612.756 224.393L136.484 418.848C132.185 420.24 129.1 423.722 128 427.829ZM129.413 434.75C127.447 428.637 130.799 422.05 136.927 420.057L613.199 225.602C619.266 223.633 625.87 226.991 627.845 233.121L821.847 709.745C822.799 712.665 822.544 715.828 821.125 718.611C819.707 721.395 817.299 723.456 814.327 724.41L338.052 918.877C331.984 920.846 325.38 917.488 323.405 911.359L129.413 434.75Z" fill="#294596"/>
<path d="M129.647 427.046C129.044 429.294 129.064 431.682 129.727 433.974L129.742 434.018L307.578 902.621C308.518 905.889 310.714 908.631 313.739 910.29C316.764 911.949 320.249 912.344 323.561 911.374L791.856 733.09C795.121 732.147 797.862 729.947 799.521 726.918C801.179 723.889 801.576 720.401 800.609 717.086L622.745 248.434C620.788 241.637 613.602 237.692 606.765 239.67L138.467 417.966C135.202 418.909 132.461 421.109 130.803 424.138C130.286 425.063 129.9 426.05 129.634 427.043L129.647 427.046ZM130.959 433.59C130.103 430.614 130.455 427.491 131.951 424.769C133.447 422.047 135.914 420.069 138.887 419.21L607.185 240.913C610.114 240.069 613.25 240.411 615.969 241.907C618.688 243.403 620.662 245.87 621.519 248.846L799.391 717.514C800.233 720.445 799.89 723.584 798.394 726.306C796.898 729.029 794.431 731.006 791.458 731.866L323.147 910.159C320.218 911.003 317.083 910.661 314.364 909.165C311.645 907.669 309.67 905.201 308.814 902.226L130.969 433.606L130.959 433.59Z" fill="#294596"/>
<path d="M131.302 426.25C130.746 428.323 130.702 430.546 131.263 432.769L131.274 432.826L292.975 893.444C293.817 896.726 295.902 899.533 298.863 901.282C301.823 903.031 305.293 903.53 308.616 902.67L768.934 740.558C775.764 738.807 779.92 731.776 778.163 724.883L616.451 264.208C615.621 260.93 613.524 258.119 610.563 256.37C607.603 254.621 604.133 254.122 600.809 254.982L140.489 417.107C135.868 418.293 132.45 421.914 131.286 426.26L131.302 426.25ZM132.513 432.418C130.955 426.238 134.69 419.929 140.871 418.341L601.192 256.215C604.135 255.469 607.244 255.912 609.914 257.489C612.572 259.063 614.463 261.589 615.222 264.579L776.934 725.254C778.49 731.392 774.752 737.714 768.571 739.303L308.247 901.441C305.304 902.187 302.195 901.744 299.524 900.167C296.867 898.593 294.975 896.067 294.204 893.074L132.498 432.427L132.513 432.418Z" fill="#294596"/>
<path d="M132.938 425.464C132.42 427.398 132.346 429.478 132.809 431.568L132.82 431.625L278.37 884.267C279.891 891.136 286.773 895.512 293.681 893.97L746.025 748.016C749.315 747.282 752.178 745.276 754.018 742.376C755.87 739.48 756.47 736.033 755.727 732.684L610.166 279.984C609.435 276.692 607.432 273.827 604.54 271.975C601.644 270.135 598.204 269.523 594.858 270.269L142.514 416.223C137.726 417.282 134.143 420.967 132.941 425.451L132.938 425.464ZM134.062 431.257C133.401 428.253 133.945 425.168 135.609 422.571C137.264 419.959 139.844 418.159 142.849 417.484L595.192 271.53C598.153 270.869 601.247 271.415 603.84 273.08C606.45 274.734 608.246 277.316 608.919 280.323L754.467 733.019C755.113 735.979 754.578 739.08 752.914 741.677C751.259 744.289 748.68 746.089 745.675 746.764L293.344 892.722C287.182 894.086 281.001 890.155 279.617 883.928L134.062 431.257Z" fill="#294596"/>
<path d="M134.561 424.673C134.076 426.482 133.974 428.42 134.35 430.379L134.362 430.436L263.751 875.086C264.368 878.402 266.275 881.323 269.119 883.256C271.95 885.186 275.363 885.898 278.733 885.267L723.099 755.484C729.997 754.182 734.586 747.442 733.278 740.481L603.865 295.77C603.247 292.455 601.34 289.534 598.496 287.601C595.665 285.671 592.252 284.958 588.882 285.59L144.529 415.376C139.572 416.31 135.796 420.064 134.561 424.673ZM135.609 430.097C134.446 423.848 138.579 417.807 144.813 416.624L589.167 286.837C595.356 285.669 601.405 289.794 602.59 296.061L732.016 740.776C733.18 746.97 729.055 753.027 722.793 754.217L278.439 884.003C275.465 884.566 272.397 883.919 269.849 882.186C267.301 880.453 265.585 877.826 265.013 874.792L135.605 430.109L135.609 430.097Z" fill="#294596"/>
<path d="M136.16 423.864C135.702 425.572 135.599 427.362 135.88 429.174L135.892 429.231L249.145 865.896C250.218 872.834 256.797 877.64 263.798 876.554L700.162 762.935C703.486 762.426 706.463 760.598 708.495 757.831C710.515 755.061 711.345 751.662 710.814 748.275L597.552 311.54C596.479 304.602 589.9 299.797 582.899 300.883L146.523 414.498C143.199 415.007 140.222 416.835 138.189 419.602C137.234 420.908 136.554 422.341 136.147 423.861L136.16 423.864ZM137.154 428.937C136.689 425.904 137.437 422.86 139.248 420.37C141.07 417.883 143.742 416.243 146.788 415.767L583.164 302.152C589.394 301.183 595.295 305.51 596.274 311.79L709.549 748.528C710.012 751.52 709.276 754.567 707.453 757.054C705.63 759.541 702.959 761.181 699.913 761.657L263.533 875.285C257.303 876.254 251.402 871.927 250.423 865.646L137.166 428.94L137.154 428.937Z" fill="#294596"/>
<path d="M137.765 423.055C137.341 424.638 137.222 426.288 137.432 427.96L137.441 428.03L234.543 856.719C234.953 860.06 236.678 863.107 239.38 865.218C242.082 867.328 245.45 868.258 248.857 867.838L677.244 770.391C680.581 769.979 683.626 768.251 685.737 765.545C687.847 762.839 688.777 759.467 688.36 756.056L591.249 327.298C590.4 320.326 583.973 315.305 576.938 316.166L148.539 413.61C145.201 414.022 142.156 415.75 140.046 418.456C138.964 419.836 138.197 421.394 137.756 423.039L137.765 423.055ZM138.705 427.776C138.342 424.717 139.175 421.709 141.075 419.284C142.979 416.846 145.706 415.301 148.765 414.923L577.152 317.476C583.41 316.703 589.194 321.214 589.971 327.548L687.089 756.281C687.454 759.287 686.617 762.307 684.714 764.745C682.81 767.184 680.083 768.728 677.023 769.106L248.633 866.566C245.63 866.933 242.613 866.097 240.179 864.193C237.744 862.289 236.203 859.56 235.826 856.498L138.718 427.78L138.705 427.776Z" fill="#294596"/>
<path d="M139.346 422.268C138.963 423.699 138.827 425.211 138.961 426.768L138.969 426.838L219.927 847.526C220.564 854.535 226.839 859.771 233.908 859.134L654.317 777.858C657.678 777.561 660.778 775.928 662.982 773.274C665.183 770.632 666.226 767.291 665.91 763.854L584.947 343.083C584.651 339.719 583.022 336.617 580.371 334.413C577.734 332.212 574.383 331.166 570.966 331.475L150.556 412.751C145.084 413.251 140.693 417.19 139.337 422.252L139.346 422.268ZM140.252 426.616C139.696 420.261 144.392 414.627 150.745 414.054L571.154 332.778C574.171 332.509 577.177 333.436 579.551 335.418C581.924 337.4 583.383 340.187 583.674 343.267L664.637 764.038C664.903 767.057 663.976 770.067 661.994 772.444C660.013 774.821 657.228 776.282 654.154 776.562L233.729 857.848C227.429 858.421 221.791 853.72 221.213 847.346L140.255 426.604L140.252 426.616Z" fill="#294596"/>
<path d="M140.92 421.464C140.57 422.77 140.418 424.143 140.507 425.567L140.515 425.636L205.322 838.349C205.52 841.727 207.05 844.897 209.623 847.188C212.196 849.48 215.52 850.626 218.961 850.431L631.396 785.313C638.446 784.9 643.882 778.764 643.474 771.654L578.659 358.872C578.462 355.494 576.931 352.324 574.358 350.033C571.785 347.742 568.461 346.595 565.02 346.791L152.6 411.899C146.958 412.231 142.349 416.233 140.949 421.458L140.92 421.464ZM141.801 425.456C141.453 419.076 146.33 413.571 152.711 413.194L565.13 348.086C568.165 347.902 571.153 348.945 573.465 351.005C575.777 353.065 577.166 355.914 577.346 359.005L642.174 771.79C642.544 778.136 637.639 783.647 631.258 784.024L218.826 849.129C215.791 849.312 212.803 848.269 210.491 846.209C208.179 844.149 206.79 841.3 206.61 838.209L141.801 425.456Z" fill="#294596"/>
<path d="M142.489 420.62C142.166 421.825 142.019 423.078 142.054 424.353L142.066 424.41L190.721 829.146C190.818 832.551 192.253 835.776 194.761 838.158C197.27 840.54 200.563 841.799 204.031 841.705L608.473 792.768C615.56 792.567 621.211 786.583 621.027 779.439L572.363 374.633C572.179 367.543 566.207 361.877 559.054 362.074L154.612 411.011C151.21 411.109 147.987 412.548 145.606 415.06C144.104 416.65 143.045 418.547 142.493 420.607L142.489 420.62ZM143.347 424.296C143.264 421.191 144.405 418.238 146.542 415.984C148.682 413.717 151.585 412.421 154.699 412.34L559.141 363.403C562.202 363.322 565.154 364.449 567.415 366.603C569.678 368.744 570.971 371.648 571.05 374.766L619.714 779.572C619.889 785.946 614.79 791.324 608.369 791.502L203.926 840.439C200.878 840.524 197.913 839.393 195.65 837.252C193.386 835.111 192.093 832.206 192.014 829.089L143.356 424.312L143.347 424.296Z" fill="#294596"/>
<path d="M144.042 419.809C143.753 420.889 143.602 422.007 143.601 423.164L143.587 423.214L176.117 819.981C176.09 827.109 181.897 832.987 189.084 833.014L585.537 800.245C592.67 800.272 598.523 794.436 598.564 787.258L566.048 390.441C566.065 387.012 564.726 383.732 562.269 381.257C559.825 378.784 556.546 377.421 553.068 377.404L156.616 410.174C153.191 410.158 149.913 411.501 147.438 413.961C145.787 415.605 144.615 417.62 144.026 419.818L144.042 419.809ZM144.899 423.135C144.915 420.016 146.147 417.075 148.365 414.869C150.583 412.663 153.544 411.451 156.676 411.455L553.128 378.686C556.203 378.702 559.141 379.934 561.356 382.156C563.558 384.375 564.768 387.338 564.762 390.473L597.278 787.29C597.26 790.368 596.028 793.31 593.807 795.528C591.589 797.734 588.628 798.946 585.496 798.942L189.044 831.711C182.635 831.69 177.397 826.396 177.422 819.927L144.912 423.139L144.899 423.135Z" fill="#294596"/>
<path d="M145.586 419.012C145.334 419.954 145.178 420.935 145.148 421.95L145.135 422.001L161.517 810.779C161.262 817.954 166.934 824.037 174.155 824.289L562.617 807.688C569.784 807.939 575.869 802.246 576.121 795.03L559.752 406.202C559.871 402.747 558.627 399.411 556.248 396.848C553.868 394.286 550.62 392.81 547.127 392.695L158.665 409.296C152.508 409.087 147.143 413.25 145.602 419.003L145.586 419.012ZM146.446 421.975C146.68 415.482 152.162 410.381 158.652 410.599L547.114 393.997C550.22 394.102 553.13 395.434 555.281 397.747C557.431 400.06 558.549 403.065 558.445 406.215L574.813 795.043C574.586 801.512 569.104 806.613 562.601 806.391L174.139 822.993C167.69 822.772 162.584 817.285 162.809 810.775L146.446 421.975Z" fill="#294596"/>
<path d="M147.108 418.195C146.886 419.024 146.739 419.873 146.689 420.761L146.679 420.799L146.91 801.602C146.427 808.823 151.951 815.109 159.206 815.585L539.678 815.152C543.153 815.383 546.541 814.231 549.196 811.9C551.851 809.569 553.438 806.359 553.655 802.837L553.435 421.996C553.905 414.772 548.394 408.489 541.139 408.013L160.666 408.446C154.337 408.029 148.703 412.241 147.108 418.195ZM147.98 420.811C148.426 414.28 154.088 409.309 160.619 409.726L541.092 409.292C547.595 409.716 552.555 415.393 552.134 421.931L552.355 802.771C552.151 805.893 550.715 808.793 548.334 810.902C545.945 812.994 542.88 814.044 539.723 813.831L159.25 814.265C152.748 813.842 147.775 808.161 148.208 801.626L147.993 420.815L147.98 420.811Z" fill="#294596"/>
<path d="M148.624 417.349C148.432 418.065 148.303 418.798 148.221 419.557L148.211 419.594L132.294 792.408C131.96 795.913 133.013 799.359 135.276 802.106C137.529 804.837 140.717 806.539 144.26 806.869L516.743 822.604C523.994 823.295 530.501 817.93 531.193 810.631L547.12 437.779C547.814 430.52 542.458 424.01 535.166 423.321L162.683 407.587C159.182 407.255 155.739 408.311 152.993 410.577C150.836 412.355 149.331 414.712 148.621 417.362L148.624 417.349ZM149.523 419.663C149.836 416.489 151.36 413.613 153.818 411.566C156.289 409.522 159.409 408.567 162.595 408.869L535.078 424.604C541.622 425.226 546.462 431.1 545.83 437.675L529.903 810.527C529.265 817.074 523.406 821.926 516.838 821.296L144.355 805.562C141.209 805.258 138.323 803.73 136.283 801.259C134.242 798.787 133.287 795.677 133.594 792.474L149.527 419.651L149.523 419.663Z" fill="#294596"/>
<path d="M150.137 416.529C149.979 417.119 149.855 417.732 149.781 418.359L149.775 418.384L117.697 783.206C117.25 786.734 118.217 790.251 120.406 793.072C122.595 795.894 125.768 797.7 129.305 798.15L493.783 830.061C501.08 830.98 507.796 825.739 508.722 818.421L540.806 453.574C541.728 446.268 536.508 439.552 529.185 438.627L164.705 406.728C161.18 406.281 157.666 407.251 154.846 409.444C152.518 411.257 150.888 413.728 150.137 416.529ZM151.074 418.503C151.479 415.286 153.099 412.449 155.648 410.467C158.196 408.484 161.375 407.612 164.575 408.012L529.056 439.911C535.653 440.736 540.348 446.801 539.517 453.417L507.433 818.264C506.608 824.855 500.544 829.571 493.934 828.742L129.457 796.831C126.281 796.437 123.423 794.81 121.444 792.26C119.464 789.71 118.595 786.529 118.997 783.325L151.077 418.49L151.074 418.503Z" fill="#294596"/>
<path d="M151.63 415.718C151.506 416.183 151.403 416.667 151.325 417.157L103.097 774.004C101.96 781.359 107.015 788.287 114.375 789.425L470.863 837.504C478.21 838.638 485.134 833.574 486.275 826.206L534.507 469.347C535.056 465.792 534.197 462.223 532.06 459.308C529.923 456.393 526.792 454.477 523.228 453.926L166.741 405.847C159.883 404.79 153.394 409.136 151.633 415.705L151.63 415.718ZM152.608 417.34C153.663 410.689 159.892 406.112 166.542 407.14L523.029 455.219C529.667 456.244 534.242 462.505 533.212 469.162L484.98 826.02C483.952 832.665 477.695 837.248 471.045 836.22L114.558 788.141C107.921 787.116 103.345 780.855 104.376 774.198L152.608 417.34Z" fill="#294596"/>
<path d="M153.103 414.888C153.009 415.239 152.927 415.594 152.858 415.953L88.4947 764.814C87.8284 768.405 88.6046 772.032 90.6645 775.034C92.7243 778.036 95.8408 780.056 99.4278 780.721L447.913 844.965C455.307 846.327 462.433 841.411 463.798 834.009L528.162 485.148C528.825 481.57 528.052 477.93 525.992 474.927C523.932 471.925 520.816 469.906 517.229 469.241L168.744 404.997C161.708 403.704 154.915 408.076 153.091 414.884L153.103 414.888ZM154.14 416.188C155.392 409.51 161.833 405.043 168.52 406.283L517.005 470.527C520.247 471.126 523.067 472.946 524.933 475.667C526.799 478.388 527.506 481.674 526.905 484.919L462.542 833.78C461.305 840.503 454.861 844.928 448.161 843.685L99.6765 779.441C96.435 778.842 93.6144 777.023 91.7483 774.301C89.8821 771.58 89.1883 768.298 89.7763 765.049L154.14 416.188Z" fill="#294596"/>
</g>
<defs>
<clipPath id="clip0_434_1803">
<rect width="897" height="896" fill="white" transform="matrix(0.258819 -0.965926 -0.965926 -0.258819 865.469 1098.34)"/>
</clipPath>
</defs>
</svg>
