<svg width="606" height="1076" viewBox="0 0 606 1076" fill="none" xmlns="http://www.w3.org/2000/svg">
<g opacity="0.1" clip-path="url(#clip0_434_3139)">
<path d="M116.08 410.211C115.175 413.59 115.549 417.312 117.435 420.563L424.451 953.034C428.206 959.546 436.574 961.788 443.082 958.026L975.198 650.413C981.706 646.651 983.95 638.273 980.195 631.761L673.176 99.3028C669.421 92.7905 661.053 90.5482 654.545 94.3105L122.429 401.923C119.167 403.809 116.982 406.845 116.08 410.211ZM980.295 641.777C979.477 644.829 977.489 647.581 974.546 649.283L442.43 956.896C436.543 960.299 428.977 958.272 425.568 952.377L118.549 419.919C115.155 414.015 117.181 406.454 123.072 403.038L655.187 95.4251C661.075 92.0215 668.641 94.0487 672.05 99.9433L979.066 632.414C980.764 635.36 981.11 638.737 980.292 641.789L980.295 641.777Z" fill="#294596"/>
<path d="M117.802 409.461C116.904 412.815 117.31 416.316 118.966 419.371L409.846 943.857C411.554 947.02 414.4 949.345 417.861 950.38C421.322 951.415 424.975 951.034 428.152 949.314L952.29 657.872C955.464 656.165 957.775 653.311 958.811 649.846C959.849 646.422 959.468 642.725 957.752 639.546L666.871 115.06C665.164 111.897 662.317 109.573 658.856 108.538C655.395 107.503 651.743 107.884 648.566 109.604L124.424 401.058C121.251 402.765 118.939 405.619 117.903 409.084C117.87 409.21 117.836 409.335 117.802 409.461ZM120.102 418.747C118.559 415.87 118.21 412.559 119.151 409.445C120.084 406.316 122.185 403.743 125.051 402.182L649.193 110.727C652.055 109.179 655.36 108.839 658.485 109.771C661.611 110.703 664.181 112.805 665.739 115.673L956.616 640.171C958.162 643.035 958.486 646.339 957.566 649.472C956.634 652.601 954.532 655.175 951.666 656.736L427.516 948.174C424.653 949.723 421.349 950.062 418.223 949.13C415.097 948.199 412.527 946.096 410.969 943.229L120.089 418.743L120.102 418.747Z" fill="#294596"/>
<path d="M119.528 408.698C118.677 411.876 119.02 415.212 120.501 418.167L395.239 934.692C396.833 937.879 399.596 940.262 402.993 941.387C406.389 942.513 410.024 942.248 413.215 940.626L929.37 665.327C935.946 662.014 938.62 653.94 935.308 647.331L660.579 130.821C657.276 124.228 649.208 121.568 642.603 124.887L126.439 400.17C123.254 401.767 120.872 404.535 119.749 407.922C119.67 408.17 119.586 408.431 119.519 408.682L119.528 408.698ZM121.664 417.59C120.22 414.699 119.983 411.418 120.99 408.362C122 405.294 124.147 402.8 127.036 401.353L643.201 126.07C649.141 123.071 656.429 125.482 659.415 131.452L934.151 647.936C937.14 653.893 934.731 661.177 928.766 664.169L412.611 939.468C409.734 940.919 406.456 941.158 403.392 940.148C400.328 939.139 397.837 936.99 396.393 934.099L121.66 417.602L121.664 417.59Z" fill="#294596"/>
<path d="M121.237 407.931C120.43 410.946 120.697 414.114 122.028 416.974L122.025 416.987L380.619 925.511C382.102 928.709 384.77 931.147 388.102 932.363C391.434 933.579 395.041 933.415 398.252 931.919L906.455 672.798C909.654 671.299 912.088 668.64 913.304 665.304C914.512 661.952 914.359 658.357 912.867 655.144L654.276 146.607C652.793 143.409 650.125 140.971 646.793 139.755C643.461 138.54 639.853 138.704 636.642 140.199L128.452 399.324C125.253 400.822 122.819 403.482 121.603 406.818C121.464 407.184 121.348 407.57 121.247 407.947L121.237 407.931ZM123.213 416.417C121.867 413.512 121.718 410.254 122.818 407.251C123.91 404.232 126.112 401.833 129.015 400.484L637.205 141.36C640.08 140.016 643.347 139.869 646.347 140.969C649.363 142.059 651.757 144.263 653.104 147.168L911.694 655.705C913.035 658.582 913.184 661.839 912.08 664.855C910.989 667.874 908.786 670.273 905.883 671.622L397.693 930.746C394.818 932.089 391.551 932.237 388.551 931.137C385.548 930.05 383.141 927.843 381.794 924.938L123.213 416.417Z" fill="#294596"/>
<path d="M122.95 407.165C122.186 410.016 122.403 413.022 123.575 415.773L123.568 415.798L366.015 916.334C368.869 922.996 376.646 926.089 383.322 923.206L883.535 680.253C890.182 677.377 893.287 669.606 890.41 662.925L647.971 162.364C646.586 159.153 644.029 156.65 640.746 155.353C637.478 154.047 633.889 154.095 630.651 155.489L130.438 398.442C127.229 399.83 124.727 402.391 123.429 405.678C123.232 406.163 123.069 406.672 122.934 407.174L122.95 407.165ZM124.762 415.257C122.181 409.234 124.972 402.228 130.991 399.64L631.204 156.687C634.093 155.442 637.32 155.391 640.271 156.572C643.222 157.753 645.538 160.003 646.786 162.922L889.232 663.458C891.808 669.452 889.013 676.471 882.995 679.059L382.791 922.028C376.801 924.609 369.79 921.815 367.209 915.793L124.778 415.247L124.762 415.257Z" fill="#294596"/>
<path d="M124.64 406.379C123.937 409.004 124.033 411.857 125.105 414.581L125.123 414.613L351.409 907.157C352.684 910.379 355.158 912.94 358.361 914.337C361.563 915.734 365.126 915.786 368.387 914.506L860.614 687.709C863.834 686.431 866.394 683.953 867.791 680.747C869.188 677.54 869.243 673.974 867.966 670.71L641.665 178.122C640.39 174.899 637.916 172.338 634.713 170.941C631.511 169.545 627.948 169.492 624.687 170.772L132.464 397.557C128.479 399.128 125.684 402.485 124.647 406.354L124.64 406.379ZM126.314 414.084C123.944 408.023 126.926 401.162 132.972 398.771L625.195 171.986C628.098 170.838 631.299 170.888 634.189 172.147C637.079 173.406 639.311 175.714 640.462 178.647L866.778 671.227C867.923 674.131 867.859 677.332 866.612 680.229C865.353 683.122 863.046 685.358 860.114 686.511L367.875 913.306C364.973 914.453 361.772 914.403 358.882 913.144C355.992 911.885 353.76 909.577 352.609 906.644L126.314 414.084Z" fill="#294596"/>
<path d="M126.308 405.615C125.625 408.165 125.727 410.844 126.635 413.376L126.65 413.421L336.801 897.98C337.965 901.213 340.34 903.842 343.494 905.319C346.645 906.81 350.178 906.976 353.453 905.793L837.699 695.18C844.427 692.755 847.939 685.269 845.514 678.507L635.361 193.907C632.952 187.19 625.482 183.654 618.71 186.093L134.46 396.72C131.229 397.887 128.602 400.266 127.124 403.424C126.784 404.14 126.516 404.89 126.317 405.631L126.308 405.615ZM127.859 412.923C126.807 409.976 126.959 406.799 128.296 403.967C129.633 401.135 131.999 398.982 134.944 397.926L619.193 187.3C625.236 185.123 631.969 188.3 634.156 194.392L844.309 678.992C846.48 685.04 843.303 691.781 837.215 693.973L352.969 904.587C350.052 905.636 346.879 905.486 344.037 904.146C341.196 902.805 339.059 900.442 338.007 897.495L127.863 412.911L127.859 412.923Z" fill="#294596"/>
<path d="M128 404.829C127.374 407.166 127.39 409.714 128.195 412.178L128.21 412.223L322.185 888.799C324.366 895.563 331.701 899.305 338.494 897.087L814.779 702.635C818.033 701.581 820.707 699.282 822.284 696.205C823.865 693.115 824.133 689.606 823.068 686.305L629.066 209.681C626.884 202.917 619.55 199.175 612.756 201.393L136.484 395.848C132.185 397.241 129.1 400.722 128 404.829ZM129.413 411.751C127.447 405.637 130.799 399.05 136.927 397.057L613.199 202.602C619.266 200.633 625.87 203.991 627.845 210.121L821.847 686.745C822.799 689.666 822.544 692.828 821.125 695.612C819.707 698.395 817.299 700.456 814.327 701.41L338.052 895.878C331.984 897.846 325.38 894.488 323.405 888.359L129.413 411.751Z" fill="#294596"/>
<path d="M129.647 404.046C129.044 406.294 129.064 408.682 129.727 410.974L129.742 411.018L307.578 879.622C308.518 882.889 310.714 885.632 313.739 887.29C316.764 888.949 320.249 889.344 323.561 888.374L791.856 710.09C795.121 709.147 797.862 706.947 799.521 703.918C801.179 700.889 801.576 697.401 800.609 694.086L622.745 225.435C620.788 218.637 613.602 214.692 606.765 216.67L138.467 394.966C135.202 395.909 132.461 398.109 130.803 401.138C130.286 402.063 129.9 403.05 129.634 404.043L129.647 404.046ZM130.959 410.59C130.103 407.615 130.455 404.492 131.951 401.769C133.447 399.047 135.914 397.069 138.887 396.21L607.185 217.913C610.114 217.069 613.25 217.411 615.969 218.907C618.688 220.403 620.662 222.871 621.519 225.846L799.391 694.514C800.233 697.445 799.89 700.584 798.394 703.306C796.898 706.029 794.431 708.007 791.458 708.866L323.147 887.159C320.218 888.003 317.083 887.661 314.364 886.165C311.645 884.669 309.67 882.202 308.813 879.226L130.969 410.606L130.959 410.59Z" fill="#294596"/>
<path d="M131.302 403.25C130.746 405.323 130.702 407.546 131.263 409.769L131.274 409.826L292.975 870.444C293.817 873.726 295.902 876.533 298.863 878.282C301.823 880.031 305.293 880.53 308.616 879.67L768.934 717.557C775.763 715.807 779.92 708.776 778.163 701.883L616.451 241.208C615.621 237.93 613.524 235.119 610.563 233.37C607.603 231.621 604.133 231.122 600.809 231.982L140.489 394.107C135.868 395.292 132.45 398.913 131.286 403.259L131.302 403.25ZM132.513 409.418C130.955 403.238 134.69 396.929 140.871 395.341L601.192 233.215C604.135 232.469 607.244 232.912 609.914 234.489C612.572 236.062 614.463 238.589 615.222 241.579L776.934 702.254C778.49 708.392 774.752 714.714 768.571 716.302L308.247 878.44C305.304 879.187 302.195 878.744 299.524 877.167C296.867 875.593 294.975 873.067 294.204 870.074L132.498 409.427L132.513 409.418Z" fill="#294596"/>
<path d="M132.938 402.464C132.42 404.398 132.346 406.478 132.809 408.568L132.82 408.625L278.37 861.267C279.891 868.136 286.773 872.512 293.681 870.97L746.025 725.016C749.314 724.282 752.178 722.276 754.018 719.376C755.87 716.48 756.47 713.033 755.727 709.684L610.166 256.984C609.435 253.692 607.432 250.827 604.54 248.975C601.644 247.135 598.204 246.523 594.858 247.269L142.514 393.223C137.726 394.282 134.143 397.967 132.941 402.451L132.938 402.464ZM134.062 408.257C133.401 405.253 133.945 402.168 135.609 399.571C137.264 396.959 139.844 395.159 142.849 394.484L595.192 248.53C598.153 247.869 601.247 248.415 603.84 250.08C606.45 251.734 608.246 254.316 608.919 257.323L754.467 710.019C755.113 712.979 754.578 716.08 752.914 718.677C751.259 721.289 748.679 723.089 745.675 723.764L293.344 869.722C287.182 871.086 281.001 867.155 279.617 860.928L134.062 408.257Z" fill="#294596"/>
<path d="M134.561 401.673C134.076 403.482 133.974 405.42 134.35 407.379L134.361 407.436L263.751 852.086C264.368 855.402 266.275 858.323 269.119 860.256C271.95 862.186 275.363 862.898 278.733 862.267L723.099 732.484C729.997 731.182 734.586 724.442 733.278 717.481L603.865 272.77C603.247 269.455 601.34 266.534 598.496 264.601C595.665 262.671 592.252 261.958 588.882 262.59L144.529 392.376C139.572 393.31 135.796 397.064 134.561 401.673ZM135.609 407.097C134.446 400.848 138.579 394.807 144.813 393.624L589.167 263.837C595.356 262.669 601.405 266.794 602.59 273.061L732.015 717.776C733.179 723.97 729.055 730.027 722.793 731.217L278.439 861.003C275.465 861.566 272.397 860.919 269.849 859.186C267.301 857.453 265.585 854.826 265.013 851.792L135.605 407.109L135.609 407.097Z" fill="#294596"/>
<path d="M136.16 400.864C135.702 402.572 135.599 404.362 135.88 406.174L135.892 406.231L249.145 842.896C250.218 849.834 256.797 854.64 263.798 853.554L700.162 739.935C703.486 739.426 706.463 737.598 708.495 734.831C710.515 732.061 711.345 728.662 710.814 725.275L597.552 288.54C596.479 281.602 589.9 276.797 582.899 277.883L146.523 391.498C143.199 392.007 140.222 393.835 138.189 396.602C137.234 397.908 136.554 399.341 136.147 400.861L136.16 400.864ZM137.154 405.937C136.689 402.904 137.437 399.86 139.248 397.37C141.07 394.883 143.742 393.243 146.788 392.767L583.164 279.152C589.394 278.183 595.295 282.51 596.274 288.79L709.549 725.528C710.012 728.52 709.276 731.567 707.453 734.054C705.63 736.541 702.958 738.181 699.913 738.657L263.533 852.285C257.303 853.254 251.402 848.927 250.423 842.646L137.166 405.94L137.154 405.937Z" fill="#294596"/>
<path d="M137.765 400.055C137.341 401.638 137.221 403.288 137.432 404.96L137.441 405.03L234.543 833.719C234.953 837.06 236.678 840.107 239.38 842.217C242.082 844.328 245.45 845.258 248.857 844.838L677.244 747.39C680.581 746.979 683.626 745.25 685.737 742.544C687.847 739.839 688.777 736.466 688.36 733.056L591.249 304.297C590.4 297.326 583.973 292.305 576.938 293.166L148.539 390.61C145.201 391.022 142.156 392.75 140.046 395.456C138.964 396.836 138.197 398.394 137.756 400.039L137.765 400.055ZM138.705 404.776C138.342 401.717 139.175 398.709 141.075 396.284C142.979 393.846 145.706 392.301 148.765 391.923L577.152 294.476C583.41 293.702 589.194 298.214 589.971 304.548L687.089 733.281C687.454 736.287 686.617 739.307 684.714 741.745C682.81 744.183 680.083 745.728 677.023 746.106L248.633 843.566C245.63 843.933 242.613 843.097 240.179 841.193C237.744 839.289 236.203 836.56 235.826 833.498L138.718 404.78L138.705 404.776Z" fill="#294596"/>
<path d="M139.346 399.267C138.963 400.699 138.827 402.211 138.961 403.768L138.969 403.838L219.927 824.526C220.564 831.535 226.839 836.771 233.908 836.134L654.317 754.858C657.678 754.56 660.778 752.928 662.982 750.274C665.183 747.632 666.226 744.29 665.91 740.854L584.947 320.083C584.651 316.719 583.022 313.617 580.371 311.413C577.734 309.212 574.383 308.166 570.966 308.475L150.556 389.751C145.084 390.25 140.693 394.19 139.337 399.252L139.346 399.267ZM140.252 403.616C139.696 397.261 144.392 391.627 150.745 391.054L571.154 309.778C574.171 309.509 577.177 310.436 579.551 312.418C581.924 314.4 583.383 317.187 583.674 320.267L664.637 741.038C664.903 744.057 663.976 747.067 661.994 749.444C660.013 751.82 657.228 753.282 654.154 753.562L233.729 834.847C227.429 835.421 221.791 830.72 221.213 824.345L140.255 403.604L140.252 403.616Z" fill="#294596"/>
<path d="M140.92 398.464C140.57 399.77 140.417 401.143 140.506 402.567L140.515 402.636L205.322 815.349C205.519 818.727 207.05 821.897 209.623 824.188C212.196 826.48 215.52 827.626 218.961 827.431L631.396 762.313C638.446 761.9 643.882 755.764 643.474 748.654L578.659 335.872C578.461 332.494 576.93 329.324 574.357 327.033C571.784 324.741 568.461 323.595 565.02 323.79L152.6 388.899C146.957 389.231 142.349 393.233 140.949 398.458L140.92 398.464ZM141.8 402.456C141.452 396.076 146.33 390.571 152.711 390.194L565.13 325.085C568.164 324.902 571.153 325.945 573.465 328.005C575.777 330.065 577.165 332.914 577.346 336.005L642.174 748.79C642.544 755.136 637.638 760.647 631.257 761.024L218.825 826.129C215.791 826.312 212.803 825.269 210.491 823.209C208.178 821.149 206.79 818.3 206.61 815.209L141.8 402.456Z" fill="#294596"/>
<path d="M142.489 397.619C142.166 398.825 142.019 400.078 142.054 401.353L142.065 401.41L190.721 806.146C190.818 809.551 192.253 812.776 194.761 815.158C197.27 817.54 200.563 818.799 204.031 818.705L608.473 769.768C615.56 769.567 621.211 763.583 621.027 756.439L572.363 351.633C572.179 344.543 566.207 338.877 559.054 339.074L154.612 388.011C151.21 388.109 147.987 389.548 145.606 392.06C144.104 393.65 143.045 395.547 142.493 397.607L142.489 397.619ZM143.347 401.296C143.264 398.191 144.405 395.238 146.542 392.984C148.682 390.717 151.585 389.421 154.699 389.34L559.141 340.403C562.202 340.322 565.154 341.449 567.415 343.603C569.678 345.744 570.971 348.648 571.05 351.766L619.714 756.572C619.889 762.946 614.79 768.324 608.369 768.502L203.926 817.439C200.878 817.524 197.913 816.393 195.65 814.252C193.386 812.111 192.093 809.206 192.014 806.089L143.356 401.311L143.347 401.296Z" fill="#294596"/>
<path d="M144.042 396.809C143.753 397.889 143.602 399.007 143.601 400.164L143.587 400.214L176.117 796.981C176.09 804.109 181.897 809.987 189.084 810.014L585.537 777.245C592.67 777.272 598.523 771.436 598.564 764.258L566.048 367.441C566.065 364.012 564.726 360.732 562.269 358.257C559.825 355.784 556.546 354.421 553.068 354.404L156.616 387.174C153.191 387.158 149.913 388.501 147.438 390.961C145.787 392.605 144.615 394.62 144.026 396.818L144.042 396.809ZM144.899 400.135C144.915 397.016 146.147 394.075 148.365 391.869C150.583 389.663 153.544 388.451 156.676 388.455L553.128 355.686C556.203 355.702 559.141 356.934 561.356 359.156C563.558 361.375 564.768 364.338 564.762 367.473L597.278 764.29C597.26 767.368 596.028 770.31 593.807 772.528C591.589 774.734 588.628 775.946 585.496 775.942L189.044 808.711C182.635 808.69 177.397 803.396 177.422 796.927L144.912 400.139L144.899 400.135Z" fill="#294596"/>
<path d="M145.586 396.012C145.334 396.954 145.178 397.935 145.148 398.95L145.135 399.001L161.517 787.779C161.262 794.954 166.934 801.037 174.155 801.289L562.617 784.688C569.784 784.939 575.869 779.246 576.121 772.03L559.752 383.201C559.871 379.747 558.627 376.411 556.248 373.848C553.868 371.286 550.62 369.809 547.127 369.695L158.665 386.296C152.508 386.087 147.143 390.25 145.602 396.002L145.586 396.012ZM146.446 398.975C146.68 392.481 152.162 387.381 158.652 387.599L547.114 370.997C550.22 371.102 553.13 372.434 555.281 374.747C557.431 377.06 558.549 380.065 558.445 383.214L574.813 772.043C574.586 778.512 569.104 783.612 562.601 783.391L174.139 799.992C167.69 799.772 162.584 794.285 162.809 787.775L146.446 398.975Z" fill="#294596"/>
<path d="M147.108 395.195C146.886 396.024 146.739 396.873 146.689 397.761L146.679 397.799L146.91 778.602C146.427 785.823 151.951 792.109 159.205 792.585L539.678 792.152C543.153 792.383 546.541 791.231 549.196 788.9C551.851 786.569 553.437 783.359 553.655 779.837L553.434 398.996C553.904 391.772 548.394 385.489 541.139 385.013L160.666 385.446C154.336 385.029 148.703 389.241 147.108 395.195ZM147.98 397.811C148.426 391.28 154.088 386.309 160.619 386.726L541.092 386.292C547.594 386.716 552.555 392.393 552.134 398.931L552.355 779.771C552.15 782.893 550.714 785.793 548.334 787.902C545.944 789.994 542.879 791.044 539.723 790.831L159.25 791.265C152.747 790.842 147.774 785.161 148.207 778.626L147.993 397.815L147.98 397.811Z" fill="#294596"/>
<path d="M148.624 394.349C148.432 395.065 148.303 395.798 148.221 396.557L148.211 396.594L132.294 769.408C131.96 772.913 133.013 776.359 135.276 779.106C137.529 781.837 140.717 783.539 144.26 783.869L516.743 799.604C523.994 800.295 530.501 794.93 531.193 787.631L547.12 414.779C547.814 407.52 542.458 401.01 535.166 400.321L162.683 384.587C159.182 384.255 155.739 385.311 152.993 387.577C150.836 389.355 149.331 391.712 148.621 394.362L148.624 394.349ZM149.523 396.663C149.836 393.489 151.36 390.613 153.818 388.566C156.289 386.522 159.409 385.567 162.595 385.869L535.078 401.604C541.622 402.226 546.462 408.1 545.83 414.675L529.903 787.527C529.265 794.074 523.406 798.926 516.838 798.296L144.355 782.562C141.209 782.258 138.323 780.73 136.283 778.259C134.242 775.787 133.287 772.677 133.594 769.474L149.527 396.651L149.523 396.663Z" fill="#294596"/>
<path d="M150.137 393.529C149.979 394.119 149.855 394.732 149.781 395.359L149.775 395.384L117.697 760.206C117.249 763.734 118.217 767.251 120.406 770.073C122.595 772.894 125.768 774.7 129.305 775.15L493.783 807.061C501.08 807.98 507.796 802.739 508.722 795.421L540.806 430.574C541.728 423.268 536.508 416.552 529.185 415.627L164.705 383.728C161.18 383.281 157.666 384.251 154.846 386.444C152.518 388.257 150.888 390.728 150.137 393.529ZM151.074 395.503C151.479 392.286 153.099 389.449 155.648 387.467C158.196 385.484 161.375 384.612 164.575 385.012L529.056 416.911C535.653 417.737 540.348 423.801 539.517 430.417L507.433 795.264C506.608 801.855 500.544 806.571 493.934 805.742L129.457 773.831C126.281 773.438 123.423 771.81 121.444 769.26C119.464 766.711 118.595 763.53 118.997 760.325L151.077 395.491L151.074 395.503Z" fill="#294596"/>
<path d="M151.63 392.718C151.506 393.183 151.403 393.667 151.325 394.157L103.097 751.004C101.96 758.359 107.015 765.287 114.375 766.425L470.862 814.504C478.21 815.638 485.134 810.574 486.275 803.206L534.507 446.347C535.056 442.792 534.197 439.223 532.06 436.308C529.923 433.393 526.792 431.477 523.228 430.926L166.741 382.847C159.883 381.79 153.394 386.136 151.633 392.705L151.63 392.718ZM152.608 394.34C153.663 387.689 159.892 383.112 166.542 384.14L523.029 432.219C529.667 433.244 534.242 439.505 533.212 446.162L484.98 803.02C483.952 809.665 477.695 814.248 471.045 813.22L114.558 765.141C107.921 764.116 103.345 757.855 104.376 751.198L152.608 394.34Z" fill="#294596"/>
<path d="M153.103 391.888C153.009 392.239 152.927 392.594 152.858 392.953L88.4947 741.814C87.8284 745.405 88.6046 749.032 90.6645 752.034C92.7243 755.036 95.8407 757.056 99.4278 757.721L447.913 821.965C455.307 823.327 462.433 818.411 463.798 811.009L528.162 462.148C528.825 458.57 528.052 454.93 525.992 451.927C523.932 448.925 520.816 446.906 517.229 446.241L168.744 381.997C161.708 380.704 154.915 385.076 153.091 391.884L153.103 391.888ZM154.14 393.188C155.392 386.51 161.833 382.043 168.52 383.283L517.005 447.527C520.247 448.126 523.067 449.946 524.933 452.667C526.799 455.388 527.506 458.674 526.905 461.919L462.542 810.78C461.305 817.503 454.861 821.928 448.161 820.685L99.6765 756.441C96.4349 755.842 93.6144 754.023 91.7483 751.301C89.8821 748.58 89.1883 745.298 89.7763 742.049L154.14 393.188Z" fill="#294596"/>
</g>
<defs>
<clipPath id="clip0_434_3139">
<rect width="897" height="896" fill="white" transform="matrix(0.258819 -0.965926 -0.965926 -0.258819 865.469 1075.34)"/>
</clipPath>
</defs>
</svg>
