<svg width="1144" height="1172" viewBox="0 0 1144 1172" fill="none" xmlns="http://www.w3.org/2000/svg">
<g opacity="0.1" clip-path="url(#clip0_434_3983)">
<path d="M999.394 414.439C1000.73 417.671 1000.84 421.41 999.397 424.879L764.227 992.751C761.351 999.696 753.345 1003.01 746.403 1000.12L178.805 764.316C171.863 761.431 168.548 753.417 171.424 746.471L406.599 178.611C409.476 171.666 417.481 168.355 424.423 171.239L992.021 407.047C995.5 408.492 998.062 411.218 999.394 414.439ZM172.628 756.415C173.836 759.335 176.165 761.805 179.305 763.11L746.902 998.918C753.182 1001.53 760.42 998.533 763.034 992.245L998.209 424.385C1000.81 418.09 997.814 410.856 991.529 408.235L423.931 172.427C417.651 169.818 410.413 172.812 407.799 179.1L172.629 746.972C171.328 750.114 171.425 753.507 172.633 756.427L172.628 756.415Z" fill="#294596"/>
<path d="M997.588 413.919C998.915 417.127 998.967 420.652 997.723 423.896L777.513 981.753C776.231 985.111 773.711 987.786 770.414 989.263C767.117 990.739 763.446 990.836 760.072 989.544L202.487 768.732C199.118 767.452 196.456 764.923 194.978 761.622C193.503 758.362 193.4 754.648 194.689 751.272L414.899 193.415C416.18 190.057 418.701 187.382 421.998 185.906C425.295 184.429 428.965 184.332 432.339 185.624L989.929 406.448C993.298 407.728 995.961 410.257 997.439 413.558C997.488 413.678 997.538 413.798 997.588 413.919ZM996.516 423.425C997.671 420.372 997.587 417.043 996.248 414.079C994.917 411.097 992.498 408.819 989.454 407.644L431.864 186.82C428.824 185.657 425.504 185.75 422.526 187.08C419.548 188.411 417.273 190.829 416.101 193.875L195.896 751.744C194.736 754.784 194.844 758.103 196.163 761.089C197.495 764.071 199.913 766.349 202.958 767.525L760.555 988.331C763.594 989.494 766.915 989.401 769.893 988.071C772.871 986.741 775.146 984.322 776.318 981.276L996.528 423.42L996.516 423.425Z" fill="#294596"/>
<path d="M995.779 413.387C997.036 416.427 997.13 419.78 996.046 422.902L790.806 970.767C789.64 974.134 787.21 976.856 783.988 978.414C780.767 979.971 777.129 980.181 773.754 978.988L226.183 773.144C219.232 770.714 215.531 763.056 217.955 756.073L423.188 208.224C425.606 201.258 433.26 197.571 440.24 200.003L987.818 405.83C991.183 406.999 993.905 409.434 995.459 412.647C995.57 412.882 995.686 413.129 995.786 413.37L995.779 413.387ZM994.817 422.481C995.873 419.427 995.682 416.143 994.286 413.244C992.885 410.334 990.432 408.14 987.379 407.081L439.801 201.254C433.521 199.053 426.609 202.391 424.424 208.698L219.181 756.522C216.992 762.817 220.328 769.726 226.632 771.917L774.202 977.761C777.243 978.825 780.524 978.636 783.431 977.237C786.338 975.837 788.528 973.383 789.584 970.329L994.822 422.493L994.817 422.481Z" fill="#294596"/>
<path d="M993.982 412.849C995.175 415.733 995.322 418.908 994.374 421.918L994.379 421.93L804.106 959.763C803.051 963.126 800.722 965.89 797.577 967.529C794.431 969.168 790.833 969.474 787.455 968.409L249.872 777.572C246.506 776.501 243.747 774.181 242.107 771.032C240.474 767.865 240.158 764.281 241.22 760.901L431.488 223.056C432.543 219.693 434.871 216.928 438.017 215.29C441.162 213.651 444.76 213.344 448.139 214.41L985.709 405.252C989.076 406.322 991.835 408.643 993.475 411.792C993.66 412.138 993.826 412.505 993.975 412.866L993.982 412.849ZM993.126 421.519C994.083 418.464 993.808 415.214 992.326 412.38C990.851 409.528 988.356 407.436 985.302 406.476L447.731 215.634C444.706 214.675 441.448 214.954 438.617 216.435C435.768 217.908 433.68 220.404 432.723 223.46L242.455 761.305C241.5 764.331 241.776 767.58 243.262 770.427C244.737 773.279 247.233 775.37 250.287 776.331L787.857 967.173C790.882 968.131 794.141 967.853 796.972 966.372C799.808 964.903 801.908 962.402 802.865 959.347L993.126 421.519Z" fill="#294596"/>
<path d="M992.184 412.312C993.312 415.039 993.489 418.048 992.684 420.928L992.694 420.952L817.392 948.765C815.428 955.741 808.119 959.819 801.126 957.829L273.567 781.983C266.603 779.995 262.514 772.694 264.497 765.696L439.789 237.86C440.744 234.496 442.954 231.682 446.041 229.969C449.11 228.249 452.676 227.829 456.068 228.791L983.626 404.636C986.988 405.596 989.801 407.809 991.516 410.9C991.774 411.355 992.002 411.838 992.201 412.319L992.184 412.312ZM991.439 420.571C993.216 414.263 989.537 407.679 983.233 405.896L455.675 230.051C452.649 229.191 449.442 229.561 446.67 231.116C443.897 232.671 441.894 235.202 441.036 238.259L265.735 766.071C263.96 772.35 267.644 778.945 273.948 780.728L801.499 956.591C807.774 958.372 814.362 954.69 816.138 948.383L991.422 420.563L991.439 420.571Z" fill="#294596"/>
<path d="M990.406 411.753C991.445 414.264 991.721 417.105 991.012 419.945L990.998 419.979L830.68 937.766C829.836 941.127 827.716 943.988 824.722 945.789C821.728 947.591 818.202 948.106 814.802 947.261L297.264 786.395C293.905 785.547 291.044 783.423 289.242 780.425C287.44 777.427 286.922 773.898 287.764 770.497L448.09 252.664C448.935 249.303 451.055 246.442 454.049 244.641C457.043 242.839 460.569 242.324 463.968 243.169L981.502 404.023C985.657 405.063 988.865 408.027 990.396 411.728L990.406 411.753ZM989.748 419.609C991.31 413.292 987.462 406.877 981.156 405.292L463.622 244.438C460.595 243.678 457.428 244.144 454.726 245.768C452.024 247.392 450.111 249.97 449.352 253.028L289.008 770.854C288.251 773.883 288.731 777.048 290.344 779.758C291.969 782.463 294.547 784.38 297.603 785.143L815.154 946.004C818.181 946.764 821.348 946.298 824.05 944.674C826.752 943.05 828.665 940.471 829.424 937.413L989.748 419.609Z" fill="#294596"/>
<path d="M988.653 411.212C989.662 413.651 989.909 416.321 989.338 418.95L989.329 418.996L843.971 926.767C843.237 930.124 841.224 933.04 838.289 934.915C835.359 936.803 831.878 937.426 828.477 936.68L320.956 790.822C313.97 789.293 309.514 782.327 311.038 775.308L456.393 267.496C457.908 260.522 464.855 256.044 471.887 257.583L979.413 403.452C982.769 404.189 985.683 406.206 987.559 409.145C987.99 409.812 988.353 410.52 988.646 411.229L988.653 411.212ZM988.065 418.66C988.726 415.6 988.162 412.47 986.468 409.836C984.774 407.202 982.148 405.375 979.091 404.711L471.565 258.842C465.29 257.469 459.027 261.495 457.651 267.819L312.297 775.632C310.93 781.91 314.957 788.181 321.278 789.563L828.8 935.421C831.828 936.082 834.955 935.52 837.598 933.822C840.241 932.124 842.053 929.503 842.713 926.443L988.06 418.648L988.065 418.66Z" fill="#294596"/>
<path d="M986.874 410.652C987.799 412.887 988.114 415.417 987.636 417.965L987.627 418.011L857.27 915.764C855.987 922.754 849.201 927.418 842.177 926.102L344.651 795.234C341.287 794.613 338.337 792.681 336.373 789.834C334.404 786.976 333.682 783.532 334.309 780.12L464.686 282.316C465.97 275.326 472.756 270.662 479.78 271.978L977.294 402.851C981.738 403.672 985.249 406.723 986.874 410.652ZM986.373 417.699C987.527 411.381 983.347 405.286 977.012 404.107L479.498 273.234C473.226 272.071 467.115 276.26 465.954 282.594L335.576 780.398C335.012 783.418 335.677 786.52 337.445 789.096C339.213 791.671 341.868 793.401 344.939 793.96L842.458 924.845C848.73 926.008 854.841 921.82 856.003 915.486L986.373 417.699Z" fill="#294596"/>
<path d="M985.139 410.09C986.029 412.241 986.32 414.611 985.96 416.969L985.951 417.015L870.56 904.765C870.053 908.127 868.231 911.131 865.448 913.169C862.664 915.207 859.26 916.052 855.85 915.521L368.348 799.645C364.989 799.135 361.985 797.309 359.946 794.522C357.908 791.735 357.061 788.328 357.589 784.915L473.002 297.114C474.058 290.12 480.671 285.274 487.706 286.346L975.213 402.234C978.573 402.744 981.577 404.57 983.615 407.357C984.248 408.207 984.758 409.136 985.151 410.085L985.139 410.09ZM984.689 416.749C985.151 413.687 984.395 410.637 982.558 408.132C980.721 405.627 978.018 403.987 974.958 403.522L487.452 287.633C484.438 287.177 481.373 287.924 478.872 289.761C476.371 291.598 474.734 294.301 474.271 297.363L358.852 785.181C358.398 788.197 359.147 791.264 360.984 793.769C362.822 796.274 365.524 797.914 368.584 798.379L856.103 914.263C859.117 914.719 862.181 913.972 864.682 912.135C867.184 910.298 868.821 907.595 869.283 904.533L984.682 416.766L984.689 416.749Z" fill="#294596"/>
<path d="M983.395 409.516C984.215 411.499 984.548 413.697 984.281 415.975L984.277 416.033L883.845 893.767C883.437 897.13 881.735 900.184 879.027 902.303C876.319 904.422 872.943 905.369 869.536 904.948L392.047 804.069C385.048 803.221 380.012 796.79 380.858 789.728L481.294 311.935C481.69 308.577 483.405 305.518 486.112 303.399C488.82 301.28 492.196 300.334 495.603 300.754L973.097 401.646C977.833 402.22 981.692 405.366 983.412 409.523L983.395 409.516ZM982.995 415.789C983.737 409.459 979.214 403.689 972.879 402.918L495.384 302.026C492.369 301.669 489.344 302.512 486.902 304.423C484.471 306.329 482.924 309.08 482.561 312.143L382.125 789.935C381.381 796.224 385.909 802.006 392.244 802.777L869.743 903.681C872.758 904.038 875.783 903.195 878.226 901.284C880.656 899.378 882.203 896.627 882.579 893.559L983.012 415.796L982.995 415.789Z" fill="#294596"/>
<path d="M981.672 408.949C982.438 410.799 982.781 412.853 982.595 414.984L982.59 415.042L897.136 882.768C896.521 889.777 890.265 895.01 883.215 894.38L415.734 808.485C412.376 808.185 409.276 806.568 407.075 803.932C404.863 801.301 403.819 797.962 404.12 794.544L489.579 326.761C489.876 323.401 491.489 320.3 494.116 318.087C496.748 315.887 500.079 314.833 503.494 315.137L970.976 401.032C975.862 401.46 979.893 404.647 981.667 408.937L981.672 408.949ZM981.312 414.839C981.576 411.775 980.635 408.787 978.648 406.429C976.667 404.053 973.876 402.605 970.808 402.326L503.326 316.431C500.305 316.16 497.308 317.105 494.953 319.092C492.581 321.072 491.136 323.865 490.86 326.935L405.413 794.713C405.157 797.732 406.091 800.737 408.079 803.095C410.059 805.47 412.851 806.919 415.918 807.198L883.388 893.098C889.675 893.65 895.292 888.948 895.855 882.594L981.312 414.839Z" fill="#294596"/>
<path d="M979.961 408.377C980.676 410.107 981.03 412.015 980.911 414.006L980.907 414.064L910.436 871.764C910.255 875.132 908.744 878.276 906.176 880.563C903.62 882.844 900.328 883.994 896.905 883.806L439.436 812.908C432.427 812.514 427 806.428 427.393 799.356L497.88 341.593C498.061 338.225 499.572 335.081 502.14 332.795C504.696 330.513 507.988 329.363 511.411 329.551L968.868 400.455C973.904 400.736 978.136 403.967 979.961 408.377ZM979.627 413.89C979.967 407.544 975.084 402.091 968.749 401.728L511.291 330.825C505.002 330.471 499.541 335.347 499.181 341.716L428.682 799.484C428.334 805.778 433.211 811.247 439.574 811.612L897.032 882.515C900.055 882.686 903.012 881.646 905.313 879.597C907.614 877.547 908.974 874.719 909.147 871.636L979.632 413.902L979.627 413.89Z" fill="#294596"/>
<path d="M978.27 407.782C978.946 409.416 979.281 411.177 979.238 413.01L979.234 413.068L923.723 860.753C923.561 867.771 917.663 873.391 910.58 873.225L463.147 817.313C459.785 817.24 456.596 815.816 454.221 813.336C451.858 810.852 450.593 807.59 450.679 804.163L506.189 356.408C506.351 349.39 512.249 343.77 519.332 343.936L966.777 399.843C970.139 399.916 973.328 401.34 975.703 403.82C976.82 404.99 977.681 406.323 978.282 407.777L978.27 407.782ZM977.944 412.941C978.011 409.873 976.873 406.953 974.754 404.719C972.623 402.49 969.761 401.212 966.679 401.136L519.234 345.229C512.931 345.078 507.643 350.136 507.488 356.49L451.966 804.25C451.897 807.276 453.022 810.201 455.153 812.43C457.284 814.659 460.146 815.937 463.228 816.014L910.678 871.932C916.981 872.083 922.269 867.025 922.424 860.671L977.932 412.946L977.944 412.941Z" fill="#294596"/>
<path d="M976.573 407.189C977.199 408.703 977.533 410.324 977.541 412.009L977.542 412.079L937.008 849.755C937.036 853.121 935.722 856.366 933.317 858.81C930.912 861.254 927.694 862.614 924.261 862.641L486.84 821.725C483.477 821.751 480.233 820.434 477.789 818.025C475.345 815.616 473.984 812.394 473.955 808.958L514.488 371.212C514.423 364.189 520.143 358.376 527.23 358.315L964.663 399.225C968.025 399.199 971.269 400.517 973.713 402.925C974.966 404.152 975.929 405.597 976.58 407.172L976.573 407.189ZM976.255 411.992C976.218 408.912 975.001 406.038 972.801 403.88C970.596 401.71 967.692 400.533 964.609 400.556L527.188 359.641C520.882 359.688 515.734 364.913 515.787 371.294L475.244 809.016C475.273 812.044 476.495 814.93 478.7 817.1C480.905 819.269 483.809 820.446 486.892 820.423L924.318 861.351C927.343 861.324 930.226 860.103 932.392 857.898C934.558 855.694 935.732 852.788 935.707 849.702L976.243 411.997L976.255 411.992Z" fill="#294596"/>
<path d="M974.901 406.613C975.468 407.983 975.799 409.464 975.869 411.026L975.87 411.096L950.303 838.739C950.583 845.772 945.042 851.779 937.95 852.067L510.541 826.148C507.17 826.29 503.884 825.074 501.354 822.729C498.829 820.397 497.36 817.219 497.226 813.77L522.788 386.044C522.643 382.671 523.856 379.383 526.197 376.853C528.526 374.327 531.712 372.855 535.141 372.717L962.549 398.635C968.04 398.419 972.905 401.754 974.908 406.596L974.901 406.613ZM974.569 411.043C974.294 404.669 968.905 399.694 962.531 399.952L535.123 374.033C532.097 374.159 529.237 375.468 527.141 377.742C525.046 380.016 523.962 382.97 524.074 386.061L498.513 813.787C498.641 816.816 499.952 819.679 502.226 821.778C504.499 823.877 507.451 824.964 510.535 824.842L937.961 850.768C944.281 850.518 949.26 845.123 949.005 838.727L974.564 411.031L974.569 411.043Z" fill="#294596"/>
<path d="M973.235 406.021C973.752 407.271 974.082 408.612 974.179 410.035L974.179 410.105L963.589 827.741C963.832 831.116 962.727 834.458 960.474 837.065C958.22 839.671 955.074 841.24 951.637 841.494L534.236 830.56C527.192 831.067 521.004 825.69 520.484 818.587L531.074 400.882C530.83 397.507 531.936 394.165 534.189 391.558C536.442 388.952 539.589 387.383 543.026 387.129L960.41 398.056C966.048 397.652 971.138 401.02 973.206 406.019L973.235 406.021ZM972.881 410.094C972.397 403.722 966.845 398.898 960.469 399.354L543.085 388.427C540.053 388.64 537.225 390.063 535.201 392.406C533.176 394.749 532.17 397.755 532.393 400.843L521.792 818.553C522.249 824.893 527.83 829.719 534.206 829.263L951.602 840.185C954.634 839.972 957.461 838.55 959.486 836.206C961.511 833.863 962.517 830.858 962.294 827.77L972.881 410.094Z" fill="#294596"/>
<path d="M971.572 405.388C972.05 406.542 972.359 407.765 972.49 409.033L972.486 409.091L976.872 816.718C977.22 820.106 976.216 823.491 974.038 826.179C971.861 828.866 968.759 830.543 965.309 830.901L557.937 834.971C550.884 835.693 544.503 830.494 543.756 823.387L539.369 415.69C538.63 408.636 543.814 402.242 550.932 401.507L958.304 397.437C961.689 397.092 965.072 398.1 967.759 400.281C969.455 401.662 970.752 403.405 971.567 405.376L971.572 405.388ZM971.2 409.144C970.878 406.055 969.364 403.276 966.952 401.319C964.534 399.349 961.488 398.442 958.39 398.767L551.018 402.836C547.972 403.153 545.192 404.655 543.231 407.085C541.265 409.502 540.361 412.55 540.688 415.651L545.075 823.348C545.731 829.691 551.486 834.36 557.876 833.701L965.248 829.632C968.281 829.32 971.074 827.813 973.04 825.396C975.006 822.978 975.91 819.93 975.583 816.829L971.193 409.161L971.2 409.144Z" fill="#294596"/>
<path d="M969.925 404.787C970.353 405.82 970.648 406.908 970.8 408.055L970.82 408.104L990.159 805.732C991.113 812.796 986.119 819.378 978.996 820.34L581.649 839.401C574.58 840.356 568.017 835.33 567.043 828.219L547.684 430.542C547.221 427.145 548.123 423.719 550.236 420.945C552.338 418.176 555.412 416.398 558.859 415.929L956.206 396.868C959.6 396.407 963.025 397.312 965.798 399.43C967.649 400.845 969.073 402.691 969.942 404.794L969.925 404.787ZM969.508 408.196C969.087 405.105 967.483 402.349 964.997 400.45C962.511 398.552 959.418 397.734 956.313 398.146L558.966 417.207C555.919 417.623 553.166 419.226 551.259 421.718C549.364 424.205 548.55 427.299 548.964 430.407L568.323 828.083C568.741 831.133 570.345 833.889 572.836 835.8C575.322 837.698 578.415 838.516 581.52 838.104L978.867 819.043C985.219 818.189 989.724 812.258 988.858 805.848L969.496 408.201L969.508 408.196Z" fill="#294596"/>
<path d="M968.291 404.197C968.664 405.098 968.945 406.051 969.107 407.053L969.127 407.101L1003.44 794.709C1004.62 801.79 999.791 808.559 992.664 809.748L605.341 843.801C598.268 844.982 591.495 840.128 590.306 833.007L555.975 445.351C555.408 441.941 556.208 438.472 558.234 435.621C560.26 432.771 563.289 430.885 566.737 430.317L954.06 396.264C960.137 395.256 965.997 398.686 968.274 404.19L968.291 404.197ZM967.823 407.247C966.747 400.839 960.649 396.494 954.242 397.554L566.919 431.607C563.854 432.115 561.141 433.814 559.309 436.387C557.478 438.959 556.761 442.085 557.273 445.194L591.605 832.85C592.671 839.233 598.769 843.578 605.188 842.513L992.511 808.46C998.877 807.403 1003.23 801.298 1002.16 794.874L967.823 407.247Z" fill="#294596"/>
<path d="M966.678 403.584C967.006 404.378 967.262 405.2 967.427 406.075L967.442 406.111L1016.73 783.71C1018.15 790.807 1013.49 797.758 1006.36 799.174L629.059 848.219C625.644 848.9 622.134 848.198 619.199 846.232C616.263 844.266 614.273 841.29 613.599 837.825L564.296 460.19C562.89 453.088 567.537 446.142 574.669 444.726L951.967 395.682C958.189 394.445 964.322 397.889 966.678 403.584ZM966.154 406.292C964.862 399.875 958.602 395.681 952.18 396.944L574.882 445.989C568.489 447.254 564.309 453.528 565.576 459.956L614.88 837.591C615.488 840.66 617.289 843.349 619.924 845.13C622.565 846.894 625.74 847.537 628.843 846.915L1006.14 797.87C1012.53 796.605 1016.73 790.326 1015.45 783.904L966.142 406.297L966.154 406.292Z" fill="#294596"/>
<path d="M965.063 402.943C965.346 403.628 965.57 404.338 965.75 405.08L965.765 405.116L1030.02 772.695C1030.81 776.126 1030.22 779.68 1028.33 782.698C1026.45 785.698 1023.51 787.801 1020.04 788.589L652.766 852.625C645.667 854.253 638.517 849.78 636.882 842.632L572.607 475.017C570.975 467.91 575.438 460.759 582.579 459.128L949.853 395.092C953.282 394.307 956.833 394.907 959.85 396.797C962.22 398.279 964.019 400.42 965.068 402.955L965.063 402.943ZM964.472 405.355C963.749 402.248 961.864 399.594 959.161 397.884C956.446 396.179 953.228 395.638 950.107 396.352L582.833 460.388C576.426 461.856 572.391 468.31 573.873 474.747L638.148 842.362C639.632 848.77 646.071 852.819 652.502 851.341L1019.78 787.305C1022.86 786.594 1025.52 784.704 1027.22 781.988C1028.92 779.272 1029.46 776.064 1028.74 772.929L964.467 405.343L964.472 405.355Z" fill="#294596"/>
<path d="M963.458 402.326C963.692 402.891 963.894 403.483 964.049 404.094L964.059 404.118L1043.3 761.672C1044.21 765.112 1043.7 768.725 1041.9 771.807C1040.1 774.889 1037.19 777.093 1033.74 777.998L676.503 857.033C669.387 858.893 662.046 854.57 660.177 847.434L580.923 489.857C579.059 482.733 583.361 475.395 590.502 473.526L947.74 394.503C951.176 393.602 954.787 394.107 957.868 395.914C960.412 397.409 962.35 399.647 963.458 402.326ZM962.786 404.406C961.966 401.269 959.99 398.667 957.206 397.032C954.421 395.398 951.156 394.947 948.035 395.76L590.797 474.783C584.363 476.459 580.497 483.082 582.181 489.534L661.435 847.111C663.11 853.539 669.736 857.426 676.181 855.745L1033.41 776.71C1036.51 775.907 1039.13 773.922 1040.77 771.137C1042.4 768.351 1042.84 765.084 1042.03 761.959L962.781 404.394L962.786 404.406Z" fill="#294596"/>
<path d="M961.871 401.717C962.055 402.161 962.22 402.628 962.361 403.104L1056.58 750.649C1058.67 757.794 1054.55 765.321 1047.4 767.406L700.196 861.432C693.058 863.512 685.534 859.391 683.445 852.234L589.219 504.677C588.213 501.224 588.6 497.573 590.34 494.405C592.08 491.237 594.935 488.93 598.397 487.921L945.606 393.894C952.267 391.955 959.267 395.42 961.866 401.705L961.871 401.717ZM961.113 403.451C959.202 396.995 952.43 393.266 945.971 395.15L598.762 489.177C592.314 491.056 588.592 497.858 590.479 504.325L684.705 851.882C686.588 858.336 693.388 862.067 699.848 860.183L1047.06 766.157C1053.5 764.278 1057.23 757.475 1055.34 751.009L961.113 403.451Z" fill="#294596"/>
<path d="M960.302 401.085C960.442 401.421 960.569 401.763 960.684 402.109L1069.86 739.639C1070.99 743.112 1070.69 746.81 1069.04 750.054C1067.39 753.299 1064.56 755.707 1061.09 756.832L723.921 865.846C716.766 868.158 709.061 864.21 706.745 857.048L597.565 519.519C596.442 516.057 596.735 512.347 598.387 509.103C600.039 505.859 602.866 503.451 606.336 502.325L943.509 393.312C950.317 391.115 957.621 394.567 960.314 401.08L960.302 401.085ZM959.444 402.509C957.334 396.05 950.367 392.459 943.898 394.558L606.725 503.571C603.589 504.587 601.029 506.758 599.533 509.699C598.036 512.639 597.763 515.989 598.781 519.128L707.962 856.658C710.062 863.163 717.026 866.713 723.508 864.609L1060.68 755.596C1063.82 754.58 1066.38 752.41 1067.87 749.469C1069.37 746.528 1069.63 743.183 1068.62 740.039L959.444 402.509Z" fill="#294596"/>
</g>
<defs>
<clipPath id="clip0_434_3983">
<rect width="897" height="896" fill="white" transform="translate(342.855 1171.36) rotate(-112.472)"/>
</clipPath>
</defs>
</svg>
