<svg width="69" height="80" viewBox="0 0 69 80" fill="none" xmlns="http://www.w3.org/2000/svg">
<g clip-path="url(#clip0_281_1446)">
<path fill-rule="evenodd" clip-rule="evenodd" d="M-22.0137 -16.6201H91.046V97.4998H-22.0137V-16.6201ZM-20.8816 96.3571H89.9139V-15.4774H-20.8816V96.3571Z" fill="black"/>
<path fill-rule="evenodd" clip-rule="evenodd" d="M9.88812 64.4529L14.9298 78.097H10.4089L9.8202 76.2992H5.14082L4.55213 78.097H0.03125L5.09554 64.4529H9.88812ZM8.82394 73.031L7.88052 70.1361C7.72202 69.6333 7.58617 69.0848 7.4956 68.3763C7.40504 69.0848 7.26918 69.6333 7.13333 70.1361L6.18236 73.031H8.82394ZM20.3563 74.1508H26.1225V78.097H15.8807V64.4529H20.3563V74.1508ZM40.2059 71.2712C40.2059 75.2707 38.0398 78.097 33.202 78.097H27.3678V64.4453H33.202C38.0625 64.4453 40.2286 67.2793 40.2059 71.2712ZM35.6398 71.2483C35.6398 69.0391 34.6661 68.2163 33.0887 68.2163H31.8208V74.3108H33.0887C34.6661 74.3108 35.6398 73.4881 35.6398 71.2483ZM49.8213 64.4453L54.8629 78.097H50.342L49.7533 76.2915H45.0664L44.4853 78.097H39.9569L44.9985 64.4453H49.8213ZM48.742 73.031L47.791 70.1285C47.6325 69.6333 47.4967 69.0848 47.4061 68.3763C47.3155 69.0848 47.1797 69.6333 47.0438 70.1285L46.0929 73.031H48.742ZM68.9841 78.097H64.0707L61.2933 74.0594H60.2517V78.097H55.7988V64.4453H62.0858C64.9764 64.4453 67.852 65.5423 67.852 69.2676C67.852 71.3855 66.8783 72.6424 65.5198 73.3281L68.9841 78.097ZM63.3764 69.3971C63.3764 68.6505 62.8556 68.1249 61.9952 68.1249H60.2819V70.677H61.9952C62.8782 70.677 63.3764 70.1513 63.3764 69.3971Z" fill="black"/>
<path d="M54.9295 1.64102H68.6355V26.9942H54.9295V1.64102ZM51.7218 37.1111L59.8428 29.013C66.0543 33.2335 68.6129 38.5053 68.6129 38.5053V60.2551H50.386V49.0259H56.7408C58.0314 49.0259 59.9258 49.0488 59.9258 46.809C59.9258 41.3544 51.7445 37.0654 51.7218 37.1111ZM18.8908 20.0617C18.8908 12.7102 23.5701 7.48414 23.5701 7.48414L32.9062 12.7559C28.4533 18.4162 29.4043 24.2822 34.5817 24.2822C39.7593 24.2822 39.6008 19.5132 39.6008 18.9418V1.61816H50.6803V19.7646C50.6803 27.5961 44.416 35.7627 34.7176 35.7627C25.9853 35.7856 18.8908 28.6474 18.8908 20.0617ZM28.091 37.7511C27.6382 48.386 24.3626 55.8518 18.1889 60.2779H0.324219V49.643H3.91677C7.78857 49.6887 14.4831 48.6145 14.4831 36.3341V30.948H19.253C21.4644 34.0105 24.5211 36.4026 28.091 37.7511ZM46.1368 35.0999V60.2322H32.4534V38.7795C33.2006 38.8709 33.9478 38.9166 34.7176 38.9166C38.9894 38.9166 42.9442 37.4997 46.1368 35.0999Z" fill="black"/>
</g>
<defs>
<clipPath id="clip0_281_1446">
<rect width="69" height="80" fill="white"/>
</clipPath>
</defs>
</svg>
