<svg width="160" height="32" viewBox="0 0 160 32" fill="none" xmlns="http://www.w3.org/2000/svg">
<g clip-path="url(#clip0_281_1458)">
<path fill-rule="evenodd" clip-rule="evenodd" d="M23.2459 28.7469L22.7713 31.915H0.0527344C0.991429 29.725 0.928146 28.4918 0.928146 26.9077V5.11368C0.928146 3.58278 0.991429 2.23261 0.0527344 0.095736H22.2123L22.2544 3.32763C21.8431 3.15753 21.5056 3.00869 21.1997 2.87049C20.3771 2.56218 19.3329 2.27514 18.2571 2.28577C16.5379 2.28577 9.31312 2.28577 6.10679 2.28577V14.7456H20.3665L19.6599 17.2014H6.10679V29.6718C8.72248 29.6718 17.1075 29.6718 18.9637 29.6718C21.1259 29.7037 23.2775 28.4705 23.2775 28.4705L23.2248 28.7363C23.2248 28.7469 23.2353 28.7469 23.2459 28.7469ZM57.4397 31.915C57.7456 30.3522 57.7456 28.1409 57.503 26.3336L55.4779 11.3436L44.4562 31.915H42.3573L31.1562 10.4187L28.9835 26.6632C28.7409 28.5449 28.6777 30.9157 28.878 31.915H24.9334C25.6928 30.2991 25.8827 29.5868 26.2413 26.9183L29.8062 0.095736H31.6098L44.6882 25.1217L57.7456 0.095736H59.1167L62.7976 26.8545C63.1562 29.523 63.441 30.2884 64.1688 31.915H57.4397ZM90.621 31.915L85.3685 20.2632H74.8214L69.6533 31.915H65.5293C66.8372 30.2884 67.2802 29.523 68.2083 27.4924L80.4324 0.095736H81.8141L93.8378 26.727C95.1246 29.3316 95.7363 30.1396 97.5715 31.915H90.621ZM123.623 31.915L118.381 20.2632H107.834L102.655 31.915H98.5419C99.8392 30.2884 100.293 29.523 101.21 27.4924L113.445 0.095736H114.816L126.861 26.727C128.148 29.3316 128.749 30.1396 130.584 31.915H123.623ZM153.524 31.9363C150.37 29.0446 146.289 25.1961 141.173 19.0937C139.707 17.3609 138.674 17.1482 138.009 17.1057V26.9077C138.009 28.4811 138.009 29.725 138.906 31.915H131.955C132.894 29.725 132.841 28.4918 132.841 26.9077V5.09241C132.841 3.56152 132.894 2.21135 131.955 0.0851048H138.769C143.42 0.0851048 154.41 -0.340144 154.41 8.81334C154.41 13.6506 150.603 16.2446 146.131 16.9037L144.802 17.0419C144.802 17.0419 159.304 31.3197 159.926 31.9363H153.524ZM145.308 15.0858L145.297 15.0964C148.229 13.9801 149.21 11.1735 149.115 8.80271C149.01 6.517 147.987 1.55221 138.02 1.9562V15.5217C138.02 15.5217 143.599 15.83 145.171 15.1389C145.255 15.107 145.308 15.0858 145.308 15.0858ZM108.846 18.0413H117.358L113.065 8.54756L108.846 18.0413ZM75.855 18.0413H84.3771L80.0844 8.53693L75.855 18.0413Z" fill="#3C3D3F"/>
</g>
<defs>
<clipPath id="clip0_281_1458">
<rect width="160" height="32" fill="white"/>
</clipPath>
</defs>
</svg>
