<svg width="630" height="200" viewBox="0 0 630 200" fill="none" xmlns="http://www.w3.org/2000/svg">
<path d="M196.79 3.35571H3.35742V38.1879H196.79V3.35571Z" stroke="white" stroke-linecap="round" stroke-linejoin="round"/>
<path d="M14.1035 38.188V196.644H186.044V38.188" stroke="white" stroke-linecap="round" stroke-linejoin="round"/>
<path d="M17.1269 69.8657H186.045" stroke="white" stroke-linecap="round" stroke-linejoin="round"/>
<path d="M17.1269 101.544H186.045" stroke="white" stroke-linecap="round" stroke-linejoin="round"/>
<path d="M17.1269 133.289H186.045" stroke="white" stroke-linecap="round" stroke-linejoin="round"/>
<path d="M17.1269 164.967H186.045" stroke="white" stroke-linecap="round" stroke-linejoin="round"/>
<path d="M476.194 196.644H583.657L626.642 121.476L529.925 67.7852L433.209 121.476L476.194 196.644Z" stroke="white" stroke-linecap="round" stroke-linejoin="round"/>
<path d="M465.447 101.543V46.3086H594.402V101.543" stroke="white" stroke-linecap="round" stroke-linejoin="round"/>
<path d="M486.939 46.3088V24.8323H572.91V46.3088" stroke="white" stroke-linecap="round" stroke-linejoin="round"/>
<path d="M519.18 24.8322V4.02686H540.672V24.8322" stroke="white" stroke-linecap="round" stroke-linejoin="round"/>
<path d="M529.926 69.8657V196.644" stroke="white" stroke-linecap="round" stroke-linejoin="round"/>
<path d="M411 13.2886L433.231 35.5033L411 57.8523" stroke="white" stroke-linecap="round" stroke-linejoin="round"/>
<path d="M433.209 35.1677H357.985L239.776 196.644H218.283" stroke="white" stroke-linecap="round" stroke-linejoin="round"/>
</svg>
