<svg width="38" height="56" viewBox="0 0 38 56" fill="none" xmlns="http://www.w3.org/2000/svg">
<path d="M5.05812 14.25L5.05354 12.9942C5.05354 6.10313 10.6567 0.5 17.5431 0.5H20.064C26.9504 0.5 32.5535 6.10083 32.5535 12.985L32.5581 14.25L32.5833 21.1204C32.5833 28.7081 26.4165 34.875 18.8333 34.875C11.2502 34.875 5.08333 28.7081 5.08333 21.125L5.05812 14.25ZM5.05812 14.25H0.5M5.05812 14.25H37.1369M14.2202 1.64583V9.66667M23.3869 9.66667V0.948577M37.1369 55.5V48.625C37.1369 43.5696 33.0256 39.4583 27.9702 39.4583H9.66667C4.61125 39.4583 0.5 43.5696 0.5 48.625V55.5" stroke="#294596" stroke-linecap="round"/>
</svg>
