<svg width="54" height="54" viewBox="0 0 54 54" fill="none" xmlns="http://www.w3.org/2000/svg">
<path d="M26.5195 0.5C40.8838 0.5 52.5379 12.1541 52.5379 26.5184C52.5379 37.016 46.3224 46.0683 37.3605 50.1878" stroke="#294596" stroke-linecap="round" stroke-linejoin="round"/>
<path d="M26.5184 52.5369C12.1541 52.5369 0.5 40.8829 0.5 26.5186C0.5 16.1112 6.60709 7.13129 15.4425 2.97559" stroke="#294596" stroke-linecap="round" stroke-linejoin="round"/>
<path d="M10.0391 1.09619L16.5617 2.12608L15.6041 8.23317" stroke="#294596" stroke-linecap="round" stroke-linejoin="round"/>
<path d="M42.5813 52.2112L36.0586 51.1813L37.0162 45.0742" stroke="#294596" stroke-linecap="round" stroke-linejoin="round"/>
<path d="M27.2487 24.4691C30.8881 24.4691 33.849 21.5083 33.849 17.8688C33.849 14.2294 30.8881 11.2686 27.2487 11.2686C23.6093 11.2686 20.6484 14.2294 20.6484 17.8688C20.6484 21.5083 23.6093 24.4691 27.2487 24.4691Z" stroke="#294596"/>
<path d="M26.554 39.1081H15.7539V33.8764C15.7539 30.9914 18.1007 28.6445 20.9857 28.6445H29.3377M25.625 39.1081H39.2088V33.8764C39.2088 30.9914 36.862 28.6445 33.977 28.6445H25.625" stroke="#294596"/>
</svg>
