<svg width="46" height="57" viewBox="0 0 46 57" fill="none" xmlns="http://www.w3.org/2000/svg">
<path d="M37.3142 19.4647L20.7313 34.4864C20.5985 34.6209 20.4404 34.7277 20.266 34.8005C20.0916 34.8734 19.9044 34.9109 19.7154 34.9109C19.5264 34.9109 19.3393 34.8734 19.1649 34.8005C18.9905 34.7277 18.8324 34.6209 18.6995 34.4864L10.6613 26.8347M22.686 55.8408L22.7146 55.8579L22.7503 55.8365C23.5356 55.3482 24.4337 54.7699 25.3975 54.1231C28.1793 52.2632 30.858 50.2537 33.4219 48.1034C40.4611 42.1593 44.6561 36.4608 44.6561 31.8347V9.26426C41.2992 8.65029 36.2975 7.6144 33.0721 6.24368C29.8232 4.86511 26.6797 3.25019 23.667 1.41191C23.3591 1.21605 23.0443 1.03127 22.7232 0.85791C22.5518 0.94358 22.3348 1.07209 21.7808 1.41191C18.7589 3.25546 15.6037 4.87101 12.3414 6.24511C9.12024 7.61297 4.1217 8.0299 0.762017 8.64529L0.761719 31.8347C0.857383 36.4237 5.08376 42.1308 12.0944 48.0891C14.6411 50.24 17.3007 52.2537 20.0617 54.1217C21.0183 54.7713 21.9079 55.3496 22.686 55.8408Z" stroke="#294596" stroke-width="1.52302" stroke-linecap="round"/>
</svg>
