<svg width="48" height="52" viewBox="0 0 48 52" fill="none" xmlns="http://www.w3.org/2000/svg">
<path d="M15.7008 26.2771L20.9322 31.5082C21.0062 31.5834 21.1051 31.6237 21.2096 31.6237L21.2107 31.6215C21.3152 31.6215 21.4142 31.5801 21.4882 31.506L31.9494 21.0448M10.3269 43.8171L8.56791 43.5383C5.99532 43.0963 3.0602 41.0398 1.7407 38.7535C0.274226 36.2093 0.0822159 32.3324 1.30373 29.9264C2.40332 27.7631 2.40332 24.2423 1.30373 22.0769C0.0811272 19.672 0.274226 15.7962 1.7407 13.2541C3.20608 10.7142 6.46348 8.56939 9.15691 8.37125C11.5836 8.19488 14.6384 6.43234 15.9655 4.4422C17.4363 2.23215 20.8873 0.5 23.8224 0.5C26.7085 0.5 30.2341 2.26806 31.6798 4.44001C33.0059 6.43015 36.0595 8.19276 38.4895 8.36913C41.184 8.56618 44.4414 10.7098 45.9057 13.2497C47.3733 15.794 47.5648 19.6697 46.3411 22.0736C45.2437 24.2401 45.2448 27.761 46.3411 29.9231C47.5637 32.3302 47.3722 36.206 45.9047 38.7481C44.5852 41.0354 41.65 43.0931 39.0775 43.5351L37.3221 43.8192L36.8224 43.976L36.8203 43.9771C34.7398 44.6303 32.6748 46.0707 31.683 47.56C30.8556 48.8011 29.3357 49.9442 27.5122 50.6965L26.8216 50.9806L25.5719 51.291C24.8991 51.4314 24.3265 51.5 23.8213 51.5C23.3162 51.5 22.7459 51.4314 22.0687 51.292L20.8274 50.9806L20.1374 50.6954C18.3128 49.9432 16.7929 48.8 15.9666 47.5589C14.9748 46.0706 12.9104 44.6303 10.8277 43.9749L10.3269 43.8171ZM23.8245 42.0849C14.9549 42.0849 7.74022 34.8691 7.74022 26.0006C7.74022 17.132 14.956 9.91612 23.8245 9.91612C32.6931 9.91612 39.9089 17.132 39.9089 26.0006C39.9089 34.8691 32.6931 42.0849 23.8245 42.0849Z" stroke="#294596" stroke-linecap="round"/>
</svg>
