<svg width="60" height="46" viewBox="0 0 60 46" fill="none" xmlns="http://www.w3.org/2000/svg">
<path d="M58.7431 14.6903C58.7431 14.3656 58.6219 14.0526 58.4033 13.8125L49.1306 1.13069C49.0173 0.937816 48.8553 0.77806 48.6609 0.667388C48.4665 0.556716 48.2464 0.499002 48.0227 0.500013H11.1791C10.9777 0.50065 10.7793 0.548844 10.6001 0.640669C10.4209 0.732493 10.266 0.865351 10.1478 1.02842L0.841039 13.8466L0.823993 13.8551C0.611358 14.0875 0.495514 14.3924 0.500133 14.7073M58.7431 14.6903C58.7431 15.015 58.6219 15.328 58.4033 15.5681L30.8494 45.0907C30.7353 45.2139 30.598 45.3133 30.4454 45.3834C30.2928 45.4534 30.1279 45.4928 29.9602 45.4991C29.7924 45.5054 29.625 45.4786 29.4676 45.4203C29.3101 45.3619 29.1657 45.2731 29.0426 45.1589L28.9659 45.0737L0.841039 15.5767C0.785524 15.5201 0.736892 15.4572 0.696155 15.3892C0.570265 15.1838 0.502513 14.9482 0.500133 14.7073M58.7431 14.6903L0.500133 14.7073M20.051 13.8125L29.9602 43.1135L39.2271 13.8125M20.051 13.8125L12.8067 1.13069M20.051 13.8125L28.9659 0.500013M39.2271 13.8125L30.4454 0.500013M39.2271 13.8125L46.8975 0.500013" stroke="#294596"/>
</svg>
