<svg width="50" height="50" viewBox="0 0 50 50" fill="none" xmlns="http://www.w3.org/2000/svg">
<path d="M39.8056 44.0001H11.9903C5.90414 44.0001 1 38.9199 1 32.6074C1 26.3452 5.90414 21.2147 11.9903 21.2147C13.2981 21.2147 14.5304 21.441 15.6621 21.8686C16.316 22.1201 17.0453 21.8686 17.3974 21.265C19.2585 18.1716 22.5782 16.1094 26.3758 16.1094C31.456 16.1094 35.6559 19.7812 36.6871 24.6853C36.838 25.3643 37.3912 25.7164 38.0703 25.5655C38.6236 25.4398 39.202 25.3895 39.8056 25.3895C44.7852 25.3895 48.7839 29.5643 48.7839 34.7199C48.8091 39.8253 44.7852 44.0001 39.8056 44.0001Z" stroke="#294596" stroke-miterlimit="10" stroke-linecap="round" stroke-linejoin="round"/>
<path d="M39.3522 16.587C40.6851 14.2984 40.4336 11.3056 38.5977 9.19308C36.2588 6.52724 32.2097 6.25057 29.5439 8.58947C28.7391 9.29365 28.1858 10.1236 27.8086 11.0038" stroke="#294596" stroke-miterlimit="10" stroke-linecap="round" stroke-linejoin="round"/>
</svg>
