<svg width="1314" height="1306" viewBox="0 0 1314 1306" fill="none" xmlns="http://www.w3.org/2000/svg">
<g opacity="0.2" clip-path="url(#clip0_434_6066)">
<path d="M1058 421.002C1056.15 417.8 1053.09 415.3 1049.25 414.28L421.446 246.052C413.767 243.994 405.829 248.577 403.772 256.256L235.555 884.049C233.497 891.727 238.081 899.666 245.759 901.723L873.552 1069.94C881.231 1072 889.169 1067.41 891.226 1059.74L1059.44 431.942C1060.47 428.094 1059.84 424.192 1058 421.002ZM238.197 894.315C236.527 891.422 235.957 887.879 236.888 884.406L405.105 256.613C406.966 249.667 414.142 245.523 421.1 247.378L1048.89 415.594C1055.85 417.468 1059.98 424.632 1058.13 431.59L889.912 1059.38C888.051 1066.33 880.874 1070.47 873.916 1068.62L246.116 900.39C242.643 899.46 239.86 897.195 238.19 894.303L238.197 894.315Z" fill="white"/>
<path d="M1057.27 422.848C1055.43 419.671 1052.51 417.358 1048.99 416.314L439.23 241.984C435.587 240.897 431.72 241.29 428.356 243.105C424.992 244.92 422.544 247.936 421.453 251.597L247.116 861.342C246.017 864.992 246.422 868.852 248.237 872.216C250.019 875.551 253.068 878.028 256.729 879.119L866.486 1053.45C870.129 1054.54 873.996 1054.14 877.36 1052.33C880.724 1050.51 883.172 1047.5 884.263 1043.84L1058.59 434.079C1059.69 430.43 1059.29 426.569 1057.47 423.205C1057.4 423.086 1057.34 422.967 1057.27 422.848ZM1048.6 417.63C1051.91 418.626 1054.65 420.838 1056.27 423.869C1057.91 426.904 1058.26 430.399 1057.28 433.708L882.954 1043.47C881.97 1046.76 879.751 1049.49 876.715 1051.13C873.68 1052.77 870.185 1053.12 866.876 1052.15L257.112 877.804C253.814 876.819 251.101 874.593 249.447 871.565C247.806 868.529 247.455 865.035 248.432 861.725L422.781 251.973C423.765 248.675 425.984 245.95 429.019 244.309C432.055 242.667 435.55 242.316 438.859 243.293L1048.62 417.623L1048.6 417.63Z" fill="white"/>
<path d="M1056.55 424.711C1054.81 421.7 1052.06 419.464 1048.74 418.364L457.017 237.909C453.442 236.72 449.593 237.006 446.21 238.706C442.827 240.405 440.305 243.321 439.13 246.919L258.699 838.633C256.255 846.026 260.29 854.059 267.709 856.52L859.418 1036.97C866.818 1039.43 874.844 1035.38 877.305 1027.96L1057.75 436.251C1058.94 432.676 1058.66 428.827 1056.96 425.456C1056.84 425.211 1056.71 424.954 1056.57 424.716L1056.55 424.711ZM1048.31 419.665C1051.55 420.745 1054.18 423.019 1055.71 426.055C1057.25 429.103 1057.5 432.572 1056.42 435.814L875.973 1027.52C873.77 1034.21 866.515 1037.86 859.817 1035.63L268.123 855.202C261.432 852.987 257.79 845.743 260.017 839.046L440.448 247.333C441.516 244.098 443.79 241.468 446.838 239.93C449.886 238.393 453.355 238.135 456.597 239.215L1048.3 419.653L1048.31 419.665Z" fill="white"/>
<path d="M1055.84 426.559C1054.19 423.702 1051.62 421.535 1048.49 420.393L1048.48 420.382L474.818 233.831C471.318 232.551 467.498 232.725 464.096 234.308C460.694 235.892 458.117 238.712 456.832 242.231L270.258 815.91C268.985 819.422 269.152 823.229 270.735 826.632C272.337 830.039 275.139 832.611 278.658 833.895L852.33 1020.46C855.83 1021.74 859.65 1021.56 863.052 1019.98C866.454 1018.4 869.031 1015.58 870.316 1012.06L1056.88 438.386C1058.15 434.874 1057.98 431.066 1056.4 427.664C1056.23 427.287 1056.03 426.911 1055.82 426.554L1055.84 426.559ZM1048.02 421.696C1051.2 422.86 1053.75 425.182 1055.17 428.249C1056.61 431.321 1056.75 434.761 1055.59 437.94L869.027 1011.61C867.88 1014.77 865.546 1017.32 862.479 1018.74C859.406 1020.18 855.967 1020.33 852.788 1019.16L279.116 832.6C275.963 831.453 273.416 829.131 271.987 826.052C270.547 822.979 270.402 819.54 271.566 816.361L458.128 242.689C459.275 239.536 461.609 236.982 464.676 235.56C467.737 234.127 471.188 233.975 474.367 235.139L1048.02 421.696Z" fill="white"/>
<path d="M1055.13 428.413C1053.57 425.712 1051.16 423.627 1048.23 422.449L1048.22 422.425L492.606 229.767C485.49 226.924 477.358 230.429 474.517 237.576L281.835 793.199C279.011 800.32 282.498 808.447 289.644 811.288L845.268 1003.97C848.705 1005.33 852.489 1005.29 855.916 1003.81C859.337 1002.34 861.988 999.617 863.368 996.154L1056.05 440.531C1057.41 437.093 1057.37 433.309 1055.89 429.883C1055.67 429.372 1055.41 428.871 1055.14 428.395L1055.13 428.413ZM1047.73 423.723C1054.16 426.292 1057.31 433.615 1054.74 440.049L862.059 995.672C860.828 998.763 858.451 1001.21 855.359 1002.54C852.268 1003.86 848.854 1003.92 845.737 1002.67L290.128 810.009C283.719 807.457 280.564 800.122 283.133 793.688L475.796 238.059C478.349 231.651 485.683 228.495 492.118 231.064L1047.72 423.742L1047.73 423.723Z" fill="white"/>
<path d="M1054.46 430.265C1053.02 427.777 1050.81 425.718 1047.98 424.484L1047.94 424.474L510.397 225.701C507.034 224.246 503.268 224.183 499.827 225.535C496.386 226.887 493.681 229.512 492.198 232.907L293.414 770.487C291.96 773.85 291.897 777.616 293.248 781.056C294.6 784.497 297.225 787.203 300.621 788.686L838.207 987.481C841.57 988.936 845.336 988.999 848.777 987.647C852.217 986.295 854.923 983.67 856.406 980.275L1055.2 442.707C1057 438.553 1056.59 433.954 1054.47 430.289L1054.46 430.265ZM1047.44 425.76C1053.75 428.516 1056.65 435.872 1053.91 442.181L855.119 979.749C853.804 982.777 851.372 985.133 848.268 986.354C845.164 987.575 841.769 987.52 838.715 986.189L301.123 787.412C298.095 786.098 295.75 783.659 294.518 780.562C293.297 777.458 293.352 774.062 294.683 771.008L493.478 233.421C494.793 230.393 497.225 228.037 500.329 226.816C503.433 225.595 506.828 225.65 509.882 226.982L1047.44 425.76Z" fill="white"/>
<path d="M1053.78 432.086C1052.39 429.67 1050.31 427.744 1047.73 426.532L1047.69 426.51L528.191 221.635C524.903 220.09 521.16 219.902 517.695 221.157C514.223 222.4 511.456 224.918 509.889 228.251L304.979 747.77C301.757 754.613 304.725 762.833 311.594 766.072L831.125 970.975C837.95 974.192 846.184 971.248 849.427 964.36L1054.33 444.829C1055.88 441.54 1056.06 437.798 1054.81 434.333C1054.53 433.543 1054.17 432.783 1053.76 432.081L1053.78 432.086ZM1047.16 427.786C1050.15 429.201 1052.41 431.688 1053.53 434.804C1054.64 437.92 1054.48 441.298 1053.07 444.289L848.164 963.82C845.269 969.966 837.856 972.628 831.665 969.712L312.134 764.808C305.988 761.914 303.326 754.501 306.243 748.31L511.153 228.791C512.551 225.825 515.038 223.564 518.166 222.44C521.294 221.317 524.66 221.484 527.651 222.899L1047.16 427.797L1047.16 427.786Z" fill="white"/>
<path d="M1053.1 433.935C1051.82 431.722 1049.91 429.829 1047.46 428.591L1047.42 428.569L545.99 217.561C539.301 214.139 531.015 216.828 527.59 223.566L316.555 725.056C314.907 728.277 314.625 731.994 315.745 735.473C316.872 738.965 319.295 741.787 322.56 743.456L824.043 954.479C830.732 957.901 839.018 955.212 842.443 948.474L1053.47 446.991C1055.64 442.735 1055.35 437.827 1053.1 433.935ZM1046.87 429.821C1052.91 432.918 1055.33 440.347 1052.23 446.419L841.208 947.902C838.14 953.91 830.688 956.34 824.627 953.238L323.145 742.215C320.249 740.744 318.076 738.19 317.056 735.05C316.036 731.909 316.298 728.569 317.809 725.634L528.825 224.139C531.894 218.13 539.346 215.7 545.406 218.803L1046.87 429.821Z" fill="white"/>
<path d="M1052.45 435.755C1051.22 433.625 1049.42 431.855 1047.21 430.639L1047.17 430.617L563.779 213.496C560.633 211.758 556.939 211.352 553.436 212.375C549.932 213.398 547.029 215.708 545.276 218.911L328.133 702.345C326.394 705.491 325.988 709.185 327.011 712.689C328.034 716.192 330.345 719.095 333.547 720.848L816.994 937.984C823.54 941.6 831.867 939.173 835.504 932.582L1052.64 449.136C1054.38 445.99 1054.78 442.296 1053.76 438.792C1053.46 437.714 1053.01 436.688 1052.46 435.748L1052.45 435.755ZM1046.58 431.847C1049.44 433.43 1051.51 436.027 1052.43 439.18C1053.35 442.333 1052.98 445.655 1051.4 448.521L834.26 931.967C832.699 934.788 830.097 936.878 826.944 937.794C823.791 938.709 820.469 938.342 817.603 936.76L334.138 719.618C331.317 718.058 329.228 715.456 328.312 712.303C327.396 709.15 327.763 705.828 329.346 702.962L546.494 219.509C548.054 216.687 550.657 214.598 553.81 213.682C556.962 212.766 560.285 213.133 563.15 214.716L1046.56 431.842L1046.58 431.847Z" fill="white"/>
<path d="M1051.81 437.581C1050.68 435.617 1049.05 433.923 1046.97 432.681L1046.92 432.647L581.569 209.425C578.486 207.603 574.827 207.065 571.304 207.973C567.782 208.88 564.812 211.102 562.968 214.23L339.705 679.616C335.903 686.032 338.049 694.394 344.517 698.229L809.914 921.485C812.986 923.314 816.656 923.845 820.179 922.938C823.702 922.031 826.672 919.808 828.516 916.68L1051.77 451.283C1054.34 446.941 1054.19 441.68 1051.82 437.562L1051.81 437.581ZM1046.29 433.879C1052.08 437.331 1054 444.838 1050.56 450.647L827.308 916.045C825.663 918.803 823.006 920.798 819.829 921.616C816.664 922.428 813.36 921.956 810.557 920.289L345.159 697.033C339.406 693.61 337.477 686.091 340.915 680.282L564.164 214.872C565.808 212.114 568.466 210.119 571.643 209.301C574.808 208.489 578.112 208.962 580.927 210.621L1046.3 433.86L1046.29 433.879Z" fill="white"/>
<path d="M1051.17 439.396C1050.12 437.563 1048.62 435.953 1046.71 434.738L1046.66 434.704L599.359 205.362C593.085 201.367 584.664 203.246 580.647 209.564L351.271 656.913C349.359 659.922 348.715 663.563 349.506 667.105C350.286 670.654 352.413 673.678 355.473 675.625L802.822 905.001C805.831 906.913 809.472 907.557 813.021 906.777C816.563 905.986 819.594 903.871 821.541 900.811L1050.92 453.462C1053.71 449.089 1053.63 443.656 1051.18 439.407L1051.17 439.396ZM1046 435.907C1048.74 437.657 1050.64 440.37 1051.34 443.554C1052.05 446.744 1051.47 450.017 1049.72 452.77L820.348 900.119C818.626 902.827 815.902 904.733 812.718 905.429C809.528 906.144 806.255 905.558 803.502 903.815L356.165 674.432C353.469 672.704 351.551 669.987 350.855 666.802C350.14 663.612 350.726 660.339 352.469 657.586L581.833 210.244C585.423 204.616 592.988 202.931 598.679 206.548L1046 435.907Z" fill="white"/>
<path d="M1050.55 441.201C1049.56 439.488 1048.19 437.963 1046.44 436.781L1046.39 436.747L617.161 201.291C614.22 199.275 610.609 198.519 607.036 199.201C603.475 199.877 600.388 201.897 598.339 204.889L362.843 634.19C358.655 640.322 360.26 648.79 366.442 653.012L795.736 888.495C798.677 890.511 802.287 891.267 805.861 890.585C809.422 889.909 812.509 887.889 814.558 884.897L1050.04 455.603C1053.05 451.198 1053.07 445.569 1050.55 441.201ZM1045.71 437.933C1051.25 441.732 1052.68 449.337 1048.9 454.883L813.413 884.177C809.655 889.679 802.045 891.121 796.472 887.324L367.167 651.848C361.664 648.09 360.222 640.48 364.019 634.908L599.503 205.614C601.308 202.969 604.087 201.158 607.289 200.547C610.491 199.936 613.74 200.615 616.436 202.455L1045.7 437.921L1045.71 437.933Z" fill="white"/>
<path d="M1049.96 443.006C1049.02 441.387 1047.76 439.973 1046.2 438.829L1046.14 438.795L634.957 197.237C628.968 192.856 620.453 194.186 616.026 200.233L374.434 611.472C372.328 614.338 371.466 617.93 372.014 621.518C372.574 625.098 374.494 628.259 377.423 630.392L788.669 871.995C794.658 876.376 803.173 875.046 807.6 868.999L1049.2 457.754C1051.31 454.887 1052.17 451.295 1051.62 447.708C1051.36 446.018 1050.8 444.439 1049.97 442.999L1049.96 443.006ZM1045.42 439.959C1048.04 441.877 1049.75 444.711 1050.26 447.925C1050.75 451.147 1049.98 454.37 1048.06 457.004L806.453 868.249C802.516 873.633 794.866 874.812 789.437 870.853L378.18 629.256C375.598 627.367 373.87 624.54 373.375 621.319C372.88 618.098 373.653 614.874 375.576 612.241L617.173 200.983C621.11 195.6 628.761 194.42 634.189 198.38L1045.41 439.966L1045.42 439.959Z" fill="white"/>
<path d="M1049.36 444.807C1048.5 443.307 1047.35 441.984 1045.94 440.893L1045.89 440.847L652.747 193.17C649.943 190.98 646.374 189.993 642.775 190.437C639.175 190.881 635.959 192.706 633.724 195.568L386.013 588.758C383.823 591.561 382.836 595.13 383.28 598.73C383.724 602.33 385.549 605.545 388.41 607.781L781.607 855.504C787.454 860.079 796.017 859.023 800.637 853.118L1048.36 459.921C1050.55 457.117 1051.54 453.549 1051.09 449.949C1050.87 448.109 1050.28 446.371 1049.38 444.812L1049.36 444.807ZM1045.13 441.982C1047.69 443.996 1049.31 446.866 1049.7 450.1C1050.1 453.345 1049.22 456.539 1047.21 459.109L799.498 852.3C795.393 857.558 787.693 858.513 782.376 854.362L389.193 606.662C386.673 604.689 385.041 601.807 384.643 598.562C384.245 595.316 385.131 592.123 387.138 589.552L634.842 196.35C636.815 193.83 639.697 192.198 642.943 191.8C646.188 191.402 649.381 192.288 651.952 194.295L1045.12 441.989L1045.13 441.982Z" fill="white"/>
<path d="M1048.77 446.579C1047.98 445.223 1046.95 443.991 1045.69 442.928L1045.63 442.882L670.555 189.109C664.838 184.348 656.228 185.129 651.415 190.892L397.583 566.034C395.291 568.77 394.192 572.308 394.527 575.939C394.855 579.558 396.572 582.835 399.378 585.167L774.52 838.998C777.256 841.29 780.794 842.389 784.425 842.054C788.045 841.726 791.334 840.002 793.66 837.215L1047.49 462.073C1051.21 457.608 1051.55 451.381 1048.78 446.584L1048.77 446.579ZM1044.84 444.008C1050 448.34 1050.7 456.062 1046.38 461.241L792.545 836.383C790.488 838.84 787.546 840.396 784.288 840.69C781.03 840.984 777.855 839.992 775.335 837.908L400.193 584.077C397.736 582.021 396.181 579.078 395.887 575.821C395.593 572.563 396.584 569.388 398.675 566.879L652.511 191.719C656.796 186.579 664.53 185.875 669.728 190.205L1044.84 444.019L1044.84 444.008Z" fill="white"/>
<path d="M1048.19 448.355C1047.48 447.117 1046.57 445.978 1045.43 444.98L1045.38 444.935L688.349 185.041C685.675 182.665 682.16 181.441 678.522 181.654C674.883 181.866 671.539 183.495 669.11 186.215L409.166 543.32C404.2 548.9 404.719 557.551 410.34 562.558L767.426 822.497C770.099 824.873 773.614 826.097 777.253 825.884C780.891 825.672 784.235 824.043 786.664 821.324L1046.6 464.237C1050.58 459.769 1051.03 453.332 1048.18 448.381L1048.19 448.355ZM1044.55 446.031C1049.58 450.538 1050.05 458.298 1045.55 463.352L785.613 820.438C783.48 822.845 780.464 824.3 777.194 824.49C773.923 824.68 770.755 823.59 768.309 821.415L411.211 561.483C406.19 557.019 405.741 549.233 410.234 544.179L670.185 187.086C672.319 184.68 675.334 183.224 678.605 183.034C681.875 182.844 685.044 183.934 687.489 186.109L1044.55 446.031Z" fill="white"/>
<path d="M1047.65 450.161C1046.99 449.019 1046.16 447.972 1045.18 447.046L1045.13 447.012L706.151 180.999C703.534 178.527 700.049 177.191 696.391 177.287C692.733 177.384 689.328 178.906 686.803 181.569L420.744 520.607C415.591 526.058 415.836 534.755 421.314 539.955L760.352 806.014C765.791 811.174 774.495 810.941 779.7 805.444L1045.76 466.406C1048.23 463.789 1049.57 460.304 1049.47 456.646C1049.41 454.335 1048.78 452.125 1047.65 450.173L1047.65 450.161ZM1044.26 448.056C1046.64 450.314 1047.99 453.373 1048.08 456.656C1048.17 459.95 1046.97 463.089 1044.7 465.478L778.641 804.516C776.412 806.867 773.36 808.232 770.058 808.313C766.764 808.406 763.625 807.203 761.235 804.933L422.198 538.874C417.302 534.242 417.097 526.411 421.769 521.475L687.828 182.438C690.045 180.094 693.109 178.722 696.404 178.629C699.699 178.536 702.837 179.739 705.227 182.009L1044.24 448.051L1044.26 448.056Z" fill="white"/>
<path d="M1047.1 451.922C1046.51 450.898 1045.78 449.95 1044.92 449.085L1044.89 449.037L723.936 176.918C718.628 171.572 709.889 171.524 704.49 176.879L432.323 497.861C426.966 503.176 426.948 511.914 432.284 517.307L753.266 789.474C755.816 792.049 759.271 793.498 762.959 793.51C766.636 793.53 770.109 792.096 772.724 789.507L1044.89 468.524C1047.47 465.975 1048.91 462.52 1048.93 458.831C1048.93 456.368 1048.3 453.986 1047.1 451.903L1047.1 451.922ZM1043.97 450.078C1046.29 452.42 1047.57 455.539 1047.56 458.846C1047.54 462.153 1046.24 465.273 1043.89 467.612L771.722 788.594C769.408 790.882 766.289 792.159 762.971 792.155C759.663 792.144 756.543 790.835 754.204 788.488L433.222 516.321C430.934 514.008 429.657 510.889 429.661 507.57C429.672 504.263 430.981 501.143 433.328 498.804L705.495 177.822C710.306 173.045 718.183 173.083 723 177.935L1043.96 450.085L1043.97 450.078Z" fill="white"/>
<path d="M1046.53 453.676C1046.02 452.783 1045.4 451.934 1044.67 451.153L1044.64 451.105L741.738 172.878C736.565 167.327 727.773 167.024 722.182 172.236L443.907 475.163C438.356 480.336 438.059 489.14 443.264 494.72L746.191 772.994C748.685 775.664 752.11 777.226 755.806 777.361C759.502 777.496 763.037 776.17 765.736 773.643L1044.01 470.716C1048.77 466.268 1049.68 459.146 1046.53 453.695L1046.53 453.676ZM1043.68 452.105C1048.35 457.132 1048.07 465.043 1043.05 469.734L764.772 772.661C762.37 774.905 759.196 776.086 755.858 775.967C752.52 775.847 749.437 774.437 747.16 772.006L444.233 493.732C439.568 488.729 439.856 480.818 444.888 476.12L723.163 173.193C728.153 168.534 736.076 168.816 740.774 173.848L1043.68 452.105Z" fill="white"/>
<path d="M1046.01 455.425C1045.55 454.639 1045.03 453.895 1044.4 453.194L1044.38 453.158L759.529 168.811C754.491 163.055 745.659 162.489 739.874 167.559L455.491 452.431C452.719 454.857 451.044 458.251 450.8 461.979C450.556 465.706 451.769 469.291 454.239 472.085L739.111 756.468C744.16 762.217 752.98 762.79 758.765 757.72L1043.15 472.849C1048.2 468.426 1049.26 461.066 1046.01 455.425ZM1043.4 454.122C1047.95 459.335 1047.43 467.284 1042.23 471.857L757.844 756.729C752.662 761.276 744.706 760.744 740.133 755.545L455.261 471.162C453.08 468.676 451.987 465.435 452.192 462.08C452.415 458.729 453.924 455.653 456.445 453.451L740.828 168.579C746.01 164.032 753.978 164.557 758.539 169.763L1043.39 454.129L1043.4 454.122Z" fill="white"/>
<path d="M1045.5 457.191C1045.11 456.512 1044.66 455.868 1044.15 455.24L1044.13 455.204L777.339 164.749C774.968 161.881 771.604 160.094 767.857 159.734C764.13 159.379 760.471 160.491 757.574 162.894L467.083 429.71C461.141 434.617 460.282 443.492 465.221 449.463L732.038 739.954C736.944 745.896 745.819 746.755 751.79 741.816L1042.28 475C1045.15 472.629 1046.94 469.265 1047.3 465.518C1047.58 462.577 1046.95 459.69 1045.5 457.179L1045.5 457.191ZM1043.1 456.134C1045.24 458.74 1046.25 462.029 1045.94 465.397C1045.62 468.771 1044 471.818 1041.39 473.976L750.898 740.792C745.536 745.221 737.523 744.452 733.08 739.066L466.264 448.576C461.847 443.207 462.604 435.201 467.99 430.758L758.48 163.942C761.062 161.817 764.363 160.8 767.737 161.12C771.112 161.441 774.152 163.05 776.317 165.673L1043.11 456.146L1043.1 456.134Z" fill="white"/>
<path d="M1044.99 458.932C1044.66 458.373 1044.3 457.822 1043.88 457.299L1043.87 457.275L795.141 160.706C792.839 157.735 789.486 155.83 785.739 155.359C781.992 154.889 778.266 155.913 775.283 158.222L478.69 406.964C472.542 411.735 471.435 420.674 476.213 426.834L724.955 723.427C729.727 729.575 738.653 730.689 744.825 725.904L1041.41 477.15C1044.38 474.848 1046.29 471.495 1046.76 467.748C1047.14 464.652 1046.52 461.586 1044.99 458.932ZM1042.81 458.158C1044.91 460.864 1045.82 464.196 1045.39 467.583C1044.97 470.97 1043.24 473.999 1040.55 476.094L743.961 724.848C738.408 729.165 730.361 728.145 726.037 722.58L477.295 425.987C472.985 420.446 473.998 412.387 479.563 408.063L776.156 159.321C778.826 157.24 782.182 156.318 785.569 156.743C788.957 157.167 791.985 158.894 794.08 161.588L1042.82 458.17L1042.81 458.158Z" fill="white"/>
<path d="M1044.47 460.66C1044.22 460.22 1043.93 459.781 1043.63 459.356L812.946 156.667C808.298 150.321 799.336 148.926 792.978 153.58L490.276 384.267C483.93 388.915 482.535 397.877 487.19 404.235L717.876 706.936C720.123 710.003 723.434 712.027 727.212 712.607C730.99 713.187 734.766 712.277 737.844 710.023L1040.55 479.336C1046.47 474.997 1048.07 466.897 1044.48 460.672L1044.47 460.66ZM1042.53 460.179C1046.71 465.938 1045.47 474.016 1039.73 478.222L737.026 708.908C731.294 713.107 723.189 711.851 718.984 706.106L488.297 403.405C484.099 397.672 485.355 389.568 491.099 385.363L793.801 154.676C799.533 150.478 807.638 151.734 811.843 157.478L1042.53 460.179Z" fill="white"/>
<path d="M1043.99 462.381C1043.8 462.048 1043.59 461.721 1043.38 461.402L830.741 152.611C828.555 149.43 825.262 147.3 821.477 146.598C817.691 145.895 813.849 146.717 810.668 148.903L501.871 361.528C495.319 366.04 493.662 375.042 498.174 381.594L710.81 690.384C712.989 693.554 716.289 695.695 720.074 696.398C723.86 697.1 727.702 696.278 730.883 694.093L1039.68 481.468C1045.91 477.172 1047.73 468.825 1044 462.374L1043.99 462.381ZM1042.24 462.184C1046.3 468.11 1044.82 476.265 1038.89 480.34L730.089 692.964C727.215 694.941 723.745 695.691 720.314 695.053C716.883 694.416 713.898 692.489 711.922 689.615L499.285 380.825C495.185 374.877 496.698 366.751 502.641 362.67L811.438 150.045C814.312 148.069 817.783 147.318 821.213 147.956C824.644 148.594 827.617 150.527 829.606 153.394L1042.24 462.184Z" fill="white"/>
</g>
<defs>
<clipPath id="clip0_434_6066">
<rect width="948" height="969" fill="white" transform="matrix(0.5 0.866025 0.866025 -0.5 0 484.5)"/>
</clipPath>
</defs>
</svg>
