<svg width="898" height="868" viewBox="0 0 898 868" fill="none" xmlns="http://www.w3.org/2000/svg">
<g opacity="0.1" clip-path="url(#clip0_2002_77)">
<path d="M31.0836 318.208C30.1783 321.587 30.5527 325.309 32.4381 328.56L339.454 861.031C343.209 867.543 351.577 869.786 358.085 866.023L890.201 558.41C896.709 554.648 898.954 546.27 895.199 539.758L588.18 7.29995C584.425 0.787724 576.056 -1.4546 569.548 2.30765L37.4326 309.92C34.1707 311.806 31.9856 314.842 31.0836 318.208ZM895.298 549.774C894.481 552.826 892.493 555.578 889.549 557.28L357.433 864.893C351.546 868.296 343.98 866.269 340.571 860.375L33.552 327.916C30.1584 322.013 32.1845 314.451 38.0753 311.035L570.191 3.42223C576.078 0.0187165 583.644 2.0459 587.053 7.94052L894.069 540.411C895.767 543.357 896.113 546.734 895.295 549.787L895.298 549.774Z" fill="#294596"/>
<path d="M32.8056 317.458C31.907 320.812 32.3135 324.313 33.9691 327.369L324.85 851.854C326.557 855.018 329.403 857.342 332.864 858.377C336.325 859.412 339.978 859.031 343.155 857.311L867.293 565.869C870.467 564.162 872.778 561.308 873.814 557.843C874.853 554.419 874.471 550.723 872.755 547.543L581.874 23.0578C580.167 19.8944 577.32 17.57 573.859 16.5349C570.398 15.4999 566.746 15.881 563.569 17.601L39.4276 309.055C36.2537 310.762 33.9426 313.617 32.9066 317.081C32.8729 317.207 32.8393 317.333 32.8056 317.458ZM35.1047 326.744C33.5626 323.867 33.2127 320.556 34.1545 317.443C35.0871 314.314 37.1886 311.74 40.0543 310.179L564.196 18.7247C567.058 17.1762 570.363 16.8367 573.489 17.7684C576.614 18.7001 579.184 20.8023 580.742 23.6699L871.619 548.168C873.165 551.032 873.49 554.337 872.57 557.469C871.637 560.598 869.535 563.172 866.67 564.733L342.519 856.171C339.657 857.72 336.352 858.059 333.226 857.128C330.101 856.196 327.531 854.094 325.973 851.226L35.0922 326.741L35.1047 326.744Z" fill="#294596"/>
<path d="M34.5314 316.695C33.6799 319.873 34.023 323.209 35.5039 326.164L310.242 842.69C311.836 845.876 314.6 848.259 317.996 849.385C321.392 850.51 325.027 850.245 328.218 848.623L844.373 573.325C850.949 570.011 853.624 561.937 850.311 555.328L575.582 38.8184C572.279 32.2253 564.211 29.5653 557.606 32.8844L41.4422 308.167C38.2576 309.764 35.8755 312.532 34.7526 315.92C34.6727 316.168 34.5895 316.428 34.5222 316.679L34.5314 316.695ZM36.667 325.587C35.2229 322.696 34.9858 319.415 35.9928 316.36C37.0031 313.292 39.1506 310.798 42.0396 309.351L558.204 34.0676C564.144 31.0687 571.432 33.4792 574.418 39.4488L849.154 555.933C852.143 561.89 849.735 569.174 843.769 572.167L327.614 847.465C324.738 848.916 321.46 849.155 318.395 848.145C315.331 847.136 312.84 844.988 311.396 842.097L36.6637 325.6L36.667 325.587Z" fill="#294596"/>
<path d="M36.2405 315.929C35.4328 318.943 35.7001 322.111 37.0313 324.972L37.0279 324.984L295.622 833.509C297.105 836.706 299.773 839.145 303.105 840.36C306.437 841.576 310.044 841.412 313.256 839.917L821.458 580.796C824.657 579.297 827.091 576.637 828.308 573.302C829.515 569.95 829.362 566.355 827.87 563.141L569.279 54.6044C567.796 51.4068 565.128 48.9687 561.796 47.7529C558.464 46.537 554.857 46.7012 551.645 48.1966L43.4552 307.321C40.2565 308.82 37.8227 311.479 36.6061 314.815C36.4675 315.182 36.3507 315.568 36.2497 315.945L36.2405 315.929ZM38.2161 324.414C36.8699 321.509 36.7207 318.252 37.8213 315.248C38.9127 312.229 41.1153 309.831 44.0183 308.481L552.209 49.3572C555.083 48.0139 558.35 47.8661 561.35 48.9661C564.366 50.0569 566.761 52.2602 568.107 55.1653L826.698 563.702C828.038 566.579 828.187 569.836 827.083 572.852C825.992 575.872 823.789 578.27 820.886 579.619L312.696 838.744C309.821 840.087 306.554 840.235 303.554 839.135C300.551 838.047 298.144 835.841 296.798 832.935L38.2161 324.414Z" fill="#294596"/>
<path d="M37.9534 315.162C37.1894 318.013 37.4059 321.02 38.5783 323.77L38.5716 323.796L281.018 824.331C283.872 830.993 291.65 834.086 298.325 831.204L798.538 588.251C805.186 585.374 808.29 577.603 805.414 570.923L562.974 70.3617C561.589 67.15 559.032 64.6475 555.749 63.3504C552.482 62.0441 548.892 62.092 545.654 63.4861L45.4411 306.439C42.2317 307.827 39.7302 310.388 38.4325 313.675C38.2352 314.161 38.0721 314.669 37.9375 315.171L37.9534 315.162ZM39.7656 323.254C37.1839 317.231 39.9756 310.225 45.994 307.637L546.207 64.6843C549.096 63.4389 552.323 63.3883 555.274 64.5695C558.226 65.7506 560.541 68 561.789 70.9193L804.235 571.455C806.811 577.449 804.016 584.468 797.998 587.056L297.794 830.025C291.804 832.607 284.794 829.813 282.212 823.79L39.7815 323.245L39.7656 323.254Z" fill="#294596"/>
<path d="M39.6434 314.376C38.94 317.001 39.0363 319.854 40.1083 322.578L40.1267 322.61L266.413 815.154C267.687 818.377 270.161 820.938 273.364 822.334C276.567 823.731 280.129 823.784 283.391 822.504L775.617 595.706C778.837 594.428 781.397 591.95 782.794 588.744C784.191 585.537 784.246 581.971 782.969 578.707L556.668 86.1189C555.393 82.8964 552.919 80.3353 549.717 78.9386C546.514 77.542 542.951 77.4893 539.69 78.7695L47.4668 305.555C43.4823 307.126 40.6868 310.482 39.6502 314.351L39.6434 314.376ZM41.3174 322.081C38.9474 316.021 41.9288 309.159 47.9754 306.768L540.199 79.9827C543.101 78.8354 546.302 78.8853 549.192 80.1443C552.082 81.4033 554.314 83.7112 555.465 86.6446L781.782 579.224C782.926 582.129 782.862 585.329 781.615 588.226C780.356 591.119 778.049 593.355 775.118 594.508L282.879 821.303C279.976 822.45 276.775 822.4 273.885 821.141C270.995 819.882 268.763 817.574 267.612 814.641L41.3174 322.081Z" fill="#294596"/>
<path d="M41.3112 313.612C40.6279 316.162 40.7302 318.842 41.6386 321.374L41.6536 321.418L251.804 805.977C252.968 809.21 255.343 811.839 258.498 813.317C261.648 814.807 265.181 814.973 268.456 813.791L752.702 603.177C759.43 600.752 762.942 593.266 760.518 586.505L550.365 101.905C547.955 95.1877 540.485 91.6513 533.713 94.0908L49.4634 304.717C46.2327 305.884 43.6051 308.263 42.1269 311.421C41.7869 312.138 41.5189 312.887 41.3204 313.628L41.3112 313.612ZM42.8626 320.921C41.8101 317.973 41.9621 314.797 43.2993 311.964C44.6364 309.132 47.0017 306.979 49.947 305.924L534.196 95.2973C540.239 93.1201 546.972 96.2973 549.159 102.389L759.312 586.989C761.484 593.037 758.306 599.778 752.218 601.97L267.972 812.584C265.056 813.634 261.882 813.483 259.041 812.143C256.199 810.803 254.062 808.44 253.01 805.492L42.866 320.908L42.8626 320.921Z" fill="#294596"/>
<path d="M43.0027 312.826C42.3767 315.163 42.3931 317.712 43.1986 320.176L43.2135 320.22L237.188 796.796C239.369 803.56 246.704 807.302 253.498 805.084L729.782 610.632C733.036 609.579 735.71 607.279 737.287 604.202C738.868 601.112 739.136 597.603 738.071 594.302L544.069 117.678C541.888 110.914 534.553 107.172 527.759 109.39L51.4874 303.845C47.1877 305.238 44.1032 308.719 43.0027 312.826ZM44.4158 319.748C42.4501 313.634 45.8019 307.047 51.9299 305.054L528.202 110.599C534.27 108.631 540.873 111.989 542.848 118.118L736.85 594.742C737.802 597.663 737.547 600.825 736.128 603.609C734.71 606.392 732.302 608.453 729.33 609.407L253.055 803.875C246.987 805.843 240.384 802.485 238.409 796.356L44.4158 319.748Z" fill="#294596"/>
<path d="M44.6501 312.044C44.0476 314.293 44.0667 316.681 44.7302 318.972L44.7453 319.016L222.581 787.62C223.521 790.887 225.718 793.63 228.743 795.289C231.767 796.947 235.252 797.342 238.565 796.372L706.859 618.088C710.124 617.146 712.865 614.945 714.524 611.916C716.183 608.888 716.579 605.399 715.612 602.084L537.749 133.433C535.791 126.635 528.605 122.69 521.768 124.668L53.4704 302.965C50.2056 303.907 47.4645 306.108 45.8058 309.137C45.289 310.062 44.9034 311.049 44.6375 312.041L44.6501 312.044ZM45.9625 318.589C45.1059 315.613 45.4586 312.49 46.9545 309.768C48.4505 307.045 50.9168 305.067 53.8903 304.208L522.188 125.912C525.117 125.067 528.253 125.41 530.972 126.905C533.691 128.401 535.666 130.869 536.522 133.845L714.395 602.512C715.236 605.443 714.893 608.582 713.397 611.305C711.901 614.027 709.434 616.005 706.461 616.864L238.15 795.157C235.221 796.002 232.086 795.659 229.367 794.164C226.648 792.668 224.673 790.2 223.817 787.224L45.9717 318.605L45.9625 318.589Z" fill="#294596"/>
<path d="M46.3049 311.249C45.7496 313.321 45.7053 315.544 46.266 317.768L46.2776 317.825L207.978 778.443C208.82 781.725 210.905 784.532 213.866 786.281C216.826 788.03 220.296 788.529 223.62 787.669L683.937 625.556C690.767 623.805 694.923 616.774 693.166 609.882L531.454 149.207C530.625 145.928 528.527 143.118 525.566 141.369C522.606 139.62 519.136 139.121 515.813 139.98L55.4918 302.106C50.8711 303.291 47.4535 306.912 46.289 311.258L46.3049 311.249ZM47.5166 317.416C45.9585 311.237 49.693 304.927 55.874 303.339L516.195 141.214C519.138 140.468 522.247 140.91 524.917 142.487C527.575 144.061 529.466 146.587 530.225 149.577L691.937 610.253C693.493 616.391 689.755 622.713 683.574 624.301L223.25 786.439C220.307 787.185 217.198 786.743 214.528 785.166C211.87 783.592 209.978 781.066 209.207 778.072L47.5007 317.425L47.5166 317.416Z" fill="#294596"/>
<path d="M47.9412 310.462C47.4229 312.396 47.3496 314.477 47.8117 316.566L47.8234 316.623L193.373 769.266C194.894 776.135 201.777 780.51 208.685 778.969L661.028 633.014C664.318 632.28 667.182 630.275 669.021 627.375C670.873 624.479 671.474 621.032 670.73 617.682L525.169 164.983C524.438 161.691 522.436 158.825 519.543 156.973C516.647 155.134 513.207 154.522 509.861 155.267L57.5174 301.221C52.7288 302.281 49.1461 305.965 47.9446 310.449L47.9412 310.462ZM49.0648 316.256C48.404 313.252 48.9484 310.166 50.6123 307.57C52.2671 304.957 54.847 303.158 57.852 302.482L510.195 156.528C513.156 155.868 516.25 156.414 518.844 158.078C521.453 159.733 523.249 162.314 523.922 165.322L669.471 618.018C670.116 620.978 669.581 624.079 667.917 626.675C666.263 629.288 663.683 631.087 660.678 631.763L208.347 777.72C202.185 779.085 196.004 775.154 194.62 768.927L49.0648 316.256Z" fill="#294596"/>
<path d="M49.564 309.672C49.0793 311.481 48.977 313.419 49.3531 315.377L49.3647 315.434L178.754 760.085C179.371 763.401 181.278 766.321 184.122 768.254C186.953 770.184 190.366 770.897 193.736 770.265L638.102 640.482C645 639.18 649.589 632.44 648.281 625.48L518.868 180.769C518.25 177.453 516.343 174.532 513.499 172.599C510.668 170.669 507.255 169.957 503.885 170.589L59.5318 300.375C54.5751 301.308 50.7992 305.062 49.564 309.672ZM50.612 315.095C49.4489 308.847 53.5822 302.806 59.8162 301.622L504.17 171.836C510.359 170.667 516.408 174.792 517.593 181.06L647.019 625.774C648.183 631.969 644.059 638.026 637.796 639.215L193.443 769.002C190.468 769.564 187.4 768.917 184.852 767.185C182.305 765.452 180.588 762.825 180.016 759.79L50.6087 315.108L50.612 315.095Z" fill="#294596"/>
<path d="M51.1629 308.863C50.7052 310.571 50.6021 312.361 50.8831 314.173L50.8948 314.23L164.149 750.895C165.221 757.833 171.8 762.638 178.801 761.552L615.165 647.934C618.489 647.424 621.466 645.597 623.498 642.83C625.518 640.059 626.348 636.66 625.817 633.274L512.555 196.539C511.482 189.601 504.903 184.796 497.902 185.881L61.5258 299.496C58.2022 300.006 55.2249 301.833 53.1925 304.6C52.2375 305.906 51.5576 307.34 51.1504 308.859L51.1629 308.863ZM52.157 313.935C51.6921 310.903 52.4404 307.859 54.2507 305.369C56.0735 302.882 58.7452 301.242 61.7908 300.766L498.167 187.151C504.398 186.181 510.298 190.509 511.278 196.789L624.552 633.527C625.015 636.518 624.279 639.566 622.456 642.052C620.633 644.539 617.962 646.179 614.916 646.655L178.536 760.283C172.306 761.252 166.406 756.925 165.426 750.645L52.1696 313.939L52.157 313.935Z" fill="#294596"/>
<path d="M52.7683 308.054C52.3442 309.636 52.2247 311.287 52.4356 312.959L52.4438 313.028L149.546 741.718C149.956 745.058 151.681 748.105 154.383 750.216C157.085 752.327 160.453 753.256 163.86 752.836L592.247 655.389C595.585 654.978 598.63 653.249 600.74 650.543C602.85 647.837 603.78 644.465 603.363 641.055L506.252 212.296C505.404 205.324 498.976 200.304 491.941 201.165L63.5422 298.609C60.2045 299.02 57.1596 300.749 55.0494 303.455C53.9671 304.834 53.2001 306.392 52.7592 308.038L52.7683 308.054ZM53.7086 312.775C53.3449 309.716 54.1777 306.708 56.0783 304.282C57.9822 301.844 60.7089 300.3 63.7687 299.922L492.155 202.474C498.414 201.701 504.197 206.213 504.975 212.546L602.092 641.28C602.457 644.286 601.621 647.306 599.717 649.744C597.813 652.182 595.086 653.727 592.026 654.105L163.636 751.565C160.634 751.931 157.617 751.096 155.182 749.192C152.747 747.287 151.206 744.559 150.83 741.496L53.7211 312.778L53.7086 312.775Z" fill="#294596"/>
<path d="M54.3496 307.266C53.9659 308.698 53.8297 310.21 53.9638 311.767L53.9721 311.836L134.93 732.525C135.567 739.534 141.842 744.77 148.911 744.133L569.321 662.857C572.681 662.559 575.782 660.926 577.985 658.272C580.186 655.631 581.229 652.289 580.913 648.852L499.95 228.082C499.654 224.718 498.025 221.616 495.375 219.411C492.737 217.21 489.386 216.165 485.969 216.474L65.5595 297.75C60.0871 298.249 55.6967 302.188 54.3404 307.25L54.3496 307.266ZM55.2552 311.615C54.6989 305.26 59.3957 299.625 65.7484 299.052L486.158 217.776C489.174 217.508 492.18 218.434 494.554 220.417C496.927 222.399 498.386 225.186 498.677 228.266L579.64 649.036C579.907 652.056 578.979 655.065 576.998 657.442C575.016 659.819 572.231 661.281 569.157 661.561L148.732 742.846C142.433 743.42 136.794 738.719 136.216 732.344L55.2585 311.602L55.2552 311.615Z" fill="#294596"/>
<path d="M55.9232 306.462C55.5732 307.769 55.4206 309.141 55.5097 310.565L55.5179 310.635L120.325 723.347C120.523 726.725 122.053 729.895 124.626 732.187C127.199 734.478 130.523 735.625 133.964 735.429L546.399 670.312C553.449 669.899 558.885 663.763 558.477 656.653L493.662 243.871C493.464 240.493 491.934 237.323 489.361 235.031C486.788 232.74 483.464 231.594 480.023 231.789L67.6034 296.897C61.9607 297.23 57.3518 301.231 55.9517 306.457L55.9232 306.462ZM56.8035 310.454C56.4556 304.074 61.3328 298.569 67.7137 298.192L480.133 233.084C483.168 232.901 486.156 233.944 488.468 236.004C490.78 238.064 492.169 240.913 492.349 244.004L557.177 656.789C557.547 663.135 552.642 668.646 546.261 669.023L133.829 734.127C130.794 734.311 127.806 733.268 125.494 731.208C123.181 729.148 121.793 726.298 121.613 723.208L56.8035 310.454Z" fill="#294596"/>
<path d="M57.4927 305.618C57.1696 306.824 57.0221 308.077 57.057 309.352L57.0687 309.409L105.725 714.145C105.821 717.55 107.256 720.775 109.765 723.157C112.273 725.539 115.566 726.798 119.034 726.704L523.476 677.767C530.563 677.566 536.214 671.581 536.031 664.438L487.366 259.632C487.182 252.542 481.21 246.876 474.057 247.073L69.6148 296.01C66.2132 296.108 62.9904 297.546 60.6095 300.059C59.1076 301.649 58.048 303.546 57.496 305.606L57.4927 305.618ZM58.3499 309.294C58.2675 306.189 59.4081 303.237 61.5452 300.982C63.6856 298.715 66.5878 297.42 69.7024 297.339L474.145 248.402C477.206 248.32 480.158 249.448 482.418 251.602C484.682 253.743 485.974 256.647 486.053 259.765L534.717 664.57C534.892 670.944 529.793 676.323 523.372 676.5L118.93 725.437C115.881 725.523 112.916 724.392 110.653 722.25C108.389 720.109 107.096 717.205 107.017 714.087L58.3591 309.31L58.3499 309.294Z" fill="#294596"/>
<path d="M59.0455 304.808C58.7561 305.888 58.6047 307.005 58.6038 308.163L58.5904 308.213L91.1202 704.98C91.0929 712.108 96.9006 717.985 104.088 718.013L500.54 685.244C507.673 685.27 513.527 679.434 513.567 672.257L481.051 275.439C481.069 272.011 479.729 268.731 477.272 266.255C474.828 263.783 471.549 262.42 468.071 262.403L71.6187 295.172C68.1939 295.156 64.9159 296.499 62.4414 298.96C60.7905 300.604 59.6186 302.619 59.0296 304.817L59.0455 304.808ZM59.9025 308.134C59.918 305.015 61.1498 302.073 63.368 299.868C65.5861 297.662 68.5467 296.449 71.6787 296.454L468.131 263.685C471.206 263.701 474.144 264.932 476.359 267.155C478.561 269.374 479.771 272.336 479.765 275.472L512.281 672.289C512.263 675.367 511.031 678.308 508.81 680.527C506.592 682.732 503.631 683.945 500.499 683.94L104.047 716.71C97.638 716.689 92.4001 711.394 92.4256 704.926L59.915 308.137L59.9025 308.134Z" fill="#294596"/>
<path d="M60.5892 304.01C60.3368 304.952 60.1814 305.934 60.1514 306.949L60.138 306.999L76.52 695.778C76.2651 702.952 81.9369 709.036 89.1578 709.288L477.62 692.686C484.788 692.938 490.872 687.244 491.124 680.029L474.756 291.2C474.875 287.745 473.63 284.41 471.251 281.847C468.872 279.284 465.623 277.808 462.13 277.694L73.6679 294.295C67.5113 294.086 62.1465 298.248 60.6051 304.001L60.5892 304.01ZM61.4492 306.974C61.6831 300.48 67.1647 295.379 73.6551 295.597L462.118 278.996C465.223 279.101 468.134 280.433 470.284 282.746C472.434 285.059 473.552 288.064 473.448 291.213L489.816 680.042C489.589 686.51 484.108 691.611 477.605 691.39L89.1422 707.991C82.6927 707.771 77.5873 702.283 77.8119 695.774L61.4492 306.974Z" fill="#294596"/>
<path d="M62.1109 303.193C61.8888 304.022 61.7419 304.872 61.6921 305.76L61.682 305.798L61.9129 686.6C61.4303 693.822 66.9537 700.108 74.2086 700.584L454.681 700.151C458.156 700.382 461.544 699.23 464.199 696.899C466.854 694.568 468.441 691.358 468.658 687.835L468.438 306.995C468.908 299.771 463.397 293.488 456.142 293.011L75.6691 293.445C69.3396 293.028 63.7062 297.24 62.1109 303.193ZM62.9832 305.81C63.4287 299.279 69.0909 294.307 75.6221 294.725L456.095 294.291C462.597 294.714 467.558 300.392 467.137 306.929L467.358 687.77C467.153 690.892 465.717 693.792 463.337 695.9C460.948 697.993 457.883 699.043 454.726 698.83L74.2532 699.263C67.7505 698.84 62.7776 693.159 63.2107 686.625L62.9957 305.813L62.9832 305.81Z" fill="#294596"/>
<path d="M63.6251 302.348C63.4333 303.064 63.3042 303.797 63.2219 304.555L63.2118 304.593L47.2949 677.407C46.9609 680.912 48.0143 684.358 50.277 687.105C52.5306 689.836 55.7187 691.538 59.261 691.868L431.744 707.602C438.995 708.293 445.502 702.929 446.194 695.629L462.121 322.777C462.815 315.519 457.46 309.008 450.167 308.32L77.6846 292.585C74.1832 292.253 70.7401 293.309 67.9947 295.576C65.8374 297.354 64.3319 299.71 63.6218 302.36L63.6251 302.348ZM64.5246 304.662C64.8372 301.488 66.361 298.611 68.8191 296.564C71.2897 294.52 74.4097 293.566 77.5965 293.868L450.079 309.602C456.623 310.225 461.463 316.099 460.831 322.674L444.904 695.526C444.266 702.072 438.407 706.924 431.839 706.295L59.3558 690.56C56.2101 690.256 53.3247 688.729 51.2841 686.257C49.2435 683.785 48.2883 680.675 48.5951 677.473L64.528 304.649L64.5246 304.662Z" fill="#294596"/>
<path d="M65.1384 301.527C64.9802 302.118 64.8563 302.731 64.7825 303.357L64.7758 303.382L32.6986 668.204C32.2507 671.733 33.2178 675.25 35.4068 678.071C37.5958 680.892 40.7695 682.699 44.3067 683.148L408.784 715.06C416.082 715.979 422.798 710.737 423.723 703.419L455.807 338.572C456.729 331.267 451.509 324.551 444.186 323.625L79.7058 291.726C76.1812 291.28 72.6671 292.25 69.8473 294.443C67.5193 296.255 65.8889 298.726 65.1384 301.527ZM66.0752 303.502C66.4799 300.285 68.1007 297.448 70.6491 295.465C73.1974 293.482 76.3758 292.611 79.5767 293.011L444.057 324.91C450.654 325.735 455.349 331.799 454.518 338.415L422.434 703.262C421.609 709.853 415.545 714.569 408.936 713.741L44.4585 681.829C41.2827 681.436 38.4241 679.808 36.4448 677.259C34.4654 674.709 33.5965 671.528 33.9979 668.324L66.0786 303.489L66.0752 303.502Z" fill="#294596"/>
<path d="M66.6314 300.716C66.5068 301.181 66.404 301.665 66.3263 302.156L18.0979 659.002C16.9608 666.358 22.0163 673.286 29.3765 674.423L385.864 722.502C393.211 723.637 400.136 718.572 401.276 711.204L449.508 354.346C450.057 350.791 449.198 347.222 447.061 344.307C444.924 341.392 441.793 339.476 438.229 338.925L81.7419 290.845C74.8845 289.789 68.3949 294.135 66.6347 300.704L66.6314 300.716ZM67.6088 302.338C68.6646 295.688 74.8935 291.11 81.5434 292.138L438.031 340.218C444.668 341.242 449.243 347.503 448.213 354.16L399.981 711.019C398.954 717.663 392.696 722.247 386.046 721.219L29.5591 673.139C22.9218 672.115 18.3463 665.854 19.377 659.197L67.6088 302.338Z" fill="#294596"/>
<path d="M68.1047 299.886C68.0104 300.238 67.9287 300.593 67.8595 300.951L3.49593 649.812C2.82959 653.403 3.60581 657.031 5.66568 660.033C7.72555 663.035 10.842 665.054 14.429 665.719L362.914 729.963C370.308 731.325 377.435 726.409 378.799 719.007L443.163 370.146C443.826 366.568 443.053 362.928 440.993 359.926C438.933 356.924 435.817 354.904 432.23 354.239L83.7449 289.995C76.7088 288.702 69.9162 293.075 68.0921 299.883L68.1047 299.886ZM69.1411 301.187C70.3927 294.508 76.8341 290.042 83.5213 291.282L432.006 355.526C435.248 356.125 438.068 357.944 439.935 360.665C441.801 363.387 442.507 366.672 441.907 369.917L377.543 718.778C376.306 725.501 369.863 729.927 363.163 728.684L14.6778 664.44C11.4362 663.841 8.61565 662.021 6.74949 659.3C4.88334 656.579 4.18949 653.296 4.7775 650.048L69.1411 301.187Z" fill="#294596"/>
</g>
<defs>
<clipPath id="clip0_2002_77">
<rect width="898" height="868" fill="white"/>
</clipPath>
</defs>
</svg>
