<svg width="783" height="1203" viewBox="0 0 783 1203" fill="none" xmlns="http://www.w3.org/2000/svg">
<g clip-path="url(#clip0_434_6091)">
<path d="M270.005 873.117C268.684 795.244 262.825 708.804 299.833 631.208C347.898 530.362 480.248 446.714 516.105 397.121C565.534 326.516 523.221 216.42 398.989 216.42C312.403 216.42 257.733 269.933 236.534 375.469L231.144 402.236L0 371.398C2.76972 322.872 3.25975 206.808 115.37 100.335C185.507 33.7577 278.144 0 390.744 0C503.343 0 604.587 34.1413 675.407 101.465C795.592 215.78 810.633 369.395 742.647 484.968C681.607 588.713 538.519 681.568 513.954 736.872C500.382 767.39 503.003 839.807 503.535 873.117H270.005Z" fill="url(#paint0_linear_434_6091)"/>
<path d="M503.512 945.598H269.492V1202.98H503.512V945.598Z" fill="url(#paint1_linear_434_6091)"/>
</g>
<defs>
<linearGradient id="paint0_linear_434_6091" x1="391.497" y1="0" x2="391.497" y2="873.117" gradientUnits="userSpaceOnUse">
<stop stop-color="#1853D6" stop-opacity="0.07"/>
<stop offset="1" stop-color="#022E9E" stop-opacity="0"/>
</linearGradient>
<linearGradient id="paint1_linear_434_6091" x1="386.502" y1="945.598" x2="386.502" y2="1202.98" gradientUnits="userSpaceOnUse">
<stop stop-color="#1853D6" stop-opacity="0.07"/>
<stop offset="1" stop-color="#022E9E" stop-opacity="0"/>
</linearGradient>
<clipPath id="clip0_434_6091">
<rect width="783" height="1203" fill="white"/>
</clipPath>
</defs>
</svg>
