<svg width="11" height="14" viewBox="0 0 11 14" fill="none" xmlns="http://www.w3.org/2000/svg">
<g clip-path="url(#clip0_434_7642)">
<path d="M5.5 0C2.46095 0 0 2.39587 0 5.35455C0 6.43328 0.329197 7.44165 0.895256 8.28197L5.44781 14L10.1047 8.28197C10.6708 7.44165 11 6.43719 11 5.35455C11 2.39587 8.53905 0 5.5 0ZM5.5 8.00838C3.92226 8.00838 2.64562 6.76549 2.64562 5.22948C2.64562 3.69347 3.92226 2.45059 5.5 2.45059C7.07774 2.45059 8.35438 3.69347 8.35438 5.22948C8.35438 6.76549 7.07774 8.00838 5.5 8.00838Z" fill="#626262"/>
</g>
<defs>
<clipPath id="clip0_434_7642">
<rect width="11" height="14" fill="white"/>
</clipPath>
</defs>
</svg>
