<svg width="70" height="70" viewBox="0 0 70 70" fill="none" xmlns="http://www.w3.org/2000/svg">
<g clip-path="url(#clip0_434_1842)">
<path d="M35.0111 16.272C24.6752 16.272 16.2715 24.6757 16.2715 35.0116C16.2715 45.3475 24.6752 53.7512 35.0111 53.7512C45.347 53.7512 53.7507 45.3475 53.7507 35.0116C53.7507 24.6757 45.347 16.272 35.0111 16.272Z" stroke="#294596" stroke-linecap="round" stroke-linejoin="round"/>
<path d="M25.8633 34.8486L31.8693 40.7382L43.8812 28.8892" stroke="#294596" stroke-linecap="round" stroke-linejoin="round"/>
<path d="M40.5054 3.63143L44.5094 8.12428C45.2078 8.91577 46.232 9.33479 47.2796 9.26496L53.2856 8.91577C57.6853 8.6597 61.3401 12.2912 61.084 16.7142L60.7349 22.7202C60.665 23.7678 61.1073 24.7921 61.8755 25.4904L66.3684 29.4944C69.6507 32.4276 69.6507 37.5722 66.3684 40.5054L61.8755 44.5094C61.084 45.2078 60.665 46.232 60.7349 47.2796L61.084 53.2856C61.3401 57.6853 57.7086 61.3401 53.2856 61.084L47.2796 60.7349C46.232 60.665 45.2078 61.1073 44.5094 61.8755L40.5054 66.3684C37.5722 69.6507 32.4276 69.6507 29.4944 66.3684L25.4904 61.8755C24.7921 61.084 23.7678 60.665 22.7202 60.7349L16.7142 61.084C12.3145 61.3401 8.6597 57.7086 8.91577 53.2856L9.26496 47.2796C9.33479 46.232 8.89249 45.2078 8.12428 44.5094L3.63143 40.5054C0.349093 37.5722 0.349093 32.4276 3.63143 29.4944L8.12428 25.4904C8.91577 24.7921 9.33479 23.7678 9.26496 22.7202L8.91577 16.7142C8.6597 12.3145 12.2912 8.6597 16.7142 8.91577L22.7202 9.26496C23.7678 9.33479 24.7921 8.89249 25.4904 8.12428L29.4944 3.63143C32.4276 0.349093 37.5722 0.349093 40.5054 3.63143Z" stroke="#294596" stroke-linecap="round" stroke-linejoin="round"/>
</g>
<defs>
<clipPath id="clip0_434_1842">
<rect width="70" height="70" fill="white"/>
</clipPath>
</defs>
</svg>
