<svg width="70" height="70" viewBox="0 0 70 70" fill="none" xmlns="http://www.w3.org/2000/svg">
<g clip-path="url(#clip0_434_1847)">
<path d="M9.12695 17.0673V15.1235C9.12695 11.8049 11.8056 9.12622 15.1242 9.12622H45.0633C53.7866 9.12622 60.8506 16.1902 60.8506 24.9136V54.7104C60.8506 58.1001 58.1009 60.8499 54.7111 60.8499H52.9095" stroke="#294596" stroke-linecap="round" stroke-linejoin="round"/>
<path d="M17.0684 9.12638V7.25371C17.0684 3.91134 19.7944 1.1853 23.1368 1.1853H48.0267C59.4998 1.1853 68.8157 10.5013 68.8157 21.9743V47.3858C68.8157 50.4437 66.3267 52.9327 63.2688 52.9327H60.8747" stroke="#294596" stroke-linecap="round" stroke-linejoin="round"/>
<path d="M42.0999 17.0674H12.0186C6.03567 17.0674 1.18555 21.9175 1.18555 27.9004V57.9817C1.18555 63.9646 6.03567 68.8148 12.0186 68.8148H42.0999C48.0828 68.8148 52.9329 63.9646 52.9329 57.9817V27.9004C52.9329 21.9175 48.0828 17.0674 42.0999 17.0674Z" stroke="#294596" stroke-linecap="round" stroke-linejoin="round"/>
</g>
<defs>
<clipPath id="clip0_434_1847">
<rect width="70" height="70" fill="white"/>
</clipPath>
</defs>
</svg>
