<svg width="70" height="70" viewBox="0 0 70 70" fill="none" xmlns="http://www.w3.org/2000/svg">
<g clip-path="url(#clip0_434_1861)">
<path d="M34.9762 27.0801C42.1374 27.0801 47.9426 21.2807 47.9426 14.1267C47.9426 6.97278 42.1374 1.17334 34.9762 1.17334C27.815 1.17334 22.0098 6.97278 22.0098 14.1267C22.0098 21.2807 27.815 27.0801 34.9762 27.0801Z" stroke="#294596" stroke-linecap="round" stroke-linejoin="round"/>
<path d="M11.8867 40.2916C16.5377 32.3835 25.135 27.0801 34.9773 27.0801C44.8196 27.0801 53.4404 32.4069 58.0914 40.3151" stroke="#294596" stroke-linecap="round" stroke-linejoin="round"/>
<path d="M12.1436 47.9885L14.7275 55.9436H23.1134L16.3248 60.8715L18.9322 68.8266L12.1436 63.8987L5.35504 68.8266L7.96242 60.8715L1.17383 55.9436H9.55974L12.1436 47.9885Z" stroke="#294596" stroke-linecap="round" stroke-linejoin="round"/>
<path d="M57.8546 47.9885L60.4385 55.9436H68.8244L62.0358 60.8715L64.6432 68.8266L57.8546 63.8987L51.066 68.8266L53.6734 60.8715L46.8848 55.9436H55.2707L57.8546 47.9885Z" stroke="#294596" stroke-linecap="round" stroke-linejoin="round"/>
<path d="M34.9993 38.3674L37.5832 46.3225H45.9691L39.1806 51.2504L41.7879 59.2055L34.9993 54.2776L28.2108 59.2055L30.8181 51.2504L24.0295 46.3225H32.4154L34.9993 38.3674Z" stroke="#294596" stroke-linecap="round" stroke-linejoin="round"/>
</g>
<defs>
<clipPath id="clip0_434_1861">
<rect width="70" height="70" fill="white"/>
</clipPath>
</defs>
</svg>
