<svg width="71" height="70" viewBox="0 0 71 70" fill="none" xmlns="http://www.w3.org/2000/svg">
<g clip-path="url(#clip0_434_1854)">
<path d="M53.9749 19.5437C53.9749 9.39604 45.8006 1.17456 35.7111 1.17456C25.6216 1.17456 17.4473 9.39604 17.4473 19.5437C17.4473 21.7283 17.8209 23.8189 18.5216 25.7685C18.8252 26.6142 19.1989 27.4363 19.596 28.2115C20.0163 29.0101 20.4834 29.7618 20.9973 30.443L35.6877 53.6276L50.3548 30.443C50.8686 29.7383 51.3358 29.0101 51.7562 28.2115V28.188C52.1765 27.4128 52.5502 26.5907 52.8305 25.745C53.5312 23.7954 53.9048 21.7048 53.9048 19.5202L53.9749 19.5437Z" stroke="#294596" stroke-linecap="round" stroke-linejoin="round"/>
<path d="M35.6411 28.8691C40.7748 28.8691 44.9365 24.6834 44.9365 19.5201C44.9365 14.3568 40.7748 10.1711 35.6411 10.1711C30.5074 10.1711 26.3457 14.3568 26.3457 19.5201C26.3457 24.6834 30.5074 28.8691 35.6411 28.8691Z" stroke="#294596" stroke-linecap="round" stroke-linejoin="round"/>
<path d="M29.124 43.2449L1.16772 53.6509L35.6401 68.8254L69.8322 53.6509L42.3197 43.2449" stroke="#294596" stroke-linecap="round" stroke-linejoin="round"/>
</g>
<defs>
<clipPath id="clip0_434_1854">
<rect width="71" height="70" fill="white"/>
</clipPath>
</defs>
</svg>
