<svg width="347" height="751" viewBox="0 0 347 751" fill="none" xmlns="http://www.w3.org/2000/svg">
<g opacity="0.2" clip-path="url(#clip0_434_1948)">
<path d="M749.332 375.494C749.332 378.423 748.224 381.352 745.997 383.573L382.732 747.657C378.289 752.11 371.044 752.11 366.601 747.657L3.3361 383.583C-1.1068 379.131 -1.1068 371.869 3.3361 367.416L366.601 3.3421C371.044 -1.11072 378.289 -1.11072 382.732 3.3421L745.997 367.416C748.224 369.648 749.332 372.577 749.332 375.494ZM1.08749 375.494C1.08749 378.14 2.09774 380.796 4.10737 382.81L367.372 746.884C371.391 750.913 377.942 750.913 381.972 746.884L745.236 382.81C749.255 378.771 749.255 372.217 745.236 368.178L381.972 4.10419C377.952 0.0759874 371.402 0.0759877 367.372 4.10419L4.10736 368.189C2.09774 370.203 1.08749 372.86 1.08749 375.505L1.08749 375.494Z" fill="white"/>
<path d="M748.102 374.515C748.102 377.422 747.016 380.165 745.017 382.278L396.515 743.401C394.451 745.59 391.649 746.852 388.629 746.94C385.609 747.027 382.741 745.927 380.547 743.848L20.2259 394.58C18.0316 392.511 16.7823 389.703 16.6954 386.676C16.5977 383.682 17.7057 380.775 19.7805 378.576L368.283 17.4523C370.346 15.264 373.149 14.0011 376.169 13.914C379.189 13.8269 382.057 14.9265 384.251 17.0059L744.572 366.284C746.766 368.353 748.015 371.162 748.102 374.188C748.102 374.297 748.102 374.406 748.102 374.515ZM744.235 381.526C746.103 379.534 747.103 376.932 747.016 374.21C746.94 371.478 745.799 368.941 743.822 367.057L383.501 17.7789C381.524 15.9064 378.928 14.9156 376.202 14.9919C373.475 15.0681 370.944 16.2112 369.065 18.1926L20.5626 379.327C18.6942 381.309 17.7165 383.911 17.7817 386.643C17.8578 389.376 18.9984 391.913 20.9754 393.796L381.307 743.064C383.284 744.936 385.88 745.927 388.607 745.851C391.333 745.775 393.865 744.631 395.744 742.65L744.246 381.526L744.235 381.526Z" fill="white"/>
<path d="M746.875 373.524C746.875 376.278 745.876 378.902 744.04 380.97L410.3 739.155C408.323 741.386 405.575 742.715 402.588 742.889C399.6 743.063 396.722 742.061 394.495 740.058L37.1288 405.575C32.5339 401.471 32.1211 394.361 36.2272 389.735L369.956 31.5612C374.051 26.9451 381.144 26.5422 385.761 30.6575L743.138 365.13C745.365 367.111 746.69 369.866 746.864 372.849C746.875 373.066 746.886 373.295 746.886 373.513L746.875 373.524ZM743.225 380.252C745.017 378.227 745.919 375.625 745.767 372.936C745.615 370.236 744.42 367.753 742.399 365.957L385.022 31.485C380.873 27.7725 374.464 28.1427 370.76 32.3233L37.0311 390.475C33.3268 394.645 33.6962 401.057 37.8675 404.77L395.234 739.252C397.243 741.049 399.839 741.952 402.533 741.8C405.227 741.648 407.704 740.45 409.497 738.425L743.225 380.263L743.225 380.252Z" fill="white"/>
<path d="M745.66 372.533C745.66 375.146 744.758 377.65 743.063 379.675L743.063 379.686L424.098 734.898C422.207 737.163 419.524 738.556 416.57 738.818C413.615 739.079 410.736 738.164 408.466 736.259L54.0218 416.582C51.7623 414.677 50.3719 411.999 50.1112 409.038C49.8613 406.066 50.763 403.191 52.664 400.916L371.63 45.6931C373.52 43.4285 376.203 42.035 379.158 41.7737C382.113 41.5125 384.991 42.4269 387.262 44.3322L741.695 364.009C743.954 365.914 745.345 368.592 745.605 371.554C745.638 371.88 745.649 372.218 745.649 372.544L745.66 372.533ZM742.227 378.968C743.943 376.91 744.769 374.308 744.53 371.641C744.302 368.962 743.042 366.545 740.989 364.825L386.555 45.1487C384.524 43.4395 381.917 42.6121 379.256 42.8516C376.583 43.0802 374.172 44.3431 372.455 46.4008L53.4895 401.624C51.7841 403.659 50.9585 406.261 51.1975 408.94C51.4256 411.618 52.6857 414.035 54.7388 415.755L409.172 735.432C411.203 737.141 413.81 737.968 416.472 737.729C419.133 737.5 421.556 736.237 423.272 734.18L742.227 378.968Z" fill="white"/>
<path d="M744.442 371.543C744.442 374.014 743.616 376.398 742.073 378.369L742.073 378.391L437.881 730.641C434.133 735.41 427.181 736.227 422.412 732.449L70.923 427.578C66.176 423.812 65.3504 416.855 69.1198 412.075L373.312 59.8029C375.126 57.5057 377.733 56.0359 380.666 55.6984C383.588 55.35 386.478 56.1666 388.792 57.9956L740.281 362.866C742.573 364.684 744.04 367.297 744.376 370.236C744.431 370.672 744.452 371.118 744.452 371.554L744.442 371.543ZM741.226 377.694C744.615 373.383 743.877 367.112 739.575 363.715L388.086 58.8448C386.022 57.2117 383.426 56.4714 380.786 56.7871C378.146 57.1028 375.789 58.4202 374.149 60.5105L69.9562 412.761C66.5779 417.051 67.3166 423.333 71.6183 426.729L423.097 731.61C427.377 734.996 433.645 734.256 437.034 729.945L741.215 377.683L741.226 377.694Z" fill="white"/>
<path d="M743.247 370.542C743.247 372.817 742.552 375.103 741.096 377.074L741.074 377.096L451.666 726.385C449.939 728.715 447.386 730.25 444.497 730.685C441.607 731.121 438.718 730.392 436.36 728.65L87.8258 438.575C85.5011 436.844 83.9695 434.285 83.535 431.389C83.1005 428.493 83.8283 425.598 85.5663 423.235L374.996 73.913C376.723 71.5832 379.276 70.0481 382.166 69.6126C385.055 69.1771 387.945 69.9066 390.302 71.6485L738.837 361.712C741.715 363.846 743.247 367.167 743.247 370.52L743.247 370.542ZM740.227 376.41C743.453 372.022 742.53 365.828 738.163 362.583L389.628 72.5195C387.532 70.9626 384.936 70.3094 382.329 70.7013C379.721 71.0933 377.419 72.476 375.854 74.5989L86.4136 423.91C84.8602 426.011 84.2193 428.613 84.5995 431.226C84.9906 433.839 86.3702 436.147 88.4884 437.715L437.034 727.79C439.13 729.346 441.727 730 444.334 729.608C446.941 729.216 449.244 727.833 450.808 725.71L740.227 376.41Z" fill="white"/>
<path d="M742.064 369.561C742.064 371.771 741.401 373.916 740.119 375.767L740.098 375.799L465.452 722.128C463.812 724.49 461.324 726.101 458.457 726.613C455.589 727.136 452.699 726.504 450.309 724.839L104.719 449.581C99.8087 446.163 98.5921 439.347 102.014 434.405L376.67 88.0437C380.07 83.1337 386.87 81.8925 391.813 85.3328L737.404 360.601C739.761 362.245 741.369 364.738 741.879 367.612C741.999 368.266 742.053 368.93 742.053 369.572L742.064 369.561ZM739.229 375.135C740.717 372.98 741.282 370.378 740.815 367.798C740.348 365.217 738.903 362.964 736.752 361.472L391.161 86.2038C386.751 83.1337 380.624 84.2441 377.539 88.6969L102.883 435.058C99.8196 439.478 100.928 445.618 105.37 448.71L450.961 723.968C453.09 725.448 455.687 726.014 458.272 725.546C460.857 725.078 463.095 723.63 464.583 721.474L739.229 375.124L739.229 375.135Z" fill="white"/>
<path d="M740.869 368.558C740.869 370.583 740.304 372.641 739.12 374.459L739.098 374.492L479.248 717.87C476.022 722.867 469.287 724.304 464.279 721.038L121.621 460.576C119.221 459.019 117.559 456.58 116.95 453.75C116.342 450.908 116.885 448.012 118.46 445.573L378.343 102.163C381.569 97.166 388.304 95.7288 393.312 98.9949L735.959 359.457C739.131 361.514 740.869 364.998 740.869 368.558ZM738.23 373.85C741.141 369.331 739.859 363.278 735.34 360.339L392.693 99.8768C388.217 96.9699 382.156 98.2546 379.234 102.784L119.351 446.194C117.95 448.35 117.472 450.963 118.015 453.521C118.558 456.08 120.057 458.268 122.251 459.683L464.898 720.156C469.374 723.063 475.435 721.778 478.357 717.249L738.23 373.85Z" fill="white"/>
<path d="M739.706 367.569C739.706 369.518 739.173 371.445 738.141 373.154L738.12 373.187L493.032 713.614C491.565 716.053 489.197 717.795 486.395 718.481C483.592 719.167 480.692 718.731 478.226 717.229L138.523 471.573C136.09 470.103 134.351 467.73 133.667 464.921C132.983 462.112 133.417 459.205 134.916 456.734L380.037 116.274C383.089 111.201 389.748 109.568 394.843 112.649L734.546 358.315C736.979 359.785 738.717 362.158 739.401 364.967C739.619 365.827 739.716 366.709 739.716 367.569L739.706 367.569ZM737.229 372.577C738.565 370.356 738.956 367.754 738.337 365.228C737.718 362.703 736.153 360.569 733.937 359.23L394.234 113.563C392.051 112.246 389.444 111.843 386.924 112.464C384.403 113.084 382.274 114.652 380.938 116.873L135.807 457.344C134.493 459.532 134.091 462.145 134.71 464.671C135.329 467.197 136.893 469.33 139.109 470.67L478.823 716.336C481.007 717.653 483.614 718.056 486.134 717.436C488.654 716.815 490.783 715.247 492.119 713.026L737.218 372.588L737.229 372.577Z" fill="white"/>
<path d="M738.543 366.568C738.543 368.364 738.098 370.172 737.163 371.848L737.142 371.892L506.817 709.358C505.426 711.829 503.134 713.647 500.364 714.42C497.594 715.193 494.683 714.845 492.184 713.43L155.425 482.581C150.287 479.685 148.451 473.098 151.362 467.905L381.709 130.395C383.089 127.924 385.392 126.106 388.162 125.333C390.932 124.56 393.843 124.908 396.341 126.323L733.101 357.183C736.577 359.143 738.554 362.812 738.554 366.579L738.543 366.568ZM736.229 371.293C738.825 366.633 737.174 360.722 732.525 358.098L395.766 127.238C393.55 125.997 390.943 125.681 388.444 126.378C385.957 127.075 383.882 128.708 382.622 130.961L152.275 468.471C149.69 473.098 151.341 479.02 155.99 481.644L492.749 712.515C494.965 713.756 497.572 714.072 500.071 713.375C502.558 712.678 504.633 711.045 505.904 708.792L736.24 371.304L736.229 371.293Z" fill="white"/>
<path d="M737.392 365.577C737.392 367.253 737.001 368.952 736.175 370.541L736.153 370.585L520.602 705.1C517.886 710.326 511.379 712.373 506.133 709.629L172.317 493.576C169.819 492.269 167.939 490.027 167.081 487.283C166.212 484.539 166.473 481.622 167.798 479.074L383.372 144.515C384.675 142.011 386.913 140.127 389.65 139.256C392.388 138.396 395.299 138.647 397.841 139.975L731.656 356.029C735.295 357.923 737.392 361.679 737.392 365.566L737.392 365.577ZM735.23 370.018C736.414 367.732 736.642 365.119 735.86 362.659C735.089 360.187 733.394 358.173 731.113 356.976L397.298 140.922C395.049 139.746 392.431 139.518 389.976 140.302C387.51 141.075 385.501 142.773 384.306 145.059L168.743 479.618C167.581 481.872 167.342 484.496 168.124 486.956C168.895 489.428 170.59 491.442 172.871 492.639L506.676 708.693C511.358 711.132 517.202 709.292 519.668 704.556L735.23 370.018Z" fill="white"/>
<path d="M736.251 364.586C736.251 366.154 735.914 367.743 735.186 369.246L735.164 369.289L534.397 700.844C533.181 703.391 531.008 705.34 528.292 706.287C525.587 707.234 522.676 707.071 520.091 705.83L189.219 504.583C183.929 502.035 181.68 495.59 184.244 490.244L385.044 158.646C386.261 156.099 388.433 154.15 391.149 153.203C393.854 152.256 396.765 152.419 399.35 153.66L730.211 354.907C734.013 356.736 736.251 360.59 736.251 364.586ZM734.23 368.745C736.522 363.944 734.491 358.163 729.711 355.854L398.851 154.607C394.104 152.321 388.324 154.346 386.011 159.158L185.2 490.756C182.919 495.514 184.939 501.306 189.741 503.625L520.601 704.872C522.883 705.971 525.501 706.113 527.934 705.264C530.367 704.414 532.322 702.662 533.441 700.332L734.23 368.756L734.23 368.745Z" fill="white"/>
<path d="M735.133 363.584C735.133 365.065 734.829 366.534 734.21 367.939L734.188 367.982L548.184 696.575C545.816 701.954 539.461 704.414 534.04 702.019L206.134 515.578C203.56 514.446 201.55 512.323 200.507 509.645C199.475 506.966 199.541 504.038 200.703 501.414L386.729 172.767C389.097 167.388 395.452 164.928 400.873 167.323L728.79 353.764C731.364 354.896 733.374 357.019 734.416 359.697C734.905 360.96 735.144 362.267 735.144 363.584L735.133 363.584ZM733.232 367.471C734.264 365.119 734.319 362.495 733.395 360.089C732.461 357.683 730.658 355.778 728.301 354.733L400.384 168.292C395.561 166.158 389.858 168.379 387.707 173.246L201.67 501.893C200.649 504.212 200.583 506.836 201.518 509.242C202.452 511.648 204.255 513.553 206.612 514.598L534.529 701.05C539.352 703.184 545.055 700.963 547.206 696.096L733.222 367.471L733.232 367.471Z" fill="white"/>
<path d="M734.014 362.582C734.014 363.954 733.753 365.315 733.221 366.622L733.199 366.676L561.968 692.319C560.915 694.932 558.862 697.022 556.222 698.143C553.582 699.265 550.66 699.286 547.999 698.209L223.037 526.574C220.429 525.518 218.344 523.46 217.225 520.815C216.106 518.169 216.084 515.241 217.16 512.573L388.413 186.876C390.607 181.422 396.886 178.754 402.382 180.975L727.355 352.61C729.962 353.666 732.048 355.724 733.167 358.369C733.743 359.719 734.025 361.145 734.025 362.572L734.014 362.582ZM732.233 366.197C733.189 363.802 733.167 361.189 732.157 358.816C731.146 356.431 729.278 354.591 726.888 353.622L401.926 181.988C397.038 180.006 391.389 182.402 389.39 187.355L218.137 513.031C217.192 515.382 217.214 518.006 218.224 520.39C219.235 522.775 221.103 524.615 223.493 525.583L548.455 697.229C550.801 698.176 553.419 698.154 555.798 697.142C558.177 696.129 560.013 694.257 560.98 691.861L732.222 366.197L732.233 366.197Z" fill="white"/>
<path d="M732.906 361.603C732.906 362.845 732.689 364.097 732.244 365.327L732.222 365.381L575.764 688.052C573.733 693.582 567.53 696.457 561.957 694.41L239.939 537.582C237.289 536.613 235.138 534.621 233.932 531.997C232.726 529.384 232.607 526.455 233.606 523.744L390.085 201.009C391.052 198.352 393.04 196.196 395.658 194.988C398.265 193.78 401.198 193.66 403.892 194.65L725.91 351.478C730.223 353.068 732.917 357.205 732.917 361.593L732.906 361.603ZM731.233 364.924C733.058 359.905 730.484 354.331 725.476 352.491L403.458 195.663C401.079 194.792 398.45 194.89 396.103 195.979C393.757 197.067 391.976 199.005 391.074 201.433L234.595 524.169C233.726 526.553 233.823 529.188 234.91 531.54C235.996 533.891 237.929 535.677 240.352 536.569L562.381 693.408C567.345 695.237 572.918 692.657 574.765 687.627L731.233 364.913L731.233 364.924Z" fill="white"/>
<path d="M731.808 360.613C731.808 361.745 731.634 362.888 731.254 364.02L731.232 364.075L589.548 683.795C588.657 686.484 586.735 688.716 584.16 690.011C581.586 691.307 578.653 691.514 575.915 690.61L256.841 548.578C251.236 546.716 248.172 540.576 250.041 534.914L391.746 215.14C392.637 212.451 394.56 210.219 397.134 208.923C399.709 207.628 402.642 207.421 405.379 208.324L724.443 350.346C728.929 351.838 731.786 356.073 731.786 360.602L731.808 360.613ZM730.233 363.65C731.895 358.566 729.147 353.057 724.074 351.369L405.01 209.348C402.598 208.542 399.959 208.738 397.645 209.903C395.331 211.068 393.593 213.071 392.778 215.532L251.062 535.306C249.389 540.358 252.159 545.878 257.232 547.565L576.306 689.587C578.718 690.392 581.358 690.196 583.671 689.032C585.985 687.867 587.723 685.863 588.538 683.403L730.233 363.65Z" fill="white"/>
<path d="M730.723 359.588C730.723 360.634 730.571 361.679 730.267 362.702L730.245 362.746L603.335 679.515C602.52 682.248 600.662 684.545 598.12 685.928C595.579 687.311 592.646 687.615 589.865 686.788L273.745 559.573C268.064 557.874 264.794 551.81 266.489 546.073L393.421 229.249C395.105 223.555 401.155 220.267 406.891 221.976L723.011 349.191C725.737 350.008 728.029 351.87 729.409 354.417C730.278 356.028 730.723 357.792 730.723 359.578L730.723 359.588ZM729.235 362.376C729.974 359.882 729.691 357.248 728.453 354.961C727.215 352.664 725.151 350.988 722.652 350.247L406.532 223.032C404.077 222.303 401.449 222.575 399.156 223.827C396.864 225.068 395.192 227.137 394.453 229.641L267.52 546.465C266 551.582 268.954 557.036 274.103 558.571L590.223 685.786C592.667 686.516 595.307 686.244 597.599 685.002C599.891 683.761 601.564 681.693 602.303 679.189L729.224 362.386L729.235 362.376Z" fill="white"/>
<path d="M729.646 358.598C729.646 359.534 729.527 360.471 729.277 361.407L729.277 361.45L617.118 675.27C615.597 681.04 609.633 684.535 603.822 682.999L290.657 570.591C284.888 569.066 281.423 563.079 282.944 557.265L395.103 243.402C395.831 240.626 397.623 238.263 400.143 236.794C402.653 235.324 405.596 234.932 408.41 235.672L721.575 348.081C724.345 348.81 726.702 350.607 728.169 353.133C729.146 354.82 729.657 356.704 729.657 358.609L729.646 358.598ZM728.234 361.102C728.897 358.576 728.538 355.931 727.224 353.666C725.909 351.402 723.78 349.779 721.249 349.104L408.084 236.696C405.596 236.042 402.957 236.402 400.686 237.719C398.427 239.036 396.808 241.17 396.135 243.707L283.976 557.57C283.324 560.063 283.683 562.708 284.997 564.984C286.311 567.248 288.441 568.871 290.972 569.546L604.137 681.954C609.318 683.326 614.695 680.18 616.075 674.943L728.223 361.102L728.234 361.102Z" fill="white"/>
<path d="M728.572 357.618C728.572 358.435 728.485 359.262 728.289 360.09L728.289 360.133L630.904 670.991C629.557 676.849 623.658 680.539 617.771 679.178L307.56 581.576C301.716 580.226 298.033 574.303 299.391 568.414L396.777 257.512C397.428 254.692 399.156 252.264 401.632 250.708C404.109 249.151 407.053 248.661 409.899 249.325L720.109 346.927C725.128 348.092 728.561 352.621 728.561 357.608L728.572 357.618ZM727.235 359.829C728.452 354.527 725.128 349.214 719.838 347.983L409.627 250.381C407.096 249.793 404.457 250.239 402.219 251.644C399.981 253.048 398.428 255.237 397.83 257.806L300.445 568.708C299.228 573.988 302.552 579.301 307.853 580.531L618.064 678.133C623.321 679.353 628.633 676.021 629.861 670.708L727.235 359.829Z" fill="white"/>
<path d="M727.518 356.627C727.518 357.346 727.453 358.064 727.301 358.794L727.301 358.826L644.689 666.734C643.516 672.679 637.693 676.565 631.73 675.379L324.474 592.582C321.617 592.016 319.129 590.351 317.489 587.89C315.849 585.43 315.262 582.49 315.849 579.594L398.461 271.654C399.645 265.709 405.456 261.823 411.42 263.009L718.676 345.806C723.879 346.84 727.518 351.467 727.518 356.627ZM726.247 358.554C727.301 353.176 723.803 347.929 718.437 346.851L411.181 264.055C405.837 262.988 400.601 266.504 399.525 271.882L316.913 579.823C316.403 582.392 316.935 585.049 318.402 587.27C319.879 589.48 322.128 590.993 324.724 591.505L631.98 674.301C637.324 675.368 642.571 671.851 643.635 666.473L726.236 358.554L726.247 358.554Z" fill="white"/>
<path d="M726.474 355.614C726.474 356.235 726.42 356.855 726.322 357.487L726.322 357.52L658.483 662.466C657.995 665.373 656.398 667.931 653.975 669.662C651.564 671.382 648.62 672.068 645.687 671.568L341.386 603.578C335.379 602.565 331.284 596.817 332.305 590.764L400.143 285.785C401.153 279.764 406.889 275.66 412.929 276.683L717.23 344.673C720.13 345.163 722.683 346.763 724.41 349.191C725.768 351.096 726.474 353.328 726.474 355.625L726.474 355.614ZM725.247 357.291C725.681 354.656 725.073 352 723.53 349.812C721.977 347.623 719.663 346.175 717.023 345.729L412.722 277.739C407.302 276.825 402.12 280.526 401.208 285.981L333.369 590.96C332.468 596.392 336.15 601.586 341.592 602.5L645.893 670.49C648.501 670.925 651.162 670.316 653.345 668.759C655.529 667.202 656.974 664.894 657.419 662.237L725.247 357.28L725.247 357.291Z" fill="white"/>
</g>
<defs>
<clipPath id="clip0_434_1948">
<rect width="751" height="347" fill="white" transform="translate(3.28273e-05 751) rotate(-90)"/>
</clipPath>
</defs>
</svg>
