<svg width="164" height="43" viewBox="0 0 164 43" fill="none" xmlns="http://www.w3.org/2000/svg">
<g clip-path="url(#clip0_434_2610)">
<path d="M0 29.0325C0 31.1419 1.64535 32.8522 3.67461 32.8522V22.12H4.71666V34.5625C4.71666 36.6719 6.36201 38.3822 8.39127 38.3822V22.12H9.70755V39.1661C9.70755 41.2754 11.3529 42.9857 13.3822 42.9857H25.0915C27.1208 42.9857 28.7662 41.2754 28.7662 39.1661H13.3822V38.0829H30.4252C32.4545 38.0829 34.0998 36.3726 34.0998 34.2632H13.3822V32.8949H34.8539C36.8832 32.8949 38.5286 31.1846 38.5286 29.0752V0H34.2507V29.0895H32.7561V0H28.4782V29.0895H26.9837V0H22.7058V8.20948H12.7652C10.7359 8.20948 9.09055 9.91979 9.09055 12.0292H22.7058V13.1124H7.41778C5.38851 13.1124 3.74317 14.8227 3.74317 16.9321H22.6921V18.3003H3.60605C1.61793 18.3003 0 19.9821 0 22.0487V29.0325ZM22.6921 29.0895H13.3959V22.1342H22.6921" fill="white"/>
<path d="M53.6243 8.60855H59.4104C64.8401 8.60855 68.6655 12.0149 68.6655 16.818C68.6655 21.6211 64.8401 25.056 59.4104 25.056H53.6243V8.60855ZM60 21.3503C62.7011 21.3503 64.6344 19.4548 64.6344 16.818C64.6344 14.1813 62.7011 12.3142 60 12.3142H57.5594V21.3361H60V21.3503Z" fill="white"/>
<path d="M70.4741 16.818C70.4741 12.2002 74.3681 8.3235 78.9751 8.3235C83.5821 8.3235 87.5035 12.2002 87.5035 16.818C87.5035 21.4359 83.6095 25.3411 78.9751 25.3411C74.3407 25.3411 70.4741 21.4359 70.4741 16.818ZM83.4312 16.818C83.4312 14.2383 81.3745 12.0292 78.9614 12.0292C76.5482 12.0292 74.4915 14.2241 74.4915 16.818C74.4915 19.412 76.5482 21.6354 78.9614 21.6354C81.3745 21.6354 83.4312 19.4262 83.4312 16.818Z" fill="white"/>
<path d="M88.6975 22.5903L90.905 19.8396C92.4407 21.1508 94.182 21.9204 96.1153 21.9204C97.5961 21.9204 98.3502 21.2933 98.3502 20.4097C98.3502 19.4262 97.6098 19.2125 95.3063 18.6424C91.9196 17.8585 89.4105 16.8893 89.4105 13.5969C89.4105 10.3046 91.8511 8.3235 95.4708 8.3235C98.1171 8.3235 100.188 9.10739 101.874 10.5754L99.8722 13.4972C98.4188 12.3427 96.8283 11.7441 95.3612 11.7441C94.0997 11.7441 93.373 12.3712 93.373 13.1836C93.373 14.1956 94.1272 14.5234 96.4855 15.0507C100.037 15.8346 102.313 16.8893 102.313 19.9821C102.313 23.2887 99.8996 25.3411 95.9782 25.3411C93.1674 25.3411 90.6171 24.3861 88.6975 22.5903Z" fill="white"/>
<path d="M108.483 12.2715H103.671V8.60855H117.217V12.2715H112.432V25.056H108.497V12.2715H108.483Z" fill="white"/>
<path d="M123.265 12.2714V14.8369H130.998V18.4998H123.265V21.3931H131.794V25.056H119.33V8.60851H131.794V12.2714H123.265Z" fill="white"/>
<path d="M138.141 12.2714V14.8369H145.874V18.4998H138.141V21.3931H146.669V25.056H134.206V8.60851H146.669V12.2714H138.141Z" fill="white"/>
<path d="M149.162 8.60851H153.097L159.981 18.3288V8.60851H163.916V25.056H159.981L153.097 15.3357V25.056H149.162V8.60851Z" fill="white"/>
<path d="M54.3533 31.5979V33.6075H57.548V34.2631H54.3533V36.3867H57.8908V37.0423H53.6677V30.928H57.8908V31.5836H54.3533V31.5979Z" fill="white"/>
<path d="M62.868 34.1348V37.0566H62.2235V34.2203C62.2235 33.4792 61.7711 32.9519 61.1266 32.9519C60.3862 32.9519 59.7555 33.4935 59.7555 34.1348V37.0566H59.1111V32.453H59.7555V33.1942C60.016 32.7096 60.5919 32.3533 61.2089 32.3533C62.1824 32.3533 62.868 33.0944 62.868 34.1348Z" fill="white"/>
<path d="M68.3374 32.4529V36.5577C68.3374 37.7406 67.4325 38.5815 66.1711 38.5815C65.4581 38.5815 64.7862 38.325 64.3886 37.9687L64.6765 37.4413C65.0193 37.7834 65.5541 37.9829 66.1025 37.9829C67.1171 37.9829 67.7204 37.4556 67.7204 36.5577V35.8165C67.3776 36.3724 66.8155 36.7144 66.1162 36.7144C64.9233 36.7144 64.0732 35.8023 64.0732 34.5195C64.0732 33.2368 64.9233 32.3389 66.1162 32.3389C66.8155 32.3389 67.3776 32.681 67.7204 33.2368V32.4387H68.3649L68.3374 32.4529ZM67.693 34.5338C67.693 33.6074 67.076 32.9518 66.1985 32.9518C65.321 32.9518 64.7177 33.6074 64.7177 34.5338C64.7177 35.4602 65.3347 36.1301 66.1985 36.1301C67.0623 36.1301 67.693 35.4745 67.693 34.5338Z" fill="white"/>
<path d="M69.6833 31.1703C69.6833 30.9422 69.8753 30.7285 70.1084 30.7285C70.3415 30.7285 70.5334 30.928 70.5334 31.1703C70.5334 31.4126 70.3415 31.6121 70.1084 31.6121C69.8753 31.6121 69.6833 31.4126 69.6833 31.1703ZM69.7793 32.453H70.4238V37.0566H69.7793V32.453Z" fill="white"/>
<path d="M75.5647 34.1348V37.0565H74.9203V34.2203C74.9203 33.4791 74.4678 32.9518 73.8234 32.9518C73.083 32.9518 72.4523 33.4934 72.4523 34.1348V37.0565H71.8079V32.453H72.4523V33.1941C72.7128 32.7095 73.2887 32.3532 73.9057 32.3532C74.8792 32.3532 75.5647 33.0943 75.5647 34.1348Z" fill="white"/>
<path d="M80.3356 36.0161L80.7332 36.4579C80.3493 36.8998 79.5678 37.1706 78.9508 37.1706C77.7716 37.1706 76.7158 36.1586 76.7158 34.7476C76.7158 33.3366 77.703 32.3532 78.8959 32.3532C80.2259 32.3532 80.9937 33.4079 80.9937 35.0184H77.374C77.4699 35.9163 78.0732 36.572 78.9508 36.572C79.4718 36.572 80.0751 36.3297 80.3493 36.0161H80.3356ZM77.374 34.4198H80.3493C80.267 33.5932 79.7871 32.9518 78.9096 32.9518C78.1281 32.9518 77.4836 33.5362 77.374 34.4198Z" fill="white"/>
<path d="M85.5202 36.0161L85.9178 36.4579C85.5339 36.8998 84.7523 37.1706 84.1353 37.1706C82.9562 37.1706 81.9004 36.1586 81.9004 34.7476C81.9004 33.3366 82.8876 32.3532 84.0805 32.3532C85.4105 32.3532 86.1783 33.4079 86.1783 35.0184H82.5585C82.6545 35.9163 83.2578 36.572 84.1353 36.572C84.6563 36.572 85.2596 36.3297 85.5339 36.0161H85.5202ZM82.5585 34.4198H85.5339C85.4516 33.5932 84.9717 32.9518 84.0942 32.9518C83.3127 32.9518 82.6682 33.5362 82.5585 34.4198Z" fill="white"/>
<path d="M89.7294 32.3532V32.9518C88.7285 32.9518 88.0155 33.5931 88.0155 34.491V37.0565H87.3711V32.4529H88.0155V33.3508C88.276 32.738 88.9205 32.3389 89.7294 32.3389V32.3532Z" fill="white"/>
<path d="M90.5906 31.1703C90.5906 30.9422 90.7825 30.7285 91.0156 30.7285C91.2487 30.7285 91.4407 30.928 91.4407 31.1703C91.4407 31.4126 91.2487 31.6121 91.0156 31.6121C90.7825 31.6121 90.5906 31.4126 90.5906 31.1703ZM90.6866 32.453H91.331V37.0566H90.6866V32.453Z" fill="white"/>
<path d="M96.4756 34.1348V37.0566H95.8312V34.2203C95.8312 33.4792 95.3787 32.9519 94.7343 32.9519C93.9939 32.9519 93.3632 33.4935 93.3632 34.1348V37.0566H92.7188V32.453H93.3632V33.1942C93.6237 32.7096 94.1996 32.3533 94.8166 32.3533C95.7901 32.3533 96.4756 33.0944 96.4756 34.1348Z" fill="white"/>
<path d="M101.945 32.453V36.5578C101.945 37.7407 101.04 38.5816 99.7785 38.5816C99.0655 38.5816 98.3937 38.3251 97.996 37.9688L98.284 37.4414C98.6267 37.7835 99.1615 37.983 99.7099 37.983C100.725 37.983 101.328 37.4557 101.328 36.5578V35.8166C100.985 36.3725 100.423 36.7145 99.7236 36.7145C98.5308 36.7145 97.6807 35.8024 97.6807 34.5196C97.6807 33.2369 98.5308 32.339 99.7236 32.339C100.423 32.339 100.985 32.6811 101.328 33.2369V32.4388H101.972L101.945 32.453ZM101.3 34.5339C101.3 33.6075 100.683 32.9519 99.8059 32.9519C98.9284 32.9519 98.3251 33.6075 98.3251 34.5339C98.3251 35.4603 98.9421 36.1302 99.8059 36.1302C100.67 36.1302 101.3 35.4746 101.3 34.5339Z" fill="white"/>
<path d="M105.991 30.9422H108.377C109.597 30.9422 110.543 31.7546 110.543 32.8948C110.543 34.035 109.597 34.8474 108.377 34.8474H106.663V37.0423H105.991V30.9279V30.9422ZM108.253 34.206C109.213 34.206 109.858 33.7214 109.858 32.909C109.858 32.0966 109.213 31.612 108.253 31.612H106.649V34.206H108.253Z" fill="white"/>
<path d="M114.944 36.0162L115.341 36.458C114.957 36.8998 114.176 37.1706 113.559 37.1706C112.38 37.1706 111.324 36.1587 111.324 34.7477C111.324 33.3367 112.311 32.3533 113.504 32.3533C114.834 32.3533 115.602 33.4079 115.602 35.0185H111.982C112.078 35.9164 112.681 36.572 113.559 36.572C114.08 36.572 114.683 36.3297 114.957 36.0162H114.944ZM111.982 34.4199H114.957C114.875 33.5932 114.395 32.9519 113.518 32.9519C112.736 32.9519 112.092 33.5362 111.982 34.4199Z" fill="white"/>
<path d="M120.333 34.2488V37.0566H119.688V36.3297C119.373 36.8713 118.715 37.1564 118.125 37.1564C117.193 37.1564 116.507 36.6005 116.507 35.6884C116.507 34.7762 117.289 34.1633 118.248 34.1633C118.728 34.1633 119.236 34.2773 119.688 34.4199V34.2488C119.688 33.6217 119.455 32.9091 118.495 32.9091C118.043 32.9091 117.604 33.1086 117.206 33.3224L116.946 32.7808C117.577 32.453 118.111 32.339 118.536 32.339C119.743 32.339 120.333 33.1371 120.333 34.2488ZM119.688 35.6171V34.9187C119.29 34.8047 118.838 34.7334 118.358 34.7334C117.7 34.7334 117.138 35.1182 117.138 35.6741C117.138 36.2299 117.618 36.5863 118.235 36.5863C118.811 36.5863 119.51 36.2727 119.674 35.6313L119.688 35.6171Z" fill="white"/>
<path d="M121.485 34.7476C121.485 33.4363 122.541 32.3389 123.775 32.3389C124.378 32.3389 124.927 32.5954 125.352 33.0088L124.913 33.4648C124.625 33.137 124.214 32.9375 123.789 32.9375C122.911 32.9375 122.171 33.7642 122.171 34.7476C122.171 35.731 122.911 36.5577 123.789 36.5577C124.241 36.5577 124.639 36.3439 124.941 36.0018L125.379 36.4579C124.954 36.8997 124.392 37.1563 123.775 37.1563C122.541 37.1563 121.485 36.0588 121.485 34.7476Z" fill="white"/>
<path d="M129.834 36.0161L130.231 36.4579C129.847 36.8998 129.066 37.1706 128.449 37.1706C127.27 37.1706 126.214 36.1586 126.214 34.7476C126.214 33.3366 127.201 32.3532 128.394 32.3532C129.724 32.3532 130.492 33.4079 130.492 35.0184H126.872C126.968 35.9163 127.571 36.572 128.449 36.572C128.97 36.572 129.573 36.3297 129.847 36.0161H129.834ZM126.872 34.4198H129.847C129.765 33.5932 129.285 32.9518 128.408 32.9518C127.626 32.9518 126.982 33.5362 126.872 34.4198Z" fill="white"/>
<path d="M133.959 34.7477C133.959 33.4364 135.015 32.339 136.249 32.339C137.483 32.339 138.539 33.4364 138.539 34.7477C138.539 36.0589 137.497 37.1564 136.249 37.1564C135.002 37.1564 133.959 36.0589 133.959 34.7477ZM137.853 34.7477C137.853 33.7643 137.113 32.9376 136.249 32.9376C135.385 32.9376 134.631 33.7643 134.631 34.7477C134.631 35.7311 135.372 36.5578 136.249 36.5578C137.127 36.5578 137.853 35.7311 137.853 34.7477Z" fill="white"/>
<path d="M140.678 32.453H141.761V33.0516H140.678V37.0566H140.033V33.0516H139.334V32.453H140.033V31.8259C140.033 31.1418 140.472 30.6572 141.117 30.6572C141.418 30.6572 141.706 30.757 141.939 30.9565L141.624 31.4411C141.528 31.3271 141.363 31.2558 141.158 31.2558C140.897 31.2558 140.678 31.4981 140.678 31.8402V32.4673V32.453Z" fill="white"/>
<path d="M145.491 30.9422H146.163L148.343 35.2038L150.523 30.9422H151.195V37.0566H150.523V32.4388L148.343 36.7003L146.163 32.4388V37.0566H145.491V30.9422Z" fill="white"/>
<path d="M152.623 31.1703C152.623 30.9422 152.815 30.7285 153.048 30.7285C153.281 30.7285 153.473 30.928 153.473 31.1703C153.473 31.4126 153.281 31.6121 153.048 31.6121C152.815 31.6121 152.623 31.4126 152.623 31.1703ZM152.732 32.453H153.377V37.0566H152.732V32.453Z" fill="white"/>
<path d="M158.517 34.1348V37.0565H157.872V34.2203C157.872 33.4791 157.42 32.9518 156.775 32.9518C156.035 32.9518 155.404 33.4934 155.404 34.1348V37.0565H154.76V32.453H155.404V33.1941C155.665 32.7095 156.241 32.3532 156.858 32.3532C157.831 32.3532 158.517 33.0943 158.517 34.1348Z" fill="white"/>
<path d="M164.003 30.8425V37.0567H163.358V36.1873C163.029 36.7859 162.453 37.1564 161.754 37.1564C160.588 37.1564 159.711 36.1588 159.711 34.7477C159.711 33.3367 160.588 32.3391 161.754 32.3391C162.467 32.3391 163.029 32.7096 163.358 33.3082V30.8283H164.003V30.8425ZM163.358 34.7477C163.358 33.6931 162.741 32.9377 161.864 32.9377C160.986 32.9377 160.383 33.6788 160.383 34.7477C160.383 35.8167 161 36.5578 161.864 36.5578C162.727 36.5578 163.358 35.8024 163.358 34.7477Z" fill="white"/>
</g>
<defs>
<clipPath id="clip0_434_2610">
<rect width="164" height="43" fill="white"/>
</clipPath>
</defs>
</svg>
