<svg width="42" height="47" viewBox="0 0 42 47" fill="none" xmlns="http://www.w3.org/2000/svg">
<path d="M0 31.7332C0 34.0388 1.77577 35.9082 3.96589 35.9082V24.1777H5.09054V37.7776C5.09054 40.0832 6.86632 41.9526 9.05643 41.9526V24.1777H10.4771V42.8094C10.4771 45.115 12.2528 46.9844 14.4429 46.9844H27.0805C29.2706 46.9844 31.0464 45.115 31.0464 42.8094H14.4429V41.6255H32.837C35.0271 41.6255 36.8029 39.756 36.8029 37.4504H14.4429V35.9549H37.6168C39.8069 35.9549 41.5826 34.0855 41.5826 31.7799V0H36.9656V31.7955H35.3526V0H30.7356V31.7955H29.1227V0H24.5056V8.97315H13.777C11.5869 8.97315 9.81114 10.8426 9.81114 13.1482H24.5056V14.3321H8.00577C5.81565 14.3321 4.03988 16.2015 4.03988 18.5071H24.4908V20.0027H3.8919C1.74618 20.0027 0 21.8409 0 24.0998V31.7332ZM24.4908 31.7955H14.4577V24.1932H24.4908" fill="white"/>
</svg>
