<svg width="57" height="60" viewBox="0 0 57 60" fill="none" xmlns="http://www.w3.org/2000/svg">
<g clip-path="url(#clip0_434_2436)">
<path d="M12.2201 58.9932L1.01001 47.8187C1.01001 47.8187 4.84771 42.604 5.55466 38.5771C6.05962 35.6577 8.34204 27.6845 9.53375 23.5771C9.95792 22.1476 11.4122 21.302 12.8665 21.6442C14.3208 21.9865 15.2499 23.4362 14.9469 24.8858L13.3109 33.0805L27.5306 18.906C28.5001 17.9395 30.0554 17.9395 31.0249 18.906C31.9944 19.8724 31.9944 21.4228 31.0249 22.3892L20.4813 32.8993L33.9133 19.51C34.9232 18.5033 36.5795 18.5033 37.5894 19.51C38.5993 20.5167 38.5993 22.1677 37.5894 23.1744L23.8544 36.8657L33.9537 26.7986C34.9232 25.8322 36.4987 25.8322 37.4884 26.7986C38.4579 27.765 38.4579 29.3355 37.4884 30.3221L27.3892 40.3892L34.8222 32.9798C35.7715 32.0335 37.3268 32.0335 38.2761 32.9798C39.2053 33.906 39.2255 35.4161 38.3165 36.3825L26.5408 48.6241C24.6624 50.5771 22.5819 52.2885 20.3197 53.7583L12.2605 58.9731L12.2201 58.9932Z" stroke="#294596" stroke-linecap="round" stroke-linejoin="round"/>
<path d="M6.46355 34.5704L3.2924 31.4093C1.39374 29.5167 1.39374 26.4563 3.2924 24.5637L25.5107 2.41605C27.4093 0.523428 30.4795 0.523428 32.3782 2.41605L54.5762 24.5436C56.4749 26.4362 56.4749 29.4966 54.5762 31.3892L32.3176 53.5771C30.4189 55.4697 27.3487 55.4697 25.4501 53.5771L23.3898 51.5234" stroke="#294596" stroke-linecap="round" stroke-linejoin="round"/>
</g>
<defs>
<clipPath id="clip0_434_2436">
<rect width="57" height="60" fill="white"/>
</clipPath>
</defs>
</svg>
