<svg width="61" height="60" viewBox="0 0 61 60" fill="none" xmlns="http://www.w3.org/2000/svg">
<g clip-path="url(#clip0_434_2460)">
<path d="M58.2206 51.5911H2.77902C1.57348 51.5911 0.596191 52.5725 0.596191 53.7831V57.209C0.596191 58.4196 1.57348 59.401 2.77902 59.401H58.2206C59.4261 59.401 60.4034 58.4196 60.4034 57.209V53.7831C60.4034 52.5725 59.4261 51.5911 58.2206 51.5911Z" stroke="#294596" stroke-linecap="round" stroke-linejoin="round"/>
<path d="M0.632324 21.645L30.5001 0.598877L60.368 21.645" stroke="#294596" stroke-linecap="round" stroke-linejoin="round"/>
<path d="M9.75732 21.645V51.5911" stroke="#294596" stroke-linecap="round" stroke-linejoin="round"/>
<path d="M15.1128 21.645V51.5911" stroke="#294596" stroke-linecap="round" stroke-linejoin="round"/>
<path d="M27.8281 21.645V51.5911" stroke="#294596" stroke-linecap="round" stroke-linejoin="round"/>
<path d="M33.1719 21.645V51.5911" stroke="#294596" stroke-linecap="round" stroke-linejoin="round"/>
<path d="M45.8872 21.645V51.5911" stroke="#294596" stroke-linecap="round" stroke-linejoin="round"/>
<path d="M51.2427 21.645V51.5911" stroke="#294596" stroke-linecap="round" stroke-linejoin="round"/>
<path d="M0.596191 21.645H60.4034" stroke="#294596" stroke-linecap="round" stroke-linejoin="round"/>
</g>
<defs>
<clipPath id="clip0_434_2460">
<rect width="61" height="60" fill="white"/>
</clipPath>
</defs>
</svg>
