<svg width="1306" height="1314" viewBox="0 0 1306 1314" fill="none" xmlns="http://www.w3.org/2000/svg">
<g opacity="0.2" clip-path="url(#clip0_982_130)">
<g clip-path="url(#clip1_982_130)">
<path d="M334.808 323.034C332.159 325.757 330.473 329.455 330.386 333.482L314.276 993.155C314.085 1001.23 320.314 1007.64 328.158 1007.45L969.645 991.339C977.489 991.145 984.046 984.403 984.247 976.33L1000.35 316.669C1000.54 308.599 994.312 302.185 986.458 302.381L344.974 318.498C341.036 318.593 337.443 320.336 334.811 323.044L334.808 323.034ZM978.886 985.817C976.497 988.274 973.232 989.846 969.684 989.931L328.2 1006.05C321.098 1006.23 315.465 1000.42 315.632 993.115L331.734 333.455C331.923 326.151 337.846 320.063 344.948 319.881L986.436 303.773C993.528 303.594 999.17 309.398 999.004 316.706L982.894 976.379C982.808 980.024 981.273 983.392 978.881 985.839L978.891 985.836L978.886 985.817Z" fill="white"/>
<path d="M336.751 323.221C334.126 325.916 332.585 329.42 332.399 333.154L306.251 976.995C306.047 980.858 307.32 984.513 309.843 987.267C312.366 990.021 315.823 991.543 319.593 991.554L945.168 986.583C948.921 986.608 952.537 985.108 955.348 982.373C958.138 979.675 959.81 976.002 960.009 972.12L986.147 328.281C986.341 324.422 985.068 320.766 982.555 318.01C980.032 315.256 976.574 313.734 972.805 313.723L347.222 318.706C343.469 318.681 339.853 320.181 337.042 322.916C336.944 323.014 336.846 323.113 336.751 323.221ZM333.742 333.148C333.937 329.64 335.42 326.348 337.954 323.894C340.486 321.43 343.76 320.083 347.165 320.087L972.758 315.101C976.156 315.118 979.284 316.49 981.56 318.978C983.837 321.466 984.985 324.772 984.81 328.275L958.655 972.129C958.477 975.622 956.96 978.902 954.443 981.383C951.912 983.847 948.638 985.194 945.232 985.189L319.654 990.151C316.256 990.135 313.137 988.76 310.851 986.274C308.575 983.786 307.429 980.49 307.601 976.977L333.74 333.138L333.742 333.148Z" fill="white"/>
<path d="M338.708 323.383C336.221 325.938 334.714 329.257 334.425 332.801L298.227 960.845C297.909 964.665 299.083 968.337 301.495 971.141C303.907 973.945 307.288 975.57 311.014 975.686L920.699 981.814C928.363 982.072 935.138 975.84 935.78 967.908L971.974 339.886C972.621 331.973 966.876 325.317 959.187 325.044L349.5 318.907C345.791 318.776 342.164 320.156 339.322 322.774C339.114 322.964 338.898 323.166 338.705 323.373L338.71 323.392L338.708 323.383ZM335.768 332.868C336.055 329.397 337.632 326.184 340.192 323.826C342.758 321.456 346.029 320.214 349.393 320.333L959.073 326.482C965.995 326.71 971.177 332.73 970.589 339.892L934.419 967.888C933.838 975.037 927.73 980.667 920.792 980.413L311.106 974.285C307.755 974.173 304.706 972.708 302.523 970.184C300.341 967.661 299.294 964.349 299.574 960.89L335.758 332.87L335.768 332.868Z" fill="white"/>
<path d="M340.647 323.54C338.291 325.968 336.803 329.085 336.43 332.465L336.42 332.467L290.194 944.678C289.77 948.454 290.83 952.125 293.134 954.989C295.437 957.853 298.745 959.549 302.421 959.792L896.222 977.079C899.885 977.315 903.505 976.062 906.404 973.542C909.299 971.002 911.119 967.538 911.537 963.743L957.776 351.539C958.199 347.763 957.14 344.092 954.838 341.238C952.534 338.374 949.227 336.678 945.551 336.435L351.76 319.145C348.096 318.909 344.477 320.162 341.577 322.682C341.256 322.954 340.943 323.255 340.642 323.562L340.637 323.543L340.647 323.54ZM337.789 332.558C338.169 329.125 339.805 325.979 342.422 323.72C345.034 321.442 348.304 320.313 351.623 320.537L945.409 337.807C948.704 338.017 951.691 339.561 953.765 342.144C955.859 344.723 956.792 348.034 956.409 351.458L910.17 963.661C909.802 967.06 908.166 970.207 905.532 972.481C902.92 974.759 899.65 975.888 896.331 975.663L302.555 958.391C299.26 958.181 296.273 956.637 294.199 954.053C292.118 951.482 291.173 948.164 291.555 944.74L337.789 332.558Z" fill="white"/>
<path d="M342.585 323.708C340.349 326 338.909 328.949 338.464 332.141L338.435 332.148L282.178 928.516C281.104 936.262 286.348 943.176 293.866 943.897L871.75 972.301C879.234 973.01 886.228 967.29 887.304 959.511L943.591 363.136C944.107 359.398 943.19 355.72 940.968 352.814C938.766 349.902 935.544 348.1 931.9 347.745L354.004 319.334C350.394 318.991 346.763 320.123 343.828 322.549C343.385 322.905 342.962 323.297 342.572 323.701L342.592 323.695L342.585 323.708ZM339.8 332.261C340.772 325.256 347.076 320.091 353.844 320.753L931.727 349.157C934.978 349.472 937.879 351.08 939.873 353.716C941.856 356.344 942.697 359.659 942.221 363.046L885.952 959.406C884.982 966.379 878.681 971.554 871.903 970.894L294.025 942.51C287.281 941.862 282.559 935.627 283.531 928.621L339.82 332.256L339.8 332.261Z" fill="white"/>
<path d="M344.521 323.834C342.464 325.943 340.999 328.682 340.474 331.802L340.484 331.841L274.152 912.356C273.531 916.05 274.345 919.734 276.437 922.696C278.529 925.657 281.679 927.541 285.281 928.01L847.258 967.528C850.823 967.976 854.453 966.958 857.443 964.662C860.431 962.357 862.421 959.023 863.063 955.292L929.392 374.727C930.013 371.033 929.198 367.348 927.107 364.387C925.015 361.425 921.865 359.542 918.263 359.072L356.293 319.542C351.889 318.976 347.566 320.695 344.545 323.807L344.516 323.814L344.521 323.834ZM341.817 331.952C343.006 325.023 349.393 320.095 356.077 320.945L918.046 360.475C921.259 360.882 924.081 362.584 925.972 365.258C927.863 367.931 928.593 371.255 928.027 374.614L861.72 955.184C861.156 958.511 859.363 961.492 856.67 963.585C853.975 965.668 850.7 966.581 847.463 966.159L285.481 926.622C282.268 926.215 279.446 924.513 277.555 921.84C275.664 919.166 274.934 915.842 275.5 912.483L341.817 331.952Z" fill="white"/>
<path d="M346.418 323.97C344.419 326.023 343.056 328.6 342.49 331.452L342.481 331.495L266.125 896.196C265.409 899.843 266.093 903.541 268.096 906.557C270.092 909.586 273.151 911.556 276.708 912.13L822.766 962.796C830.085 963.973 837.278 958.728 838.801 951.11L915.178 386.373C916.681 378.802 911.948 371.628 904.587 370.45L358.527 319.775C355.013 319.21 351.381 320.104 348.339 322.321C347.646 322.826 346.999 323.391 346.424 323.989L346.418 323.97ZM343.827 331.655C344.495 328.331 346.36 325.424 349.091 323.435C351.824 321.455 355.105 320.644 358.296 321.161L904.37 371.812C910.943 372.868 915.207 379.328 913.846 386.189L837.469 950.926C836.116 957.743 829.621 962.462 823.002 961.388L276.937 910.735C273.769 910.222 271.021 908.449 269.219 905.721C267.416 902.992 266.801 899.669 267.459 896.348L343.834 331.642L343.825 331.645L343.827 331.655Z" fill="white"/>
<path d="M348.356 324.096C346.529 325.979 345.151 328.384 344.535 331.125L344.526 331.169L258.105 880.014C256.375 887.511 260.873 894.81 268.127 896.212L798.302 958.005C801.774 958.686 805.403 957.896 808.488 955.802C811.583 953.706 813.721 950.54 814.568 946.879L900.993 397.97C902.724 390.473 898.226 383.174 890.971 381.772L360.801 319.998C356.215 319.097 351.574 320.787 348.356 324.096ZM345.846 331.345C347.418 324.573 353.987 320.094 360.533 321.363L890.696 383.15C897.17 384.418 901.232 390.973 899.656 397.767L813.231 946.676C812.489 949.915 810.546 952.761 807.77 954.658C804.995 956.556 801.726 957.26 798.556 956.624L268.383 894.84C261.909 893.572 257.847 887.016 259.423 880.222L345.846 331.345Z" fill="white"/>
<path d="M350.252 324.213C348.486 326.018 347.206 328.283 346.557 330.784L346.55 330.837L250.075 863.866C249.139 867.427 249.6 871.143 251.393 874.267C253.184 877.381 256.079 879.55 259.56 880.341L773.821 953.261C777.241 954.059 780.881 953.39 784.002 951.39C787.133 949.388 789.376 946.308 790.325 942.682L886.795 409.592C888.746 402.181 884.496 394.765 877.33 393.112L363.047 320.188C359.629 319.4 355.986 320.059 352.856 322.061C351.89 322.67 351.008 323.401 350.237 324.196L350.252 324.213ZM347.859 331.048C348.712 327.799 350.73 325.038 353.543 323.244C356.357 321.45 359.632 320.848 362.743 321.572L877.011 394.48C880.078 395.195 882.693 397.128 884.297 399.929C885.904 402.741 886.325 406.075 885.472 409.323L789.007 942.432C788.16 945.627 786.147 948.408 783.334 950.202C780.521 951.996 777.243 952.589 774.125 951.876L259.842 878.952C256.775 878.237 254.16 876.304 252.556 873.502C250.949 870.691 250.527 867.357 251.381 864.109L347.864 331.067L347.859 331.048Z" fill="white"/>
<path d="M352.159 324.306C350.532 325.97 349.285 328.05 348.584 330.431L348.558 330.489L242.059 847.704C241.021 851.23 241.358 854.948 243.041 858.122C244.723 861.296 247.547 863.546 250.973 864.445L749.332 948.498C756.368 950.361 763.897 945.874 766.078 938.475L872.603 421.202C873.644 417.686 873.304 413.958 871.621 410.784C869.929 407.612 867.115 405.36 863.689 404.461L365.323 320.42C360.559 319.163 355.546 320.817 352.14 324.311L352.159 324.306ZM349.889 330.746C351.863 324.126 358.626 320.101 364.992 321.781L863.358 405.822C866.387 406.63 868.911 408.649 870.439 411.512C871.952 414.359 872.264 417.711 871.309 420.925L764.784 938.198C762.831 944.782 756.061 948.818 749.683 947.132L251.317 863.091C248.287 862.283 245.763 860.264 244.235 857.4C242.723 854.554 242.41 851.201 243.354 847.98L349.867 330.741L349.886 330.736L349.889 330.746Z" fill="white"/>
<path d="M354.05 324.413C352.538 325.964 351.342 327.886 350.616 330.097L350.59 330.155L234.033 831.544C231.649 838.801 235.405 846.463 242.401 848.565L724.856 943.741C728.184 944.739 731.831 944.327 735.049 942.54C738.27 940.762 740.686 937.822 741.845 934.285L858.418 432.84C859.552 429.362 859.336 425.632 857.761 422.398C856.179 419.176 853.454 416.828 850.057 415.807L367.603 320.631C362.763 319.166 357.568 320.797 354.057 324.401L354.047 324.403L354.05 324.413ZM351.899 330.449C352.95 327.282 355.106 324.649 358.005 323.06C360.899 321.452 364.175 321.087 367.221 321.995L849.675 417.171C852.667 418.072 855.132 420.179 856.537 423.086C857.961 425.987 858.159 429.339 857.123 432.522L740.538 933.96C739.505 937.08 737.343 939.725 734.444 941.314C731.55 942.922 728.276 943.297 725.228 942.38L242.776 847.213C236.543 845.332 233.179 838.446 235.328 831.862L351.899 330.449Z" fill="white"/>
<path d="M355.928 324.504C354.514 325.956 353.362 327.732 352.631 329.768L352.605 329.827L226.005 815.365C224.747 818.804 224.862 822.54 226.347 825.829C227.818 829.101 230.472 831.53 233.817 832.668L700.369 938.978C707.228 941.303 714.983 937.314 717.6 930.078L844.211 444.465C845.469 441.025 845.355 437.289 843.869 434.001C842.398 430.729 839.745 428.3 836.399 427.161L369.862 320.869C364.937 319.199 359.535 320.791 355.928 324.504ZM353.903 330.154C356.265 323.669 363.231 320.098 369.428 322.195L835.968 428.497C842.12 430.575 845.267 437.582 842.913 444.096L716.304 929.719C713.971 936.156 706.998 939.739 700.769 937.64L234.245 831.323C231.288 830.32 228.907 828.138 227.575 825.192C226.242 822.245 226.145 818.887 227.284 815.739L353.893 330.157L353.903 330.154Z" fill="white"/>
<path d="M357.783 324.558C356.44 325.929 355.376 327.568 354.647 329.418L354.621 329.476L217.986 799.193C215.165 806.287 218.418 814.196 225.239 816.769L675.865 934.197C679.1 935.427 682.755 935.241 686.064 933.678C689.371 932.104 691.966 929.334 693.33 925.867L829.999 456.079C832.822 448.995 829.566 441.076 822.743 438.494L372.117 321.065C368.882 319.835 365.229 320.031 361.918 321.585C360.354 322.322 358.965 323.322 357.78 324.548L357.783 324.558ZM355.91 329.847C357.144 326.746 359.464 324.266 362.441 322.853C365.421 321.45 368.695 321.272 371.664 322.396L822.302 439.832C828.377 442.127 831.283 449.239 828.738 455.659L692.082 925.454C690.867 928.509 688.551 931.008 685.572 932.411C682.593 933.815 679.318 933.993 676.349 932.868L225.704 815.445C219.62 813.152 216.723 806.038 219.268 799.617L355.925 329.864L355.91 329.847Z" fill="white"/>
<path d="M359.656 324.629C358.421 325.899 357.413 327.399 356.691 329.081L356.658 329.152L209.975 783.04C208.519 786.397 208.401 790.154 209.662 793.533C210.923 796.912 213.417 799.519 216.686 800.874L651.41 929.436C654.61 930.768 658.257 930.708 661.611 929.236C664.968 927.774 667.622 925.07 669.111 921.642L815.837 467.681C818.878 460.673 815.88 452.634 809.143 449.832L374.397 321.266C371.197 319.934 367.549 319.994 364.195 321.466C362.479 322.212 360.953 323.28 359.66 324.607L359.666 324.627L359.656 324.629ZM357.926 329.56C359.262 326.493 361.644 324.09 364.659 322.781C367.681 321.459 370.947 321.407 373.881 322.634L808.605 451.196C814.607 453.687 817.307 460.915 814.55 467.278L667.851 921.222C666.543 924.24 664.153 926.656 661.132 927.977C658.11 929.298 654.843 929.35 651.912 928.133L217.166 799.567C214.29 798.366 212.055 796.032 210.922 792.981C209.79 789.929 209.899 786.568 211.233 783.492L357.938 329.567L357.926 329.56Z" fill="white"/>
<path d="M361.492 324.698C360.369 325.846 359.427 327.204 358.698 328.743L358.665 328.814L201.951 766.858C198.703 773.786 201.446 781.956 208.099 784.987L626.921 924.682C630.079 926.129 633.725 926.183 637.13 924.822C640.525 923.463 643.275 920.848 644.866 917.455L801.63 479.325C803.198 476 803.43 472.244 802.267 468.807C801.117 465.378 798.699 462.668 795.482 461.196L376.66 321.501C371.514 319.155 365.455 320.612 361.497 324.677L361.502 324.696L361.492 324.698ZM359.933 329.263C362.9 322.989 370.15 320.097 376.122 322.824L794.944 462.519C797.772 463.815 799.948 466.237 800.987 469.324C802.026 472.41 801.807 475.79 800.393 478.836L643.629 916.967C642.228 919.947 639.763 922.31 636.703 923.528C633.643 924.746 630.37 924.696 627.474 923.376L208.63 783.676C202.707 780.979 200.239 773.647 203.188 767.347L359.94 329.25L359.931 329.253L359.933 329.263Z" fill="white"/>
<path d="M363.339 324.746C362.315 325.795 361.438 327.011 360.741 328.397L360.708 328.468L193.929 750.699C192.268 753.986 191.905 757.756 192.957 761.243C194 764.732 196.343 767.513 199.518 769.1L602.445 919.916C608.946 923.153 617.134 920.168 620.634 913.255L787.439 490.966C789.1 487.678 789.463 483.908 788.411 480.422C787.359 476.935 785.025 474.151 781.859 472.562L378.952 321.741C373.741 319.153 367.46 320.555 363.374 324.758L363.349 324.743L363.339 324.746ZM361.948 328.966C365.112 322.774 372.45 320.097 378.34 323.021L781.248 473.842C784.049 475.228 786.149 477.753 787.083 480.878C788.021 484.012 787.713 487.406 786.184 490.41L619.382 912.709C616.263 918.878 608.89 921.544 603.001 918.62L200.093 767.798C197.292 766.412 195.192 763.887 194.257 760.762C193.32 757.628 193.628 754.235 195.157 751.231L361.948 328.966Z" fill="white"/>
<path d="M365.194 324.759C364.25 325.724 363.437 326.83 362.779 328.051L362.753 328.109L185.926 734.512C184.154 737.767 183.679 741.546 184.62 745.083C185.562 748.62 187.807 751.499 190.95 753.198L577.946 915.155C584.37 918.609 592.656 915.877 596.386 909.048L773.248 502.585C776.94 495.808 774.703 487.4 768.225 483.898L381.219 321.944C378.138 320.28 374.478 319.981 370.995 321.125C368.786 321.848 366.821 323.095 365.201 324.747L365.191 324.749L365.194 324.759ZM363.958 328.668C365.57 325.704 368.192 323.506 371.326 322.486C374.466 321.454 377.757 321.727 380.574 323.254L767.57 485.211C770.339 486.709 772.359 489.287 773.198 492.478C774.044 495.658 773.625 499.06 771.996 502.039L595.133 908.502C591.82 914.599 584.356 917.04 578.534 913.902L191.547 751.942C188.781 750.453 186.758 747.867 185.91 744.678C185.064 741.498 185.483 738.096 187.112 735.117L363.95 328.681L363.945 328.661L363.958 328.668Z" fill="white"/>
<path d="M367.014 324.792C366.168 325.659 365.424 326.633 364.793 327.722L364.752 327.764L177.894 718.364C173.996 725.062 175.965 733.592 182.357 737.314L553.436 910.387C559.779 914.08 568.173 911.599 572.11 904.849L759.011 514.217C760.896 510.994 761.484 507.216 760.642 503.622C759.811 500.035 757.634 497.064 754.536 495.26L383.457 322.187C380.418 320.409 376.765 319.983 373.216 321.031C370.847 321.734 368.707 323.028 366.995 324.798L367.014 324.792ZM365.969 328.371C367.684 325.442 370.375 323.308 373.551 322.37C376.727 321.432 380.026 321.816 382.813 323.424L753.893 496.497C756.626 498.098 758.568 500.769 759.335 504C760.09 507.225 759.559 510.636 757.849 513.585L570.949 904.217C569.256 907.109 566.564 909.243 563.371 910.196C560.196 911.134 556.896 910.75 554.109 909.142L183.03 736.069C177.325 732.754 175.541 725.075 179.085 718.989L365.972 328.381L365.969 328.371Z" fill="white"/>
<path d="M368.828 324.838C368.087 325.594 367.423 326.443 366.836 327.386L366.795 327.427L169.894 702.177C165.759 708.803 167.512 717.453 173.801 721.409L528.966 905.609C535.215 909.534 543.737 907.297 547.881 900.628L744.82 525.827C746.805 522.629 747.517 518.849 746.787 515.214C746.058 511.579 743.97 508.513 740.916 506.604L385.763 322.411C380.388 319.051 373.35 320.209 368.847 324.833L368.828 324.838ZM367.981 328.074C371.726 322.08 379.38 320.084 385.044 323.638L740.209 507.837C742.918 509.538 744.788 512.29 745.444 515.571C746.1 518.853 745.465 522.261 743.653 525.175L546.714 899.976C542.996 905.953 535.33 907.941 529.656 904.39L174.498 720.178C168.873 716.656 167.305 708.857 171.042 702.834L367.981 328.074Z" fill="white"/>
<path d="M370.621 324.857C369.971 325.526 369.375 326.244 368.847 327.057L368.813 327.086L161.869 686.027C157.507 692.579 159.013 701.346 165.217 705.532L504.468 900.857C507.443 902.86 511.084 903.516 514.715 902.694C518.353 901.861 521.512 899.655 523.618 896.445L730.607 537.482C734.954 530.914 733.464 522.163 727.259 517.977L388.006 322.642C382.595 318.991 375.286 320.066 370.621 324.857ZM369.978 327.77C373.927 321.845 381.682 320.072 387.276 323.829L726.527 519.155C732.088 522.902 733.424 530.803 729.49 536.745L522.5 895.708C520.617 898.547 517.763 900.538 514.49 901.306C511.222 902.051 507.919 901.46 505.228 899.631L165.977 704.305C160.417 700.559 159.068 692.65 163.015 686.715L369.99 327.777L369.978 327.77Z" fill="white"/>
<path d="M372.427 324.842C371.866 325.415 371.349 326.039 370.867 326.716L370.833 326.746L153.837 669.838C151.628 672.971 150.7 676.757 151.223 680.509C151.749 684.239 153.659 687.487 156.638 689.623L479.975 896.075C486.056 900.458 494.78 898.748 499.368 892.229L716.396 549.097C720.962 542.615 719.734 533.722 713.609 529.329L390.272 322.877C387.33 320.763 383.687 319.983 380.011 320.713C377.118 321.276 374.503 322.727 372.42 324.854L372.43 324.851L372.427 324.842ZM371.97 327.478C373.979 324.646 376.902 322.72 380.203 322.059C383.516 321.405 386.819 322.109 389.494 324.036L712.831 530.488C718.321 534.439 719.442 542.461 715.302 548.333L498.275 891.464C494.147 897.302 486.285 898.866 480.777 894.889L157.43 688.439C154.792 686.534 153.052 683.613 152.577 680.231C152.101 676.85 152.94 673.429 154.964 670.573L371.989 327.473L371.979 327.475L371.97 327.478Z" fill="white"/>
<path d="M374.23 324.849C373.766 325.324 373.323 325.835 372.921 326.387L372.902 326.392L145.848 653.658C143.524 656.749 142.481 660.566 142.897 664.346C143.313 668.126 145.153 671.465 148.069 673.711L455.469 891.285C461.469 895.907 470.306 894.426 475.116 888.003L702.187 560.722C706.98 554.314 705.988 545.296 699.963 540.659L392.536 323.103C389.635 320.874 385.981 319.973 382.274 320.587C379.214 321.101 376.422 322.589 374.227 324.839L374.23 324.849ZM373.993 327.188C376.107 324.359 379.085 322.522 382.445 321.969C385.794 321.409 389.105 322.225 391.734 324.248L699.151 541.806C704.577 545.981 705.466 554.106 701.124 559.918L474.053 887.199C469.736 892.984 461.768 894.307 456.33 890.125L148.907 672.547C146.294 670.541 144.626 667.539 144.254 664.12C143.882 660.7 144.839 657.258 146.936 654.445L374 327.176L373.991 327.178L373.993 327.188Z" fill="white"/>
<path d="M376 324.853C375.635 325.23 375.287 325.633 374.944 326.055L137.839 637.483C132.822 643.827 133.563 652.953 139.504 657.819L430.991 886.519C436.917 891.368 445.847 890.161 450.871 883.805L687.983 572.365C690.406 569.299 691.576 565.49 691.268 561.65C690.948 557.803 689.201 554.387 686.33 552.037L394.839 323.318C389.301 318.8 381.16 319.548 376.017 324.838L376.007 324.841L376 324.853ZM375.992 326.884C380.553 321.158 388.59 320.055 393.958 324.442L685.445 553.141C690.801 557.521 691.476 565.775 686.93 571.517L449.818 882.958C445.288 888.685 437.22 889.787 431.852 885.4L140.365 656.7C135.009 652.32 134.334 644.066 138.88 638.324L375.992 326.884Z" fill="white"/>
<path d="M377.764 324.829C377.487 325.11 377.224 325.407 376.962 325.705L129.832 621.309C127.287 624.345 126.005 628.163 126.202 632.053C126.409 635.941 128.087 639.447 130.918 641.922L406.485 881.729C412.33 886.817 421.356 885.854 426.598 879.575L673.738 583.968C676.273 580.935 677.564 577.114 677.367 573.224C677.161 569.336 675.483 565.83 672.651 563.355L397.084 323.548C391.512 318.708 383.09 319.335 377.759 324.81L377.764 324.829ZM377.982 326.582C382.729 320.932 390.904 320.039 396.186 324.646L671.753 564.453C674.314 566.689 675.839 569.853 676.021 573.375C676.203 576.897 675.045 580.361 672.743 583.105L425.602 878.712C420.837 884.409 412.693 885.262 407.398 880.648L131.831 640.841C129.27 638.605 127.745 635.44 127.563 631.919C127.382 628.397 128.552 624.94 130.842 622.189L377.982 326.582Z" fill="white"/>
</g>
</g>
<defs>
<clipPath id="clip0_982_130">
<rect width="948" height="969" fill="white" transform="translate(0 474) rotate(-30)"/>
</clipPath>
<clipPath id="clip1_982_130">
<rect width="926.76" height="811.62" fill="white" transform="translate(62.3438 393.295) rotate(-14.8999)"/>
</clipPath>
</defs>
</svg>
