<svg width="1168" height="1183" viewBox="0 0 1168 1183" fill="none" xmlns="http://www.w3.org/2000/svg">
<g opacity="0.2" clip-path="url(#clip0_982_130)">
<g clip-path="url(#clip1_982_130)">
<path d="M362.371 187.16C359.111 189.11 356.531 192.25 355.411 196.12L170.221 829.47C167.961 837.22 172.331 845.02 179.961 846.85L804.021 996.23C811.651 998.06 819.721 993.23 821.991 985.48L1007.17 352.14C1009.43 344.39 1005.06 336.59 997.421 334.76L373.361 185.39C369.531 184.47 365.611 185.23 362.371 187.17L362.371 187.16ZM814.371 993.27C811.431 995.03 807.871 995.71 804.421 994.88L180.361 845.51C173.451 843.86 169.501 836.8 171.541 829.78L356.721 196.44C358.781 189.43 366.071 185.07 372.981 186.72L997.041 336.1C1003.94 337.75 1007.9 344.81 1005.86 351.83L820.671 985.18C819.651 988.68 817.301 991.54 814.361 993.29L814.371 993.29L814.371 993.27Z" fill="white"/>
<path d="M364.199 187.84C360.969 189.77 358.579 192.76 357.439 196.32L166.619 811.79C165.429 815.47 165.719 819.33 167.449 822.64C169.179 825.95 172.129 828.31 175.769 829.29L781.589 985.34C785.209 986.33 789.089 985.81 792.509 983.89C795.899 982 798.459 978.88 799.649 975.18L990.459 359.71C991.639 356.03 991.349 352.17 989.629 348.86C987.899 345.55 984.949 343.19 981.309 342.21L375.479 186.17C371.859 185.18 367.979 185.7 364.559 187.62C364.439 187.69 364.319 187.76 364.199 187.84ZM358.739 196.66C359.829 193.32 362.109 190.52 365.189 188.8C368.269 187.07 371.779 186.61 375.069 187.49L980.909 343.53C984.189 344.42 986.859 346.55 988.419 349.54C989.979 352.53 990.239 356.02 989.169 359.36L798.339 974.84C797.269 978.17 794.959 980.95 791.889 982.7C788.809 984.43 785.299 984.89 782.009 984.01L176.189 827.95C172.909 827.06 170.249 824.93 168.679 821.94C167.119 818.95 166.859 815.47 167.929 812.12L358.739 196.65L358.739 196.66Z" fill="white"/>
<path d="M366.05 188.5C362.99 190.33 360.68 193.15 359.49 196.5L163.02 794.12C161.73 797.73 161.92 801.58 163.53 804.91C165.14 808.24 167.99 810.68 171.56 811.75L759.17 974.44C766.51 976.66 774.66 972.38 777.32 964.88L973.78 367.28C976.44 359.8 972.6 351.89 965.24 349.65L377.63 186.95C374.08 185.87 370.22 186.27 366.8 188.07C366.55 188.2 366.29 188.34 366.05 188.49L366.05 188.51L366.05 188.5ZM360.77 196.91C361.94 193.63 364.29 190.93 367.37 189.31C370.46 187.68 373.94 187.32 377.16 188.3L964.76 351.01C971.39 353.01 974.85 360.16 972.44 366.93L776.01 964.51C773.61 971.27 766.26 975.14 759.62 973.11L172.01 810.42C168.8 809.45 166.23 807.25 164.77 804.25C163.31 801.25 163.15 797.78 164.31 794.51L360.76 196.91L360.77 196.91Z" fill="white"/>
<path d="M367.879 189.15C364.979 190.89 362.739 193.52 361.509 196.69L361.499 196.69L159.409 776.43C158.029 779.97 158.109 783.79 159.599 787.15C161.089 790.51 163.849 793 167.339 794.18L736.729 963.57C740.209 964.74 744.029 964.46 747.479 962.77C750.929 961.06 753.579 958.18 754.959 954.62L957.059 374.89C958.439 371.35 958.359 367.53 956.869 364.18C955.379 360.82 952.619 358.33 949.129 357.15L379.749 187.76C376.269 186.59 372.449 186.87 368.999 188.56C368.619 188.74 368.239 188.95 367.869 189.17L367.869 189.15L367.879 189.15ZM362.799 197.13C364.049 193.91 366.439 191.29 369.549 189.78C372.659 188.25 376.109 188 379.259 189.07L948.639 358.44C951.769 359.49 954.259 361.75 955.599 364.78C956.959 367.81 957.009 371.25 955.759 374.46L753.659 954.19C752.429 957.38 750.039 960 746.909 961.52C743.799 963.05 740.349 963.3 737.199 962.23L167.829 792.86C164.699 791.81 162.209 789.55 160.869 786.52C159.519 783.5 159.459 780.05 160.709 776.84L362.799 197.13Z" fill="white"/>
<path d="M369.709 189.81C366.959 191.45 364.809 193.93 363.559 196.9L363.529 196.9L155.819 758.75C152.789 765.96 156.079 773.99 163.159 776.62L714.309 952.66C721.359 955.27 729.589 951.54 732.629 944.3L940.369 382.45C941.829 378.97 941.889 375.18 940.489 371.8C939.109 368.42 936.459 365.85 933.029 364.57L381.869 188.52C378.469 187.26 374.669 187.42 371.209 189.01C370.689 189.24 370.179 189.51 369.699 189.8L369.719 189.8L369.709 189.81ZM364.819 197.36C367.559 190.84 374.979 187.47 381.349 189.85L932.499 365.89C935.559 367.03 937.949 369.33 939.199 372.39C940.439 375.44 940.399 378.86 939.069 382.01L731.349 943.85C728.619 950.34 721.199 953.72 714.819 951.34L163.669 775.32C157.319 772.96 154.359 765.72 157.099 759.2L364.839 197.36L364.819 197.36Z" fill="white"/>
<path d="M371.551 190.43C369.021 191.94 366.901 194.21 365.591 197.09L365.591 197.13L152.221 741.07C150.671 744.48 150.511 748.25 151.771 751.65C153.031 755.05 155.591 757.68 158.951 759.06L691.871 941.75C695.201 943.1 698.971 943.05 702.451 941.6C705.931 940.14 708.711 937.43 710.291 933.99L923.671 390C925.221 386.59 925.381 382.82 924.121 379.42C922.861 376.02 920.301 373.39 916.941 372.01L384.031 189.31C379.921 187.63 375.301 188.18 371.581 190.41L371.551 190.41L371.551 190.43ZM366.851 197.58C369.781 191.19 377.221 188.07 383.461 190.61L916.371 373.31C919.371 374.53 921.661 376.9 922.801 379.97C923.941 383.04 923.791 386.44 922.381 389.54L709.021 933.54C707.621 936.61 705.121 939.03 701.981 940.36C698.841 941.68 695.441 941.72 692.421 940.48L159.501 757.77C156.501 756.55 154.211 754.18 153.071 751.11C151.931 748.04 152.081 744.64 153.491 741.54L366.851 197.58Z" fill="white"/>
<path d="M373.349 191.05C370.889 192.52 368.909 194.66 367.629 197.27L367.609 197.31L148.619 723.39C146.989 726.73 146.699 730.48 147.859 733.91C149.009 737.35 151.459 740.04 154.749 741.51L669.419 930.88C676.189 933.9 684.489 930.68 687.919 923.71L906.939 397.6C910.339 390.67 907.609 382.52 900.799 379.49L386.129 190.11C382.879 188.66 379.139 188.59 375.629 189.95C374.829 190.26 374.059 190.64 373.349 191.07L373.349 191.05ZM368.869 197.81C370.369 194.77 372.919 192.44 376.069 191.22C379.219 190.01 382.599 190.07 385.549 191.39L900.239 380.75C906.319 383.46 908.779 390.8 905.699 397.08L686.679 923.19C683.619 929.43 676.129 932.32 670.009 929.58L155.329 740.22C152.399 738.91 150.199 736.49 149.159 733.39C148.119 730.29 148.379 726.92 149.869 723.88L368.879 197.8L368.869 197.8L368.869 197.81Z" fill="white"/>
<path d="M375.189 191.67C372.939 193.02 370.989 194.99 369.689 197.48L369.669 197.52L145.029 705.69C141.429 712.49 143.899 720.7 150.549 723.92L647.009 919.96C650.189 921.51 653.899 921.68 657.419 920.45C660.949 919.22 663.829 916.71 665.589 913.39L890.249 405.16C893.849 398.36 891.379 390.15 884.729 386.93L388.269 190.91C384.069 188.86 379.149 189.3 375.189 191.67ZM370.899 198.03C374.159 191.89 381.659 189.25 387.659 192.16L884.109 388.19C890.039 391.08 892.279 398.46 889.009 404.62L664.349 912.85C662.799 915.79 660.189 918.04 657.019 919.16C653.849 920.28 650.509 920.12 647.609 918.69L151.149 722.66C145.219 719.77 142.979 712.39 146.249 706.23L370.899 198.03Z" fill="white"/>
<path d="M376.991 192.27C374.821 193.56 373.001 195.42 371.731 197.67L371.711 197.72L141.421 688.02C139.601 691.22 139.091 694.93 140.021 698.41C140.951 701.88 143.191 704.72 146.351 706.38L624.571 909.08C627.671 910.73 631.361 911.02 634.891 909.89C638.431 908.76 641.391 906.36 643.241 903.1L873.541 412.74C877.331 406.08 875.131 397.82 868.631 394.38L390.391 191.67C387.291 190.03 383.601 189.73 380.061 190.86C378.971 191.2 377.931 191.68 376.981 192.25L376.991 192.27ZM372.921 198.26C374.581 195.34 377.241 193.19 380.421 192.18C383.601 191.17 386.921 191.43 389.741 192.93L867.971 395.62C870.751 397.1 872.781 399.64 873.611 402.76C874.441 405.89 873.991 409.22 872.331 412.14L642.031 902.52C640.391 905.39 637.731 907.56 634.551 908.57C631.371 909.58 628.051 909.31 625.221 907.82L146.981 705.11C144.201 703.63 142.171 701.09 141.341 697.97C140.511 694.84 140.961 691.51 142.621 688.59L372.921 198.28L372.921 198.26Z" fill="white"/>
<path d="M378.809 192.85C376.809 194.04 375.069 195.73 373.779 197.85L373.739 197.9L137.829 670.34C135.919 673.48 135.289 677.16 136.099 680.66C136.909 684.16 139.059 687.06 142.139 688.81L602.129 898.18C608.449 901.79 616.879 899.39 620.889 892.8L856.839 420.31C858.749 417.18 859.379 413.49 858.569 409.99C857.749 406.49 855.609 403.59 852.529 401.84L392.529 192.48C388.249 190.04 382.979 190.35 378.789 192.85L378.809 192.85ZM374.959 198.49C378.569 192.6 386.139 190.45 391.859 193.71L851.859 403.07C854.579 404.63 856.499 407.23 857.239 410.39C857.969 413.53 857.409 416.85 855.659 419.71L619.709 892.2C616.129 898.06 608.549 900.22 602.819 896.95L142.819 687.59C140.099 686.03 138.179 683.43 137.439 680.27C136.709 677.13 137.269 673.81 139.009 670.94L374.939 198.48L374.959 198.48L374.959 198.49Z" fill="white"/>
<path d="M380.608 193.44C378.748 194.55 377.098 196.1 375.828 198.05L375.788 198.1L134.228 652.66C130.058 659.06 131.718 667.43 137.938 671.26L579.698 887.29C582.658 889.11 586.288 889.65 589.858 888.75C593.428 887.86 596.518 885.64 598.548 882.52L840.138 427.91C842.128 424.84 842.878 421.18 842.188 417.65C841.488 414.13 839.458 411.16 836.438 409.3L394.678 193.27C390.378 190.61 384.938 190.85 380.618 193.43L380.608 193.43L380.608 193.44ZM376.978 198.72C378.808 195.93 381.568 193.94 384.778 193.15C387.988 192.34 391.248 192.83 393.958 194.49L835.718 410.52C838.378 412.16 840.218 414.83 840.828 418C841.458 421.17 840.788 424.46 838.968 427.27L597.368 881.87C595.568 884.62 592.798 886.62 589.588 887.41C586.378 888.22 583.118 887.74 580.408 886.07L138.648 670.05C133.108 666.63 131.628 659.11 135.398 653.3L376.978 198.72Z" fill="white"/>
<path d="M382.399 194.01C380.659 195.05 379.089 196.47 377.859 198.25L377.819 198.3L130.629 634.96C128.529 637.96 127.679 641.6 128.269 645.16C128.849 648.7 130.789 651.73 133.729 653.69L557.259 876.39C563.289 880.4 571.809 878.54 576.199 872.22L823.419 435.49C825.519 432.49 826.369 428.85 825.779 425.29C825.199 421.75 823.259 418.72 820.319 416.76L396.799 194.08C392.469 191.2 386.839 191.35 382.399 194.01ZM378.989 198.95C382.939 193.29 390.589 191.63 396.039 195.25L819.559 417.94C824.969 421.53 826.209 429.11 822.259 434.8L575.039 871.54C571.129 877.16 563.469 878.83 557.989 875.2L134.489 652.5C131.889 650.77 130.149 648.05 129.619 644.86C129.089 641.67 129.859 638.4 131.769 635.65L378.979 198.95L378.989 198.95Z" fill="white"/>
<path d="M384.179 194.54C382.529 195.52 381.079 196.83 379.899 198.43L379.859 198.48L127.039 617.27C122.489 623.4 123.599 631.88 129.529 636.12L534.809 865.47C537.619 867.49 541.199 868.25 544.799 867.59C548.399 866.92 551.619 864.91 553.829 861.91L806.699 443.06C811.249 436.94 810.139 428.45 804.209 424.2L398.929 194.85C396.119 192.83 392.539 192.08 388.939 192.73C387.239 193.04 385.639 193.65 384.179 194.53L384.179 194.54ZM381.009 199.17C382.999 196.49 385.879 194.69 389.119 194.09C392.359 193.5 395.569 194.17 398.149 196.02L803.439 425.38C808.719 429.16 809.699 436.78 805.589 442.33L552.729 861.19C550.769 863.83 547.889 865.65 544.649 866.24C541.409 866.83 538.199 866.16 535.619 864.31L130.319 634.96C125.029 631.18 124.059 623.56 128.169 618.01L381.019 199.19L381.009 199.17Z" fill="white"/>
<path d="M385.971 195.09C384.451 196 383.091 197.19 381.961 198.63L381.911 198.69L123.451 599.6C121.181 602.47 120.101 606.07 120.451 609.66C120.801 613.25 122.541 616.41 125.351 618.56L512.401 854.58C515.151 856.69 518.691 857.57 522.311 857.01C525.931 856.46 529.191 854.53 531.511 851.6L790.031 450.63C794.771 444.64 793.941 436.1 788.151 431.66L401.081 195.63C398.331 193.52 394.791 192.64 391.171 193.2C389.321 193.48 387.571 194.12 385.981 195.07L385.981 195.09L385.971 195.09ZM383.031 199.41C385.111 196.79 388.031 195.08 391.281 194.59C394.541 194.09 397.711 194.88 400.231 196.82L787.281 432.84C792.441 436.79 793.191 444.47 788.891 449.91L530.401 850.87C528.361 853.45 525.431 855.17 522.171 855.67C518.911 856.17 515.741 855.38 513.221 853.45L126.151 617.42C123.681 615.52 122.121 612.69 121.811 609.45C121.501 606.21 122.471 602.99 124.551 600.36L383.041 199.42L383.031 199.41Z" fill="white"/>
<path d="M387.731 195.63C386.351 196.45 385.091 197.52 383.991 198.82L383.941 198.88L119.861 581.9C114.941 587.76 115.491 596.36 121.141 601L489.961 843.69C492.641 845.9 496.151 846.89 499.791 846.45C503.421 846.01 506.751 844.19 509.161 841.32L773.311 458.23C775.681 455.42 776.871 451.85 776.631 448.23C776.401 444.62 774.761 441.38 772.031 439.13L403.211 196.44C398.841 192.85 392.611 192.7 387.741 195.61L387.741 195.63L387.731 195.63ZM385.051 199.64C389.531 194.34 397.281 193.41 402.351 197.58L771.171 440.27C773.571 442.25 775.051 445.15 775.261 448.4C775.471 451.65 774.391 454.86 772.241 457.44L508.091 840.53C505.971 843.05 502.981 844.7 499.711 845.09C496.441 845.48 493.291 844.59 490.831 842.57L121.991 599.87C116.961 595.74 116.461 588.02 120.931 582.69L385.061 199.63L385.051 199.63L385.051 199.64Z" fill="white"/>
<path d="M389.499 196.15C388.239 196.9 387.079 197.85 386.049 199.01L385.999 199.07L116.259 564.22C113.809 566.97 112.489 570.52 112.609 574.16C112.719 577.8 114.269 581.09 116.929 583.44L467.529 832.79C472.979 837.59 481.659 836.81 486.819 831.03L756.599 465.83C759.049 463.08 760.369 459.53 760.249 455.89C760.129 452.25 758.589 448.96 755.939 446.61L405.359 197.26C400.989 193.42 394.559 193.16 389.529 196.17L389.509 196.15L389.499 196.15ZM387.069 199.87C391.719 194.7 399.499 194 404.439 198.34L755.019 447.69C757.369 449.75 758.749 452.73 758.849 455.99C758.949 459.26 757.779 462.46 755.529 464.97L485.749 830.18C481.149 835.34 473.339 836.02 468.399 831.68L117.819 582.33C115.469 580.27 114.089 577.29 113.989 574.03C113.889 570.76 115.059 567.56 117.309 565.05L387.069 199.87Z" fill="white"/>
<path d="M391.291 196.64C390.131 197.33 389.061 198.19 388.111 199.2L388.071 199.25L112.691 546.52C110.141 549.21 108.711 552.74 108.711 556.4C108.711 560.06 110.141 563.42 112.741 565.87L445.081 821.89C450.401 826.88 459.111 826.37 464.471 820.73L739.901 473.41C745.211 467.81 745.211 459.11 739.851 454.06L407.501 198.04C404.951 195.64 401.491 194.41 397.831 194.62C395.511 194.75 393.291 195.45 391.301 196.63L391.291 196.63L391.291 196.64ZM389.091 200.1C391.411 197.65 394.511 196.2 397.801 196.02C401.101 195.83 404.211 196.94 406.541 199.14L738.881 455.16C741.171 457.32 742.461 460.33 742.451 463.63C742.451 466.92 741.171 470.1 738.831 472.56L463.401 819.88C458.631 824.92 450.791 825.36 445.971 820.83L113.641 564.81C111.351 562.66 110.061 559.64 110.061 556.34C110.061 553.05 111.341 549.87 113.681 547.41L389.081 200.11L389.081 200.09L389.091 200.1Z" fill="white"/>
<path d="M393.04 197.14C392 197.76 391.03 198.51 390.14 199.4L390.09 199.43L109.08 528.85C103.59 534.32 103.3 543.07 108.52 548.31L422.62 810.98C427.8 816.18 436.55 815.94 442.09 810.43L723.15 480.99C725.8 478.36 727.34 474.86 727.45 471.17C727.57 467.49 726.23 464.06 723.7 461.52L409.6 198.85C407.12 196.35 403.7 195 400 195.1C397.53 195.17 395.13 195.87 393.02 197.14L393.04 197.14ZM391.11 200.33C393.52 197.94 396.67 196.57 399.98 196.48C403.29 196.39 406.38 197.61 408.66 199.88L722.76 462.55C724.99 464.8 726.18 467.88 726.09 471.2C725.99 474.51 724.6 477.67 722.19 480.08L441.13 809.52C438.75 811.88 435.6 813.25 432.27 813.35C428.96 813.44 425.87 812.22 423.59 809.95L109.49 547.28C104.83 542.61 105.08 534.73 110.07 529.76L391.11 200.34L391.11 200.33Z" fill="white"/>
<path d="M394.778 197.65C393.868 198.19 393.008 198.84 392.198 199.6L392.148 199.63L105.508 511.15C99.8084 516.49 99.2784 525.3 104.338 530.74L400.198 800.07C405.228 805.47 414.038 805.5 419.758 800.12L706.448 488.56C709.188 485.98 710.848 482.51 711.078 478.81C711.308 475.11 710.078 471.61 707.618 468.98L411.768 199.66C407.438 195.03 400.338 194.34 394.798 197.65L394.778 197.65ZM393.128 200.56C398.288 195.73 406.198 195.77 410.758 200.66L706.618 469.99C708.798 472.33 709.898 475.47 709.688 478.81C709.478 482.15 707.988 485.28 705.488 487.63L418.798 799.19C413.668 804.01 405.748 803.96 401.178 799.07L105.328 529.73C100.798 524.88 101.288 516.94 106.448 512.08L393.128 200.56Z" fill="white"/>
<path d="M396.511 198.13C395.711 198.61 394.951 199.15 394.231 199.8L394.191 199.82L101.911 493.48C96.0113 498.69 95.2113 507.55 100.131 513.19L377.751 789.18C380.111 791.88 383.461 793.45 387.181 793.59C390.911 793.72 394.531 792.4 397.391 789.84L689.721 496.17C695.611 490.94 696.421 482.1 691.501 476.46L413.881 200.46C409.591 195.54 402.251 194.7 396.511 198.13ZM395.141 200.78C400.481 196.07 408.431 196.35 412.871 201.42L690.491 477.41C694.901 482.46 694.161 490.44 688.831 495.17L396.501 788.84C393.951 791.1 390.681 792.29 387.321 792.19C383.971 792.07 380.931 790.65 378.801 788.19L101.181 512.2C96.7713 507.15 97.5013 499.16 102.841 494.44L395.151 200.79L395.141 200.78Z" fill="white"/>
<path d="M398.258 198.58C397.568 198.99 396.908 199.46 396.268 199.99L396.228 200.01L98.3081 475.77C95.3681 478.23 93.4981 481.65 93.0381 485.41C92.5881 489.15 93.5981 492.78 95.9281 495.61L355.308 778.26C360.058 784.06 368.928 784.65 375.038 779.53L672.998 503.74C679.078 498.65 680.178 489.74 675.388 483.92L416.008 201.27C413.708 198.47 410.388 196.78 406.648 196.54C403.708 196.34 400.808 197.07 398.248 198.59L398.258 198.59L398.258 198.58ZM397.138 201.01C399.808 198.79 403.128 197.68 406.488 197.89C409.858 198.11 412.868 199.64 414.958 202.19L674.338 484.84C678.628 490.07 677.648 498.11 672.138 502.72L374.178 778.51C368.688 783.09 360.688 782.58 356.388 777.32L96.9981 494.67C94.9381 492.15 94.0081 488.88 94.4181 485.49C94.8281 482.1 96.5181 479.01 99.2081 476.77L397.158 201.01L397.148 201.01L397.138 201.01Z" fill="white"/>
<path d="M399.999 199.05C399.429 199.39 398.869 199.77 398.339 200.2L398.319 200.2L94.7491 458.08C91.7091 460.47 89.7191 463.89 89.1491 467.65C88.5791 471.41 89.4991 475.11 91.7391 478.03L332.859 767.33C337.469 773.34 346.389 774.18 352.689 769.21L656.279 511.32C662.559 506.36 663.919 497.39 659.289 491.36L418.139 202.07C415.909 199.17 412.609 197.36 408.869 197C405.779 196.71 402.699 197.43 399.999 199.04L399.999 199.05ZM399.169 201.25C401.939 199.06 405.289 198.05 408.679 198.38C412.059 198.7 415.049 200.34 417.069 202.97L658.209 492.26C662.379 497.69 661.149 505.77 655.459 510.27L351.869 768.16C346.209 772.64 338.169 771.87 333.989 766.43L92.8491 477.12C90.8391 474.51 89.9991 471.18 90.5191 467.78C91.0391 464.38 92.8491 461.3 95.5991 459.12L399.179 201.24L399.169 201.24L399.169 201.25Z" fill="white"/>
<path d="M401.709 199.51C401.259 199.78 400.819 200.08 400.379 200.4L91.1689 440.39C84.6889 445.23 83.0589 454.24 87.5489 460.47L310.429 756.43C314.909 762.64 323.849 763.77 330.339 758.92L639.559 518.92C642.689 516.58 644.799 513.2 645.489 509.41C646.169 505.61 645.359 501.86 643.189 498.85L420.309 202.87C416.119 197.08 408.059 195.71 401.729 199.5L401.719 199.5L401.709 199.51ZM401.179 201.47C407.059 197.11 415.109 198.11 419.169 203.73L642.049 499.69C646.099 505.3 644.629 513.45 638.759 517.83L329.539 757.83C323.689 762.2 315.609 761.19 311.549 755.57L88.6689 459.61C84.6189 454 86.0889 445.85 91.9589 441.47L401.179 201.47Z" fill="white"/>
<path d="M403.418 199.94C403.078 200.14 402.748 200.36 402.418 200.58L87.5884 422.7C84.3484 424.98 82.1284 428.34 81.3184 432.15C80.5184 435.96 81.2384 439.78 83.3384 442.9L287.978 745.5C292.318 751.92 301.288 753.31 307.968 748.59L622.808 526.47C626.038 524.19 628.268 520.83 629.078 517.02C629.878 513.21 629.158 509.39 627.058 506.27L422.418 203.67C418.278 197.56 409.978 196 403.418 199.92L403.418 199.94ZM403.178 201.69C409.218 197.45 417.348 198.69 421.268 204.5L625.908 507.1C627.808 509.92 628.468 513.37 627.738 516.82C627.008 520.27 624.998 523.32 622.068 525.38L307.228 747.5C301.158 751.78 293.068 750.51 289.138 744.69L84.4984 442.09C82.5984 439.27 81.9384 435.82 82.6684 432.37C83.3984 428.92 85.4184 425.88 88.3384 423.81L403.178 201.69Z" fill="white"/>
</g>
</g>
<defs>
<clipPath id="clip0_982_130">
<rect width="948" height="969" fill="white" transform="translate(0 246.961) rotate(-15.1001)"/>
</clipPath>
<clipPath id="clip1_982_130">
<rect width="926.76" height="811.62" fill="white" transform="translate(81 185)"/>
</clipPath>
</defs>
</svg>
