<svg width="1105" height="1023" viewBox="0 0 1105 1023" fill="none" xmlns="http://www.w3.org/2000/svg">
<g clip-path="url(#clip0_982_237)">
<path d="M272.465 168.037C269.816 170.759 268.13 174.457 268.042 178.485L251.933 838.158C251.741 846.228 257.97 852.642 265.814 852.449L907.301 836.341C915.145 836.148 921.702 829.405 921.903 821.332L938.006 161.672C938.197 153.601 931.968 147.187 924.115 147.383L282.63 163.5C278.692 163.596 275.099 165.339 272.467 168.046L272.465 168.037ZM916.542 830.82C914.154 833.277 910.888 834.849 907.341 834.934L265.856 851.051C258.754 851.233 253.122 845.427 253.288 838.118L269.391 178.458C269.579 171.154 275.503 165.066 282.605 164.883L924.092 148.776C931.184 148.596 936.826 154.401 936.66 161.709L920.55 821.382C920.464 825.026 918.929 828.394 916.538 830.842L916.547 830.839L916.542 830.82Z" fill="white"/>
<path d="M274.407 168.223C271.782 170.919 270.241 174.423 270.055 178.157L243.907 821.998C243.703 825.86 244.976 829.516 247.499 832.27C250.022 835.024 253.479 836.546 257.249 836.557L882.825 831.585C886.577 831.611 890.193 830.111 893.005 827.376C895.795 824.678 897.466 821.005 897.665 817.123L923.803 173.284C923.997 169.424 922.724 165.769 920.211 163.012C917.688 160.258 914.231 158.736 910.461 158.725L284.878 163.709C281.126 163.683 277.51 165.183 274.698 167.918C274.6 168.017 274.502 168.115 274.407 168.223ZM271.399 178.151C271.593 174.643 273.076 171.351 275.611 168.897C278.142 166.433 281.416 165.086 284.822 165.09L910.414 160.104C913.812 160.12 916.94 161.492 919.217 163.981C921.493 166.469 922.642 169.775 922.467 173.278L896.312 817.131C896.134 820.625 894.616 823.905 892.099 826.386C889.568 828.849 886.294 830.196 882.888 830.192L257.31 835.154C253.912 835.137 250.794 833.763 248.507 831.277C246.231 828.789 245.085 825.493 245.258 821.98L271.396 178.141L271.399 178.151Z" fill="white"/>
<path d="M276.364 168.386C273.877 170.941 272.37 174.26 272.081 177.803L235.884 805.848C235.565 809.668 236.739 813.34 239.151 816.144C241.563 818.948 244.945 820.573 248.67 820.689L858.355 826.817C866.019 827.075 872.794 820.843 873.437 812.911L909.63 184.888C910.277 176.976 904.532 170.319 896.844 170.047L287.156 163.91C283.448 163.779 279.82 165.158 276.978 167.777C276.77 167.967 276.555 168.169 276.361 168.376L276.366 168.395L276.364 168.386ZM273.424 177.87C273.711 174.4 275.288 171.186 277.848 168.829C280.415 166.459 283.685 165.216 287.049 165.336L896.73 171.485C903.651 171.713 908.833 177.733 908.245 184.895L872.075 812.89C871.494 820.04 865.387 825.67 858.448 825.416L248.763 819.288C245.411 819.176 242.362 817.711 240.18 815.187C237.997 812.663 236.95 809.351 237.231 805.893L273.414 177.873L273.424 177.87Z" fill="white"/>
<path d="M278.303 168.543C275.948 170.97 274.459 174.088 274.086 177.468L274.076 177.47L227.85 789.681C227.426 793.457 228.486 797.128 230.79 799.992C233.094 802.855 236.401 804.552 240.077 804.795L833.878 822.082C837.542 822.318 841.161 821.065 844.061 818.545C846.955 816.005 848.775 812.541 849.194 808.745L895.432 196.542C895.855 192.766 894.796 189.095 892.495 186.241C890.191 183.377 886.883 181.68 883.207 181.437L289.416 164.148C285.752 163.912 282.133 165.165 279.233 167.685C278.913 167.957 278.599 168.257 278.298 168.565L278.293 168.546L278.303 168.543ZM275.446 177.561C275.826 174.128 277.461 170.981 280.079 168.723C282.691 166.444 285.96 165.316 289.28 165.54L883.065 182.81C886.36 183.02 889.347 184.564 891.422 187.147C893.515 189.726 894.448 193.037 894.065 196.461L847.827 808.664C847.458 812.063 845.822 815.21 843.188 817.483C840.576 819.762 837.307 820.89 833.987 820.666L240.211 803.393C236.917 803.183 233.929 801.64 231.855 799.056C229.774 796.485 228.829 793.166 229.212 789.743L275.446 177.561Z" fill="white"/>
<path d="M280.241 168.71C278.005 171.002 276.565 173.952 276.121 177.143L276.092 177.151L219.834 773.518C218.76 781.265 224.004 788.179 231.522 788.9L809.406 817.304C816.89 818.013 823.885 812.292 824.961 804.514L881.247 208.139C881.763 204.401 880.847 200.723 878.625 197.816C876.422 194.905 873.2 193.103 869.556 192.748L291.66 164.337C288.051 163.994 284.42 165.125 281.485 167.552C281.041 167.908 280.618 168.3 280.229 168.703L280.248 168.698L280.241 168.71ZM277.457 177.264C278.428 170.259 284.732 165.094 291.5 165.756L869.384 194.16C872.634 194.474 875.535 196.083 877.53 198.718C879.512 201.347 880.353 204.662 879.878 208.048L823.608 804.408C822.639 811.382 816.337 816.556 809.56 815.897L231.681 787.513C224.938 786.865 220.216 780.629 221.187 773.624L277.476 177.259L277.457 177.264Z" fill="white"/>
<path d="M282.177 168.836C280.12 170.946 278.655 173.685 278.13 176.805L278.14 176.844L211.808 757.358C211.187 761.052 212.002 764.737 214.093 767.698C216.185 770.66 219.335 772.543 222.937 773.013L784.914 812.531C788.479 812.979 792.11 811.961 795.1 809.665C798.087 807.359 800.077 804.026 800.719 800.295L867.048 219.729C867.669 216.035 866.855 212.351 864.763 209.389C862.671 206.428 859.521 204.544 855.919 204.075L293.949 164.545C289.546 163.978 285.222 165.698 282.201 168.809L282.172 168.817L282.177 168.836ZM279.473 176.954C280.662 170.026 287.049 165.098 293.733 165.948L855.702 205.478C858.915 205.885 861.738 207.587 863.629 210.26C865.52 212.934 866.249 216.258 865.683 219.616L799.376 800.187C798.813 803.514 797.019 806.495 794.327 808.588C791.632 810.671 788.356 811.584 785.119 811.162L223.137 771.625C219.924 771.217 217.102 769.516 215.211 766.842C213.32 764.169 212.59 760.844 213.156 757.486L279.473 176.954Z" fill="white"/>
<path d="M284.075 168.973C282.075 171.026 280.712 173.603 280.146 176.454L280.137 176.498L203.782 741.199C203.065 744.845 203.749 748.544 205.752 751.56C207.748 754.589 210.807 756.558 214.365 757.133L760.423 807.798C767.742 808.976 774.934 803.73 776.457 796.113L852.834 231.375C854.338 223.804 849.604 216.63 842.244 215.453L296.183 164.778C292.67 164.213 289.037 165.107 285.995 167.323C285.302 167.829 284.655 168.394 284.08 168.992L284.075 168.973ZM281.483 176.657C282.151 173.334 284.017 170.426 286.747 168.437C289.48 166.458 292.762 165.647 295.952 166.164L842.027 216.815C848.599 217.87 852.864 224.331 851.502 231.192L775.125 795.929C773.772 802.746 767.277 807.465 760.659 806.391L214.593 755.737C211.425 755.225 208.677 753.452 206.875 750.723C205.073 747.995 204.457 744.672 205.116 741.351L281.491 176.645L281.481 176.648L281.483 176.657Z" fill="white"/>
<path d="M286.013 169.099C284.185 170.982 282.808 173.387 282.192 176.128L282.182 176.171L195.762 725.017C194.031 732.514 198.529 739.813 205.783 741.214L735.959 803.008C739.43 803.688 743.059 802.899 746.145 800.805C749.24 798.709 751.378 795.542 752.225 791.881L838.649 242.973C840.38 235.476 835.882 228.177 828.628 226.775L298.457 165.001C293.872 164.1 289.23 165.79 286.013 169.099ZM283.502 176.348C285.074 169.576 291.643 165.096 298.189 166.366L828.352 228.152C834.826 229.42 838.888 235.976 837.312 242.77L750.887 791.678C750.146 794.918 748.202 797.764 745.426 799.661C742.651 801.558 739.382 802.263 736.212 801.626L206.039 739.843C199.566 738.574 195.503 732.019 197.079 725.225L283.502 176.348Z" fill="white"/>
<path d="M287.908 169.216C286.142 171.02 284.862 173.286 284.213 175.787L284.207 175.84L187.731 708.869C186.795 712.43 187.256 716.146 189.05 719.27C190.841 722.384 193.735 724.553 197.216 725.344L711.477 798.264C714.897 799.061 718.538 798.393 721.658 796.393C724.789 794.391 727.032 791.31 727.982 787.684L824.452 254.595C826.402 247.184 822.152 239.767 814.986 238.114L300.703 165.19C297.286 164.403 293.642 165.061 290.512 167.064C289.546 167.673 288.665 168.404 287.893 169.199L287.908 169.216ZM285.515 176.051C286.368 172.802 288.386 170.04 291.199 168.247C294.013 166.453 297.288 165.851 300.399 166.575L814.667 239.482C817.734 240.198 820.349 242.131 821.953 244.932C823.56 247.744 823.981 251.077 823.128 254.326L726.663 787.435C725.816 790.63 723.804 793.411 720.99 795.205C718.177 796.999 714.899 797.591 711.781 796.879L197.498 723.955C194.431 723.239 191.816 721.307 190.212 718.505C188.605 715.694 188.184 712.36 189.037 709.111L285.52 176.07L285.515 176.051Z" fill="white"/>
<path d="M289.815 169.308C288.189 170.973 286.942 173.053 286.24 175.434L286.214 175.492L179.715 692.707C178.677 696.232 179.014 699.951 180.697 703.125C182.38 706.299 185.203 708.548 188.629 709.448L686.988 793.5C694.024 795.364 701.554 790.877 703.734 783.477L810.259 266.204C811.3 262.688 810.96 258.96 809.278 255.786C807.585 252.615 804.772 250.363 801.345 249.463L302.979 165.423C298.216 164.165 293.202 165.82 289.796 169.313L289.815 169.308ZM287.545 175.749C289.519 169.128 296.282 165.104 302.648 166.784L801.014 250.824C804.044 251.633 806.568 253.651 808.095 256.515C809.608 259.362 809.921 262.714 808.965 265.928L702.44 783.201C700.487 789.785 693.717 793.821 687.339 792.134L188.973 708.094C185.943 707.286 183.419 705.267 181.892 702.403C180.379 699.556 180.066 696.204 181.01 692.983L287.523 175.744L287.543 175.739L287.545 175.749Z" fill="white"/>
<path d="M291.706 169.416C290.194 170.966 288.998 172.889 288.272 175.1L288.246 175.158L171.689 676.547C169.305 683.804 173.062 691.466 180.057 693.567L662.512 788.744C665.84 789.742 669.487 789.33 672.706 787.542C675.927 785.764 678.342 782.824 679.501 779.287L796.074 277.843C797.208 274.364 796.992 270.634 795.417 267.401C793.836 264.179 791.11 261.831 787.714 260.81L305.259 165.633C300.42 164.168 295.224 165.799 291.713 169.403L291.703 169.406L291.706 169.416ZM289.556 175.451C290.607 172.285 292.762 169.652 295.661 168.063C298.555 166.455 301.831 166.09 304.877 166.998L787.331 262.174C790.324 263.075 792.788 265.182 794.193 268.088C795.617 270.99 795.815 274.342 794.779 277.525L678.194 778.963C677.162 782.083 674.999 784.728 672.1 786.317C669.206 787.925 665.932 788.299 662.884 787.382L180.432 692.216C174.199 690.335 170.835 683.448 172.985 676.864L289.556 175.451Z" fill="white"/>
<path d="M293.584 169.506C292.17 170.959 291.018 172.735 290.287 174.771L290.261 174.83L163.661 660.368C162.403 663.807 162.518 667.543 164.003 670.832C165.474 674.104 168.128 676.533 171.473 677.671L638.026 783.981C644.884 786.305 652.639 782.317 655.256 775.081L781.868 289.467C783.125 286.028 783.011 282.292 781.525 279.003C780.055 275.732 777.401 273.302 774.056 272.164L307.518 165.871C302.593 164.201 297.191 165.794 293.584 169.506ZM291.559 175.157C293.921 168.672 300.887 165.1 307.084 167.197L773.625 273.5C779.776 275.578 782.923 282.584 780.569 289.099L653.961 774.722C651.627 781.158 644.654 784.742 638.425 782.643L171.902 676.326C168.944 675.322 166.563 673.141 165.231 670.195C163.898 667.248 163.802 663.89 164.94 660.741L291.549 175.16L291.559 175.157Z" fill="white"/>
<path d="M295.439 169.561C294.097 170.932 293.032 172.571 292.303 174.42L292.278 174.479L155.642 644.196C152.821 651.289 156.074 659.199 162.895 661.772L613.521 779.2C616.756 780.43 620.411 780.244 623.72 778.68C627.027 777.107 629.622 774.337 630.986 770.869L767.655 301.082C770.478 293.998 767.222 286.079 760.399 283.496L309.773 166.068C306.538 164.838 302.886 165.034 299.574 166.588C298.011 167.324 296.621 168.325 295.437 169.551L295.439 169.561ZM293.566 174.85C294.8 171.749 297.121 169.268 300.097 167.856C303.077 166.452 306.351 166.274 309.32 167.399L759.958 284.835C766.033 287.13 768.939 294.242 766.394 300.662L629.738 770.456C628.523 773.512 626.208 776.011 623.228 777.414C620.249 778.817 616.974 778.995 614.006 777.871L163.36 660.447C157.276 658.155 154.379 651.04 156.924 644.62L293.581 174.867L293.566 174.85Z" fill="white"/>
<path d="M297.312 169.632C296.077 170.902 295.069 172.402 294.347 174.084L294.314 174.155L147.631 628.043C146.175 631.4 146.057 635.157 147.318 638.536C148.58 641.915 151.074 644.521 154.342 645.877L589.066 774.439C592.266 775.771 595.913 775.711 599.268 774.239C602.625 772.776 605.279 770.073 606.767 766.645L753.493 312.684C756.534 305.676 753.536 297.637 746.799 294.835L312.053 166.268C308.853 164.936 305.206 164.996 301.851 166.468C300.136 167.215 298.609 168.283 297.317 169.61L297.322 169.629L297.312 169.632ZM295.582 174.563C296.918 171.496 299.3 169.092 302.315 167.783C305.337 166.462 308.603 166.41 311.538 167.637L746.262 296.199C752.264 298.689 754.963 305.918 752.207 312.281L605.507 766.225C604.199 769.243 601.81 771.658 598.788 772.98C595.766 774.301 592.499 774.353 589.568 773.136L154.822 644.569C151.947 643.368 149.711 641.035 148.579 637.983C147.446 634.932 147.555 631.571 148.889 628.494L295.594 174.57L295.582 174.563Z" fill="white"/>
<path d="M299.148 169.701C298.026 170.848 297.083 172.206 296.354 173.746L296.321 173.816L139.607 611.861C136.359 618.789 139.102 626.958 145.755 629.99L564.577 769.685C567.735 771.131 571.382 771.186 574.786 769.824C578.181 768.466 580.931 765.851 582.522 762.458L739.286 324.327C740.854 321.002 741.086 317.246 739.923 313.81C738.773 310.38 736.355 307.671 733.138 306.199L314.316 166.504C309.17 164.158 303.111 165.615 299.153 169.679L299.158 169.699L299.148 169.701ZM297.59 174.265C300.556 167.992 307.806 165.1 313.778 167.826L732.6 307.521C735.429 308.818 737.605 311.24 738.643 314.326C739.682 317.413 739.464 320.793 738.049 323.839L581.285 761.969C579.884 764.95 577.419 767.313 574.359 768.531C571.299 769.748 568.026 769.698 565.13 768.379L146.286 628.679C140.363 625.981 137.895 618.649 140.844 612.349L297.597 174.253L297.587 174.256L297.59 174.265Z" fill="white"/>
<path d="M300.996 169.749C299.971 170.797 299.094 172.014 298.397 173.4L298.364 173.47L131.585 595.701C129.924 598.989 129.562 602.759 130.614 606.246C131.656 609.735 134 612.516 137.174 614.103L540.102 764.919C546.603 768.156 554.79 765.17 558.29 758.258L725.095 335.969C726.756 332.681 727.119 328.911 726.067 325.424C725.015 321.937 722.681 319.154 719.516 317.564L316.608 166.743C311.397 164.156 305.117 165.558 301.03 169.76L301.005 169.746L300.996 169.749ZM299.604 173.968C302.768 167.777 310.107 165.1 315.996 168.023L718.904 318.845C721.705 320.231 723.805 322.756 724.74 325.881C725.677 329.015 725.369 332.408 723.84 335.413L557.038 757.712C553.919 763.881 546.547 766.546 540.657 763.622L137.749 612.801C134.948 611.415 132.849 608.89 131.914 605.765C130.976 602.631 131.284 599.237 132.813 596.233L299.604 173.968Z" fill="white"/>
<path d="M302.85 169.762C301.907 170.727 301.094 171.833 300.435 173.053L300.41 173.112L123.582 579.514C121.81 582.769 121.336 586.548 122.277 590.085C123.218 593.622 125.464 596.502 128.606 598.201L515.602 760.158C522.027 763.612 530.313 760.88 534.042 754.051L710.905 347.588C714.596 340.811 712.359 332.403 705.881 328.901L318.875 166.947C315.794 165.283 312.134 164.984 308.651 166.128C306.442 166.85 304.477 168.098 302.857 169.75L302.848 169.752L302.85 169.762ZM301.614 173.671C303.226 170.707 305.849 168.509 308.982 167.489C312.122 166.457 315.413 166.73 318.23 168.257L705.226 330.214C707.995 331.712 710.015 334.289 710.854 337.481C711.7 340.66 711.281 344.062 709.652 347.041L532.79 753.505C529.476 759.602 522.013 762.043 516.19 758.905L129.203 596.945C126.438 595.456 124.414 592.869 123.566 589.68C122.72 586.501 123.139 583.099 124.768 580.12L301.607 173.683L301.602 173.664L301.614 173.671Z" fill="white"/>
<path d="M304.67 169.795C303.825 170.662 303.08 171.636 302.449 172.725L302.408 172.767L115.551 563.367C111.652 570.064 113.621 578.595 120.013 582.316L491.093 755.39C497.436 759.083 505.83 756.601 509.767 749.852L696.667 359.22C698.552 355.997 699.14 352.219 698.298 348.624C697.468 345.037 695.291 342.067 692.193 340.263L321.113 167.19C318.074 165.411 314.422 164.986 310.872 166.034C308.503 166.737 306.363 168.03 304.651 169.8L304.67 169.795ZM303.625 173.374C305.34 170.445 308.032 168.311 311.207 167.373C314.383 166.435 317.683 166.819 320.47 168.427L691.549 341.5C694.283 343.101 696.225 345.772 696.991 349.003C697.746 352.227 697.215 355.639 695.506 358.587L508.605 749.22C506.912 752.112 504.22 754.246 501.028 755.199C497.852 756.137 494.552 755.753 491.765 754.145L120.686 581.072C114.982 577.757 113.197 570.078 116.741 563.992L303.628 173.384L303.625 173.374Z" fill="white"/>
<path d="M306.484 169.84C305.743 170.596 305.079 171.446 304.492 172.388L304.452 172.43L107.551 547.18C103.415 553.806 105.168 562.456 111.457 566.412L466.622 750.611C472.872 754.537 481.393 752.3 485.537 745.63L682.476 370.829C684.461 367.631 685.173 363.851 684.444 360.217C683.715 356.582 681.626 353.516 678.572 351.607L323.42 167.414C318.045 164.053 311.006 165.212 306.503 169.835L306.484 169.84ZM305.638 173.077C309.382 167.082 317.037 165.087 322.701 168.64L677.866 352.84C680.574 354.541 682.445 357.292 683.1 360.574C683.756 363.856 683.121 367.264 681.31 370.177L484.371 744.978C480.652 750.955 472.986 752.944 467.312 749.393L112.154 565.181C106.529 561.659 104.961 553.86 108.698 547.837L305.638 173.077Z" fill="white"/>
<path d="M308.277 169.859C307.627 170.529 307.032 171.246 306.503 172.06L306.469 172.089L99.5257 531.029C95.1637 537.581 96.6688 546.349 102.874 550.534L442.125 745.86C445.099 747.863 448.74 748.518 452.371 747.697C456.009 746.864 459.168 744.657 461.274 741.448L668.263 382.485C672.61 375.917 671.12 367.166 664.915 362.98L325.662 167.645C320.251 163.993 312.942 165.069 308.277 169.859ZM307.634 172.773C311.584 166.848 319.338 165.074 324.933 168.832L664.184 364.158C669.744 367.904 671.081 375.806 667.146 381.748L460.157 740.71C458.274 743.55 455.419 745.541 452.147 746.308C448.878 747.054 445.576 746.463 442.885 744.634L103.634 549.308C98.0735 545.562 96.7245 537.652 100.671 531.718L307.647 172.78L307.634 172.773Z" fill="white"/>
<path d="M310.084 169.844C309.522 170.418 309.005 171.042 308.523 171.719L308.49 171.748L91.4929 514.841C89.2843 517.974 88.3565 521.76 88.8788 525.512C89.4056 529.242 91.315 532.49 94.2944 534.626L417.631 741.077C423.713 745.461 432.436 743.751 437.024 737.232L654.052 394.1C658.619 387.618 657.391 378.725 651.265 374.332L327.928 167.88C324.986 165.765 321.343 164.986 317.667 165.716C314.774 166.278 312.16 167.73 310.077 169.857L310.086 169.854L310.084 169.844ZM309.626 172.481C311.636 169.649 314.558 167.723 317.859 167.061C321.173 166.408 324.475 167.112 327.15 169.039L650.487 375.491C655.978 379.442 657.098 387.464 652.958 393.335L435.931 736.467C431.803 742.305 423.941 743.869 418.433 739.891L95.0867 533.442C92.448 531.537 90.7084 528.616 90.233 525.234C89.7575 521.853 90.5962 518.432 92.6198 515.576L309.645 172.476L309.636 172.478L309.626 172.481Z" fill="white"/>
<path d="M311.886 169.851C311.422 170.326 310.979 170.838 310.577 171.389L310.558 171.395L83.5038 498.661C81.1806 501.752 80.1369 505.569 80.5529 509.349C80.9688 513.129 82.8093 516.468 85.7248 518.714L393.125 736.288C399.126 740.91 407.962 739.428 412.772 733.005L639.843 405.724C644.637 399.316 643.644 390.298 637.619 385.661L330.192 168.105C327.292 165.876 323.637 164.976 319.93 165.589C316.87 166.104 314.079 167.591 311.883 169.842L311.886 169.851ZM311.649 172.191C313.763 169.362 316.741 167.525 320.102 166.972C323.45 166.412 326.762 167.228 329.39 169.25L636.807 386.809C642.233 390.984 643.122 399.109 638.781 404.92L411.71 732.202C407.392 737.986 399.424 739.31 393.986 735.127L86.5635 517.549C83.95 515.544 82.282 512.542 81.9102 509.122C81.5385 505.703 82.4957 502.261 84.5927 499.447L311.657 172.178L311.647 172.181L311.649 172.191Z" fill="white"/>
<path d="M313.657 169.856C313.291 170.233 312.943 170.636 312.6 171.058L75.4955 482.486C70.4779 488.829 71.2195 497.956 77.1604 502.822L368.647 731.521C374.573 736.371 383.503 735.164 388.528 728.808L625.639 417.368C628.062 414.302 629.232 410.493 628.925 406.653C628.605 402.806 626.858 399.39 623.987 397.039L332.495 168.32C326.957 163.802 318.816 164.551 313.673 169.841L313.664 169.844L313.657 169.856ZM313.648 171.886C318.21 166.161 326.246 165.057 331.615 169.445L623.101 398.144C628.457 402.524 629.132 410.778 624.586 416.52L387.474 727.96C382.945 733.688 374.877 734.789 369.508 730.402L78.0216 501.703C72.6653 497.323 71.9903 489.069 76.5367 483.327L313.648 171.886Z" fill="white"/>
<path d="M315.42 169.832C315.143 170.113 314.881 170.41 314.618 170.708L67.4878 466.312C64.943 469.348 63.6616 473.166 63.8585 477.056C64.065 480.944 65.7431 484.45 68.5747 486.925L344.142 726.732C349.987 731.82 359.012 730.857 364.254 724.578L611.394 428.971C613.929 425.937 615.221 422.117 615.024 418.227C614.817 414.339 613.139 410.833 610.307 408.357L334.74 168.551C329.169 163.711 320.747 164.338 315.415 169.813L315.42 169.832ZM315.638 171.585C320.385 165.934 328.56 165.042 333.842 169.649L609.409 409.455C611.971 411.692 613.496 414.856 613.677 418.378C613.859 421.9 612.701 425.364 610.399 428.108L363.259 723.715C358.493 729.411 350.349 730.264 345.054 725.651L69.4874 485.844C66.9262 483.607 65.4013 480.443 65.2196 476.921C65.038 473.4 66.2084 469.943 68.498 467.191L315.638 171.585Z" fill="white"/>
</g>
<defs>
<clipPath id="clip0_982_237">
<rect width="926.76" height="811.62" fill="white" transform="translate(0 238.298) rotate(-14.8999)"/>
</clipPath>
</defs>
</svg>
