<svg width="1000" height="1006" viewBox="0 0 1000 1006" fill="none" xmlns="http://www.w3.org/2000/svg">
<g opacity="0.2" clip-path="url(#clip0_2004_78)">
<path d="M677.128 809.956C679.579 808.541 681.493 806.196 682.274 803.255L811.062 322.639C812.637 316.761 809.128 310.683 803.25 309.108L322.639 180.329C316.761 178.754 310.684 182.263 309.109 188.141L180.329 668.752C178.754 674.63 182.263 680.707 188.141 682.282L668.752 811.062C671.698 811.851 674.686 811.366 677.128 809.956ZM314.78 182.352C316.994 181.073 319.707 180.637 322.366 181.35L802.977 310.129C808.294 311.554 811.466 317.048 810.047 322.375L681.268 802.986C679.834 808.309 674.348 811.475 669.022 810.056L188.411 681.276C183.093 679.852 179.921 674.357 181.341 669.031L310.129 188.414C310.841 185.756 312.575 183.625 314.79 182.346L314.78 182.352Z" fill="white"/>
<path d="M675.712 809.398C678.145 807.993 679.915 805.757 680.715 803.06L814.174 336.257C815.006 333.468 814.705 330.507 813.316 327.932C811.926 325.357 809.617 323.483 806.814 322.647L340.02 189.183C337.227 188.342 334.271 188.651 331.696 190.041C329.143 191.405 327.247 193.739 326.411 196.542L192.952 663.345C192.12 666.134 192.42 669.095 193.81 671.67C195.199 674.245 197.508 676.119 200.311 676.955L667.114 810.414C669.908 811.255 672.864 810.945 675.439 809.556C675.53 809.503 675.621 809.451 675.712 809.398ZM679.707 802.767C678.944 805.296 677.251 807.392 674.931 808.634C672.607 809.891 669.932 810.16 667.398 809.412L200.595 675.952C198.07 675.199 195.984 673.5 194.727 671.176C193.471 668.852 193.202 666.177 193.95 663.643L327.418 196.835C328.172 194.31 329.876 192.233 332.194 190.967C334.518 189.711 337.194 189.442 339.727 190.19L806.527 323.664C809.051 324.417 811.137 326.116 812.394 328.44C813.651 330.764 813.92 333.439 813.171 335.973L679.712 802.776L679.707 802.767Z" fill="white"/>
<path d="M674.286 808.849C676.591 807.518 678.303 805.412 679.145 802.872L817.293 349.872C818.204 347.135 817.985 344.188 816.684 341.599C815.383 339.009 813.151 337.078 810.396 336.178L357.406 198.048C351.746 196.177 345.596 199.266 343.712 204.946L205.568 657.932C203.688 663.598 206.786 669.742 212.466 671.626L665.452 809.77C668.188 810.68 671.135 810.461 673.716 809.166C673.904 809.069 674.1 808.968 674.282 808.863L674.286 808.849ZM678.15 802.536C677.323 805.018 675.582 807.032 673.258 808.203C670.924 809.38 668.268 809.577 665.786 808.751L212.8 670.606C207.684 668.92 204.89 663.365 206.595 658.238L344.721 205.263C346.417 200.141 351.962 197.352 357.089 199.057L810.079 337.187C812.556 338.005 814.569 339.746 815.746 342.079C816.923 344.412 817.12 347.068 816.294 349.55L678.159 802.531L678.15 802.536Z" fill="white"/>
<path d="M672.869 808.305C675.055 807.042 676.714 805.076 677.589 802.676L677.598 802.671L820.413 363.498C821.392 360.819 821.259 357.895 820.047 355.29C818.835 352.686 816.676 350.713 813.982 349.729L374.798 206.896C372.11 205.922 369.195 206.05 366.59 207.262C363.982 208.488 362.013 210.633 361.03 213.327L218.206 652.505C217.226 655.185 217.359 658.109 218.571 660.713C219.783 663.318 221.943 665.29 224.637 666.274L663.814 809.098C666.503 810.073 669.418 809.945 672.022 808.733C672.312 808.602 672.599 808.448 672.873 808.29L672.869 808.305ZM676.591 802.317C675.7 804.75 673.923 806.7 671.575 807.789C669.223 808.891 666.59 809.002 664.156 808.111L224.978 665.287C222.564 664.409 220.609 662.622 219.52 660.274C218.418 657.923 218.307 655.29 219.198 652.856L362.022 213.678C362.9 211.264 364.677 209.314 367.035 208.22C369.386 207.117 372.019 207.007 374.453 207.897L813.631 350.722C816.045 351.599 818 353.386 819.089 355.734C820.186 358.077 820.302 360.719 819.411 363.153L676.591 802.317Z" fill="white"/>
<path d="M671.453 807.764C673.521 806.57 675.116 804.726 676.019 802.48L676.037 802.469L823.528 377.119C825.704 371.671 823.02 365.445 817.549 363.271L392.188 215.762C386.737 213.6 380.515 216.269 378.341 221.74L230.832 647.101C229.788 649.733 229.82 652.629 230.958 655.253C232.081 657.872 234.164 659.901 236.815 660.958L662.176 808.467C664.808 809.511 667.704 809.479 670.328 808.341C670.718 808.176 671.102 807.978 671.467 807.768L671.453 807.764ZM675.043 802.095C673.077 807.021 667.471 809.431 662.545 807.465L237.184 659.955C234.818 659.013 232.941 657.193 231.927 654.827C230.913 652.46 230.874 649.846 231.829 647.461L379.32 222.11C381.273 217.204 386.888 214.788 391.814 216.755L817.179 364.25C822.085 366.204 824.501 371.819 822.534 376.745L675.029 802.091L675.043 802.095Z" fill="white"/>
<path d="M670.033 807.246C671.937 806.147 673.514 804.459 674.458 802.286L674.466 802.257L826.638 390.738C827.751 388.164 827.8 385.281 826.765 382.647C825.73 380.013 823.72 377.941 821.121 376.806L409.573 224.626C406.999 223.513 404.116 223.464 401.482 224.499C398.848 225.534 396.777 227.544 395.641 230.143L243.453 641.696C242.339 644.27 242.291 647.153 243.325 649.787C244.36 652.421 246.37 654.492 248.969 655.628L660.508 807.813C663.688 809.197 667.208 808.877 670.015 807.257L670.033 807.246ZM673.481 801.878C671.372 806.704 665.74 808.922 660.91 806.827L249.372 654.642C247.054 653.636 245.25 651.774 244.315 649.398C243.381 647.022 243.423 644.422 244.442 642.084L396.617 230.528C397.623 228.209 399.49 226.415 401.861 225.471C404.237 224.536 406.837 224.578 409.175 225.598L820.727 377.786C823.046 378.793 824.849 380.655 825.784 383.031C826.719 385.407 826.677 388.007 825.657 390.344L673.481 801.878Z" fill="white"/>
<path d="M668.637 806.726C670.487 805.658 671.961 804.066 672.889 802.097L672.906 802.063L829.749 404.357C830.931 401.84 831.075 398.975 830.115 396.322C829.163 393.664 827.236 391.546 824.684 390.346L426.963 233.476C421.724 231.009 415.431 233.282 412.952 238.54L256.087 636.271C253.624 641.495 255.879 647.799 261.151 650.282L658.882 807.147C661.399 808.33 664.264 808.473 666.917 807.513C667.521 807.297 668.103 807.022 668.641 806.712L668.637 806.726ZM671.929 801.655C670.846 803.945 668.942 805.676 666.556 806.53C664.17 807.385 661.585 807.263 659.295 806.179L261.565 649.314C256.859 647.099 254.822 641.423 257.054 636.684L413.919 238.954C416.135 234.248 421.81 232.211 426.55 234.443L824.271 391.314C826.541 392.384 828.272 394.288 829.132 396.683C829.993 399.077 829.864 401.654 828.781 403.944L671.92 801.66L671.929 801.655Z" fill="white"/>
<path d="M667.223 806.208C668.918 805.229 670.366 803.761 671.314 801.889L671.331 801.856L832.869 417.985C835.489 412.865 833.43 406.521 828.272 403.899L444.353 242.34C441.888 241.079 439.042 240.863 436.379 241.72C433.706 242.583 431.545 244.438 430.267 246.938L268.717 630.851C266.098 635.971 268.156 642.315 273.315 644.937L657.228 806.487C660.486 808.153 664.243 807.928 667.223 806.208ZM670.373 801.437C668.001 806.062 662.315 807.912 657.666 805.542L273.753 643.992C269.153 641.642 267.293 635.937 269.668 631.298L431.218 247.385C432.343 245.168 434.299 243.504 436.703 242.724C439.107 241.943 441.664 242.143 443.911 243.3L827.834 404.844C832.434 407.194 834.294 412.899 831.919 417.538L670.373 801.437Z" fill="white"/>
<path d="M665.832 805.712C667.463 804.77 668.818 803.392 669.748 801.701L669.765 801.667L835.983 431.605C837.314 429.196 837.625 426.368 836.842 423.686C836.059 421.004 834.29 418.782 831.838 417.439L461.742 251.205C459.334 249.874 456.506 249.563 453.824 250.346C451.142 251.129 448.919 252.898 447.577 255.35L281.347 625.455C278.579 630.466 280.437 636.841 285.483 639.625L655.588 805.855C657.997 807.186 660.825 807.497 663.507 806.714C664.332 806.48 665.117 806.136 665.837 805.721L665.832 805.712ZM668.824 801.214C667.612 803.408 665.624 804.994 663.21 805.695C660.796 806.396 658.253 806.115 656.059 804.903L285.954 638.673C283.794 637.478 282.194 635.486 281.493 633.073C280.792 630.659 281.073 628.116 282.285 625.922L448.518 255.802C449.713 253.642 451.705 252.043 454.119 251.342C456.533 250.64 459.076 250.921 461.27 252.133L831.38 418.372C833.54 419.567 835.14 421.559 835.841 423.973C836.542 426.386 836.261 428.93 835.049 431.124L668.828 801.2L668.824 801.214Z" fill="white"/>
<path d="M664.432 805.22C665.936 804.352 667.232 803.106 668.183 801.512L668.209 801.473L839.098 445.224C840.493 442.863 840.904 440.062 840.21 437.365C839.515 434.669 837.814 432.395 835.42 430.983L479.141 260.063C474.229 257.153 467.827 258.796 464.891 263.747L293.976 620.035C292.576 622.386 292.17 625.196 292.864 627.893C293.559 630.59 295.26 632.864 297.654 634.275L653.943 805.19C657.266 807.159 661.294 807.044 664.447 805.224L664.432 805.22ZM667.266 800.997C664.624 805.426 658.876 806.897 654.429 804.265L298.141 633.351C296.029 632.092 294.502 630.057 293.876 627.625C293.254 625.202 293.616 622.673 294.892 620.527L465.807 264.239C468.427 259.834 474.183 258.358 478.631 260.989L834.928 431.899C837.04 433.158 838.566 435.192 839.193 437.624C839.815 440.048 839.453 442.577 838.182 444.732L667.28 801L667.266 800.997Z" fill="white"/>
<path d="M663.052 804.734C664.455 803.923 665.687 802.775 666.617 801.314L666.643 801.275L842.217 458.843C845.275 454.04 843.837 447.594 839 444.519L496.529 268.919C494.226 267.454 491.439 266.962 488.727 267.568C486.01 268.164 483.695 269.793 482.205 272.135L306.605 614.606C305.14 616.91 304.648 619.697 305.244 622.414C305.85 625.125 307.47 627.446 309.812 628.936L652.283 804.536C655.631 806.673 659.79 806.617 663.042 804.739L663.052 804.734ZM665.722 800.774C664.382 802.872 662.306 804.326 659.868 804.859C657.426 805.406 654.92 804.958 652.813 803.623L310.342 628.023C308.269 626.705 306.81 624.62 306.277 622.182C305.73 619.74 306.178 617.234 307.513 615.127L483.118 272.665C484.441 270.601 486.521 269.133 488.959 268.6C491.401 268.053 493.907 268.501 496.014 269.836L838.48 445.427C842.788 448.175 844.078 453.966 841.309 458.323L665.722 800.774Z" fill="white"/>
<path d="M661.662 804.255C662.974 803.498 664.142 802.447 665.047 801.111L665.073 801.072L845.328 472.471C846.87 470.22 847.449 467.456 846.927 464.721C846.41 461.994 844.863 459.631 842.573 458.062L513.919 277.778C509.225 274.571 502.742 275.799 499.51 280.533L319.234 609.181C317.691 611.433 317.112 614.196 317.635 616.932C318.152 619.658 319.698 622.021 321.989 623.59L650.638 803.866C654.009 806.171 658.319 806.186 661.662 804.255ZM664.165 800.551C661.256 804.793 655.434 805.883 651.188 802.989L322.54 622.713C318.327 619.836 317.224 614.011 320.13 609.745L500.401 281.087C503.278 276.875 509.104 275.771 513.369 278.678L842.018 458.954C844.043 460.336 845.429 462.463 845.897 464.914C846.365 467.366 845.844 469.853 844.436 471.917L664.174 800.546L664.165 800.551Z" fill="white"/>
<path d="M660.286 803.802C661.525 803.086 662.608 802.121 663.483 800.923L663.509 800.884L848.435 486.097C851.789 481.512 850.771 474.993 846.142 471.604L531.315 286.652C529.121 285.04 526.371 284.38 523.625 284.799C520.884 285.228 518.464 286.697 516.831 288.94L331.871 603.771C328.516 608.356 329.534 614.875 334.164 618.265L648.995 803.226C651.19 804.838 653.94 805.498 656.686 805.078C657.98 804.878 659.189 804.447 660.291 803.811L660.286 803.802ZM662.618 800.329C661.15 802.331 658.98 803.644 656.52 804.032C654.053 804.411 651.586 803.82 649.57 802.347L334.738 617.387C330.617 614.372 329.714 608.515 332.745 604.36L517.7 289.519C519.147 287.543 521.311 286.22 523.777 285.841C526.243 285.462 528.711 286.054 530.727 287.526L845.567 472.482C849.689 475.496 850.592 481.353 847.561 485.508L662.613 800.32L662.618 800.329Z" fill="white"/>
<path d="M658.9 803.347C660.048 802.684 661.061 801.807 661.896 800.73L661.931 800.685L851.542 499.715C853.219 497.569 853.974 494.837 853.634 492.081C853.294 489.325 851.897 486.864 849.707 485.152L548.697 295.515C546.551 293.839 543.819 293.084 541.063 293.424C538.307 293.763 535.846 295.16 534.134 297.351L344.488 598.365C340.986 602.841 341.794 609.397 346.315 612.934L647.329 802.58C649.476 804.256 652.208 805.011 654.964 804.672C656.372 804.502 657.703 804.05 658.896 803.361L658.9 803.347ZM661.062 800.106C659.521 802.065 657.323 803.309 654.848 803.609C652.363 803.913 649.919 803.235 647.95 801.699L346.941 612.062C342.916 608.919 342.185 603.024 345.363 598.954L534.99 297.95C536.501 296.021 538.707 294.772 541.192 294.467C543.676 294.162 546.121 294.841 548.089 296.377L849.107 486.008C851.036 487.519 852.286 489.725 852.591 492.21C852.895 494.694 852.217 497.139 850.681 499.107L661.057 800.097L661.062 800.106Z" fill="white"/>
<path d="M657.546 802.89C658.585 802.29 659.528 801.503 660.342 800.535L660.377 800.491L854.654 513.349C858.299 508.972 857.701 502.381 853.289 498.696L566.097 304.374C564.003 302.619 561.294 301.778 558.514 302.034C555.744 302.285 553.235 303.6 551.45 305.748L357.128 592.94C355.373 595.035 354.532 597.744 354.788 600.523C355.039 603.294 356.359 605.812 358.493 607.593L645.685 801.915C649.104 804.764 653.871 805.025 657.543 802.905L657.546 802.89ZM659.515 799.883C656.199 803.838 650.287 804.372 646.322 801.061L359.13 606.739C357.249 605.165 356.058 602.912 355.833 600.418C355.608 597.924 356.367 595.493 357.962 593.564L552.284 306.372C553.859 304.491 556.111 303.3 558.605 303.075C561.099 302.85 563.53 303.609 565.45 305.209L852.656 499.535C856.591 502.815 857.13 508.736 853.815 512.716L659.506 799.888L659.515 799.883Z" fill="white"/>
<path d="M656.187 802.449C657.134 801.902 658.007 801.204 658.77 800.338L658.805 800.293L857.768 526.968C859.587 524.922 860.524 522.231 860.361 519.445C860.199 516.66 858.952 514.1 856.87 512.241L583.486 313.239C579.214 309.437 572.591 309.834 568.758 314.137L369.76 587.507C367.941 589.553 367.004 592.244 367.167 595.03C367.329 597.815 368.577 600.375 370.658 602.234L644.028 801.232C647.449 804.275 652.377 804.625 656.167 802.436L656.187 802.449ZM657.966 799.66C654.516 803.511 648.575 803.868 644.706 800.428L371.336 601.43C369.494 599.797 368.38 597.488 368.234 594.984C368.089 592.481 368.923 590.055 370.588 588.183L569.581 314.804C572.998 310.96 578.959 310.616 582.828 314.056L856.203 513.063C858.045 514.697 859.159 517.005 859.305 519.509C859.45 522.012 858.615 524.438 856.951 526.31L657.966 799.66Z" fill="white"/>
<path d="M654.804 802.032C655.679 801.527 656.48 800.895 657.189 800.145L657.215 800.106L860.863 540.598C862.755 538.594 863.778 535.926 863.705 533.126C863.631 530.326 862.466 527.719 860.426 525.786L600.874 322.103C596.701 318.158 590.043 318.346 586.062 322.54L382.379 582.092C378.429 586.255 378.608 592.919 382.816 596.904L642.368 800.587C644.372 802.479 647.04 803.502 649.84 803.428C651.609 803.379 653.301 802.9 654.795 802.038L654.804 802.032ZM656.416 799.437C654.688 801.262 652.346 802.298 649.833 802.364C647.31 802.435 644.908 801.514 643.078 799.776L383.526 596.093C381.727 594.386 380.681 592.05 380.619 589.522C380.548 587 381.469 584.598 383.207 582.768L586.89 323.216C590.436 319.468 596.431 319.311 600.209 322.888L859.762 526.57C861.556 528.268 862.606 530.614 862.678 533.136C862.749 535.658 861.828 538.061 860.09 539.89L656.42 799.423L656.416 799.437Z" fill="white"/>
<path d="M653.457 801.609C654.24 801.157 654.966 800.604 655.629 799.942L655.665 799.921L863.988 554.212C868.08 550.148 868.117 543.458 864.018 539.325L618.288 330.966C614.219 326.864 607.53 326.851 603.401 330.936L395.042 576.666C393.071 578.618 391.962 581.262 391.952 584.086C391.937 586.901 393.035 589.56 395.017 591.562L640.747 799.921C642.699 801.892 645.344 803.001 648.168 803.011C650.053 803.015 651.877 802.533 653.471 801.613L653.457 801.609ZM654.869 799.215C653.076 800.991 650.688 801.968 648.156 801.96C645.625 801.952 643.236 800.95 641.445 799.153L395.715 590.794C393.964 589.023 392.986 586.636 392.989 584.095C392.998 581.563 394 579.175 395.797 577.384L604.155 331.654C605.926 329.903 608.314 328.925 610.855 328.928C613.386 328.936 615.775 329.938 617.566 331.735L863.296 540.094C866.953 543.777 866.924 549.808 863.209 553.495L654.863 799.206L654.869 799.215Z" fill="white"/>
<path d="M652.114 801.18C652.797 800.786 653.447 800.313 654.045 799.749L654.082 799.728L867.08 567.842C871.33 563.882 871.562 557.151 867.572 552.87L635.664 339.835C631.704 335.586 624.964 335.359 620.693 339.344L407.658 571.251C405.614 573.16 404.418 575.782 404.315 578.612C404.211 581.441 405.227 584.147 407.161 586.214L639.068 799.248C642.474 802.895 647.926 803.586 652.099 801.177L652.114 801.18ZM653.316 798.992C649.468 802.574 643.412 802.353 639.821 798.51L407.913 585.476C406.195 583.637 405.291 581.207 405.382 578.651C405.474 576.096 406.553 573.736 408.414 571.993L621.449 340.085C625.279 336.514 631.335 336.735 634.932 340.586L866.839 553.621C870.406 557.442 870.19 563.507 866.338 567.104L653.316 798.992Z" fill="white"/>
<path d="M650.771 800.775C651.373 800.428 651.942 800.026 652.479 799.546L652.507 799.531L870.19 581.461C874.597 577.605 875.03 570.843 871.149 566.414L653.063 348.704C651.206 346.581 648.607 345.299 645.754 345.112C642.9 344.925 640.156 345.854 638.017 347.745L420.306 565.83C415.904 569.696 415.466 576.448 419.347 580.877L637.432 798.588C640.818 802.452 646.452 803.269 650.771 800.775ZM651.768 798.778C647.778 802.261 641.692 801.862 638.191 797.882L420.106 580.171C416.625 576.204 417.033 570.113 421.013 566.613L638.723 348.527C640.627 346.858 643.107 346.021 645.676 346.178C648.241 346.349 650.597 347.504 652.282 349.434L870.368 567.145C873.849 571.112 873.446 577.212 869.461 580.704L651.763 798.769L651.768 798.778Z" fill="white"/>
<path d="M649.424 800.39C649.944 800.09 650.437 799.744 650.918 799.357L650.945 799.342L873.305 595.095C875.501 593.28 876.869 590.704 877.144 587.836C877.416 584.982 876.564 582.182 874.725 579.964L670.462 357.577C666.706 353.027 659.912 352.37 655.34 356.151L432.953 560.414C428.404 564.171 427.747 570.965 431.528 575.536L635.791 797.923C637.605 800.119 640.181 801.487 643.049 801.762C645.301 801.981 647.511 801.494 649.434 800.384L649.424 800.39ZM650.233 798.55C648.239 800.188 645.721 800.961 643.142 800.724C640.559 800.479 638.227 799.238 636.575 797.239L432.312 574.853C428.921 570.748 429.51 564.613 433.633 561.212L656.02 356.95C660.13 353.568 666.259 354.148 669.66 358.271L873.923 580.657C875.55 582.634 876.328 585.161 876.083 587.744C875.837 590.328 874.605 592.655 872.598 594.312L650.224 798.555L650.233 798.55Z" fill="white"/>
<path d="M648.092 799.994C648.52 799.747 648.941 799.467 649.342 799.151L649.36 799.14L876.401 608.725C878.675 606.962 880.133 604.395 880.494 601.526C880.854 598.658 880.07 595.806 878.302 593.522L687.876 366.463C684.223 361.757 677.38 360.909 672.665 364.567L445.606 554.993C440.899 558.646 440.046 565.48 443.71 570.205L634.145 797.258C635.907 799.533 638.474 800.991 641.343 801.351C643.713 801.647 646.06 801.167 648.092 799.994ZM648.684 798.327C646.613 799.937 644.062 800.632 641.469 800.307C638.876 799.981 636.557 798.659 634.954 796.597L444.518 569.543C441.213 565.292 441.994 559.132 446.254 555.822L673.313 365.396C677.555 362.096 683.725 362.871 687.035 367.131L877.461 594.19C879.054 596.234 879.76 598.803 879.435 601.397C879.11 603.99 877.787 606.308 875.725 607.912L648.675 798.333L648.684 798.327Z" fill="white"/>
<path d="M646.769 799.602C647.106 799.408 647.441 799.19 647.767 798.953L879.492 622.355C884.35 618.797 885.419 611.936 881.855 607.068L705.252 375.334C701.694 370.475 694.832 369.407 689.965 372.97L458.23 549.574C455.882 551.294 454.333 553.829 453.889 556.721C453.445 559.614 454.142 562.504 455.867 564.861L632.471 796.595C635.793 801.128 641.994 802.359 646.759 799.608L646.769 799.602ZM647.136 798.114C642.728 801.316 636.544 800.367 633.324 795.969L456.72 564.234C453.506 559.846 454.468 553.642 458.866 550.422L690.6 373.818C694.989 370.604 701.193 371.566 704.413 375.964L881.016 607.698C884.231 612.087 883.269 618.291 878.871 621.511L647.136 798.114Z" fill="white"/>
<path d="M645.448 799.233C645.703 799.086 645.953 798.929 646.197 798.764L882.593 635.979C885.029 634.305 886.659 631.784 887.197 628.886C887.735 625.988 887.106 623.047 885.432 620.612L722.656 384.21C719.202 379.195 712.31 377.926 707.295 381.38L470.898 544.165C468.472 545.833 466.833 548.359 466.295 551.257C465.757 554.156 466.386 557.097 468.059 559.532L630.835 795.934C634.124 800.704 640.514 802.093 645.453 799.242L645.448 799.233ZM645.598 797.895C641.062 801 634.819 799.866 631.699 795.326L468.923 558.924C467.41 556.724 466.836 554.067 467.324 551.441C467.812 548.814 469.287 546.529 471.487 545.016L707.883 382.231C712.437 379.092 718.657 380.25 721.782 384.8L884.558 621.201C886.071 623.401 886.646 626.058 886.157 628.685C885.669 631.311 884.189 633.587 881.994 635.109L645.598 797.895Z" fill="white"/>
</g>
<defs>
<clipPath id="clip0_2004_78">
<rect width="725.747" height="741.824" fill="white" transform="matrix(-0.866025 0.5 0.5 0.866025 628.516 0)"/>
</clipPath>
</defs>
</svg>
