<svg width="1074" height="1086" viewBox="0 0 1074 1086" fill="none" xmlns="http://www.w3.org/2000/svg">
<g opacity="0.2" clip-path="url(#clip0_2002_28)">
<path d="M414.217 143.339C411.03 144.316 408.213 146.501 406.54 149.671L131.726 667.329C128.365 673.66 130.787 681.563 137.118 684.924L654.772 959.726C661.104 963.087 669.007 960.665 672.368 954.334L947.17 436.68C950.531 430.348 948.109 422.446 941.778 419.085L424.123 144.282C420.95 142.598 417.392 142.366 414.217 143.339ZM664.328 959.481C661.448 960.363 658.22 960.147 655.356 958.627L137.701 683.825C131.974 680.785 129.784 673.64 132.821 667.901L407.624 150.246C410.676 144.515 417.809 142.329 423.548 145.366L941.202 420.168C946.93 423.209 949.119 430.353 946.083 436.093L671.269 953.751C669.748 956.614 667.195 958.602 664.316 959.485L664.328 959.481Z" fill="white"/>
<path d="M415.696 144.353C412.533 145.322 409.91 147.422 408.279 150.307L131.754 650.875C130.062 653.856 129.624 657.334 130.539 660.657C131.454 663.98 133.609 666.742 136.605 668.441L637.162 944.971C640.146 946.674 643.621 947.1 646.944 946.186C650.235 945.294 653.028 943.116 654.728 940.119L931.254 439.551C932.946 436.57 933.383 433.092 932.468 429.769C931.554 426.446 929.399 423.684 926.402 421.984L425.834 145.459C422.849 143.755 419.375 143.329 416.052 144.244C415.933 144.28 415.815 144.317 415.696 144.353ZM409.358 150.909C410.902 148.207 413.4 146.249 416.391 145.436C419.39 144.608 422.532 145.006 425.243 146.534L925.811 423.06C928.51 424.592 930.456 427.093 931.285 430.093C932.113 433.092 931.715 436.234 930.187 438.945L653.649 939.516C652.117 942.215 649.612 944.149 646.616 944.99C643.617 945.818 640.475 945.42 637.764 943.892L137.204 667.351C134.505 665.819 132.559 663.317 131.731 660.318C130.903 657.318 131.301 654.176 132.829 651.466L409.355 150.898L409.358 150.909Z" fill="white"/>
<path d="M417.19 145.361C414.192 146.279 411.671 148.244 410.033 150.937L131.772 634.422C130.004 637.323 129.477 640.764 130.286 644.08C131.095 647.397 133.147 650.203 136.072 651.963L619.55 930.201C625.553 933.844 633.428 931.923 637.091 925.901L915.344 442.431C918.999 436.425 917.066 428.553 911.044 424.89L427.574 146.637C424.673 144.869 421.233 144.342 417.928 145.147C417.687 145.208 417.435 145.273 417.198 145.345L417.19 145.361ZM411.087 151.586C412.692 148.955 415.223 147.104 418.2 146.373C421.189 145.638 424.29 146.114 426.921 147.719L910.391 425.972C915.818 429.26 917.558 436.374 914.246 441.809L636.017 925.271C632.717 930.702 625.614 932.438 620.18 929.127L136.701 650.889C134.075 649.296 132.223 646.766 131.489 643.776C130.754 640.787 131.23 637.686 132.834 635.056L411.076 151.589L411.087 151.586Z" fill="white"/>
<path d="M418.671 146.359C415.827 147.23 413.404 149.049 411.766 151.573L411.754 151.576L131.789 617.957C129.957 620.773 129.337 624.165 130.04 627.475C130.744 630.785 132.701 633.62 135.534 635.461L601.921 915.449C604.75 917.278 608.129 917.902 611.439 917.198C614.758 916.479 617.584 914.537 619.425 911.705L899.402 445.321C901.234 442.504 901.854 439.113 901.151 435.803C900.448 432.493 898.49 429.658 895.658 427.817L429.274 147.84C426.445 146.011 423.066 145.388 419.756 146.091C419.389 146.165 419.018 146.265 418.663 146.374L418.671 146.359ZM412.816 152.249C414.482 149.691 417.038 147.922 420.02 147.293C423.011 146.649 426.063 147.217 428.621 148.883L895.005 428.86C897.544 430.505 899.316 433.073 899.945 436.056C900.59 439.047 900.021 442.098 898.356 444.657L618.379 911.041C616.733 913.58 614.177 915.348 611.183 915.981C608.192 916.625 605.14 916.057 602.582 914.391L136.198 634.414C133.659 632.769 131.887 630.201 131.258 627.218C130.617 624.239 131.182 621.176 132.847 618.617L412.816 152.249Z" fill="white"/>
<path d="M420.152 147.353C417.463 148.178 415.144 149.873 413.515 152.213L413.491 152.22L131.811 601.499C127.874 607.177 129.309 615.032 135.015 618.974L584.3 900.678C589.987 904.6 597.834 903.18 601.776 897.474L883.479 448.188C885.373 445.444 886.101 442.11 885.488 438.798C884.891 435.495 883.036 432.615 880.272 430.701L430.986 148.997C428.241 147.104 424.908 146.376 421.596 146.989C421.104 147.075 420.611 147.2 420.137 147.345L420.152 147.353ZM414.533 152.912C418.092 147.777 425.163 146.492 430.298 150.051L879.584 431.755C882.051 433.461 883.725 436.046 884.263 439.031C884.802 442.015 884.156 445.026 882.43 447.512L600.749 896.791C597.21 901.906 590.127 903.196 584.992 899.636L135.698 617.948C130.583 614.409 129.293 607.325 132.852 602.191L414.548 152.92L414.533 152.912Z" fill="white"/>
<path d="M421.643 148.323C419.167 149.082 416.911 150.603 415.253 152.848L415.237 152.879L131.837 585.044C129.879 587.705 129.062 591.001 129.554 594.298C130.046 597.595 131.805 600.503 134.489 602.494L566.685 885.909C569.346 887.868 572.642 888.685 575.939 888.193C579.236 887.701 582.145 885.941 584.135 883.258L867.563 451.058C869.521 448.397 870.338 445.101 869.846 441.804C869.354 438.507 867.595 435.598 864.911 433.608L432.727 150.189C429.442 147.761 425.316 147.197 421.667 148.316L421.643 148.323ZM416.266 153.574C419.963 148.592 427.013 147.533 432.004 151.214L864.188 434.633C866.583 436.401 868.162 439.015 868.607 441.989C869.052 444.964 868.317 447.937 866.529 450.351L583.117 882.559C581.35 884.954 578.732 886.521 575.761 886.977C572.787 887.422 569.814 886.687 567.4 884.9L135.2 601.472C132.805 599.705 131.226 597.091 130.781 594.116C130.336 591.142 131.071 588.169 132.859 585.755L416.266 153.574Z" fill="white"/>
<path d="M423.107 149.289C420.702 150.026 418.589 151.464 417.004 153.48L416.975 153.514L131.864 568.589C129.841 571.166 128.919 574.417 129.321 577.716C129.711 581.018 131.364 583.959 133.976 586.01L549.062 871.157C554.423 875.372 562.247 874.426 566.483 869.046L851.626 453.948C855.833 448.602 854.911 440.77 849.514 436.527L434.417 151.384C431.839 149.361 428.589 148.439 425.29 148.84C424.539 148.928 423.798 149.09 423.099 149.305L423.107 149.289ZM417.989 154.241C419.837 151.898 422.48 150.414 425.444 150.063C428.409 149.712 431.344 150.537 433.687 152.385L848.784 437.528C853.6 441.315 854.439 448.368 850.624 453.218L565.481 868.316C561.695 873.131 554.642 873.971 549.792 870.156L134.706 585.009C132.383 583.18 130.899 580.538 130.544 577.561C130.189 574.585 131.017 571.662 132.866 569.319L418.001 154.237L417.989 154.241Z" fill="white"/>
<path d="M424.593 150.258C422.389 150.933 420.338 152.236 418.755 154.134L418.727 154.168L131.882 552.122C127.522 557.307 128.209 565.133 133.437 569.506L531.441 856.388C533.937 858.487 537.147 859.487 540.431 859.206C543.727 858.922 546.697 857.364 548.825 854.832L835.695 456.832C840.055 451.647 839.368 443.821 834.139 439.448L436.139 152.578C432.84 149.805 428.467 149.071 424.593 150.258ZM419.717 154.902C423.661 150.22 430.677 149.599 435.387 153.548L833.386 440.418C838.046 444.33 838.674 451.37 834.722 456.068L547.852 854.068C545.974 856.315 543.29 857.708 540.324 857.969C537.358 858.23 534.475 857.324 532.202 855.403L134.19 568.536C129.53 564.624 128.902 557.584 132.855 552.886L419.717 154.902Z" fill="white"/>
<path d="M426.065 151.196C423.945 151.846 422.025 153.069 420.51 154.765L420.482 154.799L131.912 535.666C129.749 538.079 128.644 541.243 128.835 544.529C129.025 547.815 130.468 550.833 132.928 553.022L513.83 841.619C516.242 843.783 519.406 844.887 522.692 844.697C525.978 844.506 528.996 843.063 531.185 840.604L819.779 459.69C824.28 454.669 823.831 446.861 818.775 442.331L437.861 153.737C435.449 151.573 432.285 150.469 428.999 150.66C427.99 150.71 426.998 150.897 426.062 151.184L426.065 151.196ZM421.443 155.568C423.413 153.369 426.115 152.075 429.07 151.908C432.026 151.741 434.871 152.735 437.07 154.706L817.983 443.3C820.147 445.242 821.456 447.951 821.624 450.907C821.791 453.863 820.796 456.708 818.826 458.906L530.223 839.835C528.281 841.999 525.572 843.309 522.616 843.476C519.66 843.643 516.815 842.648 514.617 840.678L133.7 552.072C131.536 550.13 130.226 547.421 130.059 544.465C129.892 541.509 130.887 538.664 132.857 536.466L421.435 155.583L421.443 155.568Z" fill="white"/>
<path d="M427.533 152.128C425.578 152.727 423.76 153.816 422.248 155.394L422.208 155.432L131.927 519.21C129.702 521.551 128.489 524.657 128.574 527.936C128.659 531.215 130.011 534.275 132.386 536.528L496.19 826.853C501.059 831.491 508.841 831.297 513.52 826.389L803.841 462.574C806.07 460.245 807.279 457.127 807.194 453.847C807.109 450.568 805.757 447.509 803.382 445.256L439.566 154.935C436.271 151.797 431.618 150.864 427.518 152.12L427.533 152.128ZM423.165 156.228C427.368 151.842 434.354 151.671 438.763 155.867L802.579 446.189C804.67 448.192 805.885 450.93 805.962 453.888C806.035 456.834 804.952 459.641 802.92 461.767L512.599 825.583C508.427 829.946 501.43 830.12 497.02 825.924L133.193 535.607C131.101 533.603 129.886 530.865 129.81 527.907C129.736 524.962 130.82 522.154 132.848 520.016L423.149 156.22L423.165 156.228Z" fill="white"/>
<path d="M429.002 153.053C427.177 153.613 425.46 154.606 424.006 156.036L423.966 156.075L131.957 502.754C127.178 507.459 127.125 515.239 131.865 520.047L478.582 812.095C480.839 814.384 483.908 815.686 487.181 815.707C490.457 815.74 493.545 814.483 495.875 812.187L787.923 465.47C790.213 463.213 791.515 460.144 791.548 456.868C791.569 453.595 790.323 450.503 788.028 448.174L441.31 156.125C438.032 152.788 433.244 151.754 429.014 153.05L429.002 153.053ZM424.89 156.893C426.983 154.839 429.75 153.719 432.689 153.751C435.637 153.768 438.395 154.945 440.461 157.033L787.178 449.082C789.21 451.142 790.334 453.922 790.301 456.861C790.284 459.808 789.107 462.567 787.019 464.633L494.967 811.338C492.902 813.358 490.127 814.493 487.188 814.461C484.24 814.444 481.482 813.267 479.416 811.178L132.702 519.142C128.483 514.848 128.532 507.86 132.862 503.591L424.89 156.893Z" fill="white"/>
<path d="M430.461 153.968C428.754 154.491 427.137 155.389 425.745 156.684L425.705 156.722L131.978 486.287C129.612 488.464 128.217 491.484 128.094 494.762C127.967 498.028 129.118 501.149 131.333 503.555L460.952 797.331C465.493 802.251 473.259 802.554 478.22 797.975L771.984 468.36C774.35 466.183 775.745 463.163 775.868 459.885C775.994 456.619 774.843 453.498 772.628 451.092L443.013 157.328C439.751 153.791 434.809 152.636 430.461 153.968ZM426.61 157.559C431.069 153.458 438.039 153.745 442.149 158.189L771.765 451.953C775.84 456.368 775.568 463.347 771.104 467.476L477.344 797.103C472.928 801.178 465.949 800.906 461.821 796.442L132.205 502.679C130.246 500.557 129.217 497.749 129.328 494.811C129.438 491.874 130.692 489.157 132.854 487.159L426.598 157.563L426.61 157.559Z" fill="white"/>
<path d="M431.929 154.854C430.317 155.348 428.819 156.17 427.498 157.313L427.458 157.352L132.019 469.827C126.957 474.204 126.403 481.956 130.822 487.07L443.336 782.549C445.429 784.98 448.411 786.463 451.674 786.708C454.934 786.94 458.099 785.892 460.566 783.749L756.058 471.232C761.119 466.855 761.673 459.103 757.254 453.989L444.737 158.498C442.644 156.068 439.662 154.584 436.398 154.339C434.86 154.228 433.359 154.403 431.925 154.842L431.929 154.854ZM428.334 158.224C430.549 156.314 433.386 155.379 436.313 155.584C439.244 155.8 441.92 157.132 443.846 159.354L756.363 454.846C760.298 459.395 759.787 466.356 755.209 470.325L459.722 782.855C457.54 784.742 454.706 785.688 451.775 785.471C448.844 785.255 446.168 783.923 444.243 781.701L131.713 486.213C127.779 481.664 128.289 474.703 132.867 470.734L428.338 158.235L428.334 158.224Z" fill="white"/>
<path d="M433.389 155.741C431.897 156.199 430.503 156.937 429.259 157.953L429.207 157.995L132.04 453.373C129.549 455.393 127.96 458.33 127.622 461.583C127.284 464.836 128.237 468.031 130.3 470.574L425.716 767.781C427.736 770.272 430.673 771.861 433.926 772.199C437.179 772.537 440.374 771.584 442.917 769.521L740.136 474.102C745.338 469.889 746.143 462.151 741.888 456.897L446.469 159.678C444.448 157.187 441.511 155.598 438.258 155.26C436.596 155.082 434.95 155.25 433.398 155.726L433.389 155.741ZM430.051 158.89C432.338 157.048 435.189 156.2 438.11 156.511C441.043 156.818 443.669 158.242 445.523 160.525L740.939 457.732C744.729 462.403 744.011 469.363 739.288 473.195L442.093 768.608C439.849 770.423 436.987 771.274 434.054 770.967C431.122 770.661 428.495 769.236 426.641 766.953L131.214 469.75C129.398 467.506 128.547 464.644 128.854 461.711C129.16 458.779 130.585 456.152 132.868 454.298L430.055 158.902L430.051 158.89Z" fill="white"/>
<path d="M434.827 156.623C433.476 157.037 432.186 157.692 430.996 158.588L430.944 158.63L132.074 436.902C126.734 440.962 125.679 448.687 129.769 454.082L408.087 753.016C410.028 755.584 412.915 757.266 416.173 757.706C419.42 758.149 422.647 757.303 425.264 755.309L724.197 476.991C726.765 475.051 728.447 472.163 728.887 468.905C729.331 465.658 728.481 462.419 726.502 459.811L448.184 160.877C445.013 156.703 439.61 155.145 434.835 156.608L434.827 156.623ZM431.772 159.556C436.624 155.891 443.551 156.84 447.228 161.689L725.545 460.623C727.288 462.927 728.06 465.827 727.66 468.749C727.259 471.672 725.746 474.261 723.405 476.054L424.471 754.372C422.167 756.115 419.267 756.887 416.344 756.487C413.422 756.086 410.832 754.573 409.051 752.228L130.718 453.286C127.068 448.481 128.013 441.543 132.87 437.851L431.784 159.552L431.772 159.556Z" fill="white"/>
<path d="M436.273 157.488C435.041 157.866 433.855 158.437 432.75 159.229L432.698 159.271L132.101 420.445C129.472 422.314 127.686 425.155 127.136 428.396C126.587 431.636 127.342 434.904 129.24 437.588L390.472 738.246C394.372 743.739 402.078 745.032 407.615 741.106L708.264 479.89C710.893 478.022 712.679 475.18 713.229 471.94C713.778 468.7 713.023 465.432 711.124 462.747L449.908 162.098C446.786 157.702 441.221 155.998 436.292 157.509L436.273 157.488ZM433.494 160.22C438.472 156.711 445.386 157.871 448.918 162.842L710.134 463.491C711.817 465.853 712.486 468.797 711.992 471.71C711.497 474.622 709.898 477.186 707.493 478.895L406.847 740.123C401.909 743.633 394.975 742.452 391.443 737.482L130.223 436.82C128.541 434.459 127.872 431.514 128.366 428.602C128.86 425.69 130.459 423.126 132.865 421.417L433.494 160.22Z" fill="white"/>
<path d="M437.752 158.332C436.614 158.681 435.527 159.195 434.515 159.868L434.475 159.907L132.151 403.983C129.449 405.783 127.57 408.575 126.915 411.809C126.26 415.042 126.908 418.343 128.738 421.1L372.856 723.477C376.604 729.107 384.296 730.651 389.974 726.889L692.351 482.771C697.985 479.036 699.54 471.34 695.763 465.654L451.645 163.277C449.845 160.575 447.053 158.696 443.819 158.041C441.775 157.631 439.707 157.733 437.763 158.329L437.752 158.332ZM435.216 160.885C437.682 159.248 440.644 158.677 443.546 159.265C446.46 159.85 448.975 161.542 450.615 164.02L694.733 466.397C696.348 468.831 696.93 471.79 696.334 474.707C695.749 477.621 694.057 480.136 691.579 481.777L389.203 725.895C384.142 729.26 377.218 727.856 373.827 722.752L129.709 420.375C128.098 417.953 127.512 414.983 128.096 412.069C128.681 409.155 130.373 406.64 132.851 404.999L435.208 160.901L435.216 160.885Z" fill="white"/>
<path d="M439.182 159.174C438.163 159.486 437.184 159.929 436.248 160.514L436.201 160.528L132.156 387.53C126.385 391.113 124.575 398.783 128.188 404.61L355.204 708.702C358.791 714.486 366.466 716.268 372.285 712.671L676.377 485.654C679.155 483.935 681.127 481.192 681.884 477.953C682.645 474.725 682.088 471.384 680.342 468.562L453.325 164.47C451.606 161.692 448.863 159.72 445.624 158.962C443.46 158.459 441.24 158.53 439.166 159.166L439.182 159.174ZM436.929 161.549C439.456 159.984 442.455 159.493 445.359 160.171C448.263 160.85 450.74 162.631 452.32 165.166L679.337 469.258C680.879 471.754 681.37 474.753 680.696 477.669C680.017 480.573 678.236 483.05 675.7 484.63L371.608 711.647C369.113 713.189 366.114 713.68 363.198 713.006C360.294 712.327 357.817 710.546 356.237 708.01L129.22 403.918C125.995 398.724 127.622 391.81 132.86 388.558L436.932 161.561L436.929 161.549Z" fill="white"/>
<path d="M440.612 160.021C439.723 160.293 438.852 160.664 438.017 161.153L437.969 161.168L132.209 371.068C126.285 374.49 124.24 382.155 127.689 388.123L337.604 693.931C341.026 699.855 348.703 701.896 354.659 698.451L660.466 488.536C663.317 486.885 665.382 484.191 666.249 480.97C667.115 477.75 666.664 474.375 664.99 471.492L455.076 165.685C452.13 160.6 446.054 158.366 440.627 160.029L440.612 160.021ZM438.653 162.215C444.017 159.12 450.91 160.974 454.017 166.334L663.932 472.141C665.418 474.706 665.814 477.734 665.034 480.643C664.253 483.552 662.391 485.976 659.794 487.485L353.987 697.399C348.647 700.488 341.754 698.634 338.643 693.262L128.728 387.455C125.644 382.127 127.494 375.221 132.866 372.111L438.653 162.215Z" fill="white"/>
<path d="M442.04 160.84C441.258 161.079 440.498 161.39 439.755 161.799L439.72 161.81L132.232 354.612C126.155 357.874 123.871 365.521 127.156 371.631L319.969 679.153C321.54 682.081 324.185 684.239 327.411 685.207C330.637 686.176 334.032 685.835 336.988 684.229L644.511 491.416C650.584 488.142 652.871 480.507 649.586 474.398L456.774 166.875C453.909 161.545 447.657 159.119 442.04 160.84ZM440.368 162.869C445.869 159.926 452.749 161.991 455.716 167.484L648.529 475.007C651.477 480.481 649.4 487.365 643.906 490.332L336.383 683.144C333.757 684.558 330.688 684.864 327.781 684.005C324.882 683.13 322.483 681.183 321.059 678.521L128.246 370.998C125.298 365.525 127.372 358.629 132.869 355.674L440.372 162.881L440.368 162.869Z" fill="white"/>
<path d="M443.489 161.639C442.813 161.846 442.156 162.112 441.502 162.43L441.466 162.44L132.263 338.141C129.263 339.643 127.012 342.238 125.938 345.458C124.872 348.662 125.11 352.102 126.635 355.134L302.346 664.372C305.456 670.587 313.081 673.136 319.328 670.004L628.566 494.293C634.781 491.183 637.33 483.558 634.198 477.311L458.486 168.073C456.984 165.073 454.389 162.822 451.169 161.748C448.642 160.902 445.977 160.877 443.477 161.643L443.489 161.639ZM442.074 163.537C444.796 162.185 447.891 161.962 450.788 162.915C453.689 163.879 456.038 165.92 457.406 168.65L633.117 477.889C635.924 483.496 633.628 490.382 627.997 493.197L318.759 668.908C313.147 671.703 306.265 669.419 303.45 663.788L127.739 354.549C126.394 351.851 126.168 348.745 127.132 345.844C128.097 342.943 130.126 340.597 132.868 339.226L442.086 163.534L442.074 163.537Z" fill="white"/>
<path d="M444.917 162.446C444.36 162.617 443.803 162.827 443.259 163.084L443.236 163.091L132.314 321.678C129.237 323.1 126.885 325.661 125.714 328.859C124.542 332.057 124.688 335.537 126.115 338.626L284.708 649.571C287.658 655.939 295.289 658.72 301.668 655.767L612.614 497.173C618.981 494.223 621.766 486.604 618.809 480.213L460.204 169.271C458.781 166.195 456.22 163.843 453.022 162.671C450.38 161.705 447.56 161.636 444.917 162.446ZM443.796 164.202C446.6 162.903 449.711 162.779 452.602 163.837C455.493 164.895 457.804 167.025 459.1 169.817L617.706 480.758C620.377 486.512 617.853 493.377 612.088 496.051L301.143 654.645C295.402 657.311 288.525 654.792 285.851 649.027L127.257 338.081C125.968 335.314 125.837 332.178 126.895 329.288C127.953 326.397 130.083 324.085 132.875 322.789L443.808 164.199L443.796 164.202Z" fill="white"/>
<path d="M446.334 163.245C445.896 163.379 445.453 163.541 445.017 163.726L132.368 305.215C125.852 308.015 122.813 315.609 125.617 322.137L267.109 634.798C269.91 641.315 277.503 644.354 284.032 641.55L596.693 500.057C599.842 498.703 602.29 496.203 603.564 493C604.838 489.797 604.802 486.296 603.444 483.135L461.952 170.474C459.337 164.393 452.543 161.342 446.346 163.241L446.334 163.245ZM445.519 164.855C451.425 162.346 458.273 165.068 460.807 170.967L602.299 483.628C604.829 489.515 602.086 496.382 596.187 498.916L283.527 640.408C277.64 642.938 270.772 640.195 268.239 634.297L126.746 321.636C124.216 315.749 126.959 308.881 132.858 306.348L445.519 164.855Z" fill="white"/>
<path d="M447.745 164.017C447.413 164.119 447.085 164.232 446.76 164.357L132.4 288.756C129.162 290.033 126.624 292.496 125.241 295.681C123.858 298.865 123.803 302.408 125.081 305.645L249.468 620.01C252.108 626.679 259.684 629.957 266.353 627.317L580.714 502.918C583.94 501.644 586.489 499.178 587.872 495.994C589.255 492.809 589.31 489.267 588.033 486.029L463.646 171.664C461.131 165.319 454.163 162.037 447.741 164.005L447.745 164.017ZM447.218 165.513C453.246 163.147 460.113 166.098 462.494 172.134L586.881 486.499C588.036 489.424 587.994 492.625 586.739 495.511C585.485 498.397 583.188 500.63 580.263 501.786L265.903 626.185C259.846 628.585 253.012 625.612 250.627 619.564L126.24 305.199C125.085 302.274 125.127 299.073 126.382 296.187C127.636 293.301 129.936 291.079 132.858 289.912L447.218 165.513Z" fill="white"/>
</g>
<defs>
<clipPath id="clip0_2002_28">
<rect width="854.845" height="873.782" fill="white" transform="matrix(0.956111 -0.293005 -0.293005 -0.956111 256.023 1085.91)"/>
</clipPath>
</defs>
</svg>
