<svg width="1067" height="1067" viewBox="0 0 1067 1067" fill="none" xmlns="http://www.w3.org/2000/svg">
<g opacity="0.1" clip-path="url(#clip0_4172_2)">
<path d="M338.361 195.347C335.722 196.87 333.66 199.393 332.819 202.558L193.943 719.665C192.245 725.989 196.018 732.525 202.345 734.216L719.6 872.505C725.927 874.197 732.47 870.419 734.168 864.095L873.034 346.993C874.733 340.669 870.959 334.133 864.633 332.442L347.377 194.152C344.206 193.305 340.99 193.829 338.361 195.347ZM728.06 870.326C725.677 871.702 722.757 872.173 719.895 871.408L202.639 733.118C196.916 731.588 193.505 725.679 195.036 719.948L333.902 202.847C335.448 197.12 341.354 193.71 347.086 195.235L864.342 333.524C870.065 335.054 873.477 340.963 871.946 346.694L733.07 863.801C732.302 866.662 730.434 868.955 728.051 870.331L728.06 870.326Z" fill="#294596"/>
<path d="M339.887 195.944C337.268 197.457 335.361 199.864 334.499 202.766L190.603 705.015C189.706 708.015 190.028 711.2 191.522 713.97C193.016 716.739 195.501 718.754 198.517 719.652L700.898 862.988C703.905 863.892 707.087 863.557 709.859 862.061C712.608 860.592 714.65 858.08 715.551 855.064L859.447 352.815C860.344 349.815 860.022 346.629 858.528 343.86C857.034 341.091 854.549 339.076 851.533 338.178L349.142 194.847C346.135 193.944 342.954 194.278 340.181 195.774C340.083 195.831 339.985 195.888 339.887 195.944ZM335.583 203.08C336.405 200.358 338.23 198.103 340.727 196.766C343.229 195.413 346.109 195.122 348.836 195.926L851.227 339.256C853.944 340.066 856.188 341.892 857.54 344.391C858.891 346.891 859.179 349.769 858.373 352.495L714.467 854.749C713.654 857.466 711.819 859.701 709.323 861.064C706.821 862.417 703.941 862.708 701.214 861.904L198.828 718.558C196.111 717.749 193.866 715.922 192.514 713.423C191.163 710.924 190.875 708.046 191.682 705.32L335.578 203.071L335.583 203.08Z" fill="#294596"/>
<path d="M341.418 196.538C338.936 197.971 337.092 200.238 336.184 202.97L187.248 690.373C186.267 693.318 186.501 696.488 187.9 699.273C189.299 702.059 191.701 704.134 194.666 705.101L682.185 853.463C688.277 855.473 694.898 852.147 696.929 846.036L845.861 358.648C847.887 352.553 844.556 345.944 838.443 343.921L350.927 195.543C347.982 194.565 344.81 194.802 342.031 196.197C341.83 196.301 341.618 196.41 341.422 196.523L341.418 196.538ZM337.256 203.331C338.147 200.661 340.022 198.494 342.524 197.232C345.036 195.965 347.896 195.751 350.567 196.639L838.082 345.017C843.589 346.829 846.593 352.803 844.755 358.32L695.843 845.696C694.015 851.207 688.044 854.21 682.527 852.378L195.007 704.015C192.341 703.137 190.175 701.265 188.909 698.756C187.644 696.246 187.433 693.389 188.324 690.719L337.246 203.337L337.256 203.331Z" fill="#294596"/>
<path d="M342.941 197.119C340.587 198.478 338.8 200.594 337.858 203.176L337.848 203.182L183.896 675.712C182.84 678.595 182.982 681.74 184.285 684.541C185.588 687.343 187.912 689.464 190.811 690.521L663.467 843.95C666.361 844.997 669.498 844.858 672.302 843.553C675.11 842.232 677.231 839.923 678.291 837.025L832.253 364.489C833.309 361.606 833.167 358.461 831.864 355.66C830.56 352.858 828.237 350.737 825.338 349.68L352.688 196.261C349.794 195.214 346.657 195.353 343.852 196.658C343.541 196.799 343.231 196.964 342.937 197.134L342.941 197.119ZM338.931 203.563C339.891 200.944 341.806 198.846 344.334 197.673C346.866 196.486 349.7 196.365 352.32 197.322L824.97 350.742C827.568 351.685 829.671 353.607 830.842 356.132C832.028 358.662 832.146 361.494 831.185 364.113L677.223 836.648C676.277 839.246 674.362 841.344 671.825 842.522C669.293 843.709 666.458 843.83 663.839 842.873L191.189 689.453C188.591 688.51 186.487 686.589 185.317 684.063C184.137 681.544 184.013 678.701 184.973 676.083L338.931 203.563Z" fill="#294596"/>
<path d="M344.473 197.702C342.246 198.987 340.527 200.973 339.555 203.389L339.535 203.401L180.557 661.063C178.212 666.924 181.097 673.621 186.985 675.957L644.761 834.424C650.627 836.747 657.326 833.872 659.669 827.985L818.667 370.312C819.792 367.48 819.759 364.364 818.535 361.542C817.327 358.725 815.087 356.543 812.233 355.408L354.458 196.941C351.626 195.819 348.508 195.855 345.684 197.081C345.263 197.258 344.849 197.471 344.457 197.698L344.473 197.702ZM340.604 203.802C342.724 198.502 348.759 195.906 354.061 198.019L811.836 356.486C814.382 357.499 816.402 359.456 817.492 362.001C818.582 364.546 818.623 367.358 817.594 369.925L658.616 827.588C656.51 832.867 650.465 835.468 645.164 833.355L187.384 674.904C182.104 672.804 179.507 666.765 181.626 661.465L340.62 203.807L340.604 203.802Z" fill="#294596"/>
<path d="M345.992 198.259C343.942 199.443 342.244 201.259 341.226 203.598L341.218 203.628L177.208 646.413C176.008 649.183 175.955 652.285 177.067 655.118C178.18 657.951 180.342 660.178 183.139 661.399L626.044 824.897C628.814 826.094 631.917 826.144 634.753 825.03C637.589 823.915 639.819 821.752 641.043 818.955L805.071 376.134C806.271 373.364 806.324 370.262 805.212 367.429C804.099 364.596 801.937 362.369 799.14 361.149L356.245 197.644C352.823 196.157 349.033 196.503 346.012 198.248L345.992 198.259ZM342.277 204.036C344.55 198.843 350.613 196.453 355.811 198.705L798.706 362.209C801.201 363.29 803.141 365.293 804.146 367.848C805.151 370.404 805.104 373.201 804.006 375.716L639.994 818.542C638.909 821.036 636.898 822.968 634.346 823.985C631.788 824.991 628.99 824.947 626.474 823.852L183.563 660.344C181.069 659.262 179.128 657.26 178.123 654.704C177.119 652.149 177.165 649.352 178.263 646.836L342.277 204.036Z" fill="#294596"/>
<path d="M347.493 198.815C345.502 199.965 343.915 201.679 342.914 203.798L342.896 203.834L173.866 631.762C172.592 634.47 172.435 637.553 173.468 640.406C174.491 643.265 176.565 645.543 179.31 646.832L607.33 815.384C612.968 818.035 619.742 815.587 622.414 809.928L791.468 381.974C794.121 376.353 791.698 369.573 786.024 366.904L357.994 198.358C355.285 197.087 352.201 196.933 349.346 197.968C348.695 198.2 348.068 198.497 347.489 198.831L347.493 198.815ZM343.947 204.273C345.115 201.809 347.165 199.946 349.733 199.025C352.302 198.104 355.085 198.235 357.549 199.399L785.579 367.945C790.642 370.326 792.832 376.431 790.427 381.53L621.373 809.484C618.985 814.547 612.875 816.742 607.775 814.343L179.756 645.791C177.312 644.641 175.45 642.593 174.526 640.017C173.601 637.442 173.74 634.67 174.907 632.206L343.957 204.267L343.947 204.273Z" fill="#294596"/>
<path d="M349.015 199.373C347.191 200.427 345.631 202.007 344.609 204.021L344.591 204.058L170.514 617.103C167.692 622.613 169.904 629.437 175.455 632.255L588.616 805.858C591.269 807.214 594.332 807.444 597.199 806.52C600.077 805.591 602.403 803.594 603.78 800.905L777.87 387.813C780.692 382.303 778.48 375.479 772.929 372.661L359.774 199.068C356.268 197.277 352.223 197.521 349.015 199.373ZM345.622 204.507C348.177 199.531 354.299 197.538 359.302 200.085L772.456 373.678C777.407 376.203 779.406 382.34 776.847 387.332L602.757 800.424C601.545 802.81 599.439 804.6 596.851 805.441C594.263 806.282 591.51 806.068 589.092 804.825L175.928 631.237C170.977 628.712 168.978 622.576 171.537 617.584L345.622 204.507Z" fill="#294596"/>
<path d="M350.513 199.906C348.757 200.92 347.298 202.402 346.295 204.222L346.277 204.259L167.17 602.453C165.736 605.044 165.4 608.087 166.242 610.972C167.083 613.857 168.986 616.247 171.624 617.689L569.904 796.33C572.496 797.761 575.539 798.094 578.427 797.25C581.314 796.406 583.707 794.502 585.154 791.864L764.273 393.624C767.255 388.231 765.258 381.374 759.829 378.381L361.539 199.746C358.948 198.316 355.904 197.983 353.016 198.827C352.128 199.078 351.283 199.449 350.508 199.896L350.513 199.906ZM347.29 204.745C348.596 202.385 350.737 200.678 353.335 199.923C355.934 199.167 358.671 199.468 361.032 200.771L759.321 379.406C761.646 380.69 763.366 382.832 764.12 385.428C764.873 388.025 764.569 390.761 763.264 393.122L584.14 791.377C582.853 793.701 580.708 795.423 578.109 796.179C575.511 796.934 572.773 796.633 570.413 795.331L172.118 616.686C169.793 615.402 168.073 613.26 167.319 610.663C166.566 608.067 166.87 605.331 168.175 602.97L347.286 204.761L347.29 204.745Z" fill="#294596"/>
<path d="M352.029 200.435C350.41 201.369 349.013 202.711 347.989 204.426L347.961 204.469L163.834 587.805C162.331 590.345 161.887 593.358 162.633 596.259C163.379 599.16 165.209 601.605 167.786 603.123L551.19 786.811C556.476 789.939 563.367 788.168 566.53 782.841L750.686 399.462C752.194 396.932 752.633 393.909 751.887 391.008C751.141 388.107 749.31 385.662 746.734 384.144L363.319 200.462C359.743 198.346 355.407 198.471 352.013 200.431L352.029 200.435ZM348.976 204.98C351.823 200.214 358.009 198.628 362.795 201.457L746.21 385.14C748.482 386.493 750.124 388.68 750.798 391.297C751.466 393.903 751.075 396.624 749.7 398.934L565.545 782.312C562.722 787.051 556.525 788.643 551.74 785.814L168.315 602.137C166.043 600.784 164.401 598.596 163.727 595.98C163.059 593.373 163.45 590.652 164.819 588.333L348.961 204.976L348.976 204.98Z" fill="#294596"/>
<path d="M353.515 200.958C352.004 201.83 350.677 203.067 349.675 204.638L349.647 204.681L160.484 573.155C157.19 578.323 158.734 585.258 163.939 588.564L532.478 777.293C534.957 778.867 537.957 779.396 540.876 778.743C543.8 778.099 546.294 776.346 547.899 773.825L737.09 405.309C738.668 402.83 739.199 399.832 738.558 396.909C737.908 393.993 736.166 391.497 733.645 389.895L365.106 201.165C361.503 198.868 357.027 198.93 353.525 200.952L353.515 200.958ZM350.638 205.219C352.082 202.962 354.317 201.396 356.942 200.822C359.57 200.232 362.268 200.713 364.535 202.148L733.075 390.877C735.305 392.294 736.875 394.537 737.447 397.159C738.035 399.786 737.551 402.482 736.113 404.749L546.916 773.256C545.491 775.477 543.251 777.058 540.627 777.632C537.998 778.222 535.301 777.741 533.034 776.306L164.5 587.587C159.864 584.632 158.478 578.403 161.461 573.714L350.638 205.219Z" fill="#294596"/>
<path d="M355.003 201.471C353.591 202.287 352.334 203.417 351.359 204.856L351.331 204.898L157.136 558.495C155.474 560.918 154.85 563.891 155.411 566.834C155.966 569.767 157.63 572.308 160.094 573.994L513.759 767.771C518.81 771.218 525.788 769.893 529.27 764.8L723.487 411.151C725.149 408.728 725.773 405.754 725.213 402.812C724.657 399.879 722.994 397.338 720.529 395.651L366.87 201.884C363.242 199.406 358.604 199.392 355.003 201.471ZM352.308 205.457C355.441 200.892 361.708 199.717 366.277 202.828L719.936 396.595C724.468 399.688 725.653 405.954 722.522 410.545L528.311 764.204C525.212 768.737 518.941 769.927 514.351 766.802L160.692 573.035C158.513 571.55 157.022 569.262 156.52 566.625C156.018 563.988 156.579 561.312 158.095 559.091L352.298 205.463L352.308 205.457Z" fill="#294596"/>
<path d="M356.486 201.958C355.152 202.728 353.986 203.767 353.043 205.056L353.015 205.098L153.8 543.838C150.187 548.772 151.28 555.784 156.261 559.428L495.039 758.233C497.4 759.966 500.36 760.675 503.316 760.222C506.267 759.76 508.872 758.177 510.631 755.764L709.884 416.977C713.497 412.042 712.404 405.03 707.423 401.386L368.639 202.572C366.278 200.838 363.318 200.13 360.362 200.582C358.969 200.799 357.667 201.263 356.48 201.948L356.486 201.958ZM353.974 205.695C355.555 203.54 357.891 202.126 360.54 201.707C363.195 201.299 365.851 201.934 368.02 203.517L706.804 402.331C711.239 405.572 712.208 411.872 708.943 416.344L509.696 755.141C508.138 757.268 505.808 758.692 503.153 759.101C500.499 759.51 497.843 758.875 495.673 757.292L156.879 558.483C152.445 555.242 151.476 548.942 154.741 544.47L353.98 205.704L353.974 205.695Z" fill="#294596"/>
<path d="M357.976 202.449C356.739 203.162 355.649 204.105 354.749 205.265L354.711 205.313L150.46 529.19C148.655 531.5 147.841 534.44 148.205 537.404C148.569 540.369 150.072 543.016 152.429 544.856L476.332 748.708C478.641 750.511 481.582 751.322 484.548 750.955C487.515 750.588 490.165 749.084 492.009 746.726L696.297 422.801C700.069 417.984 699.203 410.932 694.339 407.129L370.43 203.267C368.12 201.465 365.18 200.654 362.213 201.021C360.697 201.204 359.265 201.691 357.98 202.433L357.976 202.449ZM355.646 205.936C357.307 203.828 359.673 202.488 362.337 202.164C365.012 201.835 367.643 202.564 369.761 204.215L693.664 408.067C697.995 411.446 698.779 417.788 695.356 422.168L491.087 746.082C489.461 748.158 487.085 749.503 484.41 749.832C481.736 750.161 479.105 749.433 476.987 747.781L153.074 543.935C150.999 542.311 149.655 539.938 149.328 537.266C149.001 534.593 149.733 531.962 151.387 529.844L355.652 205.946L355.646 205.936Z" fill="#294596"/>
<path d="M359.434 202.937C358.316 203.583 357.301 204.43 356.424 205.472L356.386 205.52L147.119 514.524C143.194 519.234 143.835 526.324 148.581 530.286L457.609 739.186C459.863 741.073 462.778 741.976 465.771 741.699C468.753 741.427 471.454 740.012 473.376 737.7L682.691 428.642C684.581 426.388 685.488 423.473 685.213 420.483C684.945 417.502 683.525 414.794 681.229 412.88L372.201 203.98C368.523 200.917 363.392 200.639 359.438 202.921L359.434 202.937ZM357.313 206.174C360.885 201.916 367.249 201.339 371.515 204.899L680.543 413.798C682.567 415.491 683.848 417.913 684.089 420.597C684.33 423.28 683.511 425.895 681.793 427.971L472.479 737.029C470.783 739.053 468.358 740.336 465.673 740.579C462.989 740.823 460.373 740.007 458.307 738.286L149.263 529.383C145.029 525.856 144.452 519.487 148.023 515.205L357.323 206.168L357.313 206.174Z" fill="#294596"/>
<path d="M360.897 203.412C359.876 204.001 358.937 204.753 358.115 205.685L358.077 205.733L143.774 499.875C141.815 502.078 140.805 504.973 140.979 507.97C141.152 510.966 142.493 513.719 144.733 515.719L438.896 729.66C443.493 733.747 450.621 733.316 454.75 728.686L669.09 434.495C671.049 432.293 672.059 429.397 671.886 426.401C671.712 423.404 670.371 420.651 668.131 418.652L373.983 204.715C370.303 201.444 364.999 201.07 360.918 203.426L360.897 203.412ZM358.98 206.413C362.696 202.269 369.091 201.882 373.254 205.581L667.401 419.517C669.383 421.274 670.581 423.757 670.737 426.45C670.892 429.143 669.992 431.753 668.199 433.768L453.865 727.968C450.184 732.106 443.768 732.478 439.605 728.78L145.452 514.833C143.47 513.077 142.272 510.594 142.116 507.901C141.961 505.207 142.861 502.597 144.654 500.582L358.98 206.413Z" fill="#294596"/>
<path d="M362.386 203.858C361.444 204.402 360.582 205.083 359.818 205.89L359.79 205.932L140.452 485.213C138.414 487.369 137.311 490.24 137.389 493.252C137.467 496.265 138.72 499.069 140.914 501.147L420.186 720.131C424.676 724.373 431.843 724.167 436.13 719.654L655.506 440.325C659.76 435.844 659.572 428.676 655.044 424.391L375.772 205.407C373.616 203.372 370.745 202.273 367.731 202.354C365.826 202.408 364.005 202.924 362.396 203.853L362.386 203.858ZM360.65 206.651C362.512 204.687 365.033 203.571 367.738 203.499C370.453 203.421 373.039 204.411 375.007 206.279L654.279 425.264C656.215 427.099 657.339 429.612 657.405 432.331C657.48 435.044 656.487 437.629 654.616 439.598L435.24 718.927C431.421 722.961 424.967 723.133 420.902 719.287L141.63 500.303C139.7 498.477 138.57 495.954 138.495 493.241C138.419 490.528 139.412 487.943 141.284 485.974L360.646 206.666L360.65 206.651Z" fill="#294596"/>
<path d="M363.841 204.315C362.997 204.802 362.216 205.397 361.502 206.11L361.463 206.132L137.1 470.571C132.693 474.944 132.65 482.142 137.06 486.586L401.451 710.608C405.829 715.018 413.029 715.029 417.476 710.633L641.878 446.172C644.001 444.071 645.196 441.225 645.208 438.187C645.225 435.159 644.045 432.299 641.913 430.146L377.521 206.125C375.421 204.005 372.575 202.813 369.535 202.805C367.505 202.801 365.542 203.32 363.825 204.311L363.841 204.315ZM362.32 206.892C364.251 204.98 366.821 203.927 369.546 203.935C372.271 203.942 374.842 205.019 376.768 206.951L641.16 430.973C643.044 432.877 644.096 435.445 644.091 438.178C644.081 440.902 643.001 443.472 641.066 445.399L416.664 709.86C414.757 711.745 412.186 712.798 409.451 712.796C406.726 712.789 404.156 711.712 402.229 709.78L137.837 485.758C133.903 481.798 133.937 475.31 137.937 471.341L362.325 206.902L362.32 206.892Z" fill="#294596"/>
<path d="M365.28 204.775C364.545 205.2 363.844 205.709 363.201 206.316L363.161 206.338L133.772 455.909C129.196 460.171 128.943 467.412 133.235 472.016L382.746 701.075C387.007 705.644 394.261 705.885 398.861 701.596L628.289 452.002C630.491 449.948 631.779 447.126 631.892 444.082C632.005 441.038 630.913 438.128 628.832 435.906L379.321 206.847C375.658 202.926 369.789 202.185 365.296 204.779L365.28 204.775ZM363.985 207.13C368.129 203.274 374.647 203.509 378.511 207.641L628.022 436.7C629.87 438.678 630.843 441.291 630.743 444.04C630.643 446.79 629.48 449.329 627.476 451.205L398.048 700.798C393.923 704.643 387.405 704.408 383.535 700.266L134.024 471.207C130.187 467.099 130.423 460.574 134.571 456.703L363.985 207.13Z" fill="#294596"/>
<path d="M366.721 205.209C366.074 205.583 365.46 206.015 364.882 206.532L364.852 206.549L130.428 441.258C125.683 445.409 125.213 452.683 129.388 457.445L364.019 691.542C366.017 693.825 368.813 695.202 371.885 695.402C374.956 695.601 377.91 694.601 380.214 692.566L614.668 457.84C619.408 453.679 619.883 446.414 615.708 441.652L381.078 207.555C377.436 203.4 371.371 202.524 366.721 205.209ZM365.647 207.358C369.944 203.609 376.494 204.035 380.26 208.315L614.891 442.411C618.636 446.677 618.194 453.23 613.908 456.998L379.454 691.724C377.405 693.521 374.734 694.423 371.969 694.256C369.208 694.073 366.673 692.832 364.86 690.756L130.229 456.659C126.484 452.393 126.92 445.831 131.212 442.072L365.652 207.368L365.647 207.358Z" fill="#294596"/>
<path d="M368.175 205.622C367.616 205.945 367.085 206.317 366.567 206.733L366.538 206.75L127.087 426.592C124.723 428.545 123.249 431.316 122.951 434.402C122.657 437.473 123.572 440.485 125.551 442.87L345.301 682.004C349.342 686.897 356.654 687.6 361.577 683.53L601.057 463.672C605.956 459.628 606.667 452.319 602.599 447.403L382.849 208.269C380.897 205.907 378.125 204.437 375.038 204.142C372.614 203.908 370.235 204.432 368.166 205.627L368.175 205.622ZM367.304 207.601C369.452 205.839 372.162 205.006 374.937 205.259C377.718 205.521 380.228 206.855 382.005 209.004L601.755 448.138C605.402 452.552 604.765 459.152 600.326 462.813L360.846 682.672C356.42 686.311 349.823 685.691 346.164 681.257L126.414 442.123C124.664 439.998 123.827 437.28 124.093 434.5C124.359 431.721 125.686 429.217 127.848 427.433L367.314 207.596L367.304 207.601Z" fill="#294596"/>
<path d="M369.614 206.049C369.153 206.315 368.699 206.616 368.268 206.957L368.248 206.968L123.766 411.932C121.317 413.83 119.746 416.592 119.357 419.678C118.967 422.764 119.81 425.832 121.711 428.288L326.565 672.455C330.495 677.516 337.86 678.425 342.938 674.487L587.439 469.512C592.507 465.58 593.429 458.227 589.488 453.147L384.625 208.985C382.729 206.539 379.966 204.972 376.879 204.585C374.328 204.268 371.802 204.786 369.614 206.049ZM368.975 207.842C371.206 206.11 373.952 205.361 376.743 205.709C379.534 206.057 382.029 207.479 383.754 209.697L588.618 453.858C592.173 458.43 591.329 465.058 586.742 468.621L342.24 673.596C337.672 677.148 331.032 676.318 327.471 671.736L122.617 427.569C120.903 425.37 120.145 422.607 120.497 419.817C120.848 417.027 122.272 414.533 124.493 412.806L368.985 207.836L368.975 207.842Z" fill="#294596"/>
<path d="M371.037 206.468C370.674 206.678 370.313 206.913 369.963 207.167L120.445 397.27C115.214 401.1 114.06 408.481 117.893 413.716L307.866 662.921C311.694 668.145 319.078 669.291 324.319 665.455L573.847 475.347C576.375 473.495 578.044 470.768 578.524 467.656C579.003 464.544 578.254 461.435 576.399 458.901L386.425 209.696C382.852 204.821 376.178 203.5 371.047 206.463L371.037 206.468ZM370.64 208.069C375.387 204.623 382.044 205.64 385.507 210.37L575.48 459.575C578.937 464.294 577.899 470.969 573.164 474.435L323.636 664.543C318.91 668.003 312.233 666.972 308.77 662.242L118.797 413.038C115.339 408.318 116.377 401.643 121.113 398.177L370.64 208.069Z" fill="#294596"/>
<path d="M372.453 206.865C372.178 207.023 371.909 207.192 371.646 207.37L117.107 382.615C114.485 384.416 112.729 387.129 112.148 390.247C111.568 393.365 112.244 396.529 114.044 399.148L289.13 653.381C292.846 658.774 300.264 660.136 305.664 656.417L560.202 481.172C562.815 479.376 564.581 476.658 565.161 473.54C565.742 470.422 565.066 467.258 563.266 464.639L388.179 210.406C384.642 205.276 377.764 203.785 372.447 206.855L372.453 206.865ZM372.29 208.305C377.175 204.962 383.894 206.178 387.249 211.061L562.336 465.294C563.964 467.66 564.58 470.518 564.054 473.344C563.527 476.169 561.938 478.628 559.569 480.257L305.031 655.502C300.128 658.881 293.433 657.638 290.072 652.746L114.985 398.513C113.357 396.147 112.741 393.289 113.267 390.463C113.794 387.637 115.389 385.188 117.752 383.549L372.29 208.305Z" fill="#294596"/>
</g>
<defs>
<clipPath id="clip0_4172_2">
<rect width="781.401" height="780.53" fill="white" transform="matrix(0.866025 -0.5 -0.5 -0.866025 390.266 1066.66)"/>
</clipPath>
</defs>
</svg>
