<svg width="896" height="897" viewBox="0 0 896 897" fill="none" xmlns="http://www.w3.org/2000/svg">
<g opacity="0.1" clip-path="url(#clip0_4216_27)">
<path d="M-0.00257664 448.494C-0.00257664 451.992 1.32232 455.49 3.98508 458.142L438.353 893.008C443.666 898.327 452.329 898.327 457.642 893.008L892.01 458.155C897.322 452.837 897.322 444.164 892.01 438.845L457.642 3.99233C452.329 -1.32613 443.666 -1.32613 438.353 3.99233L3.98508 438.845C1.32232 441.511 -0.00257664 445.009 -0.00257664 448.494ZM894.698 448.494C894.698 451.654 893.49 454.826 891.088 457.232L456.72 892.085C451.914 896.896 444.081 896.896 439.262 892.085L4.89433 457.232C0.0883722 452.408 0.0883722 444.58 4.89433 439.755L439.262 4.9026C444.068 0.0912739 451.901 0.0912739 456.72 4.9026L891.088 439.768C893.49 442.174 894.698 445.347 894.698 448.507V448.494Z" fill="#294596"/>
<path d="M1.46785 447.323C1.46785 450.795 2.76672 454.072 5.15671 456.595L421.873 887.923C424.34 890.537 427.692 892.046 431.303 892.15C434.914 892.254 438.343 890.94 440.966 888.457L871.814 471.289C874.438 468.818 875.932 465.463 876.036 461.848C876.153 458.272 874.828 454.8 872.347 452.173L455.631 20.8446C453.163 18.2309 449.812 16.7224 446.201 16.6184C442.59 16.5144 439.161 17.8278 436.537 20.3115L5.68931 437.492C3.06551 439.963 1.57177 443.318 1.46785 446.933C1.46785 447.063 1.46785 447.193 1.46785 447.323ZM6.09196 455.697C3.85784 453.318 2.66285 450.21 2.76676 446.959C2.85769 443.695 4.22154 440.665 6.58556 438.416L437.433 21.2348C439.797 18.9981 442.902 17.8148 446.162 17.9058C449.422 17.9969 452.449 19.3622 454.696 21.7289L871.412 453.071C873.646 455.437 874.815 458.545 874.737 461.809C874.646 465.073 873.282 468.103 870.918 470.352L440.057 887.52C437.693 889.757 434.589 890.94 431.329 890.849C428.068 890.758 425.042 889.393 422.795 887.026L6.07896 455.697H6.09196Z" fill="#294596"/>
<path d="M2.93581 446.14C2.93581 449.43 4.13078 452.564 6.32594 455.034L405.39 882.852C407.754 885.518 411.04 887.104 414.612 887.312C418.184 887.52 421.626 886.324 424.289 883.931L851.604 484.422C857.098 479.52 857.591 471.029 852.682 465.502L453.631 37.6972C448.734 32.1837 440.252 31.7025 434.732 36.6179L7.40405 436.114C4.74129 438.481 3.15663 441.771 2.94881 445.334C2.93582 445.594 2.9228 445.867 2.9228 446.127L2.93581 446.14ZM7.30012 454.176C5.15692 451.757 4.07879 448.649 4.26064 445.438C4.44248 442.213 5.87133 439.248 8.2873 437.102L435.615 37.6062C440.577 33.172 448.241 33.6141 452.67 38.6075L851.72 466.386C856.15 471.367 855.708 479.026 850.72 483.46L423.405 882.969C421.002 885.115 417.898 886.194 414.677 886.012C411.455 885.83 408.494 884.4 406.351 881.981L7.30012 454.189V454.176Z" fill="#294596"/>
<path d="M4.39102 444.956C4.39102 448.077 5.46913 451.068 7.49543 453.486V453.499L388.894 877.767C391.154 880.472 394.362 882.136 397.895 882.449C401.428 882.761 404.87 881.668 407.585 879.393L831.406 497.568C834.108 495.293 835.77 492.094 836.082 488.557C836.381 485.007 835.303 481.574 833.03 478.856L451.631 54.5755C449.371 51.8707 446.163 50.2063 442.63 49.8942C439.097 49.5821 435.655 50.6744 432.94 52.95L9.13199 434.774C6.43026 437.05 4.76769 440.249 4.45595 443.786C4.41698 444.176 4.40402 444.579 4.40402 444.969L4.39102 444.956ZM8.49554 452.641C6.44326 450.183 5.4561 447.076 5.74186 443.89C6.01463 440.691 7.52137 437.804 9.97631 435.749L433.784 53.9253C436.213 51.8837 439.33 50.8955 442.513 51.1815C445.708 51.4546 448.592 52.963 450.644 55.4207L832.042 479.702C834.082 482.133 835.069 485.241 834.783 488.44C834.51 491.639 833.004 494.526 830.549 496.58L406.741 878.404C404.312 880.446 401.194 881.434 398.012 881.148C394.83 880.875 391.933 879.367 389.881 876.909L8.49554 452.641Z" fill="#294596"/>
<path d="M5.84696 443.773C5.84696 446.724 6.83413 449.572 8.67858 451.926V451.952L372.412 872.683C376.893 878.378 385.206 879.353 390.908 874.841L811.196 510.702C816.872 506.203 817.86 497.893 813.352 492.185L449.619 71.428C447.45 68.6843 444.332 66.9288 440.825 66.5257C437.331 66.1095 433.876 67.0849 431.11 69.2695L10.8218 433.409C8.08111 435.58 6.32756 438.701 5.9249 442.212C5.85995 442.732 5.83396 443.265 5.83396 443.786L5.84696 443.773ZM9.69176 451.12C5.63917 445.97 6.52237 438.48 11.666 434.423L431.954 70.2837C434.422 68.3332 437.526 67.4489 440.682 67.826C443.839 68.2031 446.657 69.7766 448.619 72.2733L812.352 493.004C816.392 498.128 815.508 505.631 810.365 509.688L390.09 873.84C384.972 877.884 377.478 877 373.425 871.85L9.70468 451.107L9.69176 451.12Z" fill="#294596"/>
<path d="M7.27674 442.576C7.27674 445.294 8.10809 448.025 9.84863 450.378L9.87456 450.404L355.93 867.598C357.995 870.381 361.047 872.215 364.503 872.735C367.958 873.255 371.413 872.384 374.231 870.303L790.986 523.836C793.766 521.768 795.597 518.712 796.117 515.253C796.636 511.794 795.766 508.335 793.688 505.514L447.607 88.2807C445.541 85.4979 442.489 83.6644 439.034 83.1442C435.579 82.6241 432.124 83.4953 429.305 85.5759L12.5503 432.03C9.1082 434.579 7.27674 438.545 7.27674 442.55V442.576ZM10.8877 449.585C7.02998 444.345 8.13401 436.946 13.3556 433.071L430.11 86.6162C432.617 84.7567 435.722 83.9765 438.839 84.4446C441.956 84.9127 444.71 86.5642 446.581 89.0999L792.675 506.32C794.532 508.829 795.298 511.937 794.844 515.058C794.376 518.179 792.727 520.936 790.194 522.808L373.426 869.276C370.919 871.135 367.815 871.915 364.697 871.447C361.58 870.979 358.826 869.328 356.956 866.792L10.8877 449.585Z" fill="#294596"/>
<path d="M8.69002 441.407C8.69002 444.046 9.48233 446.608 11.015 448.819L11.041 448.858L339.444 862.515C341.405 865.336 344.38 867.261 347.809 867.872C351.238 868.496 354.693 867.742 357.551 865.753L770.786 536.983C776.657 532.9 778.111 524.76 774.02 518.856L445.604 105.16C441.538 99.2953 433.407 97.8129 427.497 101.922L14.2623 430.705C11.4437 432.668 9.5213 435.646 8.91082 439.079C8.76794 439.859 8.70303 440.652 8.70303 441.42L8.69002 441.407ZM12.0802 448.064C10.3007 445.49 9.62527 442.382 10.1838 439.3C10.7423 436.218 12.4699 433.526 15.0417 431.745L428.276 102.962C433.55 99.2953 440.876 100.622 444.565 105.94L772.981 519.636C776.644 524.916 775.319 532.25 770.006 535.943L356.771 864.712C354.226 866.481 351.121 867.157 348.03 866.598C344.938 866.039 342.263 864.309 340.483 861.734L12.0802 448.051V448.064Z" fill="#294596"/>
<path d="M10.1192 440.21C10.1192 442.628 10.7947 445.086 12.2105 447.258L12.2365 447.297L322.948 857.43C326.806 863.398 334.859 865.115 340.847 861.214L750.575 550.116C753.446 548.257 755.433 545.344 756.16 541.963C756.888 538.569 756.238 535.11 754.355 532.197L443.604 122.025C439.746 116.057 431.693 114.34 425.705 118.241L15.9903 429.339C12.1975 431.796 10.1192 435.958 10.1192 440.21ZM13.2756 446.53C9.7945 441.133 11.3273 433.903 16.7307 430.392L426.445 119.294C431.797 115.823 439.045 117.357 442.539 122.766L753.29 532.938C754.965 535.513 755.537 538.634 754.887 541.69C754.238 544.746 752.445 547.359 749.822 549.05L340.107 860.161C334.755 863.632 327.508 862.098 324.013 856.689L13.2756 446.53Z" fill="#294596"/>
<path d="M11.5087 439.027C11.5087 441.354 12.1451 443.656 13.3791 445.698L13.4051 445.737L306.465 852.346C308.218 855.258 311.05 857.339 314.401 858.158C317.752 858.977 321.22 858.457 324.169 856.663L730.363 563.25C733.273 561.495 735.351 558.66 736.17 555.305C736.988 551.95 736.468 548.478 734.676 545.526L441.577 138.878C437.927 132.818 429.965 130.868 423.873 134.548L17.6785 427.974C14.7689 429.729 12.6907 432.564 11.8724 435.919C11.6126 436.946 11.4956 438 11.4956 439.027H11.5087ZM14.4702 445.008C12.8725 442.356 12.4049 439.248 13.1453 436.231C13.8857 433.214 15.7561 430.665 18.4059 429.066L424.6 135.64C427.211 134.067 430.329 133.586 433.342 134.327C436.356 135.068 438.901 136.941 440.499 139.593L733.611 546.254C735.182 548.868 735.663 551.989 734.923 555.006C734.182 558.023 732.312 560.571 729.662 562.171L323.454 855.597C320.844 857.17 317.726 857.651 314.713 856.91C311.699 856.169 309.154 854.296 307.556 851.643L14.4832 445.021L14.4702 445.008Z" fill="#294596"/>
<path d="M12.9013 437.83C12.9013 439.976 13.4338 442.134 14.5509 444.137L14.5768 444.189L289.984 847.261C291.647 850.213 294.388 852.384 297.7 853.308C301.012 854.231 304.493 853.815 307.481 852.124L710.155 576.396C716.299 572.937 718.494 565.07 715.013 558.867L439.58 155.743C437.93 152.792 435.176 150.62 431.864 149.697C428.552 148.773 425.071 149.19 422.083 150.88L19.4088 426.621C15.2523 428.962 12.8883 433.344 12.8883 437.843L12.9013 437.83ZM15.668 443.474C12.5636 437.908 14.5379 430.847 20.0972 427.713L422.772 151.972C425.422 150.49 428.539 150.113 431.526 150.945C434.501 151.777 436.982 153.728 438.489 156.42L713.922 559.544C717.013 565.07 715.039 572.144 709.48 575.278L306.805 851.032C304.156 852.514 301.038 852.891 298.051 852.059C295.076 851.227 292.595 849.276 291.076 846.585L15.6549 443.487L15.668 443.474Z" fill="#294596"/>
<path d="M14.2744 436.647C14.2744 438.65 14.742 440.678 15.7292 442.577L15.7552 442.629L273.498 842.177C276.745 848.419 284.525 850.863 290.799 847.587L689.954 589.53C692.941 587.97 695.188 585.291 696.214 582.014C697.253 578.737 696.942 575.253 695.357 572.21L437.589 172.61C436.03 169.619 433.354 167.369 430.081 166.329C426.808 165.302 423.327 165.601 420.287 167.187L21.1327 425.243C16.7814 427.506 14.2744 431.992 14.2744 436.634V436.647ZM16.8593 441.953C15.4434 439.222 15.1707 436.101 16.106 433.162C17.0282 430.211 19.0545 427.805 21.7822 426.375L420.937 168.318C423.625 166.914 426.756 166.641 429.691 167.577C432.64 168.5 435.043 170.529 436.472 173.26L694.227 572.86C695.617 575.552 695.903 578.685 694.967 581.624C694.045 584.576 692.019 586.982 689.291 588.412L290.15 846.468C284.551 849.381 277.563 847.183 274.615 841.527L16.8593 441.953Z" fill="#294596"/>
<path d="M15.6377 435.464C15.6377 437.337 16.0404 439.235 16.9107 441.03L16.9366 441.082L257.001 837.093C258.456 840.136 261.053 842.463 264.301 843.595C267.535 844.726 271.016 844.531 274.107 843.048L669.742 602.677C676.068 599.634 678.756 591.936 675.691 585.552L435.588 189.488C434.133 186.446 431.535 184.118 428.288 182.987C425.054 181.855 421.573 182.05 418.481 183.533L22.8596 423.904C18.3135 426.089 15.6377 430.692 15.6377 435.464ZM18.0537 440.432C15.313 434.697 17.742 427.792 23.4572 425.035L419.079 184.664C424.755 181.933 431.665 184.352 434.432 190.1L674.548 586.163C677.276 591.845 674.86 598.763 669.118 601.533L273.497 841.904C270.769 843.217 267.639 843.387 264.729 842.372C261.82 841.358 259.482 839.264 258.144 836.482L18.0537 440.445V440.432Z" fill="#294596"/>
<path d="M16.974 434.269C16.974 436.037 17.3377 437.793 18.0781 439.47L18.1041 439.522L240.516 831.996C243.348 838.42 250.946 841.359 257.428 838.498L649.516 615.812C652.595 614.459 654.998 611.923 656.245 608.725C657.479 605.526 657.401 602.028 656.011 598.894L433.573 206.355C430.741 199.931 423.143 196.992 416.661 199.853L24.5596 422.539C21.4812 423.892 19.0782 426.427 17.8313 429.626C17.2467 431.135 16.961 432.695 16.961 434.269H16.974ZM19.2471 438.911C18.0131 436.102 17.9482 432.968 19.0522 430.094C20.1693 427.221 22.3255 424.945 25.1441 423.697L417.246 201.01C423.013 198.462 429.832 201.114 432.404 206.927L654.855 599.466C656.076 602.236 656.154 605.37 655.037 608.243C653.92 611.117 651.764 613.393 648.945 614.641L256.843 837.341C251.076 839.889 244.257 837.237 241.685 831.424L19.2601 438.911H19.2471Z" fill="#294596"/>
<path d="M18.3154 433.072C18.3154 434.71 18.6272 436.336 19.2636 437.896L19.2895 437.961L224.036 826.911C225.296 830.032 227.751 832.529 230.908 833.868C234.064 835.207 237.558 835.233 240.74 833.946L629.309 628.945C632.426 627.683 634.92 625.226 636.258 622.066C637.596 618.906 637.622 615.408 636.336 612.222L431.563 223.207C428.939 216.692 421.432 213.506 414.859 216.159L26.2777 421.16C23.1603 422.422 20.6664 424.879 19.3286 428.039C18.6401 429.652 18.3024 431.355 18.3024 433.059L18.3154 433.072ZM20.4456 437.389C19.3026 434.528 19.3285 431.407 20.5365 428.572C21.7445 425.725 23.9786 423.527 26.8362 422.37L415.405 217.368C421.25 215.002 428.004 217.862 430.394 223.779L635.167 612.768C636.297 615.577 636.271 618.711 635.063 621.559C633.855 624.406 631.621 626.604 628.763 627.761L240.195 832.776C237.389 833.907 234.259 833.881 231.414 832.672C228.57 831.462 226.375 829.226 225.219 826.365L20.4586 437.389H20.4456Z" fill="#294596"/>
<path d="M19.6385 431.901C19.6385 433.383 19.8983 434.879 20.4308 436.348L20.4568 436.413L207.539 821.813C209.967 828.419 217.384 831.852 224.048 829.407L609.096 642.091C612.265 640.934 614.837 638.554 616.279 635.42C617.721 632.299 617.864 628.801 616.669 625.563L429.561 240.085C428.405 236.912 426.028 234.338 422.898 232.894C419.78 231.451 416.273 231.308 413.052 232.491L28.0035 419.808C22.8468 421.706 19.6255 426.648 19.6255 431.888L19.6385 431.901ZM21.6388 435.867C19.4566 429.872 22.5351 423.215 28.5231 421.017L413.571 233.7C416.416 232.66 419.559 232.777 422.365 234.078C425.171 235.378 427.301 237.692 428.379 240.592L615.487 626.07C616.526 628.918 616.409 632.065 615.11 634.874C613.811 637.683 611.499 639.815 608.602 640.881L223.541 828.211C217.605 830.396 210.942 827.314 208.734 821.306L21.6388 435.854V435.867Z" fill="#294596"/>
<path d="M20.9523 430.717C20.9523 432.069 21.1601 433.435 21.6147 434.787L21.6406 434.852L191.057 816.728C192.122 819.94 194.421 822.606 197.5 824.153C200.578 825.701 204.085 825.948 207.359 824.869L588.887 655.224C595.589 653 599.252 645.666 597.018 638.904L427.576 256.963C426.51 253.751 424.211 251.085 421.133 249.538C418.055 247.991 414.547 247.744 411.274 248.823L29.7588 418.455C24.3943 420.236 20.9783 425.294 20.9783 430.704L20.9523 430.717ZM22.8357 434.345C20.8484 428.272 24.1346 421.692 30.2005 419.677L411.716 250.045C414.599 249.083 417.756 249.317 420.522 250.708C423.289 252.1 425.367 254.492 426.342 257.431L595.797 639.372C597.797 645.406 594.485 651.999 588.419 654.014L206.891 823.646C204.007 824.608 200.851 824.374 198.084 822.983C195.318 821.592 193.239 819.199 192.265 816.26L22.8357 434.345Z" fill="#294596"/>
<path d="M22.2464 429.496C22.2464 430.745 22.4282 431.993 22.7919 433.215L22.8179 433.267L174.569 811.62C175.544 814.883 177.765 817.627 180.804 819.279C183.844 820.93 187.351 821.294 190.676 820.306L568.671 668.359C575.464 666.331 579.374 659.088 577.348 652.235L425.57 273.817C423.557 267.017 416.322 263.089 409.464 265.131L31.4686 417.078C28.2083 418.053 25.4677 420.277 23.8181 423.32C22.7789 425.244 22.2464 427.351 22.2464 429.483V429.496ZM24.0259 432.825C23.1426 429.847 23.4803 426.701 24.961 423.97C26.4418 421.226 28.9097 419.224 31.8972 418.339L409.893 266.392C412.828 265.521 415.971 265.846 418.712 267.342C421.453 268.824 423.453 271.295 424.336 274.286L576.114 652.703C577.932 658.814 574.399 665.329 568.242 667.163L190.247 819.11C187.325 819.981 184.168 819.656 181.428 818.173C178.687 816.691 176.687 814.22 175.803 811.229L24.0389 432.838L24.0259 432.825Z" fill="#294596"/>
<path d="M23.5383 428.311C23.5383 429.429 23.6812 430.548 23.9799 431.666V431.718L158.092 806.546C159.911 813.438 167.042 817.612 173.991 815.779L548.453 681.517C555.35 679.696 559.494 672.544 557.675 665.6L423.563 290.72C422.693 287.404 420.55 284.582 417.536 282.827C414.536 281.072 411.016 280.603 407.651 281.488L33.1892 415.75C29.8769 416.621 27.0583 418.766 25.3048 421.783C24.1358 423.799 23.5253 426.048 23.5253 428.324L23.5383 428.311ZM25.2268 431.302C24.4345 428.285 24.8631 425.125 26.4348 422.42C28.0065 419.716 30.5524 417.778 33.5788 416.972L408.041 282.71C411.016 281.93 414.172 282.359 416.887 283.932C419.588 285.506 421.524 288.054 422.329 291.084L556.441 665.965C557.221 668.942 556.792 672.102 555.22 674.82C553.649 677.525 551.103 679.462 548.076 680.268L173.614 814.53C167.418 816.169 160.989 812.411 159.339 806.156L25.2398 431.302H25.2268Z" fill="#294596"/>
<path d="M24.8249 427.141C24.8249 428.116 24.9289 429.105 25.1627 430.093V430.145L141.61 801.436C143.22 808.432 150.274 812.84 157.314 811.215L528.243 694.638C535.231 693.025 539.634 685.951 538.011 678.916L421.564 307.573C420.784 304.205 418.719 301.306 415.757 299.446C412.796 297.586 409.276 297.001 405.873 297.795L34.9435 414.372C28.9425 415.763 24.8379 421.173 24.8379 427.128L24.8249 427.141ZM26.4227 429.781C24.9679 423.448 28.9425 417.102 35.2682 415.633L406.197 299.056C409.224 298.354 412.38 298.887 415.056 300.564C417.732 302.242 419.589 304.855 420.304 307.924L536.751 679.268C538.206 685.574 534.231 691.92 527.892 693.389L156.963 809.967C150.676 811.423 144.325 807.444 142.857 801.098L26.4227 429.781Z" fill="#294596"/>
<path d="M26.0812 425.959C26.0812 426.817 26.1591 427.676 26.3409 428.547V428.586L125.123 796.353C126.526 803.453 133.488 808.095 140.619 806.678L508.015 707.786C511.431 707.109 514.406 705.12 516.367 702.181C518.328 699.242 519.03 695.731 518.328 692.272L419.546 324.466C418.131 317.366 411.182 312.724 404.051 314.141L36.6543 413.034C30.4325 414.269 26.0812 419.795 26.0812 425.959ZM27.6009 428.261C26.341 421.837 30.5235 415.569 36.9401 414.282L404.336 315.39C410.727 314.115 416.988 318.315 418.274 324.739L517.056 692.545C517.666 695.614 517.03 698.787 515.276 701.44C513.51 704.08 510.821 705.887 507.716 706.498L140.32 805.391C133.93 806.665 127.656 802.465 126.383 796.041L27.6139 428.261H27.6009Z" fill="#294596"/>
<path d="M27.3273 424.749C27.3273 425.49 27.3923 426.232 27.5092 426.986V427.025L108.626 791.255C109.211 794.727 111.12 797.783 114.016 799.85C116.9 801.905 120.42 802.724 123.927 802.126L487.79 720.919C494.973 719.709 499.87 712.844 498.649 705.614L417.532 341.344C416.324 334.153 409.466 329.251 402.244 330.473L38.381 411.681C34.9129 412.266 31.8605 414.177 29.7952 417.077C28.1716 419.353 27.3273 422.018 27.3273 424.762V424.749ZM28.7951 426.752C28.2755 423.605 29.0029 420.432 30.8474 417.818C32.7048 415.205 35.4715 413.475 38.6278 412.942L402.491 331.735C408.973 330.642 415.168 335.063 416.259 341.578L497.376 705.848C498.454 712.336 494.051 718.539 487.544 719.631L123.68 800.839C120.563 801.359 117.381 800.631 114.77 798.771C112.159 796.912 110.431 794.155 109.899 790.982L28.7951 426.739V426.752Z" fill="#294596"/>
<path d="M28.5759 423.566C28.5759 424.177 28.6148 424.801 28.7057 425.425V425.451L92.1445 786.145C92.6251 789.669 94.4695 792.816 97.3141 794.974C100.159 797.133 103.692 798.056 107.225 797.575L467.542 734.065C474.829 733.064 479.96 726.263 478.959 718.955L415.521 358.236C414.521 350.941 407.74 345.804 400.427 346.806L40.1102 410.328C36.5902 410.809 33.4468 412.656 31.2906 415.504C29.5111 417.857 28.5759 420.666 28.5759 423.566ZM29.9917 425.23C29.5501 422.018 30.3814 418.859 32.3298 416.284C34.2781 413.709 37.1227 412.045 40.318 411.603L400.635 348.08C407.221 347.17 413.326 351.812 414.235 358.418L477.673 719.137C478.583 725.717 473.946 731.842 467.347 732.752L107.03 796.261C103.861 796.704 100.678 795.871 98.1064 793.921C95.5346 791.97 93.872 789.123 93.4304 785.924L29.9917 425.217V425.23Z" fill="#294596"/>
<path d="M29.8092 422.396C29.8092 422.877 29.8351 423.371 29.8871 423.865L75.6606 781.035C76.4659 788.434 83.1424 793.817 90.5461 793.011L447.33 747.186C454.721 746.38 460.099 739.696 459.293 732.284L413.52 375.102C413.13 371.526 411.376 368.301 408.558 366.038C405.739 363.776 402.219 362.735 398.634 363.125L41.85 408.95C34.9528 409.704 29.8092 415.582 29.8092 422.383V422.396ZM31.173 423.709C30.4716 417.012 35.3036 410.979 41.9929 410.25L398.777 364.426C405.453 363.698 411.493 368.561 412.221 375.258L457.994 732.44C458.722 739.124 453.864 745.171 447.174 745.899L90.3903 791.724C83.7139 792.452 77.6739 787.588 76.9465 780.892L31.173 423.709Z" fill="#294596"/>
<path d="M31.0163 421.212C31.0163 421.576 31.0292 421.941 31.0552 422.305L59.1766 775.937C59.4624 779.578 61.151 782.881 63.9177 785.248C66.6843 787.614 70.2173 788.759 73.8543 788.472L427.092 760.333C434.587 759.735 440.198 753.142 439.601 745.639L411.48 392.006C411.194 388.378 409.505 385.062 406.739 382.696C403.972 380.329 400.439 379.185 396.802 379.471L43.5637 407.611C36.4327 408.183 31.0033 414.164 31.0033 421.212H31.0163ZM32.3541 422.201C31.8346 415.426 36.9003 409.444 43.6806 408.911L396.919 380.771C400.205 380.511 403.4 381.538 405.907 383.684C408.414 385.83 409.947 388.82 410.207 392.11L438.328 745.743C438.874 752.557 433.795 758.499 427.001 759.032L73.7633 787.172C70.4771 787.432 67.2818 786.405 64.7749 784.259C62.268 782.114 60.7483 779.123 60.4755 775.833L32.3541 422.201Z" fill="#294596"/>
</g>
<defs>
<clipPath id="clip0_4216_27">
<rect width="897" height="896" fill="white" transform="matrix(0 -1 -1 0 896 897)"/>
</clipPath>
</defs>
</svg>
