<svg width="55" height="52" viewBox="0 0 55 52" fill="none" xmlns="http://www.w3.org/2000/svg">
<g clip-path="url(#clip0_281_1289)">
<path d="M24.547 39.2764L33.406 45.1771H51.1242C52.7483 45.1771 54.0772 46.5047 54.0772 48.1274C54.0772 49.7501 52.7483 51.0778 51.1242 51.0778H27.5L15.6879 42.2267H4.35571V30.4253H24.547L34.3104 37.0083C35.7685 37.9856 36.193 39.9402 35.2886 41.4522C34.3842 42.9459 32.4648 43.4806 30.9329 42.6508L24.547 39.2764Z" stroke="white" stroke-linecap="round" stroke-linejoin="round"/>
<path d="M9.78094 42.2269V45.1772H0.921875V27.4751H9.78094V30.4255" stroke="white" stroke-linecap="round" stroke-linejoin="round"/>
<path d="M39.6813 29.6878C47.6319 29.6878 54.0772 23.2484 54.0772 15.3049C54.0772 7.36135 47.6319 0.921875 39.6813 0.921875C31.7306 0.921875 25.2853 7.36135 25.2853 15.3049C25.2853 23.2484 31.7306 29.6878 39.6813 29.6878Z" stroke="white" stroke-linecap="round" stroke-linejoin="round"/>
<path d="M32.2987 13.8297L38.2047 19.7305L47.0638 10.8794" stroke="white" stroke-linecap="round" stroke-linejoin="round"/>
</g>
<defs>
<clipPath id="clip0_281_1289">
<rect width="55" height="52" fill="white"/>
</clipPath>
</defs>
</svg>
