<svg width="32" height="32" viewBox="0 0 32 32" fill="none" xmlns="http://www.w3.org/2000/svg">
<g clip-path="url(#clip0_434_8313)">
<path d="M2.90316 21.4807C5.19914 27.0911 10.5994 30.7166 16.6616 30.7166L16.6622 30.7177C24.8358 30.7177 31.4892 24.0835 31.5211 15.9175C31.553 7.69619 24.982 1.05335 16.7612 1.00032C13.686 0.980302 10.7298 1.88885 8.21795 3.62423C6.28397 4.9608 4.7142 6.71725 3.60599 8.76919C3.11032 9.68693 2.76136 10.6767 2.54329 11.6967L2.34671 12.7629M5.60587 10.1379L2.63841 12.8587C2.57402 12.9176 2.48958 12.9507 2.40246 12.9507C2.38244 12.9507 2.36457 12.949 2.34671 12.9458C2.2347 12.9258 2.14175 12.8576 2.09359 12.7629L0.476562 9.62328" stroke="#294596" stroke-linecap="round"/>
<path d="M18.8118 23.7272H15.0099C14.8759 23.7272 14.768 23.6187 14.768 23.4854V21.7619C14.0846 21.513 13.4552 21.1485 12.8927 20.6756L11.3975 21.5391C11.3418 21.5705 11.2754 21.5794 11.2137 21.5634C11.1521 21.5468 11.0987 21.5065 11.0667 21.4508L9.16544 18.158C9.13343 18.1023 9.12453 18.0365 9.14113 17.9742C9.15772 17.912 9.19828 17.8592 9.25399 17.8272L10.7432 16.9673C10.6804 16.6099 10.6491 16.2454 10.6491 15.8809C10.6491 15.5165 10.6804 15.1514 10.7432 14.7946L9.25399 13.9346C9.19828 13.9026 9.15772 13.8493 9.14113 13.7877C9.12453 13.726 9.13284 13.6596 9.16544 13.6039L11.0667 10.3111C11.0987 10.2554 11.1521 10.2151 11.2137 10.1985C11.2754 10.1819 11.3418 10.1902 11.3975 10.2228L12.8927 11.0863C13.4552 10.614 14.0846 10.2495 14.768 10.0005V8.27645C14.768 8.14251 14.8765 8.03467 15.0099 8.03467H18.8118C18.9458 8.03467 19.0535 8.1431 19.0535 8.27645V10.0005C19.7368 10.2495 20.3663 10.614 20.9287 11.0863L22.4245 10.2228C22.4803 10.1908 22.5467 10.1819 22.6083 10.1985C22.6699 10.2151 22.7233 10.2554 22.7553 10.3111L24.6566 13.6039C24.7236 13.7195 24.6839 13.8676 24.5683 13.9346L23.0788 14.7946C23.1411 15.1526 23.1732 15.5171 23.1732 15.8809C23.1732 16.2448 23.1417 16.6099 23.0788 16.9673L24.5683 17.8272C24.6839 17.8942 24.7236 18.0418 24.6566 18.158L22.7553 21.4508C22.7233 21.5065 22.6699 21.5468 22.6083 21.5634C22.5467 21.5794 22.4803 21.5711 22.4245 21.5391L20.9287 20.6756C20.3657 21.1485 19.7362 21.513 19.0535 21.7619V23.4854C19.0535 23.6193 18.9452 23.7272 18.8118 23.7272Z" stroke="#294596" stroke-linecap="round"/>
<path d="M16.9095 18.6574C15.3786 18.6574 14.1328 17.4116 14.1328 15.8808C14.1328 14.3499 15.3786 13.1041 16.9095 13.1041C18.4403 13.1041 19.6861 14.3499 19.6861 15.8808C19.6861 17.4116 18.4403 18.6574 16.9095 18.6574Z" stroke="#294596" stroke-linecap="round"/>
</g>
<defs>
<clipPath id="clip0_434_8313">
<rect width="32" height="32" fill="white"/>
</clipPath>
</defs>
</svg>
