<svg width="32" height="32" viewBox="0 0 32 32" fill="none" xmlns="http://www.w3.org/2000/svg">
<path d="M21 16.5081V27.25C21 28.7687 19.8094 30 18.3156 30H6.6875C5.19062 30 4 28.7687 4 27.25V10.75C4.00426 10.022 4.29536 9.32497 4.81017 8.81017C5.32497 8.29536 6.02197 8.00426 6.75 8H12.6325C12.8361 8.00031 13.0376 8.04114 13.2253 8.12012C13.413 8.19909 13.5831 8.31463 13.7256 8.46L20.5475 15.3975C20.8377 15.6943 21.0002 16.093 21 16.5081Z" stroke="#294596" stroke-linejoin="round"/>
<path d="M12.5 8V14.75C12.5055 15.2124 12.6917 15.6543 13.0187 15.9813C13.3457 16.3083 13.7876 16.4945 14.25 16.5H21" stroke="#294596" stroke-linecap="round" stroke-linejoin="round"/>
<path d="M11 8V4.75C11.0043 4.02197 11.2954 3.32497 11.8102 2.81017C12.325 2.29536 13.022 2.00426 13.75 2H19.625C19.8297 2.00028 20.0324 2.04108 20.2213 2.12002C20.4102 2.19897 20.5816 2.31452 20.7256 2.46L27.5475 9.3975C27.8375 9.69113 28.0001 10.0873 28 10.5V21.25C28 22.7687 26.8094 24 25.3156 24H21.5" stroke="#294596" stroke-linejoin="round"/>
<path d="M19.5 2V8.75C19.5055 9.21242 19.6917 9.65434 20.0187 9.98134C20.3457 10.3083 20.7876 10.4945 21.25 10.5H28" stroke="#294596" stroke-linecap="round" stroke-linejoin="round"/>
</svg>
