<svg width="32" height="32" viewBox="0 0 32 32" fill="none" xmlns="http://www.w3.org/2000/svg">
<path d="M11.1218 15.8308L14.128 18.8372L20.3092 12.656M15.715 1C14.1035 1 12.142 1.97789 11.3425 3.17977C10.4512 4.51644 8.4767 5.65685 6.84865 5.77512C5.38049 5.88216 3.53128 7.10454 2.72518 8.50001C1.92041 9.89548 1.80721 12.0944 2.47257 13.402C3.21193 14.8589 3.21193 17.1411 2.47257 18.5973C1.80721 19.9063 1.92107 22.1052 2.72518 23.5C3.53062 24.8948 5.38049 26.1172 6.84865 26.2242C8.45093 26.3418 10.467 27.5067 11.3425 28.8202C12.1426 30.0221 14.1041 31 15.7157 31C17.3272 31 19.289 30.0221 20.0885 28.8209C20.9627 27.5074 22.9778 26.3431 24.582 26.2255C26.0515 26.1185 27.9017 24.8968 28.7058 23.502C29.5099 22.1078 29.6228 19.9076 28.9581 18.5987C28.2187 17.1424 28.2187 14.8602 28.9581 13.4027C29.6235 12.0951 29.5106 9.89615 28.7071 8.50134C27.901 7.10587 26.0508 5.88415 24.582 5.77645C22.9791 5.65884 20.9633 4.49396 20.0885 3.18042C19.2884 1.97854 17.3272 1.00133 15.7157 1.00133L15.715 1ZM15.715 25.7617C10.332 25.7617 5.95336 21.3824 5.95336 16C5.95336 10.6177 10.3327 6.23829 15.715 6.23829C21.0974 6.23829 25.4767 10.6177 25.4767 16C25.4767 21.3824 21.0974 25.7617 15.715 25.7617Z" stroke="#294596" stroke-linecap="round"/>
</svg>
