<svg width="60" height="60" viewBox="0 0 60 60" fill="none" xmlns="http://www.w3.org/2000/svg">
<g clip-path="url(#clip0_434_5494)">
<path d="M32.3569 39.5844C34.7327 39.4434 36.9273 38.2756 38.3971 36.383C39.122 35.4367 39.6253 34.3495 39.8669 33.2018C40.8736 28.6716 37.8334 24.6448 35.1555 21.3428C35.0347 21.1817 34.8938 21.0206 34.773 20.8595C33.2428 18.9267 32.679 16.3696 33.283 13.9736C29.9206 15.3226 27.1421 17.8193 25.4508 21.0206C24.5649 22.6313 23.9407 24.3629 23.5783 26.1548C23.1354 25.128 22.8736 24.0407 22.773 22.9334C20.7797 25.9938 19.33 29.5575 20.1756 33.2421C20.4374 34.3897 20.9407 35.4569 21.6454 36.383C23.0951 38.2555 25.2696 39.4233 27.6253 39.5642C26.075 38.5978 25.4508 36.6448 26.2159 34.9736C27.1824 32.8394 29.0951 31.2891 30.0012 29.0944C30.9072 31.2689 32.7998 32.8394 33.7864 34.9736C34.5314 36.6448 33.9273 38.6179 32.3569 39.5642V39.5844Z" stroke="#294596" stroke-linecap="round" stroke-linejoin="round"/>
<path d="M30.0011 1.00684L1.00781 13.933V28.7921C1.00781 31.6109 2.21587 34.2686 4.30983 36.1411L30.0011 58.9733L55.6924 36.1411C57.7863 34.2686 58.9944 31.5907 58.9944 28.7921V13.8323L30.0011 1.00684Z" stroke="#294596" stroke-linecap="round" stroke-linejoin="round"/>
</g>
<defs>
<clipPath id="clip0_434_5494">
<rect width="60" height="60" fill="white"/>
</clipPath>
</defs>
</svg>
