<svg width="60" height="60" viewBox="0 0 60 60" fill="none" xmlns="http://www.w3.org/2000/svg">
<g clip-path="url(#clip0_434_5497)">
<path d="M1.00781 58.9934H26.7796L10.6722 42.886V1.00684" stroke="#294596" stroke-linecap="round" stroke-linejoin="round"/>
<path d="M20.3359 11.8789C24.2017 11.8789 24.2017 15.9058 28.0675 15.9058C31.9333 15.9058 31.9333 11.8789 35.799 11.8789C39.6648 11.8789 39.6648 15.9058 43.5306 15.9058C47.3963 15.9058 47.3963 11.8789 51.2621 11.8789C55.1279 11.8789 55.1279 15.9058 58.9937 15.9058" stroke="#294596" stroke-linecap="round" stroke-linejoin="round"/>
<path d="M20.3359 23.8389C24.2017 23.8389 24.2017 27.8657 28.0675 27.8657C31.9333 27.8657 31.9333 23.8389 35.799 23.8389C39.6648 23.8389 39.6648 27.8657 43.5306 27.8657C47.3963 27.8657 47.3963 23.8389 51.2621 23.8389C55.1279 23.8389 55.1279 27.8657 58.9937 27.8657" stroke="#294596" stroke-linecap="round" stroke-linejoin="round"/>
<path d="M20.3359 35.8184C24.2017 35.8184 24.2017 39.8452 28.0675 39.8452C31.9333 39.8452 31.9333 35.8184 35.799 35.8184C39.6648 35.8184 39.6648 39.8452 43.5306 39.8452C47.3963 39.8452 47.3963 35.8184 51.2621 35.8184C55.1279 35.8184 55.1279 39.8452 58.9937 39.8452" stroke="#294596" stroke-linecap="round" stroke-linejoin="round"/>
</g>
<defs>
<clipPath id="clip0_434_5497">
<rect width="60" height="60" fill="white"/>
</clipPath>
</defs>
</svg>
