<svg id="erkP9fCKg6Q1" xmlns="http://www.w3.org/2000/svg" xmlns:xlink="http://www.w3.org/1999/xlink" viewBox="0 0 762 1098" shape-rendering="geometricPrecision" text-rendering="geometricPrecision" project-id="ab56482e7eeb40a197287109e7ec0725" export-id="7e04facc6bd441bfa5ba040052aa5165" cached="false" width="762" height="1098">
<style><![CDATA[
#erkP9fCKg6Q4 {animation: erkP9fCKg6Q4_c_o 4715.447154471545ms linear infinite normal forwards}@keyframes erkP9fCKg6Q4_c_o { 0% {opacity: 1} 3.448276% {opacity: 0} 6.896552% {opacity: 1} 100% {opacity: 1}} #erkP9fCKg6Q5 {animation: erkP9fCKg6Q5_c_o 4715.447154471545ms linear infinite normal forwards}@keyframes erkP9fCKg6Q5_c_o { 0% {opacity: 1} 3.448276% {opacity: 1} 6.896552% {opacity: 0} 10.344828% {opacity: 1} 100% {opacity: 1}} #erkP9fCKg6Q6 {animation: erkP9fCKg6Q6_c_o 4715.447154471545ms linear infinite normal forwards}@keyframes erkP9fCKg6Q6_c_o { 0% {opacity: 1} 6.896552% {opacity: 1} 10.344828% {opacity: 0} 13.793103% {opacity: 1} 100% {opacity: 1}} #erkP9fCKg6Q7 {animation: erkP9fCKg6Q7_c_o 4715.447154471545ms linear infinite normal forwards}@keyframes erkP9fCKg6Q7_c_o { 0% {opacity: 1} 10.344828% {opacity: 1} 13.793103% {opacity: 0} 17.241379% {opacity: 1} 100% {opacity: 1}} #erkP9fCKg6Q8 {animation: erkP9fCKg6Q8_c_o 4715.447154471545ms linear infinite normal forwards}@keyframes erkP9fCKg6Q8_c_o { 0% {opacity: 1} 13.793103% {opacity: 1} 17.241379% {opacity: 0} 20.689655% {opacity: 1} 100% {opacity: 1}} #erkP9fCKg6Q9 {animation: erkP9fCKg6Q9_c_o 4715.447154471545ms linear infinite normal forwards}@keyframes erkP9fCKg6Q9_c_o { 0% {opacity: 1} 17.241379% {opacity: 1} 20.689655% {opacity: 0} 24.137931% {opacity: 1} 100% {opacity: 1}} #erkP9fCKg6Q10 {animation: erkP9fCKg6Q10_c_o 4715.447154471545ms linear infinite normal forwards}@keyframes erkP9fCKg6Q10_c_o { 0% {opacity: 1} 20.689655% {opacity: 1} 24.137931% {opacity: 0} 27.586207% {opacity: 1} 100% {opacity: 1}} #erkP9fCKg6Q11 {animation: erkP9fCKg6Q11_c_o 4715.447154471545ms linear infinite normal forwards}@keyframes erkP9fCKg6Q11_c_o { 0% {opacity: 1} 24.137931% {opacity: 1} 27.586207% {opacity: 0} 31.034483% {opacity: 1} 100% {opacity: 1}} #erkP9fCKg6Q12 {animation: erkP9fCKg6Q12_c_o 4715.447154471545ms linear infinite normal forwards}@keyframes erkP9fCKg6Q12_c_o { 0% {opacity: 1} 27.586207% {opacity: 1} 31.034483% {opacity: 0} 34.482759% {opacity: 1} 100% {opacity: 1}} #erkP9fCKg6Q13 {animation: erkP9fCKg6Q13_c_o 4715.447154471545ms linear infinite normal forwards}@keyframes erkP9fCKg6Q13_c_o { 0% {opacity: 1} 31.034483% {opacity: 1} 34.482759% {opacity: 0} 37.931034% {opacity: 1} 100% {opacity: 1}} #erkP9fCKg6Q14 {animation: erkP9fCKg6Q14_c_o 4715.447154471545ms linear infinite normal forwards}@keyframes erkP9fCKg6Q14_c_o { 0% {opacity: 1} 34.482759% {opacity: 1} 37.931034% {opacity: 0} 41.37931% {opacity: 1} 100% {opacity: 1}} #erkP9fCKg6Q15 {animation: erkP9fCKg6Q15_c_o 4715.447154471545ms linear infinite normal forwards}@keyframes erkP9fCKg6Q15_c_o { 0% {opacity: 1} 37.931034% {opacity: 1} 41.37931% {opacity: 0} 44.827586% {opacity: 1} 100% {opacity: 1}} #erkP9fCKg6Q16 {animation: erkP9fCKg6Q16_c_o 4715.447154471545ms linear infinite normal forwards}@keyframes erkP9fCKg6Q16_c_o { 0% {opacity: 1} 41.37931% {opacity: 1} 44.827586% {opacity: 0} 48.275862% {opacity: 1} 100% {opacity: 1}} #erkP9fCKg6Q17 {animation: erkP9fCKg6Q17_c_o 4715.447154471545ms linear infinite normal forwards}@keyframes erkP9fCKg6Q17_c_o { 0% {opacity: 1} 44.827586% {opacity: 1} 48.275862% {opacity: 0} 51.724138% {opacity: 1} 100% {opacity: 1}} #erkP9fCKg6Q18 {animation: erkP9fCKg6Q18_c_o 4715.447154471545ms linear infinite normal forwards}@keyframes erkP9fCKg6Q18_c_o { 0% {opacity: 1} 48.275862% {opacity: 1} 51.724138% {opacity: 0} 55.172414% {opacity: 1} 100% {opacity: 1}} #erkP9fCKg6Q19 {animation: erkP9fCKg6Q19_c_o 4715.447154471545ms linear infinite normal forwards}@keyframes erkP9fCKg6Q19_c_o { 0% {opacity: 1} 51.724138% {opacity: 1} 55.172414% {opacity: 0} 58.62069% {opacity: 1} 100% {opacity: 1}} #erkP9fCKg6Q20 {animation: erkP9fCKg6Q20_c_o 4715.447154471545ms linear infinite normal forwards}@keyframes erkP9fCKg6Q20_c_o { 0% {opacity: 1} 55.172414% {opacity: 1} 58.62069% {opacity: 0} 62.068966% {opacity: 1} 100% {opacity: 1}} #erkP9fCKg6Q21 {animation: erkP9fCKg6Q21_c_o 4715.447154471545ms linear infinite normal forwards}@keyframes erkP9fCKg6Q21_c_o { 0% {opacity: 1} 58.62069% {opacity: 1} 62.068966% {opacity: 0} 65.517241% {opacity: 1} 100% {opacity: 1}} #erkP9fCKg6Q22 {animation: erkP9fCKg6Q22_c_o 4715.447154471545ms linear infinite normal forwards}@keyframes erkP9fCKg6Q22_c_o { 0% {opacity: 1} 62.068966% {opacity: 1} 65.517241% {opacity: 0} 68.965517% {opacity: 1} 100% {opacity: 1}} #erkP9fCKg6Q23 {animation: erkP9fCKg6Q23_c_o 4715.447154471545ms linear infinite normal forwards}@keyframes erkP9fCKg6Q23_c_o { 0% {opacity: 1} 65.517241% {opacity: 1} 68.965517% {opacity: 0} 72.413793% {opacity: 1} 100% {opacity: 1}} #erkP9fCKg6Q24 {animation: erkP9fCKg6Q24_c_o 4715.447154471545ms linear infinite normal forwards}@keyframes erkP9fCKg6Q24_c_o { 0% {opacity: 1} 70.689655% {opacity: 1} 74.137931% {opacity: 0} 77.586207% {opacity: 1} 100% {opacity: 1}} #erkP9fCKg6Q25 {animation: erkP9fCKg6Q25_c_o 4715.447154471545ms linear infinite normal forwards}@keyframes erkP9fCKg6Q25_c_o { 0% {opacity: 1} 74.137931% {opacity: 1} 77.586207% {opacity: 0} 81.034483% {opacity: 1} 100% {opacity: 1}} #erkP9fCKg6Q26 {animation: erkP9fCKg6Q26_c_o 4715.447154471545ms linear infinite normal forwards}@keyframes erkP9fCKg6Q26_c_o { 0% {opacity: 1} 77.586207% {opacity: 1} 81.034483% {opacity: 0} 84.482759% {opacity: 1} 100% {opacity: 1}} #erkP9fCKg6Q27 {animation: erkP9fCKg6Q27_c_o 4715.447154471545ms linear infinite normal forwards}@keyframes erkP9fCKg6Q27_c_o { 0% {opacity: 1} 81.034483% {opacity: 1} 84.482759% {opacity: 0} 87.931034% {opacity: 1} 100% {opacity: 1}}
]]></style>
<g clip-path="url(#erkP9fCKg6Q28)"><g opacity="0.1"><path id="erkP9fCKg6Q4" d="M328.126,116.082c-3.379-.906-7.101-.531-10.352,1.354L-214.697,424.452c-6.512,3.755-8.754,12.123-4.992,18.631L87.9236,975.199c3.7623,6.508,12.1404,8.753,18.6524,4.998L639.034,673.178c6.512-3.755,8.755-12.124,4.992-18.632L336.414,122.431c-1.886-3.262-4.922-5.447-8.288-6.349ZM96.5602,980.296c-3.0523-.817-5.8044-2.805-7.5061-5.749L-218.559,442.431c-3.403-5.887-1.376-13.453,4.519-16.862L318.418,118.55c5.904-3.394,13.465-1.367,16.881,4.523L642.912,655.189c3.403,5.887,1.376,13.453-4.518,16.862L105.923,979.067c-2.946,1.698-6.3232,2.044-9.3754,1.226l.0126.003Z" fill="#fff"/><path id="erkP9fCKg6Q5" d="M328.877,117.803c-3.353-.899-6.855-.492-9.91,1.163L-205.519,409.847c-3.163,1.707-5.487,4.554-6.522,8.015-1.036,3.461-.654,7.113,1.066,10.29L80.4661,952.29c1.7074,3.174,4.5614,5.485,8.0263,6.521c3.4239,1.039,7.1204.657,10.2998-1.059L623.278,666.871c3.163-1.707,5.488-4.553,6.523-8.015c1.035-3.461.654-7.113-1.066-10.29L337.28,124.425c-1.707-3.174-4.561-5.485-8.026-6.521-.125-.034-.251-.068-.377-.101Zm-9.285,2.299c2.876-1.542,6.188-1.892,9.301-.95c3.129.932,5.703,3.034,7.264,5.899L627.611,649.193c1.548,2.862,1.888,6.167.956,9.293-.932,3.125-3.034,5.695-5.901,7.253L98.1676,956.616c-2.8643,1.546-6.1688,1.871-9.3013.951-3.1292-.933-5.7028-3.035-7.2639-5.9L-209.836,427.516c-1.548-2.862-1.888-6.167-.956-9.293.932-3.125,3.034-5.695,5.901-7.253L319.595,120.089l-.003.013Z" fill="#fff"/><path id="erkP9fCKg6Q6" d="M329.639,119.527c-3.178-.851-6.514-.508-9.469.973L-196.356,395.238c-3.186,1.594-5.569,4.358-6.695,7.754-1.125,3.396-.861,7.031.761,10.222L73.0093,929.369c3.3132,6.576,11.3875,9.251,17.9964,5.939L607.515,660.578c6.594-3.303,9.254-11.371,5.934-17.976L338.166,126.438c-1.596-3.184-4.364-5.566-7.752-6.689-.248-.08-.508-.163-.759-.231l-.016.009Zm-8.892,2.136c2.891-1.444,6.172-1.681,9.227-.674c3.068,1.01,5.562,3.158,7.009,6.047L612.266,643.2c2.999,5.94.589,13.228-5.381,16.214L90.4004,934.15c-5.957,2.99-13.2409.581-16.2331-5.385L-201.132,412.61c-1.45-2.876-1.689-6.154-.68-9.219c1.01-3.064,3.158-5.554,6.049-6.999L320.734,121.66l.013.003Z" fill="#fff"/><path id="erkP9fCKg6Q7" d="M330.406,121.239c-3.014-.808-6.182-.541-9.043.79l-.013-.003L-187.174,380.62c-3.198,1.483-5.636,4.151-6.852,7.483s-1.051,6.939.444,10.151L65.5391,906.456c1.4988,3.199,4.1584,5.633,7.4942,6.85c3.3517,1.207,6.9466,1.054,10.1601-.438L591.73,654.277c3.198-1.483,5.636-4.151,6.852-7.483s1.052-6.939-.444-10.15L339.014,128.453c-1.499-3.198-4.159-5.632-7.494-6.849-.367-.138-.753-.255-1.13-.356l.016-.009Zm-8.486,1.975c2.906-1.346,6.163-1.495,9.166-.395c3.02,1.092,5.418,3.294,6.767,6.197L596.978,637.207c1.343,2.874,1.491,6.141.391,9.141-1.091,3.016-3.294,5.411-6.2,6.757L82.6325,911.696c-2.8766,1.34-6.1341,1.489-9.15.385-3.0193-1.091-5.4178-3.294-6.7669-6.197L-192.409,397.694c-1.343-2.875-1.491-6.142-.391-9.141c1.088-3.004,3.294-5.411,6.199-6.757L321.92,123.214Z" fill="#fff"/><path id="erkP9fCKg6Q8" d="M331.173,122.949c-2.851-.763-5.857-.547-8.608.625l-.025-.006-500.536,242.446c-6.662,2.854-9.755,10.632-6.873,17.307L58.0845,883.534c2.8768,6.648,10.6474,9.752,17.328,6.876L575.974,647.97c3.211-1.385,5.714-3.942,7.011-7.225c1.306-3.267,1.258-6.857-.136-10.095L339.896,130.437c-1.388-3.209-3.949-5.711-7.236-7.008-.486-.198-.994-.361-1.496-.495l.009.015Zm-8.092,1.813c6.023-2.582,13.029.21,15.617,6.228L581.651,631.203c1.245,2.889,1.296,6.116.115,9.067-1.181,2.952-3.431,5.267-6.35,6.515L74.8801,889.232c-5.9944,2.575-13.0132-.22-15.6008-6.238L-183.69,382.79c-2.581-5.99.212-13,6.235-15.582L323.09,124.778l-.009-.016Z" fill="#fff"/><path id="erkP9fCKg6Q9" d="M331.957,124.64c-2.625-.704-5.478-.608-8.202.464l-.031.019L-168.82,351.409c-3.223,1.274-5.784,3.748-7.181,6.951-1.396,3.203-1.449,6.766-.169,10.027L50.628,860.613c1.2777,3.22,3.7554,5.78,6.962,7.177s6.773,1.452,10.0365.175L560.215,641.664c3.222-1.275,5.783-3.749,7.18-6.951c1.397-3.203,1.449-6.766.169-10.027L340.779,132.463c-1.571-3.985-4.928-6.78-8.796-7.817l-.026-.006Zm-7.704,1.673c6.06-2.37,12.921.612,15.313,6.658L566.351,625.195c1.147,2.902,1.097,6.103-.162,8.993s-3.566,5.122-6.5,6.273L67.11,866.778c-2.9049,1.144-6.1052,1.08-9.0021-.167-2.8935-1.259-5.1294-3.566-6.2825-6.497L-174.969,367.875c-1.147-2.903-1.098-6.104.161-8.994s3.567-5.122,6.501-6.273l492.56-226.295Z" fill="#fff"/><path id="erkP9fCKg6Q10" d="M332.722,126.31c-2.549-.683-5.229-.581-7.761.328l-.044.015-484.559,210.15c-3.233,1.164-5.862,3.539-7.34,6.694-1.491,3.15-1.656,6.683-.474,9.958L43.1578,837.701c2.4245,6.728,9.9108,10.24,16.6723,7.816L544.43,635.364c6.717-2.41,10.254-9.88,7.814-16.652L341.617,134.462c-1.167-3.23-3.546-5.858-6.703-7.336-.717-.34-1.467-.608-2.208-.807l.016-.009Zm-7.308,1.552c2.947-1.053,6.124-.901,8.957.436c2.832,1.337,4.985,3.703,6.04,6.648L551.037,619.195c2.178,6.043-1,12.776-7.092,14.963L59.3454,844.311c-6.0476,2.172-12.7888-1.006-14.981-7.094L-166.25,352.971c-1.049-2.916-.899-6.09.442-8.931c1.34-2.842,3.703-4.979,6.65-6.031L325.426,127.865l-.012-.003Z" fill="#fff"/><path id="erkP9fCKg6Q11" d="M333.507,128c-2.336-.626-4.885-.61-7.349.196l-.044.015-476.576,193.974c-6.764,2.182-10.506,9.516-8.288,16.31L35.7019,814.779c1.0532,3.254,3.3524,5.928,6.4298,7.505c3.0901,1.581,6.5992,1.849,9.9003.784L528.656,629.066c6.764-2.181,10.506-9.516,8.288-16.31L342.488,136.484c-1.392-4.299-4.873-7.384-8.981-8.484Zm-6.921,1.413c6.114-1.966,12.7,1.386,14.693,7.514L535.735,613.199c1.968,6.068-1.39,12.672-7.519,14.646L51.5917,821.847c-2.9207.952-6.0831.697-8.8668-.721-2.7836-1.419-4.8443-3.827-5.7981-6.798L-157.541,338.052c-1.969-6.068,1.389-12.671,7.519-14.646L326.586,129.413Z" fill="#fff"/><path id="erkP9fCKg6Q12" d="M334.292,129.649c-2.248-.602-4.636-.583-6.927.08l-.045.015L-141.283,307.58c-3.268.94-6.01,3.137-7.669,6.162-1.659,3.024-2.054,6.509-1.084,9.822L28.2485,791.858c.9426,3.265,3.1429,6.006,6.1717,7.665s6.517,2.055,9.8322,1.088L512.904,622.748c6.798-1.958,10.742-9.144,8.764-15.981L343.372,138.469c-.943-3.264-3.143-6.005-6.172-7.664-.925-.517-1.912-.903-2.904-1.168l-.004.012Zm-6.544,1.313c2.976-.857,6.099-.504,8.821.992c2.723,1.496,4.7,3.962,5.559,6.935L520.425,607.187c.844,2.929.502,6.065-.994,8.784s-3.963,4.694-6.939,5.55L43.8246,799.394c-2.9314.841-6.0703.498-8.7927-.998-2.7225-1.496-4.7002-3.963-5.5594-6.936L-148.821,323.149c-.844-2.929-.502-6.064.994-8.783s3.964-4.694,6.939-5.55l468.62-177.845.016-.009Z" fill="#fff"/><path id="erkP9fCKg6Q13" d="M335.087,131.301c-2.073-.555-4.296-.6-6.519-.039l-.057.012-460.619,161.7c-3.281.842-6.088,2.927-7.837,5.888-1.749,2.96-2.248,6.43-1.389,9.754L20.7793,768.933c1.751,6.83,8.7819,10.986,15.6742,9.229L497.129,616.45c3.278-.829,6.088-2.927,7.837-5.887c1.75-2.961,2.249-6.431,1.389-9.754L344.229,140.488c-1.185-4.621-4.806-8.038-9.152-9.203l.01.016Zm-6.168,1.212c6.18-1.558,12.489,2.176,14.077,8.357L505.122,601.191c.746,2.943.303,6.052-1.274,8.722-1.574,2.658-4.1,4.549-7.09,5.308L36.0828,776.933c-6.1383,1.556-12.4602-2.182-14.0485-8.363L-140.104,308.246c-.746-2.943-.303-6.052,1.274-8.722c1.574-2.658,4.1-4.55,7.093-5.321L328.91,132.497l.009.016Z" fill="#fff"/><path id="erkP9fCKg6Q14" d="M335.874,132.937c-1.934-.518-4.015-.591-6.104-.129l-.057.012L-122.93,278.369c-6.869,1.521-11.244,8.404-9.703,15.312L13.3215,746.024c.7341,3.29,2.7399,6.154,5.6396,7.993c2.8963,1.852,6.3432,2.453,9.6925,1.71L481.353,610.165c3.292-.731,6.158-2.733,8.01-5.626c1.839-2.896,2.451-6.336,1.706-9.682L345.114,142.513c-1.059-4.788-4.743-8.371-9.228-9.572l-.012-.004Zm-5.794,1.124c3.004-.661,6.089-.117,8.686,1.547c2.613,1.655,4.412,4.235,5.088,7.24L489.808,595.192c.66,2.96.114,6.055-1.55,8.648-1.655,2.609-4.236,4.405-7.244,5.078L28.318,754.467c-2.9597.645-6.0607.11-8.6574-1.554-2.6125-1.654-4.4117-4.234-5.0874-7.239L-131.384,293.343c-1.365-6.162,2.566-12.343,8.793-13.727L330.08,134.061Z" fill="#fff"/><path id="erkP9fCKg6Q15" d="M336.664,134.561c-1.808-.485-3.746-.587-5.705-.211l-.057.012-444.65,129.389c-3.316.617-6.237,2.524-8.17,5.368-1.93,2.831-2.642,6.244-2.011,9.614L5.85438,723.099c1.30194,6.898,8.04182,11.487,15.00242,10.179L465.568,603.865c3.315-.618,6.236-2.525,8.169-5.368c1.93-2.832,2.643-6.245,2.011-9.614L345.962,144.529c-.934-4.957-4.688-8.733-9.298-9.968Zm-5.423,1.048c6.248-1.163,12.289,2.97,13.473,9.204L474.5,589.167c1.169,6.189-2.956,12.238-9.223,13.423L20.5623,732.016c-6.1949,1.164-12.25177-2.96-13.44123-9.223L-122.665,278.44c-.563-2.975.084-6.043,1.817-8.59c1.733-2.548,4.36-4.265,7.394-4.837L331.228,135.606l.013.003Z" fill="#fff"/><path id="erkP9fCKg6Q16" d="M337.472,136.163c-1.708-.458-3.498-.561-5.31-.28l-.057.012L-104.56,249.149c-6.938,1.072-11.743,7.651-10.657,14.652L-1.59885,700.165c.50954,3.324,2.336897,6.301,5.10405,8.333c2.77051,2.02,6.16944,2.85,9.5562,2.319L449.796,597.555c6.938-1.073,11.743-7.652,10.658-14.653L346.838,146.526c-.509-3.324-2.336-6.301-5.104-8.334-1.305-.955-2.739-1.634-4.258-2.042l-.004.013Zm-5.072.994c3.032-.465,6.076.283,8.566,2.094c2.487,1.822,4.127,4.494,4.603,7.54L459.184,583.167c.97,6.231-3.358,12.131-9.638,13.111L12.808,709.552c-2.99142.463-6.03867-.273-8.52543-2.096s-4.126768-4.494-4.603053-7.54L-113.948,263.536c-.969-6.23,3.358-12.13,9.638-13.11L332.396,137.17l.004-.013Z" fill="#fff"/><path id="erkP9fCKg6Q17" d="M338.282,137.764c-1.582-.424-3.233-.543-4.905-.332l-.069.008-428.6898,97.103c-3.3406.409-6.3872,2.134-8.4982,4.836s-3.04,6.07-2.62,9.478L-9.05302,677.243c.41152,3.338,2.13997,6.383,4.8459,8.493s6.078,3.04,9.48815,2.623L434.04,591.248c6.972-.848,11.992-7.276,11.131-14.311L347.727,148.538c-.411-3.337-2.14-6.382-4.846-8.492-1.379-1.083-2.937-1.85-4.583-2.291l-.016.009Zm-4.721.941c3.059-.364,6.067.469,8.493,2.369c2.438,1.904,3.982,4.631,4.36,7.691l97.448,428.386c.773,6.259-3.739,12.042-10.072,12.82L5.05604,687.088c-3.00554.365-6.025887-.471-8.46398-2.375s-3.98259-4.631-4.36088-7.691L-105.229,248.633c-.366-3.003.469-6.02,2.373-8.455c1.905-2.435,4.6333-3.976,7.6958-4.352L333.558,138.717l.003-.012Z" fill="#fff"/><path id="erkP9fCKg6Q18" d="M339.07,139.348c-1.432-.384-2.944-.52-4.501-.386l-.069.008-420.6887,80.958c-7.0094.637-12.245,6.912-11.6082,13.981l81.2761,420.41c.2976,3.361,1.9305,6.461,4.5845,8.664c2.6413,2.201,5.9831,3.244,9.41994,2.928L418.254,584.948c3.364-.296,6.466-1.925,8.671-4.575c2.201-2.638,3.246-5.988,2.937-9.406L348.586,150.558c-.499-5.473-4.438-9.863-9.5-11.22l-.016.01Zm-4.349.905c6.355-.556,11.99,4.141,12.562,10.493l81.277,420.41c.268,3.017-.658,6.022-2.641,8.396-1.982,2.373-4.769,3.832-7.849,4.123L-2.70029,664.638c-3.01969.267-6.02908-.661-8.40601-2.642-2.3768-1.982-3.8384-4.767-4.1186-7.841L-96.5102,233.73c-.5738-6.299,4.1276-11.938,10.5021-12.516L334.734,140.257l-.013-.004Z" fill="#fff"/><path id="erkP9fCKg6Q19" d="M339.874,140.92c-1.307-.35-2.679-.502-4.103-.413l-.07.008-412.712,64.807c-3.3782.198-6.5481,1.728-8.8395,4.301-2.2915,2.573-3.4378,5.897-3.2425,9.338l65.1174,412.435c.4132,7.05,6.5493,12.486,13.659,12.078L402.465,578.659c3.378-.198,6.548-1.728,8.84-4.301c2.291-2.573,3.437-5.897,3.242-9.338L349.439,152.6c-.332-5.642-4.334-10.251-9.559-11.651l-.006-.029Zm-3.992.881c6.38-.348,11.885,4.529,12.262,10.91L413.252,565.13c.183,3.035-.86,6.023-2.92,8.335s-4.909,3.701-8,3.881L-10.4528,642.174c-6.3458.37-11.8567-4.535-12.2336-10.916L-87.7913,218.826c-.1831-3.035.8599-6.023,2.9199-8.335s4.9091-3.701,7.9999-3.881L335.882,141.801Z" fill="#fff"/><path id="erkP9fCKg6Q20" d="M340.717,142.492c-1.205-.323-2.458-.471-3.733-.436l-.057.012-404.7364,48.656c-3.4048.096-6.63,1.531-9.0118,4.04-2.3819,2.508-3.6412,5.801-3.5473,9.269l48.937,404.442c.2012,7.087,6.1855,12.738,13.3293,12.555L386.704,572.365c7.09-.184,12.756-6.156,12.559-13.309L350.326,154.614c-.098-3.402-1.537-6.625-4.049-9.006-1.59-1.501-3.487-2.561-5.547-3.113l-.013-.003Zm-3.676.857c3.105-.083,6.057,1.058,8.312,3.195c2.267,2.141,3.563,5.043,3.643,8.157l48.937,404.443c.082,3.061-1.045,6.013-3.199,8.273-2.141,2.264-5.046,3.556-8.163,3.635L-18.235,619.716c-6.374.175-11.7524-4.924-11.93-11.345L-79.102,203.929c-.0851-3.049,1.0458-6.013,3.1871-8.277c2.1412-2.264,5.0454-3.556,8.1629-3.636l404.777-48.658.016-.009Z" fill="#fff"/><path id="erkP9fCKg6Q21" d="M341.528,144.04c-1.08-.29-2.197-.441-3.354-.442l-.051-.014-396.7668,32.53c-7.1277-.027-13.0053,5.781-13.0328,12.968l32.7691,396.452c-.0267,7.133,5.8092,12.987,12.9871,13.027L370.897,566.045c3.428.018,6.708-1.322,9.184-3.779c2.472-2.443,3.836-5.722,3.852-9.201L351.164,156.613c.016-3.425-1.327-6.703-3.787-9.178-1.645-1.65-3.66-2.822-5.858-3.411l.009.016Zm-3.326.857c3.12.015,6.061,1.247,8.267,3.465c2.205,2.218,3.418,5.179,3.413,8.311l32.77,396.452c-.017,3.075-1.248,6.013-3.471,8.228-2.219,2.202-5.181,3.412-8.316,3.406L-25.9527,597.275c-3.078-.018-6.0193-1.249-8.2377-3.471-2.2058-2.218-3.4184-5.179-3.4138-8.311L-70.3733,189.041c.0209-6.409,5.315-11.647,11.7836-11.621L338.199,144.909l.003-.012Z" fill="#fff"/><path id="erkP9fCKg6Q22" d="M342.326,145.585c-.942-.252-1.924-.408-2.939-.438l-.05-.013-388.7788,16.382c-7.1744-.255-13.2579,5.417-13.5099,12.638l16.6012,388.462c-.2511,7.168,5.4421,13.252,12.6576,13.504L355.136,559.752c3.455.119,6.79-1.126,9.353-3.505s4.039-5.628,4.153-9.12L352.041,158.664c.209-6.157-3.953-11.521-9.706-13.063l-.009-.016Zm-2.964.86c6.494.234,11.595,5.716,11.377,12.206L367.34,547.114c-.105,3.105-1.437,6.016-3.75,8.166s-5.318,3.268-8.467,3.164L-33.7059,574.812c-6.4684-.227-11.5692-5.708-11.348-12.211L-61.6552,174.138c.2204-6.449,5.7078-11.555,12.2172-11.33l388.8-16.363Z" fill="#fff"/><path id="erkP9fCKg6Q23" d="M343.144,147.108c-.829-.222-1.679-.369-2.567-.419l-.038-.01-380.8025.231c-7.2211-.483-13.5071,5.041-13.9837,12.296l.4335,380.472c-.2311,3.475.9208,6.863,3.2519,9.518c2.331,2.655,5.5408,4.242,9.0634,4.459l380.8404-.22c7.224.47,13.507-5.041,13.984-12.296l-.434-380.473c.417-6.329-3.795-11.963-9.748-13.558Zm-2.617.872c6.531.446,11.503,6.108,11.085,12.639l.434,380.473c-.423,6.503-6.101,11.463-12.638,11.042l-380.8407.221c-3.1223-.204-6.0223-1.64-8.1308-4.021-2.0926-2.389-3.1426-5.454-2.9294-8.611l-.4335-380.473c.4231-6.502,6.1039-11.475,12.6383-11.042l380.8121-.215.003-.013Z" fill="#fff"/><path id="erkP9fCKg6Q24" d="M343.988,148.626c-.716-.192-1.449-.321-2.207-.403l-.038-.01-372.8141-15.917c-3.5049-.334-6.9508.719-9.6976,2.982-2.7309,2.254-4.4333,5.442-4.7632,8.984L-61.2663,516.745c-.691,7.251,4.6735,13.758,11.9732,14.45L323.559,547.122c7.258.694,13.769-4.661,14.457-11.954L353.75,162.686c.333-3.502-.723-6.945-2.99-9.69-1.778-2.158-4.134-3.663-6.784-4.373l.012.003Zm-2.314.9c3.174.312,6.051,1.836,8.098,4.294c2.044,2.471,2.998,5.591,2.696,8.777L336.734,535.08c-.623,6.544-6.497,11.384-13.072,10.752L-49.1897,529.905c-6.5468-.638-11.3985-6.497-10.7693-13.065l15.7345-372.483c.3044-3.146,1.8314-6.031,4.3033-8.072s5.5818-2.996,8.7844-2.689L341.686,149.529l-.012-.003Z" fill="#fff"/><path id="erkP9fCKg6Q25" d="M344.808,150.136c-.591-.158-1.204-.282-1.83-.355l-.025-.007-364.8225-32.077c-3.5283-.448-7.0453.519-9.8666,2.708-2.8212,2.189-4.6275,5.363-5.0771,8.9L-68.7247,493.782c-.9189,7.298,4.3224,14.014,11.6402,14.939L307.763,540.805c7.305.922,14.021-4.298,14.947-11.621l31.899-364.48c.446-3.525-.524-7.039-2.717-9.859-1.812-2.328-4.283-3.958-7.084-4.709Zm-1.975.937c3.217.405,6.054,2.026,8.037,4.574s2.854,5.727,2.454,8.928l-31.899,364.48c-.825,6.597-6.889,11.292-13.505,10.461L-56.9275,507.432c-6.591-.825-11.3068-6.889-10.4782-13.498l31.9115-364.477c.3932-3.176,2.0207-6.035,4.5705-8.014c2.5497-1.98,5.7307-2.848,8.9349-2.447L342.846,151.077l-.013-.004Z" fill="#fff"/><path id="erkP9fCKg6Q26" d="M345.62,151.631c-.465-.124-.949-.227-1.439-.305L-12.6655,103.098c-7.3554-1.137-14.2834,3.918-15.4209,11.279L-76.1657,470.864c-1.1341,7.347,3.9301,14.272,11.2981,15.412L291.991,534.508c3.555.549,7.124-.31,10.039-2.447s4.831-5.268,5.382-8.832l48.079-356.487c1.057-6.858-3.289-13.347-9.858-15.107l-.013-.004Zm-1.621.978c6.65,1.056,11.227,7.284,10.199,13.934L306.119,523.031c-1.025,6.637-7.285,11.212-13.942,10.182L-64.6822,484.981c-6.6443-1.027-11.2276-7.285-10.1997-13.935l48.0793-356.487c1.0246-6.637,7.2855-11.213,13.9424-10.182L343.999,152.609Z" fill="#fff"/><path id="erkP9fCKg6Q27" d="M346.449,153.105c-.352-.095-.707-.176-1.065-.245L-3.4773,88.4959c-3.5909-.6663-7.2183.1099-10.2204,2.1698-3.0021,2.0598-5.0218,5.1763-5.6868,8.7633L-83.6283,447.914c-1.362,7.394,3.5539,14.521,10.9559,15.885L276.189,528.163c3.578.663,7.218-.11,10.22-2.17s5.022-5.176,5.687-8.763L356.34,168.745c1.293-7.036-3.08-13.829-9.888-15.653l-.003.013Zm-1.301,1.036c6.678,1.252,11.145,7.693,9.905,14.38L290.809,517.006c-.599,3.242-2.418,6.062-5.139,7.929-2.722,1.866-6.007,2.572-9.252,1.972L-72.4434,462.543c-6.7229-1.237-11.1486-7.68-9.9053-14.38L-18.1049,99.6778c.5993-3.2416,2.4186-6.0621,5.1399-7.9283s6.0036-2.56,9.25201-1.972L345.148,154.141Z" fill="#fff"/></g><clipPath id="erkP9fCKg6Q28"><rect width="897" height="896" rx="0" ry="0" transform="matrix(0.965926 0.258819 0.258819 -0.965926 -337 865.47)" fill="#fff"/></clipPath></g></svg>
