<svg width="762" height="1098" viewBox="0 0 762 1098" fill="none" xmlns="http://www.w3.org/2000/svg">
<g opacity="0.1" clip-path="url(#clip0_281_1303)">
<path d="M328.126 116.082C324.747 115.176 321.025 115.551 317.774 117.436L-214.697 424.452C-221.209 428.207 -223.451 436.575 -219.689 443.083L87.9236 975.199C91.6859 981.707 100.064 983.952 106.576 980.197L639.034 673.178C645.546 669.423 647.789 661.054 644.026 654.546L336.414 122.431C334.528 119.169 331.492 116.984 328.126 116.082ZM96.5602 980.296C93.5079 979.479 90.7558 977.491 89.0541 974.547L-218.559 442.431C-221.962 436.544 -219.935 428.978 -214.04 425.569L318.418 118.55C324.322 115.156 331.883 117.183 335.299 123.073L642.912 655.189C646.315 661.076 644.288 668.642 638.394 672.051L105.923 979.067C102.977 980.765 99.5998 981.111 96.5476 980.293L96.5602 980.296Z" fill="white"/>
<path d="M328.877 117.803C325.524 116.904 322.022 117.311 318.967 118.966L-205.519 409.847C-208.682 411.554 -211.006 414.401 -212.041 417.862C-213.077 421.323 -212.695 424.975 -210.975 428.152L80.4661 952.29C82.1735 955.464 85.0275 957.775 88.4924 958.811C91.9163 959.85 95.6128 959.468 98.7922 957.752L623.278 666.871C626.441 665.164 628.766 662.318 629.801 658.856C630.836 655.395 630.455 651.743 628.735 648.566L337.28 124.425C335.573 121.251 332.719 118.94 329.254 117.904C329.129 117.87 329.003 117.836 328.877 117.803ZM319.592 120.102C322.468 118.56 325.78 118.21 328.893 119.152C332.022 120.084 334.596 122.186 336.157 125.051L627.611 649.193C629.159 652.055 629.499 655.36 628.567 658.486C627.635 661.611 625.533 664.181 622.666 665.739L98.1676 956.616C95.3033 958.162 91.9988 958.487 88.8663 957.567C85.7371 956.634 83.1635 954.532 81.6024 951.667L-209.836 427.516C-211.384 424.654 -211.724 421.349 -210.792 418.223C-209.86 415.098 -207.758 412.528 -204.891 410.97L319.595 120.089L319.592 120.102Z" fill="white"/>
<path d="M329.639 119.527C326.461 118.676 323.125 119.019 320.17 120.5L-196.356 395.238C-199.542 396.832 -201.925 399.596 -203.051 402.992C-204.176 406.388 -203.912 410.023 -202.29 413.214L73.0093 929.369C76.3225 935.945 84.3968 938.62 91.0057 935.308L607.515 660.578C614.109 657.275 616.769 649.207 613.449 642.602L338.166 126.438C336.57 123.254 333.802 120.872 330.414 119.749C330.166 119.669 329.906 119.586 329.655 119.518L329.639 119.527ZM320.747 121.663C323.638 120.219 326.919 119.982 329.974 120.989C333.042 121.999 335.536 124.147 336.983 127.036L612.266 643.2C615.265 649.14 612.855 656.428 606.885 659.414L90.4004 934.15C84.4434 937.14 77.1595 934.731 74.1673 928.765L-201.132 412.61C-202.582 409.734 -202.821 406.456 -201.812 403.391C-200.802 400.327 -198.654 397.837 -195.763 396.392L320.734 121.66L320.747 121.663Z" fill="white"/>
<path d="M330.406 121.239C327.392 120.431 324.224 120.698 321.363 122.029L321.35 122.026L-187.174 380.62C-190.372 382.103 -192.81 384.771 -194.026 388.103C-195.242 391.435 -195.077 395.042 -193.582 398.254L65.5391 906.456C67.0379 909.655 69.6975 912.089 73.0333 913.306C76.385 914.513 79.9799 914.36 83.1934 912.868L591.73 654.277C594.928 652.794 597.366 650.126 598.582 646.794C599.798 643.462 599.634 639.855 598.138 636.644L339.014 128.453C337.515 125.255 334.855 122.821 331.52 121.604C331.153 121.466 330.767 121.349 330.39 121.248L330.406 121.239ZM321.92 123.214C324.826 121.868 328.083 121.719 331.086 122.819C334.106 123.911 336.504 126.113 337.853 129.016L596.978 637.207C598.321 640.081 598.469 643.348 597.369 646.348C596.278 649.364 594.075 651.759 591.169 653.105L82.6325 911.696C79.7559 913.036 76.4984 913.185 73.4825 912.081C70.4632 910.99 68.0647 908.787 66.7156 905.884L-192.409 397.694C-193.752 394.819 -193.9 391.552 -192.8 388.553C-191.712 385.549 -189.506 383.142 -186.601 381.796L321.92 123.214Z" fill="white"/>
<path d="M331.173 122.949C328.322 122.186 325.316 122.402 322.565 123.574L322.54 123.568L-177.996 366.014C-184.658 368.868 -187.751 376.646 -184.869 383.321L58.0845 883.534C60.9613 890.182 68.7319 893.286 75.4125 890.41L575.974 647.97C579.185 646.585 581.688 644.028 582.985 640.745C584.291 637.478 584.243 633.888 582.849 630.65L339.896 130.437C338.508 127.228 335.947 124.726 332.66 123.429C332.174 123.231 331.666 123.068 331.164 122.934L331.173 122.949ZM323.081 124.762C329.104 122.18 336.11 124.972 338.698 130.99L581.651 631.203C582.896 634.092 582.947 637.319 581.766 640.27C580.585 643.222 578.335 645.537 575.416 646.785L74.8801 889.232C68.8857 891.807 61.8669 889.012 59.2793 882.994L-183.69 382.79C-186.271 376.8 -183.478 369.79 -177.455 367.208L323.09 124.778L323.081 124.762Z" fill="white"/>
<path d="M331.957 124.64C329.332 123.936 326.479 124.032 323.755 125.104L323.724 125.123L-168.82 351.409C-172.043 352.683 -174.604 355.157 -176.001 358.36C-177.397 361.563 -177.45 365.126 -176.17 368.387L50.628 860.613C51.9057 863.833 54.3834 866.393 57.59 867.79C60.7966 869.187 64.363 869.242 67.6265 867.965L560.215 641.664C563.437 640.389 565.998 637.915 567.395 634.713C568.792 631.51 568.844 627.947 567.564 624.686L340.779 132.463C339.208 128.478 335.851 125.683 331.983 124.646L331.957 124.64ZM324.253 126.313C330.313 123.943 337.174 126.925 339.566 132.971L566.351 625.195C567.498 628.097 567.448 631.298 566.189 634.188C564.93 637.078 562.623 639.31 559.689 640.461L67.11 866.778C64.2051 867.922 61.0048 867.858 58.1079 866.611C55.2144 865.352 52.9785 863.045 51.8254 860.114L-174.969 367.875C-176.116 364.972 -176.067 361.771 -174.808 358.881C-173.549 355.991 -171.241 353.759 -168.307 352.608L324.253 126.313Z" fill="white"/>
<path d="M332.722 126.31C330.173 125.627 327.493 125.729 324.961 126.638L324.917 126.653L-159.642 336.803C-162.875 337.967 -165.504 340.342 -166.982 343.497C-168.473 346.647 -168.638 350.18 -167.456 353.455L43.1578 837.701C45.5823 844.429 53.0686 847.941 59.8301 845.517L544.43 635.364C551.147 632.954 554.684 625.484 552.244 618.712L341.617 134.462C340.45 131.232 338.071 128.604 334.914 127.126C334.197 126.786 333.447 126.518 332.706 126.319L332.722 126.31ZM325.414 127.862C328.361 126.809 331.538 126.961 334.371 128.298C337.203 129.635 339.356 132.001 340.411 134.946L551.037 619.195C553.215 625.238 550.037 631.971 543.945 634.158L59.3454 844.311C53.2978 846.483 46.5566 843.305 44.3644 837.217L-166.25 352.971C-167.299 350.055 -167.149 346.881 -165.808 344.04C-164.468 341.198 -162.105 339.061 -159.158 338.009L325.426 127.865L325.414 127.862Z" fill="white"/>
<path d="M333.507 128C331.171 127.374 328.622 127.39 326.158 128.196L326.114 128.211L-150.462 322.185C-157.226 324.367 -160.968 331.701 -158.75 338.495L35.7019 814.779C36.7551 818.033 39.0543 820.707 42.1317 822.284C45.2218 823.865 48.7309 824.133 52.032 823.068L528.656 629.066C535.42 626.885 539.162 619.55 536.944 612.756L342.488 136.484C341.096 132.185 337.615 129.1 333.507 128ZM326.586 129.413C332.7 127.447 339.286 130.799 341.279 136.927L535.735 613.199C537.703 619.267 534.345 625.871 528.216 627.845L51.5917 821.847C48.671 822.799 45.5086 822.544 42.7249 821.126C39.9413 819.707 37.8806 817.299 36.9268 814.328L-157.541 338.052C-159.51 331.984 -156.152 325.381 -150.022 323.406L326.586 129.413Z" fill="white"/>
<path d="M334.292 129.649C332.044 129.047 329.656 129.066 327.365 129.729L327.32 129.744L-141.283 307.58C-144.551 308.52 -147.293 310.717 -148.952 313.742C-150.611 316.766 -151.006 320.251 -150.036 323.564L28.2485 791.858C29.1911 795.123 31.3914 797.864 34.4202 799.523C37.449 801.182 40.9372 801.578 44.2524 800.611L512.904 622.748C519.702 620.79 523.646 613.604 521.668 606.767L343.372 138.469C342.429 135.205 340.229 132.464 337.2 130.805C336.275 130.288 335.288 129.902 334.296 129.637L334.292 129.649ZM327.748 130.962C330.724 130.105 333.847 130.458 336.569 131.954C339.292 133.45 341.269 135.916 342.128 138.889L520.425 607.187C521.269 610.116 520.927 613.252 519.431 615.971C517.935 618.69 515.468 620.665 512.492 621.521L43.8246 799.394C40.8932 800.235 37.7543 799.892 35.0319 798.396C32.3094 796.9 30.3317 794.433 29.4725 791.46L-148.821 323.149C-149.665 320.22 -149.323 317.085 -147.827 314.366C-146.331 311.647 -143.863 309.672 -140.888 308.816L327.732 130.971L327.748 130.962Z" fill="white"/>
<path d="M335.087 131.301C333.014 130.746 330.791 130.701 328.568 131.262L328.511 131.274L-132.108 292.974C-135.389 293.816 -138.196 295.901 -139.945 298.862C-141.694 301.822 -142.193 305.292 -141.334 308.616L20.7793 768.933C22.5303 775.763 29.5612 779.919 36.4535 778.162L497.129 616.45C500.407 615.621 503.217 613.523 504.966 610.563C506.716 607.602 507.215 604.132 506.355 600.809L344.229 140.488C343.044 135.867 339.423 132.45 335.077 131.285L335.087 131.301ZM328.919 132.513C335.099 130.955 341.408 134.689 342.996 140.87L505.122 601.191C505.868 604.134 505.425 607.243 503.848 609.913C502.274 612.571 499.748 614.462 496.758 615.221L36.0828 776.933C29.9445 778.489 23.6226 774.751 22.0343 768.57L-140.104 308.246C-140.85 305.303 -140.407 302.194 -138.83 299.524C-137.256 296.866 -134.73 294.974 -131.737 294.203L328.91 132.497L328.919 132.513Z" fill="white"/>
<path d="M335.874 132.937C333.94 132.419 331.859 132.346 329.77 132.808L329.713 132.82L-122.93 278.369C-129.799 279.89 -134.174 286.773 -132.633 293.681L13.3215 746.024C14.0556 749.314 16.0614 752.178 18.9611 754.017C21.8574 755.869 25.3043 756.47 28.6536 755.727L481.353 610.165C484.645 609.434 487.511 607.432 489.363 604.539C491.202 601.643 491.814 598.203 491.069 594.857L345.114 142.513C344.055 137.725 340.371 134.142 335.886 132.941L335.874 132.937ZM330.08 134.061C333.084 133.4 336.169 133.944 338.766 135.608C341.379 137.263 343.178 139.843 343.854 142.848L489.808 595.192C490.468 598.152 489.922 601.247 488.258 603.84C486.603 606.449 484.022 608.245 481.014 608.918L28.318 754.467C25.3583 755.112 22.2573 754.577 19.6606 752.913C17.0481 751.259 15.2489 748.679 14.5732 745.674L-131.384 293.343C-132.749 287.181 -128.818 281 -122.591 279.616L330.08 134.061Z" fill="white"/>
<path d="M336.664 134.561C334.856 134.076 332.918 133.974 330.959 134.35L330.902 134.362L-113.748 263.751C-117.064 264.368 -119.985 266.275 -121.918 269.119C-123.848 271.95 -124.56 275.363 -123.929 278.733L5.85438 723.099C7.15632 729.997 13.8962 734.586 20.8568 733.278L465.568 603.865C468.883 603.247 471.804 601.34 473.737 598.497C475.667 595.665 476.38 592.252 475.748 588.883L345.962 144.529C345.028 139.572 341.274 135.796 336.664 134.561ZM331.241 135.609C337.489 134.446 343.53 138.579 344.714 144.813L474.5 589.167C475.669 595.356 471.544 601.405 465.277 602.59L20.5623 732.016C14.3674 733.18 8.31053 729.056 7.12107 722.793L-122.665 278.44C-123.228 275.465 -122.581 272.397 -120.848 269.85C-119.115 267.302 -116.488 265.585 -113.454 265.013L331.228 135.606L331.241 135.609Z" fill="white"/>
<path d="M337.472 136.163C335.764 135.705 333.974 135.602 332.162 135.883L332.105 135.895L-104.56 249.149C-111.498 250.221 -116.303 256.8 -115.217 263.801L-1.59885 700.165C-1.08931 703.489 0.738047 706.466 3.5052 708.498C6.27571 710.518 9.67464 711.348 13.0614 710.817L449.796 597.555C456.734 596.482 461.539 589.903 460.454 582.902L346.838 146.526C346.329 143.202 344.502 140.225 341.734 138.192C340.429 137.237 338.995 136.558 337.476 136.15L337.472 136.163ZM332.4 137.157C335.432 136.692 338.476 137.44 340.966 139.251C343.453 141.073 345.093 143.745 345.569 146.791L459.184 583.167C460.154 589.398 455.826 595.298 449.546 596.278L12.808 709.552C9.81658 710.015 6.76933 709.279 4.28257 707.456C1.79582 705.633 0.155802 702.962 -0.320483 699.916L-113.948 263.536C-114.917 257.306 -110.59 251.406 -104.31 250.426L332.396 137.17L332.4 137.157Z" fill="white"/>
<path d="M338.282 137.764C336.7 137.34 335.049 137.221 333.377 137.432L333.308 137.44L-95.3818 234.543C-98.7224 234.952 -101.769 236.677 -103.88 239.379C-105.991 242.081 -106.92 245.449 -106.5 248.857L-9.05302 677.243C-8.6415 680.581 -6.91305 683.626 -4.20712 685.736C-1.50117 687.846 1.87088 688.776 5.28103 688.359L434.04 591.248C441.012 590.4 446.032 583.972 445.171 576.937L347.727 148.538C347.316 145.201 345.587 142.156 342.881 140.046C341.502 138.963 339.944 138.196 338.298 137.755L338.282 137.764ZM333.561 138.705C336.62 138.341 339.628 139.174 342.054 141.074C344.492 142.978 346.036 145.705 346.414 148.765L443.862 577.151C444.635 583.41 440.123 589.193 433.79 589.971L5.05604 687.088C2.0505 687.453 -0.969847 686.617 -3.40794 684.713C-5.84605 682.809 -7.39053 680.082 -7.76882 677.022L-105.229 248.633C-105.595 245.63 -104.76 242.613 -102.856 240.178C-100.951 237.743 -98.2227 236.202 -95.1602 235.826L333.558 138.717L333.561 138.705Z" fill="white"/>
<path d="M339.07 139.348C337.638 138.964 336.126 138.828 334.569 138.962L334.5 138.97L-86.1887 219.928C-93.1981 220.565 -98.4337 226.84 -97.7969 233.909L-16.5208 654.319C-16.2232 657.68 -14.5903 660.78 -11.9363 662.983C-9.295 665.184 -5.9532 666.227 -2.51636 665.911L418.254 584.948C421.618 584.652 424.72 583.023 426.925 580.373C429.126 577.735 430.171 574.385 429.862 570.967L348.586 150.558C348.087 145.085 344.148 140.695 339.086 139.338L339.07 139.348ZM334.721 140.253C341.076 139.697 346.711 144.394 347.283 150.746L428.56 571.156C428.828 574.173 427.902 577.178 425.919 579.552C423.937 581.925 421.15 583.384 418.07 583.675L-2.70029 664.638C-5.71998 664.905 -8.72937 663.977 -11.1063 661.996C-13.4831 660.014 -14.9447 657.229 -15.2249 654.155L-96.5102 233.73C-97.084 227.431 -92.3826 221.792 -86.0081 221.214L334.734 140.257L334.721 140.253Z" fill="white"/>
<path d="M339.874 140.92C338.567 140.57 337.195 140.418 335.771 140.507L335.701 140.515L-77.011 205.322C-80.3892 205.52 -83.5591 207.05 -85.8505 209.623C-88.142 212.196 -89.2883 215.52 -89.093 218.961L-23.9756 631.396C-23.5624 638.446 -17.4263 643.882 -10.3166 643.474L402.465 578.659C405.843 578.461 409.013 576.931 411.305 574.358C413.596 571.785 414.742 568.461 414.547 565.02L349.439 152.6C349.107 146.958 345.105 142.349 339.88 140.949L339.874 140.92ZM335.882 141.801C342.262 141.453 347.767 146.33 348.144 152.711L413.252 565.13C413.435 568.165 412.392 571.153 410.332 573.465C408.272 575.777 405.423 577.166 402.332 577.346L-10.4528 642.174C-16.7986 642.544 -22.3095 637.639 -22.6864 631.258L-87.7913 218.826C-87.9744 215.791 -86.9314 212.803 -84.8714 210.491C-82.8113 208.179 -79.9623 206.79 -76.8715 206.61L335.882 141.801Z" fill="white"/>
<path d="M340.717 142.492C339.512 142.169 338.259 142.021 336.984 142.056L336.927 142.068L-67.8094 190.724C-71.2142 190.82 -74.4394 192.255 -76.8212 194.764C-79.2031 197.272 -80.4624 200.565 -80.3685 204.033L-31.4315 608.475C-31.2303 615.562 -25.246 621.213 -18.1022 621.03L386.704 572.365C393.794 572.181 399.46 566.209 399.263 559.056L350.326 154.614C350.228 151.212 348.789 147.989 346.277 145.608C344.687 144.107 342.79 143.047 340.73 142.495L340.717 142.492ZM337.041 143.349C340.146 143.266 343.098 144.407 345.353 146.544C347.62 148.685 348.916 151.587 348.996 154.701L397.933 559.144C398.015 562.205 396.888 565.157 394.734 567.417C392.593 569.681 389.688 570.973 386.571 571.052L-18.235 619.716C-24.609 619.891 -29.9874 614.792 -30.165 608.371L-79.102 203.929C-79.1871 200.88 -78.0562 197.916 -75.9149 195.652C-73.7737 193.388 -70.8695 192.096 -67.752 192.016L337.025 143.358L337.041 143.349Z" fill="white"/>
<path d="M341.528 144.04C340.448 143.75 339.331 143.599 338.174 143.598L338.123 143.584L-58.6438 176.114C-65.7715 176.087 -71.6491 181.895 -71.6766 189.082L-38.9075 585.534C-38.9342 592.667 -33.0983 598.521 -25.9204 598.561L370.897 566.045C374.325 566.063 377.605 564.723 380.081 562.266C382.553 559.823 383.917 556.544 383.933 553.065L351.164 156.613C351.18 153.188 349.837 149.91 347.377 147.435C345.732 145.785 343.717 144.613 341.519 144.024L341.528 144.04ZM338.202 144.897C341.322 144.912 344.263 146.144 346.469 148.362C348.674 150.58 349.887 153.541 349.882 156.673L382.652 553.125C382.635 556.2 381.404 559.138 379.181 561.353C376.962 563.555 374 564.765 370.865 564.759L-25.9527 597.275C-29.0307 597.257 -31.972 596.026 -34.1904 593.804C-36.3962 591.586 -37.6088 588.625 -37.6042 585.493L-70.3733 189.041C-70.3524 182.632 -65.0583 177.394 -58.5897 177.42L338.199 144.909L338.202 144.897Z" fill="white"/>
<path d="M342.326 145.585C341.384 145.333 340.402 145.177 339.387 145.147L339.337 145.134L-49.4418 161.516C-56.6162 161.261 -62.6997 166.933 -62.9517 174.154L-46.3505 562.616C-46.6016 569.784 -40.9084 575.868 -33.6929 576.12L355.136 559.752C358.591 559.871 361.926 558.626 364.489 556.247C367.052 553.868 368.528 550.619 368.642 547.127L352.041 158.664C352.25 152.507 348.088 147.143 342.335 145.601L342.326 145.585ZM339.362 146.445C345.856 146.679 350.957 152.161 350.739 158.651L367.34 547.114C367.235 550.219 365.903 553.13 363.59 555.28C361.277 557.43 358.272 558.548 355.123 558.444L-33.7059 574.812C-40.1743 574.585 -45.2751 569.104 -45.0539 562.601L-61.6552 174.138C-61.4348 167.689 -55.9474 162.583 -49.438 162.808L339.362 146.445Z" fill="white"/>
<path d="M343.144 147.108C342.315 146.886 341.465 146.739 340.577 146.689L340.539 146.679L-40.2635 146.91C-47.4846 146.427 -53.7706 151.951 -54.2472 159.206L-53.8137 539.678C-54.0448 543.153 -52.8929 546.541 -50.5618 549.196C-48.2308 551.851 -45.021 553.438 -41.4984 553.655L339.342 553.435C346.566 553.905 352.849 548.394 353.326 541.139L352.892 160.666C353.309 154.337 349.097 148.703 343.144 147.108ZM340.527 147.98C347.058 148.426 352.03 154.088 351.612 160.619L352.046 541.092C351.623 547.595 345.945 552.555 339.408 552.134L-41.4327 552.355C-44.555 552.151 -47.455 550.715 -49.5635 548.334C-51.6561 545.945 -52.7061 542.88 -52.4929 539.723L-52.9264 159.25C-52.5033 152.748 -46.8225 147.775 -40.2881 148.208L340.524 147.993L340.527 147.98Z" fill="white"/>
<path d="M343.988 148.626C343.272 148.434 342.539 148.305 341.781 148.223L341.743 148.213L-31.0711 132.296C-34.576 131.962 -38.0219 133.015 -40.7687 135.278C-43.4996 137.532 -45.202 140.72 -45.5319 144.262L-61.2663 516.745C-61.9573 523.996 -56.5928 530.503 -49.2931 531.195L323.559 547.122C330.817 547.816 337.328 542.461 338.016 535.168L353.75 162.686C354.083 159.184 353.027 155.741 350.76 152.996C348.982 150.838 346.626 149.333 343.976 148.623L343.988 148.626ZM341.674 149.526C344.848 149.838 347.725 151.362 349.772 153.82C351.816 156.291 352.77 159.411 352.468 162.597L336.734 535.08C336.111 541.624 330.237 546.464 323.662 545.832L-49.1897 529.905C-55.7365 529.267 -60.5882 523.408 -59.959 516.84L-44.2245 144.357C-43.9201 141.211 -42.3931 138.326 -39.9212 136.285C-37.4493 134.244 -34.3394 133.289 -31.1368 133.596L341.686 149.529L341.674 149.526Z" fill="white"/>
<path d="M344.808 150.136C344.217 149.978 343.604 149.854 342.978 149.781L342.953 149.774L-21.8695 117.697C-25.3978 117.249 -28.9148 118.216 -31.7361 120.405C-34.5573 122.594 -36.3636 125.768 -36.8132 129.305L-68.7247 493.782C-69.6436 501.08 -64.4023 507.796 -57.0845 508.721L307.763 540.805C315.068 541.727 321.784 536.507 322.71 529.184L354.609 164.704C355.055 161.179 354.085 157.665 351.892 154.845C350.08 152.517 347.609 150.887 344.808 150.136ZM342.833 151.073C346.05 151.478 348.887 153.099 350.87 155.647C352.853 158.195 353.724 161.374 353.324 164.575L321.425 529.055C320.6 535.652 314.536 540.347 307.92 539.516L-56.9275 507.432C-63.5185 506.607 -68.2343 500.543 -67.4057 493.934L-35.4942 129.457C-35.101 126.281 -33.4735 123.422 -30.9237 121.443C-28.374 119.463 -25.193 118.595 -21.9888 118.996L342.846 151.077L342.833 151.073Z" fill="white"/>
<path d="M345.62 151.631C345.155 151.507 344.671 151.404 344.181 151.326L-12.6655 103.098C-20.0209 101.961 -26.9489 107.016 -28.0864 114.377L-76.1657 470.864C-77.2998 478.211 -72.2356 485.136 -64.8676 486.276L291.991 534.508C295.546 535.057 299.115 534.198 302.03 532.061C304.945 529.924 306.861 526.793 307.412 523.229L355.491 166.742C356.548 159.884 352.202 153.395 345.633 151.635L345.62 151.631ZM343.999 152.609C350.649 153.665 355.226 159.893 354.198 166.543L306.119 523.031C305.094 529.668 298.834 534.243 292.177 533.213L-64.6822 484.981C-71.3265 483.954 -75.9098 477.696 -74.8819 471.046L-26.8026 114.559C-25.778 107.922 -19.5171 103.346 -12.8602 104.377L343.999 152.609Z" fill="white"/>
<path d="M346.449 153.105C346.097 153.01 345.742 152.929 345.384 152.86L-3.4773 88.4959C-7.0682 87.8296 -10.6956 88.6058 -13.6977 90.6657C-16.6998 92.7255 -18.7195 95.842 -19.3845 99.429L-83.6283 447.914C-84.9903 455.308 -80.0744 462.435 -72.6724 463.799L276.189 528.163C279.767 528.826 283.407 528.053 286.409 525.993C289.411 523.933 291.431 520.817 292.096 517.23L356.34 168.745C357.633 161.709 353.26 154.916 346.452 153.092L346.449 153.105ZM345.148 154.141C351.826 155.393 356.293 161.834 355.053 168.521L290.809 517.006C290.21 520.248 288.391 523.068 285.67 524.935C282.948 526.801 279.663 527.507 276.418 526.907L-72.4434 462.543C-79.1663 461.306 -83.592 454.863 -82.3487 448.163L-18.1049 99.6778C-17.5056 96.4362 -15.6863 93.6157 -12.965 91.7495C-10.2436 89.8833 -6.9614 89.1895 -3.71299 89.7775L345.148 154.141Z" fill="white"/>
</g>
<defs>
<clipPath id="clip0_281_1303">
<rect width="897" height="896" fill="white" transform="matrix(0.965926 0.258819 0.258819 -0.965926 -337 865.47)"/>
</clipPath>
</defs>
</svg>
