<svg id="efLapu4iMX71" xmlns="http://www.w3.org/2000/svg" xmlns:xlink="http://www.w3.org/1999/xlink" viewBox="0 0 595 1099" shape-rendering="geometricPrecision" text-rendering="geometricPrecision" project-id="3dc8c3d332994729b8a77786ff722b70" export-id="d92d31c3f321400fab6805514c8afb17" cached="false" width="595" height="1099">
<style><![CDATA[
#efLapu4iMX74 {animation: efLapu4iMX74_c_o 3742.3312883435588ms linear infinite normal forwards}@keyframes efLapu4iMX74_c_o { 0% {opacity: 1} 4.918033% {opacity: 1} 8.196721% {opacity: 0} 11.47541% {opacity: 1} 100% {opacity: 1}} #efLapu4iMX75 {animation: efLapu4iMX75_c_o 3742.3312883435588ms linear infinite normal forwards}@keyframes efLapu4iMX75_c_o { 0% {opacity: 1} 8.196721% {opacity: 1} 11.47541% {opacity: 0} 14.754098% {opacity: 1} 100% {opacity: 1}} #efLapu4iMX76 {animation: efLapu4iMX76_c_o 3742.3312883435588ms linear infinite normal forwards}@keyframes efLapu4iMX76_c_o { 0% {opacity: 1} 11.47541% {opacity: 1} 14.754098% {opacity: 0} 18.032787% {opacity: 1} 100% {opacity: 1}} #efLapu4iMX77 {animation: efLapu4iMX77_c_o 3742.3312883435588ms linear infinite normal forwards}@keyframes efLapu4iMX77_c_o { 0% {opacity: 1} 14.754098% {opacity: 1} 18.032787% {opacity: 0} 21.311475% {opacity: 1} 100% {opacity: 1}} #efLapu4iMX78 {animation: efLapu4iMX78_c_o 3742.3312883435588ms linear infinite normal forwards}@keyframes efLapu4iMX78_c_o { 0% {opacity: 1} 18.032787% {opacity: 1} 21.311475% {opacity: 0} 24.590164% {opacity: 1} 100% {opacity: 1}} #efLapu4iMX79 {animation: efLapu4iMX79_c_o 3742.3312883435588ms linear infinite normal forwards}@keyframes efLapu4iMX79_c_o { 0% {opacity: 1} 21.311475% {opacity: 1} 24.590164% {opacity: 0} 27.868852% {opacity: 1} 100% {opacity: 1}} #efLapu4iMX710 {animation: efLapu4iMX710_c_o 3742.3312883435588ms linear infinite normal forwards}@keyframes efLapu4iMX710_c_o { 0% {opacity: 1} 24.590164% {opacity: 1} 27.868852% {opacity: 0} 31.147541% {opacity: 1} 100% {opacity: 1}} #efLapu4iMX711 {animation: efLapu4iMX711_c_o 3742.3312883435588ms linear infinite normal forwards}@keyframes efLapu4iMX711_c_o { 0% {opacity: 1} 27.868852% {opacity: 1} 31.147541% {opacity: 0} 34.42623% {opacity: 1} 100% {opacity: 1}} #efLapu4iMX712 {animation: efLapu4iMX712_c_o 3742.3312883435588ms linear infinite normal forwards}@keyframes efLapu4iMX712_c_o { 0% {opacity: 1} 31.147541% {opacity: 1} 34.42623% {opacity: 0} 37.704918% {opacity: 1} 100% {opacity: 1}} #efLapu4iMX713 {animation: efLapu4iMX713_c_o 3742.3312883435588ms linear infinite normal forwards}@keyframes efLapu4iMX713_c_o { 0% {opacity: 1} 34.42623% {opacity: 1} 37.704918% {opacity: 0} 40.983607% {opacity: 1} 100% {opacity: 1}} #efLapu4iMX714 {animation: efLapu4iMX714_c_o 3742.3312883435588ms linear infinite normal forwards}@keyframes efLapu4iMX714_c_o { 0% {opacity: 1} 37.704918% {opacity: 1} 40.983607% {opacity: 0} 44.262295% {opacity: 1} 100% {opacity: 1}} #efLapu4iMX715 {animation: efLapu4iMX715_c_o 3742.3312883435588ms linear infinite normal forwards}@keyframes efLapu4iMX715_c_o { 0% {opacity: 1} 40.983607% {opacity: 1} 44.262295% {opacity: 0} 47.540984% {opacity: 1} 100% {opacity: 1}} #efLapu4iMX716 {animation: efLapu4iMX716_c_o 3742.3312883435588ms linear infinite normal forwards}@keyframes efLapu4iMX716_c_o { 0% {opacity: 1} 44.262295% {opacity: 1} 47.540984% {opacity: 0} 50.819672% {opacity: 1} 100% {opacity: 1}} #efLapu4iMX717 {animation: efLapu4iMX717_c_o 3742.3312883435588ms linear infinite normal forwards}@keyframes efLapu4iMX717_c_o { 0% {opacity: 1} 47.540984% {opacity: 1} 50.819672% {opacity: 0} 54.098361% {opacity: 1} 100% {opacity: 1}} #efLapu4iMX718 {animation: efLapu4iMX718_c_o 3742.3312883435588ms linear infinite normal forwards}@keyframes efLapu4iMX718_c_o { 0% {opacity: 1} 50.819672% {opacity: 1} 54.098361% {opacity: 0} 57.377049% {opacity: 1} 100% {opacity: 1}} #efLapu4iMX719 {animation: efLapu4iMX719_c_o 3742.3312883435588ms linear infinite normal forwards}@keyframes efLapu4iMX719_c_o { 0% {opacity: 1} 54.098361% {opacity: 1} 57.377049% {opacity: 0} 60.655738% {opacity: 1} 100% {opacity: 1}} #efLapu4iMX720 {animation: efLapu4iMX720_c_o 3742.3312883435588ms linear infinite normal forwards}@keyframes efLapu4iMX720_c_o { 0% {opacity: 1} 57.377049% {opacity: 1} 60.655738% {opacity: 0} 63.934426% {opacity: 1} 100% {opacity: 1}} #efLapu4iMX721 {animation: efLapu4iMX721_c_o 3742.3312883435588ms linear infinite normal forwards}@keyframes efLapu4iMX721_c_o { 0% {opacity: 1} 60.655738% {opacity: 1} 63.934426% {opacity: 0} 67.213115% {opacity: 1} 100% {opacity: 1}} #efLapu4iMX722 {animation: efLapu4iMX722_c_o 3742.3312883435588ms linear infinite normal forwards}@keyframes efLapu4iMX722_c_o { 0% {opacity: 1} 63.934426% {opacity: 1} 67.213115% {opacity: 0} 70.491803% {opacity: 1} 100% {opacity: 1}} #efLapu4iMX723 {animation: efLapu4iMX723_c_o 3742.3312883435588ms linear infinite normal forwards}@keyframes efLapu4iMX723_c_o { 0% {opacity: 1} 67.213115% {opacity: 1} 70.491803% {opacity: 0} 73.770492% {opacity: 1} 100% {opacity: 1}} #efLapu4iMX724 {animation: efLapu4iMX724_c_o 3742.3312883435588ms linear infinite normal forwards}@keyframes efLapu4iMX724_c_o { 0% {opacity: 1} 70.491803% {opacity: 1} 73.770492% {opacity: 0} 77.04918% {opacity: 1} 100% {opacity: 1}} #efLapu4iMX725 {animation: efLapu4iMX725_c_o 3742.3312883435588ms linear infinite normal forwards}@keyframes efLapu4iMX725_c_o { 0% {opacity: 1} 73.770492% {opacity: 1} 77.04918% {opacity: 0} 80.327869% {opacity: 1} 100% {opacity: 1}} #efLapu4iMX726 {animation: efLapu4iMX726_c_o 3742.3312883435588ms linear infinite normal forwards}@keyframes efLapu4iMX726_c_o { 0% {opacity: 1} 77.04918% {opacity: 1} 80.327869% {opacity: 0} 83.606557% {opacity: 1} 100% {opacity: 1}} #efLapu4iMX727 {animation: efLapu4iMX727_c_o 3742.3312883435588ms linear infinite normal forwards}@keyframes efLapu4iMX727_c_o { 0% {opacity: 1} 80.327869% {opacity: 1} 83.606557% {opacity: 0} 86.885246% {opacity: 1} 100% {opacity: 1}}
]]></style>
<g transform="translate(-0.001322 0.004954)" clip-path="url(#efLapu4iMX728)"><g opacity="0.1"><path id="efLapu4iMX74" d="M-386.918,433.211c-.906,3.379-.531,7.101,1.354,10.352L-78.5482,976.034c3.755,6.512,12.1235,8.754,18.6315,4.992L472.199,673.413c6.508-3.762,8.753-12.14,4.998-18.652L170.178,122.303c-3.755-6.512-12.124-8.755-18.632-4.993L-380.569,424.923c-3.262,1.886-5.447,4.922-6.349,8.288ZM477.296,664.777c-.817,3.052-2.805,5.804-5.749,7.506L-60.5685,979.896c-5.8875,3.403-13.453,1.376-16.8625-4.519L-384.45,442.919c-3.394-5.904-1.367-13.465,4.523-16.881L152.189,118.425c5.887-3.403,13.453-1.376,16.862,4.518L476.067,655.414c1.698,2.946,2.044,6.323,1.226,9.375l.003-.012Z" fill="#294596"/><path id="efLapu4iMX75" d="M-385.198,432.461c-.899,3.354-.492,6.855,1.163,9.91L-93.1543,966.857c1.7073,3.163,4.5539,5.488,8.0149,6.523s7.1132.654,10.2904-1.066L449.289,680.872c3.174-1.707,5.485-4.561,6.521-8.026c1.039-3.424.657-7.121-1.059-10.3L163.871,138.06c-1.708-3.163-4.554-5.487-8.015-6.522s-7.114-.654-10.291,1.066L-378.576,424.058c-3.174,1.707-5.485,4.561-6.521,8.026-.034.126-.068.251-.101.377Zm2.299,9.286c-1.542-2.877-1.892-6.188-.95-9.302.932-3.129,3.034-5.702,5.899-7.263L146.192,133.727c2.862-1.548,6.167-1.888,9.293-.956c3.125.932,5.695,3.034,7.253,5.902L453.615,663.171c1.546,2.864,1.871,6.168.951,9.301-.933,3.129-3.035,5.703-5.9,7.264L-75.4849,971.174c-2.8624,1.549-6.1672,1.888-9.2928.956-3.1257-.931-5.6956-3.034-7.2536-5.901L-382.912,441.743l.013.004Z" fill="#294596"/><path id="efLapu4iMX76" d="M-383.475,431.698c-.851,3.178-.508,6.514.973,9.469l274.738,516.525c1.594,3.187,4.358,5.57,7.754,6.695c3.3965,1.126,7.031.861,10.2223-.761L426.367,688.327c6.576-3.313,9.251-11.387,5.939-17.996l-274.73-516.51c-3.303-6.593-11.371-9.253-17.975-5.934L-376.564,423.17c-3.184,1.597-5.566,4.365-6.689,7.752-.08.248-.163.509-.231.76l.009.016Zm2.136,8.892c-1.444-2.891-1.681-6.172-.674-9.228c1.01-3.068,3.158-5.562,6.047-7.009L140.198,149.07c5.94-2.999,13.228-.588,16.214,5.382L431.148,670.936c2.99,5.957.581,13.241-5.385,16.233L-90.3918,962.468c-2.8764,1.451-6.1544,1.69-9.2188.68-3.0644-1.009-5.5544-3.158-6.9994-6.049L-381.342,440.602l.003-.012Z" fill="#294596"/><path id="efLapu4iMX77" d="M-381.763,430.931c-.808,3.015-.541,6.183.79,9.043l-.003.013l258.594,508.524c1.483,3.198,4.151,5.636,7.483,6.852s6.94,1.052,10.151-.444L403.455,695.798c3.198-1.499,5.632-4.158,6.849-7.494c1.207-3.352,1.054-6.947-.438-10.16L151.275,169.607c-1.483-3.198-4.151-5.636-7.483-6.852-3.332-1.215-6.939-1.051-10.15.444L-374.549,422.324c-3.198,1.498-5.632,4.158-6.849,7.494-.138.366-.255.752-.356,1.129l-.009-.016Zm1.975,8.486c-1.346-2.905-1.495-6.163-.395-9.166c1.092-3.019,3.294-5.418,6.197-6.767L134.205,164.36c2.874-1.344,6.141-1.491,9.141-.391c3.016,1.09,5.411,3.294,6.757,6.199L408.694,678.705c1.34,2.877,1.489,6.134.385,9.15-1.091,3.019-3.294,5.418-6.197,6.767l-508.19,259.124c-2.875,1.343-6.142,1.491-9.141.391-3.004-1.087-5.411-3.294-6.757-6.199L-379.788,439.417Z" fill="#294596"/><path id="efLapu4iMX78" d="M-380.05,430.165c-.764,2.851-.548,5.857.624,8.608l-.006.025l242.446,500.536c2.854,6.662,10.632,9.755,17.307,6.872L380.534,703.253c6.648-2.876,9.752-10.647,6.876-17.328L144.97,185.364c-1.385-3.211-3.942-5.714-7.225-7.011-3.267-1.306-6.857-1.258-10.095.136L-372.563,421.442c-3.209,1.388-5.711,3.949-7.008,7.236-.198.485-.361.994-.495,1.496l.016-.009Zm1.812,8.092c-2.582-6.023.21-13.029,6.228-15.617L128.203,179.687c2.889-1.245,6.116-1.296,9.067-.115c2.952,1.181,5.267,3.431,6.515,6.35L386.232,686.458c2.576,5.994-.22,13.013-6.238,15.601L-120.21,945.028c-5.99,2.581-13-.213-15.582-6.235l-242.43-500.546-.016.01Z" fill="#294596"/><path id="efLapu4iMX79" d="M-378.36,429.379c-.704,2.625-.608,5.478.464,8.202l.019.032l226.286,492.544c1.274,3.222,3.748,5.783,6.951,7.18s6.766,1.449,10.027.169L357.613,710.709c3.22-1.278,5.78-3.756,7.177-6.962c1.397-3.207,1.452-6.773.175-10.037L138.664,201.122c-1.275-3.223-3.748-5.784-6.951-7.181-3.203-1.396-6.766-1.449-10.027-.169L-370.537,420.557c-3.985,1.571-6.78,4.928-7.817,8.797l-.006.025Zm1.673,7.705c-2.37-6.061.612-12.922,6.658-15.313L122.195,194.986c2.902-1.148,6.103-1.098,8.993.161s5.122,3.567,6.273,6.5l226.317,492.58c1.144,2.904,1.08,6.105-.167,9.002-1.259,2.893-3.566,5.129-6.497,6.282L-135.125,936.306c-2.903,1.147-6.104,1.097-8.994-.162s-5.122-3.567-6.273-6.5l-226.295-492.56Z" fill="#294596"/><path id="efLapu4iMX710" d="M-376.691,428.615c-.683,2.55-.581,5.229.328,7.761l.015.045l210.15,484.559c1.164,3.233,3.539,5.862,6.694,7.339c3.15,1.491,6.683,1.657,9.958.474L334.7,718.18c6.728-2.425,10.24-9.911,7.816-16.673l-210.153-484.6c-2.41-6.717-9.88-10.253-16.652-7.814L-368.539,419.72c-3.23,1.167-5.858,3.546-7.336,6.704-.34.716-.608,1.466-.807,2.207l-.009-.016Zm1.552,7.308c-1.053-2.947-.901-6.124.436-8.956s3.703-4.985,6.648-6.041L116.194,210.3c6.043-2.177,12.776,1,14.963,7.092l210.153,484.6c2.172,6.048-1.006,12.789-7.094,14.981L-150.03,927.587c-2.916,1.049-6.09.899-8.931-.441-2.842-1.341-4.979-3.704-6.031-6.651L-375.136,435.911l-.003.012Z" fill="#294596"/><path id="efLapu4iMX711" d="M-375.001,427.829c-.626,2.337-.61,4.885.196,7.349l.015.045l193.974,476.576c2.182,6.764,9.516,10.506,16.31,8.288L311.778,725.635c3.254-1.054,5.928-3.353,7.506-6.43c1.581-3.09,1.848-6.599.783-9.9L126.065,232.681c-2.181-6.764-9.516-10.506-16.31-8.288L-366.516,418.848c-4.3,1.393-7.385,4.874-8.485,8.981Zm1.413,6.922c-1.966-6.114,1.386-12.701,7.514-14.694L110.198,225.602c6.068-1.969,12.672,1.389,14.647,7.519L318.846,709.745c.953,2.921.697,6.083-.721,8.867-1.419,2.783-3.826,4.844-6.798,5.798L-164.949,918.878c-6.068,1.968-12.671-1.39-14.646-7.519L-373.588,434.751Z" fill="#294596"/><path id="efLapu4iMX712" d="M-373.352,427.046c-.602,2.248-.583,4.636.08,6.928l.015.044l177.836,468.604c.94,3.267,3.137,6.01,6.162,7.668c3.025,1.659,6.509,2.054,9.822,1.084L288.857,733.09c3.265-.943,6.006-3.143,7.665-6.172s2.055-6.517,1.088-9.832L119.747,248.435c-1.958-6.798-9.144-10.743-15.98-8.765L-364.532,417.966c-3.264.943-6.005,3.143-7.664,6.172-.517.925-.903,1.912-1.168,2.905l.012.003Zm1.313,6.544c-.857-2.975-.504-6.098.992-8.821c1.496-2.722,3.962-4.7,6.935-5.559L104.186,240.913c2.929-.844,6.065-.502,8.784.994s4.694,3.964,5.55,6.939L296.393,717.514c.841,2.931.498,6.07-.998,8.792-1.496,2.723-3.962,4.701-6.936,5.56L-179.852,910.159c-2.929.844-6.064.502-8.783-.994s-4.694-3.963-5.55-6.939L-372.03,433.606l-.009-.016Z" fill="#294596"/><path id="efLapu4iMX713" d="M-371.701,426.25c-.555,2.073-.6,4.296-.039,6.519l.012.057l161.7,460.618c.842,3.282,2.928,6.089,5.888,7.838s6.43,2.248,9.754,1.388L265.931,740.557c6.83-1.75,10.986-8.781,9.229-15.674L113.448,264.208c-.829-3.278-2.927-6.089-5.887-7.838-2.961-1.749-6.431-2.248-9.7542-1.388L-362.514,417.107c-4.621,1.185-8.038,4.806-9.203,9.152l.016-.009Zm1.212,6.168c-1.558-6.18,2.176-12.489,8.357-14.077L98.189,256.215c2.943-.746,6.052-.303,8.722,1.274c2.658,1.573,4.55,4.1,5.308,7.09L273.931,725.254c1.556,6.138-2.182,12.46-8.363,14.048L-194.756,901.44c-2.943.747-6.052.304-8.722-1.273-2.658-1.574-4.55-4.1-5.321-7.093L-370.505,432.427l.016-.009Z" fill="#294596"/><path id="efLapu4iMX714" d="M-368.44,424.673c-.485,1.809-.587,3.747-.211,5.706l.012.057l129.389,444.65c.617,3.316,2.524,6.237,5.368,8.17c2.831,1.93,6.244,2.642,9.614,2.011L220.098,755.484c6.898-1.302,11.488-8.042,10.179-15.003L100.864,295.77c-.618-3.315-2.5246-6.236-5.3684-8.169-2.8313-1.93-6.2443-2.643-9.614-2.011L-358.472,415.376c-4.957.934-8.733,4.688-9.968,9.297Zm1.048,5.424c-1.163-6.249,2.97-12.29,9.204-13.473L86.1659,286.837c6.1896-1.168,12.2383,2.957,13.4231,9.224L229.015,740.776c1.164,6.194-2.96,12.251-9.223,13.441L-224.561,884.003c-2.975.563-6.043-.084-8.59-1.817-2.548-1.733-4.265-4.36-4.837-7.394L-367.395,430.109l.003-.012Z" fill="#294596"/><path id="efLapu4iMX715" d="M-370.065,425.464c-.518,1.934-.591,4.014-.129,6.104l.012.057l145.549,452.642c1.521,6.869,8.404,11.245,15.312,9.703L243.022,748.016c3.29-.734,6.154-2.74,7.993-5.64c1.852-2.896,2.453-6.343,1.71-9.692l-145.561-452.7c-.732-3.292-2.734-6.157-5.627-8.009-2.8956-1.84-6.3354-2.452-9.6819-1.706L-360.488,416.223c-4.789,1.059-8.372,4.744-9.573,9.228l-.004.013Zm1.124,5.793c-.661-3.004-.117-6.089,1.547-8.686c1.655-2.612,4.235-4.412,7.24-5.087L92.1896,271.53c2.9606-.661,6.055-.115,8.6484,1.55c2.609,1.654,4.405,4.236,5.078,7.243L251.465,733.019c.646,2.96.11,6.061-1.554,8.658-1.654,2.612-4.234,4.412-7.239,5.087L-209.659,892.722c-6.162,1.364-12.343-2.567-13.727-8.794L-368.941,431.257Z" transform="translate(-2 0)" fill="#294596"/><path id="efLapu4iMX716" d="M-366.839,423.864c-.458,1.708-.561,3.498-.28,5.31l.012.057l113.254,436.665c1.072,6.938,7.651,11.744,14.652,10.658L197.163,762.935c3.324-.509,6.301-2.337,8.334-5.104c2.019-2.77,2.849-6.169,2.318-9.556L94.553,311.54c-1.0726-6.938-7.6516-11.743-14.6528-10.657L-356.476,414.498c-3.324.509-6.301,2.337-8.334,5.104-.954,1.306-1.634,2.739-2.042,4.259l.013.003Zm.994,5.073c-.465-3.033.283-6.077,2.094-8.567c1.823-2.487,4.494-4.127,7.54-4.603L80.1653,302.152c6.2303-.969,12.1306,3.358,13.1104,9.638L206.55,748.528c.463,2.992-.273,6.039-2.096,8.526s-4.494,4.127-7.54,4.603l-436.38,113.628c-6.23.969-12.13-3.358-13.11-9.639L-365.832,428.94l-.013-.003Z" fill="#294596"/><path id="efLapu4iMX717" d="M-365.236,423.055c-.424,1.583-.543,3.233-.332,4.905l.008.07l97.103,428.689c.409,3.341,2.134,6.388,4.836,8.498c2.702,2.111,6.07,3.041,9.478,2.621L174.243,770.39c3.338-.411,6.383-2.14,8.493-4.846c2.11-2.705,3.04-6.078,2.623-9.488L88.248,327.297c-.8482-6.971-7.2755-11.992-14.3106-11.131L-354.462,413.61c-3.337.412-6.382,2.14-8.492,4.846-1.083,1.38-1.85,2.938-2.291,4.583l.009.016Zm.941,4.721c-.364-3.059.469-6.067,2.369-8.492c1.904-2.438,4.631-3.983,7.691-4.361L74.1513,317.476c6.2585-.774,12.0422,3.738,12.8194,10.072L184.088,756.281c.365,3.006-.471,6.026-2.375,8.464s-4.631,3.983-7.691,4.361l-428.389,97.46c-3.003.367-6.02-.469-8.455-2.373s-3.976-4.633-4.352-7.695L-364.283,427.78l-.012-.004Z" fill="#294596"/><path id="efLapu4iMX718" d="M-363.654,422.267c-.384,1.432-.52,2.944-.386,4.501l.008.07l80.958,420.688c.637,7.009,6.912,12.245,13.981,11.608l420.41-81.276c3.361-.298,6.461-1.93,8.664-4.584c2.201-2.642,3.244-5.984,2.928-9.42L81.9459,343.083c-.2955-3.364-1.9251-6.466-4.5752-8.67-2.6376-2.201-5.9881-3.247-9.4059-2.938L-352.444,412.751c-5.473.499-9.863,4.439-11.22,9.501l.01.015Zm.905,4.349c-.556-6.355,4.141-11.989,10.493-12.562L68.1536,332.778c3.017-.269,6.0229.658,8.3964,2.64s3.8321,4.769,4.1229,7.849L161.636,764.038c.267,3.019-.661,6.029-2.642,8.406-1.982,2.376-4.767,3.838-7.841,4.118l-420.425,81.285c-6.299.574-11.938-4.127-12.516-10.502l-80.957-420.741-.004.012Z" fill="#294596"/><path id="efLapu4iMX719" d="M-362.08,421.464c-.35,1.306-.503,2.679-.414,4.103l.008.069l64.807,412.713c.198,3.378,1.729,6.548,4.302,8.839c2.573,2.292,5.896,3.438,9.337,3.243l412.436-65.118c7.049-.413,12.485-6.549,12.078-13.659L75.6582,358.872c-.1975-3.378-1.7283-6.548-4.3013-8.839s-5.8966-3.438-9.3377-3.242L-350.4,411.899c-5.643.332-10.252,4.334-11.652,9.559l-.028.006Zm.88,3.992c-.348-6.38,4.529-11.885,10.91-12.262L62.1295,348.086c3.0343-.184,6.0226.859,8.3348,2.919c2.3123,2.06,3.7005,4.909,3.8809,8L139.173,771.79c.371,6.346-4.535,11.857-10.916,12.234l-412.432,65.105c-3.034.183-6.023-.86-8.335-2.92s-3.7-4.909-3.881-8L-361.2,425.456Z" fill="#294596"/><path id="efLapu4iMX720" d="M-360.509,420.619c-.323,1.206-.471,2.459-.436,3.734l.012.057l48.656,404.736c.096,3.405,1.531,6.63,4.04,9.012c2.508,2.382,5.801,3.641,9.269,3.547l404.442-48.937c7.087-.201,12.738-6.185,12.554-13.329L69.3643,374.633c-.1845-7.09-6.1565-12.756-13.3094-12.559L-348.387,411.011c-3.402.098-6.625,1.537-9.006,4.049-1.501,1.59-2.561,3.487-3.113,5.547l-.003.012Zm.857,3.676c-.083-3.104,1.058-6.057,3.195-8.311c2.141-2.267,5.043-3.563,8.157-3.644L56.1425,363.403c3.061-.081,6.0131,1.046,8.2733,3.2c2.2637,2.141,3.5564,5.045,3.6355,8.163L116.715,779.572c.175,6.374-4.924,11.752-11.345,11.93l-404.442,48.937c-3.049.085-6.014-1.046-8.277-3.187-2.264-2.142-3.557-5.046-3.636-8.163l-48.658-404.778-.009-.016Z" fill="#294596"/><path id="efLapu4iMX721" d="M-358.96,419.809c-.29,1.08-.441,2.198-.442,3.355l-.014.05l32.53,396.767c-.027,7.128,5.781,13.006,12.968,13.033L82.534,800.245c7.1334.027,12.9868-5.809,13.0275-12.987L63.0451,390.441c.0176-3.429-1.3222-6.709-3.7786-9.184-2.4439-2.473-5.7229-3.836-9.2013-3.853l-396.4522,32.77c-3.425-.016-6.703,1.327-9.178,3.787-1.65,1.644-2.822,3.659-3.411,5.857l.016-.009Zm.857,3.326c.015-3.119,1.247-6.06,3.465-8.266s5.179-3.418,8.311-3.414L50.1252,378.686c3.0751.016,6.0129,1.248,8.2279,3.47c2.2024,2.219,3.4121,5.182,3.4059,8.317L94.2753,787.29c-.0179,3.078-1.2497,6.02-3.4713,8.238-2.2181,2.206-5.1787,3.418-8.3107,3.414L-313.959,831.711c-6.409-.021-11.647-5.315-11.621-11.784l-32.511-396.788-.012-.004Z" fill="#294596"/><path id="efLapu4iMX722" d="M-357.417,419.012c-.252.942-.407,1.923-.437,2.938l-.014.051l16.382,388.778c-.255,7.175,5.417,13.258,12.638,13.51L59.6144,807.688c7.1674.251,13.2515-5.442,13.504-12.658L56.7498,406.201c.1189-3.454-1.1255-6.79-3.5048-9.353-2.3793-2.562-5.6279-4.039-9.1204-4.153L-344.338,409.296c-6.157-.209-11.521,3.954-13.063,9.706l-.016.01Zm.86,2.963c.234-6.494,5.716-11.594,12.206-11.376L44.1118,393.997c3.105.105,6.0159,1.437,8.1663,3.75s3.2681,5.318,3.1638,8.467L71.8105,795.043c-.2271,6.469-5.7087,11.569-12.2117,11.348L-328.864,822.992c-6.449-.22-11.555-5.707-11.33-12.217l-16.363-388.8Z" fill="#294596"/><path id="efLapu4iMX723" d="M-355.893,418.195c-.222.829-.369,1.678-.419,2.566l-.01.038.231,380.803c-.482,7.221,5.041,13.507,12.296,13.983l380.4725-.433c3.4748.231,6.8629-.921,9.518-3.252s4.2414-5.541,4.4591-9.063l-.2208-380.841c.4701-7.224-5.0408-13.507-12.2956-13.983l-380.4732.433c-6.329-.417-11.962,3.795-13.558,9.749Zm.872,2.616c.446-6.531,6.108-11.502,12.639-11.085l380.4731-.434c6.5027.424,11.463,6.101,11.0425,12.639l.2208,380.84c-.2046,3.122-1.6406,6.022-4.0209,8.131-2.3896,2.092-5.4545,3.142-8.6113,2.929l-380.4732.434c-6.502-.423-11.475-6.104-11.042-12.639l-.215-380.811-.013-.004Z" fill="#294596"/><path id="efLapu4iMX724" d="M-354.375,417.349c-.192.716-.321,1.449-.403,2.208l-.01.037-15.917,372.814c-.334,3.505.719,6.951,2.982,9.698c2.254,2.731,5.442,4.433,8.984,4.763L13.7439,822.604c7.2512.691,13.7583-4.674,14.4502-11.973l15.927-372.852c.6943-7.259-4.6614-13.769-11.9536-14.458L-340.315,407.587c-3.502-.332-6.945.724-9.69,2.99-2.158,1.778-3.663,4.135-4.373,6.785l.003-.013Zm.9,2.314c.312-3.174,1.836-6.05,4.294-8.097c2.471-2.044,5.591-2.999,8.778-2.697L32.0794,424.604c6.5434.622,11.3838,6.496,10.7515,13.071L26.9039,810.527c-.6381,6.547-6.4967,11.399-13.0652,10.769L-358.644,805.562c-3.146-.304-6.031-1.832-8.072-4.303-2.04-2.472-2.996-5.582-2.689-8.785l15.933-372.823-.003.012Z" fill="#294596"/><path id="efLapu4iMX725" d="M-352.866,416.529c-.158.59-.282,1.203-.355,1.83l-.007.025-32.077,364.822c-.448,3.528.519,7.045,2.708,9.867c2.189,2.821,5.363,4.627,8.9,5.077L-9.22004,830.061c7.29774.919,14.01377-4.322,14.93914-11.64l32.084-364.847c.922-7.306-4.2979-14.022-11.6207-14.947L-338.298,406.728c-3.525-.447-7.039.523-9.859,2.716-2.328,1.813-3.958,4.284-4.709,7.085Zm.937,1.974c.405-3.217,2.026-6.054,4.574-8.036c2.549-1.983,5.727-2.855,8.928-2.455L26.0533,439.911c6.5967.826,11.292,6.89,10.4606,13.506L4.42989,818.264c-.82473,6.591-6.88902,11.307-13.49823,10.478L-373.545,796.831c-3.176-.393-6.035-2.021-8.014-4.571-1.98-2.549-2.848-5.73-2.447-8.935l32.081-364.834-.004.012Z" fill="#294596"/><path id="efLapu4iMX726" d="M-351.371,415.718c-.124.465-.227.949-.305,1.439l-48.228,356.847c-1.137,7.355,3.918,14.283,11.279,15.421l356.4868,48.079c7.3476,1.134,14.2718-3.93,15.4123-11.298L31.5058,469.347c.5492-3.555-.3099-7.124-2.4469-10.039s-5.2678-4.831-8.8316-5.382L-336.26,405.847c-6.857-1.057-13.347,3.289-15.107,9.858l-.004.013Zm.978,1.622c1.056-6.651,7.285-11.228,13.934-10.2L20.0287,455.219c6.6374,1.025,11.2128,7.286,10.1821,13.943L-18.021,826.02c-1.0273,6.645-7.2847,11.228-13.9346,10.2L-388.443,788.141c-6.637-1.025-11.213-7.286-10.182-13.943l48.232-356.858Z" fill="#294596"/><path id="efLapu4iMX727" d="M-349.897,414.888c-.095.351-.176.706-.245,1.065l-64.364,348.861c-.666,3.591.11,7.218,2.17,10.22s5.176,5.022,8.763,5.687l348.485,64.244c7.3942,1.362,14.5206-3.554,15.8854-10.956L25.1611,485.148c.6629-3.578-.1099-7.218-2.1698-10.221-2.0598-3.002-5.1763-5.021-8.7634-5.686L-334.257,404.997c-7.036-1.293-13.829,3.079-15.653,9.887l.013.004Zm1.036,1.3c1.252-6.678,7.693-11.145,14.38-9.905L14.0043,470.527c3.2416.599,6.0621,2.419,7.9283,5.14s2.5725,6.007,1.972,9.252L-40.4591,833.78c-1.2366,6.723-7.6803,11.148-14.3801,9.905L-403.324,779.441c-3.242-.599-6.062-2.418-7.928-5.14-1.867-2.721-2.56-6.003-1.972-9.252l64.363-348.861Z" fill="#294596"/></g><clipPath id="efLapu4iMX728"><rect width="897" height="896" rx="0" ry="0" transform="matrix(0.258819 -0.965926 -0.965926 -0.258819 362.469 1098.34)" fill="#fff"/></clipPath></g></svg>
