<svg width="595" height="1099" viewBox="0 0 595 1099" fill="none" xmlns="http://www.w3.org/2000/svg">
<g opacity="0.1" clip-path="url(#clip0_281_1062)">
<path d="M-386.918 433.211C-387.824 436.59 -387.449 440.312 -385.564 443.563L-78.5482 976.034C-74.7932 982.546 -66.4247 984.788 -59.9167 981.026L472.199 673.413C478.707 669.651 480.952 661.273 477.197 654.761L170.178 122.303C166.423 115.791 158.054 113.548 151.546 117.31L-380.569 424.923C-383.831 426.809 -386.016 429.845 -386.918 433.211ZM477.296 664.777C476.479 667.829 474.491 670.581 471.547 672.283L-60.5685 979.896C-66.456 983.299 -74.0215 981.272 -77.431 975.377L-384.45 442.919C-387.844 437.015 -385.817 429.454 -379.927 426.038L152.189 118.425C158.076 115.022 165.642 117.049 169.051 122.943L476.067 655.414C477.765 658.36 478.111 661.737 477.293 664.789L477.296 664.777Z" fill="#294596"/>
<path d="M-385.198 432.461C-386.097 435.815 -385.69 439.316 -384.035 442.371L-93.1543 966.857C-91.447 970.02 -88.6004 972.345 -85.1394 973.38C-81.6784 974.415 -78.0262 974.034 -74.849 972.314L449.289 680.872C452.463 679.165 454.774 676.311 455.81 672.846C456.849 669.422 456.467 665.725 454.751 662.546L163.871 138.06C162.163 134.897 159.317 132.573 155.856 131.538C152.395 130.503 148.742 130.884 145.565 132.604L-378.576 424.058C-381.75 425.765 -384.061 428.619 -385.097 432.084C-385.131 432.21 -385.165 432.335 -385.198 432.461ZM-382.899 441.747C-384.441 438.87 -384.791 435.559 -383.849 432.445C-382.917 429.316 -380.815 426.743 -377.95 425.182L146.192 133.727C149.054 132.179 152.359 131.839 155.485 132.771C158.61 133.703 161.18 135.805 162.738 138.673L453.615 663.171C455.161 666.035 455.486 669.339 454.566 672.472C453.633 675.601 451.531 678.175 448.666 679.736L-75.4849 971.174C-78.3473 972.723 -81.6521 973.062 -84.7777 972.13C-87.9034 971.199 -90.4733 969.096 -92.0313 966.229L-382.912 441.743L-382.899 441.747Z" fill="#294596"/>
<path d="M-383.475 431.698C-384.326 434.876 -383.983 438.212 -382.502 441.167L-107.764 957.692C-106.17 960.879 -103.406 963.262 -100.01 964.387C-96.6135 965.513 -92.979 965.248 -89.7877 963.626L426.367 688.327C432.943 685.014 435.618 676.94 432.306 670.331L157.576 153.821C154.273 147.228 146.205 144.568 139.601 147.887L-376.564 423.17C-379.748 424.767 -382.13 427.535 -383.253 430.922C-383.333 431.17 -383.416 431.431 -383.484 431.682L-383.475 431.698ZM-381.339 440.59C-382.783 437.699 -383.02 434.418 -382.013 431.362C-381.003 428.294 -378.855 425.8 -375.966 424.353L140.198 149.07C146.138 146.071 153.426 148.482 156.412 154.452L431.148 670.936C434.138 676.893 431.729 684.177 425.763 687.169L-90.3918 962.468C-93.2682 963.919 -96.5462 964.158 -99.6106 963.148C-102.675 962.139 -105.165 959.99 -106.61 957.099L-381.342 440.602L-381.339 440.59Z" fill="#294596"/>
<path d="M-381.763 430.931C-382.571 433.946 -382.304 437.114 -380.973 439.974L-380.976 439.987L-122.382 948.511C-120.899 951.709 -118.231 954.147 -114.899 955.363C-111.567 956.579 -107.959 956.415 -104.748 954.919L403.455 695.798C406.653 694.299 409.087 691.64 410.304 688.304C411.511 684.952 411.358 681.357 409.866 678.144L151.275 169.607C149.792 166.409 147.124 163.971 143.792 162.755C140.46 161.54 136.853 161.704 133.642 163.199L-374.549 422.324C-377.747 423.822 -380.181 426.482 -381.398 429.818C-381.536 430.184 -381.653 430.57 -381.754 430.947L-381.763 430.931ZM-379.788 439.417C-381.134 436.512 -381.283 433.254 -380.183 430.251C-379.091 427.232 -376.889 424.833 -373.986 423.484L134.205 164.36C137.079 163.016 140.346 162.869 143.346 163.969C146.362 165.059 148.757 167.263 150.103 170.168L408.694 678.705C410.034 681.582 410.183 684.839 409.079 687.855C407.988 690.874 405.785 693.273 402.882 694.622L-105.308 953.746C-108.183 955.089 -111.45 955.237 -114.449 954.137C-117.453 953.05 -119.86 950.843 -121.206 947.938L-379.788 439.417Z" fill="#294596"/>
<path d="M-380.05 430.165C-380.814 433.016 -380.598 436.022 -379.426 438.773L-379.432 438.798L-136.986 939.334C-134.132 945.996 -126.354 949.089 -119.679 946.206L380.534 703.253C387.182 700.377 390.286 692.606 387.41 685.925L144.97 185.364C143.585 182.153 141.028 179.65 137.745 178.353C134.478 177.047 130.888 177.095 127.65 178.489L-372.563 421.442C-375.772 422.83 -378.274 425.391 -379.571 428.678C-379.769 429.163 -379.932 429.672 -380.066 430.174L-380.05 430.165ZM-378.238 438.257C-380.82 432.234 -378.028 425.228 -372.01 422.64L128.203 179.687C131.092 178.442 134.319 178.391 137.27 179.572C140.222 180.753 142.537 183.003 143.785 185.922L386.232 686.458C388.808 692.452 386.012 699.471 379.994 702.059L-120.21 945.028C-126.2 947.609 -133.21 944.815 -135.792 938.793L-378.222 438.247L-378.238 438.257Z" fill="#294596"/>
<path d="M-378.36 429.379C-379.064 432.004 -378.968 434.857 -377.896 437.581L-377.877 437.613L-151.591 930.157C-150.317 933.379 -147.843 935.94 -144.64 937.337C-141.437 938.734 -137.874 938.786 -134.613 937.506L357.613 710.709C360.833 709.431 363.393 706.953 364.79 703.747C366.187 700.54 366.242 696.974 364.965 693.71L138.664 201.122C137.389 197.899 134.916 195.338 131.713 193.941C128.51 192.545 124.947 192.492 121.686 193.772L-370.537 420.557C-374.522 422.128 -377.317 425.485 -378.354 429.354L-378.36 429.379ZM-376.687 437.084C-379.057 431.023 -376.075 424.162 -370.029 421.771L122.195 194.986C125.097 193.838 128.298 193.888 131.188 195.147C134.078 196.406 136.31 198.714 137.461 201.647L363.778 694.227C364.922 697.131 364.858 700.332 363.611 703.229C362.352 706.122 360.045 708.358 357.114 709.511L-135.125 936.306C-138.028 937.453 -141.229 937.403 -144.119 936.144C-147.009 934.885 -149.241 932.577 -150.392 929.644L-376.687 437.084Z" fill="#294596"/>
<path d="M-376.691 428.615C-377.374 431.165 -377.272 433.844 -376.363 436.376L-376.348 436.421L-166.198 920.98C-165.034 924.213 -162.659 926.842 -159.504 928.319C-156.354 929.81 -152.821 929.976 -149.546 928.793L334.7 718.18C341.428 715.755 344.94 708.269 342.516 701.507L132.363 216.907C129.953 210.19 122.483 206.654 115.711 209.093L-368.539 419.72C-371.769 420.887 -374.397 423.266 -375.875 426.424C-376.215 427.14 -376.483 427.89 -376.682 428.631L-376.691 428.615ZM-375.139 435.923C-376.192 432.976 -376.04 429.799 -374.703 426.967C-373.366 424.135 -371 421.982 -368.055 420.926L116.194 210.3C122.237 208.123 128.97 211.3 131.157 217.392L341.31 701.992C343.482 708.04 340.304 714.781 334.216 716.973L-150.03 927.587C-152.946 928.636 -156.12 928.486 -158.961 927.146C-161.803 925.805 -163.94 923.442 -164.992 920.495L-375.136 435.911L-375.139 435.923Z" fill="#294596"/>
<path d="M-375.001 427.829C-375.627 430.166 -375.611 432.714 -374.805 435.178L-374.79 435.223L-180.816 911.799C-178.634 918.563 -171.3 922.305 -164.506 920.087L311.778 725.635C315.032 724.581 317.706 722.282 319.284 719.205C320.865 716.115 321.132 712.606 320.067 709.305L126.065 232.681C123.884 225.917 116.549 222.175 109.755 224.393L-366.516 418.848C-370.816 420.241 -373.901 423.722 -375.001 427.829ZM-373.588 434.751C-375.554 428.637 -372.202 422.05 -366.074 420.057L110.198 225.602C116.266 223.633 122.87 226.991 124.845 233.121L318.846 709.745C319.799 712.666 319.543 715.828 318.125 718.612C316.706 721.395 314.299 723.456 311.327 724.41L-164.949 918.878C-171.017 920.846 -177.62 917.488 -179.595 911.359L-373.588 434.751Z" fill="#294596"/>
<path d="M-373.352 427.046C-373.954 429.294 -373.935 431.682 -373.272 433.974L-373.257 434.018L-195.421 902.622C-194.481 905.889 -192.284 908.632 -189.259 910.29C-186.234 911.949 -182.75 912.344 -179.437 911.374L288.857 733.09C292.122 732.147 294.863 729.947 296.522 726.918C298.181 723.889 298.577 720.401 297.61 717.086L119.747 248.435C117.789 241.637 110.603 237.692 103.767 239.67L-364.532 417.966C-367.796 418.909 -370.537 421.109 -372.196 424.138C-372.713 425.063 -373.099 426.05 -373.364 427.043L-373.352 427.046ZM-372.039 433.59C-372.896 430.615 -372.543 427.492 -371.047 424.769C-369.551 422.047 -367.085 420.069 -364.112 419.21L104.186 240.913C107.115 240.069 110.251 240.411 112.97 241.907C115.689 243.403 117.664 245.871 118.52 248.846L296.393 717.514C297.234 720.445 296.891 723.584 295.395 726.306C293.899 729.029 291.433 731.007 288.459 731.866L-179.852 910.159C-182.781 911.003 -185.916 910.661 -188.635 909.165C-191.354 907.669 -193.329 905.202 -194.185 902.226L-372.03 433.606L-372.039 433.59Z" fill="#294596"/>
<path d="M-371.701 426.25C-372.256 428.323 -372.301 430.546 -371.74 432.769L-371.728 432.826L-210.028 893.444C-209.186 896.726 -207.1 899.533 -204.14 901.282C-201.18 903.031 -197.71 903.53 -194.386 902.67L265.931 740.557C272.761 738.807 276.917 731.776 275.16 724.883L113.448 264.208C112.619 260.93 110.521 258.119 107.561 256.37C104.6 254.621 101.13 254.122 97.8068 254.982L-362.514 417.107C-367.135 418.292 -370.552 421.913 -371.717 426.259L-371.701 426.25ZM-370.489 432.418C-372.047 426.238 -368.313 419.929 -362.132 418.341L98.189 256.215C101.132 255.469 104.241 255.912 106.911 257.489C109.569 259.062 111.461 261.589 112.219 264.579L273.931 725.254C275.487 731.392 271.749 737.714 265.568 739.302L-194.756 901.44C-197.699 902.187 -200.808 901.744 -203.478 900.167C-206.136 898.593 -208.028 896.067 -208.799 893.074L-370.505 432.427L-370.489 432.418Z" fill="#294596"/>
<path d="M-370.065 425.464C-370.583 427.398 -370.656 429.478 -370.194 431.568L-370.182 431.625L-224.633 884.267C-223.112 891.136 -216.229 895.512 -209.321 893.97L243.022 748.016C246.312 747.282 249.176 745.276 251.015 742.376C252.867 739.48 253.468 736.033 252.725 732.684L107.164 279.984C106.432 276.692 104.43 273.827 101.537 271.975C98.6414 270.135 95.2016 269.523 91.8551 270.269L-360.488 416.223C-365.277 417.282 -368.86 420.967 -370.061 425.451L-370.065 425.464ZM-368.941 431.257C-369.602 428.253 -369.058 425.168 -367.394 422.571C-365.739 419.959 -363.159 418.159 -360.154 417.484L92.1896 271.53C95.1502 270.869 98.2446 271.415 100.838 273.08C103.447 274.734 105.243 277.316 105.916 280.323L251.465 733.019C252.111 735.979 251.575 739.08 249.911 741.677C248.257 744.289 245.677 746.089 242.672 746.764L-209.659 892.722C-215.821 894.086 -222.002 890.155 -223.386 883.928L-368.941 431.257Z" fill="#294596"/>
<path d="M-368.44 424.673C-368.925 426.482 -369.027 428.42 -368.651 430.379L-368.639 430.436L-239.25 875.086C-238.633 878.402 -236.726 881.323 -233.882 883.256C-231.051 885.186 -227.638 885.898 -224.268 885.267L220.098 755.484C226.996 754.182 231.586 747.442 230.277 740.481L100.864 295.77C100.246 292.455 98.3394 289.534 95.4956 287.601C92.6643 285.671 89.2513 284.958 85.8816 285.59L-358.472 415.376C-363.429 416.31 -367.205 420.064 -368.44 424.673ZM-367.392 430.097C-368.555 423.848 -364.422 417.807 -358.188 416.624L86.1659 286.837C92.3555 285.669 98.4042 289.794 99.589 296.061L229.015 740.776C230.179 746.97 226.055 753.027 219.792 754.217L-224.561 884.003C-227.536 884.566 -230.604 883.919 -233.151 882.186C-235.699 880.453 -237.416 877.826 -237.988 874.792L-367.395 430.109L-367.392 430.097Z" fill="#294596"/>
<path d="M-366.839 423.864C-367.297 425.572 -367.4 427.362 -367.119 429.174L-367.107 429.231L-253.853 865.896C-252.781 872.834 -246.202 877.64 -239.201 876.554L197.163 762.935C200.487 762.426 203.464 760.598 205.497 757.831C207.516 755.061 208.346 751.662 207.815 748.275L94.553 311.54C93.4804 304.602 86.9014 299.797 79.9002 300.883L-356.476 414.498C-359.8 415.007 -362.777 416.835 -364.81 419.602C-365.764 420.908 -366.444 422.341 -366.852 423.861L-366.839 423.864ZM-365.845 428.937C-366.31 425.904 -365.562 422.86 -363.751 420.37C-361.928 417.883 -359.257 416.243 -356.211 415.767L80.1653 302.152C86.3956 301.183 92.2959 305.51 93.2757 311.79L206.55 748.528C207.013 751.52 206.277 754.567 204.454 757.054C202.631 759.541 199.96 761.181 196.914 761.657L-239.466 875.285C-245.696 876.254 -251.596 871.927 -252.576 865.646L-365.832 428.94L-365.845 428.937Z" fill="#294596"/>
<path d="M-365.236 423.055C-365.66 424.638 -365.779 426.288 -365.568 427.96L-365.56 428.03L-268.457 856.719C-268.048 860.06 -266.323 863.107 -263.621 865.217C-260.919 867.328 -257.551 868.258 -254.143 867.838L174.243 770.39C177.581 769.979 180.626 768.25 182.736 765.544C184.846 762.839 185.776 759.466 185.359 756.056L88.248 327.297C87.3998 320.326 80.9725 315.305 73.9374 316.166L-354.462 413.61C-357.799 414.022 -360.844 415.75 -362.954 418.456C-364.037 419.836 -364.804 421.394 -365.245 423.039L-365.236 423.055ZM-364.295 427.776C-364.659 424.717 -363.826 421.709 -361.926 419.284C-360.022 416.846 -357.295 415.301 -354.235 414.923L74.1513 317.476C80.4098 316.702 86.1935 321.214 86.9707 327.548L184.088 756.281C184.453 759.287 183.617 762.307 181.713 764.745C179.809 767.183 177.082 768.728 174.022 769.106L-254.367 866.566C-257.37 866.933 -260.387 866.097 -262.822 864.193C-265.257 862.289 -266.798 859.56 -267.174 856.498L-364.283 427.78L-364.295 427.776Z" fill="#294596"/>
<path d="M-363.654 422.267C-364.038 423.699 -364.174 425.211 -364.04 426.768L-364.032 426.838L-283.074 847.526C-282.437 854.535 -276.162 859.771 -269.093 859.134L151.317 777.858C154.678 777.56 157.778 775.928 159.981 773.274C162.182 770.632 163.225 767.29 162.909 763.854L81.9459 343.083C81.6504 339.719 80.0208 336.617 77.3707 334.413C74.7331 332.212 71.3826 331.166 67.9648 331.475L-352.444 412.751C-357.917 413.25 -362.307 417.19 -363.664 422.252L-363.654 422.267ZM-362.749 426.616C-363.305 420.261 -358.608 414.627 -352.256 414.054L68.1536 332.778C71.1706 332.509 74.1765 333.436 76.55 335.418C78.9235 337.4 80.3821 340.187 80.6729 343.267L161.636 764.038C161.903 767.057 160.975 770.067 158.994 772.444C157.012 774.82 154.227 776.282 151.153 776.562L-269.272 857.847C-275.571 858.421 -281.21 853.72 -281.788 847.345L-362.745 426.604L-362.749 426.616Z" fill="#294596"/>
<path d="M-362.08 421.464C-362.43 422.77 -362.583 424.143 -362.494 425.567L-362.486 425.636L-297.679 838.349C-297.481 841.727 -295.95 844.897 -293.377 847.188C-290.804 849.48 -287.481 850.626 -284.04 850.431L128.396 785.313C135.445 784.9 140.881 778.764 140.474 771.654L75.6582 358.872C75.4607 355.494 73.9299 352.324 71.3569 350.033C68.7839 347.742 65.4603 346.595 62.0192 346.791L-350.4 411.899C-356.043 412.231 -360.652 416.233 -362.052 421.458L-362.08 421.464ZM-361.2 425.456C-361.548 419.076 -356.671 413.571 -350.29 413.194L62.1295 348.086C65.1638 347.902 68.1521 348.945 70.4643 351.005C72.7766 353.065 74.1648 355.914 74.3452 359.005L139.173 771.79C139.544 778.136 134.638 783.647 128.257 784.024L-284.175 849.129C-287.209 849.312 -290.198 848.269 -292.51 846.209C-294.822 844.149 -296.21 841.3 -296.391 838.209L-361.2 425.456Z" fill="#294596"/>
<path d="M-360.509 420.619C-360.832 421.825 -360.98 423.078 -360.945 424.353L-360.933 424.41L-312.277 829.146C-312.181 832.551 -310.746 835.776 -308.237 838.158C-305.729 840.54 -302.436 841.799 -298.968 841.705L105.474 792.768C112.561 792.567 118.212 786.583 118.028 779.439L69.3643 374.633C69.1798 367.543 63.2078 361.877 56.0549 362.074L-348.387 411.011C-351.789 411.109 -355.012 412.548 -357.393 415.06C-358.894 416.65 -359.954 418.547 -360.506 420.607L-360.509 420.619ZM-359.652 424.295C-359.735 421.191 -358.594 418.238 -356.457 415.984C-354.316 413.717 -351.414 412.421 -348.3 412.34L56.1425 363.403C59.2035 363.322 62.1556 364.449 64.4158 366.603C66.6795 368.744 67.9722 371.648 68.0513 374.766L116.715 779.572C116.89 785.946 111.791 791.324 105.37 791.502L-299.072 840.439C-302.121 840.524 -305.086 839.393 -307.349 837.252C-309.613 835.11 -310.906 832.206 -310.985 829.089L-359.643 424.311L-359.652 424.295Z" fill="#294596"/>
<path d="M-358.96 419.809C-359.25 420.889 -359.401 422.007 -359.402 423.164L-359.416 423.214L-326.886 819.981C-326.913 827.109 -321.105 832.987 -313.918 833.014L82.534 800.245C89.6674 800.272 95.5208 794.436 95.5615 787.258L63.0451 390.441C63.0627 387.012 61.7229 383.732 59.2665 381.257C56.8226 378.784 53.5436 377.421 50.0652 377.404L-346.387 410.174C-349.812 410.158 -353.09 411.501 -355.565 413.961C-357.215 415.605 -358.387 417.62 -358.976 419.818L-358.96 419.809ZM-358.103 423.135C-358.088 420.016 -356.856 417.075 -354.638 414.869C-352.42 412.663 -349.459 411.451 -346.327 411.455L50.1252 378.686C53.2003 378.702 56.1381 379.934 58.3531 382.156C60.5555 384.375 61.7652 387.338 61.759 390.473L94.2753 787.29C94.2574 790.368 93.0256 793.31 90.804 795.528C88.5859 797.734 85.6253 798.946 82.4933 798.942L-313.959 831.711C-320.368 831.69 -325.606 826.396 -325.58 819.927L-358.091 423.139L-358.103 423.135Z" fill="#294596"/>
<path d="M-357.417 419.012C-357.669 419.954 -357.824 420.935 -357.854 421.95L-357.868 422.001L-341.486 810.779C-341.741 817.954 -336.069 824.037 -328.848 824.289L59.6144 807.688C66.7818 807.939 72.8659 802.246 73.1184 795.03L56.7498 406.201C56.8687 402.747 55.6243 399.411 53.245 396.848C50.8657 394.286 47.6171 392.809 44.1246 392.695L-344.338 409.296C-350.495 409.087 -355.859 413.25 -357.401 419.002L-357.417 419.012ZM-356.557 421.975C-356.323 415.481 -350.841 410.381 -344.351 410.599L44.1118 393.997C47.2168 394.102 50.1277 395.434 52.2781 397.747C54.4285 400.06 55.5462 403.065 55.4419 406.214L71.8105 795.043C71.5834 801.512 66.1018 806.612 59.5988 806.391L-328.864 822.992C-335.313 822.772 -340.419 817.285 -340.194 810.775L-356.557 421.975Z" fill="#294596"/>
<path d="M-355.893 418.195C-356.115 419.024 -356.262 419.873 -356.312 420.761L-356.322 420.799L-356.091 801.602C-356.573 808.823 -351.05 815.109 -343.795 815.585L36.6775 815.152C40.1523 815.383 43.5404 814.231 46.1955 811.9C48.8507 809.569 50.4369 806.359 50.6546 802.837L50.4338 421.996C50.9039 414.772 45.393 408.489 38.1382 408.013L-342.335 408.446C-348.664 408.029 -354.297 412.241 -355.893 418.195ZM-355.021 420.811C-354.575 414.28 -348.913 409.309 -342.382 409.726L38.0911 409.292C44.5938 409.716 49.5541 415.393 49.1336 421.931L49.3544 802.771C49.1498 805.893 47.7138 808.793 45.3335 810.902C42.9439 812.994 39.879 814.044 36.7222 813.831L-343.751 814.265C-350.253 813.842 -355.226 808.161 -354.793 801.626L-355.008 420.815L-355.021 420.811Z" fill="#294596"/>
<path d="M-354.375 417.349C-354.567 418.065 -354.696 418.798 -354.778 419.557L-354.788 419.594L-370.705 792.408C-371.039 795.913 -369.986 799.359 -367.723 802.106C-365.469 804.837 -362.281 806.539 -358.739 806.869L13.7439 822.604C20.9951 823.295 27.5022 817.93 28.1941 810.631L44.1211 437.779C44.8154 430.52 39.4597 424.01 32.1675 423.321L-340.315 407.587C-343.817 407.255 -347.26 408.311 -350.005 410.577C-352.163 412.355 -353.668 414.712 -354.378 417.362L-354.375 417.349ZM-353.475 419.663C-353.163 416.489 -351.639 413.613 -349.181 411.566C-346.71 409.522 -343.59 408.567 -340.403 408.869L32.0794 424.604C38.6228 425.226 43.4632 431.1 42.8309 437.675L26.9039 810.527C26.2658 817.074 20.4072 821.926 13.8387 821.296L-358.644 805.562C-361.79 805.258 -364.675 803.73 -366.716 801.259C-368.756 798.787 -369.712 795.677 -369.405 792.474L-353.472 419.651L-353.475 419.663Z" fill="#294596"/>
<path d="M-352.866 416.529C-353.024 417.119 -353.148 417.732 -353.221 418.359L-353.228 418.384L-385.305 783.206C-385.753 786.734 -384.786 790.251 -382.597 793.073C-380.408 795.894 -377.234 797.7 -373.697 798.15L-9.22004 830.061C-1.9223 830.98 4.79373 825.739 5.7191 818.421L37.8031 453.574C38.7251 446.268 33.5052 439.552 26.1824 438.627L-338.298 406.728C-341.823 406.281 -345.337 407.251 -348.157 409.444C-350.485 411.257 -352.115 413.728 -352.866 416.529ZM-351.929 418.503C-351.524 415.286 -349.903 412.449 -347.355 410.467C-344.806 408.484 -341.628 407.612 -338.427 408.012L26.0533 439.911C32.65 440.737 37.3453 446.801 36.5139 453.417L4.42989 818.264C3.60516 824.855 -2.45913 829.571 -9.06834 828.742L-373.545 796.831C-376.721 796.438 -379.58 794.81 -381.559 792.26C-383.539 789.711 -384.407 786.53 -384.006 783.325L-351.925 418.491L-351.929 418.503Z" fill="#294596"/>
<path d="M-351.371 415.718C-351.495 416.183 -351.598 416.667 -351.676 417.157L-399.904 774.004C-401.041 781.359 -395.986 788.287 -388.625 789.425L-32.1382 837.504C-24.7906 838.638 -17.8664 833.574 -16.7259 826.206L31.5058 469.347C32.055 465.792 31.1959 462.223 29.0589 459.308C26.9219 456.393 23.7911 454.477 20.2273 453.926L-336.26 405.847C-343.117 404.79 -349.607 409.136 -351.367 415.705L-351.371 415.718ZM-350.393 417.34C-349.337 410.689 -343.108 406.112 -336.459 407.14L20.0287 455.219C26.6661 456.244 31.2415 462.505 30.2108 469.162L-18.021 826.02C-19.0483 832.665 -25.3057 837.248 -31.9556 836.22L-388.443 788.141C-395.08 787.116 -399.656 780.855 -398.625 774.198L-350.393 417.34Z" fill="#294596"/>
<path d="M-349.897 414.888C-349.992 415.239 -350.073 415.594 -350.142 415.953L-414.506 764.814C-415.172 768.405 -414.396 772.032 -412.336 775.034C-410.276 778.036 -407.16 780.056 -403.573 780.721L-55.088 844.965C-47.6938 846.327 -40.5674 841.411 -39.2026 834.009L25.1611 485.148C25.824 481.57 25.0512 477.93 22.9913 474.927C20.9315 471.925 17.815 469.906 14.2279 469.241L-334.257 404.997C-341.293 403.704 -348.086 408.076 -349.91 414.884L-349.897 414.888ZM-348.861 416.188C-347.609 409.51 -341.168 405.043 -334.481 406.283L14.0043 470.527C17.2459 471.126 20.0664 472.946 21.9326 475.667C23.7987 478.388 24.5051 481.674 23.9046 484.919L-40.4591 833.78C-41.6957 840.503 -48.1394 844.928 -54.8392 843.685L-403.324 779.441C-406.566 778.842 -409.386 777.023 -411.252 774.301C-413.119 771.58 -413.812 768.298 -413.224 765.049L-348.861 416.188Z" fill="#294596"/>
</g>
<defs>
<clipPath id="clip0_281_1062">
<rect width="897" height="896" fill="white" transform="matrix(0.258819 -0.965926 -0.965926 -0.258819 362.469 1098.34)"/>
</clipPath>
</defs>
</svg>
