<svg width="903" height="513" viewBox="0 0 903 513" fill="none" xmlns="http://www.w3.org/2000/svg">
<g opacity="0.2" clip-path="url(#clip0_281_1143)">
<path d="M530.992 -549C535.134 -549 539.275 -547.43 542.416 -544.274L1057.27 -29.4312C1063.57 -23.1344 1063.57 -12.8656 1057.27 -6.56885L542.431 508.274C536.134 514.57 525.866 514.57 519.569 508.274L4.72644 -6.56885C-1.57043 -12.8656 -1.57043 -23.1344 4.72644 -29.4312L519.569 -544.274C522.725 -547.43 526.866 -549 530.992 -549ZM530.992 511.46C534.733 511.46 538.49 510.029 541.338 507.18L1056.18 -7.66193C1061.88 -13.3583 1061.88 -22.6418 1056.18 -28.3535L541.338 -543.196C535.626 -548.892 526.358 -548.892 520.646 -543.196L5.80408 -28.3535C0.107788 -22.6572 0.107788 -13.3737 5.80408 -7.66193L520.662 507.18C523.51 510.029 527.267 511.46 531.008 511.46H530.992Z" fill="white"/>
<path d="M529.606 -547.26C533.717 -547.26 537.596 -545.721 540.583 -542.888L1051.25 -48.9681C1054.35 -46.043 1056.13 -42.071 1056.26 -37.791C1056.38 -33.511 1054.83 -29.4467 1051.88 -26.3367L557.98 484.333C555.055 487.443 551.083 489.214 546.803 489.337C542.569 489.476 538.459 487.905 535.349 484.965L24.6785 -8.95517C21.584 -11.8803 19.7981 -15.8524 19.6749 -20.1324C19.5518 -24.4123 21.1067 -28.4767 24.0472 -31.5866L517.967 -542.257C520.892 -545.367 524.864 -547.137 529.144 -547.26C529.298 -547.26 529.452 -547.26 529.606 -547.26ZM539.521 -541.78C536.703 -544.428 533.024 -545.844 529.175 -545.721C525.311 -545.613 521.724 -543.996 519.06 -541.194L25.1404 -30.5244C22.4923 -27.7224 21.0913 -24.0428 21.1991 -20.1785C21.3069 -16.3142 22.9235 -12.7271 25.7255 -10.0637L536.411 483.856C539.213 486.504 542.892 487.89 546.757 487.797C550.621 487.69 554.208 486.073 556.872 483.271L1050.78 -27.4144C1053.42 -30.2164 1054.83 -33.8959 1054.72 -37.7602C1054.61 -41.6245 1052.99 -45.2117 1050.19 -47.8751L539.521 -541.795V-541.78Z" fill="white"/>
<path d="M528.207 -545.521C532.102 -545.521 535.812 -544.104 538.737 -541.502L1045.25 -68.5051C1048.41 -65.7031 1050.28 -61.808 1050.53 -57.5742C1050.78 -53.3405 1049.36 -49.2607 1046.53 -46.1046L573.531 460.378C567.727 466.89 557.674 467.475 551.13 461.656L44.6324 -11.326C38.1047 -17.1302 37.5351 -27.1834 43.3546 -33.7265L516.337 -540.224C519.139 -543.381 523.034 -545.259 527.252 -545.505C527.56 -545.521 527.883 -545.536 528.191 -545.536L528.207 -545.521ZM537.721 -540.348C534.857 -542.888 531.178 -544.166 527.375 -543.95C523.557 -543.735 520.047 -542.041 517.507 -539.178L44.5247 -32.6797C39.2748 -26.7986 39.7983 -17.7152 45.7101 -12.4653L552.177 460.517C558.074 465.766 567.142 465.243 572.392 459.331L1045.39 -47.1514C1047.93 -49.9996 1049.21 -53.6791 1048.99 -57.4973C1048.78 -61.3154 1047.08 -64.8256 1044.22 -67.3658L537.736 -540.348H537.721Z" fill="white"/>
<path d="M526.804 -543.796C530.499 -543.796 534.04 -542.518 536.904 -540.117H536.919L1039.23 -88.0574C1042.43 -85.3785 1044.4 -81.5759 1044.77 -77.3882C1045.14 -73.2007 1043.85 -69.1208 1041.15 -65.9032L589.095 436.438C586.4 439.64 582.613 441.611 578.426 441.98C574.223 442.335 570.158 441.057 566.941 438.362L64.6147 -13.6969C61.4125 -16.3757 59.4419 -20.1784 59.0724 -24.366C58.7029 -28.5536 59.9961 -32.6334 62.6903 -35.8511L514.75 -538.177C517.444 -541.379 521.231 -543.35 525.419 -543.719C525.881 -543.765 526.358 -543.781 526.82 -543.781L526.804 -543.796ZM535.903 -538.931C532.993 -541.364 529.314 -542.534 525.542 -542.195C521.755 -541.872 518.337 -540.086 515.904 -537.176L63.845 -34.8504C61.4279 -31.9714 60.2578 -28.2765 60.5965 -24.5046C60.9199 -20.7173 62.7057 -17.2994 65.6155 -14.8669L567.941 437.192C570.82 439.61 574.5 440.78 578.287 440.441C582.074 440.118 585.492 438.332 587.925 435.422L1039.98 -66.9039C1042.4 -69.7829 1043.57 -73.4778 1043.23 -77.2497C1042.91 -81.0216 1041.12 -84.4548 1038.21 -86.8873L535.903 -538.931Z" fill="white"/>
<path d="M525.404 -542.072C528.899 -542.072 532.27 -540.902 535.057 -538.716H535.088L1033.21 -107.594C1039.95 -102.283 1041.11 -92.4297 1035.77 -85.671L604.645 412.483C599.318 419.21 589.48 420.38 582.722 415.038L84.5681 -16.0832C81.3196 -18.6543 79.2412 -22.3492 78.764 -26.506C78.2713 -30.6474 79.426 -34.7426 82.0125 -38.0219L513.134 -536.175C515.705 -539.424 519.4 -541.502 523.557 -541.98C524.172 -542.057 524.804 -542.087 525.419 -542.087L525.404 -542.072ZM534.103 -537.515C528.006 -542.318 519.138 -541.271 514.335 -535.175L83.2133 -37.0211C80.9039 -34.096 79.8571 -30.4165 80.3035 -26.6754C80.75 -22.9342 82.6129 -19.5934 85.5688 -17.2686L583.692 413.853C589.757 418.641 598.641 417.594 603.444 411.497L1034.58 -86.641C1039.37 -92.7068 1038.32 -101.59 1032.23 -106.393L534.087 -537.5L534.103 -537.515Z" fill="white"/>
<path d="M523.987 -540.378C527.204 -540.378 530.437 -539.393 533.224 -537.33L533.255 -537.299L1027.19 -127.131C1030.48 -124.683 1032.66 -121.065 1033.27 -116.97C1033.89 -112.875 1032.86 -108.78 1030.39 -105.439L620.193 388.527C617.745 391.822 614.128 393.993 610.032 394.608C605.937 395.224 601.842 394.193 598.501 391.729L104.52 -18.4694C101.225 -20.9173 99.0543 -24.5353 98.4385 -28.6305C97.8226 -32.7257 98.8541 -36.8209 101.317 -40.1617L511.501 -534.128C514.518 -538.208 519.214 -540.378 523.956 -540.378H523.987ZM532.285 -536.098C526.08 -540.671 517.32 -539.362 512.732 -533.173L102.549 -39.2072C100.347 -36.2359 99.4238 -32.5564 99.978 -28.8614C100.532 -25.1665 102.487 -21.9026 105.49 -19.6857L599.456 390.529C602.427 392.73 606.106 393.638 609.801 393.1C613.496 392.545 616.76 390.59 618.977 387.588L1029.18 -106.393C1031.38 -109.365 1032.3 -113.044 1031.75 -116.739C1031.19 -120.434 1029.24 -123.698 1026.24 -125.915L532.285 -536.098Z" fill="white"/>
<path d="M522.602 -538.7C525.728 -538.7 528.761 -537.761 531.378 -535.945L531.424 -535.914L1021.17 -146.668C1024.51 -144.343 1026.79 -140.818 1027.51 -136.753C1028.25 -132.689 1027.36 -128.594 1025.01 -125.207L635.76 364.587C630.925 371.546 621.288 373.27 614.298 368.421L124.504 -20.8404C117.561 -25.6592 115.806 -35.2968 120.671 -42.3018L509.932 -532.096C512.257 -535.436 515.782 -537.715 519.847 -538.439C520.77 -538.608 521.709 -538.685 522.618 -538.685L522.602 -538.7ZM530.485 -534.682C527.437 -536.791 523.757 -537.592 520.108 -536.93C516.46 -536.268 513.273 -534.22 511.163 -531.172L121.902 -41.378C117.561 -35.1274 119.131 -26.4443 125.428 -22.072L615.222 367.189C621.473 371.53 630.156 369.96 634.528 363.663L1023.77 -126.131C1025.87 -129.148 1026.67 -132.828 1026.01 -136.492C1025.34 -140.156 1023.3 -143.327 1020.25 -145.436L530.469 -534.682H530.485Z" fill="white"/>
<path d="M521.185 -537.007C524.049 -537.007 526.959 -536.206 529.53 -534.528L529.576 -534.497L1015.15 -166.221C1022.22 -161.648 1024.25 -152.103 1019.63 -145.005L651.308 340.632C649.107 344.034 645.658 346.389 641.655 347.252C637.637 348.114 633.542 347.344 630.093 345.112L144.472 -23.2113C137.405 -27.7838 135.373 -37.329 139.992 -44.4264L508.315 -530.048C511.224 -534.544 516.151 -537.007 521.185 -537.007ZM528.668 -533.266C522.278 -537.392 513.719 -535.575 509.562 -529.17L141.239 -43.5488C137.128 -37.2059 138.945 -28.6151 145.349 -24.4737L630.971 343.849C634.019 345.835 637.714 346.513 641.332 345.743C644.95 344.973 648.045 342.849 650.046 339.739L1018.38 -145.883C1022.5 -152.226 1020.68 -160.817 1014.27 -164.958L528.668 -533.266Z" fill="white"/>
<path d="M519.785 -535.36C522.54 -535.36 525.265 -534.605 527.683 -533.143L527.729 -533.112L1009.13 -185.758C1012.58 -183.679 1015.04 -180.323 1016.01 -176.351C1016.98 -172.379 1016.37 -168.268 1014.24 -164.773L666.858 316.676C664.78 320.125 661.424 322.588 657.452 323.558C653.48 324.528 649.369 323.912 645.874 321.787L164.425 -25.6132C157.25 -29.9394 154.941 -39.3768 159.298 -46.5974L506.698 -528.047C508.777 -531.495 512.133 -533.959 516.105 -534.929C517.321 -535.237 518.568 -535.375 519.785 -535.375V-535.36ZM526.867 -531.849C523.726 -533.743 520.046 -534.297 516.475 -533.42C512.903 -532.542 509.885 -530.325 507.992 -527.185L160.591 -45.7352C158.728 -42.6407 158.159 -38.9457 159.036 -35.374C159.914 -31.8022 162.131 -28.7847 165.271 -26.891L646.736 320.525C649.831 322.388 653.526 322.957 657.097 322.08C660.669 321.202 663.687 318.985 665.58 315.845L1012.98 -165.62C1014.84 -168.715 1015.41 -172.41 1014.54 -175.981C1013.66 -179.553 1011.44 -182.571 1008.3 -184.464L526.882 -531.834L526.867 -531.849Z" fill="white"/>
<path d="M518.369 -533.712C520.909 -533.712 523.464 -533.081 525.835 -531.757L525.897 -531.726L1003.11 -205.294C1006.61 -203.324 1009.18 -200.075 1010.27 -196.149C1011.36 -192.224 1010.87 -188.098 1008.87 -184.557L682.423 292.721C678.328 300.003 669.014 302.605 661.67 298.479L184.393 -27.9839C180.898 -29.9392 178.327 -33.203 177.234 -37.1289C176.141 -41.0547 176.634 -45.1807 178.635 -48.7217L505.098 -525.999C507.869 -530.926 513.057 -533.728 518.384 -533.728L518.369 -533.712ZM525.05 -530.433C518.461 -534.112 510.101 -531.772 506.391 -525.183L179.928 -47.9058C178.173 -44.765 177.727 -41.0701 178.712 -37.5292C179.697 -34.0036 182.007 -31.063 185.193 -29.2772L662.471 297.185C669.014 300.849 677.389 298.509 681.099 291.92L1007.58 -185.357C1009.33 -188.498 1009.78 -192.193 1008.79 -195.734C1007.81 -199.259 1005.5 -202.2 1002.31 -204.001L525.066 -530.448L525.05 -530.433Z" fill="white"/>
<path d="M516.966 -532.08C519.337 -532.08 521.739 -531.526 523.987 -530.356L524.048 -530.325L997.092 -224.831C1004.48 -220.983 1007.38 -211.761 1003.5 -204.325L697.972 268.78C696.124 272.321 692.953 274.985 689.073 276.201C685.194 277.433 681.068 277.063 677.465 275.185L204.36 -30.3396C200.819 -32.1871 198.156 -35.3586 196.924 -39.2382C195.708 -43.1179 196.062 -47.2439 197.94 -50.8464L503.465 -523.951C506.143 -529.109 511.455 -532.08 516.951 -532.08H516.966ZM523.248 -529.017C520.015 -530.695 516.32 -531.018 512.84 -529.91C509.346 -528.816 506.497 -526.415 504.804 -523.182L199.279 -50.0767C197.617 -46.8898 197.293 -43.1795 198.402 -39.7001C199.495 -36.2053 201.897 -33.3571 205.13 -31.6636L678.235 273.846C681.422 275.493 685.132 275.832 688.611 274.723C692.106 273.63 694.954 271.228 696.648 267.995L1002.17 -205.094C1005.62 -211.73 1003.02 -220.013 996.322 -223.507L523.248 -529.017Z" fill="white"/>
<path d="M515.566 -530.464C517.783 -530.464 520.031 -529.986 522.155 -528.955L522.217 -528.924L991.073 -244.384C994.675 -242.659 997.431 -239.58 998.771 -235.731C1000.11 -231.898 999.879 -227.772 998.124 -224.108L713.537 244.825C709.935 252.323 700.821 255.51 693.261 251.876L224.344 -32.7104C220.741 -34.4348 217.985 -37.5139 216.646 -41.3628C215.307 -45.1962 215.538 -49.3223 217.293 -52.9864L501.879 -521.904C504.466 -527.292 509.916 -530.464 515.566 -530.464ZM521.447 -527.6C514.658 -530.849 506.483 -527.97 503.219 -521.196L218.632 -52.2782C215.399 -45.5504 218.263 -37.3599 225.067 -34.0807L693.985 250.521C700.713 253.754 708.903 250.891 712.182 244.086L996.769 -224.831C998.324 -228.065 998.524 -231.775 997.323 -235.223C996.123 -238.672 993.644 -241.443 990.349 -243.029L521.462 -527.6H521.447Z" fill="white"/>
<path d="M514.15 -528.878C516.243 -528.878 518.322 -528.447 520.308 -527.569L520.369 -527.539L985.038 -263.921C992.643 -260.565 996.122 -251.558 992.735 -243.876L729.087 220.854C727.486 224.503 724.483 227.351 720.696 228.829C716.909 230.292 712.767 230.199 709.057 228.552L244.312 -35.0968C236.706 -38.453 233.227 -47.4594 236.614 -55.1417L500.263 -519.887C501.864 -523.536 504.866 -526.384 508.653 -527.862C510.439 -528.555 512.287 -528.893 514.15 -528.893V-528.878ZM519.646 -526.184C516.32 -527.646 512.61 -527.723 509.208 -526.415C505.805 -525.091 503.111 -522.535 501.633 -519.194L237.984 -54.4489C234.967 -47.6133 238.107 -39.5307 244.989 -36.4824L709.735 227.182C713.014 228.629 716.724 228.721 720.127 227.397C723.529 226.073 726.223 223.518 727.701 220.177L991.365 -244.569C994.383 -251.404 991.242 -259.487 984.36 -262.535L519.646 -526.168V-526.184Z" fill="white"/>
<path d="M512.733 -527.292C514.672 -527.292 516.597 -526.923 518.444 -526.168L518.521 -526.138L979.017 -283.458C982.712 -281.964 985.668 -279.055 987.254 -275.313C988.84 -271.572 988.87 -267.431 987.346 -263.659L744.636 196.899C743.142 200.594 740.232 203.55 736.491 205.135C732.75 206.721 728.609 206.752 724.837 205.228L264.264 -37.4831C256.551 -40.593 252.779 -49.4916 255.919 -57.2818L498.63 -517.855C500.124 -521.55 503.033 -524.506 506.774 -526.091C508.683 -526.907 510.7 -527.308 512.717 -527.308L512.733 -527.292ZM517.844 -524.767C514.457 -526.122 510.762 -526.091 507.406 -524.66C504.034 -523.228 501.432 -520.58 500.062 -517.193L257.351 -56.6351C254.549 -49.7072 257.936 -41.7014 264.941 -38.8687L725.484 203.842C728.809 205.181 732.519 205.151 735.891 203.719C739.263 202.287 741.864 199.639 743.235 196.252L985.961 -264.306C987.3 -267.631 987.269 -271.341 985.838 -274.713C984.406 -278.085 981.758 -280.686 978.371 -282.057L517.844 -524.752V-524.767Z" fill="white"/>
<path d="M511.348 -525.722C513.103 -525.722 514.873 -525.414 516.613 -524.783L516.69 -524.752L972.983 -303.01C980.804 -300.131 984.869 -291.34 981.974 -283.442L760.201 172.943C758.831 176.7 756.014 179.748 752.303 181.457C748.609 183.166 744.467 183.335 740.634 181.919L284.248 -39.854C280.492 -41.2242 277.443 -44.0416 275.734 -47.7519C274.026 -51.4468 273.856 -55.6036 275.257 -59.4217L497.03 -515.807C499.278 -521.919 505.128 -525.737 511.332 -525.737L511.348 -525.722ZM516.044 -523.351C508.946 -525.938 501.064 -522.289 498.462 -515.191L276.689 -58.8059C275.457 -55.4343 275.596 -51.7086 277.135 -48.3831C278.675 -45.0577 281.415 -42.5328 284.849 -41.255L741.234 180.518C744.606 181.749 748.331 181.611 751.657 180.071C754.982 178.532 757.507 175.791 758.77 172.358L980.558 -284.043C983.144 -291.079 979.496 -298.976 972.383 -301.594L516.028 -523.351H516.044Z" fill="white"/>
<path d="M509.947 -524.167C511.548 -524.167 513.164 -523.921 514.765 -523.382L514.842 -523.351L966.963 -322.547C970.766 -321.284 973.922 -318.56 975.754 -314.911C977.586 -311.262 977.879 -307.105 976.601 -303.225L775.751 148.988C773.118 156.932 764.435 161.273 756.429 158.625L304.231 -42.2095C300.429 -43.4719 297.273 -46.1969 295.44 -49.8457C293.608 -53.4944 293.316 -57.6512 294.594 -61.5309L495.429 -513.729C497.538 -520.087 503.527 -524.136 509.931 -524.136L509.947 -524.167ZM514.242 -521.935C507.052 -524.29 499.262 -520.395 496.876 -513.205L296.041 -61.0074C294.902 -57.5896 295.179 -53.8485 296.826 -50.5692C298.473 -47.29 301.306 -44.8267 304.786 -43.672L756.983 157.178C764.127 159.549 771.933 155.623 774.319 148.434L975.154 -303.78C976.293 -307.198 976.016 -310.939 974.369 -314.218C972.721 -317.497 969.888 -319.96 966.409 -321.115L514.242 -521.935Z" fill="white"/>
<path d="M508.499 -522.627C509.977 -522.627 511.455 -522.412 512.902 -521.981L512.964 -521.95L960.912 -342.084C964.777 -340.929 968.025 -338.297 969.98 -334.694C971.936 -331.091 972.367 -326.935 971.197 -322.993L791.3 125.032C788.898 133.084 780.323 137.718 772.209 135.317L324.184 -44.5804C316.132 -46.9667 311.482 -55.542 313.899 -63.6709L493.796 -511.697C494.951 -515.561 497.584 -518.809 501.186 -520.765C503.465 -521.996 505.959 -522.627 508.484 -522.627H508.499ZM512.44 -520.518C508.915 -521.565 505.189 -521.165 501.956 -519.41C498.708 -517.655 496.337 -514.73 495.29 -511.189L315.393 -63.1628C314.361 -59.6834 314.746 -55.9577 316.517 -52.7093C318.272 -49.4608 321.197 -47.0899 324.738 -46.043L772.764 133.854C779.999 136.009 787.713 131.822 789.883 124.524L969.78 -323.502C970.812 -326.966 970.427 -330.707 968.672 -333.955C966.917 -337.204 963.992 -339.574 960.451 -340.621L512.456 -520.503L512.44 -520.518Z" fill="white"/>
<path d="M507.099 -521.103C508.423 -521.103 509.747 -520.934 511.071 -520.58H511.133L954.909 -361.621C963.069 -359.465 968.011 -351.013 965.84 -342.777L806.881 101.061C804.726 109.236 796.258 114.148 788.037 111.992L344.199 -46.9667C340.273 -47.9982 336.932 -50.5384 334.854 -54.1102C332.775 -57.6666 332.221 -61.8388 333.268 -65.8262L492.227 -509.664C493.258 -513.59 495.799 -516.931 499.37 -519.009C501.757 -520.395 504.42 -521.119 507.114 -521.119L507.099 -521.103ZM510.64 -519.102C507.068 -520.041 503.327 -519.533 500.125 -517.67C496.922 -515.807 494.629 -512.79 493.674 -509.203L334.715 -65.3644C333.791 -61.8388 334.299 -58.0976 336.162 -54.88C338.025 -51.6777 341.043 -49.3838 344.63 -48.4293L788.468 110.53C791.993 111.453 795.735 110.945 798.952 109.083C802.154 107.22 804.448 104.202 805.403 100.615L964.362 -343.223C966.302 -350.567 961.852 -358.188 954.447 -360.143L510.64 -519.086V-519.102Z" fill="white"/>
<path d="M505.714 -519.579C506.868 -519.579 508.038 -519.456 509.209 -519.179H509.27L948.859 -381.158C957.142 -379.249 962.361 -370.889 960.437 -362.545L822.415 77.1059C820.506 85.3887 812.131 90.6078 803.802 88.6833L364.152 -49.3377C360.164 -50.2615 356.731 -52.7094 354.53 -56.2195C352.328 -59.7297 351.635 -63.9019 352.574 -67.9355L490.595 -507.586C492.243 -514.699 498.647 -519.564 505.698 -519.564L505.714 -519.579ZM508.839 -517.685C501.341 -519.41 493.828 -514.699 492.089 -507.201L354.068 -67.5506C353.236 -63.9635 353.867 -60.2224 355.854 -57.0509C357.84 -53.8794 360.934 -51.6779 364.567 -50.8311L804.218 87.19C811.685 88.9143 819.198 84.2032 820.938 76.6902L958.959 -362.96C960.683 -370.412 955.972 -377.94 948.459 -379.68L508.839 -517.685Z" fill="white"/>
<path d="M504.311 -518.086C505.327 -518.086 506.343 -517.993 507.375 -517.778H507.421L942.838 -400.695C951.244 -399.032 956.74 -390.78 955.062 -382.328L837.979 53.1351C837.178 57.1841 834.822 60.7097 831.343 63.0344C827.864 65.3592 823.707 66.1905 819.612 65.3591L384.149 -51.724C375.743 -53.4021 370.247 -61.6387 371.925 -70.0908L489.008 -505.554C490.47 -512.928 497.013 -518.086 504.311 -518.086ZM507.036 -516.284C499.431 -517.778 492.01 -512.82 490.486 -505.215L373.403 -69.7521C371.894 -62.1775 376.867 -54.7569 384.472 -53.2327L819.935 63.8504C823.568 64.574 827.325 63.8196 830.466 61.7412C833.591 59.6474 835.731 56.4605 836.454 52.781L953.538 -382.682C955.046 -390.257 950.074 -397.693 942.468 -399.201L507.036 -516.269V-516.284Z" fill="white"/>
<path d="M502.88 -516.608C503.758 -516.608 504.635 -516.531 505.528 -516.392H505.574L936.803 -420.247C940.914 -419.554 944.532 -417.291 946.98 -413.858C949.412 -410.44 950.382 -406.268 949.674 -402.111L853.529 29.1643C852.097 37.6781 843.968 43.4822 835.408 42.035L404.133 -54.1102C395.619 -55.5419 389.815 -63.6708 391.262 -72.2307L487.408 -503.506C488.1 -507.617 490.363 -511.235 493.797 -513.682C496.491 -515.607 499.647 -516.608 502.895 -516.608H502.88ZM505.251 -514.868C501.525 -515.484 497.769 -514.622 494.674 -512.435C491.58 -510.234 489.532 -506.955 488.901 -503.214L392.756 -71.9382C391.463 -64.2558 396.697 -56.9122 404.41 -55.6189L835.686 40.5262C843.368 41.804 850.712 36.585 852.005 28.8718L948.15 -402.404C948.766 -406.099 947.904 -409.87 945.702 -412.965C943.501 -416.059 940.237 -418.107 936.48 -418.738L505.236 -514.868H505.251Z" fill="white"/>
<path d="M501.48 -515.13C502.203 -515.13 502.942 -515.084 503.681 -514.976H503.712L930.754 -439.784C934.926 -439.214 938.651 -437.028 941.207 -433.657C943.763 -430.285 944.856 -426.097 944.286 -421.91L869.094 5.16266C867.909 13.7996 859.857 19.8808 851.205 18.6953L424.132 -56.4965C415.495 -57.682 409.414 -65.7184 410.6 -74.3861L485.807 -501.458C486.377 -505.631 488.563 -509.356 491.934 -511.912C494.721 -514.021 498.046 -515.13 501.48 -515.13ZM503.45 -513.452C499.648 -513.975 495.906 -512.99 492.858 -510.68C489.81 -508.371 487.839 -505 487.316 -501.212L412.108 -74.1398C411.031 -66.3343 416.527 -59.0984 424.348 -58.0207L851.42 17.1712C859.21 18.2489 866.462 12.7526 867.539 4.93169L942.731 -422.141C943.255 -425.897 942.269 -429.669 939.96 -432.717C937.651 -435.766 934.279 -437.736 930.492 -438.26L503.435 -513.452H503.45Z" fill="white"/>
</g>
<defs>
<clipPath id="clip0_281_1143">
<rect width="1062" height="513" fill="white" transform="matrix(-1 0 0 -1 1062 513)"/>
</clipPath>
</defs>
</svg>
