<svg id="eA7e0vlH1uG1" xmlns="http://www.w3.org/2000/svg" xmlns:xlink="http://www.w3.org/1999/xlink" viewBox="0 0 903 513" shape-rendering="geometricPrecision" text-rendering="geometricPrecision" project-id="60e9f80cb4494ad2aaf03cb3463a54de" export-id="96899743db4e40fa9a45a4d3e74ed2f4" cached="false" width="903" height="513">
<style><![CDATA[
#eA7e0vlH1uG4 {animation: eA7e0vlH1uG4_c_o 4308.943089430894ms linear infinite normal forwards}@keyframes eA7e0vlH1uG4_c_o { 0% {opacity: 1} 3.773585% {opacity: 0} 7.54717% {opacity: 1} 100% {opacity: 1}} #eA7e0vlH1uG5 {animation: eA7e0vlH1uG5_c_o 4308.943089430894ms linear infinite normal forwards}@keyframes eA7e0vlH1uG5_c_o { 0% {opacity: 1} 3.773585% {opacity: 1} 7.54717% {opacity: 0} 11.320755% {opacity: 1} 100% {opacity: 1}} #eA7e0vlH1uG6 {animation: eA7e0vlH1uG6_c_o 4308.943089430894ms linear infinite normal forwards}@keyframes eA7e0vlH1uG6_c_o { 0% {opacity: 1} 7.54717% {opacity: 1} 11.320755% {opacity: 0} 15.09434% {opacity: 1} 100% {opacity: 1}} #eA7e0vlH1uG7 {animation: eA7e0vlH1uG7_c_o 4308.943089430894ms linear infinite normal forwards}@keyframes eA7e0vlH1uG7_c_o { 0% {opacity: 1} 11.320755% {opacity: 1} 15.09434% {opacity: 0} 18.867925% {opacity: 1} 100% {opacity: 1}} #eA7e0vlH1uG8 {animation: eA7e0vlH1uG8_c_o 4308.943089430894ms linear infinite normal forwards}@keyframes eA7e0vlH1uG8_c_o { 0% {opacity: 1} 15.09434% {opacity: 1} 18.867925% {opacity: 0} 22.641509% {opacity: 1} 100% {opacity: 1}} #eA7e0vlH1uG9 {animation: eA7e0vlH1uG9_c_o 4308.943089430894ms linear infinite normal forwards}@keyframes eA7e0vlH1uG9_c_o { 0% {opacity: 1} 18.867925% {opacity: 1} 22.641509% {opacity: 0} 26.415094% {opacity: 1} 100% {opacity: 1}} #eA7e0vlH1uG10 {animation: eA7e0vlH1uG10_c_o 4308.943089430894ms linear infinite normal forwards}@keyframes eA7e0vlH1uG10_c_o { 0% {opacity: 1} 22.641509% {opacity: 1} 26.415094% {opacity: 0} 30.188679% {opacity: 1} 100% {opacity: 1}} #eA7e0vlH1uG11 {animation: eA7e0vlH1uG11_c_o 4308.943089430894ms linear infinite normal forwards}@keyframes eA7e0vlH1uG11_c_o { 0% {opacity: 1} 26.415094% {opacity: 1} 30.188679% {opacity: 0} 33.962264% {opacity: 1} 100% {opacity: 1}} #eA7e0vlH1uG12 {animation: eA7e0vlH1uG12_c_o 4308.943089430894ms linear infinite normal forwards}@keyframes eA7e0vlH1uG12_c_o { 0% {opacity: 1} 30.188679% {opacity: 1} 33.962264% {opacity: 0} 37.735849% {opacity: 1} 100% {opacity: 1}} #eA7e0vlH1uG13 {animation: eA7e0vlH1uG13_c_o 4308.943089430894ms linear infinite normal forwards}@keyframes eA7e0vlH1uG13_c_o { 0% {opacity: 1} 33.962264% {opacity: 1} 37.735849% {opacity: 0} 41.509434% {opacity: 1} 100% {opacity: 1}} #eA7e0vlH1uG14 {animation: eA7e0vlH1uG14_c_o 4308.943089430894ms linear infinite normal forwards}@keyframes eA7e0vlH1uG14_c_o { 0% {opacity: 1} 37.735849% {opacity: 1} 41.509434% {opacity: 0} 45.283019% {opacity: 1} 100% {opacity: 1}} #eA7e0vlH1uG15 {animation: eA7e0vlH1uG15_c_o 4308.943089430894ms linear infinite normal forwards}@keyframes eA7e0vlH1uG15_c_o { 0% {opacity: 1} 41.509434% {opacity: 1} 45.283019% {opacity: 0} 49.056604% {opacity: 1} 100% {opacity: 1}} #eA7e0vlH1uG16 {animation: eA7e0vlH1uG16_c_o 4308.943089430894ms linear infinite normal forwards}@keyframes eA7e0vlH1uG16_c_o { 0% {opacity: 1} 45.283019% {opacity: 1} 49.056604% {opacity: 0} 52.830189% {opacity: 1} 100% {opacity: 1}} #eA7e0vlH1uG17 {animation: eA7e0vlH1uG17_c_o 4308.943089430894ms linear infinite normal forwards}@keyframes eA7e0vlH1uG17_c_o { 0% {opacity: 1} 49.056604% {opacity: 1} 52.830189% {opacity: 0} 56.603774% {opacity: 1} 100% {opacity: 1}} #eA7e0vlH1uG18 {animation: eA7e0vlH1uG18_c_o 4308.943089430894ms linear infinite normal forwards}@keyframes eA7e0vlH1uG18_c_o { 0% {opacity: 1} 52.830189% {opacity: 1} 56.603774% {opacity: 0} 60.377358% {opacity: 1} 100% {opacity: 1}} #eA7e0vlH1uG19 {animation: eA7e0vlH1uG19_c_o 4308.943089430894ms linear infinite normal forwards}@keyframes eA7e0vlH1uG19_c_o { 0% {opacity: 1} 56.603774% {opacity: 1} 60.377358% {opacity: 0} 64.150943% {opacity: 1} 100% {opacity: 1}} #eA7e0vlH1uG20 {animation: eA7e0vlH1uG20_c_o 4308.943089430894ms linear infinite normal forwards}@keyframes eA7e0vlH1uG20_c_o { 0% {opacity: 1} 60.377358% {opacity: 1} 64.150943% {opacity: 0} 67.924528% {opacity: 1} 100% {opacity: 1}} #eA7e0vlH1uG21 {animation: eA7e0vlH1uG21_c_o 4308.943089430894ms linear infinite normal forwards}@keyframes eA7e0vlH1uG21_c_o { 0% {opacity: 1} 64.150943% {opacity: 1} 67.924528% {opacity: 0} 71.698113% {opacity: 1} 100% {opacity: 1}} #eA7e0vlH1uG22 {animation: eA7e0vlH1uG22_c_o 4308.943089430894ms linear infinite normal forwards}@keyframes eA7e0vlH1uG22_c_o { 0% {opacity: 1} 67.924528% {opacity: 1} 71.698113% {opacity: 0} 75.471698% {opacity: 1} 100% {opacity: 1}} #eA7e0vlH1uG23 {animation: eA7e0vlH1uG23_c_o 4308.943089430894ms linear infinite normal forwards}@keyframes eA7e0vlH1uG23_c_o { 0% {opacity: 1} 71.698113% {opacity: 1} 75.471698% {opacity: 0} 79.245283% {opacity: 1} 100% {opacity: 1}} #eA7e0vlH1uG24 {animation: eA7e0vlH1uG24_c_o 4308.943089430894ms linear infinite normal forwards}@keyframes eA7e0vlH1uG24_c_o { 0% {opacity: 1} 75.471698% {opacity: 1} 79.245283% {opacity: 0} 83.018868% {opacity: 1} 100% {opacity: 1}} #eA7e0vlH1uG25 {animation: eA7e0vlH1uG25_c_o 4308.943089430894ms linear infinite normal forwards}@keyframes eA7e0vlH1uG25_c_o { 0% {opacity: 1} 79.245283% {opacity: 1} 83.018868% {opacity: 0} 86.792453% {opacity: 1} 100% {opacity: 1}}
]]></style>
<g clip-path="url(#eA7e0vlH1uG26)"><g opacity="0.2"><path id="eA7e0vlH1uG4" d="M530.992,-549c4.142,0,8.283,1.57,11.424,4.726L1057.27,-29.4312c6.3,6.2968,6.3,16.5656,0,22.86235L542.431,508.274c-6.297,6.296-16.565,6.296-22.862,0L4.72644,-6.56885c-6.29687-6.29675-6.29687-16.56555,0-22.86235L519.569,-544.274c3.156-3.156,7.297-4.726,11.423-4.726Zm0,1060.46c3.741,0,7.498-1.431,10.346-4.28L1056.18,-7.66193c5.7-5.69637,5.7-14.97987,0-20.69157L541.338,-543.196c-5.712-5.696-14.98-5.696-20.692,0L5.80408,-28.3535c-5.696292,5.6963-5.696292,14.9798,0,20.69157L520.662,507.18c2.848,2.849,6.605,4.28,10.346,4.28h-.016Z" fill="#fff"/><path id="eA7e0vlH1uG5" d="M529.606,-547.26c4.111,0,7.99,1.539,10.977,4.372L1051.25,-48.9681c3.1,2.9251,4.88,6.8971,5.01,11.1771.12,4.28-1.43,8.3443-4.38,11.4543L557.98,484.333c-2.925,3.11-6.897,4.881-11.177,5.004-4.234.139-8.344-1.432-11.454-4.372L24.6785,-8.95517c-3.0945-2.92513-4.8804-6.89723-5.0036-11.17723-.1231-4.2799,1.4318-8.3443,4.3723-11.4542L517.967,-542.257c2.925-3.11,6.897-4.88,11.177-5.003.154,0,.308,0,.462,0Zm9.915,5.48c-2.818-2.648-6.497-4.064-10.346-3.941-3.864.108-7.451,1.725-10.115,4.527L25.1404,-30.5244c-2.6481,2.802-4.0491,6.4816-3.9413,10.3459s1.7244,7.4514,4.5264,10.1148L536.411,483.856c2.802,2.648,6.481,4.034,10.346,3.941c3.864-.107,7.451-1.724,10.115-4.526L1050.78,-27.4144c2.64-2.802,4.05-6.4815,3.94-10.3458s-1.73-7.4515-4.53-10.1149L539.521,-541.795v.015Z" fill="#fff"/><path id="eA7e0vlH1uG6" d="M528.207,-545.521c3.895,0,7.605,1.417,10.53,4.019L1045.25,-68.5051c3.16,2.802,5.03,6.6971,5.28,10.9309.25,4.2337-1.17,8.3135-4,11.4696L573.531,460.378c-5.804,6.512-15.857,7.097-22.401,1.278L44.6324,-11.326c-6.5277-5.8042-7.0973-15.8574-1.2778-22.4005L516.337,-540.224c2.802-3.157,6.697-5.035,10.915-5.281.308-.016.631-.031.939-.031l.016.015Zm9.514,5.173c-2.864-2.54-6.543-3.818-10.346-3.602-3.818.215-7.328,1.909-9.868,4.772L44.5247,-32.6797c-5.2499,5.8811-4.7264,14.9645,1.1854,20.2144L552.177,460.517c5.897,5.249,14.965,4.726,20.215-1.186L1045.39,-47.1514c2.54-2.8482,3.82-6.5277,3.6-10.3459-.21-3.8181-1.91-7.3283-4.77-9.8685L537.736,-540.348h-.015Z" fill="#fff"/><path id="eA7e0vlH1uG7" d="M526.804,-543.796c3.695,0,7.236,1.278,10.1,3.679h.015L1039.23,-88.0574c3.2,2.6789,5.17,6.4815,5.54,10.6692.37,4.1875-.92,8.2674-3.62,11.485L589.095,436.438c-2.695,3.202-6.482,5.173-10.669,5.542-4.203.355-8.268-.923-11.485-3.618L64.6147,-13.6969c-3.2022-2.6788-5.1728-6.4815-5.5423-10.6691s.9237-8.2674,3.6179-11.4851L514.75,-538.177c2.694-3.202,6.481-5.173,10.669-5.542.462-.046.939-.062,1.401-.062l-.016-.015Zm9.099,4.865c-2.91-2.433-6.589-3.603-10.361-3.264-3.787.323-7.205,2.109-9.638,5.019L63.845,-34.8504c-2.4171,2.879-3.5872,6.5739-3.2485,10.3458.3234,3.7873,2.1092,7.2052,5.019,9.6377L567.941,437.192c2.879,2.418,6.559,3.588,10.346,3.249c3.787-.323,7.205-2.109,9.638-5.019L1039.98,-66.9039c2.42-2.879,3.59-6.5739,3.25-10.3458-.32-3.7719-2.11-7.2051-5.02-9.6376L535.903,-538.931Z" fill="#fff"/><path id="eA7e0vlH1uG8" d="M525.404,-542.072c3.495,0,6.866,1.17,9.653,3.356h.031l498.122,431.122c6.74,5.311,7.9,15.1643,2.56,21.923L604.645,412.483c-5.327,6.727-15.165,7.897-21.923,2.555L84.5681,-16.0832c-3.2485-2.5711-5.3269-6.266-5.8041-10.4228-.4927-4.1414.662-8.2366,3.2485-11.5159L513.134,-536.175c2.571-3.249,6.266-5.327,10.423-5.805.615-.077,1.247-.107,1.862-.107l-.015.015Zm8.699,4.557c-6.097-4.803-14.965-3.756-19.768,2.34L83.2133,-37.0211c-2.3094,2.9251-3.3562,6.6046-2.9098,10.3457.4465,3.7412,2.3094,7.082,5.2653,9.4068L583.692,413.853c6.065,4.788,14.949,3.741,19.752-2.356L1034.58,-86.641c4.79-6.0658,3.74-14.949-2.35-19.752L534.087,-537.5l.016-.015Z" fill="#fff"/><path id="eA7e0vlH1uG9" d="M523.987,-540.378c3.217,0,6.45.985,9.237,3.048l.031.031l493.935,410.168c3.29,2.448,5.47,6.066,6.08,10.161.62,4.095-.41,8.19-2.88,11.531L620.193,388.527c-2.448,3.295-6.065,5.466-10.161,6.081-4.095.616-8.19-.415-11.531-2.879L104.52,-18.4694c-3.295-2.4479-5.4657-6.0659-6.0815-10.1611-.6159-4.0952.4156-8.1904,2.8785-11.5312L511.501,-534.128c3.017-4.08,7.713-6.25,12.455-6.25h.031Zm8.298,4.28c-6.205-4.573-14.965-3.264-19.553,2.925L102.549,-39.2072c-2.202,2.9713-3.1252,6.6508-2.571,10.3458.554,3.6949,2.509,6.9588,5.512,9.1757L599.456,390.529c2.971,2.201,6.65,3.109,10.345,2.571c3.695-.555,6.959-2.51,9.176-5.512l410.203-493.981c2.2-2.972,3.12-6.651,2.57-10.346-.56-3.695-2.51-6.959-5.51-9.176L532.285,-536.098Z" fill="#fff"/><path id="eA7e0vlH1uG10" d="M522.602,-538.7c3.126,0,6.159.939,8.776,2.755l.046.031l489.746,389.246c3.34,2.325,5.62,5.85,6.34,9.915.74,4.064-.15,8.159-2.5,11.546L635.76,364.587c-4.835,6.959-14.472,8.683-21.462,3.834L124.504,-20.8404c-6.943-4.8188-8.698-14.4564-3.833-21.4614L509.932,-532.096c2.325-3.34,5.85-5.619,9.915-6.343.923-.169,1.862-.246,2.771-.246l-.016-.015Zm7.883,4.018c-3.048-2.109-6.728-2.91-10.377-2.248-3.648.662-6.835,2.71-8.945,5.758L121.902,-41.378c-4.341,6.2506-2.771,14.9337,3.526,19.306L615.222,367.189c6.251,4.341,14.934,2.771,19.306-3.526l389.242-489.794c2.1-3.017,2.9-6.697,2.24-10.361-.67-3.664-2.71-6.835-5.76-8.944L530.469,-534.682h.016Z" fill="#fff"/><path id="eA7e0vlH1uG11" d="M521.185,-537.007c2.864,0,5.774.801,8.345,2.479l.046.031l485.574,368.276c7.07,4.573,9.1,14.118,4.48,21.216L651.308,340.632c-2.201,3.402-5.65,5.757-9.653,6.62-4.018.862-8.113.092-11.562-2.14L144.472,-23.2113c-7.067-4.5725-9.099-14.1177-4.48-21.2151L508.315,-530.048c2.909-4.496,7.836-6.959,12.87-6.959Zm7.483,3.741c-6.39-4.126-14.949-2.309-19.106,4.096L141.239,-43.5488c-4.111,6.3429-2.294,14.9337,4.11,19.0751L630.971,343.849c3.048,1.986,6.743,2.664,10.361,1.894s6.713-2.894,8.714-6.004l368.334-485.622c4.12-6.343,2.3-14.934-4.11-19.075L528.668,-533.266Z" fill="#fff"/><path id="eA7e0vlH1uG12" d="M519.785,-535.36c2.755,0,5.48.755,7.898,2.217l.046.031l481.401,347.354c3.45,2.079,5.91,5.435,6.88,9.407s.36,8.083-1.77,11.578L666.858,316.676c-2.078,3.449-5.434,5.912-9.406,6.882s-8.083.354-11.578-1.771L164.425,-25.6132c-7.175-4.3262-9.484-13.7636-5.127-20.9842l347.4-481.4496c2.079-3.448,5.435-5.912,9.407-6.882c1.216-.308,2.463-.446,3.68-.446v.015Zm7.082,3.511c-3.141-1.894-6.821-2.448-10.392-1.571-3.572.878-6.59,3.095-8.483,6.235L160.591,-45.7352c-1.863,3.0945-2.432,6.7895-1.555,10.3612.878,3.5718,3.095,6.5893,6.235,8.483L646.736,320.525c3.095,1.863,6.79,2.432,10.361,1.555c3.572-.878,6.59-3.095,8.483-6.235l347.4-481.465c1.86-3.095,2.43-6.79,1.56-10.361-.88-3.572-3.1-6.59-6.24-8.483l-481.418-347.37-.015-.015Z" fill="#fff"/><path id="eA7e0vlH1uG13" d="M518.369,-533.712c2.54,0,5.095.631,7.466,1.955l.062.031l477.213,326.432c3.5,1.97,6.07,5.219,7.16,9.145c1.09,3.925.6,8.051-1.4,11.592L682.423,292.721c-4.095,7.282-13.409,9.884-20.753,5.758L184.393,-27.9839c-3.495-1.9553-6.066-5.2191-7.159-9.145-1.093-3.9258-.6-8.0518,1.401-11.5928L505.098,-525.999c2.771-4.927,7.959-7.729,13.286-7.729l-.015.016Zm6.681,3.279c-6.589-3.679-14.949-1.339-18.659,5.25L179.928,-47.9058c-1.755,3.1408-2.201,6.8357-1.216,10.3766.985,3.5256,3.295,6.4662,6.481,8.252L662.471,297.185c6.543,3.664,14.918,1.324,18.628-5.265l326.481-477.277c1.75-3.141,2.2-6.836,1.21-10.377-.98-3.525-3.29-6.466-6.48-8.267L525.066,-530.448l-.016.015Z" fill="#fff"/><path id="eA7e0vlH1uG14" d="M516.966,-532.08c2.371,0,4.773.554,7.021,1.724l.061.031l473.044,305.494c7.388,3.848,10.288,13.07,6.408,20.506L697.972,268.78c-1.848,3.541-5.019,6.205-8.899,7.421-3.879,1.232-8.005.862-11.608-1.016L204.36,-30.3396c-3.541-1.8475-6.204-5.019-7.436-8.8986-1.216-3.8797-.862-8.0057,1.016-11.6082L503.465,-523.951c2.678-5.158,7.99-8.129,13.486-8.129h.015Zm6.282,3.063c-3.233-1.678-6.928-2.001-10.408-.893-3.494,1.094-6.343,3.495-8.036,6.728L199.279,-50.0767c-1.662,3.1869-1.986,6.8972-.877,10.3766c1.093,3.4948,3.495,6.343,6.728,8.0365L678.235,273.846c3.187,1.647,6.897,1.986,10.376.877c3.495-1.093,6.343-3.495,8.037-6.728l305.522-473.089c3.45-6.636.85-14.919-5.848-18.413l-473.074-305.51Z" fill="#fff"/><path id="eA7e0vlH1uG15" d="M515.566,-530.464c2.217,0,4.465.478,6.589,1.509l.062.031l468.856,284.54c3.602,1.725,6.358,4.804,7.698,8.653c1.339,3.833,1.108,7.959-.647,11.623L713.537,244.825c-3.602,7.498-12.716,10.685-20.276,7.051L224.344,-32.7104c-3.603-1.7244-6.359-4.8035-7.698-8.6524-1.339-3.8334-1.108-7.9595.647-11.6236L501.879,-521.904c2.587-5.388,8.037-8.56,13.687-8.56Zm5.881,2.864c-6.789-3.249-14.964-.37-18.228,6.404L218.632,-52.2782c-3.233,6.7278-.369,14.9183,6.435,18.1975L693.985,250.521c6.728,3.233,14.918.37,18.197-6.435l284.587-468.917c1.555-3.234,1.755-6.944.554-10.392-1.2-3.449-3.679-6.22-6.974-7.806L521.462,-527.6h-.015Z" fill="#fff"/><path id="eA7e0vlH1uG16" d="M514.15,-528.878c2.093,0,4.172.431,6.158,1.309l.061.03l464.669,263.618c7.605,3.356,11.084,12.363,7.697,20.045L729.087,220.854c-1.601,3.649-4.604,6.497-8.391,7.975-3.787,1.463-7.929,1.37-11.639-.277L244.312,-35.0968c-7.606-3.3562-11.085-12.3626-7.698-20.0449L500.263,-519.887c1.601-3.649,4.603-6.497,8.39-7.975c1.786-.693,3.634-1.031,5.497-1.031v.015Zm5.496,2.694c-3.326-1.462-7.036-1.539-10.438-.231-3.403,1.324-6.097,3.88-7.575,7.221L237.984,-54.4489c-3.017,6.8356.123,14.9182,7.005,17.9665L709.735,227.182c3.279,1.447,6.989,1.539,10.392.215c3.402-1.324,6.096-3.879,7.574-7.22l263.664-464.746c3.018-6.835-.123-14.918-7.005-17.966L519.646,-526.168v-.016Z" fill="#fff"/><path id="eA7e0vlH1uG17" d="M512.733,-527.292c1.939,0,3.864.369,5.711,1.124l.077.03l460.496,242.68c3.695,1.494,6.651,4.403,8.237,8.145c1.586,3.741,1.616,7.882.092,11.654L744.636,196.899c-1.494,3.695-4.404,6.651-8.145,8.236-3.741,1.586-7.882,1.617-11.654.093L264.264,-37.4831c-7.713-3.1099-11.485-12.0085-8.345-19.7987L498.63,-517.855c1.494-3.695,4.403-6.651,8.144-8.236c1.909-.816,3.926-1.217,5.943-1.217l.016.016Zm5.111,2.525c-3.387-1.355-7.082-1.324-10.438.107-3.372,1.432-5.974,4.08-7.344,7.467L257.351,-56.6351c-2.802,6.9279.585,14.9337,7.59,17.7664L725.484,203.842c3.325,1.339,7.035,1.309,10.407-.123s5.973-4.08,7.344-7.467l242.726-460.558c1.339-3.325,1.308-7.035-.123-10.407-1.432-3.372-4.08-5.973-7.467-7.344L517.844,-524.752v-.015Z" fill="#fff"/><path id="eA7e0vlH1uG18" d="M511.348,-525.722c1.755,0,3.525.308,5.265.939l.077.031L972.983,-303.01c7.821,2.879,11.886,11.67,8.991,19.568L760.201,172.943c-1.37,3.757-4.187,6.805-7.898,8.514-3.694,1.709-7.836,1.878-11.669.462L284.248,-39.854c-3.756-1.3702-6.805-4.1876-8.514-7.8979-1.708-3.6949-1.878-7.8517-.477-11.6698L497.03,-515.807c2.248-6.112,8.098-9.93,14.302-9.93l.016.015Zm4.696,2.371c-7.098-2.587-14.98,1.062-17.582,8.16L276.689,-58.8059c-1.232,3.3716-1.093,7.0973.446,10.4228c1.54,3.3254,4.28,5.8503,7.714,7.1281L741.234,180.518c3.372,1.231,7.097,1.093,10.423-.447c3.325-1.539,5.85-4.28,7.113-7.713l221.788-456.401c2.586-7.036-1.062-14.933-8.175-17.551L516.028,-523.351h.016Z" fill="#fff"/><path id="eA7e0vlH1uG19" d="M509.947,-524.167c1.601,0,3.217.246,4.818.785l.077.031l452.121,200.804c3.803,1.263,6.959,3.987,8.791,7.636s2.125,7.806.847,11.686L775.751,148.988c-2.633,7.944-11.316,12.285-19.322,9.637L304.231,-42.2095c-3.802-1.2624-6.958-3.9874-8.791-7.6362-1.832-3.6487-2.124-7.8055-.846-11.6852L495.429,-513.729c2.109-6.358,8.098-10.407,14.502-10.407l.016-.031Zm4.295,2.232c-7.19-2.355-14.98,1.54-17.366,8.73L296.041,-61.0074c-1.139,3.4178-.862,7.1589.785,10.4382s4.48,5.7425,7.96,6.8972l452.197,200.85c7.144,2.371,14.95-1.555,17.336-8.744L975.154,-303.78c1.139-3.418.862-7.159-.785-10.438-1.648-3.279-4.481-5.742-7.96-6.897l-452.167-200.82Z" fill="#fff"/><path id="eA7e0vlH1uG20" d="M508.499,-522.627c1.478,0,2.956.215,4.403.646l.062.031l447.948,179.866c3.865,1.155,7.113,3.787,9.068,7.39c1.956,3.603,2.387,7.759,1.217,11.701L791.3,125.032c-2.402,8.052-10.977,12.686-19.091,10.285L324.184,-44.5804c-8.052-2.3863-12.702-10.9616-10.285-19.0905L493.796,-511.697c1.155-3.864,3.788-7.112,7.39-9.068c2.279-1.231,4.773-1.862,7.298-1.862h.015Zm3.941,2.109c-3.525-1.047-7.251-.647-10.484,1.108-3.248,1.755-5.619,4.68-6.666,8.221L315.393,-63.1628c-1.032,3.4794-.647,7.2051,1.124,10.4535c1.755,3.2485,4.68,5.6194,8.221,6.6663L772.764,133.854c7.235,2.155,14.949-2.032,17.119-9.33L969.78,-323.502c1.032-3.464.647-7.205-1.108-10.453-1.755-3.249-4.68-5.619-8.221-6.666L512.456,-520.503l-.016-.015Z" fill="#fff"/><path id="eA7e0vlH1uG21" d="M507.099,-521.103c1.324,0,2.648.169,3.972.523h.062l443.776,158.959c8.16,2.156,13.102,10.608,10.931,18.844L806.881,101.061c-2.155,8.175-10.623,13.087-18.844,10.931L344.199,-46.9667c-3.926-1.0315-7.267-3.5717-9.345-7.1435-2.079-3.5564-2.633-7.7286-1.586-11.716L492.227,-509.664c1.031-3.926,3.572-7.267,7.143-9.345c2.387-1.386,5.05-2.11,7.744-2.11l-.015.016Zm3.541,2.001c-3.572-.939-7.313-.431-10.515,1.432-3.203,1.863-5.496,4.88-6.451,8.467L334.715,-65.3644c-.924,3.5256-.416,7.2668,1.447,10.4844c1.863,3.2023,4.881,5.4962,8.468,6.4507L788.468,110.53c3.525.923,7.267.415,10.484-1.447c3.202-1.863,5.496-4.881,6.451-8.468l158.959-443.838c1.94-7.344-2.51-14.965-9.915-16.92L510.64,-519.086v-.016Z" fill="#fff"/><path id="eA7e0vlH1uG22" d="M505.714,-519.579c1.154,0,2.324.123,3.495.4h.061l439.589,138.021c8.283,1.909,13.502,10.269,11.578,18.613L822.415,77.1059c-1.909,8.2828-10.284,13.5019-18.613,11.5774l-439.65-138.021c-3.988-.9238-7.421-3.3717-9.622-6.8818-2.202-3.5102-2.895-7.6824-1.956-11.716L490.595,-507.586c1.648-7.113,8.052-11.978,15.103-11.978l.016-.015Zm3.125,1.894c-7.498-1.725-15.011,2.986-16.75,10.484L354.068,-67.5506c-.832,3.5871-.201,7.3282,1.786,10.4997c1.986,3.1715,5.08,5.373,8.713,6.2198L804.218,87.19c7.467,1.7243,14.98-2.9868,16.72-10.4998L958.959,-362.96c1.724-7.452-2.987-14.98-10.5-16.72l-439.62-138.005Z" fill="#fff"/><path id="eA7e0vlH1uG23" d="M504.311,-518.086c1.016,0,2.032.093,3.064.308h.046l435.417,117.083c8.406,1.663,13.902,9.915,12.224,18.367L837.979,53.1351c-.801,4.049-3.157,7.5746-6.636,9.8993-3.479,2.3248-7.636,3.1561-11.731,2.3247L384.149,-51.724c-8.406-1.6781-13.902-9.9147-12.224-18.3668L489.008,-505.554c1.462-7.374,8.005-12.532,15.303-12.532Zm2.725,1.802c-7.605-1.494-15.026,3.464-16.55,11.069L373.403,-69.7521c-1.509,7.5746,3.464,14.9952,11.069,16.5194L819.935,63.8504c3.633.7236,7.39-.0308,10.531-2.1092c3.125-2.0938,5.265-5.2807,5.988-8.9602l117.084-435.463c1.508-7.575-3.464-15.011-11.07-16.519L507.036,-516.269v-.015Z" fill="#fff"/><path id="eA7e0vlH1uG24" d="M502.88,-516.608c.878,0,1.755.077,2.648.216h.046l431.229,96.145c4.111.693,7.729,2.956,10.177,6.389c2.432,3.418,3.402,7.59,2.694,11.747L853.529,29.1643c-1.432,8.5138-9.561,14.3179-18.121,12.8707L404.133,-54.1102c-8.514-1.4317-14.318-9.5606-12.871-18.1205l96.146-431.2753c.692-4.111,2.955-7.729,6.389-10.176c2.694-1.925,5.85-2.926,9.098-2.926h-.015Zm2.371,1.74c-3.726-.616-7.482.246-10.577,2.433-3.094,2.201-5.142,5.48-5.773,9.221L392.756,-71.9382c-1.293,7.6824,3.941,15.026,11.654,16.3193L835.686,40.5262c7.682,1.2778,15.026-3.9412,16.319-11.6544L948.15,-402.404c.616-3.695-.246-7.466-2.448-10.561-2.201-3.094-5.465-5.142-9.222-5.773l-431.244-96.13h.015Z" fill="#fff"/><path id="eA7e0vlH1uG25" d="M501.48,-515.13c.723,0,1.462.046,2.201.154h.031l427.042,75.192c4.172.57,7.897,2.756,10.453,6.127c2.556,3.372,3.649,7.56,3.079,11.747L869.094,5.16266c-1.185,8.63694-9.237,14.71814-17.889,13.53264L424.132,-56.4965c-8.637-1.1855-14.718-9.2219-13.532-17.8896l75.207-427.0719c.57-4.173,2.756-7.898,6.127-10.454c2.787-2.109,6.112-3.218,9.546-3.218Zm1.97,1.678c-3.802-.523-7.544.462-10.592,2.772-3.048,2.309-5.019,5.68-5.542,9.468L412.108,-74.1398c-1.077,7.8055,4.419,15.0414,12.24,16.1191L851.42,17.1712c7.79,1.0777,15.042-4.4186,16.119-12.23951L942.731,-422.141c.524-3.756-.462-7.528-2.771-10.576-2.309-3.049-5.681-5.019-9.468-5.543l-427.057-75.192h.015Z" fill="#fff"/></g><clipPath id="eA7e0vlH1uG26"><rect width="1062" height="513" rx="0" ry="0" transform="matrix(-1 0 0 -1 1062 513)" fill="#fff"/></clipPath></g></svg>
