<svg id="eRBL93mPGOl1" xmlns="http://www.w3.org/2000/svg" xmlns:xlink="http://www.w3.org/1999/xlink" viewBox="0 0 948 439" shape-rendering="geometricPrecision" text-rendering="geometricPrecision" project-id="a7074c74c915495c917ea0c82fc7d54b" export-id="9341644e04f04c1dabe2cb192a346dff" cached="false" width="948" height="439">
<style><![CDATA[
#eRBL93mPGOl4 {animation: eRBL93mPGOl4_c_o 4146.341463414634ms linear infinite normal forwards}@keyframes eRBL93mPGOl4_c_o { 0% {opacity: 1} 3.921569% {opacity: 0} 7.843137% {opacity: 1} 100% {opacity: 1}} #eRBL93mPGOl5 {animation: eRBL93mPGOl5_c_o 4146.341463414634ms linear infinite normal forwards}@keyframes eRBL93mPGOl5_c_o { 0% {opacity: 1} 3.921569% {opacity: 1} 7.843137% {opacity: 0} 11.764706% {opacity: 1} 100% {opacity: 1}} #eRBL93mPGOl6 {animation: eRBL93mPGOl6_c_o 4146.341463414634ms linear infinite normal forwards}@keyframes eRBL93mPGOl6_c_o { 0% {opacity: 1} 7.843137% {opacity: 1} 11.764706% {opacity: 0} 15.686275% {opacity: 1} 100% {opacity: 1}} #eRBL93mPGOl7 {animation: eRBL93mPGOl7_c_o 4146.341463414634ms linear infinite normal forwards}@keyframes eRBL93mPGOl7_c_o { 0% {opacity: 1} 11.764706% {opacity: 1} 15.686275% {opacity: 0} 19.607843% {opacity: 1} 100% {opacity: 1}} #eRBL93mPGOl8 {animation: eRBL93mPGOl8_c_o 4146.341463414634ms linear infinite normal forwards}@keyframes eRBL93mPGOl8_c_o { 0% {opacity: 1} 15.686275% {opacity: 1} 19.607843% {opacity: 0} 23.529412% {opacity: 1} 100% {opacity: 1}} #eRBL93mPGOl9 {animation: eRBL93mPGOl9_c_o 4146.341463414634ms linear infinite normal forwards}@keyframes eRBL93mPGOl9_c_o { 0% {opacity: 1} 19.607843% {opacity: 1} 23.529412% {opacity: 0} 27.45098% {opacity: 1} 100% {opacity: 1}} #eRBL93mPGOl10 {animation: eRBL93mPGOl10_c_o 4146.341463414634ms linear infinite normal forwards}@keyframes eRBL93mPGOl10_c_o { 0% {opacity: 1} 23.529412% {opacity: 1} 27.45098% {opacity: 0} 31.372549% {opacity: 1} 100% {opacity: 1}} #eRBL93mPGOl11 {animation: eRBL93mPGOl11_c_o 4146.341463414634ms linear infinite normal forwards}@keyframes eRBL93mPGOl11_c_o { 0% {opacity: 1} 27.45098% {opacity: 1} 31.372549% {opacity: 0} 35.294118% {opacity: 1} 100% {opacity: 1}} #eRBL93mPGOl12 {animation: eRBL93mPGOl12_c_o 4146.341463414634ms linear infinite normal forwards}@keyframes eRBL93mPGOl12_c_o { 0% {opacity: 1} 31.372549% {opacity: 1} 35.294118% {opacity: 0} 39.215686% {opacity: 1} 100% {opacity: 1}} #eRBL93mPGOl13 {animation: eRBL93mPGOl13_c_o 4146.341463414634ms linear infinite normal forwards}@keyframes eRBL93mPGOl13_c_o { 0% {opacity: 1} 35.294118% {opacity: 1} 39.215686% {opacity: 0} 43.137255% {opacity: 1} 100% {opacity: 1}} #eRBL93mPGOl14 {animation: eRBL93mPGOl14_c_o 4146.341463414634ms linear infinite normal forwards}@keyframes eRBL93mPGOl14_c_o { 0% {opacity: 1} 39.215686% {opacity: 1} 43.137255% {opacity: 0} 47.058824% {opacity: 1} 100% {opacity: 1}} #eRBL93mPGOl15 {animation: eRBL93mPGOl15_c_o 4146.341463414634ms linear infinite normal forwards}@keyframes eRBL93mPGOl15_c_o { 0% {opacity: 1} 43.137255% {opacity: 1} 47.058824% {opacity: 0} 50.980392% {opacity: 1} 100% {opacity: 1}} #eRBL93mPGOl16 {animation: eRBL93mPGOl16_c_o 4146.341463414634ms linear infinite normal forwards}@keyframes eRBL93mPGOl16_c_o { 0% {opacity: 1} 47.058824% {opacity: 1} 50.980392% {opacity: 0} 54.901961% {opacity: 1} 100% {opacity: 1}} #eRBL93mPGOl17 {animation: eRBL93mPGOl17_c_o 4146.341463414634ms linear infinite normal forwards}@keyframes eRBL93mPGOl17_c_o { 0% {opacity: 1} 50.980392% {opacity: 1} 54.901961% {opacity: 0} 58.823529% {opacity: 1} 100% {opacity: 1}} #eRBL93mPGOl18 {animation: eRBL93mPGOl18_c_o 4146.341463414634ms linear infinite normal forwards}@keyframes eRBL93mPGOl18_c_o { 0% {opacity: 1} 54.901961% {opacity: 1} 58.823529% {opacity: 0} 62.745098% {opacity: 1} 100% {opacity: 1}} #eRBL93mPGOl19 {animation: eRBL93mPGOl19_c_o 4146.341463414634ms linear infinite normal forwards}@keyframes eRBL93mPGOl19_c_o { 0% {opacity: 1} 58.823529% {opacity: 1} 62.745098% {opacity: 0} 66.666667% {opacity: 1} 100% {opacity: 1}} #eRBL93mPGOl20 {animation: eRBL93mPGOl20_c_o 4146.341463414634ms linear infinite normal forwards}@keyframes eRBL93mPGOl20_c_o { 0% {opacity: 1} 62.745098% {opacity: 1} 66.666667% {opacity: 0} 70.588235% {opacity: 1} 100% {opacity: 1}} #eRBL93mPGOl21 {animation: eRBL93mPGOl21_c_o 4146.341463414634ms linear infinite normal forwards}@keyframes eRBL93mPGOl21_c_o { 0% {opacity: 1} 66.666667% {opacity: 1} 70.588235% {opacity: 0} 74.509804% {opacity: 1} 100% {opacity: 1}} #eRBL93mPGOl22 {animation: eRBL93mPGOl22_c_o 4146.341463414634ms linear infinite normal forwards}@keyframes eRBL93mPGOl22_c_o { 0% {opacity: 1} 70.588235% {opacity: 1} 74.509804% {opacity: 0} 78.431373% {opacity: 1} 100% {opacity: 1}} #eRBL93mPGOl23 {animation: eRBL93mPGOl23_c_o 4146.341463414634ms linear infinite normal forwards}@keyframes eRBL93mPGOl23_c_o { 0% {opacity: 1} 74.509804% {opacity: 1} 78.431373% {opacity: 0} 82.352941% {opacity: 1} 100% {opacity: 1}} #eRBL93mPGOl24 {animation: eRBL93mPGOl24_c_o 4146.341463414634ms linear infinite normal forwards}@keyframes eRBL93mPGOl24_c_o { 0% {opacity: 1} 78.431373% {opacity: 1} 82.352941% {opacity: 0} 86.27451% {opacity: 1} 100% {opacity: 1}}
]]></style>
<g clip-path="url(#eRBL93mPGOl25)"><g opacity="0.2"><path id="eRBL93mPGOl4" d="M474.007,948c-3.697,0-7.393-1.401-10.197-4.219L4.21948,484.204c-5.62085-5.62-5.62085-14.787,0-20.408L463.796,4.21954c5.621-5.62085,14.788-5.62085,20.408,0L943.781,463.796c5.621,5.621,5.621,14.788,0,20.408L484.204,943.781c-2.817,2.818-6.514,4.219-10.197,4.219Zm0-946.62524c-3.339,0-6.693,1.27809-9.235,3.82053L5.19523,464.772c-5.084877,5.085-5.084877,13.372,0,18.471L464.772,942.819c5.099,5.085,13.372,5.085,18.47,0L942.819,483.243c5.085-5.085,5.085-13.372,0-18.471L483.229,5.19529c-2.543-2.54244-5.896-3.82053-9.236-3.82053h.014Z" fill="#fff"/><path id="eRBL93mPGOl5" d="M475.243,946.447c-3.67,0-7.133-1.374-9.799-3.903L9.59165,501.644c-2.76232-2.611-4.3565-6.157-4.46644-9.978-.10995-3.82,1.27809-7.448,3.90298-10.224L449.915,25.5892c2.611-2.776,6.157-4.3565,9.977-4.4664c3.779-.1237,7.449,1.2781,10.225,3.903L925.969,465.926c2.763,2.611,4.357,6.157,4.467,9.977.11,3.821-1.278,7.449-3.903,10.225l-440.9,455.853c-2.612,2.776-6.157,4.356-9.978,4.466-.137,0-.275,0-.412,0Zm-8.851-4.892c2.515,2.363,5.8,3.628,9.236,3.518c3.449-.096,6.651-1.539,9.029-4.041l440.9-455.852c2.364-2.501,3.614-5.786,3.518-9.235-.096-3.45-1.539-6.652-4.04-9.03L469.169,26.0153c-2.502-2.3638-5.786-3.6007-9.236-3.5182-3.449.0962-6.651,1.5392-9.029,4.0404L10.0177,482.404c-2.3638,2.501-3.6144,5.786-3.5182,9.235s1.5392,6.652,4.0404,9.029l455.8521,440.9v-.013Z" fill="#fff"/><path id="eRBL93mPGOl6" d="M476.495,944.894c-3.477,0-6.789-1.264-9.4-3.587L14.9532,519.084c-2.8173-2.502-4.4939-5.979-4.7138-9.758s1.0444-7.421,3.5731-10.238L436.036,46.9734c5.181-5.8133,14.155-6.3355,19.996-1.1407L908.16,468.042c5.827,5.182,6.336,14.156,1.141,19.996L487.091,940.167c-2.501,2.817-5.978,4.493-9.744,4.713-.275.014-.563.028-.838.028l-.014-.014Zm-8.493-4.618c2.556,2.268,5.841,3.409,9.235,3.216c3.409-.192,6.542-1.704,8.81-4.26L908.256,487.104c4.687-5.25,4.219-13.358-1.058-18.045L455.097,46.8497c-5.263-4.6864-13.358-4.2191-18.044,1.0582L14.8295,500.022c-2.2676,2.543-3.4082,5.827-3.2158,9.235.1924,3.409,1.7041,6.542,4.2603,8.81L467.988,940.276h.014Z" fill="#fff"/><path id="eRBL93mPGOl7" d="M477.744,943.355c-3.298,0-6.459-1.141-9.015-3.285h-.014L20.325,536.537c-2.8585-2.391-4.6176-5.786-4.9474-9.524s.8245-7.38,3.2295-10.252L422.14,68.3434c2.405-2.8586,5.786-4.6176,9.524-4.9475c3.752-.3161,7.38.8246,10.252,3.2296L890.32,470.159c2.859,2.391,4.618,5.786,4.948,9.524.329,3.738-.825,7.38-3.23,10.252L488.505,938.339c-2.405,2.858-5.786,4.617-9.524,4.947-.412.041-.838.055-1.251.055l.014.014Zm-8.122-4.343c2.598,2.171,5.882,3.216,9.249,2.914c3.381-.289,6.432-1.883,8.603-4.481L891.007,489.042c2.158-2.57,3.202-5.869,2.9-9.236-.289-3.38-1.883-6.431-4.48-8.603L441.023,67.67c-2.57-2.1577-5.854-3.2021-9.235-2.8998-3.381.2886-6.432,1.8828-8.603,4.4802L19.6516,517.654c-2.1576,2.57-3.2021,5.869-2.8997,9.236.2886,3.367,1.8827,6.431,4.4801,8.603l448.39,403.519Z" fill="#fff"/><path id="eRBL93mPGOl8" d="M478.996,941.816c-3.12,0-6.13-1.045-8.617-2.996h-.028L25.6992,553.977c-6.0194-4.741-7.0501-13.537-2.2813-19.57L408.261,89.7276c4.755-6.0056,13.536-7.0501,19.57-2.2813L872.51,472.289c2.9,2.295,4.755,5.594,5.181,9.304.44,3.697-.591,7.353-2.9,10.28L489.949,936.552c-2.295,2.9-5.594,4.755-9.304,5.181-.55.069-1.114.097-1.663.097l.014-.014Zm-7.765-4.068c5.442,4.288,13.358,3.353,17.646-2.089L873.719,490.98c2.062-2.612,2.996-5.896,2.598-9.236-.399-3.339-2.062-6.321-4.7-8.397L426.965,88.5045c-5.415-4.274-13.345-3.3395-17.632,2.1027L24.4761,535.273c-4.274,5.415-3.3395,13.344,2.1027,17.632L471.245,937.734l-.014.014Z" fill="#fff"/><path id="eRBL93mPGOl9" d="M480.259,940.304c-2.872,0-5.758-.879-8.245-2.721l-.028-.027L31.0721,571.417c-2.9409-2.185-4.8787-5.415-5.4284-9.07-.5497-3.656.371-7.312,2.5699-10.294L394.38,111.112c2.185-2.941,5.415-4.879,9.07-5.429c3.656-.549,7.311.371,10.294,2.57L854.699,474.419c2.941,2.185,4.878,5.415,5.428,9.071.55,3.655-.371,7.311-2.57,10.293L491.405,934.725c-2.694,3.641-6.885,5.579-11.118,5.579h-.028Zm-7.407-3.82c5.538,4.081,13.358,2.913,17.453-2.612L856.458,492.931c1.965-2.652,2.79-5.937,2.295-9.235s-2.24-6.212-4.92-8.191L412.892,109.325c-2.653-1.965-5.937-2.776-9.236-2.295-3.298.495-6.211,2.24-8.19,4.92L29.2993,552.905c-1.9652,2.653-2.7898,5.937-2.2951,9.235.4948,3.299,2.2401,6.212,4.92,8.191L472.852,936.484Z" fill="#fff"/><path id="eRBL93mPGOl10" d="M481.497,938.806c-2.79,0-5.497-.838-7.833-2.46l-.042-.027L36.4465,588.857c-2.9822-2.076-5.0162-5.223-5.6621-8.851-.6596-3.628.1374-7.284,2.2401-10.307L380.487,132.482c4.315-6.212,12.918-7.751,19.157-3.422L836.861,476.536c6.198,4.301,7.765,12.904,3.422,19.157L492.807,932.91c-2.075,2.983-5.222,5.017-8.85,5.663-.825.151-1.663.219-2.474.219l.014.014Zm-7.036-3.587c2.721,1.883,6.005,2.598,9.262,2.007s6.102-2.419,7.985-5.14L839.184,494.869c3.875-5.58,2.474-13.331-3.147-17.234L398.82,130.159c-5.58-3.875-13.331-2.473-17.234,3.147L34.1239,570.524c-1.869,2.693-2.5836,5.978-1.9927,9.248.591,3.271,2.4188,6.102,5.1399,7.985L474.474,935.219h-.013Z" fill="#fff"/><path id="eRBL93mPGOl11" d="M482.762,937.294c-2.556,0-5.154-.714-7.449-2.212l-.041-.028L41.8205,606.31c-6.308-4.082-8.1221-12.602-3.9992-18.938L366.607,153.866c1.965-3.038,5.043-5.14,8.617-5.91c3.586-.769,7.242-.082,10.321,1.91L819.037,478.652c6.308,4.082,8.122,12.602,3.999,18.938L494.251,931.082c-2.597,4.013-6.995,6.212-11.489,6.212Zm-6.679-3.339c5.703,3.683,13.344,2.061,17.055-3.656L821.923,496.806c3.67-5.662,2.048-13.33-3.669-17.027L384.761,150.993c-2.721-1.772-6.019-2.377-9.249-1.69-3.229.687-5.992,2.584-7.778,5.36L38.9345,588.156c-3.6694,5.662-2.0477,13.33,3.6693,17.027L476.083,933.955Z" fill="#fff"/><path id="eRBL93mPGOl12" d="M484.011,935.824c-2.46,0-4.892-.673-7.05-1.979l-.041-.028L47.1926,623.75c-3.0784-1.856-5.2772-4.851-6.143-8.397s-.3161-7.215,1.5804-10.335L352.725,175.25c1.855-3.079,4.851-5.278,8.397-6.143c3.546-.866,7.215-.316,10.335,1.58L801.225,480.796c6.404,3.862,8.466,12.286,4.577,18.732L495.693,929.296c-1.856,3.078-4.852,5.277-8.397,6.143-1.086.275-2.199.399-3.285.399v-.014Zm-6.322-3.134c2.804,1.691,6.089,2.186,9.277,1.402c3.188-.783,5.882-2.762,7.572-5.566L804.647,498.758c1.663-2.762,2.172-6.061,1.388-9.249-.783-3.188-2.762-5.882-5.566-7.572L370.687,171.814c-2.762-1.663-6.061-2.171-9.249-1.388s-5.882,2.762-7.572,5.566L43.7569,605.774c-1.6629,2.762-2.1714,6.061-1.388,9.249s2.7623,5.882,5.5659,7.572L477.676,932.677l.013.013Z" fill="#fff"/><path id="eRBL93mPGOl13" d="M485.275,934.354c-2.267,0-4.549-.564-6.665-1.746l-.055-.027L52.5657,641.19c-3.1196-1.759-5.4147-4.659-6.3904-8.164-.9758-3.504-.536-7.187,1.2506-10.348L338.831,196.634c3.655-6.501,11.97-8.823,18.525-5.14L783.4,482.913c3.12,1.745,5.415,4.658,6.391,8.163.975,3.504.536,7.187-1.251,10.348L497.122,927.468c-2.474,4.398-7.106,6.899-11.861,6.899l.014-.013Zm-5.964-2.928c5.882,3.285,13.344,1.196,16.656-4.686L787.386,500.696c1.566-2.804,1.965-6.102,1.085-9.263-.879-3.147-2.941-5.772-5.785-7.366L356.641,192.648c-5.84-3.27-13.316-1.181-16.628,4.7L48.5803,623.393c-1.5667,2.803-1.9653,6.101-1.0857,9.262.8795,3.147,2.941,5.772,5.7858,7.38L479.297,931.44l.014-.014Z" fill="#fff"/><path id="eRBL93mPGOl14" d="M486.526,932.897c-2.116,0-4.26-.495-6.266-1.54l-.055-.027L57.9398,658.629c-6.5966-3.436-9.1802-11.668-5.717-18.305L324.951,218.004c1.649-3.161,4.48-5.539,7.943-6.624c3.464-1.1,7.147-.77,10.363.907L765.576,485.015c3.161,1.649,5.539,4.48,6.638,7.943c1.086,3.464.77,7.147-.907,10.362L498.579,925.64c-2.391,4.604-7.133,7.257-12.039,7.257h-.014Zm-5.607-2.735c2.886,1.498,6.185,1.786,9.29.797c3.12-.976,5.663-3.12,7.174-6.006l272.728-422.32c1.485-2.844,1.773-6.156.784-9.262-.976-3.12-3.12-5.662-6.006-7.174L342.569,213.482c-2.844-1.47-6.156-1.772-9.262-.783-3.12.976-5.662,3.12-7.174,6.006L53.4047,641.011c-3.0784,5.923-.7559,13.317,5.2223,16.436L480.919,930.162Z" fill="#fff"/><path id="eRBL93mPGOl15" d="M487.777,931.454c-1.979,0-3.985-.427-5.882-1.347l-.055-.028L63.3136,676.083c-3.2158-1.54-5.6758-4.288-6.8714-7.724-1.1957-3.422-.9895-7.105.5772-10.376L311.057,239.388c3.216-6.693,11.352-9.538,18.1-6.294L747.738,487.131c3.216,1.54,5.676,4.288,6.872,7.724c1.195,3.422.989,7.105-.577,10.376L499.995,923.812c-2.309,4.81-7.174,7.642-12.218,7.642Zm-5.25-2.557c6.061,2.9,13.359.33,16.272-5.717L752.837,504.599c2.886-6.006.33-13.317-5.745-16.244L328.511,234.303c-6.006-2.886-13.317-.33-16.244,5.745L58.2287,658.629c-1.388,2.886-1.5667,6.198-.4947,9.277c1.0719,3.078,3.2845,5.552,6.2255,6.967L482.514,928.897h.013Z" fill="#fff"/><path id="eRBL93mPGOl16" d="M489.042,930.038c-1.869,0-3.724-.385-5.497-1.168l-.055-.028L68.7016,693.522c-6.789-2.996-9.8949-11.035-6.8715-17.893L297.178,260.785c1.429-3.257,4.109-5.799,7.489-7.118c3.381-1.306,7.078-1.224,10.39.247L729.914,489.261c6.789,2.996,9.895,11.036,6.872,17.894L501.438,922.012c-1.429,3.257-4.109,5.8-7.489,7.119-1.595.618-3.244.921-4.907.921v-.014Zm-4.906-2.405c2.969,1.305,6.281,1.374,9.318.206c3.037-1.182,5.442-3.463,6.761-6.445L735.563,506.536c2.693-6.102-.11-13.317-6.253-16.038L314.452,255.137c-2.927-1.292-6.239-1.374-9.276-.192s-5.442,3.463-6.762,6.445L63.0532,676.247c-2.6936,6.102.11,13.317,6.2531,16.038L484.136,927.619v.014Z" fill="#fff"/><path id="eRBL93mPGOl17" d="M490.305,928.622c-1.731,0-3.449-.329-5.098-1.003l-.069-.027L74.0738,710.962c-3.2983-1.333-5.9369-3.93-7.3525-7.27-1.4155-3.339-1.443-7.036-.0824-10.403L283.296,282.17c1.333-3.299,3.93-5.937,7.27-7.353c3.339-1.415,7.036-1.443,10.403-.082L712.102,491.392c6.885,2.776,10.253,10.719,7.449,17.673L502.894,920.198c-1.333,3.298-3.93,5.937-7.27,7.353-1.704.728-3.504,1.085-5.305,1.085l-.014-.014Zm-4.562-2.253c3.023,1.209,6.322,1.182,9.317-.097c3.01-1.278,5.333-3.641,6.556-6.665L718.273,508.488c2.501-6.184-.522-13.331-6.775-15.86L300.392,275.971c-2.968-1.195-6.28-1.168-9.29.11s-5.332,3.642-6.555,6.666L67.8757,693.866c-1.1956,2.968-1.1681,6.28.11,9.29s3.6419,5.332,6.6653,6.556L485.743,926.355v.014Z" fill="#fff"/><path id="eRBL93mPGOl18" d="M491.542,927.22c-1.566,0-3.147-.274-4.7-.838l-.068-.027L79.4611,728.415c-6.9814-2.569-10.6095-10.417-8.0258-17.467L269.402,303.553c1.223-3.353,3.738-6.074,7.05-7.6c3.298-1.525,6.995-1.676,10.417-.412L694.264,493.508c3.353,1.223,6.075,3.738,7.6,7.05c1.525,3.298,1.677,7.009.426,10.417L504.323,918.37c-2.006,5.456-7.228,8.864-12.767,8.864l-.014-.014Zm-4.191-2.116c6.335,2.309,13.372-.948,15.694-7.284L701.012,510.425c1.099-3.009.976-6.335-.399-9.304-1.374-2.968-3.82-5.222-6.885-6.363L286.333,296.792c-3.009-1.1-6.335-.976-9.304.398-2.968,1.375-5.222,3.821-6.349,6.885L72.6996,711.484c-2.3088,6.281.9483,13.331,7.2975,15.667L487.365,925.104h-.014Z" fill="#fff"/><path id="eRBL93mPGOl19" d="M492.793,925.833c-1.43,0-2.873-.22-4.302-.701l-.069-.028L84.8343,745.855c-3.3945-1.126-6.2118-3.559-7.8472-6.816s-1.8966-6.968-.7559-10.431L255.521,324.937c2.35-7.091,10.101-10.966,17.248-8.603L676.426,495.611c3.394,1.127,6.211,3.559,7.847,6.816c1.635,3.257,1.896,6.968.756,10.431L505.752,916.515c-1.883,5.676-7.229,9.29-12.946,9.29l-.013.028Zm-3.835-1.993c6.418,2.103,13.372-1.374,15.502-7.792L683.737,512.391c1.017-3.051.769-6.391-.701-9.318-1.471-2.927-3.999-5.126-7.105-6.157L272.274,317.626c-6.377-2.116-13.344,1.388-15.475,7.806L77.523,729.103c-1.0169,3.051-.7696,6.39.7009,9.318c1.4705,2.927,3.9992,5.126,7.1051,6.156L488.958,923.84Z" fill="#fff"/><path id="eRBL93mPGOl20" d="M494.086,924.458c-1.319,0-2.639-.192-3.931-.577l-.055-.027L90.2366,763.295c-3.4495-1.03-6.3492-3.38-8.0946-6.596-1.7453-3.216-2.1302-6.927-1.0857-10.445L241.642,346.322c2.144-7.188,9.799-11.325,17.041-9.181L658.616,497.727c7.188,2.13,11.338,9.785,9.18,17.041L507.21,914.701c-1.03,3.45-3.38,6.349-6.596,8.095-2.034,1.099-4.261,1.662-6.514,1.662h-.014Zm-3.518-1.882c3.147.934,6.473.577,9.359-.99c2.899-1.566,5.016-4.178,5.95-7.338L666.463,514.315c.921-3.106.577-6.432-1.003-9.331-1.567-2.9-4.178-5.017-7.339-5.951L258.189,338.447c-6.459-1.924-13.345,1.814-15.282,8.328L82.3207,746.708c-.9208,3.092-.5772,6.431.9894,9.331s4.1779,5.016,7.3388,5.951L490.554,922.562l.014.014Z" fill="#fff"/><path id="eRBL93mPGOl21" d="M495.335,923.098c-1.182,0-2.364-.151-3.545-.467h-.055L95.5951,780.735c-7.2838-1.924-11.6952-9.469-9.7575-16.821L227.733,367.719c1.924-7.297,9.483-11.681,16.822-9.757L640.749,499.857c3.504.921,6.487,3.189,8.342,6.377c1.855,3.175,2.35,6.899,1.415,10.458L508.611,912.887c-.921,3.504-3.189,6.487-6.377,8.342-2.13,1.237-4.508,1.883-6.913,1.883l.014-.014Zm-3.161-1.787c3.189.839,6.528.385,9.387-1.278c2.858-1.663,4.906-4.356,5.758-7.558L649.215,516.28c.824-3.147.371-6.487-1.292-9.359-1.663-2.858-4.357-4.906-7.559-5.758L244.17,359.267c-3.147-.824-6.487-.371-9.359,1.292-2.859,1.663-4.906,4.357-5.758,7.559L87.1569,764.312c-1.7316,6.556,2.2401,13.358,8.8505,15.104L492.174,921.298v.013Z" fill="#fff"/><path id="eRBL93mPGOl22" d="M496.572,921.737c-1.031,0-2.075-.109-3.12-.357h-.055L100.996,798.175c-7.3938-1.704-12.0526-9.167-10.3348-16.615L213.866,389.103c1.705-7.393,9.181-12.052,16.616-10.334L622.938,501.974c3.559.824,6.624,3.01,8.589,6.143c1.966,3.133,2.584,6.858,1.746,10.458L510.067,911.032c-1.47,6.349-7.187,10.692-13.481,10.692l-.014.013Zm-2.79-1.69c6.693,1.539,13.399-2.666,14.952-9.359L631.94,518.232c.742-3.202.178-6.542-1.595-9.373-1.772-2.831-4.535-4.796-7.778-5.552L230.111,380.102c-6.666-1.539-13.372,2.666-14.925,9.372L91.9806,781.931c-1.5393,6.651,2.6661,13.372,9.3724,14.925L493.782,920.047Z" fill="#fff"/><path id="eRBL93mPGOl23" d="M497.824,920.404c-.907,0-1.814-.082-2.735-.275h-.041L106.371,815.614c-7.5041-1.484-12.4103-8.85-10.9123-16.395L199.974,410.501c.714-3.615,2.817-6.762,5.923-8.837s6.816-2.817,10.472-2.075L605.087,504.104c7.504,1.498,12.41,8.85,10.912,16.395L511.484,909.217c-1.305,6.583-7.146,11.187-13.66,11.187Zm-2.433-1.608c6.789,1.333,13.413-3.092,14.774-9.881L614.68,520.197c1.347-6.762-3.092-13.386-9.881-14.747L216.08,400.936c-3.243-.646-6.596.027-9.4,1.882-2.79,1.869-4.7,4.714-5.346,7.999L96.8192,799.535c-1.3468,6.762,3.0922,13.399,9.8808,14.746L495.391,918.782v.014Z" fill="#fff"/><path id="eRBL93mPGOl24" d="M499.101,919.085c-.783,0-1.566-.069-2.363-.192h-.042L111.757,833.068c-3.669-.618-6.899-2.639-9.084-5.703-2.171-3.051-3.0369-6.776-2.405-10.486l85.825-384.98c1.278-7.6,8.534-12.781,16.175-11.489l384.98,85.824c7.6,1.278,12.781,8.534,11.49,16.175L512.913,907.39c-.618,3.669-2.639,6.899-5.703,9.084-2.405,1.718-5.223,2.611-8.122,2.611h.013Zm-2.116-1.553c3.326.55,6.679-.22,9.441-2.171c2.763-1.966,4.591-4.893,5.154-8.232l85.824-384.981c1.155-6.857-3.518-13.413-10.403-14.567l-384.98-85.825c-6.858-1.14-13.413,3.518-14.568,10.404L101.629,817.14c-.55,3.298.22,6.665,2.185,9.428c1.965,2.762,4.879,4.59,8.232,5.153l384.953,85.811h-.014Z" fill="#fff"/></g><clipPath id="eRBL93mPGOl25"><rect width="948" height="439" rx="0" ry="0" fill="#fff"/></clipPath></g></svg>
