<svg width="948" height="439" viewBox="0 0 948 439" fill="none" xmlns="http://www.w3.org/2000/svg">
<g opacity="0.2" clip-path="url(#clip0_281_1195)">
<path d="M474.007 948C470.31 948 466.614 946.599 463.81 943.781L4.21948 484.204C-1.40137 478.584 -1.40137 469.417 4.21948 463.796L463.796 4.21954C469.417 -1.40131 478.584 -1.40131 484.204 4.21954L943.781 463.796C949.402 469.417 949.402 478.584 943.781 484.204L484.204 943.781C481.387 946.599 477.69 948 474.007 948ZM474.007 1.37476C470.668 1.37476 467.314 2.65285 464.772 5.19529L5.19523 464.772C0.110353 469.857 0.110353 478.144 5.19523 483.243L464.772 942.819C469.871 947.904 478.144 947.904 483.242 942.819L942.819 483.243C947.904 478.158 947.904 469.871 942.819 464.772L483.229 5.19529C480.686 2.65285 477.333 1.37476 473.993 1.37476H474.007Z" fill="white"/>
<path d="M475.243 946.447C471.573 946.447 468.11 945.073 465.444 942.544L9.59165 501.644C6.82933 499.033 5.23515 495.487 5.12521 491.666C5.01526 487.846 6.4033 484.218 9.02819 481.442L449.915 25.5892C452.526 22.8132 456.072 21.2327 459.892 21.1228C463.671 20.9991 467.341 22.4009 470.117 25.0258L925.969 465.926C928.732 468.537 930.326 472.083 930.436 475.903C930.546 479.724 929.158 483.352 926.533 486.128L485.633 941.981C483.021 944.757 479.476 946.337 475.655 946.447C475.518 946.447 475.38 946.447 475.243 946.447ZM466.392 941.555C468.907 943.918 472.192 945.183 475.628 945.073C479.077 944.977 482.279 943.534 484.657 941.032L925.557 485.18C927.921 482.679 929.171 479.394 929.075 475.945C928.979 472.495 927.536 469.293 925.035 466.915L469.169 26.0153C466.667 23.6515 463.383 22.4146 459.933 22.4971C456.484 22.5933 453.282 24.0363 450.904 26.5375L10.0177 482.404C7.6539 484.905 6.4033 488.19 6.4995 491.639C6.5957 495.088 8.0387 498.291 10.5399 500.668L466.392 941.568V941.555Z" fill="white"/>
<path d="M476.495 944.894C473.018 944.894 469.706 943.63 467.095 941.307L14.9532 519.084C12.1359 516.582 10.4593 513.105 10.2394 509.326C10.0195 505.547 11.2838 501.905 13.8125 499.088L436.036 46.9734C441.217 41.1601 450.191 40.6379 456.032 45.8327L908.16 468.042C913.987 473.224 914.496 482.198 909.301 488.038L487.091 940.167C484.59 942.984 481.113 944.66 477.347 944.88C477.072 944.894 476.784 944.908 476.509 944.908L476.495 944.894ZM468.002 940.276C470.558 942.544 473.843 943.685 477.237 943.492C480.646 943.3 483.779 941.788 486.047 939.232L908.256 487.104C912.943 481.854 912.475 473.746 907.198 469.059L455.097 46.8497C449.834 42.1633 441.739 42.6306 437.053 47.9079L14.8295 500.022C12.5619 502.565 11.4213 505.849 11.6137 509.257C11.8061 512.666 13.3178 515.799 15.874 518.067L467.988 940.276H468.002Z" fill="white"/>
<path d="M477.744 943.355C474.446 943.355 471.285 942.214 468.729 940.07H468.715L20.325 536.537C17.4665 534.146 15.7074 530.751 15.3776 527.013C15.0477 523.275 16.2021 519.633 18.6071 516.761L422.14 68.3434C424.545 65.4848 427.926 63.7258 431.664 63.3959C435.416 63.0798 439.044 64.2205 441.916 66.6255L890.32 470.159C893.179 472.55 894.938 475.945 895.268 479.683C895.597 483.421 894.443 487.063 892.038 489.935L488.505 938.339C486.1 941.197 482.719 942.956 478.981 943.286C478.569 943.327 478.143 943.341 477.73 943.341L477.744 943.355ZM469.622 939.012C472.22 941.183 475.504 942.228 478.871 941.926C482.252 941.637 485.303 940.043 487.474 937.445L891.007 489.042C893.165 486.472 894.209 483.173 893.907 479.806C893.618 476.426 892.024 473.375 889.427 471.203L441.023 67.67C438.453 65.5123 435.169 64.4679 431.788 64.7702C428.407 65.0588 425.356 66.653 423.185 69.2504L19.6516 517.654C17.494 520.224 16.4495 523.523 16.7519 526.89C17.0405 530.257 18.6346 533.321 21.232 535.493L469.622 939.012Z" fill="white"/>
<path d="M478.996 941.816C475.876 941.816 472.866 940.771 470.379 938.82H470.351L25.6992 553.977C19.6798 549.236 18.6491 540.44 23.4179 534.407L408.261 89.7276C413.016 83.722 421.797 82.6775 427.831 87.4463L872.51 472.289C875.41 474.584 877.265 477.883 877.691 481.593C878.131 485.29 877.1 488.946 874.791 491.873L489.949 936.552C487.654 939.452 484.355 941.307 480.645 941.733C480.095 941.802 479.531 941.83 478.982 941.83L478.996 941.816ZM471.231 937.748C476.673 942.036 484.589 941.101 488.877 935.659L873.719 490.98C875.781 488.368 876.715 485.084 876.317 481.744C875.918 478.405 874.255 475.423 871.617 473.347L426.965 88.5045C421.55 84.2305 413.62 85.165 409.333 90.6072L24.4761 535.273C20.2021 540.688 21.1366 548.617 26.5788 552.905L471.245 937.734L471.231 937.748Z" fill="white"/>
<path d="M480.259 940.304C477.387 940.304 474.501 939.425 472.014 937.583L471.986 937.556L31.0721 571.417C28.1312 569.232 26.1934 566.002 25.6437 562.347C25.094 558.691 26.0147 555.035 28.2136 552.053L394.38 111.112C396.565 108.171 399.795 106.233 403.45 105.683C407.106 105.134 410.761 106.054 413.744 108.253L854.699 474.419C857.64 476.604 859.577 479.834 860.127 483.49C860.677 487.145 859.756 490.801 857.557 493.783L491.405 934.725C488.711 938.366 484.52 940.304 480.287 940.304H480.259ZM472.852 936.484C478.39 940.565 486.21 939.397 490.305 933.872L856.458 492.931C858.423 490.279 859.248 486.994 858.753 483.696C858.258 480.398 856.513 477.484 853.833 475.505L412.892 109.325C410.239 107.36 406.955 106.549 403.656 107.03C400.358 107.525 397.445 109.27 395.466 111.95L29.2993 552.905C27.3341 555.558 26.5095 558.842 27.0042 562.14C27.499 565.439 29.2443 568.352 31.9242 570.331L472.852 936.484Z" fill="white"/>
<path d="M481.497 938.806C478.707 938.806 476 937.968 473.664 936.346L473.622 936.319L36.4465 588.857C33.4643 586.781 31.4303 583.634 30.7844 580.006C30.1248 576.378 30.9218 572.722 33.0245 569.699L380.487 132.482C384.802 126.27 393.405 124.731 399.644 129.06L836.861 476.536C843.059 480.837 844.626 489.44 840.283 495.693L492.807 932.91C490.732 935.893 487.585 937.927 483.957 938.573C483.132 938.724 482.294 938.792 481.483 938.792L481.497 938.806ZM474.461 935.219C477.182 937.102 480.466 937.817 483.723 937.226C486.98 936.635 489.825 934.807 491.708 932.086L839.184 494.869C843.059 489.289 841.658 481.538 836.037 477.635L398.82 130.159C393.24 126.284 385.489 127.686 381.586 133.306L34.1239 570.524C32.2549 573.217 31.5403 576.502 32.1312 579.772C32.7222 583.043 34.55 585.874 37.2711 587.757L474.474 935.219H474.461Z" fill="white"/>
<path d="M482.762 937.294C480.206 937.294 477.608 936.58 475.313 935.082L475.272 935.054L41.8205 606.31C35.5125 602.228 33.6984 593.708 37.8213 587.372L366.607 153.866C368.572 150.828 371.65 148.726 375.224 147.956C378.81 147.187 382.466 147.874 385.545 149.866L819.037 478.652C825.345 482.734 827.159 491.254 823.036 497.59L494.251 931.082C491.654 935.095 487.256 937.294 482.762 937.294ZM476.083 933.955C481.786 937.638 489.427 936.016 493.138 930.299L821.923 496.806C825.593 491.144 823.971 483.476 818.254 479.779L384.761 150.993C382.04 149.221 378.742 148.616 375.512 149.303C372.283 149.99 369.52 151.887 367.734 154.663L38.9345 588.156C35.2651 593.818 36.8868 601.486 42.6038 605.183L476.083 933.955Z" fill="white"/>
<path d="M484.011 935.824C481.551 935.824 479.119 935.151 476.961 933.845L476.92 933.817L47.1926 623.75C44.1142 621.894 41.9154 618.899 41.0496 615.353C40.1838 611.807 40.7335 608.138 42.63 605.018L352.725 175.25C354.58 172.171 357.576 169.972 361.122 169.107C364.668 168.241 368.337 168.791 371.457 170.687L801.225 480.796C807.629 484.658 809.691 493.082 805.802 499.528L495.693 929.296C493.837 932.374 490.841 934.573 487.296 935.439C486.21 935.714 485.097 935.838 484.011 935.838V935.824ZM477.689 932.69C480.493 934.381 483.778 934.876 486.966 934.092C490.154 933.309 492.848 931.33 494.538 928.526L804.647 498.758C806.31 495.996 806.819 492.697 806.035 489.509C805.252 486.321 803.273 483.627 800.469 481.937L370.687 171.814C367.925 170.151 364.626 169.643 361.438 170.426C358.25 171.209 355.556 173.188 353.866 175.992L43.7569 605.774C42.094 608.536 41.5855 611.835 42.3689 615.023C43.1522 618.211 45.1312 620.905 47.9348 622.595L477.676 932.677L477.689 932.69Z" fill="white"/>
<path d="M485.275 934.354C483.008 934.354 480.726 933.79 478.61 932.608L478.555 932.581L52.5657 641.19C49.4461 639.431 47.151 636.531 46.1753 633.026C45.1995 629.522 45.6393 625.839 47.4259 622.678L338.831 196.634C342.486 190.133 350.801 187.811 357.356 191.494L783.4 482.913C786.52 484.658 788.815 487.571 789.791 491.076C790.766 494.58 790.327 498.263 788.54 501.424L497.122 927.468C494.648 931.866 490.016 934.367 485.261 934.367L485.275 934.354ZM479.311 931.426C485.193 934.711 492.655 932.622 495.967 926.74L787.386 500.696C788.952 497.892 789.351 494.594 788.471 491.433C787.592 488.286 785.53 485.661 782.686 484.067L356.641 192.648C350.801 189.378 343.325 191.467 340.013 197.348L48.5803 623.393C47.0136 626.196 46.615 629.494 47.4946 632.655C48.3741 635.802 50.4356 638.427 53.2804 640.035L479.297 931.44L479.311 931.426Z" fill="white"/>
<path d="M486.526 932.897C484.41 932.897 482.266 932.402 480.26 931.357L480.205 931.33L57.9398 658.629C51.3432 655.193 48.7596 646.961 52.2228 640.324L324.951 218.004C326.6 214.843 329.431 212.465 332.894 211.38C336.358 210.28 340.041 210.61 343.257 212.287L765.576 485.015C768.737 486.664 771.115 489.495 772.214 492.958C773.3 496.422 772.984 500.105 771.307 503.32L498.579 925.64C496.188 930.244 491.446 932.897 486.54 932.897H486.526ZM480.919 930.162C483.805 931.66 487.104 931.948 490.209 930.959C493.329 929.983 495.872 927.839 497.383 924.953L770.111 502.633C771.596 499.789 771.884 496.477 770.895 493.371C769.919 490.251 767.775 487.709 764.889 486.197L342.569 213.482C339.725 212.012 336.413 211.71 333.307 212.699C330.187 213.675 327.645 215.819 326.133 218.705L53.4047 641.011C50.3263 646.934 52.6488 654.328 58.627 657.447L480.919 930.162Z" fill="white"/>
<path d="M487.777 931.454C485.798 931.454 483.792 931.027 481.895 930.107L481.84 930.079L63.3136 676.083C60.0978 674.543 57.6378 671.795 56.4422 668.359C55.2465 664.937 55.4527 661.254 57.0194 657.983L311.057 239.388C314.273 232.695 322.409 229.85 329.157 233.094L747.738 487.131C750.954 488.671 753.414 491.419 754.61 494.855C755.805 498.277 755.599 501.96 754.033 505.231L499.995 923.812C497.686 928.622 492.821 931.454 487.777 931.454ZM482.527 928.897C488.588 931.797 495.886 929.227 498.799 923.18L752.837 504.599C755.723 498.593 753.167 491.282 747.092 488.355L328.511 234.303C322.505 231.417 315.194 233.973 312.267 240.048L58.2287 658.629C56.8407 661.515 56.662 664.827 57.734 667.906C58.8059 670.984 61.0185 673.458 63.9595 674.873L482.514 928.897H482.527Z" fill="white"/>
<path d="M489.042 930.038C487.173 930.038 485.318 929.653 483.545 928.87L483.49 928.842L68.7016 693.522C61.9126 690.526 58.8067 682.487 61.8301 675.629L297.178 260.785C298.607 257.528 301.287 254.986 304.667 253.667C308.048 252.361 311.745 252.443 315.057 253.914L729.914 489.261C736.703 492.257 739.809 500.297 736.786 507.155L501.438 922.012C500.009 925.269 497.329 927.812 493.949 929.131C492.354 929.749 490.705 930.052 489.042 930.052V930.038ZM484.136 927.633C487.105 928.938 490.417 929.007 493.454 927.839C496.491 926.657 498.896 924.376 500.215 921.394L735.563 506.536C738.256 500.434 735.453 493.219 729.31 490.498L314.452 255.137C311.525 253.845 308.213 253.763 305.176 254.945C302.139 256.127 299.734 258.408 298.414 261.39L63.0532 676.247C60.3596 682.349 63.1632 689.564 69.3063 692.285L484.136 927.619V927.633Z" fill="white"/>
<path d="M490.305 928.622C488.574 928.622 486.856 928.293 485.207 927.619L485.138 927.592L74.0738 710.962C70.7755 709.629 68.1369 707.032 66.7213 703.692C65.3058 700.353 65.2783 696.656 66.6389 693.289L283.296 282.17C284.629 278.871 287.226 276.233 290.566 274.817C293.905 273.402 297.602 273.374 300.969 274.735L712.102 491.392C718.987 494.168 722.355 502.111 719.551 509.065L502.894 920.198C501.561 923.496 498.964 926.135 495.624 927.551C493.92 928.279 492.12 928.636 490.319 928.636L490.305 928.622ZM485.743 926.369C488.766 927.578 492.065 927.551 495.06 926.272C498.07 924.994 500.393 922.631 501.616 919.607L718.273 508.488C720.774 502.304 717.751 495.157 711.498 492.628L300.392 275.971C297.424 274.776 294.112 274.803 291.102 276.081C288.092 277.359 285.77 279.723 284.547 282.747L67.8757 693.866C66.6801 696.834 66.7076 700.146 67.9857 703.156C69.2638 706.166 71.6276 708.488 74.651 709.712L485.743 926.355V926.369Z" fill="white"/>
<path d="M491.542 927.22C489.976 927.22 488.395 926.946 486.842 926.382L486.774 926.355L79.4611 728.415C72.4797 725.846 68.8516 717.998 71.4353 710.948L269.402 303.553C270.625 300.2 273.14 297.479 276.452 295.953C279.75 294.428 283.447 294.277 286.869 295.541L694.264 493.508C697.617 494.731 700.339 497.246 701.864 500.558C703.389 503.856 703.541 507.567 702.29 510.975L504.323 918.37C502.317 923.826 497.095 927.234 491.556 927.234L491.542 927.22ZM487.351 925.104C493.686 927.413 500.723 924.156 503.045 917.82L701.012 510.425C702.111 507.416 701.988 504.09 700.613 501.121C699.239 498.153 696.793 495.899 693.728 494.758L286.333 296.792C283.324 295.692 279.998 295.816 277.029 297.19C274.061 298.565 271.807 301.011 270.68 304.075L72.6996 711.484C70.3908 717.765 73.6479 724.815 79.9971 727.151L487.365 925.104H487.351Z" fill="white"/>
<path d="M492.793 925.833C491.363 925.833 489.92 925.613 488.491 925.132L488.422 925.104L84.8343 745.855C81.4398 744.729 78.6225 742.296 76.9871 739.039C75.3517 735.782 75.0905 732.071 76.2312 728.608L255.521 324.937C257.871 317.846 265.622 313.971 272.769 316.334L676.426 495.611C679.82 496.738 682.637 499.17 684.273 502.427C685.908 505.684 686.169 509.395 685.029 512.858L505.752 916.515C503.869 922.191 498.523 925.805 492.806 925.805L492.793 925.833ZM488.958 923.84C495.376 925.943 502.33 922.466 504.46 916.048L683.737 512.391C684.754 509.34 684.506 506 683.036 503.073C681.565 500.146 679.037 497.947 675.931 496.916L272.274 317.626C265.897 315.51 258.93 319.014 256.799 325.432L77.523 729.103C76.5061 732.154 76.7534 735.493 78.2239 738.421C79.6944 741.348 82.2231 743.547 85.329 744.577L488.958 923.84Z" fill="white"/>
<path d="M494.086 924.458C492.767 924.458 491.447 924.266 490.155 923.881L490.1 923.854L90.2366 763.295C86.7871 762.265 83.8874 759.915 82.142 756.699C80.3967 753.483 80.0118 749.772 81.0563 746.254L241.642 346.322C243.786 339.134 251.441 334.997 258.683 337.141L658.616 497.727C665.804 499.857 669.954 507.512 667.796 514.768L507.21 914.701C506.18 918.151 503.83 921.05 500.614 922.796C498.58 923.895 496.353 924.458 494.1 924.458H494.086ZM490.568 922.576C493.715 923.51 497.041 923.153 499.927 921.586C502.826 920.02 504.943 917.408 505.877 914.248L666.463 514.315C667.384 511.209 667.04 507.883 665.46 504.984C663.893 502.084 661.282 499.967 658.121 499.033L258.189 338.447C251.73 336.523 244.844 340.261 242.907 346.775L82.3207 746.708C81.3999 749.8 81.7435 753.139 83.3101 756.039C84.8768 758.939 87.488 761.055 90.6489 761.99L490.554 922.562L490.568 922.576Z" fill="white"/>
<path d="M495.335 923.098C494.153 923.098 492.971 922.947 491.79 922.631H491.735L95.5951 780.735C88.3113 778.811 83.8999 771.266 85.8376 763.914L227.733 367.719C229.657 360.422 237.216 356.038 244.555 357.962L640.749 499.857C644.253 500.778 647.236 503.046 649.091 506.234C650.946 509.409 651.441 513.133 650.506 516.692L508.611 912.887C507.69 916.391 505.422 919.374 502.234 921.229C500.104 922.466 497.726 923.112 495.321 923.112L495.335 923.098ZM492.174 921.311C495.363 922.15 498.702 921.696 501.561 920.033C504.419 918.37 506.467 915.677 507.319 912.475L649.215 516.28C650.039 513.133 649.586 509.793 647.923 506.921C646.26 504.063 643.566 502.015 640.364 501.163L244.17 359.267C241.023 358.443 237.683 358.896 234.811 360.559C231.952 362.222 229.905 364.916 229.053 368.118L87.1569 764.312C85.4253 770.868 89.397 777.67 96.0074 779.416L492.174 921.298V921.311Z" fill="white"/>
<path d="M496.572 921.737C495.541 921.737 494.497 921.628 493.452 921.38H493.397L100.996 798.175C93.6022 796.471 88.9434 789.008 90.6612 781.56L213.866 389.103C215.571 381.71 223.047 377.051 230.482 378.769L622.938 501.974C626.497 502.798 629.562 504.984 631.527 508.117C633.493 511.25 634.111 514.975 633.273 518.575L510.067 911.032C508.597 917.381 502.88 921.724 496.586 921.724L496.572 921.737ZM493.782 920.047C500.475 921.586 507.181 917.381 508.734 910.688L631.94 518.232C632.682 515.03 632.118 511.69 630.345 508.859C628.573 506.028 625.81 504.063 622.567 503.307L230.111 380.102C223.445 378.563 216.739 382.768 215.186 389.474L91.9806 781.931C90.4413 788.582 94.6467 795.303 101.353 796.856L493.782 920.047Z" fill="white"/>
<path d="M497.824 920.404C496.917 920.404 496.01 920.322 495.089 920.129H495.048L106.371 815.614C98.8669 814.13 93.9607 806.764 95.4587 799.219L199.974 410.501C200.688 406.886 202.791 403.739 205.897 401.664C209.003 399.589 212.713 398.847 216.369 399.589L605.087 504.104C612.591 505.602 617.497 512.954 615.999 520.499L511.484 909.217C510.179 915.8 504.338 920.404 497.824 920.404ZM495.391 918.796C502.18 920.129 508.804 915.704 510.165 908.915L614.68 520.197C616.027 513.435 611.588 506.811 604.799 505.45L216.08 400.936C212.837 400.29 209.484 400.963 206.68 402.818C203.89 404.687 201.98 407.532 201.334 410.817L96.8192 799.535C95.4724 806.297 99.9114 812.934 106.7 814.281L495.391 918.782V918.796Z" fill="white"/>
<path d="M499.101 919.085C498.318 919.085 497.535 919.016 496.738 918.893H496.696L111.757 833.068C108.088 832.45 104.858 830.429 102.673 827.365C100.502 824.314 99.6361 820.589 100.268 816.879L186.093 431.899C187.371 424.299 194.627 419.118 202.268 420.41L587.248 506.234C594.848 507.512 600.029 514.768 598.738 522.409L512.913 907.39C512.295 911.059 510.274 914.289 507.21 916.474C504.805 918.192 501.987 919.085 499.088 919.085H499.101ZM496.985 917.532C500.311 918.082 503.664 917.312 506.426 915.361C509.189 913.395 511.017 910.468 511.58 907.129L597.404 522.148C598.559 515.291 593.886 508.735 587.001 507.581L202.021 421.756C195.163 420.616 188.608 425.274 187.453 432.16L101.629 817.14C101.079 820.438 101.849 823.805 103.814 826.568C105.779 829.33 108.693 831.158 112.046 831.721L496.999 917.532H496.985Z" fill="white"/>
</g>
<defs>
<clipPath id="clip0_281_1195">
<rect width="948" height="439" fill="white"/>
</clipPath>
</defs>
</svg>
