<svg width="223" height="467" viewBox="0 0 223 467" fill="none" xmlns="http://www.w3.org/2000/svg">
<g opacity="0.2" clip-path="url(#clip0_434_10617)">
<path d="M-301.253 204.496C-301.253 206.543 -300.478 208.59 -298.921 210.143L-44.9748 464.663C-41.8689 467.776 -36.8038 467.776 -33.6979 464.663L220.249 210.151C223.355 207.038 223.355 201.961 220.249 198.849L-33.6979 -55.6638C-36.8038 -58.7766 -41.8689 -58.7766 -44.9748 -55.6638L-298.921 198.849C-300.478 200.409 -301.253 202.456 -301.253 204.496ZM221.821 204.496C221.821 206.345 221.114 208.202 219.71 209.61L-34.2371 464.123C-37.0468 466.939 -41.6259 466.939 -44.4432 464.123L-298.39 209.61C-301.2 206.787 -301.2 202.205 -298.39 199.381L-44.4432 -55.131C-41.6335 -57.947 -37.0544 -57.947 -34.237 -55.131L219.71 199.389C221.114 200.797 221.821 202.654 221.821 204.503L221.821 204.496Z" fill="white"/>
<path d="M-300.401 203.812C-300.401 205.844 -299.641 207.762 -298.244 209.238L-54.6176 461.688C-53.1748 463.218 -51.2156 464.101 -49.1045 464.162C-46.9934 464.223 -44.9886 463.454 -43.4546 462L208.434 217.838C209.968 216.392 210.841 214.429 210.902 212.313C210.97 210.22 210.196 208.188 208.745 206.651L-34.8811 -45.7995C-36.324 -47.3292 -38.2832 -48.2121 -40.3943 -48.273C-42.5054 -48.3339 -44.5102 -47.5651 -46.0441 -46.1115L-297.933 198.058C-299.467 199.504 -300.34 201.468 -300.401 203.583C-300.401 203.659 -300.401 203.736 -300.401 203.812ZM-297.697 208.713C-299.004 207.32 -299.702 205.501 -299.641 203.599C-299.588 201.688 -298.791 199.915 -297.409 198.598L-45.5201 -45.5711C-44.1381 -46.8802 -42.3231 -47.5727 -40.4171 -47.5195C-38.511 -47.4662 -36.7416 -46.6671 -35.4279 -45.2819L208.199 207.176C209.505 208.561 210.188 210.38 210.143 212.29C210.09 214.2 209.292 215.974 207.91 217.29L-43.9862 461.452C-45.3683 462.761 -47.1832 463.454 -49.0893 463.401C-50.9953 463.347 -52.7647 462.548 -54.0784 461.163L-297.705 208.713L-297.697 208.713Z" fill="white"/>
<path d="M-299.543 203.118C-299.543 205.044 -298.845 206.878 -297.561 208.324L-64.2548 458.719C-62.8727 460.279 -60.9515 461.208 -58.8632 461.329C-56.7749 461.451 -54.7625 460.751 -53.2057 459.351L196.617 225.524C199.83 222.655 200.118 217.685 197.248 214.451L-36.0512 -35.9368C-38.9141 -39.1638 -43.8729 -39.4454 -47.1002 -36.5685L-296.931 197.25C-298.488 198.635 -299.414 200.561 -299.536 202.646C-299.543 202.799 -299.551 202.958 -299.551 203.111L-299.543 203.118ZM-296.992 207.822C-298.245 206.406 -298.875 204.587 -298.769 202.707C-298.662 200.82 -297.827 199.084 -296.415 197.829L-46.5839 -35.9901C-43.683 -38.5854 -39.2026 -38.3266 -36.6131 -35.404L196.686 214.968C199.275 217.883 199.017 222.366 196.101 224.961L-53.7221 458.787C-55.127 460.043 -56.9419 460.675 -58.8252 460.568C-60.7085 460.462 -62.4399 459.625 -63.6929 458.209L-296.992 207.829L-296.992 207.822Z" fill="white"/>
<path d="M-298.686 202.426C-298.686 204.253 -298.056 206.004 -296.871 207.419L-296.871 207.427L-73.8922 455.744C-72.5709 457.327 -70.6952 458.301 -68.6297 458.484C-66.5642 458.667 -64.5518 458.027 -62.9646 456.695L184.816 233.22C186.395 231.888 187.367 230.016 187.55 227.945C187.724 225.868 187.094 223.858 185.765 222.268L-37.2138 -26.057C-38.5351 -27.6401 -40.4108 -28.6143 -42.4764 -28.7969C-44.5419 -28.9796 -46.5543 -28.3403 -48.1414 -27.0084L-295.914 196.467C-297.494 197.799 -298.466 199.671 -298.648 201.742C-298.671 201.97 -298.678 202.206 -298.678 202.434L-298.686 202.426ZM-296.286 206.924C-297.486 205.486 -298.063 203.667 -297.896 201.802C-297.737 199.93 -296.856 198.241 -295.421 197.038L-47.6478 -26.4376C-46.2277 -27.6325 -44.4052 -28.2109 -42.5447 -28.0435C-40.6766 -27.8836 -38.9908 -27.0008 -37.7909 -25.5623L185.188 222.763C186.38 224.186 186.957 226.005 186.79 227.877C186.631 229.749 185.75 231.439 184.315 232.641L-63.4583 456.117C-64.8783 457.312 -66.7008 457.89 -68.5613 457.723C-70.4218 457.563 -72.1153 456.68 -73.3151 455.242L-296.286 206.924Z" fill="white"/>
<path d="M-297.837 201.733C-297.837 203.461 -297.26 205.128 -296.181 206.505L-296.181 206.521L-83.5303 452.768C-80.9104 456.101 -76.0503 456.672 -72.7166 454.031L172.998 240.906C176.317 238.273 176.894 233.41 174.259 230.068L-38.3923 -16.1939C-39.6605 -17.7997 -41.483 -18.8272 -43.5334 -19.0632C-45.5761 -19.3067 -47.5961 -18.7359 -49.2136 -17.4572L-294.928 195.668C-296.531 196.939 -297.556 198.765 -297.791 200.82C-297.829 201.125 -297.845 201.437 -297.845 201.741L-297.837 201.733ZM-295.589 206.034C-297.958 203.02 -297.442 198.636 -294.435 196.261L-48.72 -16.8636C-47.2772 -18.0052 -45.4622 -18.5228 -43.6169 -18.3021C-41.7716 -18.0814 -40.1237 -17.1604 -38.9771 -15.6992L173.674 230.548C176.036 233.547 175.519 237.938 172.512 240.313L-73.1951 453.445C-76.187 455.812 -80.5687 455.295 -82.938 452.281L-295.582 206.026L-295.589 206.034Z" fill="white"/>
<path d="M-297.004 201.034C-297.004 202.624 -296.518 204.223 -295.5 205.6L-295.485 205.615L-93.1689 449.792C-91.9615 451.421 -90.1769 452.494 -88.157 452.799C-86.137 453.103 -84.117 452.593 -82.4692 451.375L161.18 248.593C162.805 247.383 163.876 245.595 164.18 243.57C164.484 241.546 163.975 239.521 162.76 237.87L-39.5713 -6.32993C-40.7788 -7.95864 -42.5633 -9.03177 -44.5833 -9.33621C-46.6033 -9.64064 -48.6232 -9.13072 -50.2711 -7.91299L-293.92 194.861C-295.933 196.353 -297.004 198.674 -297.004 201.018L-297.004 201.034ZM-294.892 205.136C-297.148 202.069 -296.502 197.738 -293.45 195.47L-49.8003 -7.30414C-48.3347 -8.39248 -46.5197 -8.84912 -44.6972 -8.57513C-42.8747 -8.30114 -41.2648 -7.33455 -40.1713 -5.85045L162.167 238.342C163.253 239.811 163.701 241.63 163.436 243.456C163.162 245.283 162.198 246.896 160.717 247.992L-82.94 450.774C-84.4056 451.862 -86.2205 452.319 -88.0431 452.045C-89.8656 451.771 -91.4755 450.805 -92.569 449.32L-294.892 205.136Z" fill="white"/>
<path d="M-296.172 200.348C-296.172 201.893 -295.709 203.392 -294.813 204.686L-294.798 204.709L-102.802 446.816C-101.655 448.468 -99.9161 449.594 -97.9113 449.952C-95.9065 450.317 -93.8866 449.876 -92.2159 448.711L149.375 256.287C152.808 253.898 153.658 249.133 151.266 245.678L-40.7371 3.54831C-43.1139 0.115846 -47.8677 -0.751776 -51.3229 1.65323L-292.914 194.084C-294.562 195.234 -295.686 196.977 -296.043 198.986C-296.127 199.442 -296.164 199.907 -296.164 200.356L-296.172 200.348ZM-294.19 204.245C-295.23 202.738 -295.625 200.919 -295.299 199.115C-294.972 197.311 -293.962 195.736 -292.459 194.693L-50.8673 2.26209C-47.7842 0.115844 -43.5012 0.892128 -41.3446 4.00494L150.659 246.135C152.8 249.225 152.026 253.517 148.92 255.679L-92.6716 448.102C-94.16 449.137 -95.9749 449.533 -97.7822 449.206C-99.5896 448.879 -101.154 447.866 -102.194 446.359L-294.19 204.237L-294.19 204.245Z" fill="white"/>
<path d="M-295.339 199.648C-295.339 201.063 -294.945 202.502 -294.117 203.773L-294.102 203.796L-112.449 443.84C-110.193 447.333 -105.485 448.338 -101.984 446.055L137.557 263.974C139.235 262.886 140.397 261.181 140.822 259.202C141.247 257.216 140.868 255.191 139.767 253.486L-41.9092 13.4193C-44.1646 9.92592 -48.8728 8.92127 -52.3735 11.2045L-291.907 193.285C-294.124 194.723 -295.339 197.159 -295.339 199.648ZM-293.494 203.347C-295.529 200.188 -294.633 195.956 -291.474 193.902L-51.9407 11.821C-48.812 9.7889 -44.5746 10.687 -42.5319 13.853L139.144 253.92C140.123 255.427 140.458 257.254 140.078 259.042C139.698 260.831 138.65 262.361 137.116 263.35L-102.417 445.438C-105.546 447.47 -109.783 446.572 -111.826 443.406L-293.494 203.347Z" fill="white"/>
<path d="M-294.523 198.956C-294.523 200.318 -294.151 201.665 -293.43 202.86L-293.415 202.883L-122.082 440.865C-121.056 442.57 -119.401 443.787 -117.442 444.267C-115.483 444.746 -113.455 444.442 -111.731 443.392L125.744 271.662C127.445 270.634 128.66 268.975 129.139 267.012C129.617 265.048 129.313 263.016 128.266 261.288L-43.0901 23.2836C-45.224 19.737 -49.8791 18.5953 -53.4406 20.7492L-290.916 192.487C-292.617 193.514 -293.832 195.173 -294.311 197.137C-294.462 197.738 -294.531 198.355 -294.531 198.956L-294.523 198.956ZM-292.792 202.457C-293.726 200.904 -293.999 199.085 -293.566 197.32C-293.134 195.554 -292.04 194.062 -290.491 193.126L-53.0153 21.3885C-51.489 20.4676 -49.6664 20.186 -47.9047 20.6198C-46.1429 21.0536 -44.6545 22.1496 -43.7204 23.7022L127.643 261.714C128.562 263.244 128.843 265.071 128.41 266.837C127.977 268.602 126.883 270.094 125.334 271.03L-112.149 442.768C-113.675 443.688 -115.498 443.97 -117.259 443.536C-119.021 443.102 -120.51 442.006 -121.444 440.454L-292.784 202.464L-292.792 202.457Z" fill="white"/>
<path d="M-293.712 198.256C-293.712 199.512 -293.401 200.775 -292.748 201.947L-292.733 201.978L-131.72 437.889C-130.748 439.617 -129.145 440.888 -127.209 441.428C-125.272 441.969 -123.237 441.725 -121.491 440.736L113.927 279.356C117.519 277.332 118.802 272.727 116.767 269.097L-44.2611 33.155C-45.2255 31.4273 -46.8354 30.1563 -48.7718 29.6159C-50.7083 29.0756 -52.7434 29.3191 -54.49 30.3085L-289.908 191.695C-292.338 193.065 -293.72 195.63 -293.72 198.263L-293.712 198.256ZM-292.095 201.559C-293.91 198.302 -292.755 194.169 -289.505 192.335L-54.0875 30.9478C-52.5384 30.0802 -50.7159 29.8595 -48.9693 30.3466C-47.2303 30.8337 -45.7799 31.9753 -44.899 33.5507L116.129 269.493C117.936 272.727 116.782 276.868 113.532 278.702L-121.886 440.096C-123.435 440.964 -125.257 441.185 -127.004 440.698C-128.743 440.211 -130.193 439.069 -131.082 437.493L-292.102 201.567L-292.095 201.559Z" fill="white"/>
<path d="M-292.914 197.563C-292.914 198.735 -292.641 199.922 -292.063 201.033L-292.048 201.064L-141.363 434.913C-139.465 438.566 -134.916 439.997 -131.248 438.079L102.112 287.043C103.858 286.13 105.172 284.562 105.772 282.644C106.379 280.726 106.197 278.686 105.271 276.905L-45.4297 43.0258C-46.3409 41.2753 -47.9053 39.9587 -49.8189 39.3498C-51.7326 38.7485 -53.7677 38.9236 -55.5447 39.8521L-288.904 190.888C-291.448 192.213 -292.914 194.838 -292.914 197.555L-292.914 197.563ZM-291.403 200.668C-292.23 199.07 -292.39 197.243 -291.843 195.523C-291.304 193.796 -290.119 192.388 -288.525 191.55L-55.165 40.5143C-53.5931 39.6923 -51.7629 39.5325 -50.0467 40.0804C-48.3229 40.6208 -46.9181 41.8081 -46.0827 43.4064L104.61 277.286C105.423 278.861 105.59 280.696 105.043 282.416C104.504 284.143 103.319 285.551 101.724 286.388L-131.628 437.425C-134.901 439.129 -138.986 437.843 -140.71 434.533L-291.403 200.668Z" fill="white"/>
<path d="M-292.108 196.87C-292.108 197.966 -291.873 199.077 -291.364 200.128L-291.349 200.158L-150.999 431.937C-150.148 433.718 -148.629 435.08 -146.731 435.742C-144.84 436.405 -142.805 436.29 -140.998 435.423L90.3041 294.737C94.0023 292.956 95.5742 288.451 93.7821 284.714L-46.5906 52.9044C-47.4411 51.1235 -48.9599 49.7612 -50.8583 49.099C-52.7492 48.4369 -54.7844 48.5511 -56.5917 49.4187L-287.886 190.104C-290.544 191.383 -292.108 194.077 -292.108 196.87ZM-290.696 199.778C-292.298 196.421 -290.878 192.38 -287.536 190.766L-56.2424 50.0809C-52.9239 48.4826 -48.8839 49.8982 -47.2665 53.2622L93.1138 285.072C94.7085 288.398 93.2961 292.447 89.9396 294.068L-141.355 434.753C-142.949 435.522 -144.779 435.621 -146.48 435.027C-148.181 434.433 -149.548 433.208 -150.33 431.579L-290.696 199.785L-290.696 199.778Z" fill="white"/>
<path d="M-291.327 196.17C-291.327 197.205 -291.114 198.232 -290.681 199.214L-290.666 199.244L-160.636 428.953C-158.981 432.713 -154.539 434.433 -150.749 432.759L78.4793 302.424C80.2791 301.632 81.6839 300.148 82.413 298.276C83.1344 296.404 83.0888 294.356 82.2763 292.522L-47.7688 62.7753C-49.4242 59.0156 -53.8666 57.2955 -57.656 58.9699L-286.892 189.305C-288.692 190.096 -290.097 191.58 -290.826 193.453C-291.167 194.335 -291.335 195.249 -291.335 196.17L-291.327 196.17ZM-289.998 198.887C-290.719 197.243 -290.757 195.409 -290.112 193.727C-289.459 192.045 -288.198 190.713 -286.55 189.982L-57.3142 59.6473C-53.9426 58.1555 -49.9558 59.7081 -48.4522 63.1102L81.6004 292.857C82.3142 294.478 82.3598 296.312 81.7067 297.994C81.0537 299.676 79.7931 301.008 78.1452 301.739L-151.091 432.081C-154.463 433.573 -158.449 432.02 -159.953 428.618L-289.99 198.887L-289.998 198.887Z" fill="white"/>
<path d="M-290.549 195.47C-290.549 196.429 -290.366 197.38 -289.994 198.294L-289.979 198.332L-170.277 425.978C-169.54 427.805 -168.105 429.266 -166.26 430.05C-164.415 430.834 -162.372 430.849 -160.511 430.096L66.6594 310.111C68.4819 309.373 69.9399 307.935 70.7221 306.085C71.5042 304.236 71.5194 302.189 70.7676 300.324L-48.9497 72.6395C-50.4837 68.8265 -54.873 66.9619 -58.7155 68.5145L-285.894 188.499C-287.716 189.237 -289.174 190.675 -289.956 192.525C-290.359 193.468 -290.556 194.465 -290.556 195.462L-290.549 195.47ZM-289.303 197.997C-289.972 196.322 -289.956 194.496 -289.25 192.837C-288.544 191.17 -287.238 189.884 -285.567 189.206L-58.3965 69.2223C-54.9793 67.8371 -51.0304 69.5115 -49.6332 72.9744L70.0842 300.644C70.7449 302.288 70.7297 304.122 70.0234 305.789C69.3172 307.455 68.0111 308.741 66.3404 309.419L-160.83 429.411C-162.471 430.073 -164.301 430.057 -165.964 429.35C-167.627 428.642 -168.91 427.333 -169.586 425.658L-289.296 197.997L-289.303 197.997Z" fill="white"/>
<path d="M-289.773 194.785C-289.773 195.653 -289.621 196.528 -289.309 197.388L-289.294 197.426L-179.92 422.995C-178.5 426.861 -174.163 428.87 -170.268 427.439L54.8449 317.806C56.6978 317.129 58.2014 315.736 59.0443 313.902C59.8872 312.075 59.9708 310.028 59.2721 308.133L-50.1176 82.5183C-50.7934 80.6612 -52.1831 79.1543 -54.0132 78.3095C-55.8358 77.4647 -57.8861 77.381 -59.7694 78.0736L-284.882 187.707C-287.897 188.818 -289.78 191.71 -289.78 194.777L-289.773 194.785ZM-288.603 197.106C-289.879 193.598 -288.079 189.701 -284.578 188.415L-59.4656 78.7814C-57.8026 78.1725 -55.9649 78.241 -54.3246 79.0021C-52.6843 79.7632 -51.4389 81.1179 -50.8086 82.8151L58.5811 308.429C59.1886 310.096 59.1203 311.938 58.3609 313.582C57.6015 315.226 56.2498 316.474 54.5563 317.098L-170.564 426.739C-174.034 428.018 -177.93 426.214 -179.221 422.698L-288.603 197.099L-288.603 197.106Z" fill="white"/>
<path d="M-289.007 194.093C-289.007 194.884 -288.886 195.683 -288.62 196.475L-288.605 196.513L-189.558 420.019C-188.935 421.899 -187.591 423.459 -185.792 424.365C-183.992 425.27 -181.941 425.415 -180.028 424.783L43.0269 325.493C46.9454 324.192 49.0869 319.899 47.7807 315.941L-51.2813 92.3973C-51.904 90.5174 -53.2481 88.9572 -55.0479 88.0515C-56.8476 87.1458 -58.898 87.0012 -60.8116 87.6329L-283.859 186.916C-286.995 187.958 -288.992 190.919 -288.992 194.085L-289.007 194.093ZM-287.906 196.216C-289.068 192.662 -287.147 188.811 -283.601 187.631L-60.5534 88.3483C-58.8676 87.7851 -57.0223 87.9221 -55.4048 88.7365C-53.7873 89.5508 -52.5723 90.9512 -52.0027 92.6713L47.0669 316.215C48.2364 319.747 46.2999 323.606 42.7536 324.785L-180.301 424.068C-181.987 424.631 -183.832 424.494 -185.45 423.68C-187.067 422.865 -188.282 421.465 -188.852 419.745L-287.906 196.216Z" fill="white"/>
<path d="M-288.243 193.377C-288.243 194.107 -288.137 194.838 -287.924 195.553L-287.909 195.584L-199.19 417.027C-198.62 418.938 -197.321 420.543 -195.545 421.51C-193.768 422.477 -191.717 422.69 -189.773 422.111L31.2161 333.179C35.1877 331.992 37.4734 327.753 36.2888 323.742L-52.4456 102.26C-53.6227 98.2797 -57.8524 95.9812 -61.862 97.1761L-282.851 186.108C-284.757 186.679 -286.36 187.98 -287.324 189.761C-287.932 190.888 -288.243 192.121 -288.243 193.369L-288.243 193.377ZM-287.203 195.325C-287.719 193.582 -287.521 191.74 -286.656 190.142C-285.79 188.536 -284.347 187.364 -282.601 186.846L-61.6114 97.9144C-59.8952 97.4045 -58.0575 97.5947 -56.4552 98.47C-54.8529 99.3376 -53.6834 100.784 -53.167 102.534L35.5673 324.016C36.6305 327.593 34.565 331.406 30.9655 332.479L-190.024 421.411C-191.732 421.921 -193.578 421.731 -195.18 420.863C-196.782 419.995 -197.952 418.549 -198.468 416.799L-287.195 195.332L-287.203 195.325Z" fill="white"/>
<path d="M-287.494 192.685C-287.494 193.339 -287.411 193.994 -287.236 194.648L-287.236 194.679L-208.829 414.06C-207.766 418.093 -203.597 420.536 -199.534 419.463L19.3893 340.882C23.4216 339.816 25.8441 335.631 24.781 331.566L-53.6257 112.155C-54.1345 110.214 -55.3875 108.563 -57.1493 107.535C-58.9035 106.508 -60.9614 106.234 -62.9282 106.751L-281.852 185.333C-283.788 185.843 -285.436 187.098 -286.461 188.864C-287.145 190.044 -287.502 191.36 -287.502 192.692L-287.494 192.685ZM-286.507 194.435C-286.97 192.669 -286.72 190.82 -285.801 189.237C-284.882 187.654 -283.393 186.52 -281.624 186.048L-62.7004 107.467C-60.9614 107.01 -59.1161 107.261 -57.529 108.182C-55.9495 109.103 -54.818 110.595 -54.3472 112.368L24.0595 331.779C24.5152 333.522 24.2646 335.372 23.3457 336.962C22.4269 338.545 20.9385 339.679 19.1691 340.151L-199.755 418.733C-203.377 419.692 -207.136 417.492 -208.1 413.831L-286.499 194.435L-286.507 194.435Z" fill="white"/>
<path d="M-286.747 192C-286.747 192.571 -286.686 193.149 -286.549 193.727L-286.549 193.758L-218.47 411.069C-217.529 415.163 -213.405 417.743 -209.289 416.792L7.56894 348.561C11.6544 347.618 14.2288 343.477 13.2796 339.36L-54.7995 122.019C-55.2551 120.047 -56.4626 118.35 -58.194 117.262C-59.9254 116.173 -61.9833 115.831 -63.9729 116.295L-280.831 184.526C-284.339 185.34 -286.739 188.506 -286.739 191.992L-286.747 192ZM-285.813 193.545C-286.663 189.838 -284.339 186.124 -280.641 185.264L-63.783 117.033C-62.0137 116.622 -60.1684 116.934 -58.604 117.916C-57.0397 118.898 -55.9538 120.428 -55.5361 122.224L12.5429 339.565C13.3935 343.257 11.0697 346.971 7.36392 347.831L-209.494 416.061C-213.17 416.914 -216.883 414.585 -217.741 410.871L-285.813 193.545Z" fill="white"/>
<path d="M-286.002 191.306C-286.002 191.809 -285.957 192.311 -285.851 192.821L-285.851 192.844L-228.099 408.092C-227.279 412.248 -223.209 414.965 -219.04 414.135L-4.24714 356.255C-2.24995 355.859 -0.51094 354.695 0.635735 352.975C1.78241 351.255 2.19246 349.2 1.78239 347.175L-55.969 131.904C-56.7967 127.749 -60.8594 125.032 -65.0285 125.861L-279.821 183.741C-283.459 184.464 -286.002 187.699 -286.002 191.306ZM-285.114 192.654C-285.851 188.894 -283.405 185.225 -279.654 184.472L-64.8614 126.592C-61.1252 125.846 -57.465 128.304 -56.7132 132.064L1.03821 347.335C1.39512 349.131 1.02303 350.989 -0.00214762 352.541C-1.03491 354.086 -2.60685 355.144 -4.42179 355.502L-219.214 413.382C-222.951 414.128 -226.618 411.669 -227.363 407.91L-285.106 192.654L-285.114 192.654Z" fill="white"/>
</g>
<defs>
<clipPath id="clip0_434_10617">
<rect width="525" height="242.577" fill="white" transform="matrix(4.37114e-08 -1 -1 -4.37114e-08 222.578 467)"/>
</clipPath>
</defs>
</svg>
