<svg width="60" height="60" viewBox="0 0 60 60" fill="none" xmlns="http://www.w3.org/2000/svg">
<g clip-path="url(#clip0_434_2022)">
<path d="M30 1.00684C46.0067 1.00684 58.9933 13.9934 58.9933 30.0001C58.9933 41.6981 52.0671 51.7854 42.0805 56.376" stroke="white" stroke-linecap="round" stroke-linejoin="round"/>
<path d="M29.9991 58.9933C13.9924 58.9933 1.00586 46.0067 1.00586 30C1.00586 18.4027 7.81123 8.39601 17.6569 3.76514" stroke="white" stroke-linecap="round" stroke-linejoin="round"/>
<path d="M11.6367 1.67139L18.9052 2.81904L17.8381 9.62441" stroke="white" stroke-linecap="round" stroke-linejoin="round"/>
<path d="M47.8993 58.6308L40.6309 57.4831L41.698 50.6777" stroke="white" stroke-linecap="round" stroke-linejoin="round"/>
<path d="M29.9993 49.168C40.3185 49.168 48.6838 40.8026 48.6838 30.4834C48.6838 20.1642 40.3185 11.7988 29.9993 11.7988C19.6801 11.7988 11.3147 20.1642 11.3147 30.4834C11.3147 40.8026 19.6801 49.168 29.9993 49.168Z" stroke="white" stroke-linecap="round" stroke-linejoin="round"/>
<path d="M20.6172 31.1274L26.436 36.9663L39.3823 24.02" stroke="white" stroke-linecap="round" stroke-linejoin="round"/>
</g>
<defs>
<clipPath id="clip0_434_2022">
<rect width="60" height="60" fill="white"/>
</clipPath>
</defs>
</svg>
