<svg width="60" height="60" viewBox="0 0 60 60" fill="none" xmlns="http://www.w3.org/2000/svg">
<g clip-path="url(#clip0_434_2429)">
<path d="M30 1.00684V58.9934" stroke="white" stroke-linecap="round" stroke-linejoin="round"/>
<path d="M1.69116 23.7183C1.69116 23.7183 4.38915 32.2753 29.9999 32.2753C55.6106 32.2753 58.3086 23.7183 58.3086 23.7183" stroke="white" stroke-linecap="round" stroke-linejoin="round"/>
<path d="M29.9999 58.9934C46.0124 58.9934 58.9932 46.0127 58.9932 30.0001C58.9932 13.9876 46.0124 1.00684 29.9999 1.00684C13.9873 1.00684 1.00659 13.9876 1.00659 30.0001C1.00659 46.0127 13.9873 58.9934 29.9999 58.9934Z" stroke="white" stroke-linecap="round" stroke-linejoin="round"/>
<path d="M30.0001 58.9934C38.3177 58.9934 45.0605 46.0127 45.0605 30.0001C45.0605 13.9876 38.3177 1.00684 30.0001 1.00684C21.6825 1.00684 14.9397 13.9876 14.9397 30.0001C14.9397 46.0127 21.6825 58.9934 30.0001 58.9934Z" stroke="white" stroke-linecap="round" stroke-linejoin="round"/>
<path d="M2.37573 38.8389C2.37573 38.8389 9.54352 46.3288 29.9999 46.3288C50.4563 46.3288 57.6241 38.8389 57.6241 38.8389" stroke="white" stroke-linecap="round" stroke-linejoin="round"/>
<path d="M7.30884 11.96C7.30884 11.96 9.16119 17.0741 30.0001 17.0741C50.839 17.0741 52.6914 11.96 52.6914 11.96" stroke="white" stroke-linecap="round" stroke-linejoin="round"/>
</g>
<defs>
<clipPath id="clip0_434_2429">
<rect width="60" height="60" fill="white"/>
</clipPath>
</defs>
</svg>
