<svg width="60" height="60" viewBox="0 0 60 60" fill="none" xmlns="http://www.w3.org/2000/svg">
<g clip-path="url(#clip0_434_2424)">
<path d="M30.01 13.9473C21.1507 13.9473 13.9475 21.1505 13.9475 30.0098C13.9475 38.8691 21.1507 46.0723 30.01 46.0723C38.8694 46.0723 46.0726 38.8691 46.0726 30.0098C46.0726 21.1505 38.8694 13.9473 30.01 13.9473Z" stroke="white" stroke-linecap="round" stroke-linejoin="round"/>
<path d="M22.1682 29.8703L27.3162 34.9185L37.6122 24.7622" stroke="white" stroke-linecap="round" stroke-linejoin="round"/>
<path d="M34.719 3.11252L38.151 6.96353C38.7496 7.64195 39.6276 8.00111 40.5255 7.94125L45.6735 7.64195C49.4447 7.42246 52.5773 10.5352 52.3579 14.3264L52.0586 19.4743C51.9987 20.3722 52.3778 21.2502 53.0363 21.8488L56.8873 25.2808C59.7007 27.7949 59.7007 32.2046 56.8873 34.7188L53.0363 38.1508C52.3579 38.7494 51.9987 39.6273 52.0586 40.5252L52.3579 45.6732C52.5773 49.4444 49.4646 52.5771 45.6735 52.3576L40.5255 52.0583C39.6276 51.9985 38.7496 52.3776 38.151 53.036L34.719 56.887C32.2049 59.7005 27.7952 59.7005 25.281 56.887L21.849 53.036C21.2504 52.3576 20.3725 51.9985 19.4746 52.0583L14.3266 52.3576C10.5554 52.5771 7.42271 49.4644 7.64219 45.6732L7.9415 40.5252C8.00136 39.6273 7.62224 38.7494 6.96378 38.1508L3.11276 34.7188C0.299327 32.2046 0.299327 27.7949 3.11276 25.2808L6.96378 21.8488C7.64219 21.2502 8.00136 20.3722 7.9415 19.4743L7.64219 14.3264C7.42271 10.5552 10.5354 7.42246 14.3266 7.64195L19.4746 7.94125C20.3725 8.00111 21.2504 7.622 21.849 6.96353L25.281 3.11252C27.7952 0.299083 32.2049 0.299083 34.719 3.11252Z" stroke="white" stroke-linecap="round" stroke-linejoin="round"/>
</g>
<defs>
<clipPath id="clip0_434_2424">
<rect width="60" height="60" fill="white"/>
</clipPath>
</defs>
</svg>
