<svg width="483" height="1167" viewBox="0 0 483 1167" fill="none" xmlns="http://www.w3.org/2000/svg">
<g opacity="0.2" clip-path="url(#clip0_434_1984)">
<path d="M685.703 1033.49C689.294 1032.61 692.552 1030.37 694.605 1026.97L1031.81 471.335C1035.94 464.54 1033.76 455.636 1026.96 451.512L471.334 114.319C464.538 110.195 455.634 112.373 451.51 119.169L114.317 674.797C110.193 681.593 112.371 690.496 119.167 694.62L674.795 1031.81C678.201 1033.88 682.125 1034.36 685.703 1033.49ZM460.739 113.982C463.983 113.189 467.544 113.633 470.618 115.499L1026.25 452.692C1032.39 456.422 1034.36 464.472 1030.64 470.633L693.442 1026.26C689.698 1032.41 681.662 1034.38 675.501 1030.65L119.873 693.457C113.725 689.727 111.756 681.677 115.483 675.516L452.69 119.885C454.555 116.811 457.509 114.773 460.752 113.979L460.739 113.982Z" fill="white"/>
<path d="M684.136 1032.27C687.7 1031.4 690.738 1029.24 692.726 1026.15L1030.74 489.552C1032.8 486.359 1033.51 482.536 1032.71 478.799C1031.91 475.062 1029.7 471.867 1026.49 469.795L489.898 131.777C486.702 129.701 482.883 129.009 479.145 129.81C475.445 130.588 472.214 132.822 470.141 136.031L132.127 672.633C130.065 675.825 129.359 679.648 130.16 683.386C130.961 687.123 133.172 690.317 136.381 692.39L672.983 1030.4C676.179 1032.48 679.998 1033.17 683.736 1032.37C683.869 1032.34 684.002 1032.31 684.136 1032.27ZM691.57 1025.42C689.689 1028.31 686.799 1030.32 683.436 1031.03C680.062 1031.76 676.609 1031.12 673.705 1029.25L137.104 691.237C134.213 689.369 132.218 686.476 131.491 683.102C130.765 679.729 131.406 676.275 133.27 673.372L471.297 136.767C473.165 133.876 476.062 131.894 479.432 131.155C482.806 130.428 486.259 131.069 489.163 132.934L1025.75 470.964C1028.64 472.832 1030.64 475.725 1031.37 479.099C1032.09 482.472 1031.45 485.926 1029.59 488.829L691.573 1025.43L691.57 1025.42Z" fill="white"/>
<path d="M682.547 1031.06C685.925 1030.24 688.842 1028.22 690.826 1025.34L1029.67 507.766C1031.82 504.667 1032.62 500.891 1031.93 497.168C1031.25 493.445 1029.16 490.208 1026.03 488.072L508.458 149.251C502.044 144.835 493.203 146.461 488.764 152.895L149.926 670.456C145.497 676.874 147.136 685.711 153.57 690.15L671.132 1028.99C674.231 1031.13 678.007 1031.93 681.717 1031.25C681.987 1031.2 682.27 1031.14 682.537 1031.08L682.547 1031.06ZM689.7 1024.56C687.756 1027.37 684.836 1029.26 681.493 1029.88C678.137 1030.5 674.734 1029.78 671.924 1027.83L154.363 688.994C148.563 685.009 147.09 677.022 151.102 671.215L489.914 153.66C493.913 147.858 501.886 146.388 507.693 150.4L1025.26 489.221C1028.07 491.152 1029.96 494.072 1030.58 497.428C1031.21 500.784 1030.48 504.187 1028.54 506.997L689.713 1024.56L689.7 1024.56Z" fill="white"/>
<path d="M680.972 1029.86C684.175 1029.08 686.975 1027.22 688.948 1024.53L688.961 1024.53L1028.61 525.996C1030.82 522.994 1031.72 519.279 1031.15 515.569C1030.58 511.86 1028.59 508.597 1025.58 506.378L527.038 166.706C524.022 164.501 520.32 163.596 516.611 164.164C512.891 164.748 509.638 166.719 507.42 169.737L167.761 668.272C165.553 671.274 164.651 674.989 165.219 678.699C165.787 682.408 167.774 685.671 170.792 687.89L669.327 1027.55C672.343 1029.75 676.044 1030.66 679.754 1030.09C680.164 1030.03 680.581 1029.95 680.982 1029.85L680.972 1029.86ZM687.829 1023.72C685.822 1026.44 682.88 1028.24 679.537 1028.74C676.185 1029.27 672.842 1028.44 670.116 1026.44L171.581 686.777C168.875 684.794 167.076 681.838 166.57 678.496C166.047 675.143 166.87 671.801 168.877 669.074L508.536 170.539C510.519 167.833 513.462 166.038 516.817 165.528C520.17 165.005 523.512 165.828 526.239 167.835L1024.77 507.494C1027.48 509.478 1029.28 512.433 1029.78 515.776C1030.3 519.115 1029.48 522.471 1027.48 525.197L687.829 1023.72Z" fill="white"/>
<path d="M679.391 1028.67C682.421 1027.93 685.096 1026.2 687.049 1023.71L687.075 1023.7L1027.53 544.214C1032.25 538.178 1031.16 529.389 1025.1 524.662L545.602 184.179C539.556 179.476 530.777 180.548 526.05 186.614L185.568 666.109C183.296 669.027 182.278 672.672 182.746 676.378C183.197 680.073 185.067 683.379 188.006 685.674L667.5 1026.16C670.419 1028.43 674.064 1029.45 677.769 1028.98C678.319 1028.91 678.873 1028.81 679.407 1028.68L679.391 1028.67ZM685.966 1022.87C681.699 1028.33 673.788 1029.3 668.329 1025.03L188.835 684.551C186.212 682.505 184.523 679.537 184.117 676.198C183.71 672.859 184.617 669.567 186.687 666.925L527.143 187.436C531.387 181.998 539.311 181.021 544.77 185.288L1024.27 525.755C1029.71 529.999 1030.69 537.923 1026.42 543.381L685.95 1022.86L685.966 1022.87Z" fill="white"/>
<path d="M677.802 1027.5C680.592 1026.82 683.186 1025.28 685.165 1022.9L685.185 1022.86L1026.46 562.431C1028.79 559.609 1029.91 556.012 1029.57 552.33C1029.24 548.649 1027.47 545.317 1024.63 542.942L564.165 201.652C561.344 199.315 557.746 198.2 554.065 198.535C550.383 198.869 547.051 200.633 544.677 203.477L203.373 663.945C201.036 666.767 199.921 670.364 200.256 674.046C200.59 677.727 202.354 681.059 205.198 683.434L665.65 1024.73C669.132 1027.62 673.664 1028.51 677.775 1027.5L677.802 1027.5ZM684.089 1022.03C679.679 1027.31 671.806 1028.03 666.515 1023.64L206.064 682.345C203.524 680.235 201.943 677.241 201.64 673.919C201.336 670.598 202.339 667.353 204.472 664.794L545.759 204.316C547.868 201.777 550.866 200.208 554.184 199.892C557.506 199.589 560.751 200.592 563.31 202.724L1023.78 544.028C1026.32 546.137 1027.9 549.132 1028.2 552.453C1028.51 555.775 1027.5 559.019 1025.37 561.579L684.089 1022.03Z" fill="white"/>
<path d="M676.243 1026.34C678.953 1025.67 681.383 1024.22 683.267 1022.09L683.301 1022.05L1025.38 580.648C1027.78 577.923 1029.01 574.383 1028.77 570.705C1028.55 567.024 1026.91 563.663 1024.15 561.226L582.738 219.108C577.07 214.1 568.348 214.649 563.316 220.337L221.201 661.762C216.203 667.413 216.726 676.142 222.43 681.184L663.855 1023.3C666.58 1025.7 670.12 1026.93 673.798 1026.69C674.635 1026.65 675.465 1026.51 676.253 1026.32L676.243 1026.34ZM682.225 1021.18C680.029 1023.66 677.009 1025.13 673.705 1025.33C670.4 1025.53 667.203 1024.43 664.727 1022.24L223.302 680.122C218.212 675.623 217.731 667.761 222.264 662.634L564.378 221.209C568.877 216.118 576.739 215.638 581.866 220.17L1023.28 562.288C1025.73 564.46 1027.21 567.481 1027.41 570.798C1027.61 574.116 1026.51 577.3 1024.32 579.776L682.212 1021.18L682.225 1021.18Z" fill="white"/>
<path d="M674.657 1025.17C677.14 1024.56 679.493 1023.25 681.366 1021.25L681.4 1021.21L1024.31 598.879C1029.47 593.415 1029.2 584.707 1023.69 579.533L601.304 236.581C598.673 234.098 595.183 232.787 591.53 232.889C587.862 232.994 584.475 234.53 581.958 237.197L239.02 659.582C233.862 665.046 234.125 673.753 239.636 678.928L662.021 1021.87C665.497 1025.15 670.291 1026.24 674.657 1025.17ZM680.351 1020.34C675.686 1025.27 667.879 1025.51 662.916 1020.84L240.531 677.902C235.621 673.274 235.374 665.44 240.048 660.49L582.987 238.105C585.209 235.737 588.269 234.366 591.569 234.266C594.87 234.165 598.004 235.351 600.399 237.623L1022.8 580.558C1027.71 585.186 1027.95 593.021 1023.28 597.97L680.351 1020.34Z" fill="white"/>
<path d="M673.091 1024.04C675.481 1023.45 677.683 1022.22 679.469 1020.44L679.503 1020.4L1023.23 617.096C1025.78 614.562 1027.2 611.129 1027.2 607.479C1027.2 603.829 1025.8 600.396 1023.21 597.816L619.867 254.054C617.333 251.504 613.901 250.08 610.251 250.082C606.601 250.084 603.167 251.49 600.588 254.073L256.828 657.432C251.525 662.705 251.525 671.378 256.835 676.714L660.193 1020.47C662.727 1023.02 666.159 1024.45 669.809 1024.45C670.929 1024.45 672.04 1024.31 673.094 1024.05L673.091 1024.04ZM678.487 1019.49C676.166 1021.8 673.093 1023.06 669.81 1023.06C666.526 1023.06 663.44 1021.77 661.131 1019.45L257.773 675.692C255.501 673.404 254.224 670.321 254.227 667.038C254.23 663.755 255.512 660.668 257.834 658.36L601.603 254.985C603.891 252.713 606.974 251.436 610.257 251.439C613.541 251.442 616.627 252.724 618.935 255.046L1022.3 598.818C1024.57 601.106 1025.85 604.189 1025.84 607.472C1025.84 610.756 1024.56 613.842 1022.24 616.151L678.497 1019.48L678.487 1019.49Z" fill="white"/>
<path d="M671.518 1022.91C673.72 1022.37 675.802 1021.28 677.577 1019.63L677.624 1019.59L1022.16 635.313C1024.77 632.863 1026.31 629.501 1026.43 625.865C1026.54 622.229 1025.24 618.756 1022.75 616.11L638.449 271.523C633.353 266.078 624.725 265.798 619.233 270.933L274.649 655.251C272.034 657.688 270.497 661.064 270.382 664.7C270.267 668.335 271.569 671.809 274.056 674.454L658.374 1019.04C661.822 1022.72 666.915 1024.05 671.534 1022.92L671.518 1022.91ZM676.616 1018.65C671.683 1023.24 663.938 1022.98 659.323 1018.06L275.004 673.472C272.816 671.122 271.645 668.012 271.748 664.733C271.855 661.467 273.233 658.428 275.618 656.203L620.201 271.885C625.097 267.32 632.856 267.572 637.471 272.498L1021.8 617.078C1023.99 619.429 1025.16 622.538 1025.06 625.818C1024.95 629.084 1023.57 632.123 1021.19 634.361L676.632 1018.66L676.616 1018.65Z" fill="white"/>
<path d="M669.955 1021.79C672.011 1021.29 673.976 1020.3 675.677 1018.81L675.723 1018.77L1021.08 653.53C1026.68 648.625 1027.23 640.015 1022.29 634.39L657.009 288.982C654.656 286.304 651.341 284.667 647.719 284.436C644.093 284.191 640.594 285.387 637.869 287.779L292.461 653.058C289.783 655.411 288.146 658.726 287.901 662.351C287.67 665.973 288.852 669.476 291.245 672.201L656.523 1017.61C659.94 1021.51 665.176 1022.96 669.942 1021.8L669.955 1021.79ZM674.752 1017.8C672.304 1019.94 669.169 1021.01 665.917 1020.79C662.655 1020.58 659.676 1019.1 657.521 1016.66L292.243 671.249C290.125 668.839 289.058 665.69 289.281 662.438C289.487 659.176 290.966 656.197 293.41 654.043L638.821 288.778C641.234 286.673 644.38 285.592 647.632 285.815C650.894 286.022 653.873 287.5 656.027 289.944L1021.3 635.338C1025.7 640.36 1025.2 648.094 1020.14 652.545L674.752 1017.8Z" fill="white"/>
<path d="M668.396 1020.69C670.318 1020.22 672.166 1019.33 673.789 1017.98L673.836 1017.94L1020.01 671.76C1022.77 669.501 1024.51 666.246 1024.85 662.625C1025.2 659.017 1024.12 655.488 1021.82 652.684L675.585 306.452C670.871 300.715 662.292 299.885 656.508 304.639L310.29 650.874C307.532 653.134 305.796 656.388 305.451 660.01C305.103 663.618 306.178 667.146 308.477 669.951L654.713 1016.17C658.098 1020.29 663.497 1021.89 668.396 1020.69ZM672.888 1016.96C667.69 1021.21 659.991 1020.45 655.724 1015.27L309.489 669.053C305.258 663.905 306.003 656.196 311.208 651.909L657.423 305.661C662.571 301.43 670.28 302.175 674.567 307.38L1020.8 653.598C1022.84 656.072 1023.8 659.247 1023.49 662.492C1023.18 665.736 1021.62 668.665 1019.1 670.739L672.901 1016.95L672.888 1016.96Z" fill="white"/>
<path d="M666.829 1019.61C668.644 1019.17 670.355 1018.35 671.891 1017.17L671.938 1017.13L1018.92 689.98C1024.8 685.457 1025.91 676.909 1021.34 670.967L694.151 323.938C691.988 321.114 688.781 319.281 685.183 318.803C681.589 318.338 678.018 319.297 675.15 321.512L328.108 648.707C322.225 653.231 321.119 661.778 325.686 667.721L652.881 1014.76C655.043 1017.59 658.25 1019.42 661.848 1019.9C663.543 1020.12 665.217 1020.02 666.832 1019.63L666.829 1019.61ZM671.023 1016.11C668.45 1018.08 665.249 1018.94 662.021 1018.53C658.79 1018.1 655.912 1016.46 653.922 1013.87L326.727 666.829C322.66 661.543 323.669 653.868 328.989 649.765L676.028 322.557C678.565 320.606 681.762 319.739 684.993 320.165C688.224 320.591 691.103 322.236 693.093 324.819L1020.3 671.858C1024.37 677.145 1023.36 684.82 1018.04 688.923L671.02 1016.1L671.023 1016.11Z" fill="white"/>
<path d="M665.266 1018.54C666.948 1018.13 668.539 1017.4 669.98 1016.35L670.041 1016.31L1017.85 708.197C1020.73 706.119 1022.68 702.969 1023.26 699.388C1023.84 695.808 1022.99 692.211 1020.87 689.263L712.717 341.41C710.638 338.523 707.488 336.577 703.908 335.996C700.328 335.415 696.73 336.267 693.783 338.388L345.917 646.543C339.888 650.876 338.505 659.392 342.881 665.481L651.036 1013.35C653.115 1016.23 656.265 1018.18 659.845 1018.76C661.674 1019.06 663.507 1018.98 665.256 1018.56L665.266 1018.54ZM669.163 1015.27C666.513 1017.16 663.303 1017.92 660.089 1017.39C656.862 1016.86 654.044 1015.12 652.137 1012.47L343.986 664.616C340.086 659.204 341.325 651.543 346.798 647.601L694.638 339.453C697.237 337.586 700.461 336.825 703.688 337.352C706.915 337.878 709.733 339.622 711.639 342.268L1019.8 690.118C1021.67 692.717 1022.43 695.941 1021.91 699.168C1021.38 702.395 1019.64 705.213 1016.99 707.12L669.159 1015.25L669.163 1015.27Z" fill="white"/>
<path d="M663.732 1017.47C665.254 1017.1 666.724 1016.46 668.098 1015.54L668.159 1015.5L1016.76 726.431C1022.93 722.276 1024.59 713.791 1020.41 707.557L731.295 358.88C729.31 355.913 726.221 353.868 722.641 353.173C719.075 352.475 715.448 353.207 712.424 355.248L363.747 644.36C360.781 646.345 358.735 649.434 358.041 653.014C357.343 656.58 358.078 660.221 360.102 663.234L649.214 1011.91C652.46 1016.73 658.342 1018.8 663.722 1017.49L663.732 1017.47ZM667.301 1014.42C661.696 1018.17 654.087 1016.68 650.325 1011.07L361.213 662.396C359.43 659.734 358.76 656.474 359.389 653.264C360.019 650.054 361.859 647.284 364.565 645.447L713.242 356.335C715.904 354.552 719.164 353.882 722.374 354.512C725.584 355.141 728.355 356.982 730.178 359.691L1019.31 708.378C1023.04 713.93 1021.55 721.552 1015.94 725.33L667.287 1014.42L667.301 1014.42Z" fill="white"/>
<path d="M662.187 1016.42C663.575 1016.08 664.925 1015.52 666.199 1014.72L666.259 1014.67L1015.69 744.648C1018.72 742.747 1020.87 739.715 1021.69 736.162C1022.5 732.61 1021.88 728.943 1019.94 725.85L749.859 376.352C745.891 370.023 737.442 368.1 731.062 372.095L381.574 642.163C378.544 644.065 376.386 647.097 375.571 650.649C374.757 654.202 375.385 657.868 377.316 660.961L647.384 1010.45C650.562 1015.51 656.614 1017.76 662.167 1016.4L662.187 1016.42ZM665.438 1013.57C659.704 1017.14 652.123 1015.42 648.528 1009.69L378.46 660.2C376.747 657.478 376.193 654.176 376.926 650.983C377.659 647.79 379.593 645.053 382.365 643.314L731.849 373.232C737.54 369.661 745.141 371.409 748.736 377.137L1018.81 726.638C1020.52 729.36 1021.07 732.663 1020.34 735.855C1019.61 739.048 1017.67 741.785 1014.9 743.524L665.438 1013.57Z" fill="white"/>
<path d="M660.607 1015.39C661.888 1015.08 663.124 1014.58 664.287 1013.9L664.334 1013.86L1014.59 762.873C1017.69 761.052 1019.95 758.08 1020.88 754.541C1021.81 751.003 1021.3 747.307 1019.45 744.138L768.425 393.826C764.634 387.354 756.216 385.155 749.69 388.958L399.378 639.987C392.903 643.764 390.691 652.186 394.511 658.722L645.539 1009.03C647.36 1012.14 650.332 1014.4 653.871 1015.33C656.108 1015.91 658.404 1015.93 660.593 1015.4L660.607 1015.39ZM663.577 1012.73C660.742 1014.38 657.426 1014.83 654.251 1013.99C651.062 1013.16 648.385 1011.12 646.727 1008.28L395.698 657.964C394.065 655.166 393.609 651.854 394.455 648.662C395.288 645.473 397.321 642.796 400.169 641.137L750.481 390.109C756.298 386.705 763.874 388.7 767.305 394.567L1018.33 744.879C1019.96 747.664 1020.42 750.989 1019.59 754.178C1018.76 757.367 1016.72 760.043 1013.88 761.702L663.587 1012.71L663.577 1012.73Z" fill="white"/>
<path d="M659.07 1014.37C660.218 1014.09 661.33 1013.66 662.403 1013.07L662.456 1013.06L1013.53 781.086C1020.14 777.486 1022.64 769.109 1019.01 762.428L787.021 411.305C783.418 404.674 775.034 402.212 768.363 405.825L417.24 637.81C414.055 639.537 411.697 642.449 410.652 645.986C409.604 649.511 410.009 653.246 411.763 656.482L643.748 1007.6C645.475 1010.79 648.386 1013.15 651.924 1014.19C654.287 1014.89 656.75 1014.95 659.086 1014.38L659.07 1014.37ZM661.716 1011.88C658.818 1013.45 655.466 1013.81 652.294 1012.87C649.123 1011.93 646.493 1009.8 644.905 1006.9L412.919 655.774C411.371 652.913 411.018 649.561 411.95 646.376C412.886 643.204 415.016 640.575 417.924 638.987L769.047 407.001C771.908 405.453 775.259 405.099 778.444 406.032C781.616 406.968 784.245 409.098 785.834 412.006L1017.82 763.129C1021.06 769.085 1018.82 776.636 1012.81 779.903L661.712 1011.87L661.716 1011.88Z" fill="white"/>
<path d="M657.544 1013.34C658.545 1013.1 659.534 1012.74 660.489 1012.25L660.543 1012.24L1012.42 799.31C1019.2 795.897 1021.95 787.542 1018.51 780.715L805.571 428.781C802.158 422.004 793.789 419.256 786.976 422.691L435.042 635.633C431.781 637.28 429.323 640.131 428.159 643.642C426.994 647.152 427.279 650.917 428.949 654.215L641.891 1006.15C644.828 1011.97 651.413 1014.83 657.527 1013.33L657.544 1013.34ZM659.852 1011.04C653.717 1014.12 646.203 1011.63 643.104 1005.5L430.162 653.564C428.68 650.63 428.434 647.253 429.483 644.081C430.532 640.91 432.749 638.345 435.719 636.84L787.653 423.898C793.761 420.819 801.275 423.31 804.378 429.455L1017.32 781.389C1020.4 787.484 1017.91 795.011 1011.76 798.113L659.852 1011.04Z" fill="white"/>
<path d="M656.013 1012.34C656.894 1012.13 657.755 1011.83 658.604 1011.43L658.644 1011.42L1011.35 817.527C1018.28 814.302 1021.3 805.981 1018.05 799.008L824.152 446.264C822.599 442.923 819.809 440.365 816.299 439.088C812.789 437.81 809.008 437.971 805.634 439.561L452.889 633.46C445.957 636.698 442.938 645.006 446.186 651.978L640.085 1004.72C642.918 1010.81 649.685 1013.89 656.013 1012.34ZM657.993 1010.2C651.716 1013.11 644.23 1010.39 641.295 1004.12L447.396 651.371C444.481 645.123 447.218 637.634 453.49 634.699L806.234 440.8C809.231 439.402 812.648 439.259 815.812 440.395C818.966 441.548 821.498 443.857 822.906 446.894L1016.8 799.638C1019.72 805.886 1016.99 813.389 1010.71 816.31L657.99 1010.19L657.993 1010.2Z" fill="white"/>
<path d="M654.458 1011.36C655.219 1011.18 655.964 1010.93 656.708 1010.62L656.748 1010.61L1010.26 835.761C1013.68 834.288 1016.34 831.558 1017.73 828.062C1019.12 824.582 1019.07 820.759 1017.58 817.305L842.721 463.75C839.673 456.671 831.393 453.363 824.278 456.434L470.723 631.289C463.645 634.337 460.337 642.617 463.407 649.732L638.263 1003.29C639.736 1006.7 642.465 1009.36 645.962 1010.76C648.706 1011.85 651.655 1012.05 654.471 1011.36L654.458 1011.36ZM656.145 1009.35C653.045 1010.68 649.605 1010.73 646.458 1009.49C643.308 1008.24 640.837 1005.83 639.496 1002.72L464.64 649.161C461.889 642.774 464.87 635.296 471.283 632.539L824.839 457.683C831.229 454.946 838.703 457.913 841.461 464.327L1016.32 817.882C1017.63 820.955 1017.69 824.408 1016.43 827.559C1015.18 830.709 1012.79 833.177 1009.66 834.521L656.131 1009.36L656.145 1009.35Z" fill="white"/>
<path d="M652.93 1010.38C653.557 1010.23 654.188 1010.03 654.806 1009.78L654.833 1009.77L1009.16 853.985C1012.66 852.606 1015.43 849.92 1016.93 846.454C1018.43 842.988 1018.49 839.125 1017.1 835.615L861.309 481.26C858.448 474.022 850.177 470.457 842.926 473.321L488.57 629.116C481.333 631.977 477.765 640.235 480.631 647.499L636.44 1001.85C637.819 1005.35 640.505 1008.11 643.971 1009.62C646.835 1010.85 649.953 1011.11 652.93 1010.38ZM654.283 1008.51C651.097 1009.77 647.644 1009.71 644.511 1008.35C641.378 1007 638.954 1004.49 637.696 1001.32L481.887 646.965C479.297 640.426 482.528 632.986 489.08 630.392L843.436 474.597C849.962 472.01 857.416 475.237 860.009 481.79L1015.8 836.145C1017.06 839.292 1017 842.771 1015.65 845.904C1014.29 849.037 1011.78 851.461 1008.61 852.718L654.269 1008.51L654.283 1008.51Z" fill="white"/>
<path d="M651.416 1009.41C651.91 1009.29 652.411 1009.13 652.905 1008.96L1008.06 872.208C1015.45 869.522 1019.3 861.308 1016.61 853.902L879.858 498.735C877.172 491.342 868.958 487.494 861.552 490.184L506.385 626.936C502.812 628.235 499.942 630.847 498.328 634.312C496.714 637.777 496.531 641.656 497.833 645.242L634.586 1000.41C637.094 1007.31 644.421 1011.12 651.403 1009.41L651.416 1009.41ZM652.422 1007.67C645.723 1010.08 638.314 1006.63 635.885 999.935L499.132 644.769C496.706 638.09 500.18 630.661 506.872 628.232L862.038 491.479C868.717 489.053 876.146 492.527 878.575 499.219L1015.33 854.385C1017.75 861.064 1014.28 868.493 1007.59 870.922L652.422 1007.67Z" fill="white"/>
</g>
<defs>
<clipPath id="clip0_434_1984">
<rect width="948" height="969" fill="white" transform="matrix(-0.971351 0.237648 0.237648 0.971351 920.841 0)"/>
</clipPath>
</defs>
</svg>
